{
	"asset":{
		"generator":"Khronos glTF Blender I/O v4.2.60",
		"version":"2.0"
	},
	"extensionsUsed":[
		"KHR_materials_emissive_strength"
	],
	"scene":0,
	"scenes":[
		{
			"name":"Scene",
			"nodes":[
				0
			]
		}
	],
	"nodes":[
		{
			"mesh":0,
			"name":"Cube",
			"scale":[
				1,
				1.074939489364624,
				1.6150298118591309
			]
		}
	],
	"materials":[
		{
			"doubleSided":true,
			"name":"Material",
			"pbrMetallicRoughness":{
				"baseColorFactor":[
					0.800000011920929,
					0.800000011920929,
					0.800000011920929,
					1
				],
				"metallicFactor":0,
				"roughnessFactor":0.5
			}
		},
		{
			"doubleSided":true,
			"name":"Material.001",
			"pbrMetallicRoughness":{
				"baseColorFactor":[
					0.10878951847553253,
					0.10878951847553253,
					0.10878951847553253,
					1
				],
				"roughnessFactor":0.3976377844810486
			}
		},
		{
			"doubleSided":true,
			"emissiveFactor":[
				1,
				0,
				0.027931232005357742
			],
			"extensions":{
				"KHR_materials_emissive_strength":{
					"emissiveStrength":4.799999713897705
				}
			},
			"name":"Material.002",
			"pbrMetallicRoughness":{
				"baseColorFactor":[
					0.800000011920929,
					0.800000011920929,
					0.800000011920929,
					1
				],
				"metallicFactor":0,
				"roughnessFactor":0.5
			}
		},
		{
			"doubleSided":true,
			"name":"Material.003",
			"pbrMetallicRoughness":{
				"baseColorFactor":[
					0.17904895544052124,
					0.07251091301441193,
					0.017697226256132126,
					1
				],
				"metallicFactor":0,
				"roughnessFactor":0.5
			}
		},
		{
			"doubleSided":true,
			"name":"Material.004",
			"pbrMetallicRoughness":{
				"baseColorFactor":[
					0,
					0,
					0,
					1
				],
				"metallicFactor":0,
				"roughnessFactor":0.5
			}
		},
		{
			"doubleSided":true,
			"name":"Material.005",
			"pbrMetallicRoughness":{
				"baseColorFactor":[
					0.13127917051315308,
					0.13127917051315308,
					0.13127917051315308,
					1
				],
				"metallicFactor":0,
				"roughnessFactor":0.5
			}
		},
		{
			"doubleSided":true,
			"name":"Material.006",
			"pbrMetallicRoughness":{
				"baseColorFactor":[
					0.800000011920929,
					0.800000011920929,
					0.800000011920929,
					1
				],
				"roughnessFactor":0.33070865273475647
			}
		},
		{
			"doubleSided":true,
			"name":"Material.014",
			"pbrMetallicRoughness":{
				"baseColorFactor":[
					0.03453642502427101,
					0.016619380563497543,
					0.008540449663996696,
					1
				],
				"metallicFactor":0.31496062874794006,
				"roughnessFactor":0.4055117964744568
			}
		}
	],
	"meshes":[
		{
			"name":"Cube",
			"primitives":[
				{
					"attributes":{
						"POSITION":0,
						"NORMAL":1,
						"TEXCOORD_0":2
					},
					"indices":3,
					"material":0
				},
				{
					"attributes":{
						"POSITION":4,
						"NORMAL":5,
						"TEXCOORD_0":6
					},
					"indices":7,
					"material":1
				},
				{
					"attributes":{
						"POSITION":8,
						"NORMAL":9,
						"TEXCOORD_0":10
					},
					"indices":11,
					"material":2
				},
				{
					"attributes":{
						"POSITION":12,
						"NORMAL":13,
						"TEXCOORD_0":14
					},
					"indices":15,
					"material":3
				},
				{
					"attributes":{
						"POSITION":16,
						"NORMAL":17,
						"TEXCOORD_0":18
					},
					"indices":19,
					"material":4
				},
				{
					"attributes":{
						"POSITION":20,
						"NORMAL":21,
						"TEXCOORD_0":22
					},
					"indices":23,
					"material":5
				},
				{
					"attributes":{
						"POSITION":24,
						"NORMAL":25,
						"TEXCOORD_0":26
					},
					"indices":27,
					"material":6
				},
				{
					"attributes":{
						"POSITION":28,
						"NORMAL":29,
						"TEXCOORD_0":30
					},
					"indices":31,
					"material":7
				}
			]
		}
	],
	"accessors":[
		{
			"bufferView":0,
			"componentType":5126,
			"count":228,
			"max":[
				0.9913727045059204,
				-0.3218764066696167,
				-0.4844706058502197
			],
			"min":[
				0.5307037234306335,
				-0.7494019269943237,
				-0.7794843316078186
			],
			"type":"VEC3"
		},
		{
			"bufferView":1,
			"componentType":5126,
			"count":228,
			"type":"VEC3"
		},
		{
			"bufferView":2,
			"componentType":5126,
			"count":228,
			"type":"VEC2"
		},
		{
			"bufferView":3,
			"componentType":5123,
			"count":384,
			"type":"SCALAR"
		},
		{
			"bufferView":4,
			"componentType":5126,
			"count":6336,
			"max":[
				0.15835188329219818,
				3.1365103721618652,
				0.5317809581756592
			],
			"min":[
				-0.15835176408290863,
				0.7663602232933044,
				-0.5311384797096252
			],
			"type":"VEC3"
		},
		{
			"bufferView":5,
			"componentType":5126,
			"count":6336,
			"type":"VEC3"
		},
		{
			"bufferView":6,
			"componentType":5126,
			"count":6336,
			"type":"VEC2"
		},
		{
			"bufferView":7,
			"componentType":5123,
			"count":9384,
			"type":"SCALAR"
		},
		{
			"bufferView":8,
			"componentType":5126,
			"count":320,
			"max":[
				1.0258631706237793,
				0.23733416199684143,
				-0.7238487601280212
			],
			"min":[
				0.9340626001358032,
				0.16295966506004333,
				-0.7733513712882996
			],
			"type":"VEC3"
		},
		{
			"bufferView":9,
			"componentType":5126,
			"count":320,
			"type":"VEC3"
		},
		{
			"bufferView":10,
			"componentType":5126,
			"count":320,
			"type":"VEC2"
		},
		{
			"bufferView":11,
			"componentType":5123,
			"count":564,
			"type":"SCALAR"
		},
		{
			"bufferView":12,
			"componentType":5126,
			"count":3508,
			"max":[
				1.0063066482543945,
				1,
				1
			],
			"min":[
				-1,
				-1,
				-1
			],
			"type":"VEC3"
		},
		{
			"bufferView":13,
			"componentType":5126,
			"count":3508,
			"type":"VEC3"
		},
		{
			"bufferView":14,
			"componentType":5126,
			"count":3508,
			"type":"VEC2"
		},
		{
			"bufferView":15,
			"componentType":5123,
			"count":5412,
			"type":"SCALAR"
		},
		{
			"bufferView":16,
			"componentType":5126,
			"count":1332,
			"max":[
				1.0946497917175293,
				0.8644795417785645,
				0.8644795417785645
			],
			"min":[
				-0.7678158283233643,
				-1.234186053276062,
				-0.8644795417785645
			],
			"type":"VEC3"
		},
		{
			"bufferView":17,
			"componentType":5126,
			"count":1332,
			"type":"VEC3"
		},
		{
			"bufferView":18,
			"componentType":5126,
			"count":1332,
			"type":"VEC2"
		},
		{
			"bufferView":19,
			"componentType":5123,
			"count":2370,
			"type":"SCALAR"
		},
		{
			"bufferView":20,
			"componentType":5126,
			"count":444,
			"max":[
				1.074430227279663,
				0.6507115364074707,
				-0.4816087484359741
			],
			"min":[
				0.5307037234306335,
				-0.7494020462036133,
				-0.7794843316078186
			],
			"type":"VEC3"
		},
		{
			"bufferView":21,
			"componentType":5126,
			"count":444,
			"type":"VEC3"
		},
		{
			"bufferView":22,
			"componentType":5126,
			"count":444,
			"type":"VEC2"
		},
		{
			"bufferView":23,
			"componentType":5123,
			"count":834,
			"type":"SCALAR"
		},
		{
			"bufferView":24,
			"componentType":5126,
			"count":1791,
			"max":[
				1.0258471965789795,
				0.7971017956733704,
				0.8039791584014893
			],
			"min":[
				0.7186070084571838,
				-0.7584680914878845,
				-0.41876524686813354
			],
			"type":"VEC3"
		},
		{
			"bufferView":25,
			"componentType":5126,
			"count":1791,
			"type":"VEC3"
		},
		{
			"bufferView":26,
			"componentType":5126,
			"count":1791,
			"type":"VEC2"
		},
		{
			"bufferView":27,
			"componentType":5123,
			"count":3384,
			"type":"SCALAR"
		},
		{
			"bufferView":28,
			"componentType":5126,
			"count":32,
			"max":[
				0.9689987897872925,
				-0.3490351438522339,
				-0.5130061507225037
			],
			"min":[
				0.9686214327812195,
				-0.7022294402122498,
				-0.7480870485305786
			],
			"type":"VEC3"
		},
		{
			"bufferView":29,
			"componentType":5126,
			"count":32,
			"type":"VEC3"
		},
		{
			"bufferView":30,
			"componentType":5126,
			"count":32,
			"type":"VEC2"
		},
		{
			"bufferView":31,
			"componentType":5123,
			"count":90,
			"type":"SCALAR"
		}
	],
	"bufferViews":[
		{
			"buffer":0,
			"byteLength":2736,
			"byteOffset":0,
			"target":34962
		},
		{
			"buffer":0,
			"byteLength":2736,
			"byteOffset":2736,
			"target":34962
		},
		{
			"buffer":0,
			"byteLength":1824,
			"byteOffset":5472,
			"target":34962
		},
		{
			"buffer":0,
			"byteLength":768,
			"byteOffset":7296,
			"target":34963
		},
		{
			"buffer":0,
			"byteLength":76032,
			"byteOffset":8064,
			"target":34962
		},
		{
			"buffer":0,
			"byteLength":76032,
			"byteOffset":84096,
			"target":34962
		},
		{
			"buffer":0,
			"byteLength":50688,
			"byteOffset":160128,
			"target":34962
		},
		{
			"buffer":0,
			"byteLength":18768,
			"byteOffset":210816,
			"target":34963
		},
		{
			"buffer":0,
			"byteLength":3840,
			"byteOffset":229584,
			"target":34962
		},
		{
			"buffer":0,
			"byteLength":3840,
			"byteOffset":233424,
			"target":34962
		},
		{
			"buffer":0,
			"byteLength":2560,
			"byteOffset":237264,
			"target":34962
		},
		{
			"buffer":0,
			"byteLength":1128,
			"byteOffset":239824,
			"target":34963
		},
		{
			"buffer":0,
			"byteLength":42096,
			"byteOffset":240952,
			"target":34962
		},
		{
			"buffer":0,
			"byteLength":42096,
			"byteOffset":283048,
			"target":34962
		},
		{
			"buffer":0,
			"byteLength":28064,
			"byteOffset":325144,
			"target":34962
		},
		{
			"buffer":0,
			"byteLength":10824,
			"byteOffset":353208,
			"target":34963
		},
		{
			"buffer":0,
			"byteLength":15984,
			"byteOffset":364032,
			"target":34962
		},
		{
			"buffer":0,
			"byteLength":15984,
			"byteOffset":380016,
			"target":34962
		},
		{
			"buffer":0,
			"byteLength":10656,
			"byteOffset":396000,
			"target":34962
		},
		{
			"buffer":0,
			"byteLength":4740,
			"byteOffset":406656,
			"target":34963
		},
		{
			"buffer":0,
			"byteLength":5328,
			"byteOffset":411396,
			"target":34962
		},
		{
			"buffer":0,
			"byteLength":5328,
			"byteOffset":416724,
			"target":34962
		},
		{
			"buffer":0,
			"byteLength":3552,
			"byteOffset":422052,
			"target":34962
		},
		{
			"buffer":0,
			"byteLength":1668,
			"byteOffset":425604,
			"target":34963
		},
		{
			"buffer":0,
			"byteLength":21492,
			"byteOffset":427272,
			"target":34962
		},
		{
			"buffer":0,
			"byteLength":21492,
			"byteOffset":448764,
			"target":34962
		},
		{
			"buffer":0,
			"byteLength":14328,
			"byteOffset":470256,
			"target":34962
		},
		{
			"buffer":0,
			"byteLength":6768,
			"byteOffset":484584,
			"target":34963
		},
		{
			"buffer":0,
			"byteLength":384,
			"byteOffset":491352,
			"target":34962
		},
		{
			"buffer":0,
			"byteLength":384,
			"byteOffset":491736,
			"target":34962
		},
		{
			"buffer":0,
			"byteLength":256,
			"byteOffset":492120,
			"target":34962
		},
		{
			"buffer":0,
			"byteLength":180,
			"byteOffset":492376,
			"target":34963
		}
	],
	"buffers":[
		{
			"byteLength":492556,
			"uri":"tv.bin"
		}
	]
}
