{
	"asset":{
		"generator":"Khronos glTF Blender I/O v4.2.60",
		"version":"2.0"
	},
	"extensionsUsed":[
		"KHR_materials_emissive_strength",
		"KHR_materials_specular",
		"KHR_materials_ior"
	],
	"scene":0,
	"scenes":[
		{
			"name":"Scene",
			"nodes":[
				12
			]
		}
	],
	"nodes":[
		{
			"name":"Bone.001",
			"rotation":[
				-0.08972296863794327,
				-1.9779159629251808e-05,
				0.005067680962383747,
				0.9959539175033569
			],
			"translation":[
				-3.137754639448431e-11,
				0.6169058084487915,
				-3.72528741188205e-09
			]
		},
		{
			"name":"Bone.003",
			"rotation":[
				-0.13106732070446014,
				-0.0002266515075461939,
				0.005105027463287115,
				0.9913603067398071
			],
			"scale":[
				1,
				0.9999999403953552,
				0.9999999403953552
			],
			"translation":[
				-0.0013469225959852338,
				0.44361770153045654,
				0.49345940351486206
			]
		},
		{
			"name":"Bone.004",
			"rotation":[
				0.05264462158083916,
				-1.4743503129466262e-07,
				-0.0001410928525729105,
				0.9986133575439453
			],
			"scale":[
				0.9999999403953552,
				0.9999999403953552,
				0.9999998807907104
			],
			"translation":[
				-2.1312987882993184e-05,
				-0.002690593246370554,
				-0.5846683382987976
			]
		},
		{
			"children":[
				0,
				1,
				2
			],
			"name":"Bone.002",
			"rotation":[
				-0.0676397979259491,
				-5.2453306125244126e-05,
				0.0008772056316956878,
				0.9977093935012817
			],
			"translation":[
				-1.3301360013429075e-11,
				0.4137040972709656,
				-2.625082373697296e-10
			]
		},
		{
			"children":[
				3
			],
			"name":"Bone",
			"rotation":[
				0.014663281850516796,
				3.193205702700652e-05,
				-0.0005261831101961434,
				0.9998923540115356
			]
		},
		{
			"name":"lowl.leg.l",
			"rotation":[
				0.00744552630931139,
				-8.60542304081946e-09,
				-0.00010495204332983121,
				0.9999722838401794
			],
			"scale":[
				1.0000001192092896,
				1,
				1.0000001192092896
			],
			"translation":[
				-2.1773303160443902e-08,
				0.2549912929534912,
				1.4551915228366852e-09
			]
		},
		{
			"children":[
				5
			],
			"name":"upl.leg.l",
			"rotation":[
				0.8217236399650574,
				0.5649444460868835,
				-0.004298932384699583,
				0.074763722717762
			],
			"scale":[
				0.9999998211860657,
				0.9999998807907104,
				0.9999998807907104
			],
			"translation":[
				0.09708743542432785,
				0.34253206849098206,
				-0.03658560663461685
			]
		},
		{
			"children":[
				6
			],
			"name":"gro.l",
			"rotation":[
				0.05693300440907478,
				-0.007991744205355644,
				-0.5647925734519958,
				0.8232278823852539
			],
			"scale":[
				1.0000001192092896,
				1,
				1
			],
			"translation":[
				0.07761514186859131,
				-0.008094601333141327,
				0.00030978769063949585
			]
		},
		{
			"name":"lowl.leg.r",
			"rotation":[
				0.00744552630931139,
				8.60542304081946e-09,
				0.00010495204332983121,
				0.9999722838401794
			],
			"scale":[
				1.0000001192092896,
				1,
				1.0000001192092896
			],
			"translation":[
				2.1773303160443902e-08,
				0.2549912929534912,
				1.4551915228366852e-09
			]
		},
		{
			"children":[
				8
			],
			"name":"upl.leg.r",
			"rotation":[
				0.8217236399650574,
				-0.5649444460868835,
				0.004298932384699583,
				0.074763722717762
			],
			"scale":[
				0.9999998211860657,
				0.9999998807907104,
				0.9999998807907104
			],
			"translation":[
				-0.09708743542432785,
				0.34253206849098206,
				-0.03658560663461685
			]
		},
		{
			"children":[
				9
			],
			"name":"gro.r",
			"rotation":[
				0.05693300440907478,
				0.007991744205355644,
				0.5647925734519958,
				0.8232278823852539
			],
			"scale":[
				1.0000001192092896,
				1,
				1
			],
			"translation":[
				-0.07761514186859131,
				-0.008094601333141327,
				0.00030978769063949585
			]
		},
		{
			"mesh":0,
			"name":"Cube",
			"skin":0
		},
		{
			"children":[
				11,
				4,
				7,
				10
			],
			"name":"Armature",
			"translation":[
				0,
				-0.022402599453926086,
				0
			]
		}
	],
	"animations":[
		{
			"channels":[
				{
					"sampler":0,
					"target":{
						"node":4,
						"path":"translation"
					}
				},
				{
					"sampler":1,
					"target":{
						"node":4,
						"path":"rotation"
					}
				},
				{
					"sampler":2,
					"target":{
						"node":4,
						"path":"scale"
					}
				},
				{
					"sampler":3,
					"target":{
						"node":3,
						"path":"translation"
					}
				},
				{
					"sampler":4,
					"target":{
						"node":3,
						"path":"rotation"
					}
				},
				{
					"sampler":5,
					"target":{
						"node":3,
						"path":"scale"
					}
				},
				{
					"sampler":6,
					"target":{
						"node":0,
						"path":"translation"
					}
				},
				{
					"sampler":7,
					"target":{
						"node":0,
						"path":"rotation"
					}
				},
				{
					"sampler":8,
					"target":{
						"node":0,
						"path":"scale"
					}
				},
				{
					"sampler":9,
					"target":{
						"node":1,
						"path":"translation"
					}
				},
				{
					"sampler":10,
					"target":{
						"node":1,
						"path":"rotation"
					}
				},
				{
					"sampler":11,
					"target":{
						"node":1,
						"path":"scale"
					}
				},
				{
					"sampler":12,
					"target":{
						"node":2,
						"path":"translation"
					}
				},
				{
					"sampler":13,
					"target":{
						"node":2,
						"path":"rotation"
					}
				},
				{
					"sampler":14,
					"target":{
						"node":2,
						"path":"scale"
					}
				},
				{
					"sampler":15,
					"target":{
						"node":7,
						"path":"translation"
					}
				},
				{
					"sampler":16,
					"target":{
						"node":7,
						"path":"rotation"
					}
				},
				{
					"sampler":17,
					"target":{
						"node":7,
						"path":"scale"
					}
				},
				{
					"sampler":18,
					"target":{
						"node":6,
						"path":"translation"
					}
				},
				{
					"sampler":19,
					"target":{
						"node":6,
						"path":"rotation"
					}
				},
				{
					"sampler":20,
					"target":{
						"node":6,
						"path":"scale"
					}
				},
				{
					"sampler":21,
					"target":{
						"node":5,
						"path":"translation"
					}
				},
				{
					"sampler":22,
					"target":{
						"node":5,
						"path":"rotation"
					}
				},
				{
					"sampler":23,
					"target":{
						"node":5,
						"path":"scale"
					}
				},
				{
					"sampler":24,
					"target":{
						"node":10,
						"path":"translation"
					}
				},
				{
					"sampler":25,
					"target":{
						"node":10,
						"path":"rotation"
					}
				},
				{
					"sampler":26,
					"target":{
						"node":10,
						"path":"scale"
					}
				},
				{
					"sampler":27,
					"target":{
						"node":9,
						"path":"translation"
					}
				},
				{
					"sampler":28,
					"target":{
						"node":9,
						"path":"rotation"
					}
				},
				{
					"sampler":29,
					"target":{
						"node":9,
						"path":"scale"
					}
				},
				{
					"sampler":30,
					"target":{
						"node":8,
						"path":"translation"
					}
				},
				{
					"sampler":31,
					"target":{
						"node":8,
						"path":"rotation"
					}
				},
				{
					"sampler":32,
					"target":{
						"node":8,
						"path":"scale"
					}
				}
			],
			"name":"running",
			"samplers":[
				{
					"input":13,
					"interpolation":"LINEAR",
					"output":14
				},
				{
					"input":15,
					"interpolation":"STEP",
					"output":16
				},
				{
					"input":15,
					"interpolation":"STEP",
					"output":17
				},
				{
					"input":15,
					"interpolation":"STEP",
					"output":18
				},
				{
					"input":13,
					"interpolation":"LINEAR",
					"output":19
				},
				{
					"input":15,
					"interpolation":"STEP",
					"output":20
				},
				{
					"input":15,
					"interpolation":"STEP",
					"output":21
				},
				{
					"input":15,
					"interpolation":"STEP",
					"output":22
				},
				{
					"input":15,
					"interpolation":"STEP",
					"output":23
				},
				{
					"input":15,
					"interpolation":"STEP",
					"output":24
				},
				{
					"input":15,
					"interpolation":"STEP",
					"output":25
				},
				{
					"input":15,
					"interpolation":"STEP",
					"output":26
				},
				{
					"input":15,
					"interpolation":"STEP",
					"output":27
				},
				{
					"input":15,
					"interpolation":"STEP",
					"output":28
				},
				{
					"input":15,
					"interpolation":"STEP",
					"output":29
				},
				{
					"input":13,
					"interpolation":"LINEAR",
					"output":30
				},
				{
					"input":13,
					"interpolation":"LINEAR",
					"output":31
				},
				{
					"input":15,
					"interpolation":"STEP",
					"output":32
				},
				{
					"input":13,
					"interpolation":"LINEAR",
					"output":33
				},
				{
					"input":13,
					"interpolation":"LINEAR",
					"output":34
				},
				{
					"input":15,
					"interpolation":"STEP",
					"output":35
				},
				{
					"input":15,
					"interpolation":"STEP",
					"output":36
				},
				{
					"input":13,
					"interpolation":"LINEAR",
					"output":37
				},
				{
					"input":15,
					"interpolation":"STEP",
					"output":38
				},
				{
					"input":13,
					"interpolation":"LINEAR",
					"output":39
				},
				{
					"input":13,
					"interpolation":"LINEAR",
					"output":40
				},
				{
					"input":15,
					"interpolation":"STEP",
					"output":41
				},
				{
					"input":13,
					"interpolation":"LINEAR",
					"output":42
				},
				{
					"input":13,
					"interpolation":"LINEAR",
					"output":43
				},
				{
					"input":15,
					"interpolation":"STEP",
					"output":44
				},
				{
					"input":15,
					"interpolation":"STEP",
					"output":45
				},
				{
					"input":13,
					"interpolation":"LINEAR",
					"output":46
				},
				{
					"input":15,
					"interpolation":"STEP",
					"output":47
				}
			]
		}
	],
	"materials":[
		{
			"doubleSided":true,
			"extensions":{
				"KHR_materials_specular":{
					"specularFactor":0.7165354490280151
				},
				"KHR_materials_ior":{
					"ior":1.4500000476837158
				}
			},
			"name":"Material",
			"pbrMetallicRoughness":{
				"baseColorFactor":[
					1,
					0.0014076658990234137,
					0,
					1
				],
				"metallicFactor":0,
				"roughnessFactor":0
			}
		},
		{
			"doubleSided":true,
			"emissiveFactor":[
				1,
				0,
				0.005400342866778374
			],
			"extensions":{
				"KHR_materials_emissive_strength":{
					"emissiveStrength":50
				}
			},
			"name":"Material.005",
			"pbrMetallicRoughness":{
				"baseColorFactor":[
					1,
					0.9942918419837952,
					0.9092974662780762,
					1
				],
				"metallicFactor":0.4173232316970825,
				"roughnessFactor":0
			}
		}
	],
	"meshes":[
		{
			"name":"Mesh",
			"primitives":[
				{
					"attributes":{
						"POSITION":0,
						"NORMAL":1,
						"TEXCOORD_0":2,
						"JOINTS_0":3,
						"WEIGHTS_0":4
					},
					"indices":5,
					"material":0
				},
				{
					"attributes":{
						"POSITION":6,
						"NORMAL":7,
						"TEXCOORD_0":8,
						"JOINTS_0":9,
						"WEIGHTS_0":10
					},
					"indices":11,
					"material":1
				}
			]
		}
	],
	"skins":[
		{
			"inverseBindMatrices":12,
			"joints":[
				4,
				3,
				0,
				1,
				2,
				7,
				6,
				5,
				10,
				9,
				8
			],
			"name":"Armature"
		}
	],
	"accessors":[
		{
			"bufferView":0,
			"componentType":5126,
			"count":1807,
			"max":[
				0.6300364136695862,
				1.6600881814956665,
				0.4909047782421112
			],
			"min":[
				-0.6300362348556519,
				-0.5928778052330017,
				-0.751274585723877
			],
			"type":"VEC3"
		},
		{
			"bufferView":1,
			"componentType":5126,
			"count":1807,
			"type":"VEC3"
		},
		{
			"bufferView":2,
			"componentType":5126,
			"count":1807,
			"type":"VEC2"
		},
		{
			"bufferView":3,
			"componentType":5121,
			"count":1807,
			"type":"VEC4"
		},
		{
			"bufferView":4,
			"componentType":5126,
			"count":1807,
			"type":"VEC4"
		},
		{
			"bufferView":5,
			"componentType":5123,
			"count":8736,
			"type":"SCALAR"
		},
		{
			"bufferView":6,
			"componentType":5126,
			"count":104,
			"max":[
				0.41087862849235535,
				1.3313795328140259,
				0.5144365429878235
			],
			"min":[
				-0.4185401201248169,
				0.836634635925293,
				0.22299939393997192
			],
			"type":"VEC3"
		},
		{
			"bufferView":7,
			"componentType":5126,
			"count":104,
			"type":"VEC3"
		},
		{
			"bufferView":8,
			"componentType":5126,
			"count":104,
			"type":"VEC2"
		},
		{
			"bufferView":9,
			"componentType":5121,
			"count":104,
			"type":"VEC4"
		},
		{
			"bufferView":10,
			"componentType":5126,
			"count":104,
			"type":"VEC4"
		},
		{
			"bufferView":11,
			"componentType":5123,
			"count":480,
			"type":"SCALAR"
		},
		{
			"bufferView":12,
			"componentType":5126,
			"count":11,
			"type":"MAT4"
		},
		{
			"bufferView":13,
			"componentType":5126,
			"count":20,
			"max":[
				0.3333333333333333
			],
			"min":[
				0.016666666666666666
			],
			"type":"SCALAR"
		},
		{
			"bufferView":14,
			"componentType":5126,
			"count":20,
			"type":"VEC3"
		},
		{
			"bufferView":15,
			"componentType":5126,
			"count":2,
			"max":[
				0.3333333333333333
			],
			"min":[
				0.016666666666666666
			],
			"type":"SCALAR"
		},
		{
			"bufferView":16,
			"componentType":5126,
			"count":2,
			"type":"VEC4"
		},
		{
			"bufferView":17,
			"componentType":5126,
			"count":2,
			"type":"VEC3"
		},
		{
			"bufferView":18,
			"componentType":5126,
			"count":2,
			"type":"VEC3"
		},
		{
			"bufferView":19,
			"componentType":5126,
			"count":20,
			"type":"VEC4"
		},
		{
			"bufferView":20,
			"componentType":5126,
			"count":2,
			"type":"VEC3"
		},
		{
			"bufferView":21,
			"componentType":5126,
			"count":2,
			"type":"VEC3"
		},
		{
			"bufferView":22,
			"componentType":5126,
			"count":2,
			"type":"VEC4"
		},
		{
			"bufferView":23,
			"componentType":5126,
			"count":2,
			"type":"VEC3"
		},
		{
			"bufferView":24,
			"componentType":5126,
			"count":2,
			"type":"VEC3"
		},
		{
			"bufferView":25,
			"componentType":5126,
			"count":2,
			"type":"VEC4"
		},
		{
			"bufferView":26,
			"componentType":5126,
			"count":2,
			"type":"VEC3"
		},
		{
			"bufferView":27,
			"componentType":5126,
			"count":2,
			"type":"VEC3"
		},
		{
			"bufferView":28,
			"componentType":5126,
			"count":2,
			"type":"VEC4"
		},
		{
			"bufferView":29,
			"componentType":5126,
			"count":2,
			"type":"VEC3"
		},
		{
			"bufferView":30,
			"componentType":5126,
			"count":20,
			"type":"VEC3"
		},
		{
			"bufferView":31,
			"componentType":5126,
			"count":20,
			"type":"VEC4"
		},
		{
			"bufferView":32,
			"componentType":5126,
			"count":2,
			"type":"VEC3"
		},
		{
			"bufferView":33,
			"componentType":5126,
			"count":20,
			"type":"VEC3"
		},
		{
			"bufferView":34,
			"componentType":5126,
			"count":20,
			"type":"VEC4"
		},
		{
			"bufferView":35,
			"componentType":5126,
			"count":2,
			"type":"VEC3"
		},
		{
			"bufferView":36,
			"componentType":5126,
			"count":2,
			"type":"VEC3"
		},
		{
			"bufferView":37,
			"componentType":5126,
			"count":20,
			"type":"VEC4"
		},
		{
			"bufferView":38,
			"componentType":5126,
			"count":2,
			"type":"VEC3"
		},
		{
			"bufferView":39,
			"componentType":5126,
			"count":20,
			"type":"VEC3"
		},
		{
			"bufferView":40,
			"componentType":5126,
			"count":20,
			"type":"VEC4"
		},
		{
			"bufferView":41,
			"componentType":5126,
			"count":2,
			"type":"VEC3"
		},
		{
			"bufferView":42,
			"componentType":5126,
			"count":20,
			"type":"VEC3"
		},
		{
			"bufferView":43,
			"componentType":5126,
			"count":20,
			"type":"VEC4"
		},
		{
			"bufferView":44,
			"componentType":5126,
			"count":2,
			"type":"VEC3"
		},
		{
			"bufferView":45,
			"componentType":5126,
			"count":2,
			"type":"VEC3"
		},
		{
			"bufferView":46,
			"componentType":5126,
			"count":20,
			"type":"VEC4"
		},
		{
			"bufferView":47,
			"componentType":5126,
			"count":2,
			"type":"VEC3"
		}
	],
	"bufferViews":[
		{
			"buffer":0,
			"byteLength":21684,
			"byteOffset":0,
			"target":34962
		},
		{
			"buffer":0,
			"byteLength":21684,
			"byteOffset":21684,
			"target":34962
		},
		{
			"buffer":0,
			"byteLength":14456,
			"byteOffset":43368,
			"target":34962
		},
		{
			"buffer":0,
			"byteLength":7228,
			"byteOffset":57824,
			"target":34962
		},
		{
			"buffer":0,
			"byteLength":28912,
			"byteOffset":65052,
			"target":34962
		},
		{
			"buffer":0,
			"byteLength":17472,
			"byteOffset":93964,
			"target":34963
		},
		{
			"buffer":0,
			"byteLength":1248,
			"byteOffset":111436,
			"target":34962
		},
		{
			"buffer":0,
			"byteLength":1248,
			"byteOffset":112684,
			"target":34962
		},
		{
			"buffer":0,
			"byteLength":832,
			"byteOffset":113932,
			"target":34962
		},
		{
			"buffer":0,
			"byteLength":416,
			"byteOffset":114764,
			"target":34962
		},
		{
			"buffer":0,
			"byteLength":1664,
			"byteOffset":115180,
			"target":34962
		},
		{
			"buffer":0,
			"byteLength":960,
			"byteOffset":116844,
			"target":34963
		},
		{
			"buffer":0,
			"byteLength":704,
			"byteOffset":117804
		},
		{
			"buffer":0,
			"byteLength":80,
			"byteOffset":118508
		},
		{
			"buffer":0,
			"byteLength":240,
			"byteOffset":118588
		},
		{
			"buffer":0,
			"byteLength":8,
			"byteOffset":118828
		},
		{
			"buffer":0,
			"byteLength":32,
			"byteOffset":118836
		},
		{
			"buffer":0,
			"byteLength":24,
			"byteOffset":118868
		},
		{
			"buffer":0,
			"byteLength":24,
			"byteOffset":118892
		},
		{
			"buffer":0,
			"byteLength":320,
			"byteOffset":118916
		},
		{
			"buffer":0,
			"byteLength":24,
			"byteOffset":119236
		},
		{
			"buffer":0,
			"byteLength":24,
			"byteOffset":119260
		},
		{
			"buffer":0,
			"byteLength":32,
			"byteOffset":119284
		},
		{
			"buffer":0,
			"byteLength":24,
			"byteOffset":119316
		},
		{
			"buffer":0,
			"byteLength":24,
			"byteOffset":119340
		},
		{
			"buffer":0,
			"byteLength":32,
			"byteOffset":119364
		},
		{
			"buffer":0,
			"byteLength":24,
			"byteOffset":119396
		},
		{
			"buffer":0,
			"byteLength":24,
			"byteOffset":119420
		},
		{
			"buffer":0,
			"byteLength":32,
			"byteOffset":119444
		},
		{
			"buffer":0,
			"byteLength":24,
			"byteOffset":119476
		},
		{
			"buffer":0,
			"byteLength":240,
			"byteOffset":119500
		},
		{
			"buffer":0,
			"byteLength":320,
			"byteOffset":119740
		},
		{
			"buffer":0,
			"byteLength":24,
			"byteOffset":120060
		},
		{
			"buffer":0,
			"byteLength":240,
			"byteOffset":120084
		},
		{
			"buffer":0,
			"byteLength":320,
			"byteOffset":120324
		},
		{
			"buffer":0,
			"byteLength":24,
			"byteOffset":120644
		},
		{
			"buffer":0,
			"byteLength":24,
			"byteOffset":120668
		},
		{
			"buffer":0,
			"byteLength":320,
			"byteOffset":120692
		},
		{
			"buffer":0,
			"byteLength":24,
			"byteOffset":121012
		},
		{
			"buffer":0,
			"byteLength":240,
			"byteOffset":121036
		},
		{
			"buffer":0,
			"byteLength":320,
			"byteOffset":121276
		},
		{
			"buffer":0,
			"byteLength":24,
			"byteOffset":121596
		},
		{
			"buffer":0,
			"byteLength":240,
			"byteOffset":121620
		},
		{
			"buffer":0,
			"byteLength":320,
			"byteOffset":121860
		},
		{
			"buffer":0,
			"byteLength":24,
			"byteOffset":122180
		},
		{
			"buffer":0,
			"byteLength":24,
			"byteOffset":122204
		},
		{
			"buffer":0,
			"byteLength":320,
			"byteOffset":122228
		},
		{
			"buffer":0,
			"byteLength":24,
			"byteOffset":122548
		}
	],
	"buffers":[
		{
			"byteLength":122572,
			"uri":"amogus2.bin"
		}
	]
}
