<?xml version="1.0" encoding="UTF-8" standalone="no"?>
<!DOCTYPE svg PUBLIC "-//W3C//DTD SVG 1.1//EN"
 "http://www.w3.org/Graphics/SVG/1.1/DTD/svg11.dtd">
<!-- Generated by graphviz version 12.1.2 (20240928.0832)
 -->
<!-- Title: ReSTIRVulkan/VRE_GameObjRenderSystem.h Pages: 1 -->
<svg width="393pt" height="164pt"
 viewBox="0.00 0.00 393.38 164.00" xmlns="http://www.w3.org/2000/svg" xmlns:xlink="http://www.w3.org/1999/xlink">
<g id="graph0" class="graph" transform="scale(1 1) rotate(0) translate(4 160)">
<title>ReSTIRVulkan/VRE_GameObjRenderSystem.h</title>
<!-- Node1 -->
<g id="Node000001" class="node">
<title>Node1</title>
<g id="a_Node000001"><a xlink:title=" ">
<polygon fill="#999999" stroke="#666666" points="304.38,-156 153.38,-156 153.38,-124 304.38,-124 304.38,-156"/>
<text text-anchor="start" x="161.38" y="-142.5" font-family="Helvetica,sans-Serif" font-size="10.00">ReSTIRVulkan/VRE_GameObj</text>
<text text-anchor="middle" x="228.88" y="-130.5" font-family="Helvetica,sans-Serif" font-size="10.00">RenderSystem.h</text>
</a>
</g>
</g>
<!-- Node2 -->
<g id="Node000002" class="node">
<title>Node2</title>
<g id="a_Node000002"><a xlink:href="_v_r_e___app_8h.html" target="_top" xlink:title=" ">
<polygon fill="white" stroke="#666666" points="216.5,-82 81.25,-82 81.25,-62 216.5,-62 216.5,-82"/>
<text text-anchor="middle" x="148.88" y="-68.5" font-family="Helvetica,sans-Serif" font-size="10.00">ReSTIRVulkan/VRE_App.h</text>
</a>
</g>
</g>
<!-- Node1&#45;&gt;Node2 -->
<g id="edge1_Node000001_Node000002" class="edge">
<title>Node1&#45;&gt;Node2</title>
<g id="a_edge1_Node000001_Node000002"><a xlink:title=" ">
<path fill="none" stroke="#63b8ff" d="M201.45,-116.38C187.32,-104.72 170.85,-91.13 160.17,-82.32"/>
<polygon fill="#63b8ff" stroke="#63b8ff" points="199.21,-119.07 209.15,-122.73 203.67,-113.67 199.21,-119.07"/>
</a>
</g>
</g>
<!-- Node5 -->
<g id="Node000005" class="node">
<title>Node5</title>
<g id="a_Node000005"><a xlink:href="_v_r_e___game_obj_render_system_8cpp.html" target="_top" xlink:title=" ">
<polygon fill="white" stroke="#666666" points="385.38,-88 234.38,-88 234.38,-56 385.38,-56 385.38,-88"/>
<text text-anchor="start" x="242.38" y="-74.5" font-family="Helvetica,sans-Serif" font-size="10.00">ReSTIRVulkan/VRE_GameObj</text>
<text text-anchor="middle" x="309.88" y="-62.5" font-family="Helvetica,sans-Serif" font-size="10.00">RenderSystem.cpp</text>
</a>
</g>
</g>
<!-- Node1&#45;&gt;Node5 -->
<g id="edge4_Node000001_Node000005" class="edge">
<title>Node1&#45;&gt;Node5</title>
<g id="a_edge4_Node000001_Node000005"><a xlink:title=" ">
<path fill="none" stroke="#63b8ff" d="M256.37,-116.6C267.73,-107.34 280.63,-96.83 290.91,-88.45"/>
<polygon fill="#63b8ff" stroke="#63b8ff" points="254.38,-113.71 248.83,-122.74 258.8,-119.13 254.38,-113.71"/>
</a>
</g>
</g>
<!-- Node3 -->
<g id="Node000003" class="node">
<title>Node3</title>
<g id="a_Node000003"><a xlink:href="_v_r_e___app_8cpp.html" target="_top" xlink:title=" ">
<polygon fill="white" stroke="#666666" points="145.75,-20 0,-20 0,0 145.75,0 145.75,-20"/>
<text text-anchor="middle" x="72.88" y="-6.5" font-family="Helvetica,sans-Serif" font-size="10.00">ReSTIRVulkan/VRE_App.cpp</text>
</a>
</g>
</g>
<!-- Node2&#45;&gt;Node3 -->
<g id="edge2_Node000002_Node000003" class="edge">
<title>Node2&#45;&gt;Node3</title>
<g id="a_edge2_Node000002_Node000003"><a xlink:title=" ">
<path fill="none" stroke="#63b8ff" d="M128.03,-54.55C113.98,-43.45 95.96,-29.23 84.42,-20.11"/>
<polygon fill="#63b8ff" stroke="#63b8ff" points="125.79,-57.24 135.81,-60.69 130.13,-51.74 125.79,-57.24"/>
</a>
</g>
</g>
<!-- Node4 -->
<g id="Node000004" class="node">
<title>Node4</title>
<g id="a_Node000004"><a xlink:href="main_8cpp.html" target="_top" xlink:title=" ">
<polygon fill="white" stroke="#666666" points="287.5,-20 164.25,-20 164.25,0 287.5,0 287.5,-20"/>
<text text-anchor="middle" x="225.88" y="-6.5" font-family="Helvetica,sans-Serif" font-size="10.00">ReSTIRVulkan/main.cpp</text>
</a>
</g>
</g>
<!-- Node2&#45;&gt;Node4 -->
<g id="edge3_Node000002_Node000004" class="edge">
<title>Node2&#45;&gt;Node4</title>
<g id="a_edge3_Node000002_Node000004"><a xlink:title=" ">
<path fill="none" stroke="#63b8ff" d="M169.93,-54.59C184.08,-43.57 202.21,-29.44 213.93,-20.31"/>
<polygon fill="#63b8ff" stroke="#63b8ff" points="167.84,-51.79 162.1,-60.69 172.14,-57.31 167.84,-51.79"/>
</a>
</g>
</g>
</g>
</svg>
