<?xml version="1.0" encoding="UTF-8" standalone="no"?>
<!DOCTYPE svg PUBLIC "-//W3C//DTD SVG 1.1//EN"
 "http://www.w3.org/Graphics/SVG/1.1/DTD/svg11.dtd">
<!-- Generated by graphviz version 12.1.2 (20240928.0832)
 -->
<!-- Title: ReSTIRVulkan/VRE_Renderer.h Pages: 1 -->
<svg width="876pt" height="276pt"
 viewBox="0.00 0.00 876.38 276.00" xmlns="http://www.w3.org/2000/svg" xmlns:xlink="http://www.w3.org/1999/xlink">
<g id="graph0" class="graph" transform="scale(1 1) rotate(0) translate(4 272)">
<title>ReSTIRVulkan/VRE_Renderer.h</title>
<!-- Node1 -->
<g id="Node000001" class="node">
<title>Node1</title>
<g id="a_Node000001"><a xlink:title=" ">
<polygon fill="#999999" stroke="#666666" points="408,-268 250.25,-268 250.25,-248 408,-248 408,-268"/>
<text text-anchor="middle" x="329.12" y="-254.5" font-family="Helvetica,sans-Serif" font-size="10.00">ReSTIRVulkan/VRE_Renderer.h</text>
</a>
</g>
</g>
<!-- Node2 -->
<g id="Node000002" class="node">
<title>Node2</title>
<g id="a_Node000002"><a xlink:href="_v_r_e___app_8h.html" target="_top" xlink:title=" ">
<polygon fill="white" stroke="#666666" points="315.75,-82 180.5,-82 180.5,-62 315.75,-62 315.75,-82"/>
<text text-anchor="middle" x="248.12" y="-68.5" font-family="Helvetica,sans-Serif" font-size="10.00">ReSTIRVulkan/VRE_App.h</text>
</a>
</g>
</g>
<!-- Node1&#45;&gt;Node2 -->
<g id="edge1_Node000001_Node000002" class="edge">
<title>Node1&#45;&gt;Node2</title>
<g id="a_edge1_Node000001_Node000002"><a xlink:title=" ">
<path fill="none" stroke="#63b8ff" d="M274.69,-244.35C230.57,-230.79 171.66,-204.37 146.12,-156 139.48,-143.42 138.65,-136.1 146.12,-124 159.4,-102.53 184.75,-89.79 206.86,-82.42"/>
<polygon fill="#63b8ff" stroke="#63b8ff" points="273.53,-247.65 284.11,-247.1 275.49,-240.93 273.53,-247.65"/>
</a>
</g>
</g>
<!-- Node5 -->
<g id="Node000005" class="node">
<title>Node5</title>
<g id="a_Node000005"><a xlink:href="_v_r_e___renderer_8cpp.html" target="_top" xlink:title=" ">
<polygon fill="white" stroke="#666666" points="607.25,-212 439,-212 439,-192 607.25,-192 607.25,-212"/>
<text text-anchor="middle" x="523.12" y="-198.5" font-family="Helvetica,sans-Serif" font-size="10.00">ReSTIRVulkan/VRE_Renderer.cpp</text>
</a>
</g>
</g>
<!-- Node1&#45;&gt;Node5 -->
<g id="edge4_Node000001_Node000005" class="edge">
<title>Node1&#45;&gt;Node5</title>
<g id="a_edge4_Node000001_Node000005"><a xlink:title=" ">
<path fill="none" stroke="#63b8ff" d="M373.82,-244.56C408.91,-234.79 457.05,-221.39 489.07,-212.48"/>
<polygon fill="#63b8ff" stroke="#63b8ff" points="373.07,-241.13 364.38,-247.19 374.95,-247.88 373.07,-241.13"/>
</a>
</g>
</g>
<!-- Node6 -->
<g id="Node000006" class="node">
<title>Node6</title>
<g id="a_Node000006"><a xlink:href="_v_r_e___shared_context_8h.html" target="_top" xlink:title=" ">
<polygon fill="white" stroke="#666666" points="420.75,-212 237.5,-212 237.5,-192 420.75,-192 420.75,-212"/>
<text text-anchor="middle" x="329.12" y="-198.5" font-family="Helvetica,sans-Serif" font-size="10.00">ReSTIRVulkan/VRE_SharedContext.h</text>
</a>
</g>
</g>
<!-- Node1&#45;&gt;Node6 -->
<g id="edge5_Node000001_Node000006" class="edge">
<title>Node1&#45;&gt;Node6</title>
<g id="a_edge5_Node000001_Node000006"><a xlink:title=" ">
<path fill="none" stroke="#63b8ff" d="M329.12,-236.13C329.12,-227.9 329.12,-218.85 329.12,-212.3"/>
<polygon fill="#63b8ff" stroke="#63b8ff" points="325.63,-236.08 329.13,-246.08 332.63,-236.08 325.63,-236.08"/>
</a>
</g>
</g>
<!-- Node3 -->
<g id="Node000003" class="node">
<title>Node3</title>
<g id="a_Node000003"><a xlink:href="_v_r_e___app_8cpp.html" target="_top" xlink:title=" ">
<polygon fill="white" stroke="#666666" points="244,-20 98.25,-20 98.25,0 244,0 244,-20"/>
<text text-anchor="middle" x="171.12" y="-6.5" font-family="Helvetica,sans-Serif" font-size="10.00">ReSTIRVulkan/VRE_App.cpp</text>
</a>
</g>
</g>
<!-- Node2&#45;&gt;Node3 -->
<g id="edge2_Node000002_Node000003" class="edge">
<title>Node2&#45;&gt;Node3</title>
<g id="a_edge2_Node000002_Node000003"><a xlink:title=" ">
<path fill="none" stroke="#63b8ff" d="M227.07,-54.59C212.92,-43.57 194.79,-29.44 183.07,-20.31"/>
<polygon fill="#63b8ff" stroke="#63b8ff" points="224.86,-57.31 234.9,-60.69 229.16,-51.79 224.86,-57.31"/>
</a>
</g>
</g>
<!-- Node4 -->
<g id="Node000004" class="node">
<title>Node4</title>
<g id="a_Node000004"><a xlink:href="main_8cpp.html" target="_top" xlink:title=" ">
<polygon fill="white" stroke="#666666" points="385.75,-20 262.5,-20 262.5,0 385.75,0 385.75,-20"/>
<text text-anchor="middle" x="324.12" y="-6.5" font-family="Helvetica,sans-Serif" font-size="10.00">ReSTIRVulkan/main.cpp</text>
</a>
</g>
</g>
<!-- Node2&#45;&gt;Node4 -->
<g id="edge3_Node000002_Node000004" class="edge">
<title>Node2&#45;&gt;Node4</title>
<g id="a_edge3_Node000002_Node000004"><a xlink:title=" ">
<path fill="none" stroke="#63b8ff" d="M268.97,-54.55C283.02,-43.45 301.04,-29.23 312.58,-20.11"/>
<polygon fill="#63b8ff" stroke="#63b8ff" points="266.87,-51.74 261.19,-60.69 271.21,-57.24 266.87,-51.74"/>
</a>
</g>
</g>
<!-- Node7 -->
<g id="Node000007" class="node">
<title>Node7</title>
<g id="a_Node000007"><a xlink:href="_v_r_e___game_obj_render_system_8h.html" target="_top" xlink:title=" ">
<polygon fill="white" stroke="#666666" points="486.62,-156 335.62,-156 335.62,-124 486.62,-124 486.62,-156"/>
<text text-anchor="start" x="343.62" y="-142.5" font-family="Helvetica,sans-Serif" font-size="10.00">ReSTIRVulkan/VRE_GameObj</text>
<text text-anchor="middle" x="411.12" y="-130.5" font-family="Helvetica,sans-Serif" font-size="10.00">RenderSystem.h</text>
</a>
</g>
</g>
<!-- Node6&#45;&gt;Node7 -->
<g id="edge6_Node000006_Node000007" class="edge">
<title>Node6&#45;&gt;Node7</title>
<g id="a_edge6_Node000006_Node000007"><a xlink:title=" ">
<path fill="none" stroke="#63b8ff" d="M350.94,-185.04C363.07,-176.16 378.11,-165.16 390.11,-156.37"/>
<polygon fill="#63b8ff" stroke="#63b8ff" points="349.16,-182 343.16,-190.73 353.3,-187.65 349.16,-182"/>
</a>
</g>
</g>
<!-- Node9 -->
<g id="Node000009" class="node">
<title>Node9</title>
<g id="a_Node000009"><a xlink:href="_v_r_e___game_object_manager_8h.html" target="_top" xlink:title=" ">
<polygon fill="white" stroke="#666666" points="673.38,-156 508.88,-156 508.88,-124 673.38,-124 673.38,-156"/>
<text text-anchor="start" x="516.88" y="-142.5" font-family="Helvetica,sans-Serif" font-size="10.00">ReSTIRVulkan/VRE_GameObject</text>
<text text-anchor="middle" x="591.12" y="-130.5" font-family="Helvetica,sans-Serif" font-size="10.00">Manager.h</text>
</a>
</g>
</g>
<!-- Node6&#45;&gt;Node9 -->
<g id="edge9_Node000006_Node000009" class="edge">
<title>Node6&#45;&gt;Node9</title>
<g id="a_edge9_Node000006_Node000009"><a xlink:title=" ">
<path fill="none" stroke="#63b8ff" d="M381.42,-189.02C422.27,-179.67 479.34,-166.6 523.63,-156.46"/>
<polygon fill="#63b8ff" stroke="#63b8ff" points="380.79,-185.58 371.83,-191.22 382.36,-192.4 380.79,-185.58"/>
</a>
</g>
</g>
<!-- Node12 -->
<g id="Node000012" class="node">
<title>Node12</title>
<g id="a_Node000012"><a xlink:href="_v_r_e___light_render_system_8h.html" target="_top" xlink:title=" ">
<polygon fill="white" stroke="#666666" points="317.25,-156 155,-156 155,-124 317.25,-124 317.25,-156"/>
<text text-anchor="start" x="163" y="-142.5" font-family="Helvetica,sans-Serif" font-size="10.00">ReSTIRVulkan/VRE_LightRender</text>
<text text-anchor="middle" x="236.12" y="-130.5" font-family="Helvetica,sans-Serif" font-size="10.00">System.h</text>
</a>
</g>
</g>
<!-- Node6&#45;&gt;Node12 -->
<g id="edge13_Node000006_Node000012" class="edge">
<title>Node6&#45;&gt;Node12</title>
<g id="a_edge13_Node000006_Node000012"><a xlink:title=" ">
<path fill="none" stroke="#63b8ff" d="M305.2,-185.56C291.3,-176.6 273.84,-165.33 259.95,-156.37"/>
<polygon fill="#63b8ff" stroke="#63b8ff" points="303.02,-188.32 313.32,-190.8 306.82,-182.44 303.02,-188.32"/>
</a>
</g>
</g>
<!-- Node7&#45;&gt;Node2 -->
<g id="edge7_Node000007_Node000002" class="edge">
<title>Node7&#45;&gt;Node2</title>
<g id="a_edge7_Node000007_Node000002"><a xlink:title=" ">
<path fill="none" stroke="#63b8ff" d="M362.6,-119.35C332.49,-107.16 295.16,-92.05 271.49,-82.46"/>
<polygon fill="#63b8ff" stroke="#63b8ff" points="360.92,-122.45 371.51,-122.96 363.55,-115.96 360.92,-122.45"/>
</a>
</g>
</g>
<!-- Node8 -->
<g id="Node000008" class="node">
<title>Node8</title>
<g id="a_Node000008"><a xlink:href="_v_r_e___game_obj_render_system_8cpp.html" target="_top" xlink:title=" ">
<polygon fill="white" stroke="#666666" points="484.62,-88 333.62,-88 333.62,-56 484.62,-56 484.62,-88"/>
<text text-anchor="start" x="341.62" y="-74.5" font-family="Helvetica,sans-Serif" font-size="10.00">ReSTIRVulkan/VRE_GameObj</text>
<text text-anchor="middle" x="409.12" y="-62.5" font-family="Helvetica,sans-Serif" font-size="10.00">RenderSystem.cpp</text>
</a>
</g>
</g>
<!-- Node7&#45;&gt;Node8 -->
<g id="edge8_Node000007_Node000008" class="edge">
<title>Node7&#45;&gt;Node8</title>
<g id="a_edge8_Node000007_Node000008"><a xlink:title=" ">
<path fill="none" stroke="#63b8ff" d="M410.32,-112.31C410.07,-104.12 409.8,-95.38 409.59,-88.22"/>
<polygon fill="#63b8ff" stroke="#63b8ff" points="406.81,-112.29 410.62,-122.18 413.81,-112.08 406.81,-112.29"/>
</a>
</g>
</g>
<!-- Node9&#45;&gt;Node2 -->
<g id="edge10_Node000009_Node000002" class="edge">
<title>Node9&#45;&gt;Node2</title>
<g id="a_edge10_Node000009_Node000002"><a xlink:title=" ">
<path fill="none" stroke="#63b8ff" d="M499.16,-121.44C447.92,-111.63 382.98,-99.18 325.12,-88 315.9,-86.22 306.05,-84.31 296.59,-82.46"/>
<polygon fill="#63b8ff" stroke="#63b8ff" points="498.24,-124.83 508.72,-123.27 499.56,-117.95 498.24,-124.83"/>
</a>
</g>
</g>
<!-- Node10 -->
<g id="Node000010" class="node">
<title>Node10</title>
<g id="a_Node000010"><a xlink:href="_v_r_e___game_object_8cpp.html" target="_top" xlink:title=" ">
<polygon fill="white" stroke="#666666" points="685.75,-82 502.5,-82 502.5,-62 685.75,-62 685.75,-82"/>
<text text-anchor="middle" x="594.12" y="-68.5" font-family="Helvetica,sans-Serif" font-size="10.00">ReSTIRVulkan/VRE_GameObject.cpp</text>
</a>
</g>
</g>
<!-- Node9&#45;&gt;Node10 -->
<g id="edge11_Node000009_Node000010" class="edge">
<title>Node9&#45;&gt;Node10</title>
<g id="a_edge11_Node000009_Node000010"><a xlink:title=" ">
<path fill="none" stroke="#63b8ff" d="M592.34,-112.31C592.82,-101.67 593.35,-90.13 593.7,-82.32"/>
<polygon fill="#63b8ff" stroke="#63b8ff" points="588.85,-112.03 591.89,-122.18 595.84,-112.35 588.85,-112.03"/>
</a>
</g>
</g>
<!-- Node11 -->
<g id="Node000011" class="node">
<title>Node11</title>
<g id="a_Node000011"><a xlink:href="_v_r_e___game_object_manager_8cpp.html" target="_top" xlink:title=" ">
<polygon fill="white" stroke="#666666" points="868.38,-88 703.88,-88 703.88,-56 868.38,-56 868.38,-88"/>
<text text-anchor="start" x="711.88" y="-74.5" font-family="Helvetica,sans-Serif" font-size="10.00">ReSTIRVulkan/VRE_GameObject</text>
<text text-anchor="middle" x="786.12" y="-62.5" font-family="Helvetica,sans-Serif" font-size="10.00">Manager.cpp</text>
</a>
</g>
</g>
<!-- Node9&#45;&gt;Node11 -->
<g id="edge12_Node000009_Node000011" class="edge">
<title>Node9&#45;&gt;Node11</title>
<g id="a_edge12_Node000009_Node000011"><a xlink:title=" ">
<path fill="none" stroke="#63b8ff" d="M647.41,-119.95C676.91,-109.97 712.57,-97.89 740.36,-88.49"/>
<polygon fill="#63b8ff" stroke="#63b8ff" points="646.63,-116.52 638.28,-123.04 648.87,-123.15 646.63,-116.52"/>
</a>
</g>
</g>
<!-- Node12&#45;&gt;Node2 -->
<g id="edge14_Node000012_Node000002" class="edge">
<title>Node12&#45;&gt;Node2</title>
<g id="a_edge14_Node000012_Node000002"><a xlink:title=" ">
<path fill="none" stroke="#63b8ff" d="M240.91,-112.66C242.87,-101.92 245,-90.21 246.43,-82.32"/>
<polygon fill="#63b8ff" stroke="#63b8ff" points="237.52,-111.74 239.18,-122.2 244.41,-112.99 237.52,-111.74"/>
</a>
</g>
</g>
<!-- Node13 -->
<g id="Node000013" class="node">
<title>Node13</title>
<g id="a_Node000013"><a xlink:href="_v_r_e___light_render_system_8cpp.html" target="_top" xlink:title=" ">
<polygon fill="white" stroke="#666666" points="162.25,-88 0,-88 0,-56 162.25,-56 162.25,-88"/>
<text text-anchor="start" x="8" y="-74.5" font-family="Helvetica,sans-Serif" font-size="10.00">ReSTIRVulkan/VRE_LightRender</text>
<text text-anchor="middle" x="81.12" y="-62.5" font-family="Helvetica,sans-Serif" font-size="10.00">System.cpp</text>
</a>
</g>
</g>
<!-- Node12&#45;&gt;Node13 -->
<g id="edge15_Node000012_Node000013" class="edge">
<title>Node12&#45;&gt;Node13</title>
<g id="a_edge15_Node000012_Node000013"><a xlink:title=" ">
<path fill="none" stroke="#63b8ff" d="M189.22,-119.03C166.21,-109.23 138.91,-97.61 117.51,-88.49"/>
<polygon fill="#63b8ff" stroke="#63b8ff" points="187.82,-122.24 198.39,-122.93 190.56,-115.79 187.82,-122.24"/>
</a>
</g>
</g>
</g>
</svg>
