<?xml version="1.0" encoding="UTF-8" standalone="no"?>
<!DOCTYPE svg PUBLIC "-//W3C//DTD SVG 1.1//EN"
 "http://www.w3.org/Graphics/SVG/1.1/DTD/svg11.dtd">
<!-- Generated by graphviz version 12.1.2 (20240928.0832)
 -->
<!-- Title: ReSTIRVulkan/VRE_SwapChain.cpp Pages: 1 -->
<svg width="705pt" height="252pt"
 viewBox="0.00 0.00 704.88 252.00" xmlns="http://www.w3.org/2000/svg" xmlns:xlink="http://www.w3.org/1999/xlink">
<g id="graph0" class="graph" transform="scale(1 1) rotate(0) translate(4 248)">
<title>ReSTIRVulkan/VRE_SwapChain.cpp</title>
<!-- Node1 -->
<g id="Node000001" class="node">
<title>Node1</title>
<g id="a_Node000001"><a xlink:title=" ">
<polygon fill="#999999" stroke="#666666" points="544.88,-244 366.12,-244 366.12,-224 544.88,-224 544.88,-244"/>
<text text-anchor="middle" x="455.5" y="-230.5" font-family="Helvetica,sans-Serif" font-size="10.00">ReSTIRVulkan/VRE_SwapChain.cpp</text>
</a>
</g>
</g>
<!-- Node2 -->
<g id="Node000002" class="node">
<title>Node2</title>
<g id="a_Node000002"><a xlink:href="_v_r_e___swap_chain_8h.html" target="_top" xlink:title=" ">
<polygon fill="white" stroke="#666666" points="263.88,-188 163.12,-188 163.12,-168 263.88,-168 263.88,-188"/>
<text text-anchor="middle" x="213.5" y="-174.5" font-family="Helvetica,sans-Serif" font-size="10.00">VRE_SwapChain.h</text>
</a>
</g>
</g>
<!-- Node1&#45;&gt;Node2 -->
<g id="edge1_Node000001_Node000002" class="edge">
<title>Node1&#45;&gt;Node2</title>
<g id="a_edge1_Node000001_Node000002"><a xlink:title=" ">
<path fill="none" stroke="#63b8ff" d="M413.07,-223.53C372.42,-214.46 310.92,-200.74 266.94,-190.93"/>
<polygon fill="#63b8ff" stroke="#63b8ff" points="267.88,-187.55 257.36,-188.79 266.36,-194.38 267.88,-187.55"/>
</a>
</g>
</g>
<!-- Node10 -->
<g id="Node000010" class="node">
<title>Node10</title>
<g id="a_Node000010"><a xlink:title=" ">
<polygon fill="#e0e0e0" stroke="#999999" points="319.38,-188 281.62,-188 281.62,-168 319.38,-168 319.38,-188"/>
<text text-anchor="middle" x="300.5" y="-174.5" font-family="Helvetica,sans-Serif" font-size="10.00">array</text>
</a>
</g>
</g>
<!-- Node1&#45;&gt;Node10 -->
<g id="edge12_Node000001_Node000010" class="edge">
<title>Node1&#45;&gt;Node10</title>
<g id="a_edge12_Node000001_Node000010"><a xlink:title=" ">
<path fill="none" stroke="#63b8ff" d="M428.5,-223.59C401.09,-214.04 358.75,-199.29 330.35,-189.4"/>
<polygon fill="#63b8ff" stroke="#63b8ff" points="331.87,-186.22 321.28,-186.24 329.57,-192.83 331.87,-186.22"/>
</a>
</g>
</g>
<!-- Node11 -->
<g id="Node000011" class="node">
<title>Node11</title>
<g id="a_Node000011"><a xlink:title=" ">
<polygon fill="#e0e0e0" stroke="#999999" points="381.75,-188 337.25,-188 337.25,-168 381.75,-168 381.75,-188"/>
<text text-anchor="middle" x="359.5" y="-174.5" font-family="Helvetica,sans-Serif" font-size="10.00">cstdlib</text>
</a>
</g>
</g>
<!-- Node1&#45;&gt;Node11 -->
<g id="edge13_Node000001_Node000011" class="edge">
<title>Node1&#45;&gt;Node11</title>
<g id="a_edge13_Node000001_Node000011"><a xlink:title=" ">
<path fill="none" stroke="#63b8ff" d="M438.78,-223.59C424.28,-215.44 403.03,-203.48 386.18,-194"/>
<polygon fill="#63b8ff" stroke="#63b8ff" points="388.1,-191.07 377.67,-189.22 384.67,-197.17 388.1,-191.07"/>
</a>
</g>
</g>
<!-- Node12 -->
<g id="Node000012" class="node">
<title>Node12</title>
<g id="a_Node000012"><a xlink:title=" ">
<polygon fill="#e0e0e0" stroke="#999999" points="445.12,-188 399.88,-188 399.88,-168 445.12,-168 445.12,-188"/>
<text text-anchor="middle" x="422.5" y="-174.5" font-family="Helvetica,sans-Serif" font-size="10.00">cstring</text>
</a>
</g>
</g>
<!-- Node1&#45;&gt;Node12 -->
<g id="edge14_Node000001_Node000012" class="edge">
<title>Node1&#45;&gt;Node12</title>
<g id="a_edge14_Node000001_Node000012"><a xlink:title=" ">
<path fill="none" stroke="#63b8ff" d="M449.75,-223.59C445.45,-216.55 439.41,-206.67 434.11,-198"/>
<polygon fill="#63b8ff" stroke="#63b8ff" points="437.17,-196.3 428.97,-189.59 431.2,-199.95 437.17,-196.3"/>
</a>
</g>
</g>
<!-- Node13 -->
<g id="Node000013" class="node">
<title>Node13</title>
<g id="a_Node000013"><a xlink:title=" ">
<polygon fill="#e0e0e0" stroke="#999999" points="516.25,-188 462.75,-188 462.75,-168 516.25,-168 516.25,-188"/>
<text text-anchor="middle" x="489.5" y="-174.5" font-family="Helvetica,sans-Serif" font-size="10.00">iostream</text>
</a>
</g>
</g>
<!-- Node1&#45;&gt;Node13 -->
<g id="edge15_Node000001_Node000013" class="edge">
<title>Node1&#45;&gt;Node13</title>
<g id="a_edge15_Node000001_Node000013"><a xlink:title=" ">
<path fill="none" stroke="#63b8ff" d="M461.42,-223.59C465.86,-216.55 472.08,-206.67 477.54,-198"/>
<polygon fill="#63b8ff" stroke="#63b8ff" points="480.47,-199.91 482.84,-189.58 474.55,-196.18 480.47,-199.91"/>
</a>
</g>
</g>
<!-- Node14 -->
<g id="Node000014" class="node">
<title>Node14</title>
<g id="a_Node000014"><a xlink:title=" ">
<polygon fill="#e0e0e0" stroke="#999999" points="573.12,-188 533.88,-188 533.88,-168 573.12,-168 573.12,-188"/>
<text text-anchor="middle" x="553.5" y="-174.5" font-family="Helvetica,sans-Serif" font-size="10.00">limits</text>
</a>
</g>
</g>
<!-- Node1&#45;&gt;Node14 -->
<g id="edge16_Node000001_Node000014" class="edge">
<title>Node1&#45;&gt;Node14</title>
<g id="a_edge16_Node000001_Node000014"><a xlink:title=" ">
<path fill="none" stroke="#63b8ff" d="M472.57,-223.59C487.38,-215.44 509.07,-203.48 526.27,-194"/>
<polygon fill="#63b8ff" stroke="#63b8ff" points="527.9,-197.1 534.97,-189.21 524.52,-190.97 527.9,-197.1"/>
</a>
</g>
</g>
<!-- Node15 -->
<g id="Node000015" class="node">
<title>Node15</title>
<g id="a_Node000015"><a xlink:title=" ">
<polygon fill="#e0e0e0" stroke="#999999" points="620.25,-188 590.75,-188 590.75,-168 620.25,-168 620.25,-188"/>
<text text-anchor="middle" x="605.5" y="-174.5" font-family="Helvetica,sans-Serif" font-size="10.00">set</text>
</a>
</g>
</g>
<!-- Node1&#45;&gt;Node15 -->
<g id="edge17_Node000001_Node000015" class="edge">
<title>Node1&#45;&gt;Node15</title>
<g id="a_edge17_Node000001_Node000015"><a xlink:title=" ">
<path fill="none" stroke="#63b8ff" d="M483.09,-223.51C506.66,-215.35 541.72,-203.05 579.66,-188.99"/>
<polygon fill="#63b8ff" stroke="#63b8ff" points="580.87,-192.28 589.01,-185.5 578.42,-185.72 580.87,-192.28"/>
</a>
</g>
</g>
<!-- Node16 -->
<g id="Node000016" class="node">
<title>Node16</title>
<g id="a_Node000016"><a xlink:title=" ">
<polygon fill="#e0e0e0" stroke="#999999" points="696.88,-188 638.12,-188 638.12,-168 696.88,-168 696.88,-188"/>
<text text-anchor="middle" x="667.5" y="-174.5" font-family="Helvetica,sans-Serif" font-size="10.00">stdexcept</text>
</a>
</g>
</g>
<!-- Node1&#45;&gt;Node16 -->
<g id="edge18_Node000001_Node000016" class="edge">
<title>Node1&#45;&gt;Node16</title>
<g id="a_edge18_Node000001_Node000016"><a xlink:title=" ">
<path fill="none" stroke="#63b8ff" d="M492.43,-223.59C530,-214.02 588.09,-199.23 626.93,-189.33"/>
<polygon fill="#63b8ff" stroke="#63b8ff" points="627.53,-192.79 636.36,-186.93 625.81,-186.01 627.53,-192.79"/>
</a>
</g>
</g>
<!-- Node3 -->
<g id="Node000003" class="node">
<title>Node3</title>
<g id="a_Node000003"><a xlink:href="_v_r_e___device_8h.html" target="_top" xlink:title=" ">
<polygon fill="white" stroke="#666666" points="147.12,-132 65.88,-132 65.88,-112 147.12,-112 147.12,-132"/>
<text text-anchor="middle" x="106.5" y="-118.5" font-family="Helvetica,sans-Serif" font-size="10.00">VRE_Device.h</text>
</a>
</g>
</g>
<!-- Node2&#45;&gt;Node3 -->
<g id="edge2_Node000002_Node000003" class="edge">
<title>Node2&#45;&gt;Node3</title>
<g id="a_edge2_Node000002_Node000003"><a xlink:title=" ">
<path fill="none" stroke="#63b8ff" d="M194.86,-167.59C178.47,-159.32 154.34,-147.14 135.44,-137.6"/>
<polygon fill="#63b8ff" stroke="#63b8ff" points="137.14,-134.54 126.63,-133.16 133.99,-140.79 137.14,-134.54"/>
</a>
</g>
</g>
<!-- Node6 -->
<g id="Node000006" class="node">
<title>Node6</title>
<g id="a_Node000006"><a xlink:title=" ">
<polygon fill="#e0e0e0" stroke="#999999" points="133.5,-20 93.5,-20 93.5,0 133.5,0 133.5,-20"/>
<text text-anchor="middle" x="113.5" y="-6.5" font-family="Helvetica,sans-Serif" font-size="10.00">string</text>
</a>
</g>
</g>
<!-- Node2&#45;&gt;Node6 -->
<g id="edge9_Node000002_Node000006" class="edge">
<title>Node2&#45;&gt;Node6</title>
<g id="a_edge9_Node000002_Node000006"><a xlink:title=" ">
<path fill="none" stroke="#63b8ff" d="M214.6,-167.82C216.71,-146.19 219.1,-91.21 194.5,-56 182.52,-38.85 161.82,-27.52 144.34,-20.51"/>
<polygon fill="#63b8ff" stroke="#63b8ff" points="146,-17.39 135.4,-17.22 143.58,-23.96 146,-17.39"/>
</a>
</g>
</g>
<!-- Node7 -->
<g id="Node000007" class="node">
<title>Node7</title>
<g id="a_Node000007"><a xlink:title=" ">
<polygon fill="#e0e0e0" stroke="#999999" points="185,-76 142,-76 142,-56 185,-56 185,-76"/>
<text text-anchor="middle" x="163.5" y="-62.5" font-family="Helvetica,sans-Serif" font-size="10.00">vector</text>
</a>
</g>
</g>
<!-- Node2&#45;&gt;Node7 -->
<g id="edge10_Node000002_Node000007" class="edge">
<title>Node2&#45;&gt;Node7</title>
<g id="a_edge10_Node000002_Node000007"><a xlink:title=" ">
<path fill="none" stroke="#63b8ff" d="M209.24,-167.62C201.12,-149.76 183.29,-110.53 172.44,-86.67"/>
<polygon fill="#63b8ff" stroke="#63b8ff" points="175.7,-85.39 168.38,-77.73 169.33,-88.28 175.7,-85.39"/>
</a>
</g>
</g>
<!-- Node8 -->
<g id="Node000008" class="node">
<title>Node8</title>
<g id="a_Node000008"><a xlink:title=" ">
<polygon fill="#e0e0e0" stroke="#999999" points="325.62,-132 241.38,-132 241.38,-112 325.62,-112 325.62,-132"/>
<text text-anchor="middle" x="283.5" y="-118.5" font-family="Helvetica,sans-Serif" font-size="10.00">vulkan/vulkan.h</text>
</a>
</g>
</g>
<!-- Node2&#45;&gt;Node8 -->
<g id="edge8_Node000002_Node000008" class="edge">
<title>Node2&#45;&gt;Node8</title>
<g id="a_edge8_Node000002_Node000008"><a xlink:title=" ">
<path fill="none" stroke="#63b8ff" d="M225.69,-167.59C235.83,-159.77 250.49,-148.46 262.51,-139.19"/>
<polygon fill="#63b8ff" stroke="#63b8ff" points="264.47,-142.1 270.25,-133.22 260.19,-136.56 264.47,-142.1"/>
</a>
</g>
</g>
<!-- Node9 -->
<g id="Node000009" class="node">
<title>Node9</title>
<g id="a_Node000009"><a xlink:title=" ">
<polygon fill="#e0e0e0" stroke="#999999" points="395.12,-132 343.88,-132 343.88,-112 395.12,-112 395.12,-132"/>
<text text-anchor="middle" x="369.5" y="-118.5" font-family="Helvetica,sans-Serif" font-size="10.00">memory</text>
</a>
</g>
</g>
<!-- Node2&#45;&gt;Node9 -->
<g id="edge11_Node000002_Node000009" class="edge">
<title>Node2&#45;&gt;Node9</title>
<g id="a_edge11_Node000002_Node000009"><a xlink:title=" ">
<path fill="none" stroke="#63b8ff" d="M240.67,-167.59C266.18,-158.76 304.54,-145.49 332.76,-135.72"/>
<polygon fill="#63b8ff" stroke="#63b8ff" points="333.68,-139.1 341.99,-132.52 331.39,-132.49 333.68,-139.1"/>
</a>
</g>
</g>
<!-- Node4 -->
<g id="Node000004" class="node">
<title>Node4</title>
<g id="a_Node000004"><a xlink:href="_v_r_e___window_8h.html" target="_top" xlink:title=" ">
<polygon fill="white" stroke="#666666" points="85,-76 0,-76 0,-56 85,-56 85,-76"/>
<text text-anchor="middle" x="42.5" y="-62.5" font-family="Helvetica,sans-Serif" font-size="10.00">VRE_Window.h</text>
</a>
</g>
</g>
<!-- Node3&#45;&gt;Node4 -->
<g id="edge3_Node000003_Node000004" class="edge">
<title>Node3&#45;&gt;Node4</title>
<g id="a_edge3_Node000003_Node000004"><a xlink:title=" ">
<path fill="none" stroke="#63b8ff" d="M95.35,-111.59C86.17,-103.85 72.95,-92.69 62.02,-83.47"/>
<polygon fill="#63b8ff" stroke="#63b8ff" points="64.58,-81.05 54.68,-77.27 60.06,-86.4 64.58,-81.05"/>
</a>
</g>
</g>
<!-- Node3&#45;&gt;Node6 -->
<g id="edge6_Node000003_Node000006" class="edge">
<title>Node3&#45;&gt;Node6</title>
<g id="a_edge6_Node000003_Node000006"><a xlink:title=" ">
<path fill="none" stroke="#63b8ff" d="M107.1,-111.62C108.22,-94.01 110.66,-55.59 112.19,-31.65"/>
<polygon fill="#63b8ff" stroke="#63b8ff" points="115.67,-32.07 112.81,-21.87 108.68,-31.62 115.67,-32.07"/>
</a>
</g>
</g>
<!-- Node3&#45;&gt;Node7 -->
<g id="edge7_Node000003_Node000007" class="edge">
<title>Node3&#45;&gt;Node7</title>
<g id="a_edge7_Node000003_Node000007"><a xlink:title=" ">
<path fill="none" stroke="#63b8ff" d="M116.43,-111.59C124.44,-104.01 135.92,-93.13 145.53,-84.02"/>
<polygon fill="#63b8ff" stroke="#63b8ff" points="147.73,-86.76 152.59,-77.34 142.92,-81.68 147.73,-86.76"/>
</a>
</g>
</g>
<!-- Node5 -->
<g id="Node000005" class="node">
<title>Node5</title>
<g id="a_Node000005"><a xlink:title=" ">
<polygon fill="#e0e0e0" stroke="#999999" points="66.25,-20 18.75,-20 18.75,0 66.25,0 66.25,-20"/>
<text text-anchor="middle" x="42.5" y="-6.5" font-family="Helvetica,sans-Serif" font-size="10.00">glfw3.h</text>
</a>
</g>
</g>
<!-- Node4&#45;&gt;Node5 -->
<g id="edge4_Node000004_Node000005" class="edge">
<title>Node4&#45;&gt;Node5</title>
<g id="a_edge4_Node000004_Node000005"><a xlink:title=" ">
<path fill="none" stroke="#63b8ff" d="M42.5,-55.59C42.5,-49.01 42.5,-39.96 42.5,-31.73"/>
<polygon fill="#63b8ff" stroke="#63b8ff" points="46,-31.81 42.5,-21.81 39,-31.81 46,-31.81"/>
</a>
</g>
</g>
<!-- Node4&#45;&gt;Node6 -->
<g id="edge5_Node000004_Node000006" class="edge">
<title>Node4&#45;&gt;Node6</title>
<g id="a_edge5_Node000004_Node000006"><a xlink:title=" ">
<path fill="none" stroke="#63b8ff" d="M54.87,-55.59C65.15,-47.77 80.02,-36.46 92.21,-27.19"/>
<polygon fill="#63b8ff" stroke="#63b8ff" points="94.23,-30.05 100.07,-21.21 89.99,-24.48 94.23,-30.05"/>
</a>
</g>
</g>
</g>
</svg>
