<?xml version="1.0" encoding="UTF-8" standalone="no"?>
<!DOCTYPE svg PUBLIC "-//W3C//DTD SVG 1.1//EN"
 "http://www.w3.org/Graphics/SVG/1.1/DTD/svg11.dtd">
<!-- Generated by graphviz version 12.1.2 (20240928.0832)
 -->
<!-- Title: ReSTIRVulkan/VRE_Window.h Pages: 1 -->
<!--zoomable 556 -->

<svg id="main" version="1.1" xmlns="http://www.w3.org/2000/svg" xmlns:xlink="http://www.w3.org/1999/xlink" xml:space="preserve" onload="init(evt)">

<style type="text/css"><![CDATA[
.node, .edge {opacity: 0.7;}
.node.selected, .edge.selected {opacity: 1;}
.edge:hover path { stroke: red; }
.edge:hover polygon { stroke: red; fill: red; }
]]></style>

<defs>
  <circle id="rim" cx="0" cy="0" r="7"/>
  <circle id="rim2" cx="0" cy="0" r="3.5"/>
  <g id="zoomPlus">
    <use xlink:href="#rim" fill="#404040"><set attributeName="fill" to="#808080" begin="zoomplus.mouseover" end="zoomplus.mouseout"/></use>
    <path d="M-4,0h8M0,-4v8" fill="none" stroke="white" stroke-width="1.5" pointer-events="none"/>
  </g>
  <g id="zoomMin">
    <use xlink:href="#rim" fill="#404040"><set attributeName="fill" to="#808080" begin="zoomminus.mouseover" end="zoomminus.mouseout"/></use>
    <path d="M-4,0h8" fill="none" stroke="white" stroke-width="1.5" pointer-events="none"/>
  </g>
  <g id="arrowUp" transform="translate(30 24)">
    <use xlink:href="#rim"/>
    <path pointer-events="none" fill="none" stroke="white" stroke-width="1.5" d="M0,-3.0v7 M-2.5,-0.5L0,-3.0L2.5,-0.5"/>
  </g>
  <g id="arrowRight" transform="rotate(90) translate(36 -43)">
    <use xlink:href="#rim"/>
    <path pointer-events="none" fill="none" stroke="white" stroke-width="1.5" d="M0,-3.0v7 M-2.5,-0.5L0,-3.0L2.5,-0.5"/>
  </g>
  <g id="arrowDown" transform="rotate(180) translate(-30 -48)">
    <use xlink:href="#rim"/>
    <path pointer-events="none" fill="none" stroke="white" stroke-width="1.5" d="M0,-3.0v7 M-2.5,-0.5L0,-3.0L2.5,-0.5"/>
  </g>
  <g id="arrowLeft" transform="rotate(270) translate(-36 17)">
    <use xlink:href="#rim"/>
    <path pointer-events="none" fill="none" stroke="white" stroke-width="1.5" d="M0,-3.0v7 M-2.5,-0.5L0,-3.0L2.5,-0.5"/>
  </g>
  <g id="resetDef">
    <use xlink:href="#rim2" fill="#404040"><set attributeName="fill" to="#808080" begin="reset.mouseover" end="reset.mouseout"/></use>
  </g>
</defs>
<script type="application/ecmascript">
var viewWidth = 1960;
var viewHeight = 556;
var sectionId = 'dynsection-1';
</script>
<script type="application/ecmascript" xlink:href="svg.min.js"/>
<svg id="graph" class="graph">
<g id="viewport">
<title>ReSTIRVulkan/VRE_Window.h</title>
<!-- Node1 -->
<g id="Node000001" class="node">
<title>Node1</title>
<g id="a_Node000001"><a xlink:title=" ">
<polygon fill="#999999" stroke="#666666" points="1644.71,-548 1492.21,-548 1492.21,-528 1644.71,-528 1644.71,-548"/>
<text text-anchor="middle" x="1568.46" y="-534.5" font-family="Helvetica,sans-Serif" font-size="10.00">ReSTIRVulkan/VRE_Window.h</text>
</a>
</g>
</g>
<!-- Node2 -->
<g id="Node000002" class="node">
<title>Node2</title>
<g id="a_Node000002"><a xlink:href="_v_r_e___app_8h.html" target="_top" xlink:title=" ">
<polygon fill="white" stroke="#666666" points="1380.09,-82 1244.84,-82 1244.84,-62 1380.09,-62 1380.09,-82"/>
<text text-anchor="middle" x="1312.46" y="-68.5" font-family="Helvetica,sans-Serif" font-size="10.00">ReSTIRVulkan/VRE_App.h</text>
</a>
</g>
</g>
<!-- Node1&#45;&gt;Node2 -->
<g id="edge1_Node000001_Node000002" class="edge">
<title>Node1&#45;&gt;Node2</title>
<g id="a_edge1_Node000001_Node000002"><a xlink:title=" ">
<path fill="none" stroke="#63b8ff" d="M1568.46,-516.32C1568.46,-494.22 1568.46,-458.13 1568.46,-427 1568.46,-427 1568.46,-427 1568.46,-201 1568.46,-116.77 1456.23,-87.97 1380.39,-78.12"/>
<polygon fill="#63b8ff" stroke="#63b8ff" points="1564.96,-516.07 1568.46,-526.07 1571.96,-516.07 1564.96,-516.07"/>
</a>
</g>
</g>
<!-- Node5 -->
<g id="Node000005" class="node">
<title>Node5</title>
<g id="a_Node000005"><a xlink:href="_v_r_e___device_8h.html" target="_top" xlink:title=" ">
<polygon fill="white" stroke="#666666" points="1075.84,-492 927.09,-492 927.09,-472 1075.84,-472 1075.84,-492"/>
<text text-anchor="middle" x="1001.46" y="-478.5" font-family="Helvetica,sans-Serif" font-size="10.00">ReSTIRVulkan/VRE_Device.h</text>
</a>
</g>
</g>
<!-- Node1&#45;&gt;Node5 -->
<g id="edge4_Node000001_Node000005" class="edge">
<title>Node1&#45;&gt;Node5</title>
<g id="a_edge4_Node000001_Node000005"><a xlink:title=" ">
<path fill="none" stroke="#63b8ff" d="M1480.85,-528.66C1369.93,-518.09 1180.73,-500.07 1076.27,-490.12"/>
<polygon fill="#63b8ff" stroke="#63b8ff" points="1480.2,-532.11 1490.49,-529.57 1480.86,-525.14 1480.2,-532.11"/>
</a>
</g>
</g>
<!-- Node27 -->
<g id="Node000027" class="node">
<title>Node27</title>
<g id="a_Node000027"><a xlink:href="_v_r_e___renderer_8h.html" target="_top" xlink:title=" ">
<polygon fill="white" stroke="#666666" points="1268.34,-380 1110.59,-380 1110.59,-360 1268.34,-360 1268.34,-380"/>
<text text-anchor="middle" x="1189.46" y="-366.5" font-family="Helvetica,sans-Serif" font-size="10.00">ReSTIRVulkan/VRE_Renderer.h</text>
</a>
</g>
</g>
<!-- Node1&#45;&gt;Node27 -->
<g id="edge60_Node000001_Node000027" class="edge">
<title>Node1&#45;&gt;Node27</title>
<g id="a_edge60_Node000001_Node000027"><a xlink:title=" ">
<path fill="none" stroke="#63b8ff" d="M1544.57,-521.48C1505.11,-496.4 1423.24,-446.68 1348.46,-416 1310.51,-400.43 1265.34,-388.21 1232.86,-380.46"/>
<polygon fill="#63b8ff" stroke="#63b8ff" points="1542.51,-524.32 1552.82,-526.76 1546.29,-518.42 1542.51,-524.32"/>
</a>
</g>
</g>
<!-- Node32 -->
<g id="Node000032" class="node">
<title>Node32</title>
<g id="a_Node000032"><a xlink:href="_v_r_e___input_listener_8h.html" target="_top" xlink:title=" ">
<polygon fill="white" stroke="#666666" points="1770.59,-492 1596.34,-492 1596.34,-472 1770.59,-472 1770.59,-492"/>
<text text-anchor="middle" x="1683.46" y="-478.5" font-family="Helvetica,sans-Serif" font-size="10.00">ReSTIRVulkan/VRE_InputListener.h</text>
</a>
</g>
</g>
<!-- Node1&#45;&gt;Node32 -->
<g id="edge57_Node000001_Node000032" class="edge">
<title>Node1&#45;&gt;Node32</title>
<g id="a_edge57_Node000001_Node000032"><a xlink:title=" ">
<path fill="none" stroke="#63b8ff" d="M1598.82,-522.75C1619.18,-513.18 1645.44,-500.85 1663.27,-492.48"/>
<polygon fill="#63b8ff" stroke="#63b8ff" points="1597.43,-519.53 1589.86,-526.95 1600.4,-525.87 1597.43,-519.53"/>
</a>
</g>
</g>
<!-- Node34 -->
<g id="Node000034" class="node">
<title>Node34</title>
<g id="a_Node000034"><a xlink:href="_v_r_e___window_8cpp.html" target="_top" xlink:title=" ">
<polygon fill="white" stroke="#666666" points="1951.96,-492 1788.96,-492 1788.96,-472 1951.96,-472 1951.96,-492"/>
<text text-anchor="middle" x="1870.46" y="-478.5" font-family="Helvetica,sans-Serif" font-size="10.00">ReSTIRVulkan/VRE_Window.cpp</text>
</a>
</g>
</g>
<!-- Node1&#45;&gt;Node34 -->
<g id="edge61_Node000001_Node000034" class="edge">
<title>Node1&#45;&gt;Node34</title>
<g id="a_edge61_Node000001_Node000034"><a xlink:title=" ">
<path fill="none" stroke="#63b8ff" d="M1632.44,-525.56C1687.5,-515.71 1766,-501.68 1817.57,-492.46"/>
<polygon fill="#63b8ff" stroke="#63b8ff" points="1632.13,-522.06 1622.9,-527.27 1633.36,-528.95 1632.13,-522.06"/>
</a>
</g>
</g>
<!-- Node3 -->
<g id="Node000003" class="node">
<title>Node3</title>
<g id="a_Node000003"><a xlink:href="_v_r_e___app_8cpp.html" target="_top" xlink:title=" ">
<polygon fill="white" stroke="#666666" points="657.34,-20 511.59,-20 511.59,0 657.34,0 657.34,-20"/>
<text text-anchor="middle" x="584.46" y="-6.5" font-family="Helvetica,sans-Serif" font-size="10.00">ReSTIRVulkan/VRE_App.cpp</text>
</a>
</g>
</g>
<!-- Node2&#45;&gt;Node3 -->
<g id="edge2_Node000002_Node000003" class="edge">
<title>Node2&#45;&gt;Node3</title>
<g id="a_edge2_Node000002_Node000003"><a xlink:title=" ">
<path fill="none" stroke="#63b8ff" d="M1257.83,-59.5C1250.33,-58.17 1242.72,-56.95 1235.46,-56 1026.82,-28.57 778.22,-17.26 657.49,-13.11"/>
<polygon fill="#63b8ff" stroke="#63b8ff" points="1257.08,-62.92 1267.55,-61.3 1258.36,-56.03 1257.08,-62.92"/>
</a>
</g>
</g>
<!-- Node4 -->
<g id="Node000004" class="node">
<title>Node4</title>
<g id="a_Node000004"><a xlink:href="main_8cpp.html" target="_top" xlink:title=" ">
<polygon fill="white" stroke="#666666" points="1374.09,-20 1250.84,-20 1250.84,0 1374.09,0 1374.09,-20"/>
<text text-anchor="middle" x="1312.46" y="-6.5" font-family="Helvetica,sans-Serif" font-size="10.00">ReSTIRVulkan/main.cpp</text>
</a>
</g>
</g>
<!-- Node2&#45;&gt;Node4 -->
<g id="edge3_Node000002_Node000004" class="edge">
<title>Node2&#45;&gt;Node4</title>
<g id="a_edge3_Node000002_Node000004"><a xlink:title=" ">
<path fill="none" stroke="#63b8ff" d="M1312.46,-50.25C1312.46,-39.97 1312.46,-28.09 1312.46,-20.11"/>
<polygon fill="#63b8ff" stroke="#63b8ff" points="1308.96,-50.11 1312.46,-60.11 1315.96,-50.11 1308.96,-50.11"/>
</a>
</g>
</g>
<!-- Node5&#45;&gt;Node2 -->
<g id="edge5_Node000005_Node000002" class="edge">
<title>Node5&#45;&gt;Node2</title>
<g id="a_edge5_Node000005_Node000002"><a xlink:title=" ">
<path fill="none" stroke="#63b8ff" d="M1087.55,-480.63C1237.42,-477.64 1530.46,-460.37 1530.46,-371 1530.46,-371 1530.46,-371 1530.46,-201 1530.46,-128.36 1439.35,-96.15 1374.93,-82.45"/>
<polygon fill="#63b8ff" stroke="#63b8ff" points="1087.58,-477.13 1077.64,-480.81 1087.71,-484.13 1087.58,-477.13"/>
</a>
</g>
</g>
<!-- Node6 -->
<g id="Node000006" class="node">
<title>Node6</title>
<g id="a_Node000006"><a xlink:href="_v_r_e___buffer_8h.html" target="_top" xlink:title=" ">
<polygon fill="white" stroke="#666666" points="407.21,-436 263.71,-436 263.71,-416 407.21,-416 407.21,-436"/>
<text text-anchor="middle" x="335.46" y="-422.5" font-family="Helvetica,sans-Serif" font-size="10.00">ReSTIRVulkan/VRE_Buffer.h</text>
</a>
</g>
</g>
<!-- Node5&#45;&gt;Node6 -->
<g id="edge6_Node000005_Node000006" class="edge">
<title>Node5&#45;&gt;Node6</title>
<g id="a_edge6_Node000005_Node000006"><a xlink:title=" ">
<path fill="none" stroke="#63b8ff" d="M915.4,-474.02C782.86,-463.28 531.17,-442.87 407.59,-432.85"/>
<polygon fill="#63b8ff" stroke="#63b8ff" points="914.92,-477.49 925.17,-474.81 915.49,-470.52 914.92,-477.49"/>
</a>
</g>
</g>
<!-- Node11 -->
<g id="Node000011" class="node">
<title>Node11</title>
<g id="a_Node000011"><a xlink:href="_v_r_e__gl_t_f_model_8h.html" target="_top" xlink:title=" ">
<polygon fill="white" stroke="#666666" points="636.34,-324 472.59,-324 472.59,-304 636.34,-304 636.34,-324"/>
<text text-anchor="middle" x="554.46" y="-310.5" font-family="Helvetica,sans-Serif" font-size="10.00">ReSTIRVulkan/VRE_glTFModel.h</text>
</a>
</g>
</g>
<!-- Node5&#45;&gt;Node11 -->
<g id="edge56_Node000005_Node000011" class="edge">
<title>Node5&#45;&gt;Node11</title>
<g id="a_edge56_Node000005_Node000011"><a xlink:title=" ">
<path fill="none" stroke="#63b8ff" d="M941.54,-469.14C871.64,-453.99 753.65,-424.32 659.46,-380 624.54,-363.57 586.82,-338.11 567.5,-324.44"/>
<polygon fill="#63b8ff" stroke="#63b8ff" points="940.77,-472.55 951.28,-471.22 942.23,-465.71 940.77,-472.55"/>
</a>
</g>
</g>
<!-- Node13 -->
<g id="Node000013" class="node">
<title>Node13</title>
<g id="a_Node000013"><a xlink:href="_v_r_e___game_obj_render_system_8h.html" target="_top" xlink:title=" ">
<polygon fill="white" stroke="#666666" points="738.96,-156 587.96,-156 587.96,-124 738.96,-124 738.96,-156"/>
<text text-anchor="start" x="595.96" y="-142.5" font-family="Helvetica,sans-Serif" font-size="10.00">ReSTIRVulkan/VRE_GameObj</text>
<text text-anchor="middle" x="663.46" y="-130.5" font-family="Helvetica,sans-Serif" font-size="10.00">RenderSystem.h</text>
</a>
</g>
</g>
<!-- Node5&#45;&gt;Node13 -->
<g id="edge37_Node000005_Node000013" class="edge">
<title>Node5&#45;&gt;Node13</title>
<g id="a_edge37_Node000005_Node000013"><a xlink:title=" ">
<path fill="none" stroke="#63b8ff" d="M915.68,-478.97C687.95,-472.66 81.84,-449.43 27.46,-380 -123.56,-187.2 388.73,-149.93 587.74,-142.72"/>
<polygon fill="#63b8ff" stroke="#63b8ff" points="915.28,-482.46 925.37,-479.24 915.47,-475.47 915.28,-482.46"/>
</a>
</g>
</g>
<!-- Node16 -->
<g id="Node000016" class="node">
<title>Node16</title>
<g id="a_Node000016"><a xlink:href="_v_r_e___game_object_manager_8h.html" target="_top" xlink:title=" ">
<polygon fill="white" stroke="#666666" points="1005.71,-156 841.21,-156 841.21,-124 1005.71,-124 1005.71,-156"/>
<text text-anchor="start" x="849.21" y="-142.5" font-family="Helvetica,sans-Serif" font-size="10.00">ReSTIRVulkan/VRE_GameObject</text>
<text text-anchor="middle" x="923.46" y="-130.5" font-family="Helvetica,sans-Serif" font-size="10.00">Manager.h</text>
</a>
</g>
</g>
<!-- Node5&#45;&gt;Node16 -->
<g id="edge38_Node000005_Node000016" class="edge">
<title>Node5&#45;&gt;Node16</title>
<g id="a_edge38_Node000005_Node000016"><a xlink:title=" ">
<path fill="none" stroke="#63b8ff" d="M956.45,-467.6C939.43,-460.58 921.14,-450.36 908.46,-436 888.28,-413.14 886.46,-401.5 886.46,-371 886.46,-371 886.46,-371 886.46,-313 886.46,-259.07 880.13,-243.7 895.46,-192 899.25,-179.22 906.58,-166.06 912.78,-156.31"/>
<polygon fill="#63b8ff" stroke="#63b8ff" points="954.81,-470.72 965.4,-471.03 957.31,-464.18 954.81,-470.72"/>
</a>
</g>
</g>
<!-- Node19 -->
<g id="Node000019" class="node">
<title>Node19</title>
<g id="a_Node000019"><a xlink:href="_v_r_e___light_render_system_8h.html" target="_top" xlink:title=" ">
<polygon fill="white" stroke="#666666" points="1226.59,-156 1064.34,-156 1064.34,-124 1226.59,-124 1226.59,-156"/>
<text text-anchor="start" x="1072.34" y="-142.5" font-family="Helvetica,sans-Serif" font-size="10.00">ReSTIRVulkan/VRE_LightRender</text>
<text text-anchor="middle" x="1145.46" y="-130.5" font-family="Helvetica,sans-Serif" font-size="10.00">System.h</text>
</a>
</g>
</g>
<!-- Node5&#45;&gt;Node19 -->
<g id="edge39_Node000005_Node000019" class="edge">
<title>Node5&#45;&gt;Node19</title>
<g id="a_edge39_Node000005_Node000019"><a xlink:title=" ">
<path fill="none" stroke="#63b8ff" d="M1087.4,-476.13C1208.83,-467.07 1420.15,-442.5 1458.46,-380 1527.69,-267.06 1312.84,-188.18 1204.26,-156.49"/>
<polygon fill="#63b8ff" stroke="#63b8ff" points="1087.17,-472.64 1077.45,-476.85 1087.68,-479.62 1087.17,-472.64"/>
</a>
</g>
</g>
<!-- Node23 -->
<g id="Node000023" class="node">
<title>Node23</title>
<g id="a_Node000023"><a xlink:href="_v_r_e___descriptor_8h.html" target="_top" xlink:title=" ">
<polygon fill="white" stroke="#666666" points="1448.96,-380 1285.96,-380 1285.96,-360 1448.96,-360 1448.96,-380"/>
<text text-anchor="middle" x="1367.46" y="-366.5" font-family="Helvetica,sans-Serif" font-size="10.00">ReSTIRVulkan/VRE_Descriptor.h</text>
</a>
</g>
</g>
<!-- Node5&#45;&gt;Node23 -->
<g id="edge31_Node000005_Node000023" class="edge">
<title>Node5&#45;&gt;Node23</title>
<g id="a_edge31_Node000005_Node000023"><a xlink:title=" ">
<path fill="none" stroke="#63b8ff" d="M1038.79,-467.77C1063.04,-459.04 1095.26,-447.19 1123.46,-436 1144.56,-427.62 1148.87,-423 1170.46,-416 1218.35,-400.48 1274.45,-388.22 1314.51,-380.44"/>
<polygon fill="#63b8ff" stroke="#63b8ff" points="1037.92,-464.36 1029.68,-471.03 1040.28,-470.95 1037.92,-464.36"/>
</a>
</g>
</g>
<!-- Node25 -->
<g id="Node000025" class="node">
<title>Node25</title>
<g id="a_Node000025"><a xlink:href="_v_r_e___device_8cpp.html" target="_top" xlink:title=" ">
<polygon fill="white" stroke="#666666" points="1339.09,-436 1179.84,-436 1179.84,-416 1339.09,-416 1339.09,-436"/>
<text text-anchor="middle" x="1259.46" y="-422.5" font-family="Helvetica,sans-Serif" font-size="10.00">ReSTIRVulkan/VRE_Device.cpp</text>
</a>
</g>
</g>
<!-- Node5&#45;&gt;Node25 -->
<g id="edge36_Node000005_Node000025" class="edge">
<title>Node5&#45;&gt;Node25</title>
<g id="a_edge36_Node000005_Node000025"><a xlink:title=" ">
<path fill="none" stroke="#63b8ff" d="M1057.9,-469.19C1104.83,-459.36 1170.77,-445.56 1214.28,-436.46"/>
<polygon fill="#63b8ff" stroke="#63b8ff" points="1057.25,-465.75 1048.18,-471.22 1058.68,-472.6 1057.25,-465.75"/>
</a>
</g>
</g>
<!-- Node26 -->
<g id="Node000026" class="node">
<title>Node26</title>
<g id="a_Node000026"><a xlink:href="_v_r_e___pipeline_8h.html" target="_top" xlink:title=" ">
<polygon fill="white" stroke="#666666" points="820.71,-380 668.21,-380 668.21,-360 820.71,-360 820.71,-380"/>
<text text-anchor="middle" x="744.46" y="-366.5" font-family="Helvetica,sans-Serif" font-size="10.00">ReSTIRVulkan/VRE_Pipeline.h</text>
</a>
</g>
</g>
<!-- Node5&#45;&gt;Node26 -->
<g id="edge40_Node000005_Node000026" class="edge">
<title>Node5&#45;&gt;Node26</title>
<g id="a_edge40_Node000005_Node000026"><a xlink:title=" ">
<path fill="none" stroke="#63b8ff" d="M959.73,-468.02C934.21,-459.69 901.07,-448.19 872.46,-436 831.42,-418.51 785.19,-393.7 761.1,-380.36"/>
<polygon fill="#63b8ff" stroke="#63b8ff" points="958.49,-471.3 969.08,-471.04 960.64,-464.64 958.49,-471.3"/>
</a>
</g>
</g>
<!-- Node5&#45;&gt;Node27 -->
<g id="edge45_Node000005_Node000027" class="edge">
<title>Node5&#45;&gt;Node27</title>
<g id="a_edge45_Node000005_Node000027"><a xlink:title=" ">
<path fill="none" stroke="#63b8ff" d="M1033.72,-466.83C1051.9,-458.5 1074.84,-447.38 1094.46,-436 1125.24,-418.16 1159.14,-393.7 1176.95,-380.46"/>
<polygon fill="#63b8ff" stroke="#63b8ff" points="1032.4,-463.59 1024.74,-470.9 1035.29,-469.97 1032.4,-463.59"/>
</a>
</g>
</g>
<!-- Node29 -->
<g id="Node000029" class="node">
<title>Node29</title>
<g id="a_Node000029"><a xlink:href="_v_r_e___swap_chain_8h.html" target="_top" xlink:title=" ">
<polygon fill="white" stroke="#666666" points="1085.59,-436 917.34,-436 917.34,-416 1085.59,-416 1085.59,-436"/>
<text text-anchor="middle" x="1001.46" y="-422.5" font-family="Helvetica,sans-Serif" font-size="10.00">ReSTIRVulkan/VRE_SwapChain.h</text>
</a>
</g>
</g>
<!-- Node5&#45;&gt;Node29 -->
<g id="edge49_Node000005_Node000029" class="edge">
<title>Node5&#45;&gt;Node29</title>
<g id="a_edge49_Node000005_Node000029"><a xlink:title=" ">
<path fill="none" stroke="#63b8ff" d="M1001.46,-460.13C1001.46,-451.9 1001.46,-442.85 1001.46,-436.3"/>
<polygon fill="#63b8ff" stroke="#63b8ff" points="997.96,-460.08 1001.46,-470.08 1004.96,-460.08 997.96,-460.08"/>
</a>
</g>
</g>
<!-- Node31 -->
<g id="Node000031" class="node">
<title>Node31</title>
<g id="a_Node000031"><a xlink:href="_v_r_e___texture_8h.html" target="_top" xlink:title=" ">
<polygon fill="white" stroke="#666666" points="607.59,-436 457.34,-436 457.34,-416 607.59,-416 607.59,-436"/>
<text text-anchor="middle" x="532.46" y="-422.5" font-family="Helvetica,sans-Serif" font-size="10.00">ReSTIRVulkan/VRE_Texture.h</text>
</a>
</g>
</g>
<!-- Node5&#45;&gt;Node31 -->
<g id="edge53_Node000005_Node000031" class="edge">
<title>Node5&#45;&gt;Node31</title>
<g id="a_edge53_Node000005_Node000031"><a xlink:title=" ">
<path fill="none" stroke="#63b8ff" d="M915.33,-471.08C827.24,-460.94 691.75,-445.34 607.8,-435.67"/>
<polygon fill="#63b8ff" stroke="#63b8ff" points="914.79,-474.54 925.12,-472.21 915.59,-467.59 914.79,-474.54"/>
</a>
</g>
</g>
<!-- Node6&#45;&gt;Node3 -->
<g id="edge7_Node000006_Node000003" class="edge">
<title>Node6&#45;&gt;Node3</title>
<g id="a_edge7_Node000006_Node000003"><a xlink:title=" ">
<path fill="none" stroke="#63b8ff" d="M251.96,-422.74C172.42,-418.87 60.11,-408.39 27.46,-380 4.75,-360.25 8.46,-345.1 8.46,-315 8.46,-315 8.46,-315 8.46,-139 8.46,-37.14 356.08,-16.29 511.22,-12.06"/>
<polygon fill="#63b8ff" stroke="#63b8ff" points="251.78,-426.23 261.93,-423.19 252.1,-419.24 251.78,-426.23"/>
</a>
</g>
</g>
<!-- Node7 -->
<g id="Node000007" class="node">
<title>Node7</title>
<g id="a_Node000007"><a xlink:href="_v_r_e___buffer_8cpp.html" target="_top" xlink:title=" ">
<polygon fill="white" stroke="#666666" points="190.46,-380 36.46,-380 36.46,-360 190.46,-360 190.46,-380"/>
<text text-anchor="middle" x="113.46" y="-366.5" font-family="Helvetica,sans-Serif" font-size="10.00">ReSTIRVulkan/VRE_Buffer.cpp</text>
</a>
</g>
</g>
<!-- Node6&#45;&gt;Node7 -->
<g id="edge8_Node000006_Node000007" class="edge">
<title>Node6&#45;&gt;Node7</title>
<g id="a_edge8_Node000006_Node000007"><a xlink:title=" ">
<path fill="none" stroke="#63b8ff" d="M285.36,-412.81C245.07,-403.01 189.3,-389.45 152.34,-380.46"/>
<polygon fill="#63b8ff" stroke="#63b8ff" points="284.52,-416.21 295.07,-415.17 286.18,-409.41 284.52,-416.21"/>
</a>
</g>
</g>
<!-- Node8 -->
<g id="Node000008" class="node">
<title>Node8</title>
<g id="a_Node000008"><a xlink:href="_v_r_e___model_properties_8h.html" target="_top" xlink:title=" ">
<polygon fill="white" stroke="#666666" points="396.71,-380 208.21,-380 208.21,-360 396.71,-360 396.71,-380"/>
<text text-anchor="middle" x="302.46" y="-366.5" font-family="Helvetica,sans-Serif" font-size="10.00">ReSTIRVulkan/VRE_ModelProperties.h</text>
</a>
</g>
</g>
<!-- Node6&#45;&gt;Node8 -->
<g id="edge9_Node000006_Node000008" class="edge">
<title>Node6&#45;&gt;Node8</title>
<g id="a_edge9_Node000006_Node000008"><a xlink:title=" ">
<path fill="none" stroke="#63b8ff" d="M323.77,-405.87C318.46,-397.19 312.43,-387.32 308.14,-380.3"/>
<polygon fill="#63b8ff" stroke="#63b8ff" points="320.72,-407.59 328.92,-414.3 326.7,-403.94 320.72,-407.59"/>
</a>
</g>
</g>
<!-- Node6&#45;&gt;Node11 -->
<g id="edge30_Node000006_Node000011" class="edge">
<title>Node6&#45;&gt;Node11</title>
<g id="a_edge30_Node000006_Node000011"><a xlink:title=" ">
<path fill="none" stroke="#63b8ff" d="M358.95,-409.39C380.43,-395.48 413.35,-375.05 443.46,-360 471.55,-345.96 505.12,-332.83 527.93,-324.42"/>
<polygon fill="#63b8ff" stroke="#63b8ff" points="357.11,-406.42 350.65,-414.82 360.94,-412.28 357.11,-406.42"/>
</a>
</g>
</g>
<!-- Node22 -->
<g id="Node000022" class="node">
<title>Node22</title>
<g id="a_Node000022"><a xlink:href="_v_r_e___texture_8cpp.html" target="_top" xlink:title=" ">
<polygon fill="white" stroke="#666666" points="612.84,-380 452.09,-380 452.09,-360 612.84,-360 612.84,-380"/>
<text text-anchor="middle" x="532.46" y="-366.5" font-family="Helvetica,sans-Serif" font-size="10.00">ReSTIRVulkan/VRE_Texture.cpp</text>
</a>
</g>
</g>
<!-- Node6&#45;&gt;Node22 -->
<g id="edge29_Node000006_Node000022" class="edge">
<title>Node6&#45;&gt;Node22</title>
<g id="a_edge29_Node000006_Node000022"><a xlink:title=" ">
<path fill="none" stroke="#63b8ff" d="M380.84,-412.56C416.48,-402.79 465.36,-389.39 497.88,-380.48"/>
<polygon fill="#63b8ff" stroke="#63b8ff" points="379.95,-409.17 371.24,-415.19 381.8,-415.93 379.95,-409.17"/>
</a>
</g>
</g>
<!-- Node9 -->
<g id="Node000009" class="node">
<title>Node9</title>
<g id="a_Node000009"><a xlink:href="_v_r_e___model_properties_8cpp.html" target="_top" xlink:title=" ">
<polygon fill="white" stroke="#666666" points="273.96,-324 74.96,-324 74.96,-304 273.96,-304 273.96,-324"/>
<text text-anchor="middle" x="174.46" y="-310.5" font-family="Helvetica,sans-Serif" font-size="10.00">ReSTIRVulkan/VRE_ModelProperties.cpp</text>
</a>
</g>
</g>
<!-- Node8&#45;&gt;Node9 -->
<g id="edge10_Node000008_Node000009" class="edge">
<title>Node8&#45;&gt;Node9</title>
<g id="a_edge10_Node000008_Node000009"><a xlink:title=" ">
<path fill="none" stroke="#63b8ff" d="M269.61,-355.14C246.82,-345.52 217.05,-332.97 196.93,-324.48"/>
<polygon fill="#63b8ff" stroke="#63b8ff" points="268.2,-358.34 278.77,-359.01 270.92,-351.89 268.2,-358.34"/>
</a>
</g>
</g>
<!-- Node10 -->
<g id="Node000010" class="node">
<title>Node10</title>
<g id="a_Node000010"><a xlink:href="_v_r_e___pipeline_8cpp.html" target="_top" xlink:title=" ">
<polygon fill="white" stroke="#666666" points="454.96,-324 291.96,-324 291.96,-304 454.96,-304 454.96,-324"/>
<text text-anchor="middle" x="373.46" y="-310.5" font-family="Helvetica,sans-Serif" font-size="10.00">ReSTIRVulkan/VRE_Pipeline.cpp</text>
</a>
</g>
</g>
<!-- Node8&#45;&gt;Node10 -->
<g id="edge11_Node000008_Node000010" class="edge">
<title>Node8&#45;&gt;Node10</title>
<g id="a_edge11_Node000008_Node000010"><a xlink:title=" ">
<path fill="none" stroke="#63b8ff" d="M323.92,-352.68C336.13,-343.39 350.99,-332.09 361.24,-324.3"/>
<polygon fill="#63b8ff" stroke="#63b8ff" points="321.87,-349.84 316.03,-358.68 326.11,-355.41 321.87,-349.84"/>
</a>
</g>
</g>
<!-- Node8&#45;&gt;Node11 -->
<g id="edge12_Node000008_Node000011" class="edge">
<title>Node8&#45;&gt;Node11</title>
<g id="a_edge12_Node000008_Node000011"><a xlink:title=" ">
<path fill="none" stroke="#63b8ff" d="M357.87,-357.13C403.7,-347.31 467.92,-333.54 510.33,-324.46"/>
<polygon fill="#63b8ff" stroke="#63b8ff" points="357.17,-353.7 348.12,-359.21 358.64,-360.54 357.17,-353.7"/>
</a>
</g>
</g>
<!-- Node12 -->
<g id="Node000012" class="node">
<title>Node12</title>
<g id="a_Node000012"><a xlink:href="_v_r_e___game_object_8h.html" target="_top" xlink:title=" ">
<polygon fill="white" stroke="#666666" points="858.84,-268 686.09,-268 686.09,-248 858.84,-248 858.84,-268"/>
<text text-anchor="middle" x="772.46" y="-254.5" font-family="Helvetica,sans-Serif" font-size="10.00">ReSTIRVulkan/VRE_GameObject.h</text>
</a>
</g>
</g>
<!-- Node11&#45;&gt;Node12 -->
<g id="edge13_Node000011_Node000012" class="edge">
<title>Node11&#45;&gt;Node12</title>
<g id="a_edge13_Node000011_Node000012"><a xlink:title=" ">
<path fill="none" stroke="#63b8ff" d="M603.66,-300.81C643.22,-291.01 697.99,-277.45 734.28,-268.46"/>
<polygon fill="#63b8ff" stroke="#63b8ff" points="603.02,-297.37 594.15,-303.17 604.7,-304.16 603.02,-297.37"/>
</a>
</g>
</g>
<!-- Node21 -->
<g id="Node000021" class="node">
<title>Node21</title>
<g id="a_Node000021"><a xlink:href="_v_r_e__gl_t_f_model_8cpp.html" target="_top" xlink:title=" ">
<polygon fill="white" stroke="#666666" points="630.59,-268 456.34,-268 456.34,-248 630.59,-248 630.59,-268"/>
<text text-anchor="middle" x="543.46" y="-254.5" font-family="Helvetica,sans-Serif" font-size="10.00">ReSTIRVulkan/VRE_glTFModel.cpp</text>
</a>
</g>
</g>
<!-- Node11&#45;&gt;Node21 -->
<g id="edge28_Node000011_Node000021" class="edge">
<title>Node11&#45;&gt;Node21</title>
<g id="a_edge28_Node000011_Node000021"><a xlink:title=" ">
<path fill="none" stroke="#63b8ff" d="M550.27,-292.43C548.58,-284.11 546.71,-274.93 545.35,-268.3"/>
<polygon fill="#63b8ff" stroke="#63b8ff" points="546.82,-293.01 552.24,-302.11 553.68,-291.61 546.82,-293.01"/>
</a>
</g>
</g>
<!-- Node12&#45;&gt;Node13 -->
<g id="edge14_Node000012_Node000013" class="edge">
<title>Node12&#45;&gt;Node13</title>
<g id="a_edge14_Node000012_Node000013"><a xlink:title=" ">
<path fill="none" stroke="#63b8ff" d="M755.69,-239.15C734.41,-216.5 698.07,-177.83 677.94,-156.41"/>
<polygon fill="#63b8ff" stroke="#63b8ff" points="753.11,-241.51 762.5,-246.4 758.21,-236.72 753.11,-241.51"/>
</a>
</g>
</g>
<!-- Node15 -->
<g id="Node000015" class="node">
<title>Node15</title>
<g id="a_Node000015"><a xlink:href="_v_r_e___game_object_8cpp.html" target="_top" xlink:title=" ">
<polygon fill="white" stroke="#666666" points="864.09,-82 680.84,-82 680.84,-62 864.09,-62 864.09,-82"/>
<text text-anchor="middle" x="772.46" y="-68.5" font-family="Helvetica,sans-Serif" font-size="10.00">ReSTIRVulkan/VRE_GameObject.cpp</text>
</a>
</g>
</g>
<!-- Node12&#45;&gt;Node15 -->
<g id="edge17_Node000012_Node000015" class="edge">
<title>Node12&#45;&gt;Node15</title>
<g id="a_edge17_Node000012_Node000015"><a xlink:title=" ">
<path fill="none" stroke="#63b8ff" d="M772.46,-236.2C772.46,-196.26 772.46,-110.3 772.46,-82.14"/>
<polygon fill="#63b8ff" stroke="#63b8ff" points="768.96,-236.11 772.46,-246.11 775.96,-236.11 768.96,-236.11"/>
</a>
</g>
</g>
<!-- Node12&#45;&gt;Node16 -->
<g id="edge18_Node000012_Node000016" class="edge">
<title>Node12&#45;&gt;Node16</title>
<g id="a_edge18_Node000012_Node000016"><a xlink:title=" ">
<path fill="none" stroke="#63b8ff" d="M793.77,-240.63C822.93,-218.23 874.9,-178.31 903.4,-156.41"/>
<polygon fill="#63b8ff" stroke="#63b8ff" points="791.82,-237.72 786.02,-246.59 796.08,-243.27 791.82,-237.72"/>
</a>
</g>
</g>
<!-- Node18 -->
<g id="Node000018" class="node">
<title>Node18</title>
<g id="a_Node000018"><a xlink:href="_v_r_e___shared_context_8h.html" target="_top" xlink:title=" ">
<polygon fill="white" stroke="#666666" points="1088.09,-212 904.84,-212 904.84,-192 1088.09,-192 1088.09,-212"/>
<text text-anchor="middle" x="996.46" y="-198.5" font-family="Helvetica,sans-Serif" font-size="10.00">ReSTIRVulkan/VRE_SharedContext.h</text>
</a>
</g>
</g>
<!-- Node12&#45;&gt;Node18 -->
<g id="edge22_Node000012_Node000018" class="edge">
<title>Node12&#45;&gt;Node18</title>
<g id="a_edge22_Node000012_Node000018"><a xlink:title=" ">
<path fill="none" stroke="#63b8ff" d="M822.76,-244.88C863.42,-235.07 919.86,-221.47 957.23,-212.46"/>
<polygon fill="#63b8ff" stroke="#63b8ff" points="822.11,-241.43 813.21,-247.18 823.75,-248.24 822.11,-241.43"/>
</a>
</g>
</g>
<!-- Node13&#45;&gt;Node2 -->
<g id="edge15_Node000013_Node000002" class="edge">
<title>Node13&#45;&gt;Node2</title>
<g id="a_edge15_Node000013_Node000002"><a xlink:title=" ">
<path fill="none" stroke="#63b8ff" d="M750.42,-131.28C909.73,-117.12 1232.49,-88.42 1235.46,-88 1246.11,-86.49 1257.52,-84.49 1268.21,-82.43"/>
<polygon fill="#63b8ff" stroke="#63b8ff" points="750.39,-127.76 740.74,-132.14 751.01,-134.74 750.39,-127.76"/>
</a>
</g>
</g>
<!-- Node14 -->
<g id="Node000014" class="node">
<title>Node14</title>
<g id="a_Node000014"><a xlink:href="_v_r_e___game_obj_render_system_8cpp.html" target="_top" xlink:title=" ">
<polygon fill="white" stroke="#666666" points="662.96,-88 511.96,-88 511.96,-56 662.96,-56 662.96,-88"/>
<text text-anchor="start" x="519.96" y="-74.5" font-family="Helvetica,sans-Serif" font-size="10.00">ReSTIRVulkan/VRE_GameObj</text>
<text text-anchor="middle" x="587.46" y="-62.5" font-family="Helvetica,sans-Serif" font-size="10.00">RenderSystem.cpp</text>
</a>
</g>
</g>
<!-- Node13&#45;&gt;Node14 -->
<g id="edge16_Node000013_Node000014" class="edge">
<title>Node13&#45;&gt;Node14</title>
<g id="a_edge16_Node000013_Node000014"><a xlink:title=" ">
<path fill="none" stroke="#63b8ff" d="M637.35,-116.32C626.76,-107.13 614.81,-96.75 605.26,-88.45"/>
<polygon fill="#63b8ff" stroke="#63b8ff" points="634.85,-118.79 644.69,-122.7 639.44,-113.5 634.85,-118.79"/>
</a>
</g>
</g>
<!-- Node16&#45;&gt;Node2 -->
<g id="edge19_Node000016_Node000002" class="edge">
<title>Node16&#45;&gt;Node2</title>
<g id="a_edge19_Node000016_Node000002"><a xlink:title=" ">
<path fill="none" stroke="#63b8ff" d="M1017.34,-124.42C1079.35,-114.6 1162.35,-101.09 1235.46,-88 1245.11,-86.27 1255.43,-84.33 1265.27,-82.43"/>
<polygon fill="#63b8ff" stroke="#63b8ff" points="1016.84,-120.95 1007.51,-125.97 1017.94,-127.86 1016.84,-120.95"/>
</a>
</g>
</g>
<!-- Node16&#45;&gt;Node15 -->
<g id="edge20_Node000016_Node000015" class="edge">
<title>Node16&#45;&gt;Node15</title>
<g id="a_edge20_Node000016_Node000015"><a xlink:title=" ">
<path fill="none" stroke="#63b8ff" d="M877.77,-119.03C850.01,-106.9 815.84,-91.96 794.1,-82.46"/>
<polygon fill="#63b8ff" stroke="#63b8ff" points="876.11,-122.12 886.67,-122.92 878.91,-115.71 876.11,-122.12"/>
</a>
</g>
</g>
<!-- Node17 -->
<g id="Node000017" class="node">
<title>Node17</title>
<g id="a_Node000017"><a xlink:href="_v_r_e___game_object_manager_8cpp.html" target="_top" xlink:title=" ">
<polygon fill="white" stroke="#666666" points="1046.71,-88 882.21,-88 882.21,-56 1046.71,-56 1046.71,-88"/>
<text text-anchor="start" x="890.21" y="-74.5" font-family="Helvetica,sans-Serif" font-size="10.00">ReSTIRVulkan/VRE_GameObject</text>
<text text-anchor="middle" x="964.46" y="-62.5" font-family="Helvetica,sans-Serif" font-size="10.00">Manager.cpp</text>
</a>
</g>
</g>
<!-- Node16&#45;&gt;Node17 -->
<g id="edge21_Node000016_Node000017" class="edge">
<title>Node16&#45;&gt;Node17</title>
<g id="a_edge21_Node000016_Node000017"><a xlink:title=" ">
<path fill="none" stroke="#63b8ff" d="M938.98,-114.02C944.37,-105.34 950.25,-95.88 955,-88.22"/>
<polygon fill="#63b8ff" stroke="#63b8ff" points="936.07,-112.07 933.77,-122.41 942.02,-115.76 936.07,-112.07"/>
</a>
</g>
</g>
<!-- Node18&#45;&gt;Node13 -->
<g id="edge23_Node000018_Node000013" class="edge">
<title>Node18&#45;&gt;Node13</title>
<g id="a_edge23_Node000018_Node000013"><a xlink:title=" ">
<path fill="none" stroke="#63b8ff" d="M933.04,-189.57C877.9,-179.64 797.9,-165.22 739.37,-154.68"/>
<polygon fill="#63b8ff" stroke="#63b8ff" points="932.11,-192.96 942.57,-191.29 933.35,-186.07 932.11,-192.96"/>
</a>
</g>
</g>
<!-- Node18&#45;&gt;Node16 -->
<g id="edge24_Node000018_Node000016" class="edge">
<title>Node18&#45;&gt;Node16</title>
<g id="a_edge24_Node000018_Node000016"><a xlink:title=" ">
<path fill="none" stroke="#63b8ff" d="M976.4,-184.51C965.71,-175.72 952.64,-164.98 942.17,-156.37"/>
<polygon fill="#63b8ff" stroke="#63b8ff" points="973.94,-187.02 983.89,-190.66 978.38,-181.61 973.94,-187.02"/>
</a>
</g>
</g>
<!-- Node18&#45;&gt;Node19 -->
<g id="edge25_Node000018_Node000019" class="edge">
<title>Node18&#45;&gt;Node19</title>
<g id="a_edge25_Node000018_Node000019"><a xlink:title=" ">
<path fill="none" stroke="#63b8ff" d="M1030.29,-187.38C1053.11,-178.19 1083.26,-166.05 1106.99,-156.49"/>
<polygon fill="#63b8ff" stroke="#63b8ff" points="1029.11,-184.08 1021.15,-191.06 1031.73,-190.57 1029.11,-184.08"/>
</a>
</g>
</g>
<!-- Node19&#45;&gt;Node2 -->
<g id="edge26_Node000019_Node000002" class="edge">
<title>Node19&#45;&gt;Node2</title>
<g id="a_edge26_Node000019_Node000002"><a xlink:title=" ">
<path fill="none" stroke="#63b8ff" d="M1195.18,-119.35C1226.03,-107.16 1264.27,-92.05 1288.52,-82.46"/>
<polygon fill="#63b8ff" stroke="#63b8ff" points="1194.04,-116.04 1186.02,-122.97 1196.61,-122.55 1194.04,-116.04"/>
</a>
</g>
</g>
<!-- Node20 -->
<g id="Node000020" class="node">
<title>Node20</title>
<g id="a_Node000020"><a xlink:href="_v_r_e___light_render_system_8cpp.html" target="_top" xlink:title=" ">
<polygon fill="white" stroke="#666666" points="1226.59,-88 1064.34,-88 1064.34,-56 1226.59,-56 1226.59,-88"/>
<text text-anchor="start" x="1072.34" y="-74.5" font-family="Helvetica,sans-Serif" font-size="10.00">ReSTIRVulkan/VRE_LightRender</text>
<text text-anchor="middle" x="1145.46" y="-62.5" font-family="Helvetica,sans-Serif" font-size="10.00">System.cpp</text>
</a>
</g>
</g>
<!-- Node19&#45;&gt;Node20 -->
<g id="edge27_Node000019_Node000020" class="edge">
<title>Node19&#45;&gt;Node20</title>
<g id="a_edge27_Node000019_Node000020"><a xlink:title=" ">
<path fill="none" stroke="#63b8ff" d="M1145.46,-112.31C1145.46,-104.12 1145.46,-95.38 1145.46,-88.22"/>
<polygon fill="#63b8ff" stroke="#63b8ff" points="1141.96,-112.18 1145.46,-122.18 1148.96,-112.18 1141.96,-112.18"/>
</a>
</g>
</g>
<!-- Node23&#45;&gt;Node2 -->
<g id="edge32_Node000023_Node000002" class="edge">
<title>Node23&#45;&gt;Node2</title>
<g id="a_edge32_Node000023_Node000002"><a xlink:title=" ">
<path fill="none" stroke="#63b8ff" d="M1399.13,-354.27C1412.05,-346.84 1426.11,-336.68 1435.46,-324 1453.32,-299.77 1454.46,-289.1 1454.46,-259 1454.46,-259 1454.46,-259 1454.46,-201 1454.46,-139.1 1379.1,-99.46 1338.18,-82.49"/>
<polygon fill="#63b8ff" stroke="#63b8ff" points="1397.61,-351.11 1390.46,-358.93 1400.93,-357.28 1397.61,-351.11"/>
</a>
</g>
</g>
<!-- Node23&#45;&gt;Node11 -->
<g id="edge35_Node000023_Node000011" class="edge">
<title>Node23&#45;&gt;Node11</title>
<g id="a_edge35_Node000023_Node000011"><a xlink:title=" ">
<path fill="none" stroke="#63b8ff" d="M1274.27,-359.77C1036.86,-340.71 768.79,-325.94 636.67,-319.11"/>
<polygon fill="#63b8ff" stroke="#63b8ff" points="1273.8,-363.24 1284.05,-360.56 1274.36,-356.26 1273.8,-363.24"/>
</a>
</g>
</g>
<!-- Node23&#45;&gt;Node18 -->
<g id="edge34_Node000023_Node000018" class="edge">
<title>Node23&#45;&gt;Node18</title>
<g id="a_edge34_Node000023_Node000018"><a xlink:title=" ">
<path fill="none" stroke="#63b8ff" d="M1328.33,-356.01C1303.71,-347.54 1271.43,-335.88 1243.46,-324 1155.57,-286.65 1054.25,-233.81 1014.13,-212.48"/>
<polygon fill="#63b8ff" stroke="#63b8ff" points="1327.03,-359.26 1337.62,-359.17 1329.29,-352.64 1327.03,-359.26"/>
</a>
</g>
</g>
<!-- Node24 -->
<g id="Node000024" class="node">
<title>Node24</title>
<g id="a_Node000024"><a xlink:href="_v_r_e___descriptor_8cpp.html" target="_top" xlink:title=" ">
<polygon fill="white" stroke="#666666" points="1426.21,-324 1252.71,-324 1252.71,-304 1426.21,-304 1426.21,-324"/>
<text text-anchor="middle" x="1339.46" y="-310.5" font-family="Helvetica,sans-Serif" font-size="10.00">ReSTIRVulkan/VRE_Descriptor.cpp</text>
</a>
</g>
</g>
<!-- Node23&#45;&gt;Node24 -->
<g id="edge33_Node000023_Node000024" class="edge">
<title>Node23&#45;&gt;Node24</title>
<g id="a_edge33_Node000023_Node000024"><a xlink:title=" ">
<path fill="none" stroke="#63b8ff" d="M1357.39,-349.58C1352.93,-340.97 1347.88,-331.24 1344.28,-324.3"/>
<polygon fill="#63b8ff" stroke="#63b8ff" points="1354.18,-350.98 1361.89,-358.25 1360.39,-347.76 1354.18,-350.98"/>
</a>
</g>
</g>
<!-- Node26&#45;&gt;Node10 -->
<g id="edge43_Node000026_Node000010" class="edge">
<title>Node26&#45;&gt;Node10</title>
<g id="a_edge43_Node000026_Node000010"><a xlink:title=" ">
<path fill="none" stroke="#63b8ff" d="M668.39,-357.93C600.64,-348.07 502.58,-333.79 438.43,-324.46"/>
<polygon fill="#63b8ff" stroke="#63b8ff" points="667.52,-361.34 677.92,-359.31 668.52,-354.41 667.52,-361.34"/>
</a>
</g>
</g>
<!-- Node26&#45;&gt;Node11 -->
<g id="edge44_Node000026_Node000011" class="edge">
<title>Node26&#45;&gt;Node11</title>
<g id="a_edge44_Node000026_Node000011"><a xlink:title=" ">
<path fill="none" stroke="#63b8ff" d="M700.69,-356.56C666.32,-346.79 619.18,-333.39 587.81,-324.48"/>
<polygon fill="#63b8ff" stroke="#63b8ff" points="699.33,-359.81 709.91,-359.18 701.25,-353.08 699.33,-359.81"/>
</a>
</g>
</g>
<!-- Node26&#45;&gt;Node13 -->
<g id="edge41_Node000026_Node000013" class="edge">
<title>Node26&#45;&gt;Node13</title>
<g id="a_edge41_Node000026_Node000013"><a xlink:title=" ">
<path fill="none" stroke="#63b8ff" d="M728.6,-351C712.73,-331.86 689.05,-299.99 677.46,-268 663.55,-229.63 662.4,-180.81 662.86,-156.38"/>
<polygon fill="#63b8ff" stroke="#63b8ff" points="725.75,-353.05 734.9,-358.4 731.08,-348.51 725.75,-353.05"/>
</a>
</g>
</g>
<!-- Node26&#45;&gt;Node19 -->
<g id="edge42_Node000026_Node000019" class="edge">
<title>Node26&#45;&gt;Node19</title>
<g id="a_edge42_Node000026_Node000019"><a xlink:title=" ">
<path fill="none" stroke="#63b8ff" d="M793.4,-356.61C866.17,-336.27 1004.3,-290.05 1097.46,-212 1115.94,-196.52 1130.25,-172.2 1138.27,-156.43"/>
<polygon fill="#63b8ff" stroke="#63b8ff" points="792.9,-353.12 784.19,-359.14 794.76,-359.87 792.9,-353.12"/>
</a>
</g>
</g>
<!-- Node27&#45;&gt;Node2 -->
<g id="edge46_Node000027_Node000002" class="edge">
<title>Node27&#45;&gt;Node2</title>
<g id="a_edge46_Node000027_Node000002"><a xlink:title=" ">
<path fill="none" stroke="#63b8ff" d="M1197.68,-349.22C1221.73,-291.34 1291.34,-123.84 1308.57,-82.37"/>
<polygon fill="#63b8ff" stroke="#63b8ff" points="1194.46,-347.84 1193.86,-358.42 1200.93,-350.53 1194.46,-347.84"/>
</a>
</g>
</g>
<!-- Node27&#45;&gt;Node18 -->
<g id="edge48_Node000027_Node000018" class="edge">
<title>Node27&#45;&gt;Node18</title>
<g id="a_edge48_Node000027_Node000018"><a xlink:title=" ">
<path fill="none" stroke="#63b8ff" d="M1115.95,-357.7C1059.64,-348.29 990.13,-334.75 981.46,-324 954.61,-290.72 979.47,-234.62 991.16,-212.44"/>
<polygon fill="#63b8ff" stroke="#63b8ff" points="1115.09,-361.11 1125.53,-359.28 1116.23,-354.2 1115.09,-361.11"/>
</a>
</g>
</g>
<!-- Node28 -->
<g id="Node000028" class="node">
<title>Node28</title>
<g id="a_Node000028"><a xlink:href="_v_r_e___renderer_8cpp.html" target="_top" xlink:title=" ">
<polygon fill="white" stroke="#666666" points="1158.59,-324 990.34,-324 990.34,-304 1158.59,-304 1158.59,-324"/>
<text text-anchor="middle" x="1074.46" y="-310.5" font-family="Helvetica,sans-Serif" font-size="10.00">ReSTIRVulkan/VRE_Renderer.cpp</text>
</a>
</g>
</g>
<!-- Node27&#45;&gt;Node28 -->
<g id="edge47_Node000027_Node000028" class="edge">
<title>Node27&#45;&gt;Node28</title>
<g id="a_edge47_Node000027_Node000028"><a xlink:title=" ">
<path fill="none" stroke="#63b8ff" d="M1159.1,-354.75C1138.74,-345.18 1112.48,-332.85 1094.65,-324.48"/>
<polygon fill="#63b8ff" stroke="#63b8ff" points="1157.52,-357.87 1168.06,-358.95 1160.49,-351.53 1157.52,-357.87"/>
</a>
</g>
</g>
<!-- Node29&#45;&gt;Node12 -->
<g id="edge50_Node000029_Node000012" class="edge">
<title>Node29&#45;&gt;Node12</title>
<g id="a_edge50_Node000029_Node000012"><a xlink:title=" ">
<path fill="none" stroke="#63b8ff" d="M965.85,-411.33C947.15,-403.42 924.28,-392.55 905.46,-380 853,-345.01 800.52,-289.9 780.72,-268.21"/>
<polygon fill="#63b8ff" stroke="#63b8ff" points="964.33,-414.49 974.91,-415.06 967,-408.02 964.33,-414.49"/>
</a>
</g>
</g>
<!-- Node29&#45;&gt;Node27 -->
<g id="edge51_Node000029_Node000027" class="edge">
<title>Node29&#45;&gt;Node27</title>
<g id="a_edge51_Node000029_Node000027"><a xlink:title=" ">
<path fill="none" stroke="#63b8ff" d="M1045.21,-412.43C1079.19,-402.67 1125.56,-389.35 1156.46,-380.48"/>
<polygon fill="#63b8ff" stroke="#63b8ff" points="1044.31,-409.05 1035.66,-415.18 1046.24,-415.78 1044.31,-409.05"/>
</a>
</g>
</g>
<!-- Node30 -->
<g id="Node000030" class="node">
<title>Node30</title>
<g id="a_Node000030"><a xlink:href="_v_r_e___swap_chain_8cpp.html" target="_top" xlink:title=" ">
<polygon fill="white" stroke="#666666" points="1092.84,-380 914.09,-380 914.09,-360 1092.84,-360 1092.84,-380"/>
<text text-anchor="middle" x="1003.46" y="-366.5" font-family="Helvetica,sans-Serif" font-size="10.00">ReSTIRVulkan/VRE_SwapChain.cpp</text>
</a>
</g>
</g>
<!-- Node29&#45;&gt;Node30 -->
<g id="edge52_Node000029_Node000030" class="edge">
<title>Node29&#45;&gt;Node30</title>
<g id="a_edge52_Node000029_Node000030"><a xlink:title=" ">
<path fill="none" stroke="#63b8ff" d="M1002.23,-404.13C1002.54,-395.9 1002.87,-386.85 1003.12,-380.3"/>
<polygon fill="#63b8ff" stroke="#63b8ff" points="998.74,-403.96 1001.86,-414.08 1005.73,-404.22 998.74,-403.96"/>
</a>
</g>
</g>
<!-- Node31&#45;&gt;Node8 -->
<g id="edge54_Node000031_Node000008" class="edge">
<title>Node31&#45;&gt;Node8</title>
<g id="a_edge54_Node000031_Node000008"><a xlink:title=" ">
<path fill="none" stroke="#63b8ff" d="M481.08,-412.94C439.31,-403.13 381.2,-389.49 342.74,-380.46"/>
<polygon fill="#63b8ff" stroke="#63b8ff" points="480.13,-416.31 490.66,-415.19 481.73,-409.49 480.13,-416.31"/>
</a>
</g>
</g>
<!-- Node31&#45;&gt;Node22 -->
<g id="edge55_Node000031_Node000022" class="edge">
<title>Node31&#45;&gt;Node22</title>
<g id="a_edge55_Node000031_Node000022"><a xlink:title=" ">
<path fill="none" stroke="#63b8ff" d="M532.46,-404.13C532.46,-395.9 532.46,-386.85 532.46,-380.3"/>
<polygon fill="#63b8ff" stroke="#63b8ff" points="528.96,-404.08 532.46,-414.08 535.96,-404.08 528.96,-404.08"/>
</a>
</g>
</g>
<!-- Node32&#45;&gt;Node2 -->
<g id="edge58_Node000032_Node000002" class="edge">
<title>Node32&#45;&gt;Node2</title>
<g id="a_edge58_Node000032_Node000002"><a xlink:title=" ">
<path fill="none" stroke="#63b8ff" d="M1656.72,-465.53C1645.63,-457.91 1633.5,-447.82 1625.46,-436 1608.52,-411.12 1606.46,-401.1 1606.46,-371 1606.46,-371 1606.46,-371 1606.46,-201 1606.46,-165.15 1609.23,-147.84 1582.46,-124 1553.21,-97.94 1450.34,-84.33 1380.37,-77.92"/>
<polygon fill="#63b8ff" stroke="#63b8ff" points="1654.5,-468.27 1664.8,-470.75 1658.3,-462.39 1654.5,-468.27"/>
</a>
</g>
</g>
<!-- Node33 -->
<g id="Node000033" class="node">
<title>Node33</title>
<g id="a_Node000033"><a xlink:href="_v_r_e___input_listener_8cpp.html" target="_top" xlink:title=" ">
<polygon fill="white" stroke="#666666" points="1818.84,-436 1634.09,-436 1634.09,-416 1818.84,-416 1818.84,-436"/>
<text text-anchor="middle" x="1726.46" y="-422.5" font-family="Helvetica,sans-Serif" font-size="10.00">ReSTIRVulkan/VRE_InputListener.cpp</text>
</a>
</g>
</g>
<!-- Node32&#45;&gt;Node33 -->
<g id="edge59_Node000032_Node000033" class="edge">
<title>Node32&#45;&gt;Node33</title>
<g id="a_edge59_Node000032_Node000033"><a xlink:title=" ">
<path fill="none" stroke="#63b8ff" d="M1698.02,-462.72C1705.09,-453.84 1713.28,-443.55 1719.06,-436.3"/>
<polygon fill="#63b8ff" stroke="#63b8ff" points="1695.38,-460.41 1691.89,-470.41 1700.86,-464.77 1695.38,-460.41"/>
</a>
</g>
</g>
</g>
</svg>

<g id="navigator" transform="translate(0 0)" fill="#404254">
  <rect fill="#f2f5e9" fill-opacity="0.5" stroke="#606060" stroke-width=".5" x="0" y="0" width="60" height="60"/>
  <use id="zoomplus" xlink:href="#zoomPlus" x="17" y="9" onmousedown="handleZoom(evt,'in')"/>
  <use id="zoomminus" xlink:href="#zoomMin" x="42" y="9" onmousedown="handleZoom(evt,'out')"/>
  <use id="reset" xlink:href="#resetDef" x="30" y="36" onmousedown="handleReset()"/>
   <use id="arrowup" xlink:href="#arrowUp" x="0" y="0" onmousedown="handlePan(0,-1)"/>
  <use id="arrowright" xlink:href="#arrowRight" x="0" y="0" onmousedown="handlePan(1,0)"/>
  <use id="arrowdown" xlink:href="#arrowDown" x="0" y="0" onmousedown="handlePan(0,1)"/>
  <use id="arrowleft" xlink:href="#arrowLeft" x="0" y="0" onmousedown="handlePan(-1,0)"/>
</g>
<svg viewBox="0 0 15 15" width="100%" height="30px" preserveAspectRatio="xMaxYMin meet">
 <g id="arrow_out" transform="scale(0.3 0.3)">
  <a xlink:href="_v_r_e___window_8h__dep__incl_org.svg" target="_base">
   <rect id="button" ry="5" rx="5" y="6" x="6" height="38" width="38"
        fill="#f2f5e9" fill-opacity="0.5" stroke="#606060" stroke-width="1.0"/>
   <path id="arrow"
     d="M 11.500037,31.436501 C 11.940474,20.09759 22.043105,11.32322 32.158766,21.979434 L 37.068811,17.246167 C 37.068811,17.246167 37.088388,32 37.088388,32 L 22.160133,31.978069 C 22.160133,31.978069 26.997745,27.140456 26.997745,27.140456 C 18.528582,18.264221 13.291696,25.230495 11.500037,31.436501 z"
     style="fill:#404040;"/>
  </a>
 </g>
</svg>

<style type='text/css'>
<![CDATA[
[data-mouse-over-selected='false'] { opacity: 0.7; }
[data-mouse-over-selected='true']  { opacity: 1.0; }
]]>
</style>
<script type="application/ecmascript"><![CDATA[
document.addEventListener('DOMContentLoaded', (event) => {
  highlightEdges();
  highlightAdjacentNodes();
});
]]></script>
</svg>
