<?xml version="1.0" encoding="UTF-8" standalone="no"?>
<!DOCTYPE svg PUBLIC "-//W3C//DTD SVG 1.1//EN"
 "http://www.w3.org/Graphics/SVG/1.1/DTD/svg11.dtd">
<!-- Generated by graphviz version 12.1.2 (20240928.0832)
 -->
<!-- Title: ReSTIRVulkan/VRE_Renderer.h Pages: 1 -->
<svg width="478pt" height="252pt"
 viewBox="0.00 0.00 477.62 252.00" xmlns="http://www.w3.org/2000/svg" xmlns:xlink="http://www.w3.org/1999/xlink">
<g id="graph0" class="graph" transform="scale(1 1) rotate(0) translate(4 248)">
<title>ReSTIRVulkan/VRE_Renderer.h</title>
<!-- Node1 -->
<g id="Node000001" class="node">
<title>Node1</title>
<g id="a_Node000001"><a xlink:title=" ">
<polygon fill="#999999" stroke="#666666" points="375.38,-244 217.62,-244 217.62,-224 375.38,-224 375.38,-244"/>
<text text-anchor="middle" x="296.5" y="-230.5" font-family="Helvetica,sans-Serif" font-size="10.00">ReSTIRVulkan/VRE_Renderer.h</text>
</a>
</g>
</g>
<!-- Node2 -->
<g id="Node000002" class="node">
<title>Node2</title>
<g id="a_Node000002"><a xlink:href="_v_r_e___window_8h.html" target="_top" xlink:title=" ">
<polygon fill="white" stroke="#666666" points="85,-76 0,-76 0,-56 85,-56 85,-76"/>
<text text-anchor="middle" x="42.5" y="-62.5" font-family="Helvetica,sans-Serif" font-size="10.00">VRE_Window.h</text>
</a>
</g>
</g>
<!-- Node1&#45;&gt;Node2 -->
<g id="edge1_Node000001_Node000002" class="edge">
<title>Node1&#45;&gt;Node2</title>
<g id="a_edge1_Node000001_Node000002"><a xlink:title=" ">
<path fill="none" stroke="#63b8ff" d="M217.32,-227.81C153.36,-218.88 67.48,-195.05 26.5,-132 17.51,-118.16 23.42,-99.67 30.46,-85.95"/>
<polygon fill="#63b8ff" stroke="#63b8ff" points="33.39,-87.87 35.34,-77.46 27.32,-84.39 33.39,-87.87"/>
</a>
</g>
</g>
<!-- Node5 -->
<g id="Node000005" class="node">
<title>Node5</title>
<g id="a_Node000005"><a xlink:href="_v_r_e___device_8h.html" target="_top" xlink:title=" ">
<polygon fill="white" stroke="#666666" points="117.12,-132 35.88,-132 35.88,-112 117.12,-112 117.12,-132"/>
<text text-anchor="middle" x="76.5" y="-118.5" font-family="Helvetica,sans-Serif" font-size="10.00">VRE_Device.h</text>
</a>
</g>
</g>
<!-- Node1&#45;&gt;Node5 -->
<g id="edge4_Node000001_Node000005" class="edge">
<title>Node1&#45;&gt;Node5</title>
<g id="a_edge4_Node000001_Node000005"><a xlink:title=" ">
<path fill="none" stroke="#63b8ff" d="M272.39,-223.55C250.89,-214.91 218.69,-201.46 191.5,-188 159.77,-172.29 124.5,-151.9 101.49,-138.18"/>
<polygon fill="#63b8ff" stroke="#63b8ff" points="103.51,-135.31 93.13,-133.16 99.9,-141.31 103.51,-135.31"/>
</a>
</g>
</g>
<!-- Node6 -->
<g id="Node000006" class="node">
<title>Node6</title>
<g id="a_Node000006"><a xlink:title=" ">
<polygon fill="#e0e0e0" stroke="#999999" points="319,-76 276,-76 276,-56 319,-56 319,-76"/>
<text text-anchor="middle" x="297.5" y="-62.5" font-family="Helvetica,sans-Serif" font-size="10.00">vector</text>
</a>
</g>
</g>
<!-- Node1&#45;&gt;Node6 -->
<g id="edge15_Node000001_Node000006" class="edge">
<title>Node1&#45;&gt;Node6</title>
<g id="a_edge15_Node000001_Node000006"><a xlink:title=" ">
<path fill="none" stroke="#63b8ff" d="M307.59,-223.51C325.82,-207.08 361.4,-171.3 374.5,-132 377.31,-123.57 378.92,-119.71 374.5,-112 364.89,-95.26 346.38,-84.15 329.91,-77.16"/>
<polygon fill="#63b8ff" stroke="#63b8ff" points="331.5,-74.02 320.91,-73.68 328.98,-80.55 331.5,-74.02"/>
</a>
</g>
</g>
<!-- Node7 -->
<g id="Node000007" class="node">
<title>Node7</title>
<g id="a_Node000007"><a xlink:href="_v_r_e___swap_chain_8h.html" target="_top" xlink:title=" ">
<polygon fill="white" stroke="#666666" points="300.88,-188 200.12,-188 200.12,-168 300.88,-168 300.88,-188"/>
<text text-anchor="middle" x="250.5" y="-174.5" font-family="Helvetica,sans-Serif" font-size="10.00">VRE_SwapChain.h</text>
</a>
</g>
</g>
<!-- Node1&#45;&gt;Node7 -->
<g id="edge8_Node000001_Node000007" class="edge">
<title>Node1&#45;&gt;Node7</title>
<g id="a_edge8_Node000001_Node000007"><a xlink:title=" ">
<path fill="none" stroke="#63b8ff" d="M288.49,-223.59C282.22,-216.24 273.33,-205.8 265.72,-196.87"/>
<polygon fill="#63b8ff" stroke="#63b8ff" points="268.55,-194.79 259.4,-189.45 263.22,-199.33 268.55,-194.79"/>
</a>
</g>
</g>
<!-- Node9 -->
<g id="Node000009" class="node">
<title>Node9</title>
<g id="a_Node000009"><a xlink:title=" ">
<polygon fill="#e0e0e0" stroke="#999999" points="365.12,-132 313.88,-132 313.88,-112 365.12,-112 365.12,-132"/>
<text text-anchor="middle" x="339.5" y="-118.5" font-family="Helvetica,sans-Serif" font-size="10.00">memory</text>
</a>
</g>
</g>
<!-- Node1&#45;&gt;Node9 -->
<g id="edge14_Node000001_Node000009" class="edge">
<title>Node1&#45;&gt;Node9</title>
<g id="a_edge14_Node000001_Node000009"><a xlink:title=" ">
<path fill="none" stroke="#63b8ff" d="M300.17,-223.62C307.12,-205.84 322.35,-166.88 331.68,-143"/>
<polygon fill="#63b8ff" stroke="#63b8ff" points="334.91,-144.35 335.29,-133.76 328.39,-141.8 334.91,-144.35"/>
</a>
</g>
</g>
<!-- Node10 -->
<g id="Node000010" class="node">
<title>Node10</title>
<g id="a_Node000010"><a xlink:title=" ">
<polygon fill="#e0e0e0" stroke="#999999" points="469.62,-188 421.38,-188 421.38,-168 469.62,-168 469.62,-188"/>
<text text-anchor="middle" x="445.5" y="-174.5" font-family="Helvetica,sans-Serif" font-size="10.00">cassert</text>
</a>
</g>
</g>
<!-- Node1&#45;&gt;Node10 -->
<g id="edge16_Node000001_Node000010" class="edge">
<title>Node1&#45;&gt;Node10</title>
<g id="a_edge16_Node000001_Node000010"><a xlink:title=" ">
<path fill="none" stroke="#63b8ff" d="M322.45,-223.59C346.93,-214.72 383.79,-201.37 410.78,-191.58"/>
<polygon fill="#63b8ff" stroke="#63b8ff" points="411.69,-194.98 419.9,-188.28 409.31,-188.39 411.69,-194.98"/>
</a>
</g>
</g>
<!-- Node3 -->
<g id="Node000003" class="node">
<title>Node3</title>
<g id="a_Node000003"><a xlink:title=" ">
<polygon fill="#e0e0e0" stroke="#999999" points="66.25,-20 18.75,-20 18.75,0 66.25,0 66.25,-20"/>
<text text-anchor="middle" x="42.5" y="-6.5" font-family="Helvetica,sans-Serif" font-size="10.00">glfw3.h</text>
</a>
</g>
</g>
<!-- Node2&#45;&gt;Node3 -->
<g id="edge2_Node000002_Node000003" class="edge">
<title>Node2&#45;&gt;Node3</title>
<g id="a_edge2_Node000002_Node000003"><a xlink:title=" ">
<path fill="none" stroke="#63b8ff" d="M42.5,-55.59C42.5,-49.01 42.5,-39.96 42.5,-31.73"/>
<polygon fill="#63b8ff" stroke="#63b8ff" points="46,-31.81 42.5,-21.81 39,-31.81 46,-31.81"/>
</a>
</g>
</g>
<!-- Node4 -->
<g id="Node000004" class="node">
<title>Node4</title>
<g id="a_Node000004"><a xlink:title=" ">
<polygon fill="#e0e0e0" stroke="#999999" points="133.5,-20 93.5,-20 93.5,0 133.5,0 133.5,-20"/>
<text text-anchor="middle" x="113.5" y="-6.5" font-family="Helvetica,sans-Serif" font-size="10.00">string</text>
</a>
</g>
</g>
<!-- Node2&#45;&gt;Node4 -->
<g id="edge3_Node000002_Node000004" class="edge">
<title>Node2&#45;&gt;Node4</title>
<g id="a_edge3_Node000002_Node000004"><a xlink:title=" ">
<path fill="none" stroke="#63b8ff" d="M54.87,-55.59C65.15,-47.77 80.02,-36.46 92.21,-27.19"/>
<polygon fill="#63b8ff" stroke="#63b8ff" points="94.23,-30.05 100.07,-21.21 89.99,-24.48 94.23,-30.05"/>
</a>
</g>
</g>
<!-- Node5&#45;&gt;Node2 -->
<g id="edge5_Node000005_Node000002" class="edge">
<title>Node5&#45;&gt;Node2</title>
<g id="a_edge5_Node000005_Node000002"><a xlink:title=" ">
<path fill="none" stroke="#63b8ff" d="M70.58,-111.59C66.14,-104.55 59.92,-94.67 54.46,-86"/>
<polygon fill="#63b8ff" stroke="#63b8ff" points="57.45,-84.18 49.16,-77.58 51.53,-87.91 57.45,-84.18"/>
</a>
</g>
</g>
<!-- Node5&#45;&gt;Node4 -->
<g id="edge6_Node000005_Node000004" class="edge">
<title>Node5&#45;&gt;Node4</title>
<g id="a_edge6_Node000005_Node000004"><a xlink:title=" ">
<path fill="none" stroke="#63b8ff" d="M80.49,-111.79C84.32,-102.76 90.16,-88.57 94.5,-76 99.62,-61.18 104.56,-44.16 108.12,-31.25"/>
<polygon fill="#63b8ff" stroke="#63b8ff" points="111.44,-32.37 110.68,-21.81 104.69,-30.55 111.44,-32.37"/>
</a>
</g>
</g>
<!-- Node5&#45;&gt;Node6 -->
<g id="edge7_Node000005_Node000006" class="edge">
<title>Node5&#45;&gt;Node6</title>
<g id="a_edge7_Node000005_Node000006"><a xlink:title=" ">
<path fill="none" stroke="#63b8ff" d="M115.25,-111.53C157.61,-101.18 224.77,-84.77 264.64,-75.03"/>
<polygon fill="#63b8ff" stroke="#63b8ff" points="265.25,-78.48 274.14,-72.71 263.59,-71.68 265.25,-78.48"/>
</a>
</g>
</g>
<!-- Node7&#45;&gt;Node4 -->
<g id="edge11_Node000007_Node000004" class="edge">
<title>Node7&#45;&gt;Node4</title>
<g id="a_edge11_Node000007_Node000004"><a xlink:title=" ">
<path fill="none" stroke="#63b8ff" d="M248.98,-167.93C246.44,-154.73 240.4,-129.84 228.5,-112 204.29,-75.7 163.82,-44.41 137.92,-26.64"/>
<polygon fill="#63b8ff" stroke="#63b8ff" points="139.96,-23.8 129.7,-21.14 136.06,-29.62 139.96,-23.8"/>
</a>
</g>
</g>
<!-- Node7&#45;&gt;Node5 -->
<g id="edge9_Node000007_Node000005" class="edge">
<title>Node7&#45;&gt;Node5</title>
<g id="a_edge9_Node000007_Node000005"><a xlink:title=" ">
<path fill="none" stroke="#63b8ff" d="M220.19,-167.59C191.8,-158.78 149.13,-145.54 117.67,-135.78"/>
<polygon fill="#63b8ff" stroke="#63b8ff" points="119.08,-132.55 108.49,-132.93 117,-139.23 119.08,-132.55"/>
</a>
</g>
</g>
<!-- Node7&#45;&gt;Node6 -->
<g id="edge12_Node000007_Node000006" class="edge">
<title>Node7&#45;&gt;Node6</title>
<g id="a_edge12_Node000007_Node000006"><a xlink:title=" ">
<path fill="none" stroke="#63b8ff" d="M254.51,-167.62C262.14,-149.76 278.9,-110.53 289.1,-86.67"/>
<polygon fill="#63b8ff" stroke="#63b8ff" points="292.2,-88.32 292.91,-77.75 285.76,-85.57 292.2,-88.32"/>
</a>
</g>
</g>
<!-- Node8 -->
<g id="Node000008" class="node">
<title>Node8</title>
<g id="a_Node000008"><a xlink:title=" ">
<polygon fill="#e0e0e0" stroke="#999999" points="219.62,-132 135.38,-132 135.38,-112 219.62,-112 219.62,-132"/>
<text text-anchor="middle" x="177.5" y="-118.5" font-family="Helvetica,sans-Serif" font-size="10.00">vulkan/vulkan.h</text>
</a>
</g>
</g>
<!-- Node7&#45;&gt;Node8 -->
<g id="edge10_Node000007_Node000008" class="edge">
<title>Node7&#45;&gt;Node8</title>
<g id="a_edge10_Node000007_Node000008"><a xlink:title=" ">
<path fill="none" stroke="#63b8ff" d="M237.78,-167.59C227.11,-159.7 211.62,-148.24 199.02,-138.92"/>
<polygon fill="#63b8ff" stroke="#63b8ff" points="201.41,-136.33 191.29,-133.2 197.24,-141.96 201.41,-136.33"/>
</a>
</g>
</g>
<!-- Node7&#45;&gt;Node9 -->
<g id="edge13_Node000007_Node000009" class="edge">
<title>Node7&#45;&gt;Node9</title>
<g id="a_edge13_Node000007_Node000009"><a xlink:title=" ">
<path fill="none" stroke="#63b8ff" d="M266,-167.59C279.32,-159.51 298.78,-147.71 314.33,-138.27"/>
<polygon fill="#63b8ff" stroke="#63b8ff" points="315.85,-141.44 322.58,-133.26 312.22,-135.46 315.85,-141.44"/>
</a>
</g>
</g>
</g>
</svg>
