<?xml version="1.0" encoding="UTF-8" standalone="no"?>
<!DOCTYPE svg PUBLIC "-//W3C//DTD SVG 1.1//EN"
 "http://www.w3.org/Graphics/SVG/1.1/DTD/svg11.dtd">
<!-- Generated by graphviz version 12.1.2 (20240928.0832)
 -->
<!-- Title: ReSTIRVulkan/VRE_GameObject.h Pages: 1 -->
<!--zoomable 364 -->

<svg id="main" version="1.1" xmlns="http://www.w3.org/2000/svg" xmlns:xlink="http://www.w3.org/1999/xlink" xml:space="preserve" onload="init(evt)">

<style type="text/css"><![CDATA[
.node, .edge {opacity: 0.7;}
.node.selected, .edge.selected {opacity: 1;}
.edge:hover path { stroke: red; }
.edge:hover polygon { stroke: red; fill: red; }
]]></style>

<defs>
  <circle id="rim" cx="0" cy="0" r="7"/>
  <circle id="rim2" cx="0" cy="0" r="3.5"/>
  <g id="zoomPlus">
    <use xlink:href="#rim" fill="#404040"><set attributeName="fill" to="#808080" begin="zoomplus.mouseover" end="zoomplus.mouseout"/></use>
    <path d="M-4,0h8M0,-4v8" fill="none" stroke="white" stroke-width="1.5" pointer-events="none"/>
  </g>
  <g id="zoomMin">
    <use xlink:href="#rim" fill="#404040"><set attributeName="fill" to="#808080" begin="zoomminus.mouseover" end="zoomminus.mouseout"/></use>
    <path d="M-4,0h8" fill="none" stroke="white" stroke-width="1.5" pointer-events="none"/>
  </g>
  <g id="arrowUp" transform="translate(30 24)">
    <use xlink:href="#rim"/>
    <path pointer-events="none" fill="none" stroke="white" stroke-width="1.5" d="M0,-3.0v7 M-2.5,-0.5L0,-3.0L2.5,-0.5"/>
  </g>
  <g id="arrowRight" transform="rotate(90) translate(36 -43)">
    <use xlink:href="#rim"/>
    <path pointer-events="none" fill="none" stroke="white" stroke-width="1.5" d="M0,-3.0v7 M-2.5,-0.5L0,-3.0L2.5,-0.5"/>
  </g>
  <g id="arrowDown" transform="rotate(180) translate(-30 -48)">
    <use xlink:href="#rim"/>
    <path pointer-events="none" fill="none" stroke="white" stroke-width="1.5" d="M0,-3.0v7 M-2.5,-0.5L0,-3.0L2.5,-0.5"/>
  </g>
  <g id="arrowLeft" transform="rotate(270) translate(-36 17)">
    <use xlink:href="#rim"/>
    <path pointer-events="none" fill="none" stroke="white" stroke-width="1.5" d="M0,-3.0v7 M-2.5,-0.5L0,-3.0L2.5,-0.5"/>
  </g>
  <g id="resetDef">
    <use xlink:href="#rim2" fill="#404040"><set attributeName="fill" to="#808080" begin="reset.mouseover" end="reset.mouseout"/></use>
  </g>
</defs>
<script type="application/ecmascript">
var viewWidth = 920;
var viewHeight = 364;
var sectionId = 'dynsection-0';
</script>
<script type="application/ecmascript" xlink:href="svg.min.js"/>
<svg id="graph" class="graph">
<g id="viewport">
<title>ReSTIRVulkan/VRE_GameObject.h</title>
<!-- Node1 -->
<g id="Node000001" class="node">
<title>Node1</title>
<g id="a_Node000001"><a xlink:title=" ">
<polygon fill="#999999" stroke="#666666" points="768.75,-356 596,-356 596,-336 768.75,-336 768.75,-356"/>
<text text-anchor="middle" x="682.38" y="-342.5" font-family="Helvetica,sans-Serif" font-size="10.00">ReSTIRVulkan/VRE_GameObject.h</text>
</a>
</g>
</g>
<!-- Node2 -->
<g id="Node000002" class="node">
<title>Node2</title>
<g id="a_Node000002"><a xlink:title=" ">
<polygon fill="#e0e0e0" stroke="#999999" points="719,-132 667.75,-132 667.75,-112 719,-112 719,-132"/>
<text text-anchor="middle" x="693.38" y="-118.5" font-family="Helvetica,sans-Serif" font-size="10.00">memory</text>
</a>
</g>
</g>
<!-- Node1&#45;&gt;Node2 -->
<g id="edge1_Node000001_Node000002" class="edge">
<title>Node1&#45;&gt;Node2</title>
<g id="a_edge1_Node000001_Node000002"><a xlink:title=" ">
<path fill="none" stroke="#63b8ff" d="M687.92,-335.78C693.3,-326.75 701.62,-312.55 708.38,-300 708.43,-299.9 764.35,-188.11 764.38,-188 766.42,-179.35 768.66,-175.79 764.38,-168 756.75,-154.14 742.86,-143.95 729.37,-136.81"/>
<polygon fill="#63b8ff" stroke="#63b8ff" points="731.14,-133.78 720.61,-132.59 728.1,-140.08 731.14,-133.78"/>
</a>
</g>
</g>
<!-- Node3 -->
<g id="Node000003" class="node">
<title>Node3</title>
<g id="a_Node000003"><a xlink:title=" ">
<polygon fill="#e0e0e0" stroke="#999999" points="82.75,-132 0,-132 0,-112 82.75,-112 82.75,-132"/>
<text text-anchor="middle" x="41.38" y="-118.5" font-family="Helvetica,sans-Serif" font-size="10.00">unordered_map</text>
</a>
</g>
</g>
<!-- Node1&#45;&gt;Node3 -->
<g id="edge2_Node000001_Node000003" class="edge">
<title>Node1&#45;&gt;Node3</title>
<g id="a_edge2_Node000001_Node000003"><a xlink:title=" ">
<path fill="none" stroke="#63b8ff" d="M595.81,-345.32C504.5,-343.58 357.24,-334.84 235.38,-300 145.15,-274.2 104.88,-268.34 56.38,-188 48.21,-174.48 44.49,-156.91 42.79,-143.45"/>
<polygon fill="#63b8ff" stroke="#63b8ff" points="46.28,-143.2 41.85,-133.57 39.31,-143.86 46.28,-143.2"/>
</a>
</g>
</g>
<!-- Node4 -->
<g id="Node000004" class="node">
<title>Node4</title>
<g id="a_Node000004"><a xlink:title=" ">
<polygon fill="#e0e0e0" stroke="#999999" points="699.75,-300 575,-300 575,-280 699.75,-280 699.75,-300"/>
<text text-anchor="middle" x="637.38" y="-286.5" font-family="Helvetica,sans-Serif" font-size="10.00">gtc/matrix_transform.hpp</text>
</a>
</g>
</g>
<!-- Node1&#45;&gt;Node4 -->
<g id="edge3_Node000001_Node000004" class="edge">
<title>Node1&#45;&gt;Node4</title>
<g id="a_edge3_Node000001_Node000004"><a xlink:title=" ">
<path fill="none" stroke="#63b8ff" d="M674.54,-335.59C668.41,-328.24 659.7,-317.8 652.26,-308.87"/>
<polygon fill="#63b8ff" stroke="#63b8ff" points="655.18,-306.9 646.09,-301.46 649.81,-311.38 655.18,-306.9"/>
</a>
</g>
</g>
<!-- Node5 -->
<g id="Node000005" class="node">
<title>Node5</title>
<g id="a_Node000005"><a xlink:href="_v_r_e__gl_t_f_model_8h.html" target="_top" xlink:title=" ">
<polygon fill="white" stroke="#666666" points="340.5,-300 244.25,-300 244.25,-280 340.5,-280 340.5,-300"/>
<text text-anchor="middle" x="292.38" y="-286.5" font-family="Helvetica,sans-Serif" font-size="10.00">VRE_glTFModel.h</text>
</a>
</g>
</g>
<!-- Node1&#45;&gt;Node5 -->
<g id="edge4_Node000001_Node000005" class="edge">
<title>Node1&#45;&gt;Node5</title>
<g id="a_edge4_Node000001_Node000005"><a xlink:title=" ">
<path fill="none" stroke="#63b8ff" d="M614,-335.53C539.91,-325.27 422.87,-309.07 352.28,-299.29"/>
<polygon fill="#63b8ff" stroke="#63b8ff" points="352.82,-295.84 342.43,-297.93 351.86,-302.77 352.82,-295.84"/>
</a>
</g>
</g>
<!-- Node20 -->
<g id="Node000020" class="node">
<title>Node20</title>
<g id="a_Node000020"><a xlink:href="_v_r_e___object_components_8h.html" target="_top" xlink:title=" ">
<polygon fill="white" stroke="#666666" points="889.62,-244 755.12,-244 755.12,-224 889.62,-224 889.62,-244"/>
<text text-anchor="middle" x="822.38" y="-230.5" font-family="Helvetica,sans-Serif" font-size="10.00">VRE_ObjectComponents.h</text>
</a>
</g>
</g>
<!-- Node1&#45;&gt;Node20 -->
<g id="edge32_Node000001_Node000020" class="edge">
<title>Node1&#45;&gt;Node20</title>
<g id="a_edge32_Node000001_Node000020"><a xlink:title=" ">
<path fill="none" stroke="#63b8ff" d="M694.65,-335.78C706.63,-326.74 725.34,-312.54 741.38,-300 762.27,-283.65 785.9,-264.63 802.22,-251.4"/>
<polygon fill="#63b8ff" stroke="#63b8ff" points="804.18,-254.32 809.74,-245.3 799.77,-248.89 804.18,-254.32"/>
</a>
</g>
</g>
<!-- Node21 -->
<g id="Node000021" class="node">
<title>Node21</title>
<g id="a_Node000021"><a xlink:href="_v_r_e___swap_chain_8h.html" target="_top" xlink:title=" ">
<polygon fill="white" stroke="#666666" points="911.75,-188 811,-188 811,-168 911.75,-168 911.75,-188"/>
<text text-anchor="middle" x="861.38" y="-174.5" font-family="Helvetica,sans-Serif" font-size="10.00">VRE_SwapChain.h</text>
</a>
</g>
</g>
<!-- Node1&#45;&gt;Node21 -->
<g id="edge34_Node000001_Node000021" class="edge">
<title>Node1&#45;&gt;Node21</title>
<g id="a_edge34_Node000001_Node000021"><a xlink:title=" ">
<path fill="none" stroke="#63b8ff" d="M740.62,-335.52C792.01,-323.74 863.93,-298.13 898.38,-244 908.54,-228.03 895.13,-209.18 881.7,-195.9"/>
<polygon fill="#63b8ff" stroke="#63b8ff" points="884.4,-193.63 874.67,-189.45 879.67,-198.79 884.4,-193.63"/>
</a>
</g>
</g>
<!-- Node6 -->
<g id="Node000006" class="node">
<title>Node6</title>
<g id="a_Node000006"><a xlink:href="_v_r_e___device_8h.html" target="_top" xlink:title=" ">
<polygon fill="white" stroke="#666666" points="392,-132 310.75,-132 310.75,-112 392,-112 392,-132"/>
<text text-anchor="middle" x="351.38" y="-118.5" font-family="Helvetica,sans-Serif" font-size="10.00">VRE_Device.h</text>
</a>
</g>
</g>
<!-- Node5&#45;&gt;Node6 -->
<g id="edge5_Node000005_Node000006" class="edge">
<title>Node5&#45;&gt;Node6</title>
<g id="a_edge5_Node000005_Node000006"><a xlink:title=" ">
<path fill="none" stroke="#63b8ff" d="M292.1,-279.68C291.83,-258.68 293.21,-206.46 311.38,-168 316.29,-157.59 324.38,-147.8 332.01,-140.04"/>
<polygon fill="#63b8ff" stroke="#63b8ff" points="334.02,-142.95 338.83,-133.51 329.18,-137.89 334.02,-142.95"/>
</a>
</g>
</g>
<!-- Node11 -->
<g id="Node000011" class="node">
<title>Node11</title>
<g id="a_Node000011"><a xlink:href="_v_r_e___buffer_8h.html" target="_top" xlink:title=" ">
<polygon fill="white" stroke="#666666" points="396.38,-188 320.38,-188 320.38,-168 396.38,-168 396.38,-188"/>
<text text-anchor="middle" x="358.38" y="-174.5" font-family="Helvetica,sans-Serif" font-size="10.00">VRE_Buffer.h</text>
</a>
</g>
</g>
<!-- Node5&#45;&gt;Node11 -->
<g id="edge11_Node000005_Node000011" class="edge">
<title>Node5&#45;&gt;Node11</title>
<g id="a_edge11_Node000005_Node000011"><a xlink:title=" ">
<path fill="none" stroke="#63b8ff" d="M298,-279.62C308.82,-261.6 332.69,-221.81 346.96,-198.02"/>
<polygon fill="#63b8ff" stroke="#63b8ff" points="349.84,-200.03 351.98,-189.65 343.84,-196.43 349.84,-200.03"/>
</a>
</g>
</g>
<!-- Node12 -->
<g id="Node000012" class="node">
<title>Node12</title>
<g id="a_Node000012"><a xlink:href="_v_r_e___model_properties_8h.html" target="_top" xlink:title=" ">
<polygon fill="white" stroke="#666666" points="630.88,-244 509.88,-244 509.88,-224 630.88,-224 630.88,-244"/>
<text text-anchor="middle" x="570.38" y="-230.5" font-family="Helvetica,sans-Serif" font-size="10.00">VRE_ModelProperties.h</text>
</a>
</g>
</g>
<!-- Node5&#45;&gt;Node12 -->
<g id="edge13_Node000005_Node000012" class="edge">
<title>Node5&#45;&gt;Node12</title>
<g id="a_edge13_Node000005_Node000012"><a xlink:title=" ">
<path fill="none" stroke="#63b8ff" d="M340.8,-279.59C387.95,-270.44 459.72,-256.49 510.45,-246.64"/>
<polygon fill="#63b8ff" stroke="#63b8ff" points="510.94,-250.11 520.09,-244.77 509.6,-243.24 510.94,-250.11"/>
</a>
</g>
</g>
<!-- Node17 -->
<g id="Node000017" class="node">
<title>Node17</title>
<g id="a_Node000017"><a xlink:href="_v_r_e___pipeline_8h.html" target="_top" xlink:title=" ">
<polygon fill="white" stroke="#666666" points="150.88,-188 65.88,-188 65.88,-168 150.88,-168 150.88,-188"/>
<text text-anchor="middle" x="108.38" y="-174.5" font-family="Helvetica,sans-Serif" font-size="10.00">VRE_Pipeline.h</text>
</a>
</g>
</g>
<!-- Node5&#45;&gt;Node17 -->
<g id="edge22_Node000005_Node000017" class="edge">
<title>Node5&#45;&gt;Node17</title>
<g id="a_edge22_Node000005_Node000017"><a xlink:title=" ">
<path fill="none" stroke="#63b8ff" d="M279.82,-279.62C261.96,-266.46 227.99,-242.11 197.38,-224 178.49,-212.83 156.5,-201.7 139.1,-193.3"/>
<polygon fill="#63b8ff" stroke="#63b8ff" points="140.83,-190.24 130.3,-189.09 137.81,-196.56 140.83,-190.24"/>
</a>
</g>
</g>
<!-- Node18 -->
<g id="Node000018" class="node">
<title>Node18</title>
<g id="a_Node000018"><a xlink:href="_v_r_e___descriptor_8h.html" target="_top" xlink:title=" ">
<polygon fill="white" stroke="#666666" points="264.12,-188 168.62,-188 168.62,-168 264.12,-168 264.12,-188"/>
<text text-anchor="middle" x="216.38" y="-174.5" font-family="Helvetica,sans-Serif" font-size="10.00">VRE_Descriptor.h</text>
</a>
</g>
</g>
<!-- Node5&#45;&gt;Node18 -->
<g id="edge26_Node000005_Node000018" class="edge">
<title>Node5&#45;&gt;Node18</title>
<g id="a_edge26_Node000005_Node000018"><a xlink:title=" ">
<path fill="none" stroke="#63b8ff" d="M285.9,-279.62C273.39,-261.52 245.71,-221.45 229.3,-197.7"/>
<polygon fill="#63b8ff" stroke="#63b8ff" points="232.26,-195.84 223.7,-189.6 226.5,-199.82 232.26,-195.84"/>
</a>
</g>
</g>
<!-- Node19 -->
<g id="Node000019" class="node">
<title>Node19</title>
<g id="a_Node000019"><a xlink:title=" ">
<polygon fill="#e0e0e0" stroke="#999999" points="188.75,-244 130,-244 130,-224 188.75,-224 188.75,-244"/>
<text text-anchor="middle" x="159.38" y="-230.5" font-family="Helvetica,sans-Serif" font-size="10.00">tiny_gltf.h</text>
</a>
</g>
</g>
<!-- Node5&#45;&gt;Node19 -->
<g id="edge31_Node000005_Node000019" class="edge">
<title>Node5&#45;&gt;Node19</title>
<g id="a_edge31_Node000005_Node000019"><a xlink:title=" ">
<path fill="none" stroke="#63b8ff" d="M269.21,-279.59C248.17,-271.05 216.88,-258.35 193.07,-248.68"/>
<polygon fill="#63b8ff" stroke="#63b8ff" points="194.71,-245.57 184.12,-245.05 192.07,-252.05 194.71,-245.57"/>
</a>
</g>
</g>
<!-- Node7 -->
<g id="Node000007" class="node">
<title>Node7</title>
<g id="a_Node000007"><a xlink:href="_v_r_e___window_8h.html" target="_top" xlink:title=" ">
<polygon fill="white" stroke="#666666" points="475.88,-76 390.88,-76 390.88,-56 475.88,-56 475.88,-76"/>
<text text-anchor="middle" x="433.38" y="-62.5" font-family="Helvetica,sans-Serif" font-size="10.00">VRE_Window.h</text>
</a>
</g>
</g>
<!-- Node6&#45;&gt;Node7 -->
<g id="edge6_Node000006_Node000007" class="edge">
<title>Node6&#45;&gt;Node7</title>
<g id="a_edge6_Node000006_Node000007"><a xlink:title=" ">
<path fill="none" stroke="#63b8ff" d="M365.66,-111.59C377.81,-103.59 395.51,-91.93 409.77,-82.54"/>
<polygon fill="#63b8ff" stroke="#63b8ff" points="411.29,-85.73 417.72,-77.31 407.44,-79.89 411.29,-85.73"/>
</a>
</g>
</g>
<!-- Node9 -->
<g id="Node000009" class="node">
<title>Node9</title>
<g id="a_Node000009"><a xlink:title=" ">
<polygon fill="#e0e0e0" stroke="#999999" points="356.38,-20 316.38,-20 316.38,0 356.38,0 356.38,-20"/>
<text text-anchor="middle" x="336.38" y="-6.5" font-family="Helvetica,sans-Serif" font-size="10.00">string</text>
</a>
</g>
</g>
<!-- Node6&#45;&gt;Node9 -->
<g id="edge9_Node000006_Node000009" class="edge">
<title>Node6&#45;&gt;Node9</title>
<g id="a_edge9_Node000006_Node000009"><a xlink:title=" ">
<path fill="none" stroke="#63b8ff" d="M342.3,-111.57C334.78,-103.05 324.66,-89.77 320.38,-76 315.68,-60.89 320.5,-43.47 326.04,-30.47"/>
<polygon fill="#63b8ff" stroke="#63b8ff" points="329.07,-32.25 330.23,-21.72 322.76,-29.23 329.07,-32.25"/>
</a>
</g>
</g>
<!-- Node10 -->
<g id="Node000010" class="node">
<title>Node10</title>
<g id="a_Node000010"><a xlink:title=" ">
<polygon fill="#e0e0e0" stroke="#999999" points="372.88,-76 329.88,-76 329.88,-56 372.88,-56 372.88,-76"/>
<text text-anchor="middle" x="351.38" y="-62.5" font-family="Helvetica,sans-Serif" font-size="10.00">vector</text>
</a>
</g>
</g>
<!-- Node6&#45;&gt;Node10 -->
<g id="edge10_Node000006_Node000010" class="edge">
<title>Node6&#45;&gt;Node10</title>
<g id="a_edge10_Node000006_Node000010"><a xlink:title=" ">
<path fill="none" stroke="#63b8ff" d="M351.38,-111.59C351.38,-105.01 351.38,-95.96 351.38,-87.73"/>
<polygon fill="#63b8ff" stroke="#63b8ff" points="354.88,-87.81 351.38,-77.81 347.88,-87.81 354.88,-87.81"/>
</a>
</g>
</g>
<!-- Node8 -->
<g id="Node000008" class="node">
<title>Node8</title>
<g id="a_Node000008"><a xlink:title=" ">
<polygon fill="#e0e0e0" stroke="#999999" points="457.12,-20 409.62,-20 409.62,0 457.12,0 457.12,-20"/>
<text text-anchor="middle" x="433.38" y="-6.5" font-family="Helvetica,sans-Serif" font-size="10.00">glfw3.h</text>
</a>
</g>
</g>
<!-- Node7&#45;&gt;Node8 -->
<g id="edge7_Node000007_Node000008" class="edge">
<title>Node7&#45;&gt;Node8</title>
<g id="a_edge7_Node000007_Node000008"><a xlink:title=" ">
<path fill="none" stroke="#63b8ff" d="M433.38,-55.59C433.38,-49.01 433.38,-39.96 433.38,-31.73"/>
<polygon fill="#63b8ff" stroke="#63b8ff" points="436.88,-31.81 433.38,-21.81 429.88,-31.81 436.88,-31.81"/>
</a>
</g>
</g>
<!-- Node7&#45;&gt;Node9 -->
<g id="edge8_Node000007_Node000009" class="edge">
<title>Node7&#45;&gt;Node9</title>
<g id="a_edge8_Node000007_Node000009"><a xlink:title=" ">
<path fill="none" stroke="#63b8ff" d="M416.48,-55.59C401.83,-47.44 380.35,-35.48 363.33,-26"/>
<polygon fill="#63b8ff" stroke="#63b8ff" points="365.17,-23.02 354.73,-21.22 361.76,-29.14 365.17,-23.02"/>
</a>
</g>
</g>
<!-- Node11&#45;&gt;Node6 -->
<g id="edge12_Node000011_Node000006" class="edge">
<title>Node11&#45;&gt;Node6</title>
<g id="a_edge12_Node000011_Node000006"><a xlink:title=" ">
<path fill="none" stroke="#63b8ff" d="M357.16,-167.59C356.29,-160.93 355.1,-151.75 354.02,-143.44"/>
<polygon fill="#63b8ff" stroke="#63b8ff" points="357.53,-143.27 352.77,-133.8 350.59,-144.17 357.53,-143.27"/>
</a>
</g>
</g>
<!-- Node12&#45;&gt;Node10 -->
<g id="edge19_Node000012_Node000010" class="edge">
<title>Node12&#45;&gt;Node10</title>
<g id="a_edge19_Node000012_Node000010"><a xlink:title=" ">
<path fill="none" stroke="#63b8ff" d="M586.82,-223.53C606.31,-211.07 634.48,-188.36 620.38,-168 606.28,-147.66 452.39,-98.16 383.91,-76.93"/>
<polygon fill="#63b8ff" stroke="#63b8ff" points="385.34,-73.71 374.75,-74.11 383.27,-80.4 385.34,-73.71"/>
</a>
</g>
</g>
<!-- Node12&#45;&gt;Node11 -->
<g id="edge18_Node000012_Node000011" class="edge">
<title>Node12&#45;&gt;Node11</title>
<g id="a_edge18_Node000012_Node000011"><a xlink:title=" ">
<path fill="none" stroke="#63b8ff" d="M533.45,-223.59C498.25,-214.63 445.05,-201.08 406.54,-191.27"/>
<polygon fill="#63b8ff" stroke="#63b8ff" points="407.61,-187.93 397.06,-188.85 405.88,-194.71 407.61,-187.93"/>
</a>
</g>
</g>
<!-- Node13 -->
<g id="Node000013" class="node">
<title>Node13</title>
<g id="a_Node000013"><a xlink:title=" ">
<polygon fill="#e0e0e0" stroke="#999999" points="821.5,-132 737.25,-132 737.25,-112 821.5,-112 821.5,-132"/>
<text text-anchor="middle" x="779.38" y="-118.5" font-family="Helvetica,sans-Serif" font-size="10.00">vulkan/vulkan.h</text>
</a>
</g>
</g>
<!-- Node12&#45;&gt;Node13 -->
<g id="edge14_Node000012_Node000013" class="edge">
<title>Node12&#45;&gt;Node13</title>
<g id="a_edge14_Node000012_Node000013"><a xlink:title=" ">
<path fill="none" stroke="#63b8ff" d="M588.19,-223.62C624.67,-204.42 708.08,-160.52 751.68,-137.58"/>
<polygon fill="#63b8ff" stroke="#63b8ff" points="753.04,-140.81 760.26,-133.06 749.78,-134.62 753.04,-140.81"/>
</a>
</g>
</g>
<!-- Node14 -->
<g id="Node000014" class="node">
<title>Node14</title>
<g id="a_Node000014"><a xlink:href="_v_r_e___texture_8h.html" target="_top" xlink:title=" ">
<polygon fill="white" stroke="#666666" points="611.75,-188 529,-188 529,-168 611.75,-168 611.75,-188"/>
<text text-anchor="middle" x="570.38" y="-174.5" font-family="Helvetica,sans-Serif" font-size="10.00">VRE_Texture.h</text>
</a>
</g>
</g>
<!-- Node12&#45;&gt;Node14 -->
<g id="edge15_Node000012_Node000014" class="edge">
<title>Node12&#45;&gt;Node14</title>
<g id="a_edge15_Node000012_Node000014"><a xlink:title=" ">
<path fill="none" stroke="#63b8ff" d="M570.38,-223.59C570.38,-217.01 570.38,-207.96 570.38,-199.73"/>
<polygon fill="#63b8ff" stroke="#63b8ff" points="573.88,-199.81 570.38,-189.81 566.88,-199.81 573.88,-199.81"/>
</a>
</g>
</g>
<!-- Node15 -->
<g id="Node000015" class="node">
<title>Node15</title>
<g id="a_Node000015"><a xlink:title=" ">
<polygon fill="#e0e0e0" stroke="#999999" points="755.62,-188 705.12,-188 705.12,-168 755.62,-168 755.62,-188"/>
<text text-anchor="middle" x="730.38" y="-174.5" font-family="Helvetica,sans-Serif" font-size="10.00">glm.hpp</text>
</a>
</g>
</g>
<!-- Node12&#45;&gt;Node15 -->
<g id="edge20_Node000012_Node000015" class="edge">
<title>Node12&#45;&gt;Node15</title>
<g id="a_edge20_Node000012_Node000015"><a xlink:title=" ">
<path fill="none" stroke="#63b8ff" d="M598.24,-223.59C624.84,-214.62 665.05,-201.05 694.13,-191.23"/>
<polygon fill="#63b8ff" stroke="#63b8ff" points="694.88,-194.67 703.24,-188.16 692.65,-188.04 694.88,-194.67"/>
</a>
</g>
</g>
<!-- Node16 -->
<g id="Node000016" class="node">
<title>Node16</title>
<g id="a_Node000016"><a xlink:title=" ">
<polygon fill="#e0e0e0" stroke="#999999" points="510.5,-188 414.25,-188 414.25,-168 510.5,-168 510.5,-188"/>
<text text-anchor="middle" x="462.38" y="-174.5" font-family="Helvetica,sans-Serif" font-size="10.00">gtc/quaternion.hpp</text>
</a>
</g>
</g>
<!-- Node12&#45;&gt;Node16 -->
<g id="edge21_Node000012_Node000016" class="edge">
<title>Node12&#45;&gt;Node16</title>
<g id="a_edge21_Node000012_Node000016"><a xlink:title=" ">
<path fill="none" stroke="#63b8ff" d="M551.56,-223.59C535.02,-215.32 510.66,-203.14 491.58,-193.6"/>
<polygon fill="#63b8ff" stroke="#63b8ff" points="493.2,-190.5 482.69,-189.16 490.07,-196.76 493.2,-190.5"/>
</a>
</g>
</g>
<!-- Node14&#45;&gt;Node2 -->
<g id="edge16_Node000014_Node000002" class="edge">
<title>Node14&#45;&gt;Node2</title>
<g id="a_edge16_Node000014_Node000002"><a xlink:title=" ">
<path fill="none" stroke="#63b8ff" d="M591.8,-167.59C611,-159.17 639.42,-146.69 661.32,-137.07"/>
<polygon fill="#63b8ff" stroke="#63b8ff" points="662.65,-140.31 670.4,-133.09 659.83,-133.9 662.65,-140.31"/>
</a>
</g>
</g>
<!-- Node14&#45;&gt;Node6 -->
<g id="edge17_Node000014_Node000006" class="edge">
<title>Node14&#45;&gt;Node6</title>
<g id="a_edge17_Node000014_Node000006"><a xlink:title=" ">
<path fill="none" stroke="#63b8ff" d="M531.98,-167.53C495.5,-158.54 440.48,-144.97 400.76,-135.18"/>
<polygon fill="#63b8ff" stroke="#63b8ff" points="401.75,-131.82 391.2,-132.82 400.07,-138.61 401.75,-131.82"/>
</a>
</g>
</g>
<!-- Node17&#45;&gt;Node6 -->
<g id="edge25_Node000017_Node000006" class="edge">
<title>Node17&#45;&gt;Node6</title>
<g id="a_edge25_Node000017_Node000006"><a xlink:title=" ">
<path fill="none" stroke="#63b8ff" d="M150.98,-167.53C192.3,-158.35 255.07,-144.4 299.33,-134.57"/>
<polygon fill="#63b8ff" stroke="#63b8ff" points="299.96,-138.01 308.96,-132.43 298.44,-131.18 299.96,-138.01"/>
</a>
</g>
</g>
<!-- Node17&#45;&gt;Node9 -->
<g id="edge23_Node000017_Node000009" class="edge">
<title>Node17&#45;&gt;Node9</title>
<g id="a_edge23_Node000017_Node000009"><a xlink:title=" ">
<path fill="none" stroke="#63b8ff" d="M121.29,-167.6C158.67,-140.38 267.34,-61.26 314.31,-27.06"/>
<polygon fill="#63b8ff" stroke="#63b8ff" points="316.36,-29.9 322.38,-21.19 312.24,-24.24 316.36,-29.9"/>
</a>
</g>
</g>
<!-- Node17&#45;&gt;Node10 -->
<g id="edge24_Node000017_Node000010" class="edge">
<title>Node17&#45;&gt;Node10</title>
<g id="a_edge24_Node000017_Node000010"><a xlink:title=" ">
<path fill="none" stroke="#63b8ff" d="M129.09,-167.62C171.86,-148.26 270.13,-103.78 320.45,-81"/>
<polygon fill="#63b8ff" stroke="#63b8ff" points="321.66,-84.29 329.33,-76.98 318.78,-77.91 321.66,-84.29"/>
</a>
</g>
</g>
<!-- Node18&#45;&gt;Node2 -->
<g id="edge28_Node000018_Node000002" class="edge">
<title>Node18&#45;&gt;Node2</title>
<g id="a_edge28_Node000018_Node000002"><a xlink:title=" ">
<path fill="none" stroke="#63b8ff" d="M264.3,-171.58C359.51,-160.8 570.71,-136.89 656.29,-127.2"/>
<polygon fill="#63b8ff" stroke="#63b8ff" points="656.46,-130.7 666,-126.1 655.67,-123.75 656.46,-130.7"/>
</a>
</g>
</g>
<!-- Node18&#45;&gt;Node3 -->
<g id="edge29_Node000018_Node000003" class="edge">
<title>Node18&#45;&gt;Node3</title>
<g id="a_edge29_Node000018_Node000003"><a xlink:title=" ">
<path fill="none" stroke="#63b8ff" d="M185.89,-167.59C157.34,-158.78 114.43,-145.54 82.78,-135.78"/>
<polygon fill="#63b8ff" stroke="#63b8ff" points="84.13,-132.53 73.54,-132.93 82.07,-139.22 84.13,-132.53"/>
</a>
</g>
</g>
<!-- Node18&#45;&gt;Node6 -->
<g id="edge27_Node000018_Node000006" class="edge">
<title>Node18&#45;&gt;Node6</title>
<g id="a_edge27_Node000018_Node000006"><a xlink:title=" ">
<path fill="none" stroke="#63b8ff" d="M239.89,-167.59C261.25,-159.05 293.01,-146.35 317.17,-136.68"/>
<polygon fill="#63b8ff" stroke="#63b8ff" points="318.29,-140.01 326.27,-133.04 315.69,-133.51 318.29,-140.01"/>
</a>
</g>
</g>
<!-- Node18&#45;&gt;Node10 -->
<g id="edge30_Node000018_Node000010" class="edge">
<title>Node18&#45;&gt;Node10</title>
<g id="a_edge30_Node000018_Node000010"><a xlink:title=" ">
<path fill="none" stroke="#63b8ff" d="M227.89,-167.62C250.8,-148.95 302.39,-106.92 331.11,-83.52"/>
<polygon fill="#63b8ff" stroke="#63b8ff" points="333.18,-86.34 338.72,-77.31 328.76,-80.91 333.18,-86.34"/>
</a>
</g>
</g>
<!-- Node20&#45;&gt;Node15 -->
<g id="edge33_Node000020_Node000015" class="edge">
<title>Node20&#45;&gt;Node15</title>
<g id="a_edge33_Node000020_Node000015"><a xlink:title=" ">
<path fill="none" stroke="#63b8ff" d="M806.35,-223.59C792.58,-215.51 772.47,-203.71 756.4,-194.27"/>
<polygon fill="#63b8ff" stroke="#63b8ff" points="758.23,-191.29 747.83,-189.25 754.68,-197.33 758.23,-191.29"/>
</a>
</g>
</g>
<!-- Node21&#45;&gt;Node2 -->
<g id="edge39_Node000021_Node000002" class="edge">
<title>Node21&#45;&gt;Node2</title>
<g id="a_edge39_Node000021_Node000002"><a xlink:title=" ">
<path fill="none" stroke="#63b8ff" d="M832.11,-167.59C803.73,-158.47 760.58,-144.6 729.94,-134.75"/>
<polygon fill="#63b8ff" stroke="#63b8ff" points="731.31,-131.52 720.71,-131.79 729.16,-138.18 731.31,-131.52"/>
</a>
</g>
</g>
<!-- Node21&#45;&gt;Node6 -->
<g id="edge35_Node000021_Node000006" class="edge">
<title>Node21&#45;&gt;Node6</title>
<g id="a_edge35_Node000021_Node000006"><a xlink:title=" ">
<path fill="none" stroke="#63b8ff" d="M810.61,-171.62C713.4,-161.33 501.93,-138.94 403.59,-128.53"/>
<polygon fill="#63b8ff" stroke="#63b8ff" points="404,-125.05 393.68,-127.48 403.26,-132.01 404,-125.05"/>
</a>
</g>
</g>
<!-- Node21&#45;&gt;Node9 -->
<g id="edge37_Node000021_Node000009" class="edge">
<title>Node21&#45;&gt;Node9</title>
<g id="a_edge37_Node000021_Node000009"><a xlink:title=" ">
<path fill="none" stroke="#63b8ff" d="M863.13,-167.62C865.16,-153.56 866.62,-127.06 852.38,-112 835.39,-94.04 477.66,-34.15 368.03,-16.16"/>
<polygon fill="#63b8ff" stroke="#63b8ff" points="368.7,-12.72 358.27,-14.56 367.57,-19.63 368.7,-12.72"/>
</a>
</g>
</g>
<!-- Node21&#45;&gt;Node10 -->
<g id="edge38_Node000021_Node000010" class="edge">
<title>Node21&#45;&gt;Node10</title>
<g id="a_edge38_Node000021_Node000010"><a xlink:title=" ">
<path fill="none" stroke="#63b8ff" d="M859.89,-167.56C857.05,-152.92 849.32,-125.04 830.38,-112 750.66,-57.13 497.36,-91.98 384.33,-75.97"/>
<polygon fill="#63b8ff" stroke="#63b8ff" points="385.13,-72.55 374.69,-74.38 383.99,-79.46 385.13,-72.55"/>
</a>
</g>
</g>
<!-- Node21&#45;&gt;Node13 -->
<g id="edge36_Node000021_Node000013" class="edge">
<title>Node21&#45;&gt;Node13</title>
<g id="a_edge36_Node000021_Node000013"><a xlink:title=" ">
<path fill="none" stroke="#63b8ff" d="M847.09,-167.59C834.94,-159.59 817.24,-147.93 802.98,-138.54"/>
<polygon fill="#63b8ff" stroke="#63b8ff" points="805.31,-135.89 795.03,-133.31 801.46,-141.73 805.31,-135.89"/>
</a>
</g>
</g>
</g>
</svg>

<g id="navigator" transform="translate(0 0)" fill="#404254">
  <rect fill="#f2f5e9" fill-opacity="0.5" stroke="#606060" stroke-width=".5" x="0" y="0" width="60" height="60"/>
  <use id="zoomplus" xlink:href="#zoomPlus" x="17" y="9" onmousedown="handleZoom(evt,'in')"/>
  <use id="zoomminus" xlink:href="#zoomMin" x="42" y="9" onmousedown="handleZoom(evt,'out')"/>
  <use id="reset" xlink:href="#resetDef" x="30" y="36" onmousedown="handleReset()"/>
   <use id="arrowup" xlink:href="#arrowUp" x="0" y="0" onmousedown="handlePan(0,-1)"/>
  <use id="arrowright" xlink:href="#arrowRight" x="0" y="0" onmousedown="handlePan(1,0)"/>
  <use id="arrowdown" xlink:href="#arrowDown" x="0" y="0" onmousedown="handlePan(0,1)"/>
  <use id="arrowleft" xlink:href="#arrowLeft" x="0" y="0" onmousedown="handlePan(-1,0)"/>
</g>
<svg viewBox="0 0 15 15" width="100%" height="30px" preserveAspectRatio="xMaxYMin meet">
 <g id="arrow_out" transform="scale(0.3 0.3)">
  <a xlink:href="_v_r_e___game_object_8h__incl_org.svg" target="_base">
   <rect id="button" ry="5" rx="5" y="6" x="6" height="38" width="38"
        fill="#f2f5e9" fill-opacity="0.5" stroke="#606060" stroke-width="1.0"/>
   <path id="arrow"
     d="M 11.500037,31.436501 C 11.940474,20.09759 22.043105,11.32322 32.158766,21.979434 L 37.068811,17.246167 C 37.068811,17.246167 37.088388,32 37.088388,32 L 22.160133,31.978069 C 22.160133,31.978069 26.997745,27.140456 26.997745,27.140456 C 18.528582,18.264221 13.291696,25.230495 11.500037,31.436501 z"
     style="fill:#404040;"/>
  </a>
 </g>
</svg>

<style type='text/css'>
<![CDATA[
[data-mouse-over-selected='false'] { opacity: 0.7; }
[data-mouse-over-selected='true']  { opacity: 1.0; }
]]>
</style>
<script type="application/ecmascript"><![CDATA[
document.addEventListener('DOMContentLoaded', (event) => {
  highlightEdges();
  highlightAdjacentNodes();
});
]]></script>
</svg>
