<?xml version="1.0" encoding="UTF-8" standalone="no"?>
<!DOCTYPE svg PUBLIC "-//W3C//DTD SVG 1.1//EN"
 "http://www.w3.org/Graphics/SVG/1.1/DTD/svg11.dtd">
<!-- Generated by graphviz version 12.1.2 (20240928.0832)
 -->
<!-- Title: ReSTIRVulkan/VRE_GameObject.cpp Pages: 1 -->
<svg width="1300pt" height="532pt"
 viewBox="0.00 0.00 1300.00 532.00" xmlns="http://www.w3.org/2000/svg" xmlns:xlink="http://www.w3.org/1999/xlink">
<g id="graph0" class="graph" transform="scale(1 1) rotate(0) translate(4 528)">
<title>ReSTIRVulkan/VRE_GameObject.cpp</title>
<!-- Node1 -->
<g id="Node000001" class="node">
<title>Node1</title>
<g id="a_Node000001"><a xlink:title=" ">
<polygon fill="#999999" stroke="#666666" points="1162.12,-524 978.88,-524 978.88,-504 1162.12,-504 1162.12,-524"/>
<text text-anchor="middle" x="1070.5" y="-510.5" font-family="Helvetica,sans-Serif" font-size="10.00">ReSTIRVulkan/VRE_GameObject.cpp</text>
</a>
</g>
</g>
<!-- Node2 -->
<g id="Node000002" class="node">
<title>Node2</title>
<g id="a_Node000002"><a xlink:href="_v_r_e___game_object_8h.html" target="_top" xlink:title=" ">
<polygon fill="white" stroke="#666666" points="784.12,-356 678.88,-356 678.88,-336 784.12,-336 784.12,-356"/>
<text text-anchor="middle" x="731.5" y="-342.5" font-family="Helvetica,sans-Serif" font-size="10.00">VRE_GameObject.h</text>
</a>
</g>
</g>
<!-- Node1&#45;&gt;Node2 -->
<g id="edge1_Node000001_Node000002" class="edge">
<title>Node1&#45;&gt;Node2</title>
<g id="a_edge1_Node000001_Node000002"><a xlink:title=" ">
<path fill="none" stroke="#63b8ff" d="M1081.14,-503.5C1094.74,-490.2 1115.01,-465.69 1101.5,-448 1064.56,-399.63 891.68,-368.83 795.87,-355.18"/>
<polygon fill="#63b8ff" stroke="#63b8ff" points="796.46,-351.73 786.08,-353.81 795.49,-358.66 796.46,-351.73"/>
</a>
</g>
</g>
<!-- Node23 -->
<g id="Node000023" class="node">
<title>Node23</title>
<g id="a_Node000023"><a xlink:href="_v_r_e___game_object_manager_8h.html" target="_top" xlink:title=" ">
<polygon fill="white" stroke="#666666" points="1092.88,-468 950.12,-468 950.12,-448 1092.88,-448 1092.88,-468"/>
<text text-anchor="middle" x="1021.5" y="-454.5" font-family="Helvetica,sans-Serif" font-size="10.00">VRE_GameObjectManager.h</text>
</a>
</g>
</g>
<!-- Node1&#45;&gt;Node23 -->
<g id="edge41_Node000001_Node000023" class="edge">
<title>Node1&#45;&gt;Node23</title>
<g id="a_edge41_Node000001_Node000023"><a xlink:title=" ">
<path fill="none" stroke="#63b8ff" d="M1061.96,-503.59C1055.22,-496.16 1045.61,-485.58 1037.46,-476.58"/>
<polygon fill="#63b8ff" stroke="#63b8ff" points="1040.27,-474.47 1030.95,-469.42 1035.08,-479.18 1040.27,-474.47"/>
</a>
</g>
</g>
<!-- Node3 -->
<g id="Node000003" class="node">
<title>Node3</title>
<g id="a_Node000003"><a xlink:title=" ">
<polygon fill="#e0e0e0" stroke="#999999" points="465.12,-132 413.88,-132 413.88,-112 465.12,-112 465.12,-132"/>
<text text-anchor="middle" x="439.5" y="-118.5" font-family="Helvetica,sans-Serif" font-size="10.00">memory</text>
</a>
</g>
</g>
<!-- Node2&#45;&gt;Node3 -->
<g id="edge2_Node000002_Node000003" class="edge">
<title>Node2&#45;&gt;Node3</title>
<g id="a_edge2_Node000002_Node000003"><a xlink:title=" ">
<path fill="none" stroke="#63b8ff" d="M692.46,-335.51C644.14,-322.1 561.63,-293.54 507.5,-244 476.36,-215.5 456,-169.35 446.24,-143.05"/>
<polygon fill="#63b8ff" stroke="#63b8ff" points="449.65,-142.18 443.01,-133.92 443.05,-144.51 449.65,-142.18"/>
</a>
</g>
</g>
<!-- Node4 -->
<g id="Node000004" class="node">
<title>Node4</title>
<g id="a_Node000004"><a xlink:title=" ">
<polygon fill="#e0e0e0" stroke="#999999" points="696.88,-188 614.12,-188 614.12,-168 696.88,-168 696.88,-188"/>
<text text-anchor="middle" x="655.5" y="-174.5" font-family="Helvetica,sans-Serif" font-size="10.00">unordered_map</text>
</a>
</g>
</g>
<!-- Node2&#45;&gt;Node4 -->
<g id="edge3_Node000002_Node000004" class="edge">
<title>Node2&#45;&gt;Node4</title>
<g id="a_edge3_Node000002_Node000004"><a xlink:title=" ">
<path fill="none" stroke="#63b8ff" d="M713.31,-335.53C700.32,-327.78 683.6,-315.56 674.5,-300 656.13,-268.58 653.83,-225.08 654.32,-199.71"/>
<polygon fill="#63b8ff" stroke="#63b8ff" points="657.82,-199.89 654.71,-189.76 650.82,-199.62 657.82,-199.89"/>
</a>
</g>
</g>
<!-- Node5 -->
<g id="Node000005" class="node">
<title>Node5</title>
<g id="a_Node000005"><a xlink:title=" ">
<polygon fill="#e0e0e0" stroke="#999999" points="922.88,-300 798.12,-300 798.12,-280 922.88,-280 922.88,-300"/>
<text text-anchor="middle" x="860.5" y="-286.5" font-family="Helvetica,sans-Serif" font-size="10.00">gtc/matrix_transform.hpp</text>
</a>
</g>
</g>
<!-- Node2&#45;&gt;Node5 -->
<g id="edge4_Node000002_Node000005" class="edge">
<title>Node2&#45;&gt;Node5</title>
<g id="a_edge4_Node000002_Node000005"><a xlink:title=" ">
<path fill="none" stroke="#63b8ff" d="M753.97,-335.59C774.29,-327.09 804.45,-314.46 827.51,-304.81"/>
<polygon fill="#63b8ff" stroke="#63b8ff" points="828.59,-308.15 836.46,-301.06 825.88,-301.7 828.59,-308.15"/>
</a>
</g>
</g>
<!-- Node6 -->
<g id="Node000006" class="node">
<title>Node6</title>
<g id="a_Node000006"><a xlink:href="_v_r_e__gl_t_f_model_8h.html" target="_top" xlink:title=" ">
<polygon fill="white" stroke="#666666" points="779.62,-300 683.38,-300 683.38,-280 779.62,-280 779.62,-300"/>
<text text-anchor="middle" x="731.5" y="-286.5" font-family="Helvetica,sans-Serif" font-size="10.00">VRE_glTFModel.h</text>
</a>
</g>
</g>
<!-- Node2&#45;&gt;Node6 -->
<g id="edge5_Node000002_Node000006" class="edge">
<title>Node2&#45;&gt;Node6</title>
<g id="a_edge5_Node000002_Node000006"><a xlink:title=" ">
<path fill="none" stroke="#63b8ff" d="M731.5,-335.59C731.5,-329.01 731.5,-319.96 731.5,-311.73"/>
<polygon fill="#63b8ff" stroke="#63b8ff" points="735,-311.81 731.5,-301.81 728,-311.81 735,-311.81"/>
</a>
</g>
</g>
<!-- Node21 -->
<g id="Node000021" class="node">
<title>Node21</title>
<g id="a_Node000021"><a xlink:href="_v_r_e___object_components_8h.html" target="_top" xlink:title=" ">
<polygon fill="white" stroke="#666666" points="1075.75,-300 941.25,-300 941.25,-280 1075.75,-280 1075.75,-300"/>
<text text-anchor="middle" x="1008.5" y="-286.5" font-family="Helvetica,sans-Serif" font-size="10.00">VRE_ObjectComponents.h</text>
</a>
</g>
</g>
<!-- Node2&#45;&gt;Node21 -->
<g id="edge33_Node000002_Node000021" class="edge">
<title>Node2&#45;&gt;Node21</title>
<g id="a_edge33_Node000002_Node000021"><a xlink:title=" ">
<path fill="none" stroke="#63b8ff" d="M780.07,-335.53C827.09,-326.36 898.49,-312.45 948.92,-302.61"/>
<polygon fill="#63b8ff" stroke="#63b8ff" points="949.36,-306.1 958.5,-300.75 948.02,-299.22 949.36,-306.1"/>
</a>
</g>
</g>
<!-- Node22 -->
<g id="Node000022" class="node">
<title>Node22</title>
<g id="a_Node000022"><a xlink:href="_v_r_e___swap_chain_8h.html" target="_top" xlink:title=" ">
<polygon fill="white" stroke="#666666" points="254.88,-188 154.12,-188 154.12,-168 254.88,-168 254.88,-188"/>
<text text-anchor="middle" x="204.5" y="-174.5" font-family="Helvetica,sans-Serif" font-size="10.00">VRE_SwapChain.h</text>
</a>
</g>
</g>
<!-- Node2&#45;&gt;Node22 -->
<g id="edge35_Node000002_Node000022" class="edge">
<title>Node2&#45;&gt;Node22</title>
<g id="a_edge35_Node000002_Node000022"><a xlink:title=" ">
<path fill="none" stroke="#63b8ff" d="M678.4,-340.7C622.63,-335.16 532.86,-323.33 458.5,-300 370.7,-272.46 274.56,-219.92 229.91,-194.1"/>
<polygon fill="#63b8ff" stroke="#63b8ff" points="231.91,-191.21 221.51,-189.19 228.38,-197.25 231.91,-191.21"/>
</a>
</g>
</g>
<!-- Node7 -->
<g id="Node000007" class="node">
<title>Node7</title>
<g id="a_Node000007"><a xlink:href="_v_r_e___device_8h.html" target="_top" xlink:title=" ">
<polygon fill="white" stroke="#666666" points="658.12,-132 576.88,-132 576.88,-112 658.12,-112 658.12,-132"/>
<text text-anchor="middle" x="617.5" y="-118.5" font-family="Helvetica,sans-Serif" font-size="10.00">VRE_Device.h</text>
</a>
</g>
</g>
<!-- Node6&#45;&gt;Node7 -->
<g id="edge6_Node000006_Node000007" class="edge">
<title>Node6&#45;&gt;Node7</title>
<g id="a_edge6_Node000006_Node000007"><a xlink:title=" ">
<path fill="none" stroke="#63b8ff" d="M732.05,-279.71C732.84,-257.86 731.93,-202.42 705.5,-168 694.53,-153.71 677.75,-143.57 661.78,-136.58"/>
<polygon fill="#63b8ff" stroke="#63b8ff" points="663.45,-133.49 652.87,-133 660.84,-139.98 663.45,-133.49"/>
</a>
</g>
</g>
<!-- Node12 -->
<g id="Node000012" class="node">
<title>Node12</title>
<g id="a_Node000012"><a xlink:href="_v_r_e___buffer_8h.html" target="_top" xlink:title=" ">
<polygon fill="white" stroke="#666666" points="1112.5,-188 1036.5,-188 1036.5,-168 1112.5,-168 1112.5,-188"/>
<text text-anchor="middle" x="1074.5" y="-174.5" font-family="Helvetica,sans-Serif" font-size="10.00">VRE_Buffer.h</text>
</a>
</g>
</g>
<!-- Node6&#45;&gt;Node12 -->
<g id="edge12_Node000006_Node000012" class="edge">
<title>Node6&#45;&gt;Node12</title>
<g id="a_edge12_Node000006_Node000012"><a xlink:title=" ">
<path fill="none" stroke="#63b8ff" d="M779.87,-281.49C853.86,-269.91 987.7,-248.55 997.5,-244 1021.91,-232.68 1044.78,-211.5 1059.16,-196.39"/>
<polygon fill="#63b8ff" stroke="#63b8ff" points="1061.36,-199.16 1065.56,-189.43 1056.21,-194.42 1061.36,-199.16"/>
</a>
</g>
</g>
<!-- Node13 -->
<g id="Node000013" class="node">
<title>Node13</title>
<g id="a_Node000013"><a xlink:href="_v_r_e___model_properties_8h.html" target="_top" xlink:title=" ">
<polygon fill="white" stroke="#666666" points="988,-244 867,-244 867,-224 988,-224 988,-244"/>
<text text-anchor="middle" x="927.5" y="-230.5" font-family="Helvetica,sans-Serif" font-size="10.00">VRE_ModelProperties.h</text>
</a>
</g>
</g>
<!-- Node6&#45;&gt;Node13 -->
<g id="edge14_Node000006_Node000013" class="edge">
<title>Node6&#45;&gt;Node13</title>
<g id="a_edge14_Node000006_Node000013"><a xlink:title=" ">
<path fill="none" stroke="#63b8ff" d="M765.64,-279.59C797.9,-270.71 846.52,-257.31 882.05,-247.52"/>
<polygon fill="#63b8ff" stroke="#63b8ff" points="882.92,-250.91 891.63,-244.88 881.06,-244.16 882.92,-250.91"/>
</a>
</g>
</g>
<!-- Node18 -->
<g id="Node000018" class="node">
<title>Node18</title>
<g id="a_Node000018"><a xlink:href="_v_r_e___pipeline_8h.html" target="_top" xlink:title=" ">
<polygon fill="white" stroke="#666666" points="1292,-188 1207,-188 1207,-168 1292,-168 1292,-188"/>
<text text-anchor="middle" x="1249.5" y="-174.5" font-family="Helvetica,sans-Serif" font-size="10.00">VRE_Pipeline.h</text>
</a>
</g>
</g>
<!-- Node6&#45;&gt;Node18 -->
<g id="edge23_Node000006_Node000018" class="edge">
<title>Node6&#45;&gt;Node18</title>
<g id="a_edge23_Node000006_Node000018"><a xlink:title=" ">
<path fill="none" stroke="#63b8ff" d="M779.92,-281.47C783.16,-280.97 786.38,-280.48 789.5,-280 894.81,-263.83 922.46,-266.96 1026.5,-244 1092.07,-229.53 1166.68,-206.39 1210.84,-191.97"/>
<polygon fill="#63b8ff" stroke="#63b8ff" points="1211.8,-195.34 1220.21,-188.89 1209.62,-188.69 1211.8,-195.34"/>
</a>
</g>
</g>
<!-- Node19 -->
<g id="Node000019" class="node">
<title>Node19</title>
<g id="a_Node000019"><a xlink:href="_v_r_e___descriptor_8h.html" target="_top" xlink:title=" ">
<polygon fill="white" stroke="#666666" points="612.25,-244 516.75,-244 516.75,-224 612.25,-224 612.25,-244"/>
<text text-anchor="middle" x="564.5" y="-230.5" font-family="Helvetica,sans-Serif" font-size="10.00">VRE_Descriptor.h</text>
</a>
</g>
</g>
<!-- Node6&#45;&gt;Node19 -->
<g id="edge27_Node000006_Node000019" class="edge">
<title>Node6&#45;&gt;Node19</title>
<g id="a_edge27_Node000006_Node000019"><a xlink:title=" ">
<path fill="none" stroke="#63b8ff" d="M702.41,-279.59C675.28,-270.82 634.57,-257.66 604.41,-247.9"/>
<polygon fill="#63b8ff" stroke="#63b8ff" points="605.85,-244.69 595.26,-244.95 603.69,-251.35 605.85,-244.69"/>
</a>
</g>
</g>
<!-- Node20 -->
<g id="Node000020" class="node">
<title>Node20</title>
<g id="a_Node000020"><a xlink:title=" ">
<polygon fill="#e0e0e0" stroke="#999999" points="810.88,-244 752.12,-244 752.12,-224 810.88,-224 810.88,-244"/>
<text text-anchor="middle" x="781.5" y="-230.5" font-family="Helvetica,sans-Serif" font-size="10.00">tiny_gltf.h</text>
</a>
</g>
</g>
<!-- Node6&#45;&gt;Node20 -->
<g id="edge32_Node000006_Node000020" class="edge">
<title>Node6&#45;&gt;Node20</title>
<g id="a_edge32_Node000006_Node000020"><a xlink:title=" ">
<path fill="none" stroke="#63b8ff" d="M740.21,-279.59C747.09,-272.16 756.89,-261.58 765.22,-252.58"/>
<polygon fill="#63b8ff" stroke="#63b8ff" points="767.64,-255.12 771.86,-245.41 762.5,-250.37 767.64,-255.12"/>
</a>
</g>
</g>
<!-- Node8 -->
<g id="Node000008" class="node">
<title>Node8</title>
<g id="a_Node000008"><a xlink:href="_v_r_e___window_8h.html" target="_top" xlink:title=" ">
<polygon fill="white" stroke="#666666" points="85,-76 0,-76 0,-56 85,-56 85,-76"/>
<text text-anchor="middle" x="42.5" y="-62.5" font-family="Helvetica,sans-Serif" font-size="10.00">VRE_Window.h</text>
</a>
</g>
</g>
<!-- Node7&#45;&gt;Node8 -->
<g id="edge7_Node000007_Node000008" class="edge">
<title>Node7&#45;&gt;Node8</title>
<g id="a_edge7_Node000007_Node000008"><a xlink:title=" ">
<path fill="none" stroke="#63b8ff" d="M576.61,-117.16C474.91,-107.61 210.55,-82.78 96.34,-72.06"/>
<polygon fill="#63b8ff" stroke="#63b8ff" points="96.91,-68.59 86.63,-71.14 96.26,-75.56 96.91,-68.59"/>
</a>
</g>
</g>
<!-- Node10 -->
<g id="Node000010" class="node">
<title>Node10</title>
<g id="a_Node000010"><a xlink:title=" ">
<polygon fill="#e0e0e0" stroke="#999999" points="382.5,-20 342.5,-20 342.5,0 382.5,0 382.5,-20"/>
<text text-anchor="middle" x="362.5" y="-6.5" font-family="Helvetica,sans-Serif" font-size="10.00">string</text>
</a>
</g>
</g>
<!-- Node7&#45;&gt;Node10 -->
<g id="edge10_Node000007_Node000010" class="edge">
<title>Node7&#45;&gt;Node10</title>
<g id="a_edge10_Node000007_Node000010"><a xlink:title=" ">
<path fill="none" stroke="#63b8ff" d="M615.53,-111.81C611.97,-97.51 603.03,-70.1 584.5,-56 554.9,-33.47 447.8,-19.66 393.92,-13.99"/>
<polygon fill="#63b8ff" stroke="#63b8ff" points="394.47,-10.53 384.17,-13 393.76,-17.49 394.47,-10.53"/>
</a>
</g>
</g>
<!-- Node11 -->
<g id="Node000011" class="node">
<title>Node11</title>
<g id="a_Node000011"><a xlink:title=" ">
<polygon fill="#e0e0e0" stroke="#999999" points="575,-76 532,-76 532,-56 575,-56 575,-76"/>
<text text-anchor="middle" x="553.5" y="-62.5" font-family="Helvetica,sans-Serif" font-size="10.00">vector</text>
</a>
</g>
</g>
<!-- Node7&#45;&gt;Node11 -->
<g id="edge11_Node000007_Node000011" class="edge">
<title>Node7&#45;&gt;Node11</title>
<g id="a_edge11_Node000007_Node000011"><a xlink:title=" ">
<path fill="none" stroke="#63b8ff" d="M606.35,-111.59C597.17,-103.85 583.95,-92.69 573.02,-83.47"/>
<polygon fill="#63b8ff" stroke="#63b8ff" points="575.58,-81.05 565.68,-77.27 571.06,-86.4 575.58,-81.05"/>
</a>
</g>
</g>
<!-- Node9 -->
<g id="Node000009" class="node">
<title>Node9</title>
<g id="a_Node000009"><a xlink:title=" ">
<polygon fill="#e0e0e0" stroke="#999999" points="66.25,-20 18.75,-20 18.75,0 66.25,0 66.25,-20"/>
<text text-anchor="middle" x="42.5" y="-6.5" font-family="Helvetica,sans-Serif" font-size="10.00">glfw3.h</text>
</a>
</g>
</g>
<!-- Node8&#45;&gt;Node9 -->
<g id="edge8_Node000008_Node000009" class="edge">
<title>Node8&#45;&gt;Node9</title>
<g id="a_edge8_Node000008_Node000009"><a xlink:title=" ">
<path fill="none" stroke="#63b8ff" d="M42.5,-55.59C42.5,-49.01 42.5,-39.96 42.5,-31.73"/>
<polygon fill="#63b8ff" stroke="#63b8ff" points="46,-31.81 42.5,-21.81 39,-31.81 46,-31.81"/>
</a>
</g>
</g>
<!-- Node8&#45;&gt;Node10 -->
<g id="edge9_Node000008_Node000010" class="edge">
<title>Node8&#45;&gt;Node10</title>
<g id="a_edge9_Node000008_Node000010"><a xlink:title=" ">
<path fill="none" stroke="#63b8ff" d="M85.32,-57.77C150.51,-46.77 273.15,-26.08 330.9,-16.33"/>
<polygon fill="#63b8ff" stroke="#63b8ff" points="331.42,-19.79 340.7,-14.68 330.26,-12.89 331.42,-19.79"/>
</a>
</g>
</g>
<!-- Node12&#45;&gt;Node7 -->
<g id="edge13_Node000012_Node000007" class="edge">
<title>Node12&#45;&gt;Node7</title>
<g id="a_edge13_Node000012_Node000007"><a xlink:title=" ">
<path fill="none" stroke="#63b8ff" d="M1036.07,-169.38C1033.17,-168.89 1030.29,-168.42 1027.5,-168 899.53,-148.76 747.91,-134.26 669.81,-127.39"/>
<polygon fill="#63b8ff" stroke="#63b8ff" points="670.15,-123.91 659.88,-126.53 669.54,-130.88 670.15,-123.91"/>
</a>
</g>
</g>
<!-- Node13&#45;&gt;Node11 -->
<g id="edge20_Node000013_Node000011" class="edge">
<title>Node13&#45;&gt;Node11</title>
<g id="a_edge20_Node000013_Node000011"><a xlink:title=" ">
<path fill="none" stroke="#63b8ff" d="M988.45,-227.06C1038.96,-220.74 1105.05,-208.71 1121.5,-188 1127.03,-181.04 1127.21,-174.81 1121.5,-168 1052.29,-85.4 698.12,-70.3 586.94,-67.58"/>
<polygon fill="#63b8ff" stroke="#63b8ff" points="587.07,-64.09 577,-67.36 586.92,-71.09 587.07,-64.09"/>
</a>
</g>
</g>
<!-- Node13&#45;&gt;Node12 -->
<g id="edge19_Node000013_Node000012" class="edge">
<title>Node13&#45;&gt;Node12</title>
<g id="a_edge19_Node000013_Node000012"><a xlink:title=" ">
<path fill="none" stroke="#63b8ff" d="M953.11,-223.59C976.57,-214.97 1011.57,-202.12 1037.97,-192.42"/>
<polygon fill="#63b8ff" stroke="#63b8ff" points="1039.09,-195.73 1047.27,-189 1036.68,-189.16 1039.09,-195.73"/>
</a>
</g>
</g>
<!-- Node14 -->
<g id="Node000014" class="node">
<title>Node14</title>
<g id="a_Node000014"><a xlink:title=" ">
<polygon fill="#e0e0e0" stroke="#999999" points="362.62,-132 278.38,-132 278.38,-112 362.62,-112 362.62,-132"/>
<text text-anchor="middle" x="320.5" y="-118.5" font-family="Helvetica,sans-Serif" font-size="10.00">vulkan/vulkan.h</text>
</a>
</g>
</g>
<!-- Node13&#45;&gt;Node14 -->
<g id="edge15_Node000013_Node000014" class="edge">
<title>Node13&#45;&gt;Node14</title>
<g id="a_edge15_Node000013_Node000014"><a xlink:title=" ">
<path fill="none" stroke="#63b8ff" d="M866.72,-226.08C801.79,-218.31 696,-204.61 605.5,-188 521.44,-172.57 424.65,-149.31 368.25,-135.2"/>
<polygon fill="#63b8ff" stroke="#63b8ff" points="369.2,-131.84 358.65,-132.79 367.5,-138.62 369.2,-131.84"/>
</a>
</g>
</g>
<!-- Node15 -->
<g id="Node000015" class="node">
<title>Node15</title>
<g id="a_Node000015"><a xlink:href="_v_r_e___texture_8h.html" target="_top" xlink:title=" ">
<polygon fill="white" stroke="#666666" points="903.88,-188 821.12,-188 821.12,-168 903.88,-168 903.88,-188"/>
<text text-anchor="middle" x="862.5" y="-174.5" font-family="Helvetica,sans-Serif" font-size="10.00">VRE_Texture.h</text>
</a>
</g>
</g>
<!-- Node13&#45;&gt;Node15 -->
<g id="edge16_Node000013_Node000015" class="edge">
<title>Node13&#45;&gt;Node15</title>
<g id="a_edge16_Node000013_Node000015"><a xlink:title=" ">
<path fill="none" stroke="#63b8ff" d="M916.18,-223.59C906.86,-215.85 893.42,-204.69 882.32,-195.47"/>
<polygon fill="#63b8ff" stroke="#63b8ff" points="884.79,-192.96 874.86,-189.27 880.31,-198.35 884.79,-192.96"/>
</a>
</g>
</g>
<!-- Node16 -->
<g id="Node000016" class="node">
<title>Node16</title>
<g id="a_Node000016"><a xlink:title=" ">
<polygon fill="#e0e0e0" stroke="#999999" points="802.75,-188 752.25,-188 752.25,-168 802.75,-168 802.75,-188"/>
<text text-anchor="middle" x="777.5" y="-174.5" font-family="Helvetica,sans-Serif" font-size="10.00">glm.hpp</text>
</a>
</g>
</g>
<!-- Node13&#45;&gt;Node16 -->
<g id="edge21_Node000013_Node000016" class="edge">
<title>Node13&#45;&gt;Node16</title>
<g id="a_edge21_Node000013_Node000016"><a xlink:title=" ">
<path fill="none" stroke="#63b8ff" d="M901.37,-223.59C877.03,-214.83 840.51,-201.68 813.43,-191.93"/>
<polygon fill="#63b8ff" stroke="#63b8ff" points="814.85,-188.73 804.25,-188.63 812.48,-195.31 814.85,-188.73"/>
</a>
</g>
</g>
<!-- Node17 -->
<g id="Node000017" class="node">
<title>Node17</title>
<g id="a_Node000017"><a xlink:title=" ">
<polygon fill="#e0e0e0" stroke="#999999" points="1018.62,-188 922.38,-188 922.38,-168 1018.62,-168 1018.62,-188"/>
<text text-anchor="middle" x="970.5" y="-174.5" font-family="Helvetica,sans-Serif" font-size="10.00">gtc/quaternion.hpp</text>
</a>
</g>
</g>
<!-- Node13&#45;&gt;Node17 -->
<g id="edge22_Node000013_Node000017" class="edge">
<title>Node13&#45;&gt;Node17</title>
<g id="a_edge22_Node000013_Node000017"><a xlink:title=" ">
<path fill="none" stroke="#63b8ff" d="M934.99,-223.59C940.79,-216.32 948.99,-206.02 956.05,-197.15"/>
<polygon fill="#63b8ff" stroke="#63b8ff" points="958.66,-199.49 962.15,-189.48 953.19,-195.12 958.66,-199.49"/>
</a>
</g>
</g>
<!-- Node15&#45;&gt;Node3 -->
<g id="edge17_Node000015_Node000003" class="edge">
<title>Node15&#45;&gt;Node3</title>
<g id="a_edge17_Node000015_Node000003"><a xlink:title=" ">
<path fill="none" stroke="#63b8ff" d="M820.78,-169.45C817.64,-168.94 814.52,-168.45 811.5,-168 689.18,-149.82 543.41,-133.83 476.46,-126.8"/>
<polygon fill="#63b8ff" stroke="#63b8ff" points="477.09,-123.35 466.78,-125.79 476.36,-130.31 477.09,-123.35"/>
</a>
</g>
</g>
<!-- Node15&#45;&gt;Node7 -->
<g id="edge18_Node000015_Node000007" class="edge">
<title>Node15&#45;&gt;Node7</title>
<g id="a_edge18_Node000015_Node000007"><a xlink:title=" ">
<path fill="none" stroke="#63b8ff" d="M820.66,-167.78C778.83,-158.56 714.41,-144.36 669.36,-134.43"/>
<polygon fill="#63b8ff" stroke="#63b8ff" points="670.35,-131.06 659.83,-132.33 668.84,-137.9 670.35,-131.06"/>
</a>
</g>
</g>
<!-- Node18&#45;&gt;Node7 -->
<g id="edge26_Node000018_Node000007" class="edge">
<title>Node18&#45;&gt;Node7</title>
<g id="a_edge26_Node000018_Node000007"><a xlink:title=" ">
<path fill="none" stroke="#63b8ff" d="M1206.6,-169.86C1201.85,-169.18 1197.08,-168.54 1192.5,-168 1000.47,-145.36 770.97,-131.27 669.8,-125.71"/>
<polygon fill="#63b8ff" stroke="#63b8ff" points="670.08,-122.22 659.9,-125.18 669.7,-129.21 670.08,-122.22"/>
</a>
</g>
</g>
<!-- Node18&#45;&gt;Node10 -->
<g id="edge24_Node000018_Node000010" class="edge">
<title>Node18&#45;&gt;Node10</title>
<g id="a_edge24_Node000018_Node000010"><a xlink:title=" ">
<path fill="none" stroke="#63b8ff" d="M1243.77,-167.52C1234.3,-152.82 1213.9,-124.88 1188.5,-112 1045.28,-39.36 527.91,-16.71 394.21,-12.01"/>
<polygon fill="#63b8ff" stroke="#63b8ff" points="394.46,-8.52 384.35,-11.68 394.22,-15.52 394.46,-8.52"/>
</a>
</g>
</g>
<!-- Node18&#45;&gt;Node11 -->
<g id="edge25_Node000018_Node000011" class="edge">
<title>Node18&#45;&gt;Node11</title>
<g id="a_edge25_Node000018_Node000011"><a xlink:title=" ">
<path fill="none" stroke="#63b8ff" d="M1239.68,-167.6C1223.46,-152.73 1189.39,-124.24 1154.5,-112 1048.39,-74.78 696.78,-68.34 586.73,-67.23"/>
<polygon fill="#63b8ff" stroke="#63b8ff" points="586.94,-63.73 576.91,-67.14 586.88,-70.73 586.94,-63.73"/>
</a>
</g>
</g>
<!-- Node19&#45;&gt;Node3 -->
<g id="edge29_Node000019_Node000003" class="edge">
<title>Node19&#45;&gt;Node3</title>
<g id="a_edge29_Node000019_Node000003"><a xlink:title=" ">
<path fill="none" stroke="#63b8ff" d="M553.84,-223.62C532.72,-205.03 485.27,-163.28 458.62,-139.82"/>
<polygon fill="#63b8ff" stroke="#63b8ff" points="461.09,-137.33 451.27,-133.35 456.46,-142.59 461.09,-137.33"/>
</a>
</g>
</g>
<!-- Node19&#45;&gt;Node4 -->
<g id="edge30_Node000019_Node000004" class="edge">
<title>Node19&#45;&gt;Node4</title>
<g id="a_edge30_Node000019_Node000004"><a xlink:title=" ">
<path fill="none" stroke="#63b8ff" d="M580.35,-223.59C593.97,-215.51 613.86,-203.71 629.76,-194.27"/>
<polygon fill="#63b8ff" stroke="#63b8ff" points="631.41,-197.37 638.22,-189.25 627.84,-191.35 631.41,-197.37"/>
</a>
</g>
</g>
<!-- Node19&#45;&gt;Node7 -->
<g id="edge28_Node000019_Node000007" class="edge">
<title>Node19&#45;&gt;Node7</title>
<g id="a_edge28_Node000019_Node000007"><a xlink:title=" ">
<path fill="none" stroke="#63b8ff" d="M569.02,-223.62C577.62,-205.76 596.53,-166.53 608.02,-142.67"/>
<polygon fill="#63b8ff" stroke="#63b8ff" points="611.15,-144.25 612.34,-133.72 604.84,-141.21 611.15,-144.25"/>
</a>
</g>
</g>
<!-- Node19&#45;&gt;Node11 -->
<g id="edge31_Node000019_Node000011" class="edge">
<title>Node19&#45;&gt;Node11</title>
<g id="a_edge31_Node000019_Node000011"><a xlink:title=" ">
<path fill="none" stroke="#63b8ff" d="M563.88,-223.6C562.15,-197.46 557.24,-123.48 554.85,-87.36"/>
<polygon fill="#63b8ff" stroke="#63b8ff" points="558.37,-87.55 554.22,-77.81 551.39,-88.02 558.37,-87.55"/>
</a>
</g>
</g>
<!-- Node21&#45;&gt;Node16 -->
<g id="edge34_Node000021_Node000016" class="edge">
<title>Node21&#45;&gt;Node16</title>
<g id="a_edge34_Node000021_Node000016"><a xlink:title=" ">
<path fill="none" stroke="#63b8ff" d="M960.4,-279.55C930.04,-272.4 890.63,-260.88 858.5,-244 834.22,-231.24 810.19,-210.69 794.69,-196.11"/>
<polygon fill="#63b8ff" stroke="#63b8ff" points="797.33,-193.8 787.7,-189.38 792.47,-198.84 797.33,-193.8"/>
</a>
</g>
</g>
<!-- Node22&#45;&gt;Node3 -->
<g id="edge40_Node000022_Node000003" class="edge">
<title>Node22&#45;&gt;Node3</title>
<g id="a_edge40_Node000022_Node000003"><a xlink:title=" ">
<path fill="none" stroke="#63b8ff" d="M245.7,-167.53C290.08,-157.34 360.03,-141.26 402.64,-131.47"/>
<polygon fill="#63b8ff" stroke="#63b8ff" points="403.19,-134.93 412.15,-129.28 401.62,-128.11 403.19,-134.93"/>
</a>
</g>
</g>
<!-- Node22&#45;&gt;Node7 -->
<g id="edge36_Node000022_Node000007" class="edge">
<title>Node22&#45;&gt;Node7</title>
<g id="a_edge36_Node000022_Node000007"><a xlink:title=" ">
<path fill="none" stroke="#63b8ff" d="M255.14,-170.38C333.98,-160.07 485.27,-140.29 565.14,-129.85"/>
<polygon fill="#63b8ff" stroke="#63b8ff" points="565.43,-133.34 574.89,-128.57 564.52,-126.4 565.43,-133.34"/>
</a>
</g>
</g>
<!-- Node22&#45;&gt;Node10 -->
<g id="edge38_Node000022_Node000010" class="edge">
<title>Node22&#45;&gt;Node10</title>
<g id="a_edge38_Node000022_Node000010"><a xlink:title=" ">
<path fill="none" stroke="#63b8ff" d="M208.05,-167.92C213.49,-154.71 224.84,-129.81 239.5,-112 268.62,-76.62 311.62,-44.7 338.3,-26.6"/>
<polygon fill="#63b8ff" stroke="#63b8ff" points="340.02,-29.66 346.41,-21.2 336.14,-23.83 340.02,-29.66"/>
</a>
</g>
</g>
<!-- Node22&#45;&gt;Node11 -->
<g id="edge39_Node000022_Node000011" class="edge">
<title>Node22&#45;&gt;Node11</title>
<g id="a_edge39_Node000022_Node000011"><a xlink:title=" ">
<path fill="none" stroke="#63b8ff" d="M210.82,-167.63C221.2,-153.08 243.34,-125.33 269.5,-112 312.94,-89.86 455.45,-75.31 520.54,-69.65"/>
<polygon fill="#63b8ff" stroke="#63b8ff" points="520.57,-73.16 530.24,-68.83 519.98,-66.19 520.57,-73.16"/>
</a>
</g>
</g>
<!-- Node22&#45;&gt;Node14 -->
<g id="edge37_Node000022_Node000014" class="edge">
<title>Node22&#45;&gt;Node14</title>
<g id="a_edge37_Node000022_Node000014"><a xlink:title=" ">
<path fill="none" stroke="#63b8ff" d="M224.71,-167.59C242.73,-159.21 269.37,-146.8 289.98,-137.21"/>
<polygon fill="#63b8ff" stroke="#63b8ff" points="291.18,-140.51 298.76,-133.12 288.22,-134.17 291.18,-140.51"/>
</a>
</g>
</g>
<!-- Node23&#45;&gt;Node2 -->
<g id="edge43_Node000023_Node000002" class="edge">
<title>Node23&#45;&gt;Node2</title>
<g id="a_edge43_Node000023_Node000002"><a xlink:title=" ">
<path fill="none" stroke="#63b8ff" d="M996.52,-447.53C945.02,-427.99 826.88,-383.18 767.28,-360.57"/>
<polygon fill="#63b8ff" stroke="#63b8ff" points="768.53,-357.3 757.93,-357.03 766.04,-363.85 768.53,-357.3"/>
</a>
</g>
</g>
<!-- Node23&#45;&gt;Node7 -->
<g id="edge42_Node000023_Node000007" class="edge">
<title>Node23&#45;&gt;Node7</title>
<g id="a_edge42_Node000023_Node000007"><a xlink:title=" ">
<path fill="none" stroke="#63b8ff" d="M1061.52,-447.61C1108.04,-434.05 1178.5,-404.08 1178.5,-347 1178.5,-347 1178.5,-347 1178.5,-233 1178.5,-194.58 1155.76,-185.4 1121.5,-168 1043.58,-128.42 782.35,-123.18 669.81,-122.81"/>
<polygon fill="#63b8ff" stroke="#63b8ff" points="669.96,-119.31 659.95,-122.79 669.94,-126.31 669.96,-119.31"/>
</a>
</g>
</g>
<!-- Node24 -->
<g id="Node000024" class="node">
<title>Node24</title>
<g id="a_Node000024"><a xlink:href="_v_r_e___shared_context_8h.html" target="_top" xlink:title=" ">
<polygon fill="white" stroke="#666666" points="512.38,-412 396.62,-412 396.62,-392 512.38,-392 512.38,-412"/>
<text text-anchor="middle" x="454.5" y="-398.5" font-family="Helvetica,sans-Serif" font-size="10.00">VRE_SharedContext.h</text>
</a>
</g>
</g>
<!-- Node23&#45;&gt;Node24 -->
<g id="edge44_Node000023_Node000024" class="edge">
<title>Node23&#45;&gt;Node24</title>
<g id="a_edge44_Node000023_Node000024"><a xlink:title=" ">
<path fill="none" stroke="#63b8ff" d="M949.69,-450.16C840.15,-439.73 632.63,-419.97 524.3,-409.65"/>
<polygon fill="#63b8ff" stroke="#63b8ff" points="524.66,-406.17 514.37,-408.7 524,-413.13 524.66,-406.17"/>
</a>
</g>
</g>
<!-- Node24&#45;&gt;Node2 -->
<g id="edge57_Node000024_Node000002" class="edge">
<title>Node24&#45;&gt;Node2</title>
<g id="a_edge57_Node000024_Node000002"><a xlink:title=" ">
<path fill="none" stroke="#63b8ff" d="M503.07,-391.53C550.09,-382.36 621.49,-368.45 671.92,-358.61"/>
<polygon fill="#63b8ff" stroke="#63b8ff" points="672.36,-362.1 681.5,-356.75 671.02,-355.22 672.36,-362.1"/>
</a>
</g>
</g>
<!-- Node24&#45;&gt;Node14 -->
<g id="edge45_Node000024_Node000014" class="edge">
<title>Node24&#45;&gt;Node14</title>
<g id="a_edge45_Node000024_Node000014"><a xlink:title=" ">
<path fill="none" stroke="#63b8ff" d="M424.76,-391.51C385.28,-376.83 320.5,-344.58 320.5,-291 320.5,-291 320.5,-291 320.5,-233 320.5,-201.87 320.5,-165.78 320.5,-143.68"/>
<polygon fill="#63b8ff" stroke="#63b8ff" points="324,-143.93 320.5,-133.93 317,-143.93 324,-143.93"/>
</a>
</g>
</g>
<!-- Node24&#45;&gt;Node19 -->
<g id="edge56_Node000024_Node000019" class="edge">
<title>Node24&#45;&gt;Node19</title>
<g id="a_edge56_Node000024_Node000019"><a xlink:title=" ">
<path fill="none" stroke="#63b8ff" d="M460.73,-391.6C478.35,-365.01 528.79,-288.89 552.24,-253.5"/>
<polygon fill="#63b8ff" stroke="#63b8ff" points="554.9,-255.83 557.5,-245.56 549.06,-251.96 554.9,-255.83"/>
</a>
</g>
</g>
<!-- Node25 -->
<g id="Node000025" class="node">
<title>Node25</title>
<g id="a_Node000025"><a xlink:href="_v_r_e___renderer_8h.html" target="_top" xlink:title=" ">
<polygon fill="white" stroke="#666666" points="249.62,-244 159.38,-244 159.38,-224 249.62,-224 249.62,-244"/>
<text text-anchor="middle" x="204.5" y="-230.5" font-family="Helvetica,sans-Serif" font-size="10.00">VRE_Renderer.h</text>
</a>
</g>
</g>
<!-- Node24&#45;&gt;Node25 -->
<g id="edge46_Node000024_Node000025" class="edge">
<title>Node24&#45;&gt;Node25</title>
<g id="a_edge46_Node000024_Node000025"><a xlink:title=" ">
<path fill="none" stroke="#63b8ff" d="M397.07,-391.58C368.18,-384.92 333.63,-373.88 306.5,-356 265.57,-329.02 232.15,-280.87 215.65,-254.17"/>
<polygon fill="#63b8ff" stroke="#63b8ff" points="218.75,-252.53 210.6,-245.76 212.75,-256.14 218.75,-252.53"/>
</a>
</g>
</g>
<!-- Node27 -->
<g id="Node000027" class="node">
<title>Node27</title>
<g id="a_Node000027"><a xlink:href="_v_r_e___point_light_8h.html" target="_top" xlink:title=" ">
<polygon fill="white" stroke="#666666" points="444.5,-244 350.5,-244 350.5,-224 444.5,-224 444.5,-244"/>
<text text-anchor="middle" x="397.5" y="-230.5" font-family="Helvetica,sans-Serif" font-size="10.00">VRE_PointLight.h</text>
</a>
</g>
</g>
<!-- Node24&#45;&gt;Node27 -->
<g id="edge53_Node000024_Node000027" class="edge">
<title>Node24&#45;&gt;Node27</title>
<g id="a_edge53_Node000024_Node000027"><a xlink:title=" ">
<path fill="none" stroke="#63b8ff" d="M451.27,-391.6C442.26,-365.35 416.67,-290.84 404.33,-254.89"/>
<polygon fill="#63b8ff" stroke="#63b8ff" points="407.74,-254.05 401.18,-245.73 401.12,-256.32 407.74,-254.05"/>
</a>
</g>
</g>
<!-- Node25&#45;&gt;Node3 -->
<g id="edge50_Node000025_Node000003" class="edge">
<title>Node25&#45;&gt;Node3</title>
<g id="a_edge50_Node000025_Node000003"><a xlink:title=" ">
<path fill="none" stroke="#63b8ff" d="M224.54,-223.62C265.81,-204.3 360.53,-159.96 409.28,-137.14"/>
<polygon fill="#63b8ff" stroke="#63b8ff" points="410.57,-140.41 418.14,-133 407.6,-134.07 410.57,-140.41"/>
</a>
</g>
</g>
<!-- Node25&#45;&gt;Node7 -->
<g id="edge48_Node000025_Node000007" class="edge">
<title>Node25&#45;&gt;Node7</title>
<g id="a_edge48_Node000025_Node000007"><a xlink:title=" ">
<path fill="none" stroke="#63b8ff" d="M240.07,-223.53C314.71,-203.65 487.64,-157.59 570.97,-135.39"/>
<polygon fill="#63b8ff" stroke="#63b8ff" points="571.64,-138.84 580.41,-132.88 569.84,-132.07 571.64,-138.84"/>
</a>
</g>
</g>
<!-- Node25&#45;&gt;Node8 -->
<g id="edge47_Node000025_Node000008" class="edge">
<title>Node25&#45;&gt;Node8</title>
<g id="a_edge47_Node000025_Node000008"><a xlink:title=" ">
<path fill="none" stroke="#63b8ff" d="M158.94,-226.21C117.07,-218.93 59.44,-205.96 45.5,-188 23.04,-159.05 29.78,-113.39 36.37,-87.23"/>
<polygon fill="#63b8ff" stroke="#63b8ff" points="39.67,-88.43 38.97,-77.86 32.92,-86.56 39.67,-88.43"/>
</a>
</g>
</g>
<!-- Node25&#45;&gt;Node11 -->
<g id="edge51_Node000025_Node000011" class="edge">
<title>Node25&#45;&gt;Node11</title>
<g id="a_edge51_Node000025_Node000011"><a xlink:title=" ">
<path fill="none" stroke="#63b8ff" d="M159.13,-226.75C114.11,-218.53 54.97,-201.1 78.5,-168 130.2,-95.28 421.15,-73.76 520.36,-68.49"/>
<polygon fill="#63b8ff" stroke="#63b8ff" points="520.42,-72 530.23,-67.99 520.06,-65.01 520.42,-72"/>
</a>
</g>
</g>
<!-- Node25&#45;&gt;Node22 -->
<g id="edge49_Node000025_Node000022" class="edge">
<title>Node25&#45;&gt;Node22</title>
<g id="a_edge49_Node000025_Node000022"><a xlink:title=" ">
<path fill="none" stroke="#63b8ff" d="M204.5,-223.59C204.5,-217.01 204.5,-207.96 204.5,-199.73"/>
<polygon fill="#63b8ff" stroke="#63b8ff" points="208,-199.81 204.5,-189.81 201,-199.81 208,-199.81"/>
</a>
</g>
</g>
<!-- Node26 -->
<g id="Node000026" class="node">
<title>Node26</title>
<g id="a_Node000026"><a xlink:title=" ">
<polygon fill="#e0e0e0" stroke="#999999" points="135.62,-188 87.38,-188 87.38,-168 135.62,-168 135.62,-188"/>
<text text-anchor="middle" x="111.5" y="-174.5" font-family="Helvetica,sans-Serif" font-size="10.00">cassert</text>
</a>
</g>
</g>
<!-- Node25&#45;&gt;Node26 -->
<g id="edge52_Node000025_Node000026" class="edge">
<title>Node25&#45;&gt;Node26</title>
<g id="a_edge52_Node000025_Node000026"><a xlink:title=" ">
<path fill="none" stroke="#63b8ff" d="M188.3,-223.59C174.25,-215.44 153.67,-203.48 137.34,-194"/>
<polygon fill="#63b8ff" stroke="#63b8ff" points="139.54,-191.23 129.13,-189.24 136.03,-197.29 139.54,-191.23"/>
</a>
</g>
</g>
<!-- Node27&#45;&gt;Node3 -->
<g id="edge55_Node000027_Node000003" class="edge">
<title>Node27&#45;&gt;Node3</title>
<g id="a_edge55_Node000027_Node000003"><a xlink:title=" ">
<path fill="none" stroke="#63b8ff" d="M401.08,-223.62C407.87,-205.84 422.74,-166.88 431.86,-143"/>
<polygon fill="#63b8ff" stroke="#63b8ff" points="435.09,-144.36 435.39,-133.77 428.55,-141.86 435.09,-144.36"/>
</a>
</g>
</g>
<!-- Node27&#45;&gt;Node16 -->
<g id="edge54_Node000027_Node000016" class="edge">
<title>Node27&#45;&gt;Node16</title>
<g id="a_edge54_Node000027_Node000016"><a xlink:title=" ">
<path fill="none" stroke="#63b8ff" d="M444.86,-226.27C521.59,-215.37 671.48,-194.07 740.76,-184.22"/>
<polygon fill="#63b8ff" stroke="#63b8ff" points="741.04,-187.72 750.45,-182.84 740.06,-180.79 741.04,-187.72"/>
</a>
</g>
</g>
</g>
</svg>
