<?xml version="1.0" encoding="UTF-8" standalone="no"?>
<!DOCTYPE svg PUBLIC "-//W3C//DTD SVG 1.1//EN"
 "http://www.w3.org/Graphics/SVG/1.1/DTD/svg11.dtd">
<!-- Generated by graphviz version 12.1.2 (20240928.0832)
 -->
<!-- Title: ReSTIRVulkan/VRE_Device.cpp Pages: 1 -->
<svg width="440pt" height="196pt"
 viewBox="0.00 0.00 440.25 196.00" xmlns="http://www.w3.org/2000/svg" xmlns:xlink="http://www.w3.org/1999/xlink">

<svg id="main" version="1.1" xmlns="http://www.w3.org/2000/svg" xmlns:xlink="http://www.w3.org/1999/xlink" xml:space="preserve">

<style type="text/css"><![CDATA[
.node, .edge {opacity: 0.7;}
.node.selected, .edge.selected {opacity: 1;}
.edge:hover path { stroke: red; }
.edge:hover polygon { stroke: red; fill: red; }
]]></style>
<script type="application/ecmascript" xlink:href="svg.min.js"/>
<svg id="graph" class="graph">
<g id="graph0" class="graph" transform="scale(1 1) rotate(0) translate(4 192)">
<title>ReSTIRVulkan/VRE_Device.cpp</title>
<!-- Node1 -->
<g id="Node000001" class="node">
<title>Node1</title>
<g id="a_Node000001"><a xlink:title=" ">
<polygon fill="#999999" stroke="#666666" points="341.12,-188 181.88,-188 181.88,-168 341.12,-168 341.12,-188"/>
<text text-anchor="middle" x="261.5" y="-174.5" font-family="Helvetica,sans-Serif" font-size="10.00">ReSTIRVulkan/VRE_Device.cpp</text>
</a>
</g>
</g>
<!-- Node2 -->
<g id="Node000002" class="node">
<title>Node2</title>
<g id="a_Node000002"><a xlink:href="_v_r_e___device_8h.html" target="_top" xlink:title=" ">
<polygon fill="white" stroke="#666666" points="154.12,-132 72.88,-132 72.88,-112 154.12,-112 154.12,-132"/>
<text text-anchor="middle" x="113.5" y="-118.5" font-family="Helvetica,sans-Serif" font-size="10.00">VRE_Device.h</text>
</a>
</g>
</g>
<!-- Node1&#45;&gt;Node2 -->
<g id="edge1_Node000001_Node000002" class="edge">
<title>Node1&#45;&gt;Node2</title>
<g id="a_edge1_Node000001_Node000002"><a xlink:title=" ">
<path fill="none" stroke="#63b8ff" d="M235.72,-167.59C212.1,-158.97 176.86,-146.12 150.28,-136.42"/>
<polygon fill="#63b8ff" stroke="#63b8ff" points="151.5,-133.14 140.9,-133 149.1,-139.71 151.5,-133.14"/>
</a>
</g>
</g>
<!-- Node7 -->
<g id="Node000007" class="node">
<title>Node7</title>
<g id="a_Node000007"><a xlink:title=" ">
<polygon fill="#e0e0e0" stroke="#999999" points="217.12,-132 171.88,-132 171.88,-112 217.12,-112 217.12,-132"/>
<text text-anchor="middle" x="194.5" y="-118.5" font-family="Helvetica,sans-Serif" font-size="10.00">cstring</text>
</a>
</g>
</g>
<!-- Node1&#45;&gt;Node7 -->
<g id="edge7_Node000001_Node000007" class="edge">
<title>Node1&#45;&gt;Node7</title>
<g id="a_edge7_Node000001_Node000007"><a xlink:title=" ">
<path fill="none" stroke="#63b8ff" d="M249.83,-167.59C240.22,-159.85 226.37,-148.69 214.93,-139.47"/>
<polygon fill="#63b8ff" stroke="#63b8ff" points="217.2,-136.8 207.22,-133.25 212.8,-142.25 217.2,-136.8"/>
</a>
</g>
</g>
<!-- Node8 -->
<g id="Node000008" class="node">
<title>Node8</title>
<g id="a_Node000008"><a xlink:title=" ">
<polygon fill="#e0e0e0" stroke="#999999" points="288.25,-132 234.75,-132 234.75,-112 288.25,-112 288.25,-132"/>
<text text-anchor="middle" x="261.5" y="-118.5" font-family="Helvetica,sans-Serif" font-size="10.00">iostream</text>
</a>
</g>
</g>
<!-- Node1&#45;&gt;Node8 -->
<g id="edge8_Node000001_Node000008" class="edge">
<title>Node1&#45;&gt;Node8</title>
<g id="a_edge8_Node000001_Node000008"><a xlink:title=" ">
<path fill="none" stroke="#63b8ff" d="M261.5,-167.59C261.5,-161.01 261.5,-151.96 261.5,-143.73"/>
<polygon fill="#63b8ff" stroke="#63b8ff" points="265,-143.81 261.5,-133.81 258,-143.81 265,-143.81"/>
</a>
</g>
</g>
<!-- Node9 -->
<g id="Node000009" class="node">
<title>Node9</title>
<g id="a_Node000009"><a xlink:title=" ">
<polygon fill="#e0e0e0" stroke="#999999" points="336.25,-132 306.75,-132 306.75,-112 336.25,-112 336.25,-132"/>
<text text-anchor="middle" x="321.5" y="-118.5" font-family="Helvetica,sans-Serif" font-size="10.00">set</text>
</a>
</g>
</g>
<!-- Node1&#45;&gt;Node9 -->
<g id="edge9_Node000001_Node000009" class="edge">
<title>Node1&#45;&gt;Node9</title>
<g id="a_edge9_Node000001_Node000009"><a xlink:title=" ">
<path fill="none" stroke="#63b8ff" d="M271.95,-167.59C280.47,-159.93 292.71,-148.91 302.89,-139.75"/>
<polygon fill="#63b8ff" stroke="#63b8ff" points="304.95,-142.6 310.04,-133.31 300.27,-137.4 304.95,-142.6"/>
</a>
</g>
</g>
<!-- Node10 -->
<g id="Node000010" class="node">
<title>Node10</title>
<g id="a_Node000010"><a xlink:title=" ">
<polygon fill="#e0e0e0" stroke="#999999" points="432.25,-132 354.75,-132 354.75,-112 432.25,-112 432.25,-132"/>
<text text-anchor="middle" x="393.5" y="-118.5" font-family="Helvetica,sans-Serif" font-size="10.00">unordered_set</text>
</a>
</g>
</g>
<!-- Node1&#45;&gt;Node10 -->
<g id="edge10_Node000001_Node000010" class="edge">
<title>Node1&#45;&gt;Node10</title>
<g id="a_edge10_Node000001_Node000010"><a xlink:title=" ">
<path fill="none" stroke="#63b8ff" d="M284.49,-167.59C305.28,-159.09 336.15,-146.46 359.74,-136.81"/>
<polygon fill="#63b8ff" stroke="#63b8ff" points="361,-140.08 368.93,-133.05 358.35,-133.6 361,-140.08"/>
</a>
</g>
</g>
<!-- Node3 -->
<g id="Node000003" class="node">
<title>Node3</title>
<g id="a_Node000003"><a xlink:href="_v_r_e___window_8h.html" target="_top" xlink:title=" ">
<polygon fill="white" stroke="#666666" points="85,-76 0,-76 0,-56 85,-56 85,-76"/>
<text text-anchor="middle" x="42.5" y="-62.5" font-family="Helvetica,sans-Serif" font-size="10.00">VRE_Window.h</text>
</a>
</g>
</g>
<!-- Node2&#45;&gt;Node3 -->
<g id="edge2_Node000002_Node000003" class="edge">
<title>Node2&#45;&gt;Node3</title>
<g id="a_edge2_Node000002_Node000003"><a xlink:title=" ">
<path fill="none" stroke="#63b8ff" d="M101.13,-111.59C90.85,-103.77 75.98,-92.46 63.79,-83.19"/>
<polygon fill="#63b8ff" stroke="#63b8ff" points="66.01,-80.48 55.93,-77.21 61.77,-86.05 66.01,-80.48"/>
</a>
</g>
</g>
<!-- Node5 -->
<g id="Node000005" class="node">
<title>Node5</title>
<g id="a_Node000005"><a xlink:title=" ">
<polygon fill="#e0e0e0" stroke="#999999" points="128.5,-20 88.5,-20 88.5,0 128.5,0 128.5,-20"/>
<text text-anchor="middle" x="108.5" y="-6.5" font-family="Helvetica,sans-Serif" font-size="10.00">string</text>
</a>
</g>
</g>
<!-- Node2&#45;&gt;Node5 -->
<g id="edge5_Node000002_Node000005" class="edge">
<title>Node2&#45;&gt;Node5</title>
<g id="a_edge5_Node000002_Node000005"><a xlink:title=" ">
<path fill="none" stroke="#63b8ff" d="M113.07,-111.62C112.27,-94.01 110.53,-55.59 109.44,-31.65"/>
<polygon fill="#63b8ff" stroke="#63b8ff" points="112.94,-31.7 108.99,-21.87 105.95,-32.02 112.94,-31.7"/>
</a>
</g>
</g>
<!-- Node6 -->
<g id="Node000006" class="node">
<title>Node6</title>
<g id="a_Node000006"><a xlink:title=" ">
<polygon fill="#e0e0e0" stroke="#999999" points="185,-76 142,-76 142,-56 185,-56 185,-76"/>
<text text-anchor="middle" x="163.5" y="-62.5" font-family="Helvetica,sans-Serif" font-size="10.00">vector</text>
</a>
</g>
</g>
<!-- Node2&#45;&gt;Node6 -->
<g id="edge6_Node000002_Node000006" class="edge">
<title>Node2&#45;&gt;Node6</title>
<g id="a_edge6_Node000002_Node000006"><a xlink:title=" ">
<path fill="none" stroke="#63b8ff" d="M122.21,-111.59C129.09,-104.16 138.89,-93.58 147.22,-84.58"/>
<polygon fill="#63b8ff" stroke="#63b8ff" points="149.64,-87.12 153.86,-77.41 144.5,-82.37 149.64,-87.12"/>
</a>
</g>
</g>
<!-- Node4 -->
<g id="Node000004" class="node">
<title>Node4</title>
<g id="a_Node000004"><a xlink:title=" ">
<polygon fill="#e0e0e0" stroke="#999999" points="66.25,-20 18.75,-20 18.75,0 66.25,0 66.25,-20"/>
<text text-anchor="middle" x="42.5" y="-6.5" font-family="Helvetica,sans-Serif" font-size="10.00">glfw3.h</text>
</a>
</g>
</g>
<!-- Node3&#45;&gt;Node4 -->
<g id="edge3_Node000003_Node000004" class="edge">
<title>Node3&#45;&gt;Node4</title>
<g id="a_edge3_Node000003_Node000004"><a xlink:title=" ">
<path fill="none" stroke="#63b8ff" d="M42.5,-55.59C42.5,-49.01 42.5,-39.96 42.5,-31.73"/>
<polygon fill="#63b8ff" stroke="#63b8ff" points="46,-31.81 42.5,-21.81 39,-31.81 46,-31.81"/>
</a>
</g>
</g>
<!-- Node3&#45;&gt;Node5 -->
<g id="edge4_Node000003_Node000005" class="edge">
<title>Node3&#45;&gt;Node5</title>
<g id="a_edge4_Node000003_Node000005"><a xlink:title=" ">
<path fill="none" stroke="#63b8ff" d="M54,-55.59C63.46,-47.85 77.1,-36.69 88.37,-27.47"/>
<polygon fill="#63b8ff" stroke="#63b8ff" points="90.44,-30.3 95.96,-21.26 86.01,-24.88 90.44,-30.3"/>
</a>
</g>
</g>
</g>
</svg>
</svg>

<style type='text/css'>
<![CDATA[
[data-mouse-over-selected='false'] { opacity: 0.7; }
[data-mouse-over-selected='true']  { opacity: 1.0; }
]]>
</style>
<script type="application/ecmascript"><![CDATA[
document.addEventListener('DOMContentLoaded', (event) => {
  highlightEdges();
  highlightAdjacentNodes();
});
]]></script>
</svg>
