<?xml version="1.0" encoding="UTF-8" standalone="no"?>
<!DOCTYPE svg PUBLIC "-//W3C//DTD SVG 1.1//EN"
 "http://www.w3.org/Graphics/SVG/1.1/DTD/svg11.dtd">
<!-- Generated by graphviz version 12.1.2 (20240928.0832)
 -->
<!-- Title: ReSTIRVulkan/VRE_InputListener.h Pages: 1 -->
<svg width="301pt" height="140pt"
 viewBox="0.00 0.00 301.25 140.00" xmlns="http://www.w3.org/2000/svg" xmlns:xlink="http://www.w3.org/1999/xlink">

<svg id="main" version="1.1" xmlns="http://www.w3.org/2000/svg" xmlns:xlink="http://www.w3.org/1999/xlink" xml:space="preserve">

<style type="text/css"><![CDATA[
.node, .edge {opacity: 0.7;}
.node.selected, .edge.selected {opacity: 1;}
.edge:hover path { stroke: red; }
.edge:hover polygon { stroke: red; fill: red; }
]]></style>
<script type="application/ecmascript" xlink:href="svg.min.js"/>
<svg id="graph" class="graph">
<g id="graph0" class="graph" transform="scale(1 1) rotate(0) translate(4 136)">
<title>ReSTIRVulkan/VRE_InputListener.h</title>
<!-- Node1 -->
<g id="Node000001" class="node">
<title>Node1</title>
<g id="a_Node000001"><a xlink:title=" ">
<polygon fill="#999999" stroke="#666666" points="249.38,-132 75.12,-132 75.12,-112 249.38,-112 249.38,-132"/>
<text text-anchor="middle" x="162.25" y="-118.5" font-family="Helvetica,sans-Serif" font-size="10.00">ReSTIRVulkan/VRE_InputListener.h</text>
</a>
</g>
</g>
<!-- Node2 -->
<g id="Node000002" class="node">
<title>Node2</title>
<g id="a_Node000002"><a xlink:href="_v_r_e___camera_8h.html" target="_top" xlink:title=" ">
<polygon fill="white" stroke="#666666" points="153.75,-76 68.75,-76 68.75,-56 153.75,-56 153.75,-76"/>
<text text-anchor="middle" x="111.25" y="-62.5" font-family="Helvetica,sans-Serif" font-size="10.00">VRE_Camera.h</text>
</a>
</g>
</g>
<!-- Node1&#45;&gt;Node2 -->
<g id="edge1_Node000001_Node000002" class="edge">
<title>Node1&#45;&gt;Node2</title>
<g id="a_edge1_Node000001_Node000002"><a xlink:title=" ">
<path fill="none" stroke="#63b8ff" d="M153.37,-111.59C146.35,-104.16 136.35,-93.58 127.86,-84.58"/>
<polygon fill="#63b8ff" stroke="#63b8ff" points="130.48,-82.27 121.07,-77.4 125.39,-87.07 130.48,-82.27"/>
</a>
</g>
</g>
<!-- Node5 -->
<g id="Node000005" class="node">
<title>Node5</title>
<g id="a_Node000005"><a xlink:href="_v_r_e___window_8h.html" target="_top" xlink:title=" ">
<polygon fill="white" stroke="#666666" points="256.75,-76 171.75,-76 171.75,-56 256.75,-56 256.75,-76"/>
<text text-anchor="middle" x="214.25" y="-62.5" font-family="Helvetica,sans-Serif" font-size="10.00">VRE_Window.h</text>
</a>
</g>
</g>
<!-- Node1&#45;&gt;Node5 -->
<g id="edge4_Node000001_Node000005" class="edge">
<title>Node1&#45;&gt;Node5</title>
<g id="a_edge4_Node000001_Node000005"><a xlink:title=" ">
<path fill="none" stroke="#63b8ff" d="M171.31,-111.59C178.47,-104.16 188.66,-93.58 197.32,-84.58"/>
<polygon fill="#63b8ff" stroke="#63b8ff" points="199.83,-87.02 204.25,-77.39 194.79,-82.16 199.83,-87.02"/>
</a>
</g>
</g>
<!-- Node3 -->
<g id="Node000003" class="node">
<title>Node3</title>
<g id="a_Node000003"><a xlink:title=" ">
<polygon fill="#e0e0e0" stroke="#999999" points="50.5,-20 0,-20 0,0 50.5,0 50.5,-20"/>
<text text-anchor="middle" x="25.25" y="-6.5" font-family="Helvetica,sans-Serif" font-size="10.00">glm.hpp</text>
</a>
</g>
</g>
<!-- Node2&#45;&gt;Node3 -->
<g id="edge2_Node000002_Node000003" class="edge">
<title>Node2&#45;&gt;Node3</title>
<g id="a_edge2_Node000002_Node000003"><a xlink:title=" ">
<path fill="none" stroke="#63b8ff" d="M96.27,-55.59C83.52,-47.59 64.96,-35.93 50.01,-26.54"/>
<polygon fill="#63b8ff" stroke="#63b8ff" points="51.96,-23.64 41.63,-21.28 48.24,-29.57 51.96,-23.64"/>
</a>
</g>
</g>
<!-- Node4 -->
<g id="Node000004" class="node">
<title>Node4</title>
<g id="a_Node000004"><a xlink:title=" ">
<polygon fill="#e0e0e0" stroke="#999999" points="162.25,-20 68.25,-20 68.25,0 162.25,0 162.25,-20"/>
<text text-anchor="middle" x="115.25" y="-6.5" font-family="Helvetica,sans-Serif" font-size="10.00">gtc/constants.hpp</text>
</a>
</g>
</g>
<!-- Node2&#45;&gt;Node4 -->
<g id="edge3_Node000002_Node000004" class="edge">
<title>Node2&#45;&gt;Node4</title>
<g id="a_edge3_Node000002_Node000004"><a xlink:title=" ">
<path fill="none" stroke="#63b8ff" d="M111.95,-55.59C112.43,-49.01 113.1,-39.96 113.71,-31.73"/>
<polygon fill="#63b8ff" stroke="#63b8ff" points="117.2,-32.04 114.45,-21.81 110.22,-31.52 117.2,-32.04"/>
</a>
</g>
</g>
<!-- Node6 -->
<g id="Node000006" class="node">
<title>Node6</title>
<g id="a_Node000006"><a xlink:title=" ">
<polygon fill="#e0e0e0" stroke="#999999" points="235,-20 187.5,-20 187.5,0 235,0 235,-20"/>
<text text-anchor="middle" x="211.25" y="-6.5" font-family="Helvetica,sans-Serif" font-size="10.00">glfw3.h</text>
</a>
</g>
</g>
<!-- Node5&#45;&gt;Node6 -->
<g id="edge5_Node000005_Node000006" class="edge">
<title>Node5&#45;&gt;Node6</title>
<g id="a_edge5_Node000005_Node000006"><a xlink:title=" ">
<path fill="none" stroke="#63b8ff" d="M213.73,-55.59C213.36,-49.01 212.86,-39.96 212.4,-31.73"/>
<polygon fill="#63b8ff" stroke="#63b8ff" points="215.9,-31.6 211.85,-21.81 208.91,-31.99 215.9,-31.6"/>
</a>
</g>
</g>
<!-- Node7 -->
<g id="Node000007" class="node">
<title>Node7</title>
<g id="a_Node000007"><a xlink:title=" ">
<polygon fill="#e0e0e0" stroke="#999999" points="293.25,-20 253.25,-20 253.25,0 293.25,0 293.25,-20"/>
<text text-anchor="middle" x="273.25" y="-6.5" font-family="Helvetica,sans-Serif" font-size="10.00">string</text>
</a>
</g>
</g>
<!-- Node5&#45;&gt;Node7 -->
<g id="edge6_Node000005_Node000007" class="edge">
<title>Node5&#45;&gt;Node7</title>
<g id="a_edge6_Node000005_Node000007"><a xlink:title=" ">
<path fill="none" stroke="#63b8ff" d="M224.53,-55.59C232.82,-48.01 244.7,-37.13 254.65,-28.02"/>
<polygon fill="#63b8ff" stroke="#63b8ff" points="256.96,-30.65 261.97,-21.32 252.23,-25.49 256.96,-30.65"/>
</a>
</g>
</g>
</g>
</svg>
</svg>

<style type='text/css'>
<![CDATA[
[data-mouse-over-selected='false'] { opacity: 0.7; }
[data-mouse-over-selected='true']  { opacity: 1.0; }
]]>
</style>
<script type="application/ecmascript"><![CDATA[
document.addEventListener('DOMContentLoaded', (event) => {
  highlightEdges();
  highlightAdjacentNodes();
});
]]></script>
</svg>
