<?xml version="1.0" encoding="UTF-8" standalone="no"?>
<!DOCTYPE svg PUBLIC "-//W3C//DTD SVG 1.1//EN"
 "http://www.w3.org/Graphics/SVG/1.1/DTD/svg11.dtd">
<!-- Generated by graphviz version 12.1.2 (20240928.0832)
 -->
<!-- Title: ReSTIRVulkan/VRE_Descriptor.cpp Pages: 1 -->
<svg width="404pt" height="252pt"
 viewBox="0.00 0.00 403.88 252.00" xmlns="http://www.w3.org/2000/svg" xmlns:xlink="http://www.w3.org/1999/xlink">

<svg id="main" version="1.1" xmlns="http://www.w3.org/2000/svg" xmlns:xlink="http://www.w3.org/1999/xlink" xml:space="preserve">

<style type="text/css"><![CDATA[
.node, .edge {opacity: 0.7;}
.node.selected, .edge.selected {opacity: 1;}
.edge:hover path { stroke: red; }
.edge:hover polygon { stroke: red; fill: red; }
]]></style>
<script type="application/ecmascript" xlink:href="svg.min.js"/>
<svg id="graph" class="graph">
<g id="graph0" class="graph" transform="scale(1 1) rotate(0) translate(4 248)">
<title>ReSTIRVulkan/VRE_Descriptor.cpp</title>
<!-- Node1 -->
<g id="Node000001" class="node">
<title>Node1</title>
<g id="a_Node000001"><a xlink:title=" ">
<polygon fill="#999999" stroke="#666666" points="381.25,-244 207.75,-244 207.75,-224 381.25,-224 381.25,-244"/>
<text text-anchor="middle" x="294.5" y="-230.5" font-family="Helvetica,sans-Serif" font-size="10.00">ReSTIRVulkan/VRE_Descriptor.cpp</text>
</a>
</g>
</g>
<!-- Node2 -->
<g id="Node000002" class="node">
<title>Node2</title>
<g id="a_Node000002"><a xlink:href="_v_r_e___descriptor_8h.html" target="_top" xlink:title=" ">
<polygon fill="white" stroke="#666666" points="252.25,-188 156.75,-188 156.75,-168 252.25,-168 252.25,-188"/>
<text text-anchor="middle" x="204.5" y="-174.5" font-family="Helvetica,sans-Serif" font-size="10.00">VRE_Descriptor.h</text>
</a>
</g>
</g>
<!-- Node1&#45;&gt;Node2 -->
<g id="edge1_Node000001_Node000002" class="edge">
<title>Node1&#45;&gt;Node2</title>
<g id="a_edge1_Node000001_Node000002"><a xlink:title=" ">
<path fill="none" stroke="#63b8ff" d="M278.82,-223.59C265.36,-215.51 245.68,-203.71 229.96,-194.27"/>
<polygon fill="#63b8ff" stroke="#63b8ff" points="231.97,-191.4 221.6,-189.26 228.37,-197.4 231.97,-191.4"/>
</a>
</g>
</g>
<!-- Node10 -->
<g id="Node000010" class="node">
<title>Node10</title>
<g id="a_Node000010"><a xlink:title=" ">
<polygon fill="#e0e0e0" stroke="#999999" points="318.62,-188 270.38,-188 270.38,-168 318.62,-168 318.62,-188"/>
<text text-anchor="middle" x="294.5" y="-174.5" font-family="Helvetica,sans-Serif" font-size="10.00">cassert</text>
</a>
</g>
</g>
<!-- Node1&#45;&gt;Node10 -->
<g id="edge11_Node000001_Node000010" class="edge">
<title>Node1&#45;&gt;Node10</title>
<g id="a_edge11_Node000001_Node000010"><a xlink:title=" ">
<path fill="none" stroke="#63b8ff" d="M294.5,-223.59C294.5,-217.01 294.5,-207.96 294.5,-199.73"/>
<polygon fill="#63b8ff" stroke="#63b8ff" points="298,-199.81 294.5,-189.81 291,-199.81 298,-199.81"/>
</a>
</g>
</g>
<!-- Node11 -->
<g id="Node000011" class="node">
<title>Node11</title>
<g id="a_Node000011"><a xlink:title=" ">
<polygon fill="#e0e0e0" stroke="#999999" points="395.88,-188 337.12,-188 337.12,-168 395.88,-168 395.88,-188"/>
<text text-anchor="middle" x="366.5" y="-174.5" font-family="Helvetica,sans-Serif" font-size="10.00">stdexcept</text>
</a>
</g>
</g>
<!-- Node1&#45;&gt;Node11 -->
<g id="edge12_Node000001_Node000011" class="edge">
<title>Node1&#45;&gt;Node11</title>
<g id="a_edge12_Node000001_Node000011"><a xlink:title=" ">
<path fill="none" stroke="#63b8ff" d="M307.04,-223.59C317.47,-215.77 332.55,-204.46 344.91,-195.19"/>
<polygon fill="#63b8ff" stroke="#63b8ff" points="346.99,-198.01 352.89,-189.21 342.79,-192.41 346.99,-198.01"/>
</a>
</g>
</g>
<!-- Node3 -->
<g id="Node000003" class="node">
<title>Node3</title>
<g id="a_Node000003"><a xlink:href="_v_r_e___device_8h.html" target="_top" xlink:title=" ">
<polygon fill="white" stroke="#666666" points="149.12,-132 67.88,-132 67.88,-112 149.12,-112 149.12,-132"/>
<text text-anchor="middle" x="108.5" y="-118.5" font-family="Helvetica,sans-Serif" font-size="10.00">VRE_Device.h</text>
</a>
</g>
</g>
<!-- Node2&#45;&gt;Node3 -->
<g id="edge2_Node000002_Node000003" class="edge">
<title>Node2&#45;&gt;Node3</title>
<g id="a_edge2_Node000002_Node000003"><a xlink:title=" ">
<path fill="none" stroke="#63b8ff" d="M187.78,-167.59C173.28,-159.44 152.03,-147.48 135.18,-138"/>
<polygon fill="#63b8ff" stroke="#63b8ff" points="137.1,-135.07 126.67,-133.22 133.67,-141.17 137.1,-135.07"/>
</a>
</g>
</g>
<!-- Node7 -->
<g id="Node000007" class="node">
<title>Node7</title>
<g id="a_Node000007"><a xlink:title=" ">
<polygon fill="#e0e0e0" stroke="#999999" points="194,-76 151,-76 151,-56 194,-56 194,-76"/>
<text text-anchor="middle" x="172.5" y="-62.5" font-family="Helvetica,sans-Serif" font-size="10.00">vector</text>
</a>
</g>
</g>
<!-- Node2&#45;&gt;Node7 -->
<g id="edge10_Node000002_Node000007" class="edge">
<title>Node2&#45;&gt;Node7</title>
<g id="a_edge10_Node000002_Node000007"><a xlink:title=" ">
<path fill="none" stroke="#63b8ff" d="M201.77,-167.62C196.62,-149.92 185.37,-111.24 178.41,-87.32"/>
<polygon fill="#63b8ff" stroke="#63b8ff" points="181.8,-86.43 175.64,-77.81 175.08,-88.39 181.8,-86.43"/>
</a>
</g>
</g>
<!-- Node8 -->
<g id="Node000008" class="node">
<title>Node8</title>
<g id="a_Node000008"><a xlink:title=" ">
<polygon fill="#e0e0e0" stroke="#999999" points="257.12,-132 205.88,-132 205.88,-112 257.12,-112 257.12,-132"/>
<text text-anchor="middle" x="231.5" y="-118.5" font-family="Helvetica,sans-Serif" font-size="10.00">memory</text>
</a>
</g>
</g>
<!-- Node2&#45;&gt;Node8 -->
<g id="edge8_Node000002_Node000008" class="edge">
<title>Node2&#45;&gt;Node8</title>
<g id="a_edge8_Node000002_Node000008"><a xlink:title=" ">
<path fill="none" stroke="#63b8ff" d="M209.2,-167.59C212.65,-160.7 217.45,-151.1 221.71,-142.57"/>
<polygon fill="#63b8ff" stroke="#63b8ff" points="224.83,-144.16 226.17,-133.65 218.57,-141.03 224.83,-144.16"/>
</a>
</g>
</g>
<!-- Node9 -->
<g id="Node000009" class="node">
<title>Node9</title>
<g id="a_Node000009"><a xlink:title=" ">
<polygon fill="#e0e0e0" stroke="#999999" points="357.88,-132 275.12,-132 275.12,-112 357.88,-112 357.88,-132"/>
<text text-anchor="middle" x="316.5" y="-118.5" font-family="Helvetica,sans-Serif" font-size="10.00">unordered_map</text>
</a>
</g>
</g>
<!-- Node2&#45;&gt;Node9 -->
<g id="edge9_Node000002_Node000009" class="edge">
<title>Node2&#45;&gt;Node9</title>
<g id="a_edge9_Node000002_Node000009"><a xlink:title=" ">
<path fill="none" stroke="#63b8ff" d="M224.01,-167.59C241.25,-159.28 266.66,-147.03 286.49,-137.47"/>
<polygon fill="#63b8ff" stroke="#63b8ff" points="287.99,-140.63 295.48,-133.14 284.95,-134.33 287.99,-140.63"/>
</a>
</g>
</g>
<!-- Node4 -->
<g id="Node000004" class="node">
<title>Node4</title>
<g id="a_Node000004"><a xlink:href="_v_r_e___window_8h.html" target="_top" xlink:title=" ">
<polygon fill="white" stroke="#666666" points="85,-76 0,-76 0,-56 85,-56 85,-76"/>
<text text-anchor="middle" x="42.5" y="-62.5" font-family="Helvetica,sans-Serif" font-size="10.00">VRE_Window.h</text>
</a>
</g>
</g>
<!-- Node3&#45;&gt;Node4 -->
<g id="edge3_Node000003_Node000004" class="edge">
<title>Node3&#45;&gt;Node4</title>
<g id="a_edge3_Node000003_Node000004"><a xlink:title=" ">
<path fill="none" stroke="#63b8ff" d="M97,-111.59C87.54,-103.85 73.9,-92.69 62.63,-83.47"/>
<polygon fill="#63b8ff" stroke="#63b8ff" points="64.99,-80.88 55.04,-77.26 60.56,-86.3 64.99,-80.88"/>
</a>
</g>
</g>
<!-- Node6 -->
<g id="Node000006" class="node">
<title>Node6</title>
<g id="a_Node000006"><a xlink:title=" ">
<polygon fill="#e0e0e0" stroke="#999999" points="128.5,-20 88.5,-20 88.5,0 128.5,0 128.5,-20"/>
<text text-anchor="middle" x="108.5" y="-6.5" font-family="Helvetica,sans-Serif" font-size="10.00">string</text>
</a>
</g>
</g>
<!-- Node3&#45;&gt;Node6 -->
<g id="edge6_Node000003_Node000006" class="edge">
<title>Node3&#45;&gt;Node6</title>
<g id="a_edge6_Node000003_Node000006"><a xlink:title=" ">
<path fill="none" stroke="#63b8ff" d="M108.5,-111.62C108.5,-94.01 108.5,-55.59 108.5,-31.65"/>
<polygon fill="#63b8ff" stroke="#63b8ff" points="112,-31.87 108.5,-21.87 105,-31.87 112,-31.87"/>
</a>
</g>
</g>
<!-- Node3&#45;&gt;Node7 -->
<g id="edge7_Node000003_Node000007" class="edge">
<title>Node3&#45;&gt;Node7</title>
<g id="a_edge7_Node000003_Node000007"><a xlink:title=" ">
<path fill="none" stroke="#63b8ff" d="M119.65,-111.59C128.83,-103.85 142.05,-92.69 152.98,-83.47"/>
<polygon fill="#63b8ff" stroke="#63b8ff" points="154.94,-86.4 160.32,-77.27 150.42,-81.05 154.94,-86.4"/>
</a>
</g>
</g>
<!-- Node5 -->
<g id="Node000005" class="node">
<title>Node5</title>
<g id="a_Node000005"><a xlink:title=" ">
<polygon fill="#e0e0e0" stroke="#999999" points="66.25,-20 18.75,-20 18.75,0 66.25,0 66.25,-20"/>
<text text-anchor="middle" x="42.5" y="-6.5" font-family="Helvetica,sans-Serif" font-size="10.00">glfw3.h</text>
</a>
</g>
</g>
<!-- Node4&#45;&gt;Node5 -->
<g id="edge4_Node000004_Node000005" class="edge">
<title>Node4&#45;&gt;Node5</title>
<g id="a_edge4_Node000004_Node000005"><a xlink:title=" ">
<path fill="none" stroke="#63b8ff" d="M42.5,-55.59C42.5,-49.01 42.5,-39.96 42.5,-31.73"/>
<polygon fill="#63b8ff" stroke="#63b8ff" points="46,-31.81 42.5,-21.81 39,-31.81 46,-31.81"/>
</a>
</g>
</g>
<!-- Node4&#45;&gt;Node6 -->
<g id="edge5_Node000004_Node000006" class="edge">
<title>Node4&#45;&gt;Node6</title>
<g id="a_edge5_Node000004_Node000006"><a xlink:title=" ">
<path fill="none" stroke="#63b8ff" d="M54,-55.59C63.46,-47.85 77.1,-36.69 88.37,-27.47"/>
<polygon fill="#63b8ff" stroke="#63b8ff" points="90.44,-30.3 95.96,-21.26 86.01,-24.88 90.44,-30.3"/>
</a>
</g>
</g>
</g>
</svg>
</svg>

<style type='text/css'>
<![CDATA[
[data-mouse-over-selected='false'] { opacity: 0.7; }
[data-mouse-over-selected='true']  { opacity: 1.0; }
]]>
</style>
<script type="application/ecmascript"><![CDATA[
document.addEventListener('DOMContentLoaded', (event) => {
  highlightEdges();
  highlightAdjacentNodes();
});
]]></script>
</svg>
