<?xml version="1.0" encoding="UTF-8" standalone="no"?>
<!DOCTYPE svg PUBLIC "-//W3C//DTD SVG 1.1//EN"
 "http://www.w3.org/Graphics/SVG/1.1/DTD/svg11.dtd">
<!-- Generated by graphviz version 12.1.2 (20240928.0832)
 -->
<!-- Title: ReSTIRVulkan/VRE_Camera.cpp Pages: 1 -->
<svg width="245pt" height="140pt"
 viewBox="0.00 0.00 244.88 140.00" xmlns="http://www.w3.org/2000/svg" xmlns:xlink="http://www.w3.org/1999/xlink">
<g id="graph0" class="graph" transform="scale(1 1) rotate(0) translate(4 136)">
<title>ReSTIRVulkan/VRE_Camera.cpp</title>
<!-- Node1 -->
<g id="Node000001" class="node">
<title>Node1</title>
<g id="a_Node000001"><a xlink:title=" ">
<polygon fill="#999999" stroke="#666666" points="236.75,-132 73.75,-132 73.75,-112 236.75,-112 236.75,-132"/>
<text text-anchor="middle" x="155.25" y="-118.5" font-family="Helvetica,sans-Serif" font-size="10.00">ReSTIRVulkan/VRE_Camera.cpp</text>
</a>
</g>
</g>
<!-- Node2 -->
<g id="Node000002" class="node">
<title>Node2</title>
<g id="a_Node000002"><a xlink:href="_v_r_e___camera_8h.html" target="_top" xlink:title=" ">
<polygon fill="white" stroke="#666666" points="112.75,-76 27.75,-76 27.75,-56 112.75,-56 112.75,-76"/>
<text text-anchor="middle" x="70.25" y="-62.5" font-family="Helvetica,sans-Serif" font-size="10.00">VRE_Camera.h</text>
</a>
</g>
</g>
<!-- Node1&#45;&gt;Node2 -->
<g id="edge1_Node000001_Node000002" class="edge">
<title>Node1&#45;&gt;Node2</title>
<g id="a_edge1_Node000001_Node000002"><a xlink:title=" ">
<path fill="none" stroke="#63b8ff" d="M140.44,-111.59C127.85,-103.59 109.5,-91.93 94.72,-82.54"/>
<polygon fill="#63b8ff" stroke="#63b8ff" points="96.77,-79.7 86.45,-77.29 93.01,-85.61 96.77,-79.7"/>
</a>
</g>
</g>
<!-- Node5 -->
<g id="Node000005" class="node">
<title>Node5</title>
<g id="a_Node000005"><a xlink:title=" ">
<polygon fill="#e0e0e0" stroke="#999999" points="179.38,-76 131.12,-76 131.12,-56 179.38,-56 179.38,-76"/>
<text text-anchor="middle" x="155.25" y="-62.5" font-family="Helvetica,sans-Serif" font-size="10.00">cassert</text>
</a>
</g>
</g>
<!-- Node1&#45;&gt;Node5 -->
<g id="edge4_Node000001_Node000005" class="edge">
<title>Node1&#45;&gt;Node5</title>
<g id="a_edge4_Node000001_Node000005"><a xlink:title=" ">
<path fill="none" stroke="#63b8ff" d="M155.25,-111.59C155.25,-105.01 155.25,-95.96 155.25,-87.73"/>
<polygon fill="#63b8ff" stroke="#63b8ff" points="158.75,-87.81 155.25,-77.81 151.75,-87.81 158.75,-87.81"/>
</a>
</g>
</g>
<!-- Node6 -->
<g id="Node000006" class="node">
<title>Node6</title>
<g id="a_Node000006"><a xlink:title=" ">
<polygon fill="#e0e0e0" stroke="#999999" points="236.88,-76 197.62,-76 197.62,-56 236.88,-56 236.88,-76"/>
<text text-anchor="middle" x="217.25" y="-62.5" font-family="Helvetica,sans-Serif" font-size="10.00">limits</text>
</a>
</g>
</g>
<!-- Node1&#45;&gt;Node6 -->
<g id="edge5_Node000001_Node000006" class="edge">
<title>Node1&#45;&gt;Node6</title>
<g id="a_edge5_Node000001_Node000006"><a xlink:title=" ">
<path fill="none" stroke="#63b8ff" d="M166.05,-111.59C174.85,-103.93 187.5,-92.91 198.02,-83.75"/>
<polygon fill="#63b8ff" stroke="#63b8ff" points="200.19,-86.5 205.43,-77.29 195.59,-81.22 200.19,-86.5"/>
</a>
</g>
</g>
<!-- Node3 -->
<g id="Node000003" class="node">
<title>Node3</title>
<g id="a_Node000003"><a xlink:title=" ">
<polygon fill="#e0e0e0" stroke="#999999" points="50.5,-20 0,-20 0,0 50.5,0 50.5,-20"/>
<text text-anchor="middle" x="25.25" y="-6.5" font-family="Helvetica,sans-Serif" font-size="10.00">glm.hpp</text>
</a>
</g>
</g>
<!-- Node2&#45;&gt;Node3 -->
<g id="edge2_Node000002_Node000003" class="edge">
<title>Node2&#45;&gt;Node3</title>
<g id="a_edge2_Node000002_Node000003"><a xlink:title=" ">
<path fill="none" stroke="#63b8ff" d="M62.41,-55.59C56.28,-48.24 47.58,-37.8 40.14,-28.87"/>
<polygon fill="#63b8ff" stroke="#63b8ff" points="43.06,-26.9 33.97,-21.46 37.68,-31.38 43.06,-26.9"/>
</a>
</g>
</g>
<!-- Node4 -->
<g id="Node000004" class="node">
<title>Node4</title>
<g id="a_Node000004"><a xlink:title=" ">
<polygon fill="#e0e0e0" stroke="#999999" points="162.25,-20 68.25,-20 68.25,0 162.25,0 162.25,-20"/>
<text text-anchor="middle" x="115.25" y="-6.5" font-family="Helvetica,sans-Serif" font-size="10.00">gtc/constants.hpp</text>
</a>
</g>
</g>
<!-- Node2&#45;&gt;Node4 -->
<g id="edge3_Node000002_Node000004" class="edge">
<title>Node2&#45;&gt;Node4</title>
<g id="a_edge3_Node000002_Node000004"><a xlink:title=" ">
<path fill="none" stroke="#63b8ff" d="M78.09,-55.59C84.22,-48.24 92.92,-37.8 100.36,-28.87"/>
<polygon fill="#63b8ff" stroke="#63b8ff" points="102.82,-31.38 106.53,-21.46 97.44,-26.9 102.82,-31.38"/>
</a>
</g>
</g>
</g>
</svg>
