<?xml version="1.0" encoding="UTF-8" standalone="no"?>
<!DOCTYPE svg PUBLIC "-//W3C//DTD SVG 1.1//EN"
 "http://www.w3.org/Graphics/SVG/1.1/DTD/svg11.dtd">
<!-- Generated by graphviz version 12.1.2 (20240928.0832)
 -->
<!-- Title: ReSTIRVulkan/VRE_GameObjRenderSystem.cpp Pages: 1 -->
<svg width="1278pt" height="544pt"
 viewBox="0.00 0.00 1277.50 544.00" xmlns="http://www.w3.org/2000/svg" xmlns:xlink="http://www.w3.org/1999/xlink">
<g id="graph0" class="graph" transform="scale(1 1) rotate(0) translate(4 540)">
<title>ReSTIRVulkan/VRE_GameObjRenderSystem.cpp</title>
<!-- Node1 -->
<g id="Node000001" class="node">
<title>Node1</title>
<g id="a_Node000001"><a xlink:title=" ">
<polygon fill="#999999" stroke="#666666" points="929,-536 778,-536 778,-504 929,-504 929,-536"/>
<text text-anchor="start" x="786" y="-522.5" font-family="Helvetica,sans-Serif" font-size="10.00">ReSTIRVulkan/VRE_GameObj</text>
<text text-anchor="middle" x="853.5" y="-510.5" font-family="Helvetica,sans-Serif" font-size="10.00">RenderSystem.cpp</text>
</a>
</g>
</g>
<!-- Node2 -->
<g id="Node000002" class="node">
<title>Node2</title>
<g id="a_Node000002"><a xlink:href="_v_r_e___game_obj_render_system_8h.html" target="_top" xlink:title=" ">
<polygon fill="white" stroke="#666666" points="869,-468 712,-468 712,-448 869,-448 869,-468"/>
<text text-anchor="middle" x="790.5" y="-454.5" font-family="Helvetica,sans-Serif" font-size="10.00">VRE_GameObjRenderSystem.h</text>
</a>
</g>
</g>
<!-- Node1&#45;&gt;Node2 -->
<g id="edge1_Node000001_Node000002" class="edge">
<title>Node1&#45;&gt;Node2</title>
<g id="a_edge1_Node000001_Node000002"><a xlink:title=" ">
<path fill="none" stroke="#63b8ff" d="M837.28,-503.55C828.53,-495.22 817.7,-484.91 808.67,-476.3"/>
<polygon fill="#63b8ff" stroke="#63b8ff" points="811.13,-473.81 801.47,-469.45 806.3,-478.88 811.13,-473.81"/>
</a>
</g>
</g>
<!-- Node28 -->
<g id="Node000028" class="node">
<title>Node28</title>
<g id="a_Node000028"><a xlink:title=" ">
<polygon fill="#e0e0e0" stroke="#999999" points="945.88,-468 887.12,-468 887.12,-448 945.88,-448 945.88,-468"/>
<text text-anchor="middle" x="916.5" y="-454.5" font-family="Helvetica,sans-Serif" font-size="10.00">stdexcept</text>
</a>
</g>
</g>
<!-- Node1&#45;&gt;Node28 -->
<g id="edge59_Node000001_Node000028" class="edge">
<title>Node1&#45;&gt;Node28</title>
<g id="a_edge59_Node000001_Node000028"><a xlink:title=" ">
<path fill="none" stroke="#63b8ff" d="M869.72,-503.55C878.47,-495.22 889.3,-484.91 898.33,-476.3"/>
<polygon fill="#63b8ff" stroke="#63b8ff" points="900.7,-478.88 905.53,-469.45 895.87,-473.81 900.7,-478.88"/>
</a>
</g>
</g>
<!-- Node3 -->
<g id="Node000003" class="node">
<title>Node3</title>
<g id="a_Node000003"><a xlink:href="_v_r_e___device_8h.html" target="_top" xlink:title=" ">
<polygon fill="white" stroke="#666666" points="753.12,-132 671.88,-132 671.88,-112 753.12,-112 753.12,-132"/>
<text text-anchor="middle" x="712.5" y="-118.5" font-family="Helvetica,sans-Serif" font-size="10.00">VRE_Device.h</text>
</a>
</g>
</g>
<!-- Node2&#45;&gt;Node3 -->
<g id="edge2_Node000002_Node000003" class="edge">
<title>Node2&#45;&gt;Node3</title>
<g id="a_edge2_Node000002_Node000003"><a xlink:title=" ">
<path fill="none" stroke="#63b8ff" d="M791.91,-447.78C795.64,-420.23 803.45,-336.85 771.5,-280 758.61,-257.06 737.3,-266.99 724.5,-244 706.92,-212.43 707.49,-168.98 709.79,-143.66"/>
<polygon fill="#63b8ff" stroke="#63b8ff" points="713.27,-144.05 710.9,-133.73 706.31,-143.28 713.27,-144.05"/>
</a>
</g>
</g>
<!-- Node8 -->
<g id="Node000008" class="node">
<title>Node8</title>
<g id="a_Node000008"><a xlink:href="_v_r_e___game_object_8h.html" target="_top" xlink:title=" ">
<polygon fill="white" stroke="#666666" points="755.12,-356 649.88,-356 649.88,-336 755.12,-336 755.12,-356"/>
<text text-anchor="middle" x="702.5" y="-342.5" font-family="Helvetica,sans-Serif" font-size="10.00">VRE_GameObject.h</text>
</a>
</g>
</g>
<!-- Node2&#45;&gt;Node8 -->
<g id="edge8_Node000002_Node000008" class="edge">
<title>Node2&#45;&gt;Node8</title>
<g id="a_edge8_Node000002_Node000008"><a xlink:title=" ">
<path fill="none" stroke="#63b8ff" d="M783,-447.62C768.38,-429.36 735.89,-388.73 716.95,-365.07"/>
<polygon fill="#63b8ff" stroke="#63b8ff" points="719.91,-363.16 710.93,-357.54 714.44,-367.53 719.91,-363.16"/>
</a>
</g>
</g>
<!-- Node9 -->
<g id="Node000009" class="node">
<title>Node9</title>
<g id="a_Node000009"><a xlink:title=" ">
<polygon fill="#e0e0e0" stroke="#999999" points="1077.12,-132 1025.88,-132 1025.88,-112 1077.12,-112 1077.12,-132"/>
<text text-anchor="middle" x="1051.5" y="-118.5" font-family="Helvetica,sans-Serif" font-size="10.00">memory</text>
</a>
</g>
</g>
<!-- Node2&#45;&gt;Node9 -->
<g id="edge58_Node000002_Node000009" class="edge">
<title>Node2&#45;&gt;Node9</title>
<g id="a_edge58_Node000002_Node000009"><a xlink:title=" ">
<path fill="none" stroke="#63b8ff" d="M865.08,-447.53C999.71,-429.41 1269.5,-387.98 1269.5,-347 1269.5,-347 1269.5,-347 1269.5,-233 1269.5,-152.95 1150.89,-131.14 1088.65,-125.21"/>
<polygon fill="#63b8ff" stroke="#63b8ff" points="1089.13,-121.74 1078.87,-124.38 1088.54,-128.72 1089.13,-121.74"/>
</a>
</g>
</g>
<!-- Node19 -->
<g id="Node000019" class="node">
<title>Node19</title>
<g id="a_Node000019"><a xlink:href="_v_r_e___pipeline_8h.html" target="_top" xlink:title=" ">
<polygon fill="white" stroke="#666666" points="85,-188 0,-188 0,-168 85,-168 85,-188"/>
<text text-anchor="middle" x="42.5" y="-174.5" font-family="Helvetica,sans-Serif" font-size="10.00">VRE_Pipeline.h</text>
</a>
</g>
</g>
<!-- Node2&#45;&gt;Node19 -->
<g id="edge43_Node000002_Node000019" class="edge">
<title>Node2&#45;&gt;Node19</title>
<g id="a_edge43_Node000002_Node000019"><a xlink:title=" ">
<path fill="none" stroke="#63b8ff" d="M711.76,-453.43C521.35,-443.76 51.5,-413.19 51.5,-347 51.5,-347 51.5,-347 51.5,-289 51.5,-257.77 47.85,-221.71 45.2,-199.63"/>
<polygon fill="#63b8ff" stroke="#63b8ff" points="48.7,-199.38 43.98,-189.9 41.75,-200.26 48.7,-199.38"/>
</a>
</g>
</g>
<!-- Node24 -->
<g id="Node000024" class="node">
<title>Node24</title>
<g id="a_Node000024"><a xlink:href="_v_r_e___shared_context_8h.html" target="_top" xlink:title=" ">
<polygon fill="white" stroke="#666666" points="991.38,-412 875.62,-412 875.62,-392 991.38,-392 991.38,-412"/>
<text text-anchor="middle" x="933.5" y="-398.5" font-family="Helvetica,sans-Serif" font-size="10.00">VRE_SharedContext.h</text>
</a>
</g>
</g>
<!-- Node2&#45;&gt;Node24 -->
<g id="edge44_Node000002_Node000024" class="edge">
<title>Node2&#45;&gt;Node24</title>
<g id="a_edge44_Node000002_Node000024"><a xlink:title=" ">
<path fill="none" stroke="#63b8ff" d="M815.41,-447.59C838.23,-438.97 872.28,-426.12 897.96,-416.42"/>
<polygon fill="#63b8ff" stroke="#63b8ff" points="898.86,-419.82 906.98,-413.01 896.39,-413.27 898.86,-419.82"/>
</a>
</g>
</g>
<!-- Node4 -->
<g id="Node000004" class="node">
<title>Node4</title>
<g id="a_Node000004"><a xlink:href="_v_r_e___window_8h.html" target="_top" xlink:title=" ">
<polygon fill="white" stroke="#666666" points="1073,-76 988,-76 988,-56 1073,-56 1073,-76"/>
<text text-anchor="middle" x="1030.5" y="-62.5" font-family="Helvetica,sans-Serif" font-size="10.00">VRE_Window.h</text>
</a>
</g>
</g>
<!-- Node3&#45;&gt;Node4 -->
<g id="edge3_Node000003_Node000004" class="edge">
<title>Node3&#45;&gt;Node4</title>
<g id="a_edge3_Node000003_Node000004"><a xlink:title=" ">
<path fill="none" stroke="#63b8ff" d="M753.42,-114.05C810.27,-104.4 913.26,-86.91 976.4,-76.19"/>
<polygon fill="#63b8ff" stroke="#63b8ff" points="976.94,-79.65 986.21,-74.52 975.77,-72.74 976.94,-79.65"/>
</a>
</g>
</g>
<!-- Node6 -->
<g id="Node000006" class="node">
<title>Node6</title>
<g id="a_Node000006"><a xlink:title=" ">
<polygon fill="#e0e0e0" stroke="#999999" points="865.5,-20 825.5,-20 825.5,0 865.5,0 865.5,-20"/>
<text text-anchor="middle" x="845.5" y="-6.5" font-family="Helvetica,sans-Serif" font-size="10.00">string</text>
</a>
</g>
</g>
<!-- Node3&#45;&gt;Node6 -->
<g id="edge6_Node000003_Node000006" class="edge">
<title>Node3&#45;&gt;Node6</title>
<g id="a_edge6_Node000003_Node000006"><a xlink:title=" ">
<path fill="none" stroke="#63b8ff" d="M715.16,-111.84C719.58,-98.06 729.66,-71.93 746.5,-56 765.56,-37.96 793.12,-26.24 814.32,-19.3"/>
<polygon fill="#63b8ff" stroke="#63b8ff" points="815.06,-22.73 823.6,-16.46 813.01,-16.04 815.06,-22.73"/>
</a>
</g>
</g>
<!-- Node7 -->
<g id="Node000007" class="node">
<title>Node7</title>
<g id="a_Node000007"><a xlink:title=" ">
<polygon fill="#e0e0e0" stroke="#999999" points="798,-76 755,-76 755,-56 798,-56 798,-76"/>
<text text-anchor="middle" x="776.5" y="-62.5" font-family="Helvetica,sans-Serif" font-size="10.00">vector</text>
</a>
</g>
</g>
<!-- Node3&#45;&gt;Node7 -->
<g id="edge7_Node000003_Node000007" class="edge">
<title>Node3&#45;&gt;Node7</title>
<g id="a_edge7_Node000003_Node000007"><a xlink:title=" ">
<path fill="none" stroke="#63b8ff" d="M723.65,-111.59C732.83,-103.85 746.05,-92.69 756.98,-83.47"/>
<polygon fill="#63b8ff" stroke="#63b8ff" points="758.94,-86.4 764.32,-77.27 754.42,-81.05 758.94,-86.4"/>
</a>
</g>
</g>
<!-- Node5 -->
<g id="Node000005" class="node">
<title>Node5</title>
<g id="a_Node000005"><a xlink:title=" ">
<polygon fill="#e0e0e0" stroke="#999999" points="1054.25,-20 1006.75,-20 1006.75,0 1054.25,0 1054.25,-20"/>
<text text-anchor="middle" x="1030.5" y="-6.5" font-family="Helvetica,sans-Serif" font-size="10.00">glfw3.h</text>
</a>
</g>
</g>
<!-- Node4&#45;&gt;Node5 -->
<g id="edge4_Node000004_Node000005" class="edge">
<title>Node4&#45;&gt;Node5</title>
<g id="a_edge4_Node000004_Node000005"><a xlink:title=" ">
<path fill="none" stroke="#63b8ff" d="M1030.5,-55.59C1030.5,-49.01 1030.5,-39.96 1030.5,-31.73"/>
<polygon fill="#63b8ff" stroke="#63b8ff" points="1034,-31.81 1030.5,-21.81 1027,-31.81 1034,-31.81"/>
</a>
</g>
</g>
<!-- Node4&#45;&gt;Node6 -->
<g id="edge5_Node000004_Node000006" class="edge">
<title>Node4&#45;&gt;Node6</title>
<g id="a_edge5_Node000004_Node000006"><a xlink:title=" ">
<path fill="none" stroke="#63b8ff" d="M998.28,-55.59C964.05,-45.6 910.32,-29.92 876.55,-20.06"/>
<polygon fill="#63b8ff" stroke="#63b8ff" points="877.95,-16.83 867.37,-17.38 875.99,-23.55 877.95,-16.83"/>
</a>
</g>
</g>
<!-- Node8&#45;&gt;Node9 -->
<g id="edge9_Node000008_Node000009" class="edge">
<title>Node8&#45;&gt;Node9</title>
<g id="a_edge9_Node000008_Node000009"><a xlink:title=" ">
<path fill="none" stroke="#63b8ff" d="M723.18,-335.52C742.68,-326.52 772.68,-312.56 798.5,-300 804.71,-296.98 1015.67,-192.94 1020.5,-188 1032.81,-175.42 1040.95,-157.02 1045.79,-143.01"/>
<polygon fill="#63b8ff" stroke="#63b8ff" points="1049.11,-144.11 1048.76,-133.52 1042.43,-142.02 1049.11,-144.11"/>
</a>
</g>
</g>
<!-- Node10 -->
<g id="Node000010" class="node">
<title>Node10</title>
<g id="a_Node000010"><a xlink:title=" ">
<polygon fill="#e0e0e0" stroke="#999999" points="677.88,-188 595.12,-188 595.12,-168 677.88,-168 677.88,-188"/>
<text text-anchor="middle" x="636.5" y="-174.5" font-family="Helvetica,sans-Serif" font-size="10.00">unordered_map</text>
</a>
</g>
</g>
<!-- Node8&#45;&gt;Node10 -->
<g id="edge10_Node000008_Node000010" class="edge">
<title>Node8&#45;&gt;Node10</title>
<g id="a_edge10_Node000008_Node000010"><a xlink:title=" ">
<path fill="none" stroke="#63b8ff" d="M649.63,-342.02C589.84,-337.41 497.98,-326.17 476.5,-300 436.78,-251.59 531.79,-211.49 591.86,-191.91"/>
<polygon fill="#63b8ff" stroke="#63b8ff" points="592.72,-195.31 601.19,-188.95 590.6,-188.64 592.72,-195.31"/>
</a>
</g>
</g>
<!-- Node11 -->
<g id="Node000011" class="node">
<title>Node11</title>
<g id="a_Node000011"><a xlink:title=" ">
<polygon fill="#e0e0e0" stroke="#999999" points="609.88,-300 485.12,-300 485.12,-280 609.88,-280 609.88,-300"/>
<text text-anchor="middle" x="547.5" y="-286.5" font-family="Helvetica,sans-Serif" font-size="10.00">gtc/matrix_transform.hpp</text>
</a>
</g>
</g>
<!-- Node8&#45;&gt;Node11 -->
<g id="edge11_Node000008_Node000011" class="edge">
<title>Node8&#45;&gt;Node11</title>
<g id="a_edge11_Node000008_Node000011"><a xlink:title=" ">
<path fill="none" stroke="#63b8ff" d="M675.5,-335.59C650.54,-326.9 613.2,-313.89 585.28,-304.16"/>
<polygon fill="#63b8ff" stroke="#63b8ff" points="586.73,-300.96 576.14,-300.98 584.43,-307.57 586.73,-300.96"/>
</a>
</g>
</g>
<!-- Node12 -->
<g id="Node000012" class="node">
<title>Node12</title>
<g id="a_Node000012"><a xlink:href="_v_r_e__gl_t_f_model_8h.html" target="_top" xlink:title=" ">
<polygon fill="white" stroke="#666666" points="308.62,-300 212.38,-300 212.38,-280 308.62,-280 308.62,-300"/>
<text text-anchor="middle" x="260.5" y="-286.5" font-family="Helvetica,sans-Serif" font-size="10.00">VRE_glTFModel.h</text>
</a>
</g>
</g>
<!-- Node8&#45;&gt;Node12 -->
<g id="edge12_Node000008_Node000012" class="edge">
<title>Node8&#45;&gt;Node12</title>
<g id="a_edge12_Node000008_Node000012"><a xlink:title=" ">
<path fill="none" stroke="#63b8ff" d="M649.62,-338.54C566.84,-328.43 407.14,-308.91 320.29,-298.3"/>
<polygon fill="#63b8ff" stroke="#63b8ff" points="320.9,-294.85 310.54,-297.11 320.05,-301.8 320.9,-294.85"/>
</a>
</g>
</g>
<!-- Node22 -->
<g id="Node000022" class="node">
<title>Node22</title>
<g id="a_Node000022"><a xlink:href="_v_r_e___object_components_8h.html" target="_top" xlink:title=" ">
<polygon fill="white" stroke="#666666" points="762.75,-300 628.25,-300 628.25,-280 762.75,-280 762.75,-300"/>
<text text-anchor="middle" x="695.5" y="-286.5" font-family="Helvetica,sans-Serif" font-size="10.00">VRE_ObjectComponents.h</text>
</a>
</g>
</g>
<!-- Node8&#45;&gt;Node22 -->
<g id="edge35_Node000008_Node000022" class="edge">
<title>Node8&#45;&gt;Node22</title>
<g id="a_edge35_Node000008_Node000022"><a xlink:title=" ">
<path fill="none" stroke="#63b8ff" d="M701.28,-335.59C700.42,-328.93 699.23,-319.75 698.15,-311.44"/>
<polygon fill="#63b8ff" stroke="#63b8ff" points="701.66,-311.27 696.9,-301.8 694.71,-312.17 701.66,-311.27"/>
</a>
</g>
</g>
<!-- Node23 -->
<g id="Node000023" class="node">
<title>Node23</title>
<g id="a_Node000023"><a xlink:href="_v_r_e___swap_chain_8h.html" target="_top" xlink:title=" ">
<polygon fill="white" stroke="#666666" points="985.88,-188 885.12,-188 885.12,-168 985.88,-168 985.88,-188"/>
<text text-anchor="middle" x="935.5" y="-174.5" font-family="Helvetica,sans-Serif" font-size="10.00">VRE_SwapChain.h</text>
</a>
</g>
</g>
<!-- Node8&#45;&gt;Node23 -->
<g id="edge37_Node000008_Node000023" class="edge">
<title>Node8&#45;&gt;Node23</title>
<g id="a_edge37_Node000008_Node000023"><a xlink:title=" ">
<path fill="none" stroke="#63b8ff" d="M717.47,-335.59C731.56,-326.65 753.17,-312.72 771.5,-300 823.69,-263.77 883.36,-218.83 914.33,-195.23"/>
<polygon fill="#63b8ff" stroke="#63b8ff" points="916.31,-198.12 922.13,-189.27 912.06,-192.56 916.31,-198.12"/>
</a>
</g>
</g>
<!-- Node12&#45;&gt;Node3 -->
<g id="edge13_Node000012_Node000003" class="edge">
<title>Node12&#45;&gt;Node3</title>
<g id="a_edge13_Node000012_Node000003"><a xlink:title=" ">
<path fill="none" stroke="#63b8ff" d="M244.11,-279.54C209.54,-258.45 135.13,-206.43 170.5,-168 203.28,-132.38 531.31,-124.95 660.56,-123.41"/>
<polygon fill="#63b8ff" stroke="#63b8ff" points="660.23,-126.91 670.19,-123.3 660.15,-119.91 660.23,-126.91"/>
</a>
</g>
</g>
<!-- Node13 -->
<g id="Node000013" class="node">
<title>Node13</title>
<g id="a_Node000013"><a xlink:href="_v_r_e___buffer_8h.html" target="_top" xlink:title=" ">
<polygon fill="white" stroke="#666666" points="255.5,-188 179.5,-188 179.5,-168 255.5,-168 255.5,-188"/>
<text text-anchor="middle" x="217.5" y="-174.5" font-family="Helvetica,sans-Serif" font-size="10.00">VRE_Buffer.h</text>
</a>
</g>
</g>
<!-- Node12&#45;&gt;Node13 -->
<g id="edge14_Node000012_Node000013" class="edge">
<title>Node12&#45;&gt;Node13</title>
<g id="a_edge14_Node000012_Node000013"><a xlink:title=" ">
<path fill="none" stroke="#63b8ff" d="M249.34,-279.54C240.36,-271.2 228.32,-258.19 222.5,-244 216.71,-229.87 215.63,-212.59 215.91,-199.39"/>
<polygon fill="#63b8ff" stroke="#63b8ff" points="219.39,-199.91 216.4,-189.75 212.4,-199.55 219.39,-199.91"/>
</a>
</g>
</g>
<!-- Node14 -->
<g id="Node000014" class="node">
<title>Node14</title>
<g id="a_Node000014"><a xlink:href="_v_r_e___model_properties_8h.html" target="_top" xlink:title=" ">
<polygon fill="white" stroke="#666666" points="429,-244 308,-244 308,-224 429,-224 429,-244"/>
<text text-anchor="middle" x="368.5" y="-230.5" font-family="Helvetica,sans-Serif" font-size="10.00">VRE_ModelProperties.h</text>
</a>
</g>
</g>
<!-- Node12&#45;&gt;Node14 -->
<g id="edge16_Node000012_Node000014" class="edge">
<title>Node12&#45;&gt;Node14</title>
<g id="a_edge16_Node000012_Node000014"><a xlink:title=" ">
<path fill="none" stroke="#63b8ff" d="M279.31,-279.59C295.86,-271.32 320.21,-259.14 339.29,-249.6"/>
<polygon fill="#63b8ff" stroke="#63b8ff" points="340.81,-252.76 348.19,-245.16 337.68,-246.5 340.81,-252.76"/>
</a>
</g>
</g>
<!-- Node12&#45;&gt;Node19 -->
<g id="edge25_Node000012_Node000019" class="edge">
<title>Node12&#45;&gt;Node19</title>
<g id="a_edge25_Node000012_Node000019"><a xlink:title=" ">
<path fill="none" stroke="#63b8ff" d="M227.98,-279.55C202.63,-271.61 166.92,-259.14 137.5,-244 110.39,-230.04 81.85,-209.63 63.21,-195.42"/>
<polygon fill="#63b8ff" stroke="#63b8ff" points="65.44,-192.72 55.39,-189.36 61.15,-198.25 65.44,-192.72"/>
</a>
</g>
</g>
<!-- Node20 -->
<g id="Node000020" class="node">
<title>Node20</title>
<g id="a_Node000020"><a xlink:href="_v_r_e___descriptor_8h.html" target="_top" xlink:title=" ">
<polygon fill="white" stroke="#666666" points="829.25,-244 733.75,-244 733.75,-224 829.25,-224 829.25,-244"/>
<text text-anchor="middle" x="781.5" y="-230.5" font-family="Helvetica,sans-Serif" font-size="10.00">VRE_Descriptor.h</text>
</a>
</g>
</g>
<!-- Node12&#45;&gt;Node20 -->
<g id="edge29_Node000012_Node000020" class="edge">
<title>Node12&#45;&gt;Node20</title>
<g id="a_edge29_Node000012_Node000020"><a xlink:title=" ">
<path fill="none" stroke="#63b8ff" d="M309.05,-283.97C404.86,-274.04 617.98,-251.95 722.04,-241.16"/>
<polygon fill="#63b8ff" stroke="#63b8ff" points="722.17,-244.67 731.76,-240.16 721.45,-237.71 722.17,-244.67"/>
</a>
</g>
</g>
<!-- Node21 -->
<g id="Node000021" class="node">
<title>Node21</title>
<g id="a_Node000021"><a xlink:title=" ">
<polygon fill="#e0e0e0" stroke="#999999" points="289.88,-244 231.12,-244 231.12,-224 289.88,-224 289.88,-244"/>
<text text-anchor="middle" x="260.5" y="-230.5" font-family="Helvetica,sans-Serif" font-size="10.00">tiny_gltf.h</text>
</a>
</g>
</g>
<!-- Node12&#45;&gt;Node21 -->
<g id="edge34_Node000012_Node000021" class="edge">
<title>Node12&#45;&gt;Node21</title>
<g id="a_edge34_Node000012_Node000021"><a xlink:title=" ">
<path fill="none" stroke="#63b8ff" d="M260.5,-279.59C260.5,-273.01 260.5,-263.96 260.5,-255.73"/>
<polygon fill="#63b8ff" stroke="#63b8ff" points="264,-255.81 260.5,-245.81 257,-255.81 264,-255.81"/>
</a>
</g>
</g>
<!-- Node13&#45;&gt;Node3 -->
<g id="edge15_Node000013_Node000003" class="edge">
<title>Node13&#45;&gt;Node3</title>
<g id="a_edge15_Node000013_Node000003"><a xlink:title=" ">
<path fill="none" stroke="#63b8ff" d="M255.93,-169.35C258.82,-168.86 261.7,-168.41 264.5,-168 407.08,-147.23 576.6,-133.04 660.35,-126.72"/>
<polygon fill="#63b8ff" stroke="#63b8ff" points="660.36,-130.23 670.07,-126 659.84,-123.25 660.36,-130.23"/>
</a>
</g>
</g>
<!-- Node14&#45;&gt;Node7 -->
<g id="edge22_Node000014_Node000007" class="edge">
<title>Node14&#45;&gt;Node7</title>
<g id="a_edge22_Node000014_Node000007"><a xlink:title=" ">
<path fill="none" stroke="#63b8ff" d="M310.08,-223.5C254.91,-213.94 179.32,-199.05 170.5,-188 164.95,-181.05 164.75,-174.78 170.5,-168 245.24,-79.77 628.1,-68.54 743.52,-67.17"/>
<polygon fill="#63b8ff" stroke="#63b8ff" points="743.27,-70.68 753.23,-67.08 743.2,-63.68 743.27,-70.68"/>
</a>
</g>
</g>
<!-- Node14&#45;&gt;Node13 -->
<g id="edge21_Node000014_Node000013" class="edge">
<title>Node14&#45;&gt;Node13</title>
<g id="a_edge21_Node000014_Node000013"><a xlink:title=" ">
<path fill="none" stroke="#63b8ff" d="M342.2,-223.59C317.99,-214.94 281.82,-202 254.66,-192.29"/>
<polygon fill="#63b8ff" stroke="#63b8ff" points="256.03,-189.06 245.43,-188.99 253.67,-195.65 256.03,-189.06"/>
</a>
</g>
</g>
<!-- Node15 -->
<g id="Node000015" class="node">
<title>Node15</title>
<g id="a_Node000015"><a xlink:title=" ">
<polygon fill="#e0e0e0" stroke="#999999" points="893.62,-132 809.38,-132 809.38,-112 893.62,-112 893.62,-132"/>
<text text-anchor="middle" x="851.5" y="-118.5" font-family="Helvetica,sans-Serif" font-size="10.00">vulkan/vulkan.h</text>
</a>
</g>
</g>
<!-- Node14&#45;&gt;Node15 -->
<g id="edge17_Node000014_Node000015" class="edge">
<title>Node14&#45;&gt;Node15</title>
<g id="a_edge17_Node000014_Node000015"><a xlink:title=" ">
<path fill="none" stroke="#63b8ff" d="M372.44,-223.51C379.1,-208.78 394.09,-180.8 416.5,-168 417.53,-167.41 681.51,-140.37 797.69,-128.5"/>
<polygon fill="#63b8ff" stroke="#63b8ff" points="798.02,-131.98 807.61,-127.48 797.31,-125.02 798.02,-131.98"/>
</a>
</g>
</g>
<!-- Node16 -->
<g id="Node000016" class="node">
<title>Node16</title>
<g id="a_Node000016"><a xlink:href="_v_r_e___texture_8h.html" target="_top" xlink:title=" ">
<polygon fill="white" stroke="#666666" points="507.88,-188 425.12,-188 425.12,-168 507.88,-168 507.88,-188"/>
<text text-anchor="middle" x="466.5" y="-174.5" font-family="Helvetica,sans-Serif" font-size="10.00">VRE_Texture.h</text>
</a>
</g>
</g>
<!-- Node14&#45;&gt;Node16 -->
<g id="edge18_Node000014_Node000016" class="edge">
<title>Node14&#45;&gt;Node16</title>
<g id="a_edge18_Node000014_Node000016"><a xlink:title=" ">
<path fill="none" stroke="#63b8ff" d="M385.57,-223.59C400.38,-215.44 422.07,-203.48 439.27,-194"/>
<polygon fill="#63b8ff" stroke="#63b8ff" points="440.9,-197.1 447.97,-189.21 437.52,-190.97 440.9,-197.1"/>
</a>
</g>
</g>
<!-- Node17 -->
<g id="Node000017" class="node">
<title>Node17</title>
<g id="a_Node000017"><a xlink:title=" ">
<polygon fill="#e0e0e0" stroke="#999999" points="576.75,-188 526.25,-188 526.25,-168 576.75,-168 576.75,-188"/>
<text text-anchor="middle" x="551.5" y="-174.5" font-family="Helvetica,sans-Serif" font-size="10.00">glm.hpp</text>
</a>
</g>
</g>
<!-- Node14&#45;&gt;Node17 -->
<g id="edge23_Node000014_Node000017" class="edge">
<title>Node14&#45;&gt;Node17</title>
<g id="a_edge23_Node000014_Node000017"><a xlink:title=" ">
<path fill="none" stroke="#63b8ff" d="M400.38,-223.59C432.39,-214.15 481.66,-199.61 515.17,-189.72"/>
<polygon fill="#63b8ff" stroke="#63b8ff" points="515.83,-193.17 524.43,-186.99 513.85,-186.46 515.83,-193.17"/>
</a>
</g>
</g>
<!-- Node18 -->
<g id="Node000018" class="node">
<title>Node18</title>
<g id="a_Node000018"><a xlink:title=" ">
<polygon fill="#e0e0e0" stroke="#999999" points="369.62,-188 273.38,-188 273.38,-168 369.62,-168 369.62,-188"/>
<text text-anchor="middle" x="321.5" y="-174.5" font-family="Helvetica,sans-Serif" font-size="10.00">gtc/quaternion.hpp</text>
</a>
</g>
</g>
<!-- Node14&#45;&gt;Node18 -->
<g id="edge24_Node000014_Node000018" class="edge">
<title>Node14&#45;&gt;Node18</title>
<g id="a_edge24_Node000014_Node000018"><a xlink:title=" ">
<path fill="none" stroke="#63b8ff" d="M360.31,-223.59C353.91,-216.24 344.82,-205.8 337.05,-196.87"/>
<polygon fill="#63b8ff" stroke="#63b8ff" points="339.79,-194.69 330.59,-189.44 334.51,-199.28 339.79,-194.69"/>
</a>
</g>
</g>
<!-- Node16&#45;&gt;Node3 -->
<g id="edge20_Node000016_Node000003" class="edge">
<title>Node16&#45;&gt;Node3</title>
<g id="a_edge20_Node000016_Node000003"><a xlink:title=" ">
<path fill="none" stroke="#63b8ff" d="M508.23,-167.84C550.19,-158.63 614.97,-144.41 660.31,-134.46"/>
<polygon fill="#63b8ff" stroke="#63b8ff" points="660.89,-137.91 669.91,-132.35 659.39,-131.08 660.89,-137.91"/>
</a>
</g>
</g>
<!-- Node16&#45;&gt;Node9 -->
<g id="edge19_Node000016_Node000009" class="edge">
<title>Node16&#45;&gt;Node9</title>
<g id="a_edge19_Node000016_Node000009"><a xlink:title=" ">
<path fill="none" stroke="#63b8ff" d="M508.2,-169.32C511.34,-168.84 514.47,-168.39 517.5,-168 614,-155.45 909.35,-133.36 1014.14,-125.7"/>
<polygon fill="#63b8ff" stroke="#63b8ff" points="1014.16,-129.21 1023.88,-124.99 1013.65,-122.23 1014.16,-129.21"/>
</a>
</g>
</g>
<!-- Node19&#45;&gt;Node3 -->
<g id="edge28_Node000019_Node000003" class="edge">
<title>Node19&#45;&gt;Node3</title>
<g id="a_edge28_Node000019_Node000003"><a xlink:title=" ">
<path fill="none" stroke="#63b8ff" d="M85.05,-172.82C101.44,-171.25 120.33,-169.48 137.5,-168 330.14,-151.34 559.33,-134.21 660.31,-126.8"/>
<polygon fill="#63b8ff" stroke="#63b8ff" points="660.47,-130.29 670.19,-126.07 659.96,-123.31 660.47,-130.29"/>
</a>
</g>
</g>
<!-- Node19&#45;&gt;Node6 -->
<g id="edge26_Node000019_Node000006" class="edge">
<title>Node19&#45;&gt;Node6</title>
<g id="a_edge26_Node000019_Node000006"><a xlink:title=" ">
<path fill="none" stroke="#63b8ff" d="M43.47,-167.71C45.51,-153.27 51.65,-125.67 69.5,-112 189.04,-20.51 683.09,-11.73 813.71,-11.03"/>
<polygon fill="#63b8ff" stroke="#63b8ff" points="813.69,-14.53 823.68,-10.99 813.66,-7.53 813.69,-14.53"/>
</a>
</g>
</g>
<!-- Node19&#45;&gt;Node7 -->
<g id="edge27_Node000019_Node000007" class="edge">
<title>Node19&#45;&gt;Node7</title>
<g id="a_edge27_Node000019_Node000007"><a xlink:title=" ">
<path fill="none" stroke="#63b8ff" d="M47.34,-167.85C55.72,-153.07 74.47,-124.36 99.5,-112 157.57,-83.33 615.43,-70.71 743.38,-67.72"/>
<polygon fill="#63b8ff" stroke="#63b8ff" points="743.28,-71.22 753.2,-67.5 743.12,-64.23 743.28,-71.22"/>
</a>
</g>
</g>
<!-- Node20&#45;&gt;Node3 -->
<g id="edge30_Node000020_Node000003" class="edge">
<title>Node20&#45;&gt;Node3</title>
<g id="a_edge30_Node000020_Node000003"><a xlink:title=" ">
<path fill="none" stroke="#63b8ff" d="M775.62,-223.62C764.31,-205.6 739.36,-165.81 724.43,-142.02"/>
<polygon fill="#63b8ff" stroke="#63b8ff" points="727.45,-140.25 719.17,-133.64 721.52,-143.97 727.45,-140.25"/>
</a>
</g>
</g>
<!-- Node20&#45;&gt;Node7 -->
<g id="edge33_Node000020_Node000007" class="edge">
<title>Node20&#45;&gt;Node7</title>
<g id="a_edge33_Node000020_Node000007"><a xlink:title=" ">
<path fill="none" stroke="#63b8ff" d="M781.22,-223.6C780.43,-197.46 778.2,-123.48 777.11,-87.36"/>
<polygon fill="#63b8ff" stroke="#63b8ff" points="780.63,-87.7 776.83,-77.81 773.63,-87.91 780.63,-87.7"/>
</a>
</g>
</g>
<!-- Node20&#45;&gt;Node9 -->
<g id="edge31_Node000020_Node000009" class="edge">
<title>Node20&#45;&gt;Node9</title>
<g id="a_edge31_Node000020_Node000009"><a xlink:title=" ">
<path fill="none" stroke="#63b8ff" d="M829.45,-231.46C874.78,-228.11 943.29,-217.97 994.5,-188 1013.87,-176.67 1030.05,-156.4 1040.17,-141.5"/>
<polygon fill="#63b8ff" stroke="#63b8ff" points="1042.86,-143.79 1045.34,-133.49 1036.98,-139.99 1042.86,-143.79"/>
</a>
</g>
</g>
<!-- Node20&#45;&gt;Node10 -->
<g id="edge32_Node000020_Node000010" class="edge">
<title>Node20&#45;&gt;Node10</title>
<g id="a_edge32_Node000020_Node000010"><a xlink:title=" ">
<path fill="none" stroke="#63b8ff" d="M756.24,-223.59C733.1,-214.97 698.58,-202.12 672.54,-192.42"/>
<polygon fill="#63b8ff" stroke="#63b8ff" points="673.97,-189.22 663.37,-189.01 671.52,-195.78 673.97,-189.22"/>
</a>
</g>
</g>
<!-- Node22&#45;&gt;Node17 -->
<g id="edge36_Node000022_Node000017" class="edge">
<title>Node22&#45;&gt;Node17</title>
<g id="a_edge36_Node000022_Node000017"><a xlink:title=" ">
<path fill="none" stroke="#63b8ff" d="M683.22,-279.62C658.67,-260.87 603.28,-218.55 572.72,-195.21"/>
<polygon fill="#63b8ff" stroke="#63b8ff" points="575.02,-192.56 564.95,-189.27 570.77,-198.13 575.02,-192.56"/>
</a>
</g>
</g>
<!-- Node23&#45;&gt;Node3 -->
<g id="edge38_Node000023_Node000003" class="edge">
<title>Node23&#45;&gt;Node3</title>
<g id="a_edge38_Node000023_Node000003"><a xlink:title=" ">
<path fill="none" stroke="#63b8ff" d="M896.4,-167.53C859.18,-158.52 802.99,-144.91 762.52,-135.11"/>
<polygon fill="#63b8ff" stroke="#63b8ff" points="763.57,-131.77 753.02,-132.81 761.92,-138.57 763.57,-131.77"/>
</a>
</g>
</g>
<!-- Node23&#45;&gt;Node6 -->
<g id="edge40_Node000023_Node000006" class="edge">
<title>Node23&#45;&gt;Node6</title>
<g id="a_edge40_Node000023_Node000006"><a xlink:title=" ">
<path fill="none" stroke="#63b8ff" d="M935.16,-167.77C934.38,-154.79 931.83,-130.65 923.5,-112 908.82,-79.14 881.37,-47.32 863.26,-28.45"/>
<polygon fill="#63b8ff" stroke="#63b8ff" points="865.79,-26.03 856.28,-21.36 860.8,-30.94 865.79,-26.03"/>
</a>
</g>
</g>
<!-- Node23&#45;&gt;Node7 -->
<g id="edge41_Node000023_Node000007" class="edge">
<title>Node23&#45;&gt;Node7</title>
<g id="a_edge41_Node000023_Node000007"><a xlink:title=" ">
<path fill="none" stroke="#63b8ff" d="M933.16,-167.66C929.17,-153.65 919.79,-127.22 902.5,-112 876.11,-88.76 836.88,-77.27 809.21,-71.76"/>
<polygon fill="#63b8ff" stroke="#63b8ff" points="810.09,-68.36 799.62,-70.02 808.84,-75.25 810.09,-68.36"/>
</a>
</g>
</g>
<!-- Node23&#45;&gt;Node9 -->
<g id="edge42_Node000023_Node000009" class="edge">
<title>Node23&#45;&gt;Node9</title>
<g id="a_edge42_Node000023_Node000009"><a xlink:title=" ">
<path fill="none" stroke="#63b8ff" d="M955.71,-167.59C973.73,-159.21 1000.37,-146.8 1020.98,-137.21"/>
<polygon fill="#63b8ff" stroke="#63b8ff" points="1022.18,-140.51 1029.76,-133.12 1019.22,-134.17 1022.18,-140.51"/>
</a>
</g>
</g>
<!-- Node23&#45;&gt;Node15 -->
<g id="edge39_Node000023_Node000015" class="edge">
<title>Node23&#45;&gt;Node15</title>
<g id="a_edge39_Node000023_Node000015"><a xlink:title=" ">
<path fill="none" stroke="#63b8ff" d="M920.87,-167.59C908.42,-159.59 890.28,-147.93 875.68,-138.54"/>
<polygon fill="#63b8ff" stroke="#63b8ff" points="877.82,-135.76 867.52,-133.3 874.04,-141.65 877.82,-135.76"/>
</a>
</g>
</g>
<!-- Node24&#45;&gt;Node8 -->
<g id="edge57_Node000024_Node000008" class="edge">
<title>Node24&#45;&gt;Node8</title>
<g id="a_edge57_Node000024_Node000008"><a xlink:title=" ">
<path fill="none" stroke="#63b8ff" d="M893,-391.53C854.36,-382.5 795.99,-368.85 754.05,-359.05"/>
<polygon fill="#63b8ff" stroke="#63b8ff" points="754.96,-355.67 744.43,-356.8 753.37,-362.49 754.96,-355.67"/>
</a>
</g>
</g>
<!-- Node24&#45;&gt;Node15 -->
<g id="edge45_Node000024_Node000015" class="edge">
<title>Node24&#45;&gt;Node15</title>
<g id="a_edge45_Node000024_Node000015"><a xlink:title=" ">
<path fill="none" stroke="#63b8ff" d="M930.77,-391.75C919.17,-352.42 873.79,-198.58 857.43,-143.09"/>
<polygon fill="#63b8ff" stroke="#63b8ff" points="860.85,-142.34 854.67,-133.74 854.14,-144.32 860.85,-142.34"/>
</a>
</g>
</g>
<!-- Node24&#45;&gt;Node20 -->
<g id="edge56_Node000024_Node000020" class="edge">
<title>Node24&#45;&gt;Node20</title>
<g id="a_edge56_Node000024_Node000020"><a xlink:title=" ">
<path fill="none" stroke="#63b8ff" d="M924.89,-391.6C900.33,-364.78 829.64,-287.57 797.61,-252.6"/>
<polygon fill="#63b8ff" stroke="#63b8ff" points="800.37,-250.43 791.04,-245.41 795.21,-255.15 800.37,-250.43"/>
</a>
</g>
</g>
<!-- Node25 -->
<g id="Node000025" class="node">
<title>Node25</title>
<g id="a_Node000025"><a xlink:href="_v_r_e___renderer_8h.html" target="_top" xlink:title=" ">
<polygon fill="white" stroke="#666666" points="1172.62,-244 1082.38,-244 1082.38,-224 1172.62,-224 1172.62,-244"/>
<text text-anchor="middle" x="1127.5" y="-230.5" font-family="Helvetica,sans-Serif" font-size="10.00">VRE_Renderer.h</text>
</a>
</g>
</g>
<!-- Node24&#45;&gt;Node25 -->
<g id="edge46_Node000024_Node000025" class="edge">
<title>Node24&#45;&gt;Node25</title>
<g id="a_edge46_Node000024_Node000025"><a xlink:title=" ">
<path fill="none" stroke="#63b8ff" d="M950.53,-391.58C965.35,-383.07 987.13,-369.79 1004.5,-356 1046.1,-322.97 1089.09,-277.63 1111.58,-252.89"/>
<polygon fill="#63b8ff" stroke="#63b8ff" points="1114.05,-255.39 1118.14,-245.61 1108.85,-250.7 1114.05,-255.39"/>
</a>
</g>
</g>
<!-- Node27 -->
<g id="Node000027" class="node">
<title>Node27</title>
<g id="a_Node000027"><a xlink:href="_v_r_e___point_light_8h.html" target="_top" xlink:title=" ">
<polygon fill="white" stroke="#666666" points="1056.5,-244 962.5,-244 962.5,-224 1056.5,-224 1056.5,-244"/>
<text text-anchor="middle" x="1009.5" y="-230.5" font-family="Helvetica,sans-Serif" font-size="10.00">VRE_PointLight.h</text>
</a>
</g>
</g>
<!-- Node24&#45;&gt;Node27 -->
<g id="edge53_Node000024_Node000027" class="edge">
<title>Node24&#45;&gt;Node27</title>
<g id="a_edge53_Node000024_Node000027"><a xlink:title=" ">
<path fill="none" stroke="#63b8ff" d="M949.2,-391.56C961.06,-383.59 976.74,-371.07 985.5,-356 1003.92,-324.31 1008.44,-280.9 1009.41,-255.62"/>
<polygon fill="#63b8ff" stroke="#63b8ff" points="1012.91,-255.79 1009.62,-245.72 1005.91,-255.64 1012.91,-255.79"/>
</a>
</g>
</g>
<!-- Node25&#45;&gt;Node3 -->
<g id="edge48_Node000025_Node000003" class="edge">
<title>Node25&#45;&gt;Node3</title>
<g id="a_edge48_Node000025_Node000003"><a xlink:title=" ">
<path fill="none" stroke="#63b8ff" d="M1082.09,-225.98C1020.64,-216.28 914.34,-198.77 876.5,-188 828.47,-174.32 775.08,-151.7 742.66,-137.07"/>
<polygon fill="#63b8ff" stroke="#63b8ff" points="744.43,-134.03 733.88,-133.07 741.53,-140.4 744.43,-134.03"/>
</a>
</g>
</g>
<!-- Node25&#45;&gt;Node4 -->
<g id="edge47_Node000025_Node000004" class="edge">
<title>Node25&#45;&gt;Node4</title>
<g id="a_edge47_Node000025_Node000004"><a xlink:title=" ">
<path fill="none" stroke="#63b8ff" d="M1170.81,-223.5C1204.72,-213.75 1243.78,-196.01 1228.5,-168 1199.67,-115.16 1132.46,-89.21 1084.34,-77"/>
<polygon fill="#63b8ff" stroke="#63b8ff" points="1085.18,-73.61 1074.64,-74.68 1083.55,-80.41 1085.18,-73.61"/>
</a>
</g>
</g>
<!-- Node25&#45;&gt;Node7 -->
<g id="edge51_Node000025_Node000007" class="edge">
<title>Node25&#45;&gt;Node7</title>
<g id="a_edge51_Node000025_Node000007"><a xlink:title=" ">
<path fill="none" stroke="#63b8ff" d="M1127.42,-223.63C1126.66,-200.6 1121.28,-140.95 1086.5,-112 1044.91,-77.39 880.68,-69.39 809.59,-67.55"/>
<polygon fill="#63b8ff" stroke="#63b8ff" points="809.82,-64.06 799.74,-67.32 809.66,-71.05 809.82,-64.06"/>
</a>
</g>
</g>
<!-- Node25&#45;&gt;Node9 -->
<g id="edge50_Node000025_Node000009" class="edge">
<title>Node25&#45;&gt;Node9</title>
<g id="a_edge50_Node000025_Node000009"><a xlink:title=" ">
<path fill="none" stroke="#63b8ff" d="M1158.83,-223.56C1190.12,-212.48 1231.09,-192.49 1212.5,-168 1197.59,-148.35 1131.47,-134.95 1088.74,-128.17"/>
<polygon fill="#63b8ff" stroke="#63b8ff" points="1089.28,-124.71 1078.87,-126.66 1088.22,-131.63 1089.28,-124.71"/>
</a>
</g>
</g>
<!-- Node25&#45;&gt;Node23 -->
<g id="edge49_Node000025_Node000023" class="edge">
<title>Node25&#45;&gt;Node23</title>
<g id="a_edge49_Node000025_Node000023"><a xlink:title=" ">
<path fill="none" stroke="#63b8ff" d="M1094.06,-223.59C1062.45,-214.71 1014.82,-201.31 980.02,-191.52"/>
<polygon fill="#63b8ff" stroke="#63b8ff" points="981.24,-188.23 970.66,-188.89 979.34,-194.97 981.24,-188.23"/>
</a>
</g>
</g>
<!-- Node26 -->
<g id="Node000026" class="node">
<title>Node26</title>
<g id="a_Node000026"><a xlink:title=" ">
<polygon fill="#e0e0e0" stroke="#999999" points="1203.62,-188 1155.38,-188 1155.38,-168 1203.62,-168 1203.62,-188"/>
<text text-anchor="middle" x="1179.5" y="-174.5" font-family="Helvetica,sans-Serif" font-size="10.00">cassert</text>
</a>
</g>
</g>
<!-- Node25&#45;&gt;Node26 -->
<g id="edge52_Node000025_Node000026" class="edge">
<title>Node25&#45;&gt;Node26</title>
<g id="a_edge52_Node000025_Node000026"><a xlink:title=" ">
<path fill="none" stroke="#63b8ff" d="M1136.56,-223.59C1143.72,-216.16 1153.91,-205.58 1162.57,-196.58"/>
<polygon fill="#63b8ff" stroke="#63b8ff" points="1165.08,-199.02 1169.5,-189.39 1160.04,-194.16 1165.08,-199.02"/>
</a>
</g>
</g>
<!-- Node27&#45;&gt;Node9 -->
<g id="edge55_Node000027_Node000009" class="edge">
<title>Node27&#45;&gt;Node9</title>
<g id="a_edge55_Node000027_Node000009"><a xlink:title=" ">
<path fill="none" stroke="#63b8ff" d="M1028.65,-223.52C1041.68,-215.9 1057.9,-203.86 1065.5,-188 1072.44,-173.52 1067.71,-155.59 1061.94,-142.24"/>
<polygon fill="#63b8ff" stroke="#63b8ff" points="1065.27,-141.08 1057.74,-133.63 1058.98,-144.15 1065.27,-141.08"/>
</a>
</g>
</g>
<!-- Node27&#45;&gt;Node17 -->
<g id="edge54_Node000027_Node000017" class="edge">
<title>Node27&#45;&gt;Node17</title>
<g id="a_edge54_Node000027_Node000017"><a xlink:title=" ">
<path fill="none" stroke="#63b8ff" d="M962.24,-230.23C885.72,-225.25 729.85,-213.07 588.07,-188.01"/>
<polygon fill="#63b8ff" stroke="#63b8ff" points="588.97,-184.61 578.51,-186.29 587.73,-191.5 588.97,-184.61"/>
</a>
</g>
</g>
</g>
</svg>
