<?xml version="1.0" encoding="UTF-8" standalone="no"?>
<!DOCTYPE svg PUBLIC "-//W3C//DTD SVG 1.1//EN"
 "http://www.w3.org/Graphics/SVG/1.1/DTD/svg11.dtd">
<!-- Generated by graphviz version 12.1.2 (20240928.0832)
 -->
<!-- Title: ReSTIRVulkan/VRE_Window.cpp Pages: 1 -->
<svg width="187pt" height="140pt"
 viewBox="0.00 0.00 187.25 140.00" xmlns="http://www.w3.org/2000/svg" xmlns:xlink="http://www.w3.org/1999/xlink">

<svg id="main" version="1.1" xmlns="http://www.w3.org/2000/svg" xmlns:xlink="http://www.w3.org/1999/xlink" xml:space="preserve">

<style type="text/css"><![CDATA[
.node, .edge {opacity: 0.7;}
.node.selected, .edge.selected {opacity: 1;}
.edge:hover path { stroke: red; }
.edge:hover polygon { stroke: red; fill: red; }
]]></style>
<script type="application/ecmascript" xlink:href="svg.min.js"/>
<svg id="graph" class="graph">
<g id="graph0" class="graph" transform="scale(1 1) rotate(0) translate(4 136)">
<title>ReSTIRVulkan/VRE_Window.cpp</title>
<!-- Node1 -->
<g id="Node000001" class="node">
<title>Node1</title>
<g id="a_Node000001"><a xlink:title=" ">
<polygon fill="#999999" stroke="#666666" points="179.25,-132 16.25,-132 16.25,-112 179.25,-112 179.25,-132"/>
<text text-anchor="middle" x="97.75" y="-118.5" font-family="Helvetica,sans-Serif" font-size="10.00">ReSTIRVulkan/VRE_Window.cpp</text>
</a>
</g>
</g>
<!-- Node2 -->
<g id="Node000002" class="node">
<title>Node2</title>
<g id="a_Node000002"><a xlink:href="_v_r_e___window_8h.html" target="_top" xlink:title=" ">
<polygon fill="white" stroke="#666666" points="97.25,-76 12.25,-76 12.25,-56 97.25,-56 97.25,-76"/>
<text text-anchor="middle" x="54.75" y="-62.5" font-family="Helvetica,sans-Serif" font-size="10.00">VRE_Window.h</text>
</a>
</g>
</g>
<!-- Node1&#45;&gt;Node2 -->
<g id="edge1_Node000001_Node000002" class="edge">
<title>Node1&#45;&gt;Node2</title>
<g id="a_edge1_Node000001_Node000002"><a xlink:title=" ">
<path fill="none" stroke="#63b8ff" d="M90.26,-111.59C84.46,-104.32 76.26,-94.02 69.2,-85.15"/>
<polygon fill="#63b8ff" stroke="#63b8ff" points="72.06,-83.12 63.1,-77.48 66.59,-87.49 72.06,-83.12"/>
</a>
</g>
</g>
<!-- Node5 -->
<g id="Node000005" class="node">
<title>Node5</title>
<g id="a_Node000005"><a xlink:title=" ">
<polygon fill="#e0e0e0" stroke="#999999" points="168.5,-76 115,-76 115,-56 168.5,-56 168.5,-76"/>
<text text-anchor="middle" x="141.75" y="-62.5" font-family="Helvetica,sans-Serif" font-size="10.00">iostream</text>
</a>
</g>
</g>
<!-- Node1&#45;&gt;Node5 -->
<g id="edge4_Node000001_Node000005" class="edge">
<title>Node1&#45;&gt;Node5</title>
<g id="a_edge4_Node000001_Node000005"><a xlink:title=" ">
<path fill="none" stroke="#63b8ff" d="M105.41,-111.59C111.34,-104.32 119.74,-94.02 126.96,-85.15"/>
<polygon fill="#63b8ff" stroke="#63b8ff" points="129.61,-87.43 133.22,-77.47 124.19,-83.01 129.61,-87.43"/>
</a>
</g>
</g>
<!-- Node3 -->
<g id="Node000003" class="node">
<title>Node3</title>
<g id="a_Node000003"><a xlink:title=" ">
<polygon fill="#e0e0e0" stroke="#999999" points="47.5,-20 0,-20 0,0 47.5,0 47.5,-20"/>
<text text-anchor="middle" x="23.75" y="-6.5" font-family="Helvetica,sans-Serif" font-size="10.00">glfw3.h</text>
</a>
</g>
</g>
<!-- Node2&#45;&gt;Node3 -->
<g id="edge2_Node000002_Node000003" class="edge">
<title>Node2&#45;&gt;Node3</title>
<g id="a_edge2_Node000002_Node000003"><a xlink:title=" ">
<path fill="none" stroke="#63b8ff" d="M49.35,-55.59C45.31,-48.55 39.63,-38.67 34.66,-30"/>
<polygon fill="#63b8ff" stroke="#63b8ff" points="37.86,-28.54 29.84,-21.61 31.78,-32.03 37.86,-28.54"/>
</a>
</g>
</g>
<!-- Node4 -->
<g id="Node000004" class="node">
<title>Node4</title>
<g id="a_Node000004"><a xlink:title=" ">
<polygon fill="#e0e0e0" stroke="#999999" points="105.75,-20 65.75,-20 65.75,0 105.75,0 105.75,-20"/>
<text text-anchor="middle" x="85.75" y="-6.5" font-family="Helvetica,sans-Serif" font-size="10.00">string</text>
</a>
</g>
</g>
<!-- Node2&#45;&gt;Node4 -->
<g id="edge3_Node000002_Node000004" class="edge">
<title>Node2&#45;&gt;Node4</title>
<g id="a_edge3_Node000002_Node000004"><a xlink:title=" ">
<path fill="none" stroke="#63b8ff" d="M60.15,-55.59C64.19,-48.55 69.87,-38.67 74.84,-30"/>
<polygon fill="#63b8ff" stroke="#63b8ff" points="77.72,-32.03 79.66,-21.61 71.64,-28.54 77.72,-32.03"/>
</a>
</g>
</g>
</g>
</svg>
</svg>

<style type='text/css'>
<![CDATA[
[data-mouse-over-selected='false'] { opacity: 0.7; }
[data-mouse-over-selected='true']  { opacity: 1.0; }
]]>
</style>
<script type="application/ecmascript"><![CDATA[
document.addEventListener('DOMContentLoaded', (event) => {
  highlightEdges();
  highlightAdjacentNodes();
});
]]></script>
</svg>
