<?xml version="1.0" encoding="UTF-8" standalone="no"?>
<!DOCTYPE svg PUBLIC "-//W3C//DTD SVG 1.1//EN"
 "http://www.w3.org/Graphics/SVG/1.1/DTD/svg11.dtd">
<!-- Generated by graphviz version 12.1.2 (20240928.0832)
 -->
<!-- Title: ReSTIRVulkan/VRE_GameObjectManager.h Pages: 1 -->
<!--zoomable 488 -->

<svg id="main" version="1.1" xmlns="http://www.w3.org/2000/svg" xmlns:xlink="http://www.w3.org/1999/xlink" xml:space="preserve" onload="init(evt)">

<style type="text/css"><![CDATA[
.node, .edge {opacity: 0.7;}
.node.selected, .edge.selected {opacity: 1;}
.edge:hover path { stroke: red; }
.edge:hover polygon { stroke: red; fill: red; }
]]></style>

<defs>
  <circle id="rim" cx="0" cy="0" r="7"/>
  <circle id="rim2" cx="0" cy="0" r="3.5"/>
  <g id="zoomPlus">
    <use xlink:href="#rim" fill="#404040"><set attributeName="fill" to="#808080" begin="zoomplus.mouseover" end="zoomplus.mouseout"/></use>
    <path d="M-4,0h8M0,-4v8" fill="none" stroke="white" stroke-width="1.5" pointer-events="none"/>
  </g>
  <g id="zoomMin">
    <use xlink:href="#rim" fill="#404040"><set attributeName="fill" to="#808080" begin="zoomminus.mouseover" end="zoomminus.mouseout"/></use>
    <path d="M-4,0h8" fill="none" stroke="white" stroke-width="1.5" pointer-events="none"/>
  </g>
  <g id="arrowUp" transform="translate(30 24)">
    <use xlink:href="#rim"/>
    <path pointer-events="none" fill="none" stroke="white" stroke-width="1.5" d="M0,-3.0v7 M-2.5,-0.5L0,-3.0L2.5,-0.5"/>
  </g>
  <g id="arrowRight" transform="rotate(90) translate(36 -43)">
    <use xlink:href="#rim"/>
    <path pointer-events="none" fill="none" stroke="white" stroke-width="1.5" d="M0,-3.0v7 M-2.5,-0.5L0,-3.0L2.5,-0.5"/>
  </g>
  <g id="arrowDown" transform="rotate(180) translate(-30 -48)">
    <use xlink:href="#rim"/>
    <path pointer-events="none" fill="none" stroke="white" stroke-width="1.5" d="M0,-3.0v7 M-2.5,-0.5L0,-3.0L2.5,-0.5"/>
  </g>
  <g id="arrowLeft" transform="rotate(270) translate(-36 17)">
    <use xlink:href="#rim"/>
    <path pointer-events="none" fill="none" stroke="white" stroke-width="1.5" d="M0,-3.0v7 M-2.5,-0.5L0,-3.0L2.5,-0.5"/>
  </g>
  <g id="resetDef">
    <use xlink:href="#rim2" fill="#404040"><set attributeName="fill" to="#808080" begin="reset.mouseover" end="reset.mouseout"/></use>
  </g>
</defs>
<script type="application/ecmascript">
var viewWidth = 1239;
var viewHeight = 488;
var sectionId = 'dynsection-0';
</script>
<script type="application/ecmascript" xlink:href="svg.min.js"/>
<svg id="graph" class="graph">
<g id="viewport">
<title>ReSTIRVulkan/VRE_GameObjectManager.h</title>
<!-- Node1 -->
<g id="Node000001" class="node">
<title>Node1</title>
<g id="a_Node000001"><a xlink:title=" ">
<polygon fill="#999999" stroke="#666666" points="595.25,-480 430.75,-480 430.75,-448 595.25,-448 595.25,-480"/>
<text text-anchor="start" x="438.75" y="-466.5" font-family="Helvetica,sans-Serif" font-size="10.00">ReSTIRVulkan/VRE_GameObject</text>
<text text-anchor="middle" x="513" y="-454.5" font-family="Helvetica,sans-Serif" font-size="10.00">Manager.h</text>
</a>
</g>
</g>
<!-- Node2 -->
<g id="Node000002" class="node">
<title>Node2</title>
<g id="a_Node000002"><a xlink:href="_v_r_e___device_8h.html" target="_top" xlink:title=" ">
<polygon fill="white" stroke="#666666" points="871.62,-132 790.38,-132 790.38,-112 871.62,-112 871.62,-132"/>
<text text-anchor="middle" x="831" y="-118.5" font-family="Helvetica,sans-Serif" font-size="10.00">VRE_Device.h</text>
</a>
</g>
</g>
<!-- Node1&#45;&gt;Node2 -->
<g id="edge1_Node000001_Node000002" class="edge">
<title>Node1&#45;&gt;Node2</title>
<g id="a_edge1_Node000001_Node000002"><a xlink:title=" ">
<path fill="none" stroke="#63b8ff" d="M595.72,-455.61C761.14,-439.73 1117,-399.45 1117,-347 1117,-347 1117,-347 1117,-233 1117,-199.54 1106.42,-187.19 1079,-168 1071,-162.4 953.51,-142.72 883.15,-131.32"/>
<polygon fill="#63b8ff" stroke="#63b8ff" points="883.8,-127.88 873.37,-129.74 882.68,-134.79 883.8,-127.88"/>
</a>
</g>
</g>
<!-- Node7 -->
<g id="Node000007" class="node">
<title>Node7</title>
<g id="a_Node000007"><a xlink:href="_v_r_e___game_object_8h.html" target="_top" xlink:title=" ">
<polygon fill="white" stroke="#666666" points="479.62,-356 374.38,-356 374.38,-336 479.62,-336 479.62,-356"/>
<text text-anchor="middle" x="427" y="-342.5" font-family="Helvetica,sans-Serif" font-size="10.00">VRE_GameObject.h</text>
</a>
</g>
</g>
<!-- Node1&#45;&gt;Node7 -->
<g id="edge7_Node000001_Node000007" class="edge">
<title>Node1&#45;&gt;Node7</title>
<g id="a_edge7_Node000001_Node000007"><a xlink:title=" ">
<path fill="none" stroke="#63b8ff" d="M485.11,-447.57C471.54,-438.77 456.02,-426.58 446,-412 436.82,-398.65 432.02,-380.83 429.54,-367.23"/>
<polygon fill="#63b8ff" stroke="#63b8ff" points="433.05,-367.03 428.09,-357.67 426.13,-368.08 433.05,-367.03"/>
</a>
</g>
</g>
<!-- Node23 -->
<g id="Node000023" class="node">
<title>Node23</title>
<g id="a_Node000023"><a xlink:href="_v_r_e___shared_context_8h.html" target="_top" xlink:title=" ">
<polygon fill="white" stroke="#666666" points="570.88,-412 455.12,-412 455.12,-392 570.88,-392 570.88,-412"/>
<text text-anchor="middle" x="513" y="-398.5" font-family="Helvetica,sans-Serif" font-size="10.00">VRE_SharedContext.h</text>
</a>
</g>
</g>
<!-- Node1&#45;&gt;Node23 -->
<g id="edge42_Node000001_Node000023" class="edge">
<title>Node1&#45;&gt;Node23</title>
<g id="a_edge42_Node000001_Node000023"><a xlink:title=" ">
<path fill="none" stroke="#63b8ff" d="M513,-447.55C513,-440.34 513,-431.66 513,-423.88"/>
<polygon fill="#63b8ff" stroke="#63b8ff" points="516.5,-423.92 513,-413.92 509.5,-423.92 516.5,-423.92"/>
</a>
</g>
</g>
<!-- Node3 -->
<g id="Node000003" class="node">
<title>Node3</title>
<g id="a_Node000003"><a xlink:href="_v_r_e___window_8h.html" target="_top" xlink:title=" ">
<polygon fill="white" stroke="#666666" points="354.5,-76 269.5,-76 269.5,-56 354.5,-56 354.5,-76"/>
<text text-anchor="middle" x="312" y="-62.5" font-family="Helvetica,sans-Serif" font-size="10.00">VRE_Window.h</text>
</a>
</g>
</g>
<!-- Node2&#45;&gt;Node3 -->
<g id="edge2_Node000002_Node000003" class="edge">
<title>Node2&#45;&gt;Node3</title>
<g id="a_edge2_Node000002_Node000003"><a xlink:title=" ">
<path fill="none" stroke="#63b8ff" d="M790.27,-116.76C697.45,-107.1 470.19,-83.46 365.9,-72.61"/>
<polygon fill="#63b8ff" stroke="#63b8ff" points="366.52,-69.15 356.21,-71.6 365.8,-76.12 366.52,-69.15"/>
</a>
</g>
</g>
<!-- Node5 -->
<g id="Node000005" class="node">
<title>Node5</title>
<g id="a_Node000005"><a xlink:title=" ">
<polygon fill="#e0e0e0" stroke="#999999" points="605,-20 565,-20 565,0 605,0 605,-20"/>
<text text-anchor="middle" x="585" y="-6.5" font-family="Helvetica,sans-Serif" font-size="10.00">string</text>
</a>
</g>
</g>
<!-- Node2&#45;&gt;Node5 -->
<g id="edge5_Node000002_Node000005" class="edge">
<title>Node2&#45;&gt;Node5</title>
<g id="a_edge5_Node000002_Node000005"><a xlink:title=" ">
<path fill="none" stroke="#63b8ff" d="M818.6,-111.68C799.84,-97.92 762.73,-72.09 728,-56 690.89,-38.81 645.46,-25.76 615.9,-18.26"/>
<polygon fill="#63b8ff" stroke="#63b8ff" points="617.05,-14.93 606.5,-15.93 615.36,-21.73 617.05,-14.93"/>
</a>
</g>
</g>
<!-- Node6 -->
<g id="Node000006" class="node">
<title>Node6</title>
<g id="a_Node000006"><a xlink:title=" ">
<polygon fill="#e0e0e0" stroke="#999999" points="718.5,-76 675.5,-76 675.5,-56 718.5,-56 718.5,-76"/>
<text text-anchor="middle" x="697" y="-62.5" font-family="Helvetica,sans-Serif" font-size="10.00">vector</text>
</a>
</g>
</g>
<!-- Node2&#45;&gt;Node6 -->
<g id="edge6_Node000002_Node000006" class="edge">
<title>Node2&#45;&gt;Node6</title>
<g id="a_edge6_Node000002_Node000006"><a xlink:title=" ">
<path fill="none" stroke="#63b8ff" d="M807.66,-111.59C785.94,-102.84 753.38,-89.72 729.2,-79.97"/>
<polygon fill="#63b8ff" stroke="#63b8ff" points="730.73,-76.82 720.15,-76.33 728.11,-83.31 730.73,-76.82"/>
</a>
</g>
</g>
<!-- Node4 -->
<g id="Node000004" class="node">
<title>Node4</title>
<g id="a_Node000004"><a xlink:title=" ">
<polygon fill="#e0e0e0" stroke="#999999" points="335.75,-20 288.25,-20 288.25,0 335.75,0 335.75,-20"/>
<text text-anchor="middle" x="312" y="-6.5" font-family="Helvetica,sans-Serif" font-size="10.00">glfw3.h</text>
</a>
</g>
</g>
<!-- Node3&#45;&gt;Node4 -->
<g id="edge3_Node000003_Node000004" class="edge">
<title>Node3&#45;&gt;Node4</title>
<g id="a_edge3_Node000003_Node000004"><a xlink:title=" ">
<path fill="none" stroke="#63b8ff" d="M312,-55.59C312,-49.01 312,-39.96 312,-31.73"/>
<polygon fill="#63b8ff" stroke="#63b8ff" points="315.5,-31.81 312,-21.81 308.5,-31.81 315.5,-31.81"/>
</a>
</g>
</g>
<!-- Node3&#45;&gt;Node5 -->
<g id="edge4_Node000003_Node000005" class="edge">
<title>Node3&#45;&gt;Node5</title>
<g id="a_edge4_Node000003_Node000005"><a xlink:title=" ">
<path fill="none" stroke="#63b8ff" d="M354.96,-56.5C410.17,-45.58 504.72,-26.88 553.63,-17.2"/>
<polygon fill="#63b8ff" stroke="#63b8ff" points="554.14,-20.67 563.27,-15.3 552.78,-13.81 554.14,-20.67"/>
</a>
</g>
</g>
<!-- Node8 -->
<g id="Node000008" class="node">
<title>Node8</title>
<g id="a_Node000008"><a xlink:title=" ">
<polygon fill="#e0e0e0" stroke="#999999" points="500.62,-132 449.38,-132 449.38,-112 500.62,-112 500.62,-132"/>
<text text-anchor="middle" x="475" y="-118.5" font-family="Helvetica,sans-Serif" font-size="10.00">memory</text>
</a>
</g>
</g>
<!-- Node7&#45;&gt;Node8 -->
<g id="edge8_Node000007_Node000008" class="edge">
<title>Node7&#45;&gt;Node8</title>
<g id="a_edge8_Node000007_Node000008"><a xlink:title=" ">
<path fill="none" stroke="#63b8ff" d="M393.92,-335.65C376.38,-328.82 356.36,-317.61 346,-300 328.83,-270.81 273.57,-276.62 356,-168 366.26,-154.48 407.06,-140.98 438.05,-132.35"/>
<polygon fill="#63b8ff" stroke="#63b8ff" points="438.76,-135.78 447.49,-129.79 436.93,-129.03 438.76,-135.78"/>
</a>
</g>
</g>
<!-- Node9 -->
<g id="Node000009" class="node">
<title>Node9</title>
<g id="a_Node000009"><a xlink:title=" ">
<polygon fill="#e0e0e0" stroke="#999999" points="447.38,-188 364.62,-188 364.62,-168 447.38,-168 447.38,-188"/>
<text text-anchor="middle" x="406" y="-174.5" font-family="Helvetica,sans-Serif" font-size="10.00">unordered_map</text>
</a>
</g>
</g>
<!-- Node7&#45;&gt;Node9 -->
<g id="edge9_Node000007_Node000009" class="edge">
<title>Node7&#45;&gt;Node9</title>
<g id="a_edge9_Node000007_Node000009"><a xlink:title=" ">
<path fill="none" stroke="#63b8ff" d="M400.06,-335.6C384.15,-328.49 365.36,-317.01 356,-300 336.67,-264.86 367.74,-220.67 388.92,-196.61"/>
<polygon fill="#63b8ff" stroke="#63b8ff" points="391.22,-199.28 395.4,-189.55 386.06,-194.55 391.22,-199.28"/>
</a>
</g>
</g>
<!-- Node10 -->
<g id="Node000010" class="node">
<title>Node10</title>
<g id="a_Node000010"><a xlink:title=" ">
<polygon fill="#e0e0e0" stroke="#999999" points="489.38,-300 364.62,-300 364.62,-280 489.38,-280 489.38,-300"/>
<text text-anchor="middle" x="427" y="-286.5" font-family="Helvetica,sans-Serif" font-size="10.00">gtc/matrix_transform.hpp</text>
</a>
</g>
</g>
<!-- Node7&#45;&gt;Node10 -->
<g id="edge10_Node000007_Node000010" class="edge">
<title>Node7&#45;&gt;Node10</title>
<g id="a_edge10_Node000007_Node000010"><a xlink:title=" ">
<path fill="none" stroke="#63b8ff" d="M427,-335.59C427,-329.01 427,-319.96 427,-311.73"/>
<polygon fill="#63b8ff" stroke="#63b8ff" points="430.5,-311.81 427,-301.81 423.5,-311.81 430.5,-311.81"/>
</a>
</g>
</g>
<!-- Node11 -->
<g id="Node000011" class="node">
<title>Node11</title>
<g id="a_Node000011"><a xlink:href="_v_r_e__gl_t_f_model_8h.html" target="_top" xlink:title=" ">
<polygon fill="white" stroke="#666666" points="914.12,-300 817.88,-300 817.88,-280 914.12,-280 914.12,-300"/>
<text text-anchor="middle" x="866" y="-286.5" font-family="Helvetica,sans-Serif" font-size="10.00">VRE_glTFModel.h</text>
</a>
</g>
</g>
<!-- Node7&#45;&gt;Node11 -->
<g id="edge11_Node000007_Node000011" class="edge">
<title>Node7&#45;&gt;Node11</title>
<g id="a_edge11_Node000007_Node000011"><a xlink:title=" ">
<path fill="none" stroke="#63b8ff" d="M479.95,-338.49C562.15,-328.38 719.93,-308.97 806.15,-298.36"/>
<polygon fill="#63b8ff" stroke="#63b8ff" points="806.57,-301.84 816.07,-297.14 805.71,-294.89 806.57,-301.84"/>
</a>
</g>
</g>
<!-- Node21 -->
<g id="Node000021" class="node">
<title>Node21</title>
<g id="a_Node000021"><a xlink:href="_v_r_e___object_components_8h.html" target="_top" xlink:title=" ">
<polygon fill="white" stroke="#666666" points="679.25,-300 544.75,-300 544.75,-280 679.25,-280 679.25,-300"/>
<text text-anchor="middle" x="612" y="-286.5" font-family="Helvetica,sans-Serif" font-size="10.00">VRE_ObjectComponents.h</text>
</a>
</g>
</g>
<!-- Node7&#45;&gt;Node21 -->
<g id="edge34_Node000007_Node000021" class="edge">
<title>Node7&#45;&gt;Node21</title>
<g id="a_edge34_Node000007_Node000021"><a xlink:title=" ">
<path fill="none" stroke="#63b8ff" d="M459.22,-335.59C489.55,-326.74 535.17,-313.43 568.67,-303.65"/>
<polygon fill="#63b8ff" stroke="#63b8ff" points="569.45,-307.07 578.07,-300.9 567.49,-300.35 569.45,-307.07"/>
</a>
</g>
</g>
<!-- Node22 -->
<g id="Node000022" class="node">
<title>Node22</title>
<g id="a_Node000022"><a xlink:href="_v_r_e___swap_chain_8h.html" target="_top" xlink:title=" ">
<polygon fill="white" stroke="#666666" points="233.38,-188 132.62,-188 132.62,-168 233.38,-168 233.38,-188"/>
<text text-anchor="middle" x="183" y="-174.5" font-family="Helvetica,sans-Serif" font-size="10.00">VRE_SwapChain.h</text>
</a>
</g>
</g>
<!-- Node7&#45;&gt;Node22 -->
<g id="edge36_Node000007_Node000022" class="edge">
<title>Node7&#45;&gt;Node22</title>
<g id="a_edge36_Node000007_Node000022"><a xlink:title=" ">
<path fill="none" stroke="#63b8ff" d="M373.95,-337.3C345.32,-331.03 310.7,-319.83 285,-300 253.37,-275.59 263.33,-254.04 237,-224 227.73,-213.43 215.87,-203.26 205.63,-195.27"/>
<polygon fill="#63b8ff" stroke="#63b8ff" points="207.74,-192.48 197.65,-189.25 203.52,-198.07 207.74,-192.48"/>
</a>
</g>
</g>
<!-- Node11&#45;&gt;Node2 -->
<g id="edge12_Node000011_Node000002" class="edge">
<title>Node11&#45;&gt;Node2</title>
<g id="a_edge12_Node000011_Node000002"><a xlink:title=" ">
<path fill="none" stroke="#63b8ff" d="M912.39,-279.53C983.57,-262.95 1106.84,-224.94 1060,-168 1054.35,-161.13 948.71,-142.51 882.91,-131.5"/>
<polygon fill="#63b8ff" stroke="#63b8ff" points="883.85,-128.11 873.41,-129.91 882.7,-135.01 883.85,-128.11"/>
</a>
</g>
</g>
<!-- Node12 -->
<g id="Node000012" class="node">
<title>Node12</title>
<g id="a_Node000012"><a xlink:href="_v_r_e___buffer_8h.html" target="_top" xlink:title=" ">
<polygon fill="white" stroke="#666666" points="1051,-188 975,-188 975,-168 1051,-168 1051,-188"/>
<text text-anchor="middle" x="1013" y="-174.5" font-family="Helvetica,sans-Serif" font-size="10.00">VRE_Buffer.h</text>
</a>
</g>
</g>
<!-- Node11&#45;&gt;Node12 -->
<g id="edge13_Node000011_Node000012" class="edge">
<title>Node11&#45;&gt;Node12</title>
<g id="a_edge13_Node000011_Node000012"><a xlink:title=" ">
<path fill="none" stroke="#63b8ff" d="M881.96,-279.56C896.41,-270.82 918.1,-257.22 936,-244 956.74,-228.68 979.13,-209.45 994.39,-195.89"/>
<polygon fill="#63b8ff" stroke="#63b8ff" points="996.65,-198.56 1001.76,-189.28 991.98,-193.35 996.65,-198.56"/>
</a>
</g>
</g>
<!-- Node13 -->
<g id="Node000013" class="node">
<title>Node13</title>
<g id="a_Node000013"><a xlink:href="_v_r_e___model_properties_8h.html" target="_top" xlink:title=" ">
<polygon fill="white" stroke="#666666" points="926.5,-244 805.5,-244 805.5,-224 926.5,-224 926.5,-244"/>
<text text-anchor="middle" x="866" y="-230.5" font-family="Helvetica,sans-Serif" font-size="10.00">VRE_ModelProperties.h</text>
</a>
</g>
</g>
<!-- Node11&#45;&gt;Node13 -->
<g id="edge15_Node000011_Node000013" class="edge">
<title>Node11&#45;&gt;Node13</title>
<g id="a_edge15_Node000011_Node000013"><a xlink:title=" ">
<path fill="none" stroke="#63b8ff" d="M866,-279.59C866,-273.01 866,-263.96 866,-255.73"/>
<polygon fill="#63b8ff" stroke="#63b8ff" points="869.5,-255.81 866,-245.81 862.5,-255.81 869.5,-255.81"/>
</a>
</g>
</g>
<!-- Node18 -->
<g id="Node000018" class="node">
<title>Node18</title>
<g id="a_Node000018"><a xlink:href="_v_r_e___pipeline_8h.html" target="_top" xlink:title=" ">
<polygon fill="white" stroke="#666666" points="1230.5,-188 1145.5,-188 1145.5,-168 1230.5,-168 1230.5,-188"/>
<text text-anchor="middle" x="1188" y="-174.5" font-family="Helvetica,sans-Serif" font-size="10.00">VRE_Pipeline.h</text>
</a>
</g>
</g>
<!-- Node11&#45;&gt;Node18 -->
<g id="edge24_Node000011_Node000018" class="edge">
<title>Node11&#45;&gt;Node18</title>
<g id="a_edge24_Node000011_Node000018"><a xlink:title=" ">
<path fill="none" stroke="#63b8ff" d="M914.62,-280.5C953.31,-273 1008.48,-260.67 1055,-244 1093.49,-230.21 1135.5,-208.45 1161.79,-193.96"/>
<polygon fill="#63b8ff" stroke="#63b8ff" points="1163.37,-197.09 1170.4,-189.16 1159.96,-190.98 1163.37,-197.09"/>
</a>
</g>
</g>
<!-- Node19 -->
<g id="Node000019" class="node">
<title>Node19</title>
<g id="a_Node000019"><a xlink:href="_v_r_e___descriptor_8h.html" target="_top" xlink:title=" ">
<polygon fill="white" stroke="#666666" points="710.75,-244 615.25,-244 615.25,-224 710.75,-224 710.75,-244"/>
<text text-anchor="middle" x="663" y="-230.5" font-family="Helvetica,sans-Serif" font-size="10.00">VRE_Descriptor.h</text>
</a>
</g>
</g>
<!-- Node11&#45;&gt;Node19 -->
<g id="edge28_Node000011_Node000019" class="edge">
<title>Node11&#45;&gt;Node19</title>
<g id="a_edge28_Node000011_Node000019"><a xlink:title=" ">
<path fill="none" stroke="#63b8ff" d="M830.64,-279.59C797.08,-270.67 746.43,-257.19 709.59,-247.39"/>
<polygon fill="#63b8ff" stroke="#63b8ff" points="710.66,-244.06 700.1,-244.87 708.86,-250.82 710.66,-244.06"/>
</a>
</g>
</g>
<!-- Node20 -->
<g id="Node000020" class="node">
<title>Node20</title>
<g id="a_Node000020"><a xlink:title=" ">
<polygon fill="#e0e0e0" stroke="#999999" points="787.38,-244 728.62,-244 728.62,-224 787.38,-224 787.38,-244"/>
<text text-anchor="middle" x="758" y="-230.5" font-family="Helvetica,sans-Serif" font-size="10.00">tiny_gltf.h</text>
</a>
</g>
</g>
<!-- Node11&#45;&gt;Node20 -->
<g id="edge33_Node000011_Node000020" class="edge">
<title>Node11&#45;&gt;Node20</title>
<g id="a_edge33_Node000011_Node000020"><a xlink:title=" ">
<path fill="none" stroke="#63b8ff" d="M847.19,-279.59C830.64,-271.32 806.29,-259.14 787.21,-249.6"/>
<polygon fill="#63b8ff" stroke="#63b8ff" points="788.82,-246.5 778.31,-245.16 785.69,-252.76 788.82,-246.5"/>
</a>
</g>
</g>
<!-- Node12&#45;&gt;Node2 -->
<g id="edge14_Node000012_Node000002" class="edge">
<title>Node12&#45;&gt;Node2</title>
<g id="a_edge14_Node000012_Node000002"><a xlink:title=" ">
<path fill="none" stroke="#63b8ff" d="M981.3,-167.59C951.47,-158.74 906.58,-145.43 873.63,-135.65"/>
<polygon fill="#63b8ff" stroke="#63b8ff" points="874.98,-132.4 864.4,-132.91 872.99,-139.11 874.98,-132.4"/>
</a>
</g>
</g>
<!-- Node13&#45;&gt;Node6 -->
<g id="edge21_Node000013_Node000006" class="edge">
<title>Node13&#45;&gt;Node6</title>
<g id="a_edge21_Node000013_Node000006"><a xlink:title=" ">
<path fill="none" stroke="#63b8ff" d="M856.43,-223.6C829.01,-196.66 749.85,-118.92 714.46,-84.15"/>
<polygon fill="#63b8ff" stroke="#63b8ff" points="717.13,-81.87 707.55,-77.36 712.23,-86.86 717.13,-81.87"/>
</a>
</g>
</g>
<!-- Node13&#45;&gt;Node12 -->
<g id="edge20_Node000013_Node000012" class="edge">
<title>Node13&#45;&gt;Node12</title>
<g id="a_edge20_Node000013_Node000012"><a xlink:title=" ">
<path fill="none" stroke="#63b8ff" d="M891.61,-223.59C915.07,-214.97 950.07,-202.12 976.47,-192.42"/>
<polygon fill="#63b8ff" stroke="#63b8ff" points="977.59,-195.73 985.77,-189 975.18,-189.16 977.59,-195.73"/>
</a>
</g>
</g>
<!-- Node14 -->
<g id="Node000014" class="node">
<title>Node14</title>
<g id="a_Node000014"><a xlink:title=" ">
<polygon fill="#e0e0e0" stroke="#999999" points="225.12,-132 140.88,-132 140.88,-112 225.12,-112 225.12,-132"/>
<text text-anchor="middle" x="183" y="-118.5" font-family="Helvetica,sans-Serif" font-size="10.00">vulkan/vulkan.h</text>
</a>
</g>
</g>
<!-- Node13&#45;&gt;Node14 -->
<g id="edge16_Node000013_Node000014" class="edge">
<title>Node13&#45;&gt;Node14</title>
<g id="a_edge16_Node000013_Node000014"><a xlink:title=" ">
<path fill="none" stroke="#63b8ff" d="M827.35,-223.53C769.82,-209.72 658.1,-183.94 562,-168 446.75,-148.88 310.47,-134.75 236.8,-127.81"/>
<polygon fill="#63b8ff" stroke="#63b8ff" points="237.32,-124.34 227.03,-126.9 236.66,-131.31 237.32,-124.34"/>
</a>
</g>
</g>
<!-- Node15 -->
<g id="Node000015" class="node">
<title>Node15</title>
<g id="a_Node000015"><a xlink:href="_v_r_e___texture_8h.html" target="_top" xlink:title=" ">
<polygon fill="white" stroke="#666666" points="767.38,-188 684.62,-188 684.62,-168 767.38,-168 767.38,-188"/>
<text text-anchor="middle" x="726" y="-174.5" font-family="Helvetica,sans-Serif" font-size="10.00">VRE_Texture.h</text>
</a>
</g>
</g>
<!-- Node13&#45;&gt;Node15 -->
<g id="edge17_Node000013_Node000015" class="edge">
<title>Node13&#45;&gt;Node15</title>
<g id="a_edge17_Node000013_Node000015"><a xlink:title=" ">
<path fill="none" stroke="#63b8ff" d="M841.61,-223.59C819.37,-215.01 786.23,-202.23 761.13,-192.55"/>
<polygon fill="#63b8ff" stroke="#63b8ff" points="762.58,-189.36 751.99,-189.02 760.06,-195.89 762.58,-189.36"/>
</a>
</g>
</g>
<!-- Node16 -->
<g id="Node000016" class="node">
<title>Node16</title>
<g id="a_Node000016"><a xlink:title=" ">
<polygon fill="#e0e0e0" stroke="#999999" points="553.25,-188 502.75,-188 502.75,-168 553.25,-168 553.25,-188"/>
<text text-anchor="middle" x="528" y="-174.5" font-family="Helvetica,sans-Serif" font-size="10.00">glm.hpp</text>
</a>
</g>
</g>
<!-- Node13&#45;&gt;Node16 -->
<g id="edge22_Node000013_Node000016" class="edge">
<title>Node13&#45;&gt;Node16</title>
<g id="a_edge22_Node000013_Node000016"><a xlink:title=" ">
<path fill="none" stroke="#63b8ff" d="M805.2,-224.42C731.43,-213.9 611.41,-196.45 567,-188 566.18,-187.84 565.35,-187.68 564.52,-187.52"/>
<polygon fill="#63b8ff" stroke="#63b8ff" points="565.52,-184.15 555.01,-185.5 564.07,-191 565.52,-184.15"/>
</a>
</g>
</g>
<!-- Node17 -->
<g id="Node000017" class="node">
<title>Node17</title>
<g id="a_Node000017"><a xlink:title=" ">
<polygon fill="#e0e0e0" stroke="#999999" points="957.12,-188 860.88,-188 860.88,-168 957.12,-168 957.12,-188"/>
<text text-anchor="middle" x="909" y="-174.5" font-family="Helvetica,sans-Serif" font-size="10.00">gtc/quaternion.hpp</text>
</a>
</g>
</g>
<!-- Node13&#45;&gt;Node17 -->
<g id="edge23_Node000013_Node000017" class="edge">
<title>Node13&#45;&gt;Node17</title>
<g id="a_edge23_Node000013_Node000017"><a xlink:title=" ">
<path fill="none" stroke="#63b8ff" d="M873.49,-223.59C879.29,-216.32 887.49,-206.02 894.55,-197.15"/>
<polygon fill="#63b8ff" stroke="#63b8ff" points="897.16,-199.49 900.65,-189.48 891.69,-195.12 897.16,-199.49"/>
</a>
</g>
</g>
<!-- Node15&#45;&gt;Node2 -->
<g id="edge19_Node000015_Node000002" class="edge">
<title>Node15&#45;&gt;Node2</title>
<g id="a_edge19_Node000015_Node000002"><a xlink:title=" ">
<path fill="none" stroke="#63b8ff" d="M744.29,-167.59C760.3,-159.36 783.83,-147.26 802.34,-137.74"/>
<polygon fill="#63b8ff" stroke="#63b8ff" points="803.93,-140.86 811.22,-133.17 800.73,-134.63 803.93,-140.86"/>
</a>
</g>
</g>
<!-- Node15&#45;&gt;Node8 -->
<g id="edge18_Node000015_Node000008" class="edge">
<title>Node15&#45;&gt;Node8</title>
<g id="a_edge18_Node000015_Node000008"><a xlink:title=" ">
<path fill="none" stroke="#63b8ff" d="M684.27,-168.02C636.31,-157.7 558.31,-140.92 512.3,-131.02"/>
<polygon fill="#63b8ff" stroke="#63b8ff" points="513.04,-127.6 502.53,-128.92 511.57,-134.45 513.04,-127.6"/>
</a>
</g>
</g>
<!-- Node18&#45;&gt;Node2 -->
<g id="edge27_Node000018_Node000002" class="edge">
<title>Node18&#45;&gt;Node2</title>
<g id="a_edge27_Node000018_Node000002"><a xlink:title=" ">
<path fill="none" stroke="#63b8ff" d="M1145.05,-170.18C1140.31,-169.44 1135.55,-168.7 1131,-168 1043.96,-154.6 942.62,-139.51 882.81,-130.65"/>
<polygon fill="#63b8ff" stroke="#63b8ff" points="883.68,-127.24 873.27,-129.24 882.65,-134.16 883.68,-127.24"/>
</a>
</g>
</g>
<!-- Node18&#45;&gt;Node5 -->
<g id="edge25_Node000018_Node000005" class="edge">
<title>Node18&#45;&gt;Node5</title>
<g id="a_edge25_Node000018_Node000005"><a xlink:title=" ">
<path fill="none" stroke="#63b8ff" d="M1155.59,-167.55C1084.25,-146.82 908.17,-95.99 760,-56 709.8,-42.45 651.24,-27.58 616.19,-18.78"/>
<polygon fill="#63b8ff" stroke="#63b8ff" points="617.27,-15.44 606.72,-16.41 615.57,-22.23 617.27,-15.44"/>
</a>
</g>
</g>
<!-- Node18&#45;&gt;Node6 -->
<g id="edge26_Node000018_Node000006" class="edge">
<title>Node18&#45;&gt;Node6</title>
<g id="a_edge26_Node000018_Node000006"><a xlink:title=" ">
<path fill="none" stroke="#63b8ff" d="M1145.71,-167.53C1049.63,-146 816.52,-93.78 730.02,-74.4"/>
<polygon fill="#63b8ff" stroke="#63b8ff" points="730.82,-70.99 720.3,-72.22 729.29,-77.82 730.82,-70.99"/>
</a>
</g>
</g>
<!-- Node19&#45;&gt;Node2 -->
<g id="edge29_Node000019_Node000002" class="edge">
<title>Node19&#45;&gt;Node2</title>
<g id="a_edge29_Node000019_Node000002"><a xlink:title=" ">
<path fill="none" stroke="#63b8ff" d="M699.36,-223.5C722.7,-216.25 752.86,-204.65 776,-188 793.57,-175.35 809.04,-155.9 819.06,-141.57"/>
<polygon fill="#63b8ff" stroke="#63b8ff" points="821.83,-143.72 824.5,-133.47 816.02,-139.82 821.83,-143.72"/>
</a>
</g>
</g>
<!-- Node19&#45;&gt;Node6 -->
<g id="edge32_Node000019_Node000006" class="edge">
<title>Node19&#45;&gt;Node6</title>
<g id="a_edge32_Node000019_Node000006"><a xlink:title=" ">
<path fill="none" stroke="#63b8ff" d="M664.83,-223.74C667.33,-211.13 671.95,-187.85 676,-168 681.69,-140.1 688.41,-107.89 692.69,-87.5"/>
<polygon fill="#63b8ff" stroke="#63b8ff" points="696.07,-88.45 694.7,-77.95 689.22,-87.01 696.07,-88.45"/>
</a>
</g>
</g>
<!-- Node19&#45;&gt;Node8 -->
<g id="edge30_Node000019_Node000008" class="edge">
<title>Node19&#45;&gt;Node8</title>
<g id="a_edge30_Node000019_Node000008"><a xlink:title=" ">
<path fill="none" stroke="#63b8ff" d="M649.21,-223.53C630,-210.48 593.95,-186.49 562,-168 543.23,-157.14 521.57,-145.93 504.56,-137.42"/>
<polygon fill="#63b8ff" stroke="#63b8ff" points="506.5,-134.48 495.99,-133.16 503.39,-140.75 506.5,-134.48"/>
</a>
</g>
</g>
<!-- Node19&#45;&gt;Node9 -->
<g id="edge31_Node000019_Node000009" class="edge">
<title>Node19&#45;&gt;Node9</title>
<g id="a_edge31_Node000019_Node000009"><a xlink:title=" ">
<path fill="none" stroke="#63b8ff" d="M617.94,-223.53C573.52,-214.2 505.67,-199.94 458.75,-190.08"/>
<polygon fill="#63b8ff" stroke="#63b8ff" points="459.59,-186.68 449.08,-188.05 458.15,-193.53 459.59,-186.68"/>
</a>
</g>
</g>
<!-- Node21&#45;&gt;Node16 -->
<g id="edge35_Node000021_Node000016" class="edge">
<title>Node21&#45;&gt;Node16</title>
<g id="a_edge35_Node000021_Node000016"><a xlink:title=" ">
<path fill="none" stroke="#63b8ff" d="M606.38,-279.91C598.34,-267.09 582.89,-243.15 568,-224 560.73,-214.65 552.05,-204.75 544.65,-196.63"/>
<polygon fill="#63b8ff" stroke="#63b8ff" points="547.35,-194.41 537.99,-189.45 542.22,-199.17 547.35,-194.41"/>
</a>
</g>
</g>
<!-- Node22&#45;&gt;Node2 -->
<g id="edge37_Node000022_Node000002" class="edge">
<title>Node22&#45;&gt;Node2</title>
<g id="a_edge37_Node000022_Node000002"><a xlink:title=" ">
<path fill="none" stroke="#63b8ff" d="M233.85,-172.76C354.52,-162.71 657.18,-137.49 779,-127.33"/>
<polygon fill="#63b8ff" stroke="#63b8ff" points="779.03,-130.84 788.7,-126.52 778.45,-123.87 779.03,-130.84"/>
</a>
</g>
</g>
<!-- Node22&#45;&gt;Node5 -->
<g id="edge39_Node000022_Node000005" class="edge">
<title>Node22&#45;&gt;Node5</title>
<g id="a_edge39_Node000022_Node000005"><a xlink:title=" ">
<path fill="none" stroke="#63b8ff" d="M205.77,-167.6C274,-139.42 476.87,-55.65 554.4,-23.63"/>
<polygon fill="#63b8ff" stroke="#63b8ff" points="555.6,-26.93 563.5,-19.88 552.93,-20.46 555.6,-26.93"/>
</a>
</g>
</g>
<!-- Node22&#45;&gt;Node6 -->
<g id="edge40_Node000022_Node000006" class="edge">
<title>Node22&#45;&gt;Node6</title>
<g id="a_edge40_Node000022_Node000006"><a xlink:title=" ">
<path fill="none" stroke="#63b8ff" d="M233.63,-167.73C286.97,-157.73 367.28,-141.89 397,-132 417,-125.34 419.89,-118.32 440,-112 518.25,-87.42 614.38,-75.1 663.95,-69.99"/>
<polygon fill="#63b8ff" stroke="#63b8ff" points="664.11,-73.49 673.72,-69.02 663.42,-66.53 664.11,-73.49"/>
</a>
</g>
</g>
<!-- Node22&#45;&gt;Node8 -->
<g id="edge41_Node000022_Node000008" class="edge">
<title>Node22&#45;&gt;Node8</title>
<g id="a_edge41_Node000022_Node000008"><a xlink:title=" ">
<path fill="none" stroke="#63b8ff" d="M233.81,-168.61C284.79,-160.03 365.51,-146.01 435,-132 436.01,-131.8 437.03,-131.59 438.06,-131.37"/>
<polygon fill="#63b8ff" stroke="#63b8ff" points="438.69,-134.82 447.74,-129.3 437.22,-127.97 438.69,-134.82"/>
</a>
</g>
</g>
<!-- Node22&#45;&gt;Node14 -->
<g id="edge38_Node000022_Node000014" class="edge">
<title>Node22&#45;&gt;Node14</title>
<g id="a_edge38_Node000022_Node000014"><a xlink:title=" ">
<path fill="none" stroke="#63b8ff" d="M183,-167.59C183,-161.01 183,-151.96 183,-143.73"/>
<polygon fill="#63b8ff" stroke="#63b8ff" points="186.5,-143.81 183,-133.81 179.5,-143.81 186.5,-143.81"/>
</a>
</g>
</g>
<!-- Node23&#45;&gt;Node7 -->
<g id="edge55_Node000023_Node000007" class="edge">
<title>Node23&#45;&gt;Node7</title>
<g id="a_edge55_Node000023_Node000007"><a xlink:title=" ">
<path fill="none" stroke="#63b8ff" d="M498.02,-391.59C485.27,-383.59 466.71,-371.93 451.76,-362.54"/>
<polygon fill="#63b8ff" stroke="#63b8ff" points="453.71,-359.64 443.38,-357.28 449.99,-365.57 453.71,-359.64"/>
</a>
</g>
</g>
<!-- Node23&#45;&gt;Node14 -->
<g id="edge43_Node000023_Node000014" class="edge">
<title>Node23&#45;&gt;Node14</title>
<g id="a_edge43_Node000023_Node000014"><a xlink:title=" ">
<path fill="none" stroke="#63b8ff" d="M454.65,-400.67C320.19,-398.34 0,-383.11 0,-291 0,-291 0,-291 0,-233 0,-172.09 75.39,-144.05 129.39,-131.78"/>
<polygon fill="#63b8ff" stroke="#63b8ff" points="130.03,-135.23 139.08,-129.72 128.57,-128.38 130.03,-135.23"/>
</a>
</g>
</g>
<!-- Node23&#45;&gt;Node19 -->
<g id="edge54_Node000023_Node000019" class="edge">
<title>Node23&#45;&gt;Node19</title>
<g id="a_edge54_Node000023_Node000019"><a xlink:title=" ">
<path fill="none" stroke="#63b8ff" d="M550,-391.61C591.98,-378.75 658.44,-351.19 688,-300 696.66,-285 687.8,-266.44 678.32,-253"/>
<polygon fill="#63b8ff" stroke="#63b8ff" points="681.36,-251.2 672.47,-245.43 675.82,-255.48 681.36,-251.2"/>
</a>
</g>
</g>
<!-- Node24 -->
<g id="Node000024" class="node">
<title>Node24</title>
<g id="a_Node000024"><a xlink:href="_v_r_e___renderer_8h.html" target="_top" xlink:title=" ">
<polygon fill="white" stroke="#666666" points="228.12,-244 137.88,-244 137.88,-224 228.12,-224 228.12,-244"/>
<text text-anchor="middle" x="183" y="-230.5" font-family="Helvetica,sans-Serif" font-size="10.00">VRE_Renderer.h</text>
</a>
</g>
</g>
<!-- Node23&#45;&gt;Node24 -->
<g id="edge44_Node000023_Node000024" class="edge">
<title>Node23&#45;&gt;Node24</title>
<g id="a_edge44_Node000023_Node000024"><a xlink:title=" ">
<path fill="none" stroke="#63b8ff" d="M474.21,-391.56C443.9,-383.63 401.01,-371.17 365,-356 317.34,-335.93 305.91,-328.87 263,-300 240.91,-285.14 217.47,-265.59 201.71,-251.83"/>
<polygon fill="#63b8ff" stroke="#63b8ff" points="204.34,-249.48 194.53,-245.48 199.7,-254.72 204.34,-249.48"/>
</a>
</g>
</g>
<!-- Node26 -->
<g id="Node000026" class="node">
<title>Node26</title>
<g id="a_Node000026"><a xlink:href="_v_r_e___point_light_8h.html" target="_top" xlink:title=" ">
<polygon fill="white" stroke="#666666" points="559,-244 465,-244 465,-224 559,-224 559,-244"/>
<text text-anchor="middle" x="512" y="-230.5" font-family="Helvetica,sans-Serif" font-size="10.00">VRE_PointLight.h</text>
</a>
</g>
</g>
<!-- Node23&#45;&gt;Node26 -->
<g id="edge51_Node000023_Node000026" class="edge">
<title>Node23&#45;&gt;Node26</title>
<g id="a_edge51_Node000023_Node000026"><a xlink:title=" ">
<path fill="none" stroke="#63b8ff" d="M512.94,-391.6C512.79,-365.46 512.34,-291.48 512.12,-255.36"/>
<polygon fill="#63b8ff" stroke="#63b8ff" points="515.63,-255.79 512.07,-245.81 508.63,-255.83 515.63,-255.79"/>
</a>
</g>
</g>
<!-- Node24&#45;&gt;Node2 -->
<g id="edge46_Node000024_Node000002" class="edge">
<title>Node24&#45;&gt;Node2</title>
<g id="a_edge46_Node000024_Node000002"><a xlink:title=" ">
<path fill="none" stroke="#63b8ff" d="M202.96,-223.5C234.62,-208.9 298.63,-181.25 356,-168 506.82,-133.18 690.54,-125.21 778.78,-123.45"/>
<polygon fill="#63b8ff" stroke="#63b8ff" points="778.62,-126.96 788.56,-123.28 778.5,-119.96 778.62,-126.96"/>
</a>
</g>
</g>
<!-- Node24&#45;&gt;Node3 -->
<g id="edge45_Node000024_Node000003" class="edge">
<title>Node24&#45;&gt;Node3</title>
<g id="a_edge45_Node000024_Node000003"><a xlink:title=" ">
<path fill="none" stroke="#63b8ff" d="M137.74,-226.35C95.76,-219.14 37.76,-206.19 24,-188 3.63,-161.06 2.04,-137.66 24,-112 53.54,-77.49 183.29,-69.25 258.17,-67.41"/>
<polygon fill="#63b8ff" stroke="#63b8ff" points="257.81,-70.92 267.73,-67.2 257.66,-63.92 257.81,-70.92"/>
</a>
</g>
</g>
<!-- Node24&#45;&gt;Node6 -->
<g id="edge49_Node000024_Node000006" class="edge">
<title>Node24&#45;&gt;Node6</title>
<g id="a_edge49_Node000024_Node000006"><a xlink:title=" ">
<path fill="none" stroke="#63b8ff" d="M137.58,-229.58C109.37,-224.83 75.13,-213.73 57,-188 23.7,-140.75 83.28,-130.36 132,-112 230.31,-74.95 557.75,-68.4 663.65,-67.25"/>
<polygon fill="#63b8ff" stroke="#63b8ff" points="663.68,-70.75 673.64,-67.15 663.61,-63.75 663.68,-70.75"/>
</a>
</g>
</g>
<!-- Node24&#45;&gt;Node8 -->
<g id="edge48_Node000024_Node000008" class="edge">
<title>Node24&#45;&gt;Node8</title>
<g id="a_edge48_Node000024_Node000008"><a xlink:title=" ">
<path fill="none" stroke="#63b8ff" d="M194.82,-223.58C213.1,-209.46 249.8,-182.88 285,-168 292.09,-165 384.8,-143.6 438.04,-131.42"/>
<polygon fill="#63b8ff" stroke="#63b8ff" points="438.63,-134.88 447.6,-129.24 437.07,-128.05 438.63,-134.88"/>
</a>
</g>
</g>
<!-- Node24&#45;&gt;Node22 -->
<g id="edge47_Node000024_Node000022" class="edge">
<title>Node24&#45;&gt;Node22</title>
<g id="a_edge47_Node000024_Node000022"><a xlink:title=" ">
<path fill="none" stroke="#63b8ff" d="M183,-223.59C183,-217.01 183,-207.96 183,-199.73"/>
<polygon fill="#63b8ff" stroke="#63b8ff" points="186.5,-199.81 183,-189.81 179.5,-199.81 186.5,-199.81"/>
</a>
</g>
</g>
<!-- Node25 -->
<g id="Node000025" class="node">
<title>Node25</title>
<g id="a_Node000025"><a xlink:title=" ">
<polygon fill="#e0e0e0" stroke="#999999" points="114.12,-188 65.88,-188 65.88,-168 114.12,-168 114.12,-188"/>
<text text-anchor="middle" x="90" y="-174.5" font-family="Helvetica,sans-Serif" font-size="10.00">cassert</text>
</a>
</g>
</g>
<!-- Node24&#45;&gt;Node25 -->
<g id="edge50_Node000024_Node000025" class="edge">
<title>Node24&#45;&gt;Node25</title>
<g id="a_edge50_Node000024_Node000025"><a xlink:title=" ">
<path fill="none" stroke="#63b8ff" d="M166.8,-223.59C152.75,-215.44 132.17,-203.48 115.84,-194"/>
<polygon fill="#63b8ff" stroke="#63b8ff" points="118.04,-191.23 107.63,-189.24 114.53,-197.29 118.04,-191.23"/>
</a>
</g>
</g>
<!-- Node26&#45;&gt;Node8 -->
<g id="edge53_Node000026_Node000008" class="edge">
<title>Node26&#45;&gt;Node8</title>
<g id="a_edge53_Node000026_Node000008"><a xlink:title=" ">
<path fill="none" stroke="#63b8ff" d="M508.01,-223.79C504.18,-214.76 498.34,-200.57 494,-188 488.88,-173.18 483.94,-156.16 480.38,-143.25"/>
<polygon fill="#63b8ff" stroke="#63b8ff" points="483.81,-142.55 477.82,-133.81 477.06,-144.37 483.81,-142.55"/>
</a>
</g>
</g>
<!-- Node26&#45;&gt;Node16 -->
<g id="edge52_Node000026_Node000016" class="edge">
<title>Node26&#45;&gt;Node16</title>
<g id="a_edge52_Node000026_Node000016"><a xlink:title=" ">
<path fill="none" stroke="#63b8ff" d="M514.79,-223.59C516.78,-216.86 519.55,-207.53 522.03,-199.15"/>
<polygon fill="#63b8ff" stroke="#63b8ff" points="525.33,-200.33 524.81,-189.75 518.62,-198.34 525.33,-200.33"/>
</a>
</g>
</g>
</g>
</svg>

<g id="navigator" transform="translate(0 0)" fill="#404254">
  <rect fill="#f2f5e9" fill-opacity="0.5" stroke="#606060" stroke-width=".5" x="0" y="0" width="60" height="60"/>
  <use id="zoomplus" xlink:href="#zoomPlus" x="17" y="9" onmousedown="handleZoom(evt,'in')"/>
  <use id="zoomminus" xlink:href="#zoomMin" x="42" y="9" onmousedown="handleZoom(evt,'out')"/>
  <use id="reset" xlink:href="#resetDef" x="30" y="36" onmousedown="handleReset()"/>
   <use id="arrowup" xlink:href="#arrowUp" x="0" y="0" onmousedown="handlePan(0,-1)"/>
  <use id="arrowright" xlink:href="#arrowRight" x="0" y="0" onmousedown="handlePan(1,0)"/>
  <use id="arrowdown" xlink:href="#arrowDown" x="0" y="0" onmousedown="handlePan(0,1)"/>
  <use id="arrowleft" xlink:href="#arrowLeft" x="0" y="0" onmousedown="handlePan(-1,0)"/>
</g>
<svg viewBox="0 0 15 15" width="100%" height="30px" preserveAspectRatio="xMaxYMin meet">
 <g id="arrow_out" transform="scale(0.3 0.3)">
  <a xlink:href="_v_r_e___game_object_manager_8h__incl_org.svg" target="_base">
   <rect id="button" ry="5" rx="5" y="6" x="6" height="38" width="38"
        fill="#f2f5e9" fill-opacity="0.5" stroke="#606060" stroke-width="1.0"/>
   <path id="arrow"
     d="M 11.500037,31.436501 C 11.940474,20.09759 22.043105,11.32322 32.158766,21.979434 L 37.068811,17.246167 C 37.068811,17.246167 37.088388,32 37.088388,32 L 22.160133,31.978069 C 22.160133,31.978069 26.997745,27.140456 26.997745,27.140456 C 18.528582,18.264221 13.291696,25.230495 11.500037,31.436501 z"
     style="fill:#404040;"/>
  </a>
 </g>
</svg>

<style type='text/css'>
<![CDATA[
[data-mouse-over-selected='false'] { opacity: 0.7; }
[data-mouse-over-selected='true']  { opacity: 1.0; }
]]>
</style>
<script type="application/ecmascript"><![CDATA[
document.addEventListener('DOMContentLoaded', (event) => {
  highlightEdges();
  highlightAdjacentNodes();
});
]]></script>
</svg>
