<?xml version="1.0" encoding="UTF-8" standalone="no"?>
<!DOCTYPE svg PUBLIC "-//W3C//DTD SVG 1.1//EN"
 "http://www.w3.org/Graphics/SVG/1.1/DTD/svg11.dtd">
<!-- Generated by graphviz version 12.1.2 (20240928.0832)
 -->
<!-- Title: ReSTIRVulkan/VRE_SharedContext.h Pages: 1 -->
<!--zoomable 420 -->

<svg id="main" version="1.1" xmlns="http://www.w3.org/2000/svg" xmlns:xlink="http://www.w3.org/1999/xlink" xml:space="preserve" onload="init(evt)">

<style type="text/css"><![CDATA[
.node, .edge {opacity: 0.7;}
.node.selected, .edge.selected {opacity: 1;}
.edge:hover path { stroke: red; }
.edge:hover polygon { stroke: red; fill: red; }
]]></style>

<defs>
  <circle id="rim" cx="0" cy="0" r="7"/>
  <circle id="rim2" cx="0" cy="0" r="3.5"/>
  <g id="zoomPlus">
    <use xlink:href="#rim" fill="#404040"><set attributeName="fill" to="#808080" begin="zoomplus.mouseover" end="zoomplus.mouseout"/></use>
    <path d="M-4,0h8M0,-4v8" fill="none" stroke="white" stroke-width="1.5" pointer-events="none"/>
  </g>
  <g id="zoomMin">
    <use xlink:href="#rim" fill="#404040"><set attributeName="fill" to="#808080" begin="zoomminus.mouseover" end="zoomminus.mouseout"/></use>
    <path d="M-4,0h8" fill="none" stroke="white" stroke-width="1.5" pointer-events="none"/>
  </g>
  <g id="arrowUp" transform="translate(30 24)">
    <use xlink:href="#rim"/>
    <path pointer-events="none" fill="none" stroke="white" stroke-width="1.5" d="M0,-3.0v7 M-2.5,-0.5L0,-3.0L2.5,-0.5"/>
  </g>
  <g id="arrowRight" transform="rotate(90) translate(36 -43)">
    <use xlink:href="#rim"/>
    <path pointer-events="none" fill="none" stroke="white" stroke-width="1.5" d="M0,-3.0v7 M-2.5,-0.5L0,-3.0L2.5,-0.5"/>
  </g>
  <g id="arrowDown" transform="rotate(180) translate(-30 -48)">
    <use xlink:href="#rim"/>
    <path pointer-events="none" fill="none" stroke="white" stroke-width="1.5" d="M0,-3.0v7 M-2.5,-0.5L0,-3.0L2.5,-0.5"/>
  </g>
  <g id="arrowLeft" transform="rotate(270) translate(-36 17)">
    <use xlink:href="#rim"/>
    <path pointer-events="none" fill="none" stroke="white" stroke-width="1.5" d="M0,-3.0v7 M-2.5,-0.5L0,-3.0L2.5,-0.5"/>
  </g>
  <g id="resetDef">
    <use xlink:href="#rim2" fill="#404040"><set attributeName="fill" to="#808080" begin="reset.mouseover" end="reset.mouseout"/></use>
  </g>
</defs>
<script type="application/ecmascript">
var viewWidth = 1194;
var viewHeight = 420;
var sectionId = 'dynsection-0';
</script>
<script type="application/ecmascript" xlink:href="svg.min.js"/>
<svg id="graph" class="graph">
<g id="viewport">
<title>ReSTIRVulkan/VRE_SharedContext.h</title>
<!-- Node1 -->
<g id="Node000001" class="node">
<title>Node1</title>
<g id="a_Node000001"><a xlink:title=" ">
<polygon fill="#999999" stroke="#666666" points="405.91,-412 222.66,-412 222.66,-392 405.91,-392 405.91,-412"/>
<text text-anchor="middle" x="314.29" y="-398.5" font-family="Helvetica,sans-Serif" font-size="10.00">ReSTIRVulkan/VRE_SharedContext.h</text>
</a>
</g>
</g>
<!-- Node2 -->
<g id="Node000002" class="node">
<title>Node2</title>
<g id="a_Node000002"><a xlink:title=" ">
<polygon fill="#e0e0e0" stroke="#999999" points="461.41,-132 377.16,-132 377.16,-112 461.41,-112 461.41,-132"/>
<text text-anchor="middle" x="419.29" y="-118.5" font-family="Helvetica,sans-Serif" font-size="10.00">vulkan/vulkan.h</text>
</a>
</g>
</g>
<!-- Node1&#45;&gt;Node2 -->
<g id="edge1_Node000001_Node000002" class="edge">
<title>Node1&#45;&gt;Node2</title>
<g id="a_edge1_Node000001_Node000002"><a xlink:title=" ">
<path fill="none" stroke="#63b8ff" d="M317.78,-391.75C332.67,-352.34 390.98,-197.94 411.83,-142.75"/>
<polygon fill="#63b8ff" stroke="#63b8ff" points="414.99,-144.29 415.25,-133.7 408.44,-141.82 414.99,-144.29"/>
</a>
</g>
</g>
<!-- Node3 -->
<g id="Node000003" class="node">
<title>Node3</title>
<g id="a_Node000003"><a xlink:href="_v_r_e___renderer_8h.html" target="_top" xlink:title=" ">
<polygon fill="white" stroke="#666666" points="142.41,-244 52.16,-244 52.16,-224 142.41,-224 142.41,-244"/>
<text text-anchor="middle" x="97.29" y="-230.5" font-family="Helvetica,sans-Serif" font-size="10.00">VRE_Renderer.h</text>
</a>
</g>
</g>
<!-- Node1&#45;&gt;Node3 -->
<g id="edge2_Node000001_Node000003" class="edge">
<title>Node1&#45;&gt;Node3</title>
<g id="a_edge2_Node000001_Node000003"><a xlink:title=" ">
<path fill="none" stroke="#63b8ff" d="M302,-391.6C266.49,-364.44 163.43,-285.6 118.57,-251.28"/>
<polygon fill="#63b8ff" stroke="#63b8ff" points="120.71,-248.51 110.64,-245.22 116.46,-254.07 120.71,-248.51"/>
</a>
</g>
</g>
<!-- Node12 -->
<g id="Node000012" class="node">
<title>Node12</title>
<g id="a_Node000012"><a xlink:href="_v_r_e___point_light_8h.html" target="_top" xlink:title=" ">
<polygon fill="white" stroke="#666666" points="286.29,-244 192.29,-244 192.29,-224 286.29,-224 286.29,-244"/>
<text text-anchor="middle" x="239.29" y="-230.5" font-family="Helvetica,sans-Serif" font-size="10.00">VRE_PointLight.h</text>
</a>
</g>
</g>
<!-- Node1&#45;&gt;Node12 -->
<g id="edge19_Node000001_Node000012" class="edge">
<title>Node1&#45;&gt;Node12</title>
<g id="a_edge19_Node000001_Node000012"><a xlink:title=" ">
<path fill="none" stroke="#63b8ff" d="M310.04,-391.6C298.13,-365.23 264.22,-290.19 248.06,-254.42"/>
<polygon fill="#63b8ff" stroke="#63b8ff" points="251.42,-253.35 244.11,-245.68 245.04,-256.23 251.42,-253.35"/>
</a>
</g>
</g>
<!-- Node14 -->
<g id="Node000014" class="node">
<title>Node14</title>
<g id="a_Node000014"><a xlink:href="_v_r_e___descriptor_8h.html" target="_top" xlink:title=" ">
<polygon fill="white" stroke="#666666" points="586.04,-244 490.54,-244 490.54,-224 586.04,-224 586.04,-244"/>
<text text-anchor="middle" x="538.29" y="-230.5" font-family="Helvetica,sans-Serif" font-size="10.00">VRE_Descriptor.h</text>
</a>
</g>
</g>
<!-- Node1&#45;&gt;Node14 -->
<g id="edge22_Node000001_Node000014" class="edge">
<title>Node1&#45;&gt;Node14</title>
<g id="a_edge22_Node000001_Node000014"><a xlink:title=" ">
<path fill="none" stroke="#63b8ff" d="M322.89,-391.54C343.03,-369.79 395.46,-315.36 447.29,-280 465.13,-267.83 486.75,-256.99 504.43,-249.01"/>
<polygon fill="#63b8ff" stroke="#63b8ff" points="505.74,-252.26 513.48,-245.03 502.92,-245.85 505.74,-252.26"/>
</a>
</g>
</g>
<!-- Node16 -->
<g id="Node000016" class="node">
<title>Node16</title>
<g id="a_Node000016"><a xlink:href="_v_r_e___game_object_8h.html" target="_top" xlink:title=" ">
<polygon fill="white" stroke="#666666" points="575.91,-356 470.66,-356 470.66,-336 575.91,-336 575.91,-356"/>
<text text-anchor="middle" x="523.29" y="-342.5" font-family="Helvetica,sans-Serif" font-size="10.00">VRE_GameObject.h</text>
</a>
</g>
</g>
<!-- Node1&#45;&gt;Node16 -->
<g id="edge27_Node000001_Node000016" class="edge">
<title>Node1&#45;&gt;Node16</title>
<g id="a_edge27_Node000001_Node000016"><a xlink:title=" ">
<path fill="none" stroke="#63b8ff" d="M350.69,-391.59C385.39,-382.63 437.84,-369.08 475.81,-359.27"/>
<polygon fill="#63b8ff" stroke="#63b8ff" points="476.33,-362.75 485.13,-356.86 474.58,-355.97 476.33,-362.75"/>
</a>
</g>
</g>
<!-- Node4 -->
<g id="Node000004" class="node">
<title>Node4</title>
<g id="a_Node000004"><a xlink:href="_v_r_e___window_8h.html" target="_top" xlink:title=" ">
<polygon fill="white" stroke="#666666" points="282.79,-76 197.79,-76 197.79,-56 282.79,-56 282.79,-76"/>
<text text-anchor="middle" x="240.29" y="-62.5" font-family="Helvetica,sans-Serif" font-size="10.00">VRE_Window.h</text>
</a>
</g>
</g>
<!-- Node3&#45;&gt;Node4 -->
<g id="edge3_Node000003_Node000004" class="edge">
<title>Node3&#45;&gt;Node4</title>
<g id="a_edge3_Node000003_Node000004"><a xlink:title=" ">
<path fill="none" stroke="#63b8ff" d="M58.92,-223.56C27.03,-213.59 -11.01,-195.45 3.29,-168 37.66,-101.98 127.49,-79.12 186.15,-71.2"/>
<polygon fill="#63b8ff" stroke="#63b8ff" points="186.44,-74.69 195.94,-69.99 185.59,-67.74 186.44,-74.69"/>
</a>
</g>
</g>
<!-- Node7 -->
<g id="Node000007" class="node">
<title>Node7</title>
<g id="a_Node000007"><a xlink:href="_v_r_e___device_8h.html" target="_top" xlink:title=" ">
<polygon fill="white" stroke="#666666" points="620.91,-132 539.66,-132 539.66,-112 620.91,-112 620.91,-132"/>
<text text-anchor="middle" x="580.29" y="-118.5" font-family="Helvetica,sans-Serif" font-size="10.00">VRE_Device.h</text>
</a>
</g>
</g>
<!-- Node3&#45;&gt;Node7 -->
<g id="edge6_Node000003_Node000007" class="edge">
<title>Node3&#45;&gt;Node7</title>
<g id="a_edge6_Node000003_Node000007"><a xlink:title=" ">
<path fill="none" stroke="#63b8ff" d="M142.9,-226.17C193.4,-218.29 277.09,-204.32 348.29,-188 384.22,-179.77 480.64,-152.06 537.23,-135.6"/>
<polygon fill="#63b8ff" stroke="#63b8ff" points="537.91,-139.04 546.54,-132.89 535.96,-132.32 537.91,-139.04"/>
</a>
</g>
</g>
<!-- Node8 -->
<g id="Node000008" class="node">
<title>Node8</title>
<g id="a_Node000008"><a xlink:title=" ">
<polygon fill="#e0e0e0" stroke="#999999" points="537.79,-76 494.79,-76 494.79,-56 537.79,-56 537.79,-76"/>
<text text-anchor="middle" x="516.29" y="-62.5" font-family="Helvetica,sans-Serif" font-size="10.00">vector</text>
</a>
</g>
</g>
<!-- Node3&#45;&gt;Node8 -->
<g id="edge17_Node000003_Node000008" class="edge">
<title>Node3&#45;&gt;Node8</title>
<g id="a_edge17_Node000003_Node000008"><a xlink:title=" ">
<path fill="none" stroke="#63b8ff" d="M98.82,-223.82C103.2,-200.68 118.1,-139.83 157.29,-112 209.29,-75.07 404.69,-68.41 483.27,-67.24"/>
<polygon fill="#63b8ff" stroke="#63b8ff" points="482.94,-70.74 492.9,-67.12 482.85,-63.74 482.94,-70.74"/>
</a>
</g>
</g>
<!-- Node9 -->
<g id="Node000009" class="node">
<title>Node9</title>
<g id="a_Node000009"><a xlink:href="_v_r_e___swap_chain_8h.html" target="_top" xlink:title=" ">
<polygon fill="white" stroke="#666666" points="339.66,-188 238.91,-188 238.91,-168 339.66,-168 339.66,-188"/>
<text text-anchor="middle" x="289.29" y="-174.5" font-family="Helvetica,sans-Serif" font-size="10.00">VRE_SwapChain.h</text>
</a>
</g>
</g>
<!-- Node3&#45;&gt;Node9 -->
<g id="edge10_Node000003_Node000009" class="edge">
<title>Node3&#45;&gt;Node9</title>
<g id="a_edge10_Node000003_Node000009"><a xlink:title=" ">
<path fill="none" stroke="#63b8ff" d="M130.73,-223.59C162.34,-214.71 209.96,-201.31 244.77,-191.52"/>
<polygon fill="#63b8ff" stroke="#63b8ff" points="245.45,-194.97 254.13,-188.89 243.55,-188.23 245.45,-194.97"/>
</a>
</g>
</g>
<!-- Node10 -->
<g id="Node000010" class="node">
<title>Node10</title>
<g id="a_Node000010"><a xlink:title=" ">
<polygon fill="#e0e0e0" stroke="#999999" points="217.91,-132 166.66,-132 166.66,-112 217.91,-112 217.91,-132"/>
<text text-anchor="middle" x="192.29" y="-118.5" font-family="Helvetica,sans-Serif" font-size="10.00">memory</text>
</a>
</g>
</g>
<!-- Node3&#45;&gt;Node10 -->
<g id="edge16_Node000003_Node000010" class="edge">
<title>Node3&#45;&gt;Node10</title>
<g id="a_edge16_Node000003_Node000010"><a xlink:title=" ">
<path fill="none" stroke="#63b8ff" d="M66.12,-223.56C34.68,-212.42 -6.69,-192.31 12.29,-168 29.65,-145.76 107.52,-132.89 154.97,-126.98"/>
<polygon fill="#63b8ff" stroke="#63b8ff" points="155.3,-130.46 164.82,-125.8 154.47,-123.51 155.3,-130.46"/>
</a>
</g>
</g>
<!-- Node11 -->
<g id="Node000011" class="node">
<title>Node11</title>
<g id="a_Node000011"><a xlink:title=" ">
<polygon fill="#e0e0e0" stroke="#999999" points="69.41,-188 21.16,-188 21.16,-168 69.41,-168 69.41,-188"/>
<text text-anchor="middle" x="45.29" y="-174.5" font-family="Helvetica,sans-Serif" font-size="10.00">cassert</text>
</a>
</g>
</g>
<!-- Node3&#45;&gt;Node11 -->
<g id="edge18_Node000003_Node000011" class="edge">
<title>Node3&#45;&gt;Node11</title>
<g id="a_edge18_Node000003_Node000011"><a xlink:title=" ">
<path fill="none" stroke="#63b8ff" d="M88.23,-223.59C81.07,-216.16 70.88,-205.58 62.22,-196.58"/>
<polygon fill="#63b8ff" stroke="#63b8ff" points="64.75,-194.16 55.29,-189.39 59.71,-199.02 64.75,-194.16"/>
</a>
</g>
</g>
<!-- Node5 -->
<g id="Node000005" class="node">
<title>Node5</title>
<g id="a_Node000005"><a xlink:title=" ">
<polygon fill="#e0e0e0" stroke="#999999" points="264.04,-20 216.54,-20 216.54,0 264.04,0 264.04,-20"/>
<text text-anchor="middle" x="240.29" y="-6.5" font-family="Helvetica,sans-Serif" font-size="10.00">glfw3.h</text>
</a>
</g>
</g>
<!-- Node4&#45;&gt;Node5 -->
<g id="edge4_Node000004_Node000005" class="edge">
<title>Node4&#45;&gt;Node5</title>
<g id="a_edge4_Node000004_Node000005"><a xlink:title=" ">
<path fill="none" stroke="#63b8ff" d="M240.29,-55.59C240.29,-49.01 240.29,-39.96 240.29,-31.73"/>
<polygon fill="#63b8ff" stroke="#63b8ff" points="243.79,-31.81 240.29,-21.81 236.79,-31.81 243.79,-31.81"/>
</a>
</g>
</g>
<!-- Node6 -->
<g id="Node000006" class="node">
<title>Node6</title>
<g id="a_Node000006"><a xlink:title=" ">
<polygon fill="#e0e0e0" stroke="#999999" points="461.29,-20 421.29,-20 421.29,0 461.29,0 461.29,-20"/>
<text text-anchor="middle" x="441.29" y="-6.5" font-family="Helvetica,sans-Serif" font-size="10.00">string</text>
</a>
</g>
</g>
<!-- Node4&#45;&gt;Node6 -->
<g id="edge5_Node000004_Node000006" class="edge">
<title>Node4&#45;&gt;Node6</title>
<g id="a_edge5_Node000004_Node000006"><a xlink:title=" ">
<path fill="none" stroke="#63b8ff" d="M275.3,-55.59C313.36,-45.37 373.61,-29.18 410.1,-19.38"/>
<polygon fill="#63b8ff" stroke="#63b8ff" points="410.84,-22.8 419.59,-16.83 409.03,-16.04 410.84,-22.8"/>
</a>
</g>
</g>
<!-- Node7&#45;&gt;Node4 -->
<g id="edge7_Node000007_Node000004" class="edge">
<title>Node7&#45;&gt;Node4</title>
<g id="a_edge7_Node000007_Node000004"><a xlink:title=" ">
<path fill="none" stroke="#63b8ff" d="M539.28,-114.49C478,-104.75 362.49,-86.41 294.37,-75.59"/>
<polygon fill="#63b8ff" stroke="#63b8ff" points="294.97,-72.14 284.54,-74.03 293.87,-79.05 294.97,-72.14"/>
</a>
</g>
</g>
<!-- Node7&#45;&gt;Node6 -->
<g id="edge8_Node000007_Node000006" class="edge">
<title>Node7&#45;&gt;Node6</title>
<g id="a_edge8_Node000007_Node000006"><a xlink:title=" ">
<path fill="none" stroke="#63b8ff" d="M577.83,-111.79C573.7,-97.94 564.12,-71.72 547.29,-56 526.29,-36.39 495.46,-24.61 472.45,-18.06"/>
<polygon fill="#63b8ff" stroke="#63b8ff" points="473.58,-14.73 463.01,-15.56 471.78,-21.5 473.58,-14.73"/>
</a>
</g>
</g>
<!-- Node7&#45;&gt;Node8 -->
<g id="edge9_Node000007_Node000008" class="edge">
<title>Node7&#45;&gt;Node8</title>
<g id="a_edge9_Node000007_Node000008"><a xlink:title=" ">
<path fill="none" stroke="#63b8ff" d="M569.14,-111.59C559.96,-103.85 546.73,-92.69 535.81,-83.47"/>
<polygon fill="#63b8ff" stroke="#63b8ff" points="538.36,-81.05 528.46,-77.27 533.85,-86.4 538.36,-81.05"/>
</a>
</g>
</g>
<!-- Node9&#45;&gt;Node2 -->
<g id="edge12_Node000009_Node000002" class="edge">
<title>Node9&#45;&gt;Node2</title>
<g id="a_edge12_Node000009_Node000002"><a xlink:title=" ">
<path fill="none" stroke="#63b8ff" d="M311.93,-167.59C332.4,-159.09 362.81,-146.46 386.04,-136.81"/>
<polygon fill="#63b8ff" stroke="#63b8ff" points="387.18,-140.13 395.07,-133.06 384.49,-133.66 387.18,-140.13"/>
</a>
</g>
</g>
<!-- Node9&#45;&gt;Node6 -->
<g id="edge13_Node000009_Node000006" class="edge">
<title>Node9&#45;&gt;Node6</title>
<g id="a_edge13_Node000009_Node000006"><a xlink:title=" ">
<path fill="none" stroke="#63b8ff" d="M295.19,-167.79C303.66,-154.83 320.03,-130.71 336.29,-112 363.87,-80.26 399.91,-47.15 421.79,-27.83"/>
<polygon fill="#63b8ff" stroke="#63b8ff" points="423.87,-30.66 429.1,-21.44 419.27,-25.39 423.87,-30.66"/>
</a>
</g>
</g>
<!-- Node9&#45;&gt;Node7 -->
<g id="edge11_Node000009_Node000007" class="edge">
<title>Node9&#45;&gt;Node7</title>
<g id="a_edge11_Node000009_Node000007"><a xlink:title=" ">
<path fill="none" stroke="#63b8ff" d="M339.98,-167.59C392.77,-157.8 475.06,-142.53 528.32,-132.64"/>
<polygon fill="#63b8ff" stroke="#63b8ff" points="528.88,-136.1 538.07,-130.83 527.6,-129.22 528.88,-136.1"/>
</a>
</g>
</g>
<!-- Node9&#45;&gt;Node8 -->
<g id="edge14_Node000009_Node000008" class="edge">
<title>Node9&#45;&gt;Node8</title>
<g id="a_edge14_Node000009_Node000008"><a xlink:title=" ">
<path fill="none" stroke="#63b8ff" d="M298.13,-167.67C311.89,-153.68 339.79,-127.27 368.29,-112 405.34,-92.15 452.4,-79.75 483.39,-73.11"/>
<polygon fill="#63b8ff" stroke="#63b8ff" points="483.85,-76.59 492.94,-71.15 482.44,-69.74 483.85,-76.59"/>
</a>
</g>
</g>
<!-- Node9&#45;&gt;Node10 -->
<g id="edge15_Node000009_Node000010" class="edge">
<title>Node9&#45;&gt;Node10</title>
<g id="a_edge15_Node000009_Node000010"><a xlink:title=" ">
<path fill="none" stroke="#63b8ff" d="M272.39,-167.59C257.74,-159.44 236.27,-147.48 219.24,-138"/>
<polygon fill="#63b8ff" stroke="#63b8ff" points="221.08,-135.02 210.64,-133.22 217.67,-141.14 221.08,-135.02"/>
</a>
</g>
</g>
<!-- Node12&#45;&gt;Node10 -->
<g id="edge21_Node000012_Node000010" class="edge">
<title>Node12&#45;&gt;Node10</title>
<g id="a_edge21_Node000012_Node000010"><a xlink:title=" ">
<path fill="none" stroke="#63b8ff" d="M206.6,-223.54C189.27,-216.68 169.5,-205.47 159.29,-188 150.15,-172.38 161.52,-153.93 173.33,-140.68"/>
<polygon fill="#63b8ff" stroke="#63b8ff" points="175.83,-143.14 180.28,-133.53 170.81,-138.26 175.83,-143.14"/>
</a>
</g>
</g>
<!-- Node13 -->
<g id="Node000013" class="node">
<title>Node13</title>
<g id="a_Node000013"><a xlink:title=" ">
<polygon fill="#e0e0e0" stroke="#999999" points="483.54,-188 433.04,-188 433.04,-168 483.54,-168 483.54,-188"/>
<text text-anchor="middle" x="458.29" y="-174.5" font-family="Helvetica,sans-Serif" font-size="10.00">glm.hpp</text>
</a>
</g>
</g>
<!-- Node12&#45;&gt;Node13 -->
<g id="edge20_Node000012_Node000013" class="edge">
<title>Node12&#45;&gt;Node13</title>
<g id="a_edge20_Node000012_Node000013"><a xlink:title=" ">
<path fill="none" stroke="#63b8ff" d="M277.68,-223.53C318.21,-213.54 381.64,-197.9 421.54,-188.06"/>
<polygon fill="#63b8ff" stroke="#63b8ff" points="422.28,-191.48 431.15,-185.69 420.6,-184.69 422.28,-191.48"/>
</a>
</g>
</g>
<!-- Node14&#45;&gt;Node7 -->
<g id="edge23_Node000014_Node000007" class="edge">
<title>Node14&#45;&gt;Node7</title>
<g id="a_edge23_Node000014_Node000007"><a xlink:title=" ">
<path fill="none" stroke="#63b8ff" d="M541.87,-223.62C548.66,-205.84 563.53,-166.88 572.65,-143"/>
<polygon fill="#63b8ff" stroke="#63b8ff" points="575.88,-144.36 576.18,-133.77 569.34,-141.86 575.88,-144.36"/>
</a>
</g>
</g>
<!-- Node14&#45;&gt;Node8 -->
<g id="edge26_Node000014_Node000008" class="edge">
<title>Node14&#45;&gt;Node8</title>
<g id="a_edge26_Node000014_Node000008"><a xlink:title=" ">
<path fill="none" stroke="#63b8ff" d="M537.04,-223.6C533.58,-197.46 523.77,-123.48 518.99,-87.36"/>
<polygon fill="#63b8ff" stroke="#63b8ff" points="522.5,-87.25 517.72,-77.8 515.56,-88.17 522.5,-87.25"/>
</a>
</g>
</g>
<!-- Node14&#45;&gt;Node10 -->
<g id="edge24_Node000014_Node000010" class="edge">
<title>Node14&#45;&gt;Node10</title>
<g id="a_edge24_Node000014_Node000010"><a xlink:title=" ">
<path fill="none" stroke="#63b8ff" d="M490.22,-231C414.51,-227.04 271.78,-215.99 230.29,-188 214.55,-177.39 204.44,-157.91 198.64,-143.03"/>
<polygon fill="#63b8ff" stroke="#63b8ff" points="202,-142.04 195.38,-133.77 195.4,-144.36 202,-142.04"/>
</a>
</g>
</g>
<!-- Node15 -->
<g id="Node000015" class="node">
<title>Node15</title>
<g id="a_Node000015"><a xlink:title=" ">
<polygon fill="#e0e0e0" stroke="#999999" points="659.66,-188 576.91,-188 576.91,-168 659.66,-168 659.66,-188"/>
<text text-anchor="middle" x="618.29" y="-174.5" font-family="Helvetica,sans-Serif" font-size="10.00">unordered_map</text>
</a>
</g>
</g>
<!-- Node14&#45;&gt;Node15 -->
<g id="edge25_Node000014_Node000015" class="edge">
<title>Node14&#45;&gt;Node15</title>
<g id="a_edge25_Node000014_Node000015"><a xlink:title=" ">
<path fill="none" stroke="#63b8ff" d="M552.22,-223.59C563.97,-215.67 581.02,-204.16 594.86,-194.82"/>
<polygon fill="#63b8ff" stroke="#63b8ff" points="596.66,-197.82 602.99,-189.33 592.74,-192.02 596.66,-197.82"/>
</a>
</g>
</g>
<!-- Node16&#45;&gt;Node9 -->
<g id="edge52_Node000016_Node000009" class="edge">
<title>Node16&#45;&gt;Node9</title>
<g id="a_edge52_Node000016_Node000009"><a xlink:title=" ">
<path fill="none" stroke="#63b8ff" d="M506.03,-335.56C490.38,-326.82 466.86,-313.22 447.29,-300 395.84,-265.25 338.77,-219.67 309.32,-195.58"/>
<polygon fill="#63b8ff" stroke="#63b8ff" points="311.56,-192.89 301.61,-189.25 307.11,-198.3 311.56,-192.89"/>
</a>
</g>
</g>
<!-- Node16&#45;&gt;Node10 -->
<g id="edge28_Node000016_Node000010" class="edge">
<title>Node16&#45;&gt;Node10</title>
<g id="a_edge28_Node000016_Node000010"><a xlink:title=" ">
<path fill="none" stroke="#63b8ff" d="M496.71,-335.54C474.27,-327.19 441.53,-314.18 414.29,-300 358.62,-271.02 350.94,-253 295.29,-224 258.18,-204.66 235.56,-219.74 208.29,-188 197.73,-175.72 193.93,-157.55 192.65,-143.54"/>
<polygon fill="#63b8ff" stroke="#63b8ff" points="196.15,-143.45 192.15,-133.64 189.16,-143.81 196.15,-143.45"/>
</a>
</g>
</g>
<!-- Node16&#45;&gt;Node15 -->
<g id="edge29_Node000016_Node000015" class="edge">
<title>Node16&#45;&gt;Node15</title>
<g id="a_edge29_Node000016_Node000015"><a xlink:title=" ">
<path fill="none" stroke="#63b8ff" d="M551.13,-335.51C567.77,-328.36 587.84,-316.88 599.29,-300 619.81,-269.74 621.34,-225.54 620.13,-199.78"/>
<polygon fill="#63b8ff" stroke="#63b8ff" points="623.63,-199.71 619.46,-189.97 616.64,-200.18 623.63,-199.71"/>
</a>
</g>
</g>
<!-- Node17 -->
<g id="Node000017" class="node">
<title>Node17</title>
<g id="a_Node000017"><a xlink:title=" ">
<polygon fill="#e0e0e0" stroke="#999999" points="904.66,-300 779.91,-300 779.91,-280 904.66,-280 904.66,-300"/>
<text text-anchor="middle" x="842.29" y="-286.5" font-family="Helvetica,sans-Serif" font-size="10.00">gtc/matrix_transform.hpp</text>
</a>
</g>
</g>
<!-- Node16&#45;&gt;Node17 -->
<g id="edge30_Node000016_Node000017" class="edge">
<title>Node16&#45;&gt;Node17</title>
<g id="a_edge30_Node000016_Node000017"><a xlink:title=" ">
<path fill="none" stroke="#63b8ff" d="M576.32,-336.02C630.83,-326.8 715.87,-312.4 775.06,-302.38"/>
<polygon fill="#63b8ff" stroke="#63b8ff" points="775.4,-305.87 784.68,-300.75 774.24,-298.97 775.4,-305.87"/>
</a>
</g>
</g>
<!-- Node18 -->
<g id="Node000018" class="node">
<title>Node18</title>
<g id="a_Node000018"><a xlink:href="_v_r_e__gl_t_f_model_8h.html" target="_top" xlink:title=" ">
<polygon fill="white" stroke="#666666" points="761.41,-300 665.16,-300 665.16,-280 761.41,-280 761.41,-300"/>
<text text-anchor="middle" x="713.29" y="-286.5" font-family="Helvetica,sans-Serif" font-size="10.00">VRE_glTFModel.h</text>
</a>
</g>
</g>
<!-- Node16&#45;&gt;Node18 -->
<g id="edge31_Node000016_Node000018" class="edge">
<title>Node16&#45;&gt;Node18</title>
<g id="a_edge31_Node000016_Node000018"><a xlink:title=" ">
<path fill="none" stroke="#63b8ff" d="M556.38,-335.59C587.66,-326.71 634.79,-313.31 669.23,-303.52"/>
<polygon fill="#63b8ff" stroke="#63b8ff" points="669.82,-306.99 678.48,-300.89 667.9,-300.26 669.82,-306.99"/>
</a>
</g>
</g>
<!-- Node25 -->
<g id="Node000025" class="node">
<title>Node25</title>
<g id="a_Node000025"><a xlink:href="_v_r_e___object_components_8h.html" target="_top" xlink:title=" ">
<polygon fill="white" stroke="#666666" points="590.54,-300 456.04,-300 456.04,-280 590.54,-280 590.54,-300"/>
<text text-anchor="middle" x="523.29" y="-286.5" font-family="Helvetica,sans-Serif" font-size="10.00">VRE_ObjectComponents.h</text>
</a>
</g>
</g>
<!-- Node16&#45;&gt;Node25 -->
<g id="edge50_Node000016_Node000025" class="edge">
<title>Node16&#45;&gt;Node25</title>
<g id="a_edge50_Node000016_Node000025"><a xlink:title=" ">
<path fill="none" stroke="#63b8ff" d="M523.29,-335.59C523.29,-329.01 523.29,-319.96 523.29,-311.73"/>
<polygon fill="#63b8ff" stroke="#63b8ff" points="526.79,-311.81 523.29,-301.81 519.79,-311.81 526.79,-311.81"/>
</a>
</g>
</g>
<!-- Node18&#45;&gt;Node7 -->
<g id="edge32_Node000018_Node000007" class="edge">
<title>Node18&#45;&gt;Node7</title>
<g id="a_edge32_Node000018_Node000007"><a xlink:title=" ">
<path fill="none" stroke="#63b8ff" d="M761.81,-280.72C800.75,-273.31 856.45,-261 903.29,-244 959.84,-223.48 1055.58,-212.67 1015.29,-168 990.08,-140.05 742.98,-128.4 632.82,-124.57"/>
<polygon fill="#63b8ff" stroke="#63b8ff" points="632.97,-121.07 622.85,-124.23 632.73,-128.07 632.97,-121.07"/>
</a>
</g>
</g>
<!-- Node18&#45;&gt;Node14 -->
<g id="edge48_Node000018_Node000014" class="edge">
<title>Node18&#45;&gt;Node14</title>
<g id="a_edge48_Node000018_Node000014"><a xlink:title=" ">
<path fill="none" stroke="#63b8ff" d="M682.8,-279.59C654.25,-270.78 611.34,-257.54 579.69,-247.78"/>
<polygon fill="#63b8ff" stroke="#63b8ff" points="581.04,-244.53 570.45,-244.93 578.98,-251.22 581.04,-244.53"/>
</a>
</g>
</g>
<!-- Node19 -->
<g id="Node000019" class="node">
<title>Node19</title>
<g id="a_Node000019"><a xlink:href="_v_r_e___buffer_8h.html" target="_top" xlink:title=" ">
<polygon fill="white" stroke="#666666" points="1006.29,-188 930.29,-188 930.29,-168 1006.29,-168 1006.29,-188"/>
<text text-anchor="middle" x="968.29" y="-174.5" font-family="Helvetica,sans-Serif" font-size="10.00">VRE_Buffer.h</text>
</a>
</g>
</g>
<!-- Node18&#45;&gt;Node19 -->
<g id="edge33_Node000018_Node000019" class="edge">
<title>Node18&#45;&gt;Node19</title>
<g id="a_edge33_Node000018_Node000019"><a xlink:title=" ">
<path fill="none" stroke="#63b8ff" d="M761.67,-279.54C793.94,-272.22 836.78,-260.52 872.29,-244 900.44,-230.9 929.53,-209.98 948.2,-195.43"/>
<polygon fill="#63b8ff" stroke="#63b8ff" points="950.35,-198.19 956,-189.22 946,-192.71 950.35,-198.19"/>
</a>
</g>
</g>
<!-- Node20 -->
<g id="Node000020" class="node">
<title>Node20</title>
<g id="a_Node000020"><a xlink:href="_v_r_e___model_properties_8h.html" target="_top" xlink:title=" ">
<polygon fill="white" stroke="#666666" points="862.79,-244 741.79,-244 741.79,-224 862.79,-224 862.79,-244"/>
<text text-anchor="middle" x="802.29" y="-230.5" font-family="Helvetica,sans-Serif" font-size="10.00">VRE_ModelProperties.h</text>
</a>
</g>
</g>
<!-- Node18&#45;&gt;Node20 -->
<g id="edge35_Node000018_Node000020" class="edge">
<title>Node18&#45;&gt;Node20</title>
<g id="a_edge35_Node000018_Node000020"><a xlink:title=" ">
<path fill="none" stroke="#63b8ff" d="M728.79,-279.59C742.11,-271.51 761.56,-259.71 777.11,-250.27"/>
<polygon fill="#63b8ff" stroke="#63b8ff" points="778.64,-253.44 785.37,-245.26 775,-247.46 778.64,-253.44"/>
</a>
</g>
</g>
<!-- Node23 -->
<g id="Node000023" class="node">
<title>Node23</title>
<g id="a_Node000023"><a xlink:href="_v_r_e___pipeline_8h.html" target="_top" xlink:title=" ">
<polygon fill="white" stroke="#666666" points="1185.79,-188 1100.79,-188 1100.79,-168 1185.79,-168 1185.79,-188"/>
<text text-anchor="middle" x="1143.29" y="-174.5" font-family="Helvetica,sans-Serif" font-size="10.00">VRE_Pipeline.h</text>
</a>
</g>
</g>
<!-- Node18&#45;&gt;Node23 -->
<g id="edge44_Node000018_Node000023" class="edge">
<title>Node18&#45;&gt;Node23</title>
<g id="a_edge44_Node000018_Node000023"><a xlink:title=" ">
<path fill="none" stroke="#63b8ff" d="M761.69,-281.4C764.94,-280.92 768.16,-280.45 771.29,-280 894.19,-262.48 932.3,-288.27 1048.29,-244 1077.54,-232.83 1106.57,-210.99 1124.7,-195.72"/>
<polygon fill="#63b8ff" stroke="#63b8ff" points="1126.71,-198.6 1131.98,-189.41 1122.13,-193.31 1126.71,-198.6"/>
</a>
</g>
</g>
<!-- Node24 -->
<g id="Node000024" class="node">
<title>Node24</title>
<g id="a_Node000024"><a xlink:title=" ">
<polygon fill="#e0e0e0" stroke="#999999" points="723.66,-244 664.91,-244 664.91,-224 723.66,-224 723.66,-244"/>
<text text-anchor="middle" x="694.29" y="-230.5" font-family="Helvetica,sans-Serif" font-size="10.00">tiny_gltf.h</text>
</a>
</g>
</g>
<!-- Node18&#45;&gt;Node24 -->
<g id="edge49_Node000018_Node000024" class="edge">
<title>Node18&#45;&gt;Node24</title>
<g id="a_edge49_Node000018_Node000024"><a xlink:title=" ">
<path fill="none" stroke="#63b8ff" d="M709.98,-279.59C707.61,-272.86 704.33,-263.53 701.38,-255.15"/>
<polygon fill="#63b8ff" stroke="#63b8ff" points="704.68,-254 698.06,-245.73 698.08,-256.32 704.68,-254"/>
</a>
</g>
</g>
<!-- Node19&#45;&gt;Node7 -->
<g id="edge34_Node000019_Node000007" class="edge">
<title>Node19&#45;&gt;Node7</title>
<g id="a_edge34_Node000019_Node000007"><a xlink:title=" ">
<path fill="none" stroke="#63b8ff" d="M929.85,-169.45C926.95,-168.94 924.08,-168.45 921.29,-168 819.31,-151.52 699.44,-136.76 632.43,-128.93"/>
<polygon fill="#63b8ff" stroke="#63b8ff" points="633.18,-125.49 622.85,-127.81 632.37,-132.45 633.18,-125.49"/>
</a>
</g>
</g>
<!-- Node20&#45;&gt;Node2 -->
<g id="edge36_Node000020_Node000002" class="edge">
<title>Node20&#45;&gt;Node2</title>
<g id="a_edge36_Node000020_Node000002"><a xlink:title=" ">
<path fill="none" stroke="#63b8ff" d="M781.56,-223.62C762.02,-214.7 732,-200.78 706.29,-188 689.2,-179.5 686.33,-174.21 668.29,-168 603.03,-145.53 524.08,-133.69 472.83,-127.9"/>
<polygon fill="#63b8ff" stroke="#63b8ff" points="473.52,-124.45 463.2,-126.85 472.76,-131.41 473.52,-124.45"/>
</a>
</g>
</g>
<!-- Node20&#45;&gt;Node8 -->
<g id="edge41_Node000020_Node000008" class="edge">
<title>Node20&#45;&gt;Node8</title>
<g id="a_edge41_Node000020_Node000008"><a xlink:title=" ">
<path fill="none" stroke="#63b8ff" d="M863,-233.38C940.2,-231.77 1058.61,-220.97 1015.29,-168 955.87,-95.35 651.64,-73.73 549.66,-68.47"/>
<polygon fill="#63b8ff" stroke="#63b8ff" points="549.92,-64.98 539.76,-67.98 549.58,-71.97 549.92,-64.98"/>
</a>
</g>
</g>
<!-- Node20&#45;&gt;Node13 -->
<g id="edge42_Node000020_Node000013" class="edge">
<title>Node20&#45;&gt;Node13</title>
<g id="a_edge42_Node000020_Node000013"><a xlink:title=" ">
<path fill="none" stroke="#63b8ff" d="M741.97,-223.53C670.62,-212.33 554.08,-194.04 495.04,-184.77"/>
<polygon fill="#63b8ff" stroke="#63b8ff" points="495.95,-181.37 485.53,-183.28 494.87,-188.29 495.95,-181.37"/>
</a>
</g>
</g>
<!-- Node20&#45;&gt;Node19 -->
<g id="edge40_Node000020_Node000019" class="edge">
<title>Node20&#45;&gt;Node19</title>
<g id="a_edge40_Node000020_Node000019"><a xlink:title=" ">
<path fill="none" stroke="#63b8ff" d="M831.2,-223.59C858.05,-214.86 898.28,-201.77 928.22,-192.03"/>
<polygon fill="#63b8ff" stroke="#63b8ff" points="929.28,-195.37 937.71,-188.95 927.12,-188.71 929.28,-195.37"/>
</a>
</g>
</g>
<!-- Node21 -->
<g id="Node000021" class="node">
<title>Node21</title>
<g id="a_Node000021"><a xlink:href="_v_r_e___texture_8h.html" target="_top" xlink:title=" ">
<polygon fill="white" stroke="#666666" points="797.66,-188 714.91,-188 714.91,-168 797.66,-168 797.66,-188"/>
<text text-anchor="middle" x="756.29" y="-174.5" font-family="Helvetica,sans-Serif" font-size="10.00">VRE_Texture.h</text>
</a>
</g>
</g>
<!-- Node20&#45;&gt;Node21 -->
<g id="edge37_Node000020_Node000021" class="edge">
<title>Node20&#45;&gt;Node21</title>
<g id="a_edge37_Node000020_Node000021"><a xlink:title=" ">
<path fill="none" stroke="#63b8ff" d="M794.27,-223.59C788.01,-216.24 779.11,-205.8 771.51,-196.87"/>
<polygon fill="#63b8ff" stroke="#63b8ff" points="774.34,-194.79 765.19,-189.45 769.01,-199.33 774.34,-194.79"/>
</a>
</g>
</g>
<!-- Node22 -->
<g id="Node000022" class="node">
<title>Node22</title>
<g id="a_Node000022"><a xlink:title=" ">
<polygon fill="#e0e0e0" stroke="#999999" points="912.41,-188 816.16,-188 816.16,-168 912.41,-168 912.41,-188"/>
<text text-anchor="middle" x="864.29" y="-174.5" font-family="Helvetica,sans-Serif" font-size="10.00">gtc/quaternion.hpp</text>
</a>
</g>
</g>
<!-- Node20&#45;&gt;Node22 -->
<g id="edge43_Node000020_Node000022" class="edge">
<title>Node20&#45;&gt;Node22</title>
<g id="a_edge43_Node000020_Node000022"><a xlink:title=" ">
<path fill="none" stroke="#63b8ff" d="M813.09,-223.59C821.89,-215.93 834.54,-204.91 845.06,-195.75"/>
<polygon fill="#63b8ff" stroke="#63b8ff" points="847.23,-198.5 852.47,-189.29 842.63,-193.22 847.23,-198.5"/>
</a>
</g>
</g>
<!-- Node21&#45;&gt;Node7 -->
<g id="edge39_Node000021_Node000007" class="edge">
<title>Node21&#45;&gt;Node7</title>
<g id="a_edge39_Node000021_Node000007"><a xlink:title=" ">
<path fill="none" stroke="#63b8ff" d="M725.63,-167.59C696.91,-158.78 653.76,-145.54 621.93,-135.78"/>
<polygon fill="#63b8ff" stroke="#63b8ff" points="623.22,-132.51 612.63,-132.92 621.16,-139.2 623.22,-132.51"/>
</a>
</g>
</g>
<!-- Node21&#45;&gt;Node10 -->
<g id="edge38_Node000021_Node000010" class="edge">
<title>Node21&#45;&gt;Node10</title>
<g id="a_edge38_Node000021_Node000010"><a xlink:title=" ">
<path fill="none" stroke="#63b8ff" d="M714.66,-172.68C700.01,-171.17 683.42,-169.49 668.29,-168 505.05,-151.94 310.2,-133.86 229.81,-126.45"/>
<polygon fill="#63b8ff" stroke="#63b8ff" points="230.14,-122.96 219.86,-125.53 229.5,-129.93 230.14,-122.96"/>
</a>
</g>
</g>
<!-- Node23&#45;&gt;Node6 -->
<g id="edge45_Node000023_Node000006" class="edge">
<title>Node23&#45;&gt;Node6</title>
<g id="a_edge45_Node000023_Node000006"><a xlink:title=" ">
<path fill="none" stroke="#63b8ff" d="M1141.84,-167.72C1139.07,-153.3 1131.58,-125.73 1113.29,-112 1009.97,-34.47 591.71,-15.68 472.9,-11.86"/>
<polygon fill="#63b8ff" stroke="#63b8ff" points="473.36,-8.37 463.26,-11.57 473.15,-15.37 473.36,-8.37"/>
</a>
</g>
</g>
<!-- Node23&#45;&gt;Node7 -->
<g id="edge47_Node000023_Node000007" class="edge">
<title>Node23&#45;&gt;Node7</title>
<g id="a_edge47_Node000023_Node000007"><a xlink:title=" ">
<path fill="none" stroke="#63b8ff" d="M1100.51,-172.9C998.77,-163.14 742.66,-138.57 632.26,-127.98"/>
<polygon fill="#63b8ff" stroke="#63b8ff" points="632.89,-124.53 622.6,-127.06 632.22,-131.5 632.89,-124.53"/>
</a>
</g>
</g>
<!-- Node23&#45;&gt;Node8 -->
<g id="edge46_Node000023_Node000008" class="edge">
<title>Node23&#45;&gt;Node8</title>
<g id="a_edge46_Node000023_Node000008"><a xlink:title=" ">
<path fill="none" stroke="#63b8ff" d="M1138.43,-167.89C1130.02,-153.16 1111.24,-124.51 1086.29,-112 1038.29,-87.93 664.26,-72.4 549.59,-68.17"/>
<polygon fill="#63b8ff" stroke="#63b8ff" points="549.75,-64.67 539.63,-67.81 549.5,-71.67 549.75,-64.67"/>
</a>
</g>
</g>
<!-- Node25&#45;&gt;Node13 -->
<g id="edge51_Node000025_Node000013" class="edge">
<title>Node25&#45;&gt;Node13</title>
<g id="a_edge51_Node000025_Node000013"><a xlink:title=" ">
<path fill="none" stroke="#63b8ff" d="M512.3,-279.63C502.94,-271.15 489.72,-257.89 481.29,-244 472.82,-230.05 466.85,-212.54 463.12,-199.2"/>
<polygon fill="#63b8ff" stroke="#63b8ff" points="466.59,-198.62 460.69,-189.82 459.81,-200.38 466.59,-198.62"/>
</a>
</g>
</g>
</g>
</svg>

<g id="navigator" transform="translate(0 0)" fill="#404254">
  <rect fill="#f2f5e9" fill-opacity="0.5" stroke="#606060" stroke-width=".5" x="0" y="0" width="60" height="60"/>
  <use id="zoomplus" xlink:href="#zoomPlus" x="17" y="9" onmousedown="handleZoom(evt,'in')"/>
  <use id="zoomminus" xlink:href="#zoomMin" x="42" y="9" onmousedown="handleZoom(evt,'out')"/>
  <use id="reset" xlink:href="#resetDef" x="30" y="36" onmousedown="handleReset()"/>
   <use id="arrowup" xlink:href="#arrowUp" x="0" y="0" onmousedown="handlePan(0,-1)"/>
  <use id="arrowright" xlink:href="#arrowRight" x="0" y="0" onmousedown="handlePan(1,0)"/>
  <use id="arrowdown" xlink:href="#arrowDown" x="0" y="0" onmousedown="handlePan(0,1)"/>
  <use id="arrowleft" xlink:href="#arrowLeft" x="0" y="0" onmousedown="handlePan(-1,0)"/>
</g>
<svg viewBox="0 0 15 15" width="100%" height="30px" preserveAspectRatio="xMaxYMin meet">
 <g id="arrow_out" transform="scale(0.3 0.3)">
  <a xlink:href="_v_r_e___shared_context_8h__incl_org.svg" target="_base">
   <rect id="button" ry="5" rx="5" y="6" x="6" height="38" width="38"
        fill="#f2f5e9" fill-opacity="0.5" stroke="#606060" stroke-width="1.0"/>
   <path id="arrow"
     d="M 11.500037,31.436501 C 11.940474,20.09759 22.043105,11.32322 32.158766,21.979434 L 37.068811,17.246167 C 37.068811,17.246167 37.088388,32 37.088388,32 L 22.160133,31.978069 C 22.160133,31.978069 26.997745,27.140456 26.997745,27.140456 C 18.528582,18.264221 13.291696,25.230495 11.500037,31.436501 z"
     style="fill:#404040;"/>
  </a>
 </g>
</svg>

<style type='text/css'>
<![CDATA[
[data-mouse-over-selected='false'] { opacity: 0.7; }
[data-mouse-over-selected='true']  { opacity: 1.0; }
]]>
</style>
<script type="application/ecmascript"><![CDATA[
document.addEventListener('DOMContentLoaded', (event) => {
  highlightEdges();
  highlightAdjacentNodes();
});
]]></script>
</svg>
