<?xml version="1.0" encoding="UTF-8" standalone="no"?>
<!DOCTYPE svg PUBLIC "-//W3C//DTD SVG 1.1//EN"
 "http://www.w3.org/Graphics/SVG/1.1/DTD/svg11.dtd">
<!-- Generated by graphviz version 12.1.2 (20240928.0832)
 -->
<!-- Title: ReSTIRVulkan/VRE_glTFModel.h Pages: 1 -->
<!--zoomable 308 -->

<svg id="main" version="1.1" xmlns="http://www.w3.org/2000/svg" xmlns:xlink="http://www.w3.org/1999/xlink" xml:space="preserve" onload="init(evt)">

<style type="text/css"><![CDATA[
.node, .edge {opacity: 0.7;}
.node.selected, .edge.selected {opacity: 1;}
.edge:hover path { stroke: red; }
.edge:hover polygon { stroke: red; fill: red; }
]]></style>

<defs>
  <circle id="rim" cx="0" cy="0" r="7"/>
  <circle id="rim2" cx="0" cy="0" r="3.5"/>
  <g id="zoomPlus">
    <use xlink:href="#rim" fill="#404040"><set attributeName="fill" to="#808080" begin="zoomplus.mouseover" end="zoomplus.mouseout"/></use>
    <path d="M-4,0h8M0,-4v8" fill="none" stroke="white" stroke-width="1.5" pointer-events="none"/>
  </g>
  <g id="zoomMin">
    <use xlink:href="#rim" fill="#404040"><set attributeName="fill" to="#808080" begin="zoomminus.mouseover" end="zoomminus.mouseout"/></use>
    <path d="M-4,0h8" fill="none" stroke="white" stroke-width="1.5" pointer-events="none"/>
  </g>
  <g id="arrowUp" transform="translate(30 24)">
    <use xlink:href="#rim"/>
    <path pointer-events="none" fill="none" stroke="white" stroke-width="1.5" d="M0,-3.0v7 M-2.5,-0.5L0,-3.0L2.5,-0.5"/>
  </g>
  <g id="arrowRight" transform="rotate(90) translate(36 -43)">
    <use xlink:href="#rim"/>
    <path pointer-events="none" fill="none" stroke="white" stroke-width="1.5" d="M0,-3.0v7 M-2.5,-0.5L0,-3.0L2.5,-0.5"/>
  </g>
  <g id="arrowDown" transform="rotate(180) translate(-30 -48)">
    <use xlink:href="#rim"/>
    <path pointer-events="none" fill="none" stroke="white" stroke-width="1.5" d="M0,-3.0v7 M-2.5,-0.5L0,-3.0L2.5,-0.5"/>
  </g>
  <g id="arrowLeft" transform="rotate(270) translate(-36 17)">
    <use xlink:href="#rim"/>
    <path pointer-events="none" fill="none" stroke="white" stroke-width="1.5" d="M0,-3.0v7 M-2.5,-0.5L0,-3.0L2.5,-0.5"/>
  </g>
  <g id="resetDef">
    <use xlink:href="#rim2" fill="#404040"><set attributeName="fill" to="#808080" begin="reset.mouseover" end="reset.mouseout"/></use>
  </g>
</defs>
<script type="application/ecmascript">
var viewWidth = 841;
var viewHeight = 308;
var sectionId = 'dynsection-0';
</script>
<script type="application/ecmascript" xlink:href="svg.min.js"/>
<svg id="graph" class="graph">
<g id="viewport">
<title>ReSTIRVulkan/VRE_glTFModel.h</title>
<!-- Node1 -->
<g id="Node000001" class="node">
<title>Node1</title>
<g id="a_Node000001"><a xlink:title=" ">
<polygon fill="#999999" stroke="#666666" points="338.38,-300 174.62,-300 174.62,-280 338.38,-280 338.38,-300"/>
<text text-anchor="middle" x="256.5" y="-286.5" font-family="Helvetica,sans-Serif" font-size="10.00">ReSTIRVulkan/VRE_glTFModel.h</text>
</a>
</g>
</g>
<!-- Node2 -->
<g id="Node000002" class="node">
<title>Node2</title>
<g id="a_Node000002"><a xlink:href="_v_r_e___device_8h.html" target="_top" xlink:title=" ">
<polygon fill="white" stroke="#666666" points="220.12,-132 138.88,-132 138.88,-112 220.12,-112 220.12,-132"/>
<text text-anchor="middle" x="179.5" y="-118.5" font-family="Helvetica,sans-Serif" font-size="10.00">VRE_Device.h</text>
</a>
</g>
</g>
<!-- Node1&#45;&gt;Node2 -->
<g id="edge1_Node000001_Node000002" class="edge">
<title>Node1&#45;&gt;Node2</title>
<g id="a_edge1_Node000001_Node000002"><a xlink:title=" ">
<path fill="none" stroke="#63b8ff" d="M235.87,-279.52C206.54,-264.73 153.95,-233.14 132.5,-188 123.91,-169.92 139.79,-151.64 155.37,-139.1"/>
<polygon fill="#63b8ff" stroke="#63b8ff" points="157.19,-142.11 163.11,-133.32 153,-136.5 157.19,-142.11"/>
</a>
</g>
</g>
<!-- Node7 -->
<g id="Node000007" class="node">
<title>Node7</title>
<g id="a_Node000007"><a xlink:href="_v_r_e___buffer_8h.html" target="_top" xlink:title=" ">
<polygon fill="white" stroke="#666666" points="217.5,-188 141.5,-188 141.5,-168 217.5,-168 217.5,-188"/>
<text text-anchor="middle" x="179.5" y="-174.5" font-family="Helvetica,sans-Serif" font-size="10.00">VRE_Buffer.h</text>
</a>
</g>
</g>
<!-- Node1&#45;&gt;Node7 -->
<g id="edge7_Node000001_Node000007" class="edge">
<title>Node1&#45;&gt;Node7</title>
<g id="a_edge7_Node000001_Node000007"><a xlink:title=" ">
<path fill="none" stroke="#63b8ff" d="M249.94,-279.62C237.26,-261.52 209.22,-221.45 192.59,-197.7"/>
<polygon fill="#63b8ff" stroke="#63b8ff" points="195.52,-195.78 186.92,-189.59 189.78,-199.79 195.52,-195.78"/>
</a>
</g>
</g>
<!-- Node8 -->
<g id="Node000008" class="node">
<title>Node8</title>
<g id="a_Node000008"><a xlink:href="_v_r_e___model_properties_8h.html" target="_top" xlink:title=" ">
<polygon fill="white" stroke="#666666" points="388,-244 267,-244 267,-224 388,-224 388,-244"/>
<text text-anchor="middle" x="327.5" y="-230.5" font-family="Helvetica,sans-Serif" font-size="10.00">VRE_ModelProperties.h</text>
</a>
</g>
</g>
<!-- Node1&#45;&gt;Node8 -->
<g id="edge9_Node000001_Node000008" class="edge">
<title>Node1&#45;&gt;Node8</title>
<g id="a_edge9_Node000001_Node000008"><a xlink:title=" ">
<path fill="none" stroke="#63b8ff" d="M268.87,-279.59C279.15,-271.77 294.02,-260.46 306.21,-251.19"/>
<polygon fill="#63b8ff" stroke="#63b8ff" points="308.23,-254.05 314.07,-245.21 303.99,-248.48 308.23,-254.05"/>
</a>
</g>
</g>
<!-- Node14 -->
<g id="Node000014" class="node">
<title>Node14</title>
<g id="a_Node000014"><a xlink:href="_v_r_e___pipeline_8h.html" target="_top" xlink:title=" ">
<polygon fill="white" stroke="#666666" points="85,-188 0,-188 0,-168 85,-168 85,-188"/>
<text text-anchor="middle" x="42.5" y="-174.5" font-family="Helvetica,sans-Serif" font-size="10.00">VRE_Pipeline.h</text>
</a>
</g>
</g>
<!-- Node1&#45;&gt;Node14 -->
<g id="edge18_Node000001_Node000014" class="edge">
<title>Node1&#45;&gt;Node14</title>
<g id="a_edge18_Node000001_Node000014"><a xlink:title=" ">
<path fill="none" stroke="#63b8ff" d="M193.84,-279.57C163.62,-272.97 127.88,-261.99 99.5,-244 80.75,-232.12 64.65,-212.27 54.38,-197.63"/>
<polygon fill="#63b8ff" stroke="#63b8ff" points="57.57,-196.1 49.09,-189.74 51.76,-200 57.57,-196.1"/>
</a>
</g>
</g>
<!-- Node15 -->
<g id="Node000015" class="node">
<title>Node15</title>
<g id="a_Node000015"><a xlink:href="_v_r_e___descriptor_8h.html" target="_top" xlink:title=" ">
<polygon fill="white" stroke="#666666" points="754.25,-188 658.75,-188 658.75,-168 754.25,-168 754.25,-188"/>
<text text-anchor="middle" x="706.5" y="-174.5" font-family="Helvetica,sans-Serif" font-size="10.00">VRE_Descriptor.h</text>
</a>
</g>
</g>
<!-- Node1&#45;&gt;Node15 -->
<g id="edge22_Node000001_Node000015" class="edge">
<title>Node1&#45;&gt;Node15</title>
<g id="a_edge22_Node000001_Node000015"><a xlink:title=" ">
<path fill="none" stroke="#63b8ff" d="M291.88,-279.58C320.78,-271.44 362.42,-258.69 397.5,-244 415.1,-236.63 417.41,-230.09 435.5,-224 455.2,-217.37 573.7,-198.91 647.33,-187.8"/>
<polygon fill="#63b8ff" stroke="#63b8ff" points="647.44,-191.32 656.8,-186.37 646.39,-184.4 647.44,-191.32"/>
</a>
</g>
</g>
<!-- Node17 -->
<g id="Node000017" class="node">
<title>Node17</title>
<g id="a_Node000017"><a xlink:title=" ">
<polygon fill="#e0e0e0" stroke="#999999" points="502.88,-244 444.12,-244 444.12,-224 502.88,-224 502.88,-244"/>
<text text-anchor="middle" x="473.5" y="-230.5" font-family="Helvetica,sans-Serif" font-size="10.00">tiny_gltf.h</text>
</a>
</g>
</g>
<!-- Node1&#45;&gt;Node17 -->
<g id="edge27_Node000001_Node000017" class="edge">
<title>Node1&#45;&gt;Node17</title>
<g id="a_edge27_Node000001_Node000017"><a xlink:title=" ">
<path fill="none" stroke="#63b8ff" d="M294.3,-279.59C332.98,-269.97 392.9,-255.06 432.65,-245.16"/>
<polygon fill="#63b8ff" stroke="#63b8ff" points="433.47,-248.57 442.33,-242.76 431.78,-241.78 433.47,-248.57"/>
</a>
</g>
</g>
<!-- Node3 -->
<g id="Node000003" class="node">
<title>Node3</title>
<g id="a_Node000003"><a xlink:href="_v_r_e___window_8h.html" target="_top" xlink:title=" ">
<polygon fill="white" stroke="#666666" points="222,-76 137,-76 137,-56 222,-56 222,-76"/>
<text text-anchor="middle" x="179.5" y="-62.5" font-family="Helvetica,sans-Serif" font-size="10.00">VRE_Window.h</text>
</a>
</g>
</g>
<!-- Node2&#45;&gt;Node3 -->
<g id="edge2_Node000002_Node000003" class="edge">
<title>Node2&#45;&gt;Node3</title>
<g id="a_edge2_Node000002_Node000003"><a xlink:title=" ">
<path fill="none" stroke="#63b8ff" d="M179.5,-111.59C179.5,-105.01 179.5,-95.96 179.5,-87.73"/>
<polygon fill="#63b8ff" stroke="#63b8ff" points="183,-87.81 179.5,-77.81 176,-87.81 183,-87.81"/>
</a>
</g>
</g>
<!-- Node5 -->
<g id="Node000005" class="node">
<title>Node5</title>
<g id="a_Node000005"><a xlink:title=" ">
<polygon fill="#e0e0e0" stroke="#999999" points="128.5,-20 88.5,-20 88.5,0 128.5,0 128.5,-20"/>
<text text-anchor="middle" x="108.5" y="-6.5" font-family="Helvetica,sans-Serif" font-size="10.00">string</text>
</a>
</g>
</g>
<!-- Node2&#45;&gt;Node5 -->
<g id="edge5_Node000002_Node000005" class="edge">
<title>Node2&#45;&gt;Node5</title>
<g id="a_edge5_Node000002_Node000005"><a xlink:title=" ">
<path fill="none" stroke="#63b8ff" d="M164.99,-111.57C153.54,-103.43 137.98,-90.68 128.5,-76 119.68,-62.33 114.56,-44.54 111.71,-31.03"/>
<polygon fill="#63b8ff" stroke="#63b8ff" points="115.22,-30.75 109.97,-21.55 108.33,-32.02 115.22,-30.75"/>
</a>
</g>
</g>
<!-- Node6 -->
<g id="Node000006" class="node">
<title>Node6</title>
<g id="a_Node000006"><a xlink:title=" ">
<polygon fill="#e0e0e0" stroke="#999999" points="468,-76 425,-76 425,-56 468,-56 468,-76"/>
<text text-anchor="middle" x="446.5" y="-62.5" font-family="Helvetica,sans-Serif" font-size="10.00">vector</text>
</a>
</g>
</g>
<!-- Node2&#45;&gt;Node6 -->
<g id="edge6_Node000002_Node000006" class="edge">
<title>Node2&#45;&gt;Node6</title>
<g id="a_edge6_Node000002_Node000006"><a xlink:title=" ">
<path fill="none" stroke="#63b8ff" d="M220.34,-112.74C273.38,-102.01 364.92,-83.5 413.69,-73.64"/>
<polygon fill="#63b8ff" stroke="#63b8ff" points="414.24,-77.1 423.35,-71.68 412.85,-70.23 414.24,-77.1"/>
</a>
</g>
</g>
<!-- Node4 -->
<g id="Node000004" class="node">
<title>Node4</title>
<g id="a_Node000004"><a xlink:title=" ">
<polygon fill="#e0e0e0" stroke="#999999" points="203.25,-20 155.75,-20 155.75,0 203.25,0 203.25,-20"/>
<text text-anchor="middle" x="179.5" y="-6.5" font-family="Helvetica,sans-Serif" font-size="10.00">glfw3.h</text>
</a>
</g>
</g>
<!-- Node3&#45;&gt;Node4 -->
<g id="edge3_Node000003_Node000004" class="edge">
<title>Node3&#45;&gt;Node4</title>
<g id="a_edge3_Node000003_Node000004"><a xlink:title=" ">
<path fill="none" stroke="#63b8ff" d="M179.5,-55.59C179.5,-49.01 179.5,-39.96 179.5,-31.73"/>
<polygon fill="#63b8ff" stroke="#63b8ff" points="183,-31.81 179.5,-21.81 176,-31.81 183,-31.81"/>
</a>
</g>
</g>
<!-- Node3&#45;&gt;Node5 -->
<g id="edge4_Node000003_Node000005" class="edge">
<title>Node3&#45;&gt;Node5</title>
<g id="a_edge4_Node000003_Node000005"><a xlink:title=" ">
<path fill="none" stroke="#63b8ff" d="M167.13,-55.59C156.85,-47.77 141.98,-36.46 129.79,-27.19"/>
<polygon fill="#63b8ff" stroke="#63b8ff" points="132.01,-24.48 121.93,-21.21 127.77,-30.05 132.01,-24.48"/>
</a>
</g>
</g>
<!-- Node7&#45;&gt;Node2 -->
<g id="edge8_Node000007_Node000002" class="edge">
<title>Node7&#45;&gt;Node2</title>
<g id="a_edge8_Node000007_Node000002"><a xlink:title=" ">
<path fill="none" stroke="#63b8ff" d="M179.5,-167.59C179.5,-161.01 179.5,-151.96 179.5,-143.73"/>
<polygon fill="#63b8ff" stroke="#63b8ff" points="183,-143.81 179.5,-133.81 176,-143.81 183,-143.81"/>
</a>
</g>
</g>
<!-- Node8&#45;&gt;Node6 -->
<g id="edge15_Node000008_Node000006" class="edge">
<title>Node8&#45;&gt;Node6</title>
<g id="a_edge15_Node000008_Node000006"><a xlink:title=" ">
<path fill="none" stroke="#63b8ff" d="M388.48,-224.34C470.85,-212.5 607.88,-192.24 611.5,-188 656.15,-135.72 539,-93.34 479.16,-75.76"/>
<polygon fill="#63b8ff" stroke="#63b8ff" points="480.39,-72.47 469.82,-73.09 478.47,-79.2 480.39,-72.47"/>
</a>
</g>
</g>
<!-- Node8&#45;&gt;Node7 -->
<g id="edge14_Node000008_Node000007" class="edge">
<title>Node8&#45;&gt;Node7</title>
<g id="a_edge14_Node000008_Node000007"><a xlink:title=" ">
<path fill="none" stroke="#63b8ff" d="M301.72,-223.59C278.1,-214.97 242.86,-202.12 216.28,-192.42"/>
<polygon fill="#63b8ff" stroke="#63b8ff" points="217.5,-189.14 206.9,-189 215.1,-195.71 217.5,-189.14"/>
</a>
</g>
</g>
<!-- Node9 -->
<g id="Node000009" class="node">
<title>Node9</title>
<g id="a_Node000009"><a xlink:title=" ">
<polygon fill="#e0e0e0" stroke="#999999" points="420.62,-188 336.38,-188 336.38,-168 420.62,-168 420.62,-188"/>
<text text-anchor="middle" x="378.5" y="-174.5" font-family="Helvetica,sans-Serif" font-size="10.00">vulkan/vulkan.h</text>
</a>
</g>
</g>
<!-- Node8&#45;&gt;Node9 -->
<g id="edge10_Node000008_Node000009" class="edge">
<title>Node8&#45;&gt;Node9</title>
<g id="a_edge10_Node000008_Node000009"><a xlink:title=" ">
<path fill="none" stroke="#63b8ff" d="M336.38,-223.59C343.4,-216.16 353.4,-205.58 361.89,-196.58"/>
<polygon fill="#63b8ff" stroke="#63b8ff" points="364.36,-199.07 368.68,-189.4 359.27,-194.27 364.36,-199.07"/>
</a>
</g>
</g>
<!-- Node10 -->
<g id="Node000010" class="node">
<title>Node10</title>
<g id="a_Node000010"><a xlink:href="_v_r_e___texture_8h.html" target="_top" xlink:title=" ">
<polygon fill="white" stroke="#666666" points="317.88,-188 235.12,-188 235.12,-168 317.88,-168 317.88,-188"/>
<text text-anchor="middle" x="276.5" y="-174.5" font-family="Helvetica,sans-Serif" font-size="10.00">VRE_Texture.h</text>
</a>
</g>
</g>
<!-- Node8&#45;&gt;Node10 -->
<g id="edge11_Node000008_Node000010" class="edge">
<title>Node8&#45;&gt;Node10</title>
<g id="a_edge11_Node000008_Node000010"><a xlink:title=" ">
<path fill="none" stroke="#63b8ff" d="M318.62,-223.59C311.6,-216.16 301.6,-205.58 293.11,-196.58"/>
<polygon fill="#63b8ff" stroke="#63b8ff" points="295.73,-194.27 286.32,-189.4 290.64,-199.07 295.73,-194.27"/>
</a>
</g>
</g>
<!-- Node12 -->
<g id="Node000012" class="node">
<title>Node12</title>
<g id="a_Node000012"><a xlink:title=" ">
<polygon fill="#e0e0e0" stroke="#999999" points="488.75,-188 438.25,-188 438.25,-168 488.75,-168 488.75,-188"/>
<text text-anchor="middle" x="463.5" y="-174.5" font-family="Helvetica,sans-Serif" font-size="10.00">glm.hpp</text>
</a>
</g>
</g>
<!-- Node8&#45;&gt;Node12 -->
<g id="edge16_Node000008_Node000012" class="edge">
<title>Node8&#45;&gt;Node12</title>
<g id="a_edge16_Node000008_Node000012"><a xlink:title=" ">
<path fill="none" stroke="#63b8ff" d="M351.19,-223.59C372.7,-215.05 404.7,-202.35 429.04,-192.68"/>
<polygon fill="#63b8ff" stroke="#63b8ff" points="430.22,-195.98 438.22,-189.04 427.63,-189.48 430.22,-195.98"/>
</a>
</g>
</g>
<!-- Node13 -->
<g id="Node000013" class="node">
<title>Node13</title>
<g id="a_Node000013"><a xlink:title=" ">
<polygon fill="#e0e0e0" stroke="#999999" points="602.62,-188 506.38,-188 506.38,-168 602.62,-168 602.62,-188"/>
<text text-anchor="middle" x="554.5" y="-174.5" font-family="Helvetica,sans-Serif" font-size="10.00">gtc/quaternion.hpp</text>
</a>
</g>
</g>
<!-- Node8&#45;&gt;Node13 -->
<g id="edge17_Node000008_Node000013" class="edge">
<title>Node8&#45;&gt;Node13</title>
<g id="a_edge17_Node000008_Node000013"><a xlink:title=" ">
<path fill="none" stroke="#63b8ff" d="M367.3,-223.53C405.19,-214.52 462.39,-200.91 503.58,-191.11"/>
<polygon fill="#63b8ff" stroke="#63b8ff" points="504.35,-194.53 513.27,-188.81 502.73,-187.72 504.35,-194.53"/>
</a>
</g>
</g>
<!-- Node10&#45;&gt;Node2 -->
<g id="edge13_Node000010_Node000002" class="edge">
<title>Node10&#45;&gt;Node2</title>
<g id="a_edge13_Node000010_Node000002"><a xlink:title=" ">
<path fill="none" stroke="#63b8ff" d="M259.6,-167.59C244.95,-159.44 223.48,-147.48 206.45,-138"/>
<polygon fill="#63b8ff" stroke="#63b8ff" points="208.29,-135.02 197.85,-133.22 204.89,-141.14 208.29,-135.02"/>
</a>
</g>
</g>
<!-- Node11 -->
<g id="Node000011" class="node">
<title>Node11</title>
<g id="a_Node000011"><a xlink:title=" ">
<polygon fill="#e0e0e0" stroke="#999999" points="694.12,-132 642.88,-132 642.88,-112 694.12,-112 694.12,-132"/>
<text text-anchor="middle" x="668.5" y="-118.5" font-family="Helvetica,sans-Serif" font-size="10.00">memory</text>
</a>
</g>
</g>
<!-- Node10&#45;&gt;Node11 -->
<g id="edge12_Node000010_Node000011" class="edge">
<title>Node10&#45;&gt;Node11</title>
<g id="a_edge12_Node000010_Node000011"><a xlink:title=" ">
<path fill="none" stroke="#63b8ff" d="M318.22,-169.48C321.36,-168.97 324.48,-168.47 327.5,-168 437.83,-150.99 568.88,-134.83 631.54,-127.34"/>
<polygon fill="#63b8ff" stroke="#63b8ff" points="631.76,-130.84 641.28,-126.19 630.93,-123.89 631.76,-130.84"/>
</a>
</g>
</g>
<!-- Node14&#45;&gt;Node2 -->
<g id="edge21_Node000014_Node000002" class="edge">
<title>Node14&#45;&gt;Node2</title>
<g id="a_edge21_Node000014_Node000002"><a xlink:title=" ">
<path fill="none" stroke="#63b8ff" d="M66.36,-167.59C88.04,-159.05 120.27,-146.35 144.79,-136.68"/>
<polygon fill="#63b8ff" stroke="#63b8ff" points="146.02,-139.96 154.04,-133.03 143.46,-133.45 146.02,-139.96"/>
</a>
</g>
</g>
<!-- Node14&#45;&gt;Node5 -->
<g id="edge19_Node000014_Node000005" class="edge">
<title>Node14&#45;&gt;Node5</title>
<g id="a_edge19_Node000014_Node000005"><a xlink:title=" ">
<path fill="none" stroke="#63b8ff" d="M46.24,-167.6C56.67,-141.35 86.3,-66.84 100.59,-30.89"/>
<polygon fill="#63b8ff" stroke="#63b8ff" points="103.8,-32.29 104.24,-21.7 97.3,-29.7 103.8,-32.29"/>
</a>
</g>
</g>
<!-- Node14&#45;&gt;Node6 -->
<g id="edge20_Node000014_Node000006" class="edge">
<title>Node14&#45;&gt;Node6</title>
<g id="a_edge20_Node000014_Node000006"><a xlink:title=" ">
<path fill="none" stroke="#63b8ff" d="M51.66,-167.61C66.52,-153.02 97.43,-125.23 129.5,-112 227.09,-71.73 354.34,-66.45 413.54,-66.4"/>
<polygon fill="#63b8ff" stroke="#63b8ff" points="413.25,-69.9 423.26,-66.45 413.28,-62.9 413.25,-69.9"/>
</a>
</g>
</g>
<!-- Node15&#45;&gt;Node2 -->
<g id="edge23_Node000015_Node000002" class="edge">
<title>Node15&#45;&gt;Node2</title>
<g id="a_edge23_Node000015_Node000002"><a xlink:title=" ">
<path fill="none" stroke="#63b8ff" d="M658.34,-172.06C559.37,-161.92 333.87,-138.82 231.63,-128.34"/>
<polygon fill="#63b8ff" stroke="#63b8ff" points="232.18,-124.88 221.88,-127.34 231.47,-131.84 232.18,-124.88"/>
</a>
</g>
</g>
<!-- Node15&#45;&gt;Node6 -->
<g id="edge26_Node000015_Node000006" class="edge">
<title>Node15&#45;&gt;Node6</title>
<g id="a_edge26_Node000015_Node000006"><a xlink:title=" ">
<path fill="none" stroke="#63b8ff" d="M709.3,-167.71C712.87,-153.78 717.08,-127.43 703.5,-112 674.47,-79.02 541.85,-70.18 479.32,-67.84"/>
<polygon fill="#63b8ff" stroke="#63b8ff" points="479.77,-64.35 469.66,-67.51 479.53,-71.35 479.77,-64.35"/>
</a>
</g>
</g>
<!-- Node15&#45;&gt;Node11 -->
<g id="edge24_Node000015_Node000011" class="edge">
<title>Node15&#45;&gt;Node11</title>
<g id="a_edge24_Node000015_Node000011"><a xlink:title=" ">
<path fill="none" stroke="#63b8ff" d="M699.88,-167.59C694.81,-160.39 687.66,-150.23 681.47,-141.43"/>
<polygon fill="#63b8ff" stroke="#63b8ff" points="684.53,-139.7 675.91,-133.54 678.81,-143.73 684.53,-139.7"/>
</a>
</g>
</g>
<!-- Node16 -->
<g id="Node000016" class="node">
<title>Node16</title>
<g id="a_Node000016"><a xlink:title=" ">
<polygon fill="#e0e0e0" stroke="#999999" points="832.88,-132 750.12,-132 750.12,-112 832.88,-112 832.88,-132"/>
<text text-anchor="middle" x="791.5" y="-118.5" font-family="Helvetica,sans-Serif" font-size="10.00">unordered_map</text>
</a>
</g>
</g>
<!-- Node15&#45;&gt;Node16 -->
<g id="edge25_Node000015_Node000016" class="edge">
<title>Node15&#45;&gt;Node16</title>
<g id="a_edge25_Node000015_Node000016"><a xlink:title=" ">
<path fill="none" stroke="#63b8ff" d="M721.31,-167.59C733.9,-159.59 752.25,-147.93 767.03,-138.54"/>
<polygon fill="#63b8ff" stroke="#63b8ff" points="768.74,-141.61 775.3,-133.29 764.98,-135.7 768.74,-141.61"/>
</a>
</g>
</g>
</g>
</svg>

<g id="navigator" transform="translate(0 0)" fill="#404254">
  <rect fill="#f2f5e9" fill-opacity="0.5" stroke="#606060" stroke-width=".5" x="0" y="0" width="60" height="60"/>
  <use id="zoomplus" xlink:href="#zoomPlus" x="17" y="9" onmousedown="handleZoom(evt,'in')"/>
  <use id="zoomminus" xlink:href="#zoomMin" x="42" y="9" onmousedown="handleZoom(evt,'out')"/>
  <use id="reset" xlink:href="#resetDef" x="30" y="36" onmousedown="handleReset()"/>
   <use id="arrowup" xlink:href="#arrowUp" x="0" y="0" onmousedown="handlePan(0,-1)"/>
  <use id="arrowright" xlink:href="#arrowRight" x="0" y="0" onmousedown="handlePan(1,0)"/>
  <use id="arrowdown" xlink:href="#arrowDown" x="0" y="0" onmousedown="handlePan(0,1)"/>
  <use id="arrowleft" xlink:href="#arrowLeft" x="0" y="0" onmousedown="handlePan(-1,0)"/>
</g>
<svg viewBox="0 0 15 15" width="100%" height="30px" preserveAspectRatio="xMaxYMin meet">
 <g id="arrow_out" transform="scale(0.3 0.3)">
  <a xlink:href="_v_r_e__gl_t_f_model_8h__incl_org.svg" target="_base">
   <rect id="button" ry="5" rx="5" y="6" x="6" height="38" width="38"
        fill="#f2f5e9" fill-opacity="0.5" stroke="#606060" stroke-width="1.0"/>
   <path id="arrow"
     d="M 11.500037,31.436501 C 11.940474,20.09759 22.043105,11.32322 32.158766,21.979434 L 37.068811,17.246167 C 37.068811,17.246167 37.088388,32 37.088388,32 L 22.160133,31.978069 C 22.160133,31.978069 26.997745,27.140456 26.997745,27.140456 C 18.528582,18.264221 13.291696,25.230495 11.500037,31.436501 z"
     style="fill:#404040;"/>
  </a>
 </g>
</svg>

<style type='text/css'>
<![CDATA[
[data-mouse-over-selected='false'] { opacity: 0.7; }
[data-mouse-over-selected='true']  { opacity: 1.0; }
]]>
</style>
<script type="application/ecmascript"><![CDATA[
document.addEventListener('DOMContentLoaded', (event) => {
  highlightEdges();
  highlightAdjacentNodes();
});
]]></script>
</svg>
