<?xml version="1.0" encoding="UTF-8" standalone="no"?>
<!DOCTYPE svg PUBLIC "-//W3C//DTD SVG 1.1//EN"
 "http://www.w3.org/Graphics/SVG/1.1/DTD/svg11.dtd">
<!-- Generated by graphviz version 12.1.2 (20240928.0832)
 -->
<!-- Title: ReSTIRVulkan/VRE_Texture.h Pages: 1 -->
<svg width="197pt" height="196pt"
 viewBox="0.00 0.00 196.62 196.00" xmlns="http://www.w3.org/2000/svg" xmlns:xlink="http://www.w3.org/1999/xlink">
<g id="graph0" class="graph" transform="scale(1 1) rotate(0) translate(4 192)">
<title>ReSTIRVulkan/VRE_Texture.h</title>
<!-- Node1 -->
<g id="Node000001" class="node">
<title>Node1</title>
<g id="a_Node000001"><a xlink:title=" ">
<polygon fill="#999999" stroke="#666666" points="150.25,-188 0,-188 0,-168 150.25,-168 150.25,-188"/>
<text text-anchor="middle" x="75.12" y="-174.5" font-family="Helvetica,sans-Serif" font-size="10.00">ReSTIRVulkan/VRE_Texture.h</text>
</a>
</g>
</g>
<!-- Node2 -->
<g id="Node000002" class="node">
<title>Node2</title>
<g id="a_Node000002"><a xlink:title=" ">
<polygon fill="#e0e0e0" stroke="#999999" points="58.75,-132 7.5,-132 7.5,-112 58.75,-112 58.75,-132"/>
<text text-anchor="middle" x="33.12" y="-118.5" font-family="Helvetica,sans-Serif" font-size="10.00">memory</text>
</a>
</g>
</g>
<!-- Node1&#45;&gt;Node2 -->
<g id="edge1_Node000001_Node000002" class="edge">
<title>Node1&#45;&gt;Node2</title>
<g id="a_edge1_Node000001_Node000002"><a xlink:title=" ">
<path fill="none" stroke="#63b8ff" d="M67.81,-167.59C62.15,-160.32 54.14,-150.02 47.24,-141.15"/>
<polygon fill="#63b8ff" stroke="#63b8ff" points="50.19,-139.24 41.29,-133.49 44.66,-143.54 50.19,-139.24"/>
</a>
</g>
</g>
<!-- Node3 -->
<g id="Node000003" class="node">
<title>Node3</title>
<g id="a_Node000003"><a xlink:href="_v_r_e___device_8h.html" target="_top" xlink:title=" ">
<polygon fill="white" stroke="#666666" points="157.75,-132 76.5,-132 76.5,-112 157.75,-112 157.75,-132"/>
<text text-anchor="middle" x="117.12" y="-118.5" font-family="Helvetica,sans-Serif" font-size="10.00">VRE_Device.h</text>
</a>
</g>
</g>
<!-- Node1&#45;&gt;Node3 -->
<g id="edge2_Node000001_Node000003" class="edge">
<title>Node1&#45;&gt;Node3</title>
<g id="a_edge2_Node000001_Node000003"><a xlink:title=" ">
<path fill="none" stroke="#63b8ff" d="M82.44,-167.59C88.1,-160.32 96.11,-150.02 103.01,-141.15"/>
<polygon fill="#63b8ff" stroke="#63b8ff" points="105.59,-143.54 108.96,-133.49 100.06,-139.24 105.59,-143.54"/>
</a>
</g>
</g>
<!-- Node4 -->
<g id="Node000004" class="node">
<title>Node4</title>
<g id="a_Node000004"><a xlink:href="_v_r_e___window_8h.html" target="_top" xlink:title=" ">
<polygon fill="white" stroke="#666666" points="88.62,-76 3.62,-76 3.62,-56 88.62,-56 88.62,-76"/>
<text text-anchor="middle" x="46.12" y="-62.5" font-family="Helvetica,sans-Serif" font-size="10.00">VRE_Window.h</text>
</a>
</g>
</g>
<!-- Node3&#45;&gt;Node4 -->
<g id="edge3_Node000003_Node000004" class="edge">
<title>Node3&#45;&gt;Node4</title>
<g id="a_edge3_Node000003_Node000004"><a xlink:title=" ">
<path fill="none" stroke="#63b8ff" d="M104.76,-111.59C94.48,-103.77 79.61,-92.46 67.41,-83.19"/>
<polygon fill="#63b8ff" stroke="#63b8ff" points="69.63,-80.48 59.56,-77.21 65.4,-86.05 69.63,-80.48"/>
</a>
</g>
</g>
<!-- Node6 -->
<g id="Node000006" class="node">
<title>Node6</title>
<g id="a_Node000006"><a xlink:title=" ">
<polygon fill="#e0e0e0" stroke="#999999" points="132.12,-20 92.12,-20 92.12,0 132.12,0 132.12,-20"/>
<text text-anchor="middle" x="112.12" y="-6.5" font-family="Helvetica,sans-Serif" font-size="10.00">string</text>
</a>
</g>
</g>
<!-- Node3&#45;&gt;Node6 -->
<g id="edge6_Node000003_Node000006" class="edge">
<title>Node3&#45;&gt;Node6</title>
<g id="a_edge6_Node000003_Node000006"><a xlink:title=" ">
<path fill="none" stroke="#63b8ff" d="M116.7,-111.62C115.9,-94.01 114.15,-55.59 113.06,-31.65"/>
<polygon fill="#63b8ff" stroke="#63b8ff" points="116.57,-31.7 112.62,-21.87 109.58,-32.02 116.57,-31.7"/>
</a>
</g>
</g>
<!-- Node7 -->
<g id="Node000007" class="node">
<title>Node7</title>
<g id="a_Node000007"><a xlink:title=" ">
<polygon fill="#e0e0e0" stroke="#999999" points="188.62,-76 145.62,-76 145.62,-56 188.62,-56 188.62,-76"/>
<text text-anchor="middle" x="167.12" y="-62.5" font-family="Helvetica,sans-Serif" font-size="10.00">vector</text>
</a>
</g>
</g>
<!-- Node3&#45;&gt;Node7 -->
<g id="edge7_Node000003_Node000007" class="edge">
<title>Node3&#45;&gt;Node7</title>
<g id="a_edge7_Node000003_Node000007"><a xlink:title=" ">
<path fill="none" stroke="#63b8ff" d="M125.83,-111.59C132.72,-104.16 142.52,-93.58 150.84,-84.58"/>
<polygon fill="#63b8ff" stroke="#63b8ff" points="153.26,-87.12 157.49,-77.41 148.12,-82.37 153.26,-87.12"/>
</a>
</g>
</g>
<!-- Node5 -->
<g id="Node000005" class="node">
<title>Node5</title>
<g id="a_Node000005"><a xlink:title=" ">
<polygon fill="#e0e0e0" stroke="#999999" points="69.88,-20 22.38,-20 22.38,0 69.88,0 69.88,-20"/>
<text text-anchor="middle" x="46.12" y="-6.5" font-family="Helvetica,sans-Serif" font-size="10.00">glfw3.h</text>
</a>
</g>
</g>
<!-- Node4&#45;&gt;Node5 -->
<g id="edge4_Node000004_Node000005" class="edge">
<title>Node4&#45;&gt;Node5</title>
<g id="a_edge4_Node000004_Node000005"><a xlink:title=" ">
<path fill="none" stroke="#63b8ff" d="M46.12,-55.59C46.12,-49.01 46.12,-39.96 46.12,-31.73"/>
<polygon fill="#63b8ff" stroke="#63b8ff" points="49.63,-31.81 46.13,-21.81 42.63,-31.81 49.63,-31.81"/>
</a>
</g>
</g>
<!-- Node4&#45;&gt;Node6 -->
<g id="edge5_Node000004_Node000006" class="edge">
<title>Node4&#45;&gt;Node6</title>
<g id="a_edge5_Node000004_Node000006"><a xlink:title=" ">
<path fill="none" stroke="#63b8ff" d="M57.62,-55.59C67.09,-47.85 80.73,-36.69 92,-27.47"/>
<polygon fill="#63b8ff" stroke="#63b8ff" points="94.07,-30.3 99.59,-21.26 89.63,-24.88 94.07,-30.3"/>
</a>
</g>
</g>
</g>
</svg>
