<?xml version="1.0" encoding="UTF-8" standalone="no"?>
<!DOCTYPE svg PUBLIC "-//W3C//DTD SVG 1.1//EN"
 "http://www.w3.org/Graphics/SVG/1.1/DTD/svg11.dtd">
<!-- Generated by graphviz version 12.1.2 (20240928.0832)
 -->
<!-- Title: ReSTIRVulkan/VRE_LightRenderSystem.cpp Pages: 1 -->
<svg width="1444pt" height="544pt"
 viewBox="0.00 0.00 1443.75 544.00" xmlns="http://www.w3.org/2000/svg" xmlns:xlink="http://www.w3.org/1999/xlink">
<g id="graph0" class="graph" transform="scale(1 1) rotate(0) translate(4 540)">
<title>ReSTIRVulkan/VRE_LightRenderSystem.cpp</title>
<!-- Node1 -->
<g id="Node000001" class="node">
<title>Node1</title>
<g id="a_Node000001"><a xlink:title=" ">
<polygon fill="#999999" stroke="#666666" points="1300.12,-536 1137.88,-536 1137.88,-504 1300.12,-504 1300.12,-536"/>
<text text-anchor="start" x="1145.88" y="-522.5" font-family="Helvetica,sans-Serif" font-size="10.00">ReSTIRVulkan/VRE_LightRender</text>
<text text-anchor="middle" x="1219" y="-510.5" font-family="Helvetica,sans-Serif" font-size="10.00">System.cpp</text>
</a>
</g>
</g>
<!-- Node2 -->
<g id="Node000002" class="node">
<title>Node2</title>
<g id="a_Node000002"><a xlink:href="_v_r_e___light_render_system_8h.html" target="_top" xlink:title=" ">
<polygon fill="white" stroke="#666666" points="1287.38,-468 1150.62,-468 1150.62,-448 1287.38,-448 1287.38,-468"/>
<text text-anchor="middle" x="1219" y="-454.5" font-family="Helvetica,sans-Serif" font-size="10.00">VRE_LightRenderSystem.h</text>
</a>
</g>
</g>
<!-- Node1&#45;&gt;Node2 -->
<g id="edge1_Node000001_Node000002" class="edge">
<title>Node1&#45;&gt;Node2</title>
<g id="a_edge1_Node000001_Node000002"><a xlink:title=" ">
<path fill="none" stroke="#63b8ff" d="M1219,-503.55C1219,-496.34 1219,-487.66 1219,-479.88"/>
<polygon fill="#63b8ff" stroke="#63b8ff" points="1222.5,-479.92 1219,-469.92 1215.5,-479.92 1222.5,-479.92"/>
</a>
</g>
</g>
<!-- Node13 -->
<g id="Node000013" class="node">
<title>Node13</title>
<g id="a_Node000013"><a xlink:title=" ">
<polygon fill="#e0e0e0" stroke="#999999" points="1166.12,-188 1117.88,-188 1117.88,-168 1166.12,-168 1166.12,-188"/>
<text text-anchor="middle" x="1142" y="-174.5" font-family="Helvetica,sans-Serif" font-size="10.00">cassert</text>
</a>
</g>
</g>
<!-- Node1&#45;&gt;Node13 -->
<g id="edge58_Node000001_Node000013" class="edge">
<title>Node1&#45;&gt;Node13</title>
<g id="a_edge58_Node000001_Node000013"><a xlink:title=" ">
<path fill="none" stroke="#63b8ff" d="M1185.39,-503.58C1170.17,-495.05 1153.13,-483.1 1142,-468 1124.14,-443.77 1123,-433.1 1123,-403 1123,-403 1123,-403 1123,-289 1123,-257.26 1130.78,-221.11 1136.38,-199.19"/>
<polygon fill="#63b8ff" stroke="#63b8ff" points="1139.69,-200.35 1138.89,-189.79 1132.93,-198.54 1139.69,-200.35"/>
</a>
</g>
</g>
<!-- Node19 -->
<g id="Node000019" class="node">
<title>Node19</title>
<g id="a_Node000019"><a xlink:title=" ">
<polygon fill="#e0e0e0" stroke="#999999" points="152.38,-300 27.63,-300 27.63,-280 152.38,-280 152.38,-300"/>
<text text-anchor="middle" x="90" y="-286.5" font-family="Helvetica,sans-Serif" font-size="10.00">gtc/matrix_transform.hpp</text>
</a>
</g>
</g>
<!-- Node1&#45;&gt;Node19 -->
<g id="edge60_Node000001_Node000019" class="edge">
<title>Node1&#45;&gt;Node19</title>
<g id="a_edge60_Node000001_Node000019"><a xlink:title=" ">
<path fill="none" stroke="#63b8ff" d="M1137.56,-514.52C988.89,-505 664.43,-477.95 399,-412 292.29,-385.49 172.95,-331.25 119.12,-305.37"/>
<polygon fill="#63b8ff" stroke="#63b8ff" points="120.84,-302.31 110.31,-301.1 117.78,-308.61 120.84,-302.31"/>
</a>
</g>
</g>
<!-- Node28 -->
<g id="Node000028" class="node">
<title>Node28</title>
<g id="a_Node000028"><a xlink:title=" ">
<polygon fill="#e0e0e0" stroke="#999999" points="1364.38,-468 1305.62,-468 1305.62,-448 1364.38,-448 1364.38,-468"/>
<text text-anchor="middle" x="1335" y="-454.5" font-family="Helvetica,sans-Serif" font-size="10.00">stdexcept</text>
</a>
</g>
</g>
<!-- Node1&#45;&gt;Node28 -->
<g id="edge57_Node000001_Node000028" class="edge">
<title>Node1&#45;&gt;Node28</title>
<g id="a_edge57_Node000001_Node000028"><a xlink:title=" ">
<path fill="none" stroke="#63b8ff" d="M1248.87,-503.55C1266.66,-494.35 1289.11,-482.74 1306.63,-473.68"/>
<polygon fill="#63b8ff" stroke="#63b8ff" points="1308.19,-476.81 1315.47,-469.1 1304.98,-470.59 1308.19,-476.81"/>
</a>
</g>
</g>
<!-- Node29 -->
<g id="Node000029" class="node">
<title>Node29</title>
<g id="a_Node000029"><a xlink:title=" ">
<polygon fill="#e0e0e0" stroke="#999999" points="1435.75,-468 1382.25,-468 1382.25,-448 1435.75,-448 1435.75,-468"/>
<text text-anchor="middle" x="1409" y="-454.5" font-family="Helvetica,sans-Serif" font-size="10.00">iostream</text>
</a>
</g>
</g>
<!-- Node1&#45;&gt;Node29 -->
<g id="edge59_Node000001_Node000029" class="edge">
<title>Node1&#45;&gt;Node29</title>
<g id="a_edge59_Node000001_Node000029"><a xlink:title=" ">
<path fill="none" stroke="#63b8ff" d="M1267.93,-503.55C1300.1,-493.39 1341.58,-480.29 1371.22,-470.93"/>
<polygon fill="#63b8ff" stroke="#63b8ff" points="1372.03,-474.35 1380.51,-468 1369.92,-467.67 1372.03,-474.35"/>
</a>
</g>
</g>
<!-- Node3 -->
<g id="Node000003" class="node">
<title>Node3</title>
<g id="a_Node000003"><a xlink:href="_v_r_e___device_8h.html" target="_top" xlink:title=" ">
<polygon fill="white" stroke="#666666" points="1016.62,-132 935.38,-132 935.38,-112 1016.62,-112 1016.62,-132"/>
<text text-anchor="middle" x="976" y="-118.5" font-family="Helvetica,sans-Serif" font-size="10.00">VRE_Device.h</text>
</a>
</g>
</g>
<!-- Node2&#45;&gt;Node3 -->
<g id="edge2_Node000002_Node000003" class="edge">
<title>Node2&#45;&gt;Node3</title>
<g id="a_edge2_Node000002_Node000003"><a xlink:title=" ">
<path fill="none" stroke="#63b8ff" d="M1215.42,-447.74C1208.51,-429.02 1194,-385.19 1194,-347 1194,-347 1194,-347 1194,-233 1194,-202.9 1196.93,-188.61 1175,-168 1154.06,-148.32 1079.75,-135.51 1028.11,-128.77"/>
<polygon fill="#63b8ff" stroke="#63b8ff" points="1028.68,-125.31 1018.32,-127.53 1027.8,-132.26 1028.68,-125.31"/>
</a>
</g>
</g>
<!-- Node8 -->
<g id="Node000008" class="node">
<title>Node8</title>
<g id="a_Node000008"><a xlink:href="_v_r_e___shared_context_8h.html" target="_top" xlink:title=" ">
<polygon fill="white" stroke="#666666" points="523.88,-412 408.12,-412 408.12,-392 523.88,-392 523.88,-412"/>
<text text-anchor="middle" x="466" y="-398.5" font-family="Helvetica,sans-Serif" font-size="10.00">VRE_SharedContext.h</text>
</a>
</g>
</g>
<!-- Node2&#45;&gt;Node8 -->
<g id="edge8_Node000002_Node000008" class="edge">
<title>Node2&#45;&gt;Node8</title>
<g id="a_edge8_Node000002_Node000008"><a xlink:title=" ">
<path fill="none" stroke="#63b8ff" d="M1150.18,-452.06C1007.11,-441.8 678.96,-418.27 535.39,-407.98"/>
<polygon fill="#63b8ff" stroke="#63b8ff" points="535.88,-404.5 525.65,-407.28 535.38,-411.48 535.88,-404.5"/>
</a>
</g>
</g>
<!-- Node25 -->
<g id="Node000025" class="node">
<title>Node25</title>
<g id="a_Node000025"><a xlink:href="_v_r_e___pipeline_8h.html" target="_top" xlink:title=" ">
<polygon fill="white" stroke="#666666" points="1307.5,-188 1222.5,-188 1222.5,-168 1307.5,-168 1307.5,-188"/>
<text text-anchor="middle" x="1265" y="-174.5" font-family="Helvetica,sans-Serif" font-size="10.00">VRE_Pipeline.h</text>
</a>
</g>
</g>
<!-- Node2&#45;&gt;Node25 -->
<g id="edge56_Node000002_Node000025" class="edge">
<title>Node2&#45;&gt;Node25</title>
<g id="a_edge56_Node000002_Node000025"><a xlink:title=" ">
<path fill="none" stroke="#63b8ff" d="M1226.75,-447.67C1241.01,-429.52 1270,-387.63 1270,-347 1270,-347 1270,-347 1270,-289 1270,-257.84 1267.97,-221.76 1266.5,-199.66"/>
<polygon fill="#63b8ff" stroke="#63b8ff" points="1270.01,-199.65 1265.82,-189.92 1263.02,-200.14 1270.01,-199.65"/>
</a>
</g>
</g>
<!-- Node4 -->
<g id="Node000004" class="node">
<title>Node4</title>
<g id="a_Node000004"><a xlink:href="_v_r_e___window_8h.html" target="_top" xlink:title=" ">
<polygon fill="white" stroke="#666666" points="1279.5,-76 1194.5,-76 1194.5,-56 1279.5,-56 1279.5,-76"/>
<text text-anchor="middle" x="1237" y="-62.5" font-family="Helvetica,sans-Serif" font-size="10.00">VRE_Window.h</text>
</a>
</g>
</g>
<!-- Node3&#45;&gt;Node4 -->
<g id="edge3_Node000003_Node000004" class="edge">
<title>Node3&#45;&gt;Node4</title>
<g id="a_edge3_Node000003_Node000004"><a xlink:title=" ">
<path fill="none" stroke="#63b8ff" d="M1017.07,-112.5C1061.82,-103.24 1133.6,-88.39 1182.91,-78.19"/>
<polygon fill="#63b8ff" stroke="#63b8ff" points="1183.44,-81.66 1192.52,-76.2 1182.02,-74.8 1183.44,-81.66"/>
</a>
</g>
</g>
<!-- Node6 -->
<g id="Node000006" class="node">
<title>Node6</title>
<g id="a_Node000006"><a xlink:title=" ">
<polygon fill="#e0e0e0" stroke="#999999" points="1167,-20 1127,-20 1127,0 1167,0 1167,-20"/>
<text text-anchor="middle" x="1147" y="-6.5" font-family="Helvetica,sans-Serif" font-size="10.00">string</text>
</a>
</g>
</g>
<!-- Node3&#45;&gt;Node6 -->
<g id="edge6_Node000003_Node000006" class="edge">
<title>Node3&#45;&gt;Node6</title>
<g id="a_edge6_Node000003_Node000006"><a xlink:title=" ">
<path fill="none" stroke="#63b8ff" d="M990.58,-111.62C1020.11,-92.63 1087.23,-49.45 1123.2,-26.31"/>
<polygon fill="#63b8ff" stroke="#63b8ff" points="1124.67,-29.53 1131.18,-21.17 1120.88,-23.64 1124.67,-29.53"/>
</a>
</g>
</g>
<!-- Node7 -->
<g id="Node000007" class="node">
<title>Node7</title>
<g id="a_Node000007"><a xlink:title=" ">
<polygon fill="#e0e0e0" stroke="#999999" points="881.5,-76 838.5,-76 838.5,-56 881.5,-56 881.5,-76"/>
<text text-anchor="middle" x="860" y="-62.5" font-family="Helvetica,sans-Serif" font-size="10.00">vector</text>
</a>
</g>
</g>
<!-- Node3&#45;&gt;Node7 -->
<g id="edge7_Node000003_Node000007" class="edge">
<title>Node3&#45;&gt;Node7</title>
<g id="a_edge7_Node000003_Node000007"><a xlink:title=" ">
<path fill="none" stroke="#63b8ff" d="M955.79,-111.59C937.77,-103.21 911.13,-90.8 890.52,-81.21"/>
<polygon fill="#63b8ff" stroke="#63b8ff" points="892.28,-78.17 881.74,-77.12 889.32,-84.51 892.28,-78.17"/>
</a>
</g>
</g>
<!-- Node5 -->
<g id="Node000005" class="node">
<title>Node5</title>
<g id="a_Node000005"><a xlink:title=" ">
<polygon fill="#e0e0e0" stroke="#999999" points="1260.75,-20 1213.25,-20 1213.25,0 1260.75,0 1260.75,-20"/>
<text text-anchor="middle" x="1237" y="-6.5" font-family="Helvetica,sans-Serif" font-size="10.00">glfw3.h</text>
</a>
</g>
</g>
<!-- Node4&#45;&gt;Node5 -->
<g id="edge4_Node000004_Node000005" class="edge">
<title>Node4&#45;&gt;Node5</title>
<g id="a_edge4_Node000004_Node000005"><a xlink:title=" ">
<path fill="none" stroke="#63b8ff" d="M1237,-55.59C1237,-49.01 1237,-39.96 1237,-31.73"/>
<polygon fill="#63b8ff" stroke="#63b8ff" points="1240.5,-31.81 1237,-21.81 1233.5,-31.81 1240.5,-31.81"/>
</a>
</g>
</g>
<!-- Node4&#45;&gt;Node6 -->
<g id="edge5_Node000004_Node000006" class="edge">
<title>Node4&#45;&gt;Node6</title>
<g id="a_edge5_Node000004_Node000006"><a xlink:title=" ">
<path fill="none" stroke="#63b8ff" d="M1221.32,-55.59C1207.86,-47.51 1188.18,-35.71 1172.46,-26.27"/>
<polygon fill="#63b8ff" stroke="#63b8ff" points="1174.47,-23.4 1164.1,-21.26 1170.87,-29.4 1174.47,-23.4"/>
</a>
</g>
</g>
<!-- Node9 -->
<g id="Node000009" class="node">
<title>Node9</title>
<g id="a_Node000009"><a xlink:title=" ">
<polygon fill="#e0e0e0" stroke="#999999" points="380.12,-132 295.88,-132 295.88,-112 380.12,-112 380.12,-132"/>
<text text-anchor="middle" x="338" y="-118.5" font-family="Helvetica,sans-Serif" font-size="10.00">vulkan/vulkan.h</text>
</a>
</g>
</g>
<!-- Node8&#45;&gt;Node9 -->
<g id="edge9_Node000008_Node000009" class="edge">
<title>Node8&#45;&gt;Node9</title>
<g id="a_edge9_Node000008_Node000009"><a xlink:title=" ">
<path fill="none" stroke="#63b8ff" d="M407.92,-399.41C283,-394.4 0,-373.92 0,-291 0,-291 0,-291 0,-233 0,-173.92 189.07,-141.68 284.39,-129.18"/>
<polygon fill="#63b8ff" stroke="#63b8ff" points="284.56,-132.69 294.03,-127.95 283.67,-125.75 284.56,-132.69"/>
</a>
</g>
</g>
<!-- Node10 -->
<g id="Node000010" class="node">
<title>Node10</title>
<g id="a_Node000010"><a xlink:href="_v_r_e___renderer_8h.html" target="_top" xlink:title=" ">
<polygon fill="white" stroke="#666666" points="1095.12,-244 1004.88,-244 1004.88,-224 1095.12,-224 1095.12,-244"/>
<text text-anchor="middle" x="1050" y="-230.5" font-family="Helvetica,sans-Serif" font-size="10.00">VRE_Renderer.h</text>
</a>
</g>
</g>
<!-- Node8&#45;&gt;Node10 -->
<g id="edge10_Node000008_Node000010" class="edge">
<title>Node8&#45;&gt;Node10</title>
<g id="a_edge10_Node000008_Node000010"><a xlink:title=" ">
<path fill="none" stroke="#63b8ff" d="M524.05,-391.74C609.72,-377.18 774.4,-345.81 909,-300 949.77,-286.12 994.58,-264.25 1022.5,-249.76"/>
<polygon fill="#63b8ff" stroke="#63b8ff" points="1024.11,-252.87 1031.34,-245.12 1020.86,-246.67 1024.11,-252.87"/>
</a>
</g>
</g>
<!-- Node14 -->
<g id="Node000014" class="node">
<title>Node14</title>
<g id="a_Node000014"><a xlink:href="_v_r_e___point_light_8h.html" target="_top" xlink:title=" ">
<polygon fill="white" stroke="#666666" points="216,-244 122,-244 122,-224 216,-224 216,-244"/>
<text text-anchor="middle" x="169" y="-230.5" font-family="Helvetica,sans-Serif" font-size="10.00">VRE_PointLight.h</text>
</a>
</g>
</g>
<!-- Node8&#45;&gt;Node14 -->
<g id="edge22_Node000008_Node000014" class="edge">
<title>Node8&#45;&gt;Node14</title>
<g id="a_edge22_Node000008_Node000014"><a xlink:title=" ">
<path fill="none" stroke="#63b8ff" d="M407.63,-392.2C348.45,-380.53 257.5,-354.63 199,-300 186.08,-287.94 178.26,-269.22 173.86,-254.97"/>
<polygon fill="#63b8ff" stroke="#63b8ff" points="177.35,-254.46 171.33,-245.74 170.6,-256.31 177.35,-254.46"/>
</a>
</g>
</g>
<!-- Node16 -->
<g id="Node000016" class="node">
<title>Node16</title>
<g id="a_Node000016"><a xlink:href="_v_r_e___descriptor_8h.html" target="_top" xlink:title=" ">
<polygon fill="white" stroke="#666666" points="590.75,-244 495.25,-244 495.25,-224 590.75,-224 590.75,-244"/>
<text text-anchor="middle" x="543" y="-230.5" font-family="Helvetica,sans-Serif" font-size="10.00">VRE_Descriptor.h</text>
</a>
</g>
</g>
<!-- Node8&#45;&gt;Node16 -->
<g id="edge25_Node000008_Node000016" class="edge">
<title>Node8&#45;&gt;Node16</title>
<g id="a_edge25_Node000008_Node000016"><a xlink:title=" ">
<path fill="none" stroke="#63b8ff" d="M470.36,-391.6C482.59,-365.23 517.4,-290.19 533.99,-254.42"/>
<polygon fill="#63b8ff" stroke="#63b8ff" points="537.02,-256.21 538.05,-245.67 530.67,-253.27 537.02,-256.21"/>
</a>
</g>
</g>
<!-- Node18 -->
<g id="Node000018" class="node">
<title>Node18</title>
<g id="a_Node000018"><a xlink:href="_v_r_e___game_object_8h.html" target="_top" xlink:title=" ">
<polygon fill="white" stroke="#666666" points="460.62,-356 355.38,-356 355.38,-336 460.62,-336 460.62,-356"/>
<text text-anchor="middle" x="408" y="-342.5" font-family="Helvetica,sans-Serif" font-size="10.00">VRE_GameObject.h</text>
</a>
</g>
</g>
<!-- Node8&#45;&gt;Node18 -->
<g id="edge30_Node000008_Node000018" class="edge">
<title>Node8&#45;&gt;Node18</title>
<g id="a_edge30_Node000008_Node000018"><a xlink:title=" ">
<path fill="none" stroke="#63b8ff" d="M455.9,-391.59C447.75,-384.01 436.07,-373.13 426.28,-364.02"/>
<polygon fill="#63b8ff" stroke="#63b8ff" points="428.8,-361.58 419.09,-357.33 424.03,-366.71 428.8,-361.58"/>
</a>
</g>
</g>
<!-- Node10&#45;&gt;Node3 -->
<g id="edge12_Node000010_Node000003" class="edge">
<title>Node10&#45;&gt;Node3</title>
<g id="a_edge12_Node000010_Node000003"><a xlink:title=" ">
<path fill="none" stroke="#63b8ff" d="M1048.5,-223.92C1045.98,-210.7 1039.96,-185.8 1028,-168 1020.53,-156.89 1009.62,-146.87 999.73,-139.13"/>
<polygon fill="#63b8ff" stroke="#63b8ff" points="1002.03,-136.48 991.91,-133.34 997.86,-142.11 1002.03,-136.48"/>
</a>
</g>
</g>
<!-- Node10&#45;&gt;Node4 -->
<g id="edge11_Node000010_Node000004" class="edge">
<title>Node10&#45;&gt;Node4</title>
<g id="a_edge11_Node000010_Node000004"><a xlink:title=" ">
<path fill="none" stroke="#63b8ff" d="M1095.41,-232.14C1164.04,-229.78 1289.15,-220.93 1317,-188 1346.6,-153 1293.66,-106.59 1260.59,-82.7"/>
<polygon fill="#63b8ff" stroke="#63b8ff" points="1262.92,-80.06 1252.72,-77.18 1258.9,-85.79 1262.92,-80.06"/>
</a>
</g>
</g>
<!-- Node10&#45;&gt;Node7 -->
<g id="edge20_Node000010_Node000007" class="edge">
<title>Node10&#45;&gt;Node7</title>
<g id="a_edge20_Node000010_Node000007"><a xlink:title=" ">
<path fill="none" stroke="#63b8ff" d="M1051.43,-223.69C1054.37,-200.78 1058.31,-141.41 1026,-112 989.14,-78.45 929.76,-69.52 892.91,-67.37"/>
<polygon fill="#63b8ff" stroke="#63b8ff" points="893.45,-63.89 883.31,-66.95 893.15,-70.88 893.45,-63.89"/>
</a>
</g>
</g>
<!-- Node11 -->
<g id="Node000011" class="node">
<title>Node11</title>
<g id="a_Node000011"><a xlink:href="_v_r_e___swap_chain_8h.html" target="_top" xlink:title=" ">
<polygon fill="white" stroke="#666666" points="526.38,-188 425.62,-188 425.62,-168 526.38,-168 526.38,-188"/>
<text text-anchor="middle" x="476" y="-174.5" font-family="Helvetica,sans-Serif" font-size="10.00">VRE_SwapChain.h</text>
</a>
</g>
</g>
<!-- Node10&#45;&gt;Node11 -->
<g id="edge13_Node000010_Node000011" class="edge">
<title>Node10&#45;&gt;Node11</title>
<g id="a_edge13_Node000010_Node000011"><a xlink:title=" ">
<path fill="none" stroke="#63b8ff" d="M1004.48,-228.72C902.22,-219.1 654.17,-195.76 537.98,-184.83"/>
<polygon fill="#63b8ff" stroke="#63b8ff" points="538.61,-181.37 528.33,-183.92 537.95,-188.34 538.61,-181.37"/>
</a>
</g>
</g>
<!-- Node12 -->
<g id="Node000012" class="node">
<title>Node12</title>
<g id="a_Node000012"><a xlink:title=" ">
<polygon fill="#e0e0e0" stroke="#999999" points="449.62,-132 398.38,-132 398.38,-112 449.62,-112 449.62,-132"/>
<text text-anchor="middle" x="424" y="-118.5" font-family="Helvetica,sans-Serif" font-size="10.00">memory</text>
</a>
</g>
</g>
<!-- Node10&#45;&gt;Node12 -->
<g id="edge19_Node000010_Node000012" class="edge">
<title>Node10&#45;&gt;Node12</title>
<g id="a_edge19_Node000010_Node000012"><a xlink:title=" ">
<path fill="none" stroke="#63b8ff" d="M1040.42,-223.63C1024.58,-208.82 991.27,-180.4 957,-168 865.56,-134.92 567.02,-125.85 461.42,-123.64"/>
<polygon fill="#63b8ff" stroke="#63b8ff" points="461.68,-120.15 451.61,-123.45 461.54,-127.14 461.68,-120.15"/>
</a>
</g>
</g>
<!-- Node10&#45;&gt;Node13 -->
<g id="edge21_Node000010_Node000013" class="edge">
<title>Node10&#45;&gt;Node13</title>
<g id="a_edge21_Node000010_Node000013"><a xlink:title=" ">
<path fill="none" stroke="#63b8ff" d="M1066.03,-223.59C1079.79,-215.51 1099.9,-203.71 1115.98,-194.27"/>
<polygon fill="#63b8ff" stroke="#63b8ff" points="1117.69,-197.33 1124.54,-189.25 1114.15,-191.29 1117.69,-197.33"/>
</a>
</g>
</g>
<!-- Node11&#45;&gt;Node3 -->
<g id="edge14_Node000011_Node000003" class="edge">
<title>Node11&#45;&gt;Node3</title>
<g id="a_edge14_Node000011_Node000003"><a xlink:title=" ">
<path fill="none" stroke="#63b8ff" d="M526.69,-171.53C622.12,-161.22 827.5,-139.04 923.95,-128.62"/>
<polygon fill="#63b8ff" stroke="#63b8ff" points="924.09,-132.13 933.66,-127.57 923.34,-125.17 924.09,-132.13"/>
</a>
</g>
</g>
<!-- Node11&#45;&gt;Node6 -->
<g id="edge16_Node000011_Node000006" class="edge">
<title>Node11&#45;&gt;Node6</title>
<g id="a_edge16_Node000011_Node000006"><a xlink:title=" ">
<path fill="none" stroke="#63b8ff" d="M478.07,-167.75C481.8,-153.36 491.08,-125.83 510,-112 608.44,-40.03 1000.5,-17.41 1115.28,-12.27"/>
<polygon fill="#63b8ff" stroke="#63b8ff" points="1115.34,-15.77 1125.18,-11.84 1115.04,-8.77 1115.34,-15.77"/>
</a>
</g>
</g>
<!-- Node11&#45;&gt;Node7 -->
<g id="edge17_Node000011_Node000007" class="edge">
<title>Node11&#45;&gt;Node7</title>
<g id="a_edge17_Node000011_Node000007"><a xlink:title=" ">
<path fill="none" stroke="#63b8ff" d="M482.16,-167.58C492.3,-152.95 513.97,-125.1 540,-112 589.86,-86.9 755.55,-73.63 826.87,-68.97"/>
<polygon fill="#63b8ff" stroke="#63b8ff" points="827,-72.47 836.75,-68.34 826.55,-65.48 827,-72.47"/>
</a>
</g>
</g>
<!-- Node11&#45;&gt;Node9 -->
<g id="edge15_Node000011_Node000009" class="edge">
<title>Node11&#45;&gt;Node9</title>
<g id="a_edge15_Node000011_Node000009"><a xlink:title=" ">
<path fill="none" stroke="#63b8ff" d="M451.96,-167.59C430.03,-159.01 397.37,-146.23 372.63,-136.55"/>
<polygon fill="#63b8ff" stroke="#63b8ff" points="374.22,-133.42 363.63,-133.03 371.67,-139.93 374.22,-133.42"/>
</a>
</g>
</g>
<!-- Node11&#45;&gt;Node12 -->
<g id="edge18_Node000011_Node000012" class="edge">
<title>Node11&#45;&gt;Node12</title>
<g id="a_edge18_Node000011_Node000012"><a xlink:title=" ">
<path fill="none" stroke="#63b8ff" d="M466.94,-167.59C459.78,-160.16 449.59,-149.58 440.93,-140.58"/>
<polygon fill="#63b8ff" stroke="#63b8ff" points="443.46,-138.16 434,-133.39 438.42,-143.02 443.46,-138.16"/>
</a>
</g>
</g>
<!-- Node14&#45;&gt;Node12 -->
<g id="edge24_Node000014_Node000012" class="edge">
<title>Node14&#45;&gt;Node12</title>
<g id="a_edge24_Node000014_Node000012"><a xlink:title=" ">
<path fill="none" stroke="#63b8ff" d="M157.57,-223.57C142.63,-210.13 120.05,-185.21 135,-168 170.4,-127.22 316.48,-141.37 387.03,-131.83"/>
<polygon fill="#63b8ff" stroke="#63b8ff" points="387.29,-135.34 396.59,-130.25 386.15,-128.43 387.29,-135.34"/>
</a>
</g>
</g>
<!-- Node15 -->
<g id="Node000015" class="node">
<title>Node15</title>
<g id="a_Node000015"><a xlink:title=" ">
<polygon fill="#e0e0e0" stroke="#999999" points="194.25,-188 143.75,-188 143.75,-168 194.25,-168 194.25,-188"/>
<text text-anchor="middle" x="169" y="-174.5" font-family="Helvetica,sans-Serif" font-size="10.00">glm.hpp</text>
</a>
</g>
</g>
<!-- Node14&#45;&gt;Node15 -->
<g id="edge23_Node000014_Node000015" class="edge">
<title>Node14&#45;&gt;Node15</title>
<g id="a_edge23_Node000014_Node000015"><a xlink:title=" ">
<path fill="none" stroke="#63b8ff" d="M169,-223.59C169,-217.01 169,-207.96 169,-199.73"/>
<polygon fill="#63b8ff" stroke="#63b8ff" points="172.5,-199.81 169,-189.81 165.5,-199.81 172.5,-199.81"/>
</a>
</g>
</g>
<!-- Node16&#45;&gt;Node3 -->
<g id="edge26_Node000016_Node000003" class="edge">
<title>Node16&#45;&gt;Node3</title>
<g id="a_edge26_Node000016_Node000003"><a xlink:title=" ">
<path fill="none" stroke="#63b8ff" d="M549.67,-223.52C560.6,-208.82 583.85,-180.87 611,-168 665.18,-142.31 836.32,-130.09 923.65,-125.41"/>
<polygon fill="#63b8ff" stroke="#63b8ff" points="923.57,-128.92 933.37,-124.9 923.2,-121.93 923.57,-128.92"/>
</a>
</g>
</g>
<!-- Node16&#45;&gt;Node7 -->
<g id="edge29_Node000016_Node000007" class="edge">
<title>Node16&#45;&gt;Node7</title>
<g id="a_edge29_Node000016_Node000007"><a xlink:title=" ">
<path fill="none" stroke="#63b8ff" d="M545.8,-223.66C550.47,-209.65 561.12,-183.21 579,-168 653.27,-104.8 770.13,-79.95 826.87,-71.21"/>
<polygon fill="#63b8ff" stroke="#63b8ff" points="827.14,-74.7 836.53,-69.8 826.13,-67.78 827.14,-74.7"/>
</a>
</g>
</g>
<!-- Node16&#45;&gt;Node12 -->
<g id="edge27_Node000016_Node000012" class="edge">
<title>Node16&#45;&gt;Node12</title>
<g id="a_edge27_Node000016_Node000012"><a xlink:title=" ">
<path fill="none" stroke="#63b8ff" d="M494.75,-229.08C467.11,-224.07 434.53,-212.87 417,-188 407.81,-174.95 410.82,-156.63 415.41,-142.76"/>
<polygon fill="#63b8ff" stroke="#63b8ff" points="418.54,-144.37 418.86,-133.78 412.01,-141.86 418.54,-144.37"/>
</a>
</g>
</g>
<!-- Node17 -->
<g id="Node000017" class="node">
<title>Node17</title>
<g id="a_Node000017"><a xlink:title=" ">
<polygon fill="#e0e0e0" stroke="#999999" points="332.38,-188 249.62,-188 249.62,-168 332.38,-168 332.38,-188"/>
<text text-anchor="middle" x="291" y="-174.5" font-family="Helvetica,sans-Serif" font-size="10.00">unordered_map</text>
</a>
</g>
</g>
<!-- Node16&#45;&gt;Node17 -->
<g id="edge28_Node000016_Node000017" class="edge">
<title>Node16&#45;&gt;Node17</title>
<g id="a_edge28_Node000016_Node000017"><a xlink:title=" ">
<path fill="none" stroke="#63b8ff" d="M498.82,-223.53C455.61,-214.27 389.8,-200.17 343.85,-190.32"/>
<polygon fill="#63b8ff" stroke="#63b8ff" points="344.61,-186.91 334.1,-188.24 343.14,-193.75 344.61,-186.91"/>
</a>
</g>
</g>
<!-- Node18&#45;&gt;Node11 -->
<g id="edge55_Node000018_Node000011" class="edge">
<title>Node18&#45;&gt;Node11</title>
<g id="a_edge55_Node000018_Node000011"><a xlink:title=" ">
<path fill="none" stroke="#63b8ff" d="M411.85,-335.6C422.6,-309.35 453.13,-234.84 467.85,-198.89"/>
<polygon fill="#63b8ff" stroke="#63b8ff" points="471.07,-200.28 471.62,-189.7 464.59,-197.62 471.07,-200.28"/>
</a>
</g>
</g>
<!-- Node18&#45;&gt;Node12 -->
<g id="edge31_Node000018_Node000012" class="edge">
<title>Node18&#45;&gt;Node12</title>
<g id="a_edge31_Node000018_Node000012"><a xlink:title=" ">
<path fill="none" stroke="#63b8ff" d="M400.67,-335.77C390.2,-322.8 370.11,-298.67 351,-280 301.09,-231.25 197.89,-222.86 241,-168 280.71,-117.48 319.21,-145.24 386.9,-132.19"/>
<polygon fill="#63b8ff" stroke="#63b8ff" points="387.53,-135.63 396.54,-130.05 386.02,-128.8 387.53,-135.63"/>
</a>
</g>
</g>
<!-- Node18&#45;&gt;Node17 -->
<g id="edge32_Node000018_Node000017" class="edge">
<title>Node18&#45;&gt;Node17</title>
<g id="a_edge32_Node000018_Node000017"><a xlink:title=" ">
<path fill="none" stroke="#63b8ff" d="M405.33,-335.91C401.43,-323.1 393.55,-299.16 384,-280 370.8,-253.52 367.88,-245.91 348,-224 338.14,-213.13 325.47,-202.85 314.57,-194.86"/>
<polygon fill="#63b8ff" stroke="#63b8ff" points="316.62,-192.02 306.44,-189.09 312.57,-197.73 316.62,-192.02"/>
</a>
</g>
</g>
<!-- Node18&#45;&gt;Node19 -->
<g id="edge33_Node000018_Node000019" class="edge">
<title>Node18&#45;&gt;Node19</title>
<g id="a_edge33_Node000018_Node000019"><a xlink:title=" ">
<path fill="none" stroke="#63b8ff" d="M355.13,-336.02C300.79,-326.8 216.02,-312.4 157.01,-302.38"/>
<polygon fill="#63b8ff" stroke="#63b8ff" points="157.88,-298.98 147.43,-300.75 156.71,-305.88 157.88,-298.98"/>
</a>
</g>
</g>
<!-- Node20 -->
<g id="Node000020" class="node">
<title>Node20</title>
<g id="a_Node000020"><a xlink:href="_v_r_e__gl_t_f_model_8h.html" target="_top" xlink:title=" ">
<polygon fill="white" stroke="#666666" points="900.12,-300 803.88,-300 803.88,-280 900.12,-280 900.12,-300"/>
<text text-anchor="middle" x="852" y="-286.5" font-family="Helvetica,sans-Serif" font-size="10.00">VRE_glTFModel.h</text>
</a>
</g>
</g>
<!-- Node18&#45;&gt;Node20 -->
<g id="edge34_Node000018_Node000020" class="edge">
<title>Node18&#45;&gt;Node20</title>
<g id="a_edge34_Node000018_Node000020"><a xlink:title=" ">
<path fill="none" stroke="#63b8ff" d="M461.12,-338.54C544.38,-328.41 705.12,-308.86 792.29,-298.26"/>
<polygon fill="#63b8ff" stroke="#63b8ff" points="792.56,-301.75 802.07,-297.07 791.72,-294.81 792.56,-301.75"/>
</a>
</g>
</g>
<!-- Node27 -->
<g id="Node000027" class="node">
<title>Node27</title>
<g id="a_Node000027"><a xlink:href="_v_r_e___object_components_8h.html" target="_top" xlink:title=" ">
<polygon fill="white" stroke="#666666" points="342.25,-300 207.75,-300 207.75,-280 342.25,-280 342.25,-300"/>
<text text-anchor="middle" x="275" y="-286.5" font-family="Helvetica,sans-Serif" font-size="10.00">VRE_ObjectComponents.h</text>
</a>
</g>
</g>
<!-- Node18&#45;&gt;Node27 -->
<g id="edge53_Node000018_Node000027" class="edge">
<title>Node18&#45;&gt;Node27</title>
<g id="a_edge53_Node000018_Node000027"><a xlink:title=" ">
<path fill="none" stroke="#63b8ff" d="M384.83,-335.59C363.79,-327.05 332.5,-314.35 308.7,-304.68"/>
<polygon fill="#63b8ff" stroke="#63b8ff" points="310.33,-301.57 299.75,-301.05 307.7,-308.05 310.33,-301.57"/>
</a>
</g>
</g>
<!-- Node20&#45;&gt;Node3 -->
<g id="edge35_Node000020_Node000003" class="edge">
<title>Node20&#45;&gt;Node3</title>
<g id="a_edge35_Node000020_Node000003"><a xlink:title=" ">
<path fill="none" stroke="#63b8ff" d="M866.18,-279.73C889.2,-263.88 934.38,-229.25 957,-188 964.63,-174.09 969.49,-156.8 972.39,-143.54"/>
<polygon fill="#63b8ff" stroke="#63b8ff" points="975.81,-144.29 974.29,-133.8 968.94,-142.94 975.81,-144.29"/>
</a>
</g>
</g>
<!-- Node20&#45;&gt;Node16 -->
<g id="edge51_Node000020_Node000016" class="edge">
<title>Node20&#45;&gt;Node16</title>
<g id="a_edge51_Node000020_Node000016"><a xlink:title=" ">
<path fill="none" stroke="#63b8ff" d="M803.38,-280.5C748.97,-270.99 660.79,-255.59 602.36,-245.37"/>
<polygon fill="#63b8ff" stroke="#63b8ff" points="603.03,-241.94 592.57,-243.66 601.82,-248.83 603.03,-241.94"/>
</a>
</g>
</g>
<!-- Node21 -->
<g id="Node000021" class="node">
<title>Node21</title>
<g id="a_Node000021"><a xlink:href="_v_r_e___buffer_8h.html" target="_top" xlink:title=" ">
<polygon fill="white" stroke="#666666" points="948,-188 872,-188 872,-168 948,-168 948,-188"/>
<text text-anchor="middle" x="910" y="-174.5" font-family="Helvetica,sans-Serif" font-size="10.00">VRE_Buffer.h</text>
</a>
</g>
</g>
<!-- Node20&#45;&gt;Node21 -->
<g id="edge36_Node000020_Node000021" class="edge">
<title>Node20&#45;&gt;Node21</title>
<g id="a_edge36_Node000020_Node000021"><a xlink:title=" ">
<path fill="none" stroke="#63b8ff" d="M862.03,-279.51C870.55,-270.95 882.55,-257.64 890,-244 897.63,-230.02 902.78,-212.73 905.93,-199.49"/>
<polygon fill="#63b8ff" stroke="#63b8ff" points="909.34,-200.28 908.05,-189.77 902.5,-198.8 909.34,-200.28"/>
</a>
</g>
</g>
<!-- Node22 -->
<g id="Node000022" class="node">
<title>Node22</title>
<g id="a_Node000022"><a xlink:href="_v_r_e___model_properties_8h.html" target="_top" xlink:title=" ">
<polygon fill="white" stroke="#666666" points="804.5,-244 683.5,-244 683.5,-224 804.5,-224 804.5,-244"/>
<text text-anchor="middle" x="744" y="-230.5" font-family="Helvetica,sans-Serif" font-size="10.00">VRE_ModelProperties.h</text>
</a>
</g>
</g>
<!-- Node20&#45;&gt;Node22 -->
<g id="edge38_Node000020_Node000022" class="edge">
<title>Node20&#45;&gt;Node22</title>
<g id="a_edge38_Node000020_Node000022"><a xlink:title=" ">
<path fill="none" stroke="#63b8ff" d="M833.19,-279.59C816.64,-271.32 792.29,-259.14 773.21,-249.6"/>
<polygon fill="#63b8ff" stroke="#63b8ff" points="774.82,-246.5 764.31,-245.16 771.69,-252.76 774.82,-246.5"/>
</a>
</g>
</g>
<!-- Node20&#45;&gt;Node25 -->
<g id="edge47_Node000020_Node000025" class="edge">
<title>Node20&#45;&gt;Node25</title>
<g id="a_edge47_Node000020_Node000025"><a xlink:title=" ">
<path fill="none" stroke="#63b8ff" d="M900.52,-283.37C951.77,-276.72 1034.6,-263.97 1104,-244 1151.16,-230.43 1203.45,-207.83 1235.27,-193.17"/>
<polygon fill="#63b8ff" stroke="#63b8ff" points="1236.68,-196.38 1244.26,-188.99 1233.72,-190.04 1236.68,-196.38"/>
</a>
</g>
</g>
<!-- Node26 -->
<g id="Node000026" class="node">
<title>Node26</title>
<g id="a_Node000026"><a xlink:title=" ">
<polygon fill="#e0e0e0" stroke="#999999" points="881.38,-244 822.62,-244 822.62,-224 881.38,-224 881.38,-244"/>
<text text-anchor="middle" x="852" y="-230.5" font-family="Helvetica,sans-Serif" font-size="10.00">tiny_gltf.h</text>
</a>
</g>
</g>
<!-- Node20&#45;&gt;Node26 -->
<g id="edge52_Node000020_Node000026" class="edge">
<title>Node20&#45;&gt;Node26</title>
<g id="a_edge52_Node000020_Node000026"><a xlink:title=" ">
<path fill="none" stroke="#63b8ff" d="M852,-279.59C852,-273.01 852,-263.96 852,-255.73"/>
<polygon fill="#63b8ff" stroke="#63b8ff" points="855.5,-255.81 852,-245.81 848.5,-255.81 855.5,-255.81"/>
</a>
</g>
</g>
<!-- Node21&#45;&gt;Node3 -->
<g id="edge37_Node000021_Node000003" class="edge">
<title>Node21&#45;&gt;Node3</title>
<g id="a_edge37_Node000021_Node000003"><a xlink:title=" ">
<path fill="none" stroke="#63b8ff" d="M921.5,-167.59C930.96,-159.85 944.6,-148.69 955.87,-139.47"/>
<polygon fill="#63b8ff" stroke="#63b8ff" points="957.94,-142.3 963.46,-133.26 953.51,-136.88 957.94,-142.3"/>
</a>
</g>
</g>
<!-- Node22&#45;&gt;Node7 -->
<g id="edge44_Node000022_Node000007" class="edge">
<title>Node22&#45;&gt;Node7</title>
<g id="a_edge44_Node000022_Node000007"><a xlink:title=" ">
<path fill="none" stroke="#63b8ff" d="M745.3,-223.62C747.42,-210.46 752.51,-186.11 763,-168 782.84,-133.73 816.71,-102.18 838.72,-83.76"/>
<polygon fill="#63b8ff" stroke="#63b8ff" points="840.92,-86.48 846.45,-77.44 836.49,-81.06 840.92,-86.48"/>
</a>
</g>
</g>
<!-- Node22&#45;&gt;Node9 -->
<g id="edge39_Node000022_Node000009" class="edge">
<title>Node22&#45;&gt;Node9</title>
<g id="a_edge39_Node000022_Node000009"><a xlink:title=" ">
<path fill="none" stroke="#63b8ff" d="M683.07,-228.6C601.99,-222.06 463.46,-208.34 417,-188 391.97,-177.04 368.5,-155.79 353.75,-140.57"/>
<polygon fill="#63b8ff" stroke="#63b8ff" points="356.55,-138.44 347.16,-133.53 351.44,-143.22 356.55,-138.44"/>
</a>
</g>
</g>
<!-- Node22&#45;&gt;Node15 -->
<g id="edge45_Node000022_Node000015" class="edge">
<title>Node22&#45;&gt;Node15</title>
<g id="a_edge45_Node000022_Node000015"><a xlink:title=" ">
<path fill="none" stroke="#63b8ff" d="M683.15,-228.25C588.5,-220.71 400.31,-205.08 241,-188 229.57,-186.77 217.13,-185.28 205.86,-183.86"/>
<polygon fill="#63b8ff" stroke="#63b8ff" points="206.5,-180.41 196.13,-182.62 205.61,-187.36 206.5,-180.41"/>
</a>
</g>
</g>
<!-- Node22&#45;&gt;Node21 -->
<g id="edge43_Node000022_Node000021" class="edge">
<title>Node22&#45;&gt;Node21</title>
<g id="a_edge43_Node000022_Node000021"><a xlink:title=" ">
<path fill="none" stroke="#63b8ff" d="M772.91,-223.59C799.77,-214.86 840,-201.77 869.94,-192.03"/>
<polygon fill="#63b8ff" stroke="#63b8ff" points="870.99,-195.37 879.42,-188.95 868.83,-188.71 870.99,-195.37"/>
</a>
</g>
</g>
<!-- Node23 -->
<g id="Node000023" class="node">
<title>Node23</title>
<g id="a_Node000023"><a xlink:href="_v_r_e___texture_8h.html" target="_top" xlink:title=" ">
<polygon fill="white" stroke="#666666" points="854.38,-188 771.62,-188 771.62,-168 854.38,-168 854.38,-188"/>
<text text-anchor="middle" x="813" y="-174.5" font-family="Helvetica,sans-Serif" font-size="10.00">VRE_Texture.h</text>
</a>
</g>
</g>
<!-- Node22&#45;&gt;Node23 -->
<g id="edge40_Node000022_Node000023" class="edge">
<title>Node22&#45;&gt;Node23</title>
<g id="a_edge40_Node000022_Node000023"><a xlink:title=" ">
<path fill="none" stroke="#63b8ff" d="M756.02,-223.59C766.01,-215.77 780.46,-204.46 792.31,-195.19"/>
<polygon fill="#63b8ff" stroke="#63b8ff" points="794.21,-198.15 799.93,-189.23 789.89,-192.64 794.21,-198.15"/>
</a>
</g>
</g>
<!-- Node24 -->
<g id="Node000024" class="node">
<title>Node24</title>
<g id="a_Node000024"><a xlink:title=" ">
<polygon fill="#e0e0e0" stroke="#999999" points="716.12,-188 619.88,-188 619.88,-168 716.12,-168 716.12,-188"/>
<text text-anchor="middle" x="668" y="-174.5" font-family="Helvetica,sans-Serif" font-size="10.00">gtc/quaternion.hpp</text>
</a>
</g>
</g>
<!-- Node22&#45;&gt;Node24 -->
<g id="edge46_Node000022_Node000024" class="edge">
<title>Node22&#45;&gt;Node24</title>
<g id="a_edge46_Node000022_Node000024"><a xlink:title=" ">
<path fill="none" stroke="#63b8ff" d="M730.76,-223.59C719.71,-215.74 703.72,-204.38 690.64,-195.09"/>
<polygon fill="#63b8ff" stroke="#63b8ff" points="692.75,-192.3 682.58,-189.36 688.7,-198 692.75,-192.3"/>
</a>
</g>
</g>
<!-- Node23&#45;&gt;Node3 -->
<g id="edge42_Node000023_Node000003" class="edge">
<title>Node23&#45;&gt;Node3</title>
<g id="a_edge42_Node000023_Node000003"><a xlink:title=" ">
<path fill="none" stroke="#63b8ff" d="M841.39,-167.59C867.76,-158.86 907.26,-145.77 936.66,-136.03"/>
<polygon fill="#63b8ff" stroke="#63b8ff" points="937.56,-139.42 945.95,-132.96 935.36,-132.78 937.56,-139.42"/>
</a>
</g>
</g>
<!-- Node23&#45;&gt;Node12 -->
<g id="edge41_Node000023_Node000012" class="edge">
<title>Node23&#45;&gt;Node12</title>
<g id="a_edge41_Node000023_Node000012"><a xlink:title=" ">
<path fill="none" stroke="#63b8ff" d="M771.37,-171.22C695.06,-160.63 533.95,-138.26 461.13,-128.15"/>
<polygon fill="#63b8ff" stroke="#63b8ff" points="461.7,-124.7 451.31,-126.79 460.74,-131.63 461.7,-124.7"/>
</a>
</g>
</g>
<!-- Node25&#45;&gt;Node3 -->
<g id="edge50_Node000025_Node000003" class="edge">
<title>Node25&#45;&gt;Node3</title>
<g id="a_edge50_Node000025_Node000003"><a xlink:title=" ">
<path fill="none" stroke="#63b8ff" d="M1222.05,-168.97C1170.27,-159.3 1083.31,-143.05 1027.84,-132.69"/>
<polygon fill="#63b8ff" stroke="#63b8ff" points="1028.81,-129.31 1018.34,-130.91 1027.53,-136.19 1028.81,-129.31"/>
</a>
</g>
</g>
<!-- Node25&#45;&gt;Node6 -->
<g id="edge48_Node000025_Node000006" class="edge">
<title>Node25&#45;&gt;Node6</title>
<g id="a_edge48_Node000025_Node000006"><a xlink:title=" ">
<path fill="none" stroke="#63b8ff" d="M1256.96,-167.55C1242.2,-150.02 1210.08,-111.04 1186,-76 1175.75,-61.09 1165.26,-43.44 1157.75,-30.3"/>
<polygon fill="#63b8ff" stroke="#63b8ff" points="1160.91,-28.79 1152.95,-21.8 1154.81,-32.23 1160.91,-28.79"/>
</a>
</g>
</g>
<!-- Node25&#45;&gt;Node7 -->
<g id="edge49_Node000025_Node000007" class="edge">
<title>Node25&#45;&gt;Node7</title>
<g id="a_edge49_Node000025_Node000007"><a xlink:title=" ">
<path fill="none" stroke="#63b8ff" d="M1241.15,-167.63C1218.25,-158.6 1182.7,-144.51 1152,-132 1130.6,-123.28 1126.16,-118.58 1104,-112 1030.3,-90.12 940.78,-76.88 893.31,-70.86"/>
<polygon fill="#63b8ff" stroke="#63b8ff" points="893.76,-67.39 883.41,-69.64 892.9,-74.34 893.76,-67.39"/>
</a>
</g>
</g>
<!-- Node27&#45;&gt;Node15 -->
<g id="edge54_Node000027_Node000015" class="edge">
<title>Node27&#45;&gt;Node15</title>
<g id="a_edge54_Node000027_Node000015"><a xlink:title=" ">
<path fill="none" stroke="#63b8ff" d="M268.84,-279.62C259.98,-266.46 242.73,-242.11 225,-224 214.71,-213.49 202.02,-203.12 191.32,-194.98"/>
<polygon fill="#63b8ff" stroke="#63b8ff" points="193.52,-192.25 183.4,-189.1 189.35,-197.87 193.52,-192.25"/>
</a>
</g>
</g>
</g>
</svg>
