<?xml version="1.0" encoding="UTF-8" standalone="no"?>
<!DOCTYPE svg PUBLIC "-//W3C//DTD SVG 1.1//EN"
 "http://www.w3.org/Graphics/SVG/1.1/DTD/svg11.dtd">
<!-- Generated by graphviz version 12.1.2 (20240928.0832)
 -->
<!-- Title: ReSTIRVulkan/VRE_ModelProperties.h Pages: 1 -->
<svg width="507pt" height="252pt"
 viewBox="0.00 0.00 507.25 252.00" xmlns="http://www.w3.org/2000/svg" xmlns:xlink="http://www.w3.org/1999/xlink">
<g id="graph0" class="graph" transform="scale(1 1) rotate(0) translate(4 248)">
<title>ReSTIRVulkan/VRE_ModelProperties.h</title>
<!-- Node1 -->
<g id="Node000001" class="node">
<title>Node1</title>
<g id="a_Node000001"><a xlink:title=" ">
<polygon fill="#999999" stroke="#666666" points="368.38,-244 179.88,-244 179.88,-224 368.38,-224 368.38,-244"/>
<text text-anchor="middle" x="274.12" y="-230.5" font-family="Helvetica,sans-Serif" font-size="10.00">ReSTIRVulkan/VRE_ModelProperties.h</text>
</a>
</g>
</g>
<!-- Node2 -->
<g id="Node000002" class="node">
<title>Node2</title>
<g id="a_Node000002"><a xlink:title=" ">
<polygon fill="#e0e0e0" stroke="#999999" points="84.25,-188 0,-188 0,-168 84.25,-168 84.25,-188"/>
<text text-anchor="middle" x="42.12" y="-174.5" font-family="Helvetica,sans-Serif" font-size="10.00">vulkan/vulkan.h</text>
</a>
</g>
</g>
<!-- Node1&#45;&gt;Node2 -->
<g id="edge1_Node000001_Node000002" class="edge">
<title>Node1&#45;&gt;Node2</title>
<g id="a_edge1_Node000001_Node000002"><a xlink:title=" ">
<path fill="none" stroke="#63b8ff" d="M233.45,-223.53C194.64,-214.5 136.02,-200.85 93.9,-191.05"/>
<polygon fill="#63b8ff" stroke="#63b8ff" points="94.76,-187.66 84.23,-188.8 93.18,-194.48 94.76,-187.66"/>
</a>
</g>
</g>
<!-- Node3 -->
<g id="Node000003" class="node">
<title>Node3</title>
<g id="a_Node000003"><a xlink:href="_v_r_e___texture_8h.html" target="_top" xlink:title=" ">
<polygon fill="white" stroke="#666666" points="185.5,-188 102.75,-188 102.75,-168 185.5,-168 185.5,-188"/>
<text text-anchor="middle" x="144.12" y="-174.5" font-family="Helvetica,sans-Serif" font-size="10.00">VRE_Texture.h</text>
</a>
</g>
</g>
<!-- Node1&#45;&gt;Node3 -->
<g id="edge2_Node000001_Node000003" class="edge">
<title>Node1&#45;&gt;Node3</title>
<g id="a_edge2_Node000001_Node000003"><a xlink:title=" ">
<path fill="none" stroke="#63b8ff" d="M251.48,-223.59C231.01,-215.09 200.61,-202.46 177.38,-192.81"/>
<polygon fill="#63b8ff" stroke="#63b8ff" points="178.92,-189.66 168.34,-189.06 176.24,-196.13 178.92,-189.66"/>
</a>
</g>
</g>
<!-- Node9 -->
<g id="Node000009" class="node">
<title>Node9</title>
<g id="a_Node000009"><a xlink:title=" ">
<polygon fill="#e0e0e0" stroke="#999999" points="323.62,-76 280.62,-76 280.62,-56 323.62,-56 323.62,-76"/>
<text text-anchor="middle" x="302.12" y="-62.5" font-family="Helvetica,sans-Serif" font-size="10.00">vector</text>
</a>
</g>
</g>
<!-- Node1&#45;&gt;Node9 -->
<g id="edge12_Node000001_Node000009" class="edge">
<title>Node1&#45;&gt;Node9</title>
<g id="a_edge12_Node000001_Node000009"><a xlink:title=" ">
<path fill="none" stroke="#63b8ff" d="M277.53,-223.83C280.74,-214.82 285.45,-200.65 288.12,-188 295.51,-153.1 299.24,-111.66 300.93,-87.45"/>
<polygon fill="#63b8ff" stroke="#63b8ff" points="304.4,-87.92 301.55,-77.71 297.42,-87.47 304.4,-87.92"/>
</a>
</g>
</g>
<!-- Node10 -->
<g id="Node000010" class="node">
<title>Node10</title>
<g id="a_Node000010"><a xlink:href="_v_r_e___buffer_8h.html" target="_top" xlink:title=" ">
<polygon fill="white" stroke="#666666" points="279.12,-188 203.12,-188 203.12,-168 279.12,-168 279.12,-188"/>
<text text-anchor="middle" x="241.12" y="-174.5" font-family="Helvetica,sans-Serif" font-size="10.00">VRE_Buffer.h</text>
</a>
</g>
</g>
<!-- Node1&#45;&gt;Node10 -->
<g id="edge10_Node000001_Node000010" class="edge">
<title>Node1&#45;&gt;Node10</title>
<g id="a_edge10_Node000001_Node000010"><a xlink:title=" ">
<path fill="none" stroke="#63b8ff" d="M268.38,-223.59C264.07,-216.55 258.03,-206.67 252.74,-198"/>
<polygon fill="#63b8ff" stroke="#63b8ff" points="255.8,-196.3 247.6,-189.59 249.82,-199.95 255.8,-196.3"/>
</a>
</g>
</g>
<!-- Node11 -->
<g id="Node000011" class="node">
<title>Node11</title>
<g id="a_Node000011"><a xlink:title=" ">
<polygon fill="#e0e0e0" stroke="#999999" points="385.38,-188 334.88,-188 334.88,-168 385.38,-168 385.38,-188"/>
<text text-anchor="middle" x="360.12" y="-174.5" font-family="Helvetica,sans-Serif" font-size="10.00">glm.hpp</text>
</a>
</g>
</g>
<!-- Node1&#45;&gt;Node11 -->
<g id="edge13_Node000001_Node000011" class="edge">
<title>Node1&#45;&gt;Node11</title>
<g id="a_edge13_Node000001_Node000011"><a xlink:title=" ">
<path fill="none" stroke="#63b8ff" d="M289.11,-223.59C301.85,-215.59 320.42,-203.93 335.37,-194.54"/>
<polygon fill="#63b8ff" stroke="#63b8ff" points="337.14,-197.57 343.75,-189.28 333.42,-191.64 337.14,-197.57"/>
</a>
</g>
</g>
<!-- Node12 -->
<g id="Node000012" class="node">
<title>Node12</title>
<g id="a_Node000012"><a xlink:title=" ">
<polygon fill="#e0e0e0" stroke="#999999" points="499.25,-188 403,-188 403,-168 499.25,-168 499.25,-188"/>
<text text-anchor="middle" x="451.12" y="-174.5" font-family="Helvetica,sans-Serif" font-size="10.00">gtc/quaternion.hpp</text>
</a>
</g>
</g>
<!-- Node1&#45;&gt;Node12 -->
<g id="edge14_Node000001_Node000012" class="edge">
<title>Node1&#45;&gt;Node12</title>
<g id="a_edge14_Node000001_Node000012"><a xlink:title=" ">
<path fill="none" stroke="#63b8ff" d="M304.96,-223.59C333.84,-214.78 377.24,-201.54 409.25,-191.78"/>
<polygon fill="#63b8ff" stroke="#63b8ff" points="410.06,-195.19 418.61,-188.92 408.02,-188.49 410.06,-195.19"/>
</a>
</g>
</g>
<!-- Node4 -->
<g id="Node000004" class="node">
<title>Node4</title>
<g id="a_Node000004"><a xlink:title=" ">
<polygon fill="#e0e0e0" stroke="#999999" points="169.75,-132 118.5,-132 118.5,-112 169.75,-112 169.75,-132"/>
<text text-anchor="middle" x="144.12" y="-118.5" font-family="Helvetica,sans-Serif" font-size="10.00">memory</text>
</a>
</g>
</g>
<!-- Node3&#45;&gt;Node4 -->
<g id="edge3_Node000003_Node000004" class="edge">
<title>Node3&#45;&gt;Node4</title>
<g id="a_edge3_Node000003_Node000004"><a xlink:title=" ">
<path fill="none" stroke="#63b8ff" d="M144.12,-167.59C144.12,-161.01 144.12,-151.96 144.12,-143.73"/>
<polygon fill="#63b8ff" stroke="#63b8ff" points="147.63,-143.81 144.13,-133.81 140.63,-143.81 147.63,-143.81"/>
</a>
</g>
</g>
<!-- Node5 -->
<g id="Node000005" class="node">
<title>Node5</title>
<g id="a_Node000005"><a xlink:href="_v_r_e___device_8h.html" target="_top" xlink:title=" ">
<polygon fill="white" stroke="#666666" points="278.75,-132 197.5,-132 197.5,-112 278.75,-112 278.75,-132"/>
<text text-anchor="middle" x="238.12" y="-118.5" font-family="Helvetica,sans-Serif" font-size="10.00">VRE_Device.h</text>
</a>
</g>
</g>
<!-- Node3&#45;&gt;Node5 -->
<g id="edge4_Node000003_Node000005" class="edge">
<title>Node3&#45;&gt;Node5</title>
<g id="a_edge4_Node000003_Node000005"><a xlink:title=" ">
<path fill="none" stroke="#63b8ff" d="M160.5,-167.59C174.7,-159.44 195.51,-147.48 212.01,-138"/>
<polygon fill="#63b8ff" stroke="#63b8ff" points="213.38,-141.25 220.31,-133.23 209.9,-135.18 213.38,-141.25"/>
</a>
</g>
</g>
<!-- Node6 -->
<g id="Node000006" class="node">
<title>Node6</title>
<g id="a_Node000006"><a xlink:href="_v_r_e___window_8h.html" target="_top" xlink:title=" ">
<polygon fill="white" stroke="#666666" points="214.62,-76 129.62,-76 129.62,-56 214.62,-56 214.62,-76"/>
<text text-anchor="middle" x="172.12" y="-62.5" font-family="Helvetica,sans-Serif" font-size="10.00">VRE_Window.h</text>
</a>
</g>
</g>
<!-- Node5&#45;&gt;Node6 -->
<g id="edge5_Node000005_Node000006" class="edge">
<title>Node5&#45;&gt;Node6</title>
<g id="a_edge5_Node000005_Node000006"><a xlink:title=" ">
<path fill="none" stroke="#63b8ff" d="M226.63,-111.59C217.16,-103.85 203.52,-92.69 192.25,-83.47"/>
<polygon fill="#63b8ff" stroke="#63b8ff" points="194.62,-80.88 184.66,-77.26 190.18,-86.3 194.62,-80.88"/>
</a>
</g>
</g>
<!-- Node8 -->
<g id="Node000008" class="node">
<title>Node8</title>
<g id="a_Node000008"><a xlink:title=" ">
<polygon fill="#e0e0e0" stroke="#999999" points="258.12,-20 218.12,-20 218.12,0 258.12,0 258.12,-20"/>
<text text-anchor="middle" x="238.12" y="-6.5" font-family="Helvetica,sans-Serif" font-size="10.00">string</text>
</a>
</g>
</g>
<!-- Node5&#45;&gt;Node8 -->
<g id="edge8_Node000005_Node000008" class="edge">
<title>Node5&#45;&gt;Node8</title>
<g id="a_edge8_Node000005_Node000008"><a xlink:title=" ">
<path fill="none" stroke="#63b8ff" d="M238.12,-111.62C238.12,-94.01 238.12,-55.59 238.12,-31.65"/>
<polygon fill="#63b8ff" stroke="#63b8ff" points="241.63,-31.87 238.13,-21.87 234.63,-31.87 241.63,-31.87"/>
</a>
</g>
</g>
<!-- Node5&#45;&gt;Node9 -->
<g id="edge9_Node000005_Node000009" class="edge">
<title>Node5&#45;&gt;Node9</title>
<g id="a_edge9_Node000005_Node000009"><a xlink:title=" ">
<path fill="none" stroke="#63b8ff" d="M249.27,-111.59C258.45,-103.85 271.68,-92.69 282.61,-83.47"/>
<polygon fill="#63b8ff" stroke="#63b8ff" points="284.56,-86.4 289.95,-77.27 280.05,-81.05 284.56,-86.4"/>
</a>
</g>
</g>
<!-- Node7 -->
<g id="Node000007" class="node">
<title>Node7</title>
<g id="a_Node000007"><a xlink:title=" ">
<polygon fill="#e0e0e0" stroke="#999999" points="195.88,-20 148.38,-20 148.38,0 195.88,0 195.88,-20"/>
<text text-anchor="middle" x="172.12" y="-6.5" font-family="Helvetica,sans-Serif" font-size="10.00">glfw3.h</text>
</a>
</g>
</g>
<!-- Node6&#45;&gt;Node7 -->
<g id="edge6_Node000006_Node000007" class="edge">
<title>Node6&#45;&gt;Node7</title>
<g id="a_edge6_Node000006_Node000007"><a xlink:title=" ">
<path fill="none" stroke="#63b8ff" d="M172.12,-55.59C172.12,-49.01 172.12,-39.96 172.12,-31.73"/>
<polygon fill="#63b8ff" stroke="#63b8ff" points="175.63,-31.81 172.13,-21.81 168.63,-31.81 175.63,-31.81"/>
</a>
</g>
</g>
<!-- Node6&#45;&gt;Node8 -->
<g id="edge7_Node000006_Node000008" class="edge">
<title>Node6&#45;&gt;Node8</title>
<g id="a_edge7_Node000006_Node000008"><a xlink:title=" ">
<path fill="none" stroke="#63b8ff" d="M183.62,-55.59C193.09,-47.85 206.73,-36.69 218,-27.47"/>
<polygon fill="#63b8ff" stroke="#63b8ff" points="220.07,-30.3 225.59,-21.26 215.63,-24.88 220.07,-30.3"/>
</a>
</g>
</g>
<!-- Node10&#45;&gt;Node5 -->
<g id="edge11_Node000010_Node000005" class="edge">
<title>Node10&#45;&gt;Node5</title>
<g id="a_edge11_Node000010_Node000005"><a xlink:title=" ">
<path fill="none" stroke="#63b8ff" d="M240.6,-167.59C240.24,-161.01 239.73,-151.96 239.28,-143.73"/>
<polygon fill="#63b8ff" stroke="#63b8ff" points="242.77,-143.6 238.73,-133.81 235.79,-143.99 242.77,-143.6"/>
</a>
</g>
</g>
</g>
</svg>
