<?xml version="1.0" encoding="UTF-8" standalone="no"?>
<!DOCTYPE svg PUBLIC "-//W3C//DTD SVG 1.1//EN"
 "http://www.w3.org/Graphics/SVG/1.1/DTD/svg11.dtd">
<!-- Generated by graphviz version 12.1.2 (20240928.0832)
 -->
<!-- Title: ReSTIRVulkan/VRE_Device.h Pages: 1 -->
<svg width="1544pt" height="500pt"
 viewBox="0.00 0.00 1543.62 500.00" xmlns="http://www.w3.org/2000/svg" xmlns:xlink="http://www.w3.org/1999/xlink">
<g id="graph0" class="graph" transform="scale(1 1) rotate(0) translate(4 496)">
<title>ReSTIRVulkan/VRE_Device.h</title>
<!-- Node1 -->
<g id="Node000001" class="node">
<title>Node1</title>
<g id="a_Node000001"><a xlink:title=" ">
<polygon fill="#999999" stroke="#666666" points="1138.38,-492 989.62,-492 989.62,-472 1138.38,-472 1138.38,-492"/>
<text text-anchor="middle" x="1064" y="-478.5" font-family="Helvetica,sans-Serif" font-size="10.00">ReSTIRVulkan/VRE_Device.h</text>
</a>
</g>
</g>
<!-- Node2 -->
<g id="Node000002" class="node">
<title>Node2</title>
<g id="a_Node000002"><a xlink:href="_v_r_e___app_8h.html" target="_top" xlink:title=" ">
<polygon fill="white" stroke="#666666" points="961.62,-82 826.38,-82 826.38,-62 961.62,-62 961.62,-82"/>
<text text-anchor="middle" x="894" y="-68.5" font-family="Helvetica,sans-Serif" font-size="10.00">ReSTIRVulkan/VRE_App.h</text>
</a>
</g>
</g>
<!-- Node1&#45;&gt;Node2 -->
<g id="edge1_Node000001_Node000002" class="edge">
<title>Node1&#45;&gt;Node2</title>
<g id="a_edge1_Node000001_Node000002"><a xlink:title=" ">
<path fill="none" stroke="#63b8ff" d="M1150.18,-477.85C1187.36,-472.57 1229.27,-460.9 1260,-436 1325.54,-382.9 1310.28,-328.78 1286,-248 1277.41,-219.43 1272.65,-210.18 1249,-192 1197.91,-152.74 1013.05,-102.92 932.25,-82.44"/>
<polygon fill="#63b8ff" stroke="#63b8ff" points="1149.79,-474.37 1140.31,-479.1 1150.67,-481.32 1149.79,-474.37"/>
</a>
</g>
</g>
<!-- Node5 -->
<g id="Node000005" class="node">
<title>Node5</title>
<g id="a_Node000005"><a xlink:href="_v_r_e___buffer_8h.html" target="_top" xlink:title=" ">
<polygon fill="white" stroke="#666666" points="746.75,-436 603.25,-436 603.25,-416 746.75,-416 746.75,-436"/>
<text text-anchor="middle" x="675" y="-422.5" font-family="Helvetica,sans-Serif" font-size="10.00">ReSTIRVulkan/VRE_Buffer.h</text>
</a>
</g>
</g>
<!-- Node1&#45;&gt;Node5 -->
<g id="edge4_Node000001_Node000005" class="edge">
<title>Node1&#45;&gt;Node5</title>
<g id="a_edge4_Node000001_Node000005"><a xlink:title=" ">
<path fill="none" stroke="#63b8ff" d="M984.68,-469.99C913.63,-460.13 810.53,-445.81 743.13,-436.46"/>
<polygon fill="#63b8ff" stroke="#63b8ff" points="983.91,-473.42 994.3,-471.32 984.87,-466.48 983.91,-473.42"/>
</a>
</g>
</g>
<!-- Node10 -->
<g id="Node000010" class="node">
<title>Node10</title>
<g id="a_Node000010"><a xlink:href="_v_r_e__gl_t_f_model_8h.html" target="_top" xlink:title=" ">
<polygon fill="white" stroke="#666666" points="751.88,-324 588.12,-324 588.12,-304 751.88,-304 751.88,-324"/>
<text text-anchor="middle" x="670" y="-310.5" font-family="Helvetica,sans-Serif" font-size="10.00">ReSTIRVulkan/VRE_glTFModel.h</text>
</a>
</g>
</g>
<!-- Node1&#45;&gt;Node10 -->
<g id="edge54_Node000001_Node000010" class="edge">
<title>Node1&#45;&gt;Node10</title>
<g id="a_edge54_Node000001_Node000010"><a xlink:title=" ">
<path fill="none" stroke="#63b8ff" d="M1034.88,-466.43C986.81,-442.65 887.57,-394.68 801,-360 766.96,-346.36 726.99,-333 700.23,-324.43"/>
<polygon fill="#63b8ff" stroke="#63b8ff" points="1033.28,-469.55 1043.79,-470.86 1036.39,-463.28 1033.28,-469.55"/>
</a>
</g>
</g>
<!-- Node12 -->
<g id="Node000012" class="node">
<title>Node12</title>
<g id="a_Node000012"><a xlink:href="_v_r_e___game_obj_render_system_8h.html" target="_top" xlink:title=" ">
<polygon fill="white" stroke="#666666" points="561.5,-156 410.5,-156 410.5,-124 561.5,-124 561.5,-156"/>
<text text-anchor="start" x="418.5" y="-142.5" font-family="Helvetica,sans-Serif" font-size="10.00">ReSTIRVulkan/VRE_GameObj</text>
<text text-anchor="middle" x="486" y="-130.5" font-family="Helvetica,sans-Serif" font-size="10.00">RenderSystem.h</text>
</a>
</g>
</g>
<!-- Node1&#45;&gt;Node12 -->
<g id="edge35_Node000001_Node000012" class="edge">
<title>Node1&#45;&gt;Node12</title>
<g id="a_edge35_Node000001_Node000012"><a xlink:title=" ">
<path fill="none" stroke="#63b8ff" d="M977.84,-481.08C724.55,-480.19 0,-469.08 0,-371 0,-371 0,-371 0,-257 0,-173.72 273.38,-150.11 410.06,-143.51"/>
<polygon fill="#63b8ff" stroke="#63b8ff" points="977.66,-484.58 987.67,-481.11 977.68,-477.58 977.66,-484.58"/>
</a>
</g>
</g>
<!-- Node15 -->
<g id="Node000015" class="node">
<title>Node15</title>
<g id="a_Node000015"><a xlink:href="_v_r_e___game_object_manager_8h.html" target="_top" xlink:title=" ">
<polygon fill="white" stroke="#666666" points="805.25,-156 640.75,-156 640.75,-124 805.25,-124 805.25,-156"/>
<text text-anchor="start" x="648.75" y="-142.5" font-family="Helvetica,sans-Serif" font-size="10.00">ReSTIRVulkan/VRE_GameObject</text>
<text text-anchor="middle" x="723" y="-130.5" font-family="Helvetica,sans-Serif" font-size="10.00">Manager.h</text>
</a>
</g>
</g>
<!-- Node1&#45;&gt;Node15 -->
<g id="edge36_Node000001_Node000015" class="edge">
<title>Node1&#45;&gt;Node15</title>
<g id="a_edge36_Node000001_Node000015"><a xlink:title=" ">
<path fill="none" stroke="#63b8ff" d="M1149.76,-469.78C1207.07,-456.9 1272,-429.43 1272,-371 1272,-371 1272,-371 1272,-257 1272,-219.44 1251.26,-209.45 1218,-192 1138.19,-150.12 903.42,-167.34 814,-156 811.14,-155.64 808.23,-155.25 805.3,-154.85"/>
<polygon fill="#63b8ff" stroke="#63b8ff" points="1149.34,-466.29 1140.28,-471.78 1150.79,-473.14 1149.34,-466.29"/>
</a>
</g>
</g>
<!-- Node18 -->
<g id="Node000018" class="node">
<title>Node18</title>
<g id="a_Node000018"><a xlink:href="_v_r_e___light_render_system_8h.html" target="_top" xlink:title=" ">
<polygon fill="white" stroke="#666666" points="985.12,-156 822.88,-156 822.88,-124 985.12,-124 985.12,-156"/>
<text text-anchor="start" x="830.88" y="-142.5" font-family="Helvetica,sans-Serif" font-size="10.00">ReSTIRVulkan/VRE_LightRender</text>
<text text-anchor="middle" x="904" y="-130.5" font-family="Helvetica,sans-Serif" font-size="10.00">System.h</text>
</a>
</g>
</g>
<!-- Node1&#45;&gt;Node18 -->
<g id="edge37_Node000001_Node000018" class="edge">
<title>Node1&#45;&gt;Node18</title>
<g id="a_edge37_Node000001_Node000018"><a xlink:title=" ">
<path fill="none" stroke="#63b8ff" d="M1149.98,-477.73C1216.87,-473.16 1301.93,-462.21 1324,-436 1336.19,-421.52 1411.47,-313.11 1286,-192 1244.36,-151.81 1084.55,-142.65 985.3,-140.93"/>
<polygon fill="#63b8ff" stroke="#63b8ff" points="1149.83,-474.23 1140.07,-478.36 1150.28,-481.21 1149.83,-474.23"/>
</a>
</g>
</g>
<!-- Node22 -->
<g id="Node000022" class="node">
<title>Node22</title>
<g id="a_Node000022"><a xlink:href="_v_r_e___descriptor_8h.html" target="_top" xlink:title=" ">
<polygon fill="white" stroke="#666666" points="1033.5,-380 870.5,-380 870.5,-360 1033.5,-360 1033.5,-380"/>
<text text-anchor="middle" x="952" y="-366.5" font-family="Helvetica,sans-Serif" font-size="10.00">ReSTIRVulkan/VRE_Descriptor.h</text>
</a>
</g>
</g>
<!-- Node1&#45;&gt;Node22 -->
<g id="edge29_Node000001_Node000022" class="edge">
<title>Node1&#45;&gt;Node22</title>
<g id="a_edge29_Node000001_Node000022"><a xlink:title=" ">
<path fill="none" stroke="#63b8ff" d="M1046.53,-463.84C1022.57,-440.31 980.35,-398.84 961.52,-380.35"/>
<polygon fill="#63b8ff" stroke="#63b8ff" points="1043.78,-466.05 1053.37,-470.56 1048.69,-461.06 1043.78,-466.05"/>
</a>
</g>
</g>
<!-- Node24 -->
<g id="Node000024" class="node">
<title>Node24</title>
<g id="a_Node000024"><a xlink:href="_v_r_e___device_8cpp.html" target="_top" xlink:title=" ">
<polygon fill="white" stroke="#666666" points="1535.62,-436 1376.38,-436 1376.38,-416 1535.62,-416 1535.62,-436"/>
<text text-anchor="middle" x="1456" y="-422.5" font-family="Helvetica,sans-Serif" font-size="10.00">ReSTIRVulkan/VRE_Device.cpp</text>
</a>
</g>
</g>
<!-- Node1&#45;&gt;Node24 -->
<g id="edge34_Node000001_Node000024" class="edge">
<title>Node1&#45;&gt;Node24</title>
<g id="a_edge34_Node000001_Node000024"><a xlink:title=" ">
<path fill="none" stroke="#63b8ff" d="M1143.93,-469.99C1215.53,-460.13 1319.43,-445.81 1387.35,-436.46"/>
<polygon fill="#63b8ff" stroke="#63b8ff" points="1143.66,-466.49 1134.23,-471.33 1144.61,-473.43 1143.66,-466.49"/>
</a>
</g>
</g>
<!-- Node25 -->
<g id="Node000025" class="node">
<title>Node25</title>
<g id="a_Node000025"><a xlink:href="_v_r_e___pipeline_8h.html" target="_top" xlink:title=" ">
<polygon fill="white" stroke="#666666" points="180.25,-380 27.75,-380 27.75,-360 180.25,-360 180.25,-380"/>
<text text-anchor="middle" x="104" y="-366.5" font-family="Helvetica,sans-Serif" font-size="10.00">ReSTIRVulkan/VRE_Pipeline.h</text>
</a>
</g>
</g>
<!-- Node1&#45;&gt;Node25 -->
<g id="edge38_Node000001_Node000025" class="edge">
<title>Node1&#45;&gt;Node25</title>
<g id="a_edge38_Node000001_Node000025"><a xlink:title=" ">
<path fill="none" stroke="#63b8ff" d="M978.02,-479.18C851.35,-475.59 607.36,-465.22 402,-436 305.8,-422.31 194.4,-394.85 139.02,-380.39"/>
<polygon fill="#63b8ff" stroke="#63b8ff" points="977.56,-482.67 987.66,-479.45 977.76,-475.67 977.56,-482.67"/>
</a>
</g>
</g>
<!-- Node26 -->
<g id="Node000026" class="node">
<title>Node26</title>
<g id="a_Node000026"><a xlink:href="_v_r_e___renderer_8h.html" target="_top" xlink:title=" ">
<polygon fill="white" stroke="#666666" points="1201.88,-268 1044.12,-268 1044.12,-248 1201.88,-248 1201.88,-268"/>
<text text-anchor="middle" x="1123" y="-254.5" font-family="Helvetica,sans-Serif" font-size="10.00">ReSTIRVulkan/VRE_Renderer.h</text>
</a>
</g>
</g>
<!-- Node1&#45;&gt;Node26 -->
<g id="edge43_Node000001_Node000026" class="edge">
<title>Node1&#45;&gt;Node26</title>
<g id="a_edge43_Node000001_Node000026"><a xlink:title=" ">
<path fill="none" stroke="#63b8ff" d="M1087.63,-465.56C1123.23,-440.73 1189.17,-388.13 1215,-324 1226.25,-296.06 1190.68,-278.22 1160.54,-268.43"/>
<polygon fill="#63b8ff" stroke="#63b8ff" points="1086,-462.44 1079.71,-470.97 1089.94,-468.23 1086,-462.44"/>
</a>
</g>
</g>
<!-- Node28 -->
<g id="Node000028" class="node">
<title>Node28</title>
<g id="a_Node000028"><a xlink:href="_v_r_e___swap_chain_8h.html" target="_top" xlink:title=" ">
<polygon fill="white" stroke="#666666" points="1206.12,-324 1037.88,-324 1037.88,-304 1206.12,-304 1206.12,-324"/>
<text text-anchor="middle" x="1122" y="-310.5" font-family="Helvetica,sans-Serif" font-size="10.00">ReSTIRVulkan/VRE_SwapChain.h</text>
</a>
</g>
</g>
<!-- Node1&#45;&gt;Node28 -->
<g id="edge47_Node000001_Node000028" class="edge">
<title>Node1&#45;&gt;Node28</title>
<g id="a_edge47_Node000001_Node000028"><a xlink:title=" ">
<path fill="none" stroke="#63b8ff" d="M1071,-460.97C1083.59,-424.92 1109.62,-350.42 1118.75,-324.3"/>
<polygon fill="#63b8ff" stroke="#63b8ff" points="1067.78,-459.58 1067.78,-470.17 1074.39,-461.88 1067.78,-459.58"/>
</a>
</g>
</g>
<!-- Node30 -->
<g id="Node000030" class="node">
<title>Node30</title>
<g id="a_Node000030"><a xlink:href="_v_r_e___texture_8h.html" target="_top" xlink:title=" ">
<polygon fill="white" stroke="#666666" points="561.12,-436 410.88,-436 410.88,-416 561.12,-416 561.12,-436"/>
<text text-anchor="middle" x="486" y="-422.5" font-family="Helvetica,sans-Serif" font-size="10.00">ReSTIRVulkan/VRE_Texture.h</text>
</a>
</g>
</g>
<!-- Node1&#45;&gt;Node30 -->
<g id="edge51_Node000001_Node000030" class="edge">
<title>Node1&#45;&gt;Node30</title>
<g id="a_edge51_Node000001_Node000030"><a xlink:title=" ">
<path fill="none" stroke="#63b8ff" d="M978,-472.97C865.1,-462.42 668.73,-444.07 561.38,-434.04"/>
<polygon fill="#63b8ff" stroke="#63b8ff" points="977.54,-476.44 987.82,-473.88 978.19,-469.47 977.54,-476.44"/>
</a>
</g>
</g>
<!-- Node3 -->
<g id="Node000003" class="node">
<title>Node3</title>
<g id="a_Node000003"><a xlink:href="_v_r_e___app_8cpp.html" target="_top" xlink:title=" ">
<polygon fill="white" stroke="#666666" points="565.88,-20 420.12,-20 420.12,0 565.88,0 565.88,-20"/>
<text text-anchor="middle" x="493" y="-6.5" font-family="Helvetica,sans-Serif" font-size="10.00">ReSTIRVulkan/VRE_App.cpp</text>
</a>
</g>
</g>
<!-- Node2&#45;&gt;Node3 -->
<g id="edge2_Node000002_Node000003" class="edge">
<title>Node2&#45;&gt;Node3</title>
<g id="a_edge2_Node000002_Node000003"><a xlink:title=" ">
<path fill="none" stroke="#63b8ff" d="M836.63,-59.47C830.02,-58.24 823.37,-57.06 817,-56 731.15,-41.69 631.98,-28.38 566.2,-20.01"/>
<polygon fill="#63b8ff" stroke="#63b8ff" points="835.69,-62.85 846.17,-61.27 836.99,-55.97 835.69,-62.85"/>
</a>
</g>
</g>
<!-- Node4 -->
<g id="Node000004" class="node">
<title>Node4</title>
<g id="a_Node000004"><a xlink:href="main_8cpp.html" target="_top" xlink:title=" ">
<polygon fill="white" stroke="#666666" points="955.62,-20 832.38,-20 832.38,0 955.62,0 955.62,-20"/>
<text text-anchor="middle" x="894" y="-6.5" font-family="Helvetica,sans-Serif" font-size="10.00">ReSTIRVulkan/main.cpp</text>
</a>
</g>
</g>
<!-- Node2&#45;&gt;Node4 -->
<g id="edge3_Node000002_Node000004" class="edge">
<title>Node2&#45;&gt;Node4</title>
<g id="a_edge3_Node000002_Node000004"><a xlink:title=" ">
<path fill="none" stroke="#63b8ff" d="M894,-50.25C894,-39.97 894,-28.09 894,-20.11"/>
<polygon fill="#63b8ff" stroke="#63b8ff" points="890.5,-50.11 894,-60.11 897.5,-50.11 890.5,-50.11"/>
</a>
</g>
</g>
<!-- Node5&#45;&gt;Node3 -->
<g id="edge5_Node000005_Node000003" class="edge">
<title>Node5&#45;&gt;Node3</title>
<g id="a_edge5_Node000005_Node000003"><a xlink:title=" ">
<path fill="none" stroke="#63b8ff" d="M651.12,-409.21C639.26,-400.99 624.95,-390.48 613,-380 578.02,-349.32 581.48,-326.94 541,-304 476.83,-267.64 439.43,-310.28 379,-268 301.21,-213.58 290.62,-179.12 264,-88 260.01,-74.35 254.96,-66.98 264,-56 283.53,-32.26 360.37,-20.85 419.72,-15.5"/>
<polygon fill="#63b8ff" stroke="#63b8ff" points="648.91,-411.94 659.14,-414.67 652.85,-406.15 648.91,-411.94"/>
</a>
</g>
</g>
<!-- Node6 -->
<g id="Node000006" class="node">
<title>Node6</title>
<g id="a_Node000006"><a xlink:href="_v_r_e___buffer_8cpp.html" target="_top" xlink:title=" ">
<polygon fill="white" stroke="#666666" points="776,-380 622,-380 622,-360 776,-360 776,-380"/>
<text text-anchor="middle" x="699" y="-366.5" font-family="Helvetica,sans-Serif" font-size="10.00">ReSTIRVulkan/VRE_Buffer.cpp</text>
</a>
</g>
</g>
<!-- Node5&#45;&gt;Node6 -->
<g id="edge6_Node000005_Node000006" class="edge">
<title>Node5&#45;&gt;Node6</title>
<g id="a_edge6_Node000005_Node000006"><a xlink:title=" ">
<path fill="none" stroke="#63b8ff" d="M683.76,-405.29C687.55,-396.75 691.82,-387.16 694.87,-380.3"/>
<polygon fill="#63b8ff" stroke="#63b8ff" points="680.66,-403.65 679.8,-414.21 687.05,-406.49 680.66,-403.65"/>
</a>
</g>
</g>
<!-- Node7 -->
<g id="Node000007" class="node">
<title>Node7</title>
<g id="a_Node000007"><a xlink:href="_v_r_e___model_properties_8h.html" target="_top" xlink:title=" ">
<polygon fill="white" stroke="#666666" points="387.25,-380 198.75,-380 198.75,-360 387.25,-360 387.25,-380"/>
<text text-anchor="middle" x="293" y="-366.5" font-family="Helvetica,sans-Serif" font-size="10.00">ReSTIRVulkan/VRE_ModelProperties.h</text>
</a>
</g>
</g>
<!-- Node5&#45;&gt;Node7 -->
<g id="edge7_Node000005_Node000007" class="edge">
<title>Node5&#45;&gt;Node7</title>
<g id="a_edge7_Node000005_Node000007"><a xlink:title=" ">
<path fill="none" stroke="#63b8ff" d="M596.67,-413.93C526.92,-404.07 425.95,-389.79 359.9,-380.46"/>
<polygon fill="#63b8ff" stroke="#63b8ff" points="596.13,-417.39 606.52,-415.32 597.11,-410.45 596.13,-417.39"/>
</a>
</g>
</g>
<!-- Node5&#45;&gt;Node10 -->
<g id="edge28_Node000005_Node000010" class="edge">
<title>Node5&#45;&gt;Node10</title>
<g id="a_edge28_Node000005_Node000010"><a xlink:title=" ">
<path fill="none" stroke="#63b8ff" d="M734.08,-412.56C768.63,-402.36 802.34,-385.4 785,-360 772.55,-341.76 751.5,-330.91 730.79,-324.46"/>
<polygon fill="#63b8ff" stroke="#63b8ff" points="733.55,-409.08 724.84,-415.11 735.41,-415.82 733.55,-409.08"/>
</a>
</g>
</g>
<!-- Node21 -->
<g id="Node000021" class="node">
<title>Node21</title>
<g id="a_Node000021"><a xlink:href="_v_r_e___texture_8cpp.html" target="_top" xlink:title=" ">
<polygon fill="white" stroke="#666666" points="566.38,-380 405.62,-380 405.62,-360 566.38,-360 566.38,-380"/>
<text text-anchor="middle" x="486" y="-366.5" font-family="Helvetica,sans-Serif" font-size="10.00">ReSTIRVulkan/VRE_Texture.cpp</text>
</a>
</g>
</g>
<!-- Node5&#45;&gt;Node21 -->
<g id="edge27_Node000005_Node000021" class="edge">
<title>Node5&#45;&gt;Node21</title>
<g id="a_edge27_Node000005_Node000021"><a xlink:title=" ">
<path fill="none" stroke="#63b8ff" d="M631.01,-412.43C596.86,-402.67 550.24,-389.35 519.18,-380.48"/>
<polygon fill="#63b8ff" stroke="#63b8ff" points="630.05,-415.8 640.62,-415.18 631.97,-409.07 630.05,-415.8"/>
</a>
</g>
</g>
<!-- Node8 -->
<g id="Node000008" class="node">
<title>Node8</title>
<g id="a_Node000008"><a xlink:href="_v_r_e___model_properties_8cpp.html" target="_top" xlink:title=" ">
<polygon fill="white" stroke="#666666" points="531.5,-324 332.5,-324 332.5,-304 531.5,-304 531.5,-324"/>
<text text-anchor="middle" x="432" y="-310.5" font-family="Helvetica,sans-Serif" font-size="10.00">ReSTIRVulkan/VRE_ModelProperties.cpp</text>
</a>
</g>
</g>
<!-- Node7&#45;&gt;Node8 -->
<g id="edge8_Node000007_Node000008" class="edge">
<title>Node7&#45;&gt;Node8</title>
<g id="a_edge8_Node000007_Node000008"><a xlink:title=" ">
<path fill="none" stroke="#63b8ff" d="M327.67,-355.53C352.54,-345.87 385.45,-333.08 407.6,-324.48"/>
<polygon fill="#63b8ff" stroke="#63b8ff" points="326.68,-352.16 318.62,-359.05 329.21,-358.69 326.68,-352.16"/>
</a>
</g>
</g>
<!-- Node9 -->
<g id="Node000009" class="node">
<title>Node9</title>
<g id="a_Node000009"><a xlink:href="_v_r_e___pipeline_8cpp.html" target="_top" xlink:title=" ">
<polygon fill="white" stroke="#666666" points="314.5,-324 151.5,-324 151.5,-304 314.5,-304 314.5,-324"/>
<text text-anchor="middle" x="233" y="-310.5" font-family="Helvetica,sans-Serif" font-size="10.00">ReSTIRVulkan/VRE_Pipeline.cpp</text>
</a>
</g>
</g>
<!-- Node7&#45;&gt;Node9 -->
<g id="edge9_Node000007_Node000009" class="edge">
<title>Node7&#45;&gt;Node9</title>
<g id="a_edge9_Node000007_Node000009"><a xlink:title=" ">
<path fill="none" stroke="#63b8ff" d="M274.25,-352.13C264.05,-342.94 251.81,-331.93 243.33,-324.3"/>
<polygon fill="#63b8ff" stroke="#63b8ff" points="271.65,-354.49 281.42,-358.58 276.33,-349.29 271.65,-354.49"/>
</a>
</g>
</g>
<!-- Node7&#45;&gt;Node10 -->
<g id="edge10_Node000007_Node000010" class="edge">
<title>Node7&#45;&gt;Node10</title>
<g id="a_edge10_Node000007_Node000010"><a xlink:title=" ">
<path fill="none" stroke="#63b8ff" d="M370.3,-357.93C439.14,-348.07 538.79,-333.79 603.98,-324.46"/>
<polygon fill="#63b8ff" stroke="#63b8ff" points="370,-354.43 360.6,-359.32 370.99,-361.36 370,-354.43"/>
</a>
</g>
</g>
<!-- Node11 -->
<g id="Node000011" class="node">
<title>Node11</title>
<g id="a_Node000011"><a xlink:href="_v_r_e___game_object_8h.html" target="_top" xlink:title=" ">
<polygon fill="white" stroke="#666666" points="790.38,-268 617.62,-268 617.62,-248 790.38,-248 790.38,-268"/>
<text text-anchor="middle" x="704" y="-254.5" font-family="Helvetica,sans-Serif" font-size="10.00">ReSTIRVulkan/VRE_GameObject.h</text>
</a>
</g>
</g>
<!-- Node10&#45;&gt;Node11 -->
<g id="edge11_Node000010_Node000011" class="edge">
<title>Node10&#45;&gt;Node11</title>
<g id="a_edge11_Node000010_Node000011"><a xlink:title=" ">
<path fill="none" stroke="#63b8ff" d="M682.05,-293.87C687.51,-285.19 693.73,-275.32 698.15,-268.3"/>
<polygon fill="#63b8ff" stroke="#63b8ff" points="679.1,-291.99 676.73,-302.31 685.02,-295.72 679.1,-291.99"/>
</a>
</g>
</g>
<!-- Node20 -->
<g id="Node000020" class="node">
<title>Node20</title>
<g id="a_Node000020"><a xlink:href="_v_r_e__gl_t_f_model_8cpp.html" target="_top" xlink:title=" ">
<polygon fill="white" stroke="#666666" points="562.12,-268 387.88,-268 387.88,-248 562.12,-248 562.12,-268"/>
<text text-anchor="middle" x="475" y="-254.5" font-family="Helvetica,sans-Serif" font-size="10.00">ReSTIRVulkan/VRE_glTFModel.cpp</text>
</a>
</g>
</g>
<!-- Node10&#45;&gt;Node20 -->
<g id="edge26_Node000010_Node000020" class="edge">
<title>Node10&#45;&gt;Node20</title>
<g id="a_edge26_Node000010_Node000020"><a xlink:title=" ">
<path fill="none" stroke="#63b8ff" d="M625.08,-300.56C589.8,-290.79 541.42,-277.39 509.23,-268.48"/>
<polygon fill="#63b8ff" stroke="#63b8ff" points="624,-303.89 634.57,-303.19 625.87,-297.15 624,-303.89"/>
</a>
</g>
</g>
<!-- Node11&#45;&gt;Node12 -->
<g id="edge12_Node000011_Node000012" class="edge">
<title>Node11&#45;&gt;Node12</title>
<g id="a_edge12_Node000011_Node000012"><a xlink:title=" ">
<path fill="none" stroke="#63b8ff" d="M676.2,-242.21C634.75,-220.15 557.09,-178.83 514.97,-156.41"/>
<polygon fill="#63b8ff" stroke="#63b8ff" points="674.35,-245.19 684.82,-246.8 677.64,-239.01 674.35,-245.19"/>
</a>
</g>
</g>
<!-- Node14 -->
<g id="Node000014" class="node">
<title>Node14</title>
<g id="a_Node000014"><a xlink:href="_v_r_e___game_object_8cpp.html" target="_top" xlink:title=" ">
<polygon fill="white" stroke="#666666" points="456.62,-82 273.38,-82 273.38,-62 456.62,-62 456.62,-82"/>
<text text-anchor="middle" x="365" y="-68.5" font-family="Helvetica,sans-Serif" font-size="10.00">ReSTIRVulkan/VRE_GameObject.cpp</text>
</a>
</g>
</g>
<!-- Node11&#45;&gt;Node14 -->
<g id="edge15_Node000011_Node000014" class="edge">
<title>Node11&#45;&gt;Node14</title>
<g id="a_edge15_Node000011_Node000014"><a xlink:title=" ">
<path fill="none" stroke="#63b8ff" d="M609.01,-245.54C543.85,-233.23 459.17,-207.9 402,-156 379.69,-135.75 370.07,-99.51 366.63,-82.42"/>
<polygon fill="#63b8ff" stroke="#63b8ff" points="608.16,-248.94 618.62,-247.28 609.41,-242.05 608.16,-248.94"/>
</a>
</g>
</g>
<!-- Node11&#45;&gt;Node15 -->
<g id="edge16_Node000011_Node000015" class="edge">
<title>Node11&#45;&gt;Node15</title>
<g id="a_edge16_Node000011_Node000015"><a xlink:title=" ">
<path fill="none" stroke="#63b8ff" d="M707.38,-236.36C711.14,-213.44 717.11,-176.97 720.48,-156.41"/>
<polygon fill="#63b8ff" stroke="#63b8ff" points="703.96,-235.58 705.8,-246.01 710.87,-236.71 703.96,-235.58"/>
</a>
</g>
</g>
<!-- Node17 -->
<g id="Node000017" class="node">
<title>Node17</title>
<g id="a_Node000017"><a xlink:href="_v_r_e___shared_context_8h.html" target="_top" xlink:title=" ">
<polygon fill="white" stroke="#666666" points="912.62,-212 729.38,-212 729.38,-192 912.62,-192 912.62,-212"/>
<text text-anchor="middle" x="821" y="-198.5" font-family="Helvetica,sans-Serif" font-size="10.00">ReSTIRVulkan/VRE_SharedContext.h</text>
</a>
</g>
</g>
<!-- Node11&#45;&gt;Node17 -->
<g id="edge20_Node000011_Node000017" class="edge">
<title>Node11&#45;&gt;Node17</title>
<g id="a_edge20_Node000011_Node000017"><a xlink:title=" ">
<path fill="none" stroke="#63b8ff" d="M734.6,-242.88C755.36,-233.3 782.24,-220.89 800.46,-212.48"/>
<polygon fill="#63b8ff" stroke="#63b8ff" points="733.37,-239.59 725.75,-246.96 736.3,-245.95 733.37,-239.59"/>
</a>
</g>
</g>
<!-- Node12&#45;&gt;Node2 -->
<g id="edge13_Node000012_Node000002" class="edge">
<title>Node12&#45;&gt;Node2</title>
<g id="a_edge13_Node000012_Node000002"><a xlink:title=" ">
<path fill="none" stroke="#63b8ff" d="M572.9,-124.49C573.94,-124.33 574.97,-124.16 576,-124 682.97,-107.1 710.27,-106.36 817,-88 826.8,-86.31 837.27,-84.37 847.23,-82.45"/>
<polygon fill="#63b8ff" stroke="#63b8ff" points="572.42,-121.02 563.1,-126.06 573.53,-127.93 572.42,-121.02"/>
</a>
</g>
</g>
<!-- Node13 -->
<g id="Node000013" class="node">
<title>Node13</title>
<g id="a_Node000013"><a xlink:href="_v_r_e___game_obj_render_system_8cpp.html" target="_top" xlink:title=" ">
<polygon fill="white" stroke="#666666" points="625.5,-88 474.5,-88 474.5,-56 625.5,-56 625.5,-88"/>
<text text-anchor="start" x="482.5" y="-74.5" font-family="Helvetica,sans-Serif" font-size="10.00">ReSTIRVulkan/VRE_GameObj</text>
<text text-anchor="middle" x="550" y="-62.5" font-family="Helvetica,sans-Serif" font-size="10.00">RenderSystem.cpp</text>
</a>
</g>
</g>
<!-- Node12&#45;&gt;Node13 -->
<g id="edge14_Node000012_Node000013" class="edge">
<title>Node12&#45;&gt;Node13</title>
<g id="a_edge14_Node000012_Node000013"><a xlink:title=" ">
<path fill="none" stroke="#63b8ff" d="M508.86,-115.43C517.63,-106.38 527.41,-96.29 535.24,-88.22"/>
<polygon fill="#63b8ff" stroke="#63b8ff" points="506.35,-112.99 501.9,-122.61 511.37,-117.86 506.35,-112.99"/>
</a>
</g>
</g>
<!-- Node15&#45;&gt;Node2 -->
<g id="edge17_Node000015_Node000002" class="edge">
<title>Node15&#45;&gt;Node2</title>
<g id="a_edge17_Node000015_Node000002"><a xlink:title=" ">
<path fill="none" stroke="#63b8ff" d="M773.5,-119.51C805.15,-107.29 844.55,-92.09 869.49,-82.46"/>
<polygon fill="#63b8ff" stroke="#63b8ff" points="772.57,-116.11 764.5,-122.98 775.09,-122.65 772.57,-116.11"/>
</a>
</g>
</g>
<!-- Node15&#45;&gt;Node14 -->
<g id="edge18_Node000015_Node000014" class="edge">
<title>Node15&#45;&gt;Node14</title>
<g id="a_edge18_Node000015_Node000014"><a xlink:title=" ">
<path fill="none" stroke="#63b8ff" d="M629.27,-121.72C561.29,-109.19 471.88,-92.7 416.45,-82.48"/>
<polygon fill="#63b8ff" stroke="#63b8ff" points="628.46,-125.13 638.93,-123.5 629.73,-118.25 628.46,-125.13"/>
</a>
</g>
</g>
<!-- Node16 -->
<g id="Node000016" class="node">
<title>Node16</title>
<g id="a_Node000016"><a xlink:href="_v_r_e___game_object_manager_8cpp.html" target="_top" xlink:title=" ">
<polygon fill="white" stroke="#666666" points="808.25,-88 643.75,-88 643.75,-56 808.25,-56 808.25,-88"/>
<text text-anchor="start" x="651.75" y="-74.5" font-family="Helvetica,sans-Serif" font-size="10.00">ReSTIRVulkan/VRE_GameObject</text>
<text text-anchor="middle" x="726" y="-62.5" font-family="Helvetica,sans-Serif" font-size="10.00">Manager.cpp</text>
</a>
</g>
</g>
<!-- Node15&#45;&gt;Node16 -->
<g id="edge19_Node000015_Node000016" class="edge">
<title>Node15&#45;&gt;Node16</title>
<g id="a_edge19_Node000015_Node000016"><a xlink:title=" ">
<path fill="none" stroke="#63b8ff" d="M724.21,-112.31C724.59,-104.12 724.98,-95.38 725.31,-88.22"/>
<polygon fill="#63b8ff" stroke="#63b8ff" points="720.72,-112.03 723.76,-122.18 727.72,-112.35 720.72,-112.03"/>
</a>
</g>
</g>
<!-- Node17&#45;&gt;Node12 -->
<g id="edge21_Node000017_Node000012" class="edge">
<title>Node17&#45;&gt;Node12</title>
<g id="a_edge21_Node000017_Node000012"><a xlink:title=" ">
<path fill="none" stroke="#63b8ff" d="M757.16,-189.57C701.49,-179.6 620.66,-165.12 561.74,-154.57"/>
<polygon fill="#63b8ff" stroke="#63b8ff" points="756.34,-192.97 766.8,-191.29 757.57,-186.08 756.34,-192.97"/>
</a>
</g>
</g>
<!-- Node17&#45;&gt;Node15 -->
<g id="edge22_Node000017_Node000015" class="edge">
<title>Node17&#45;&gt;Node15</title>
<g id="a_edge22_Node000017_Node000015"><a xlink:title=" ">
<path fill="none" stroke="#63b8ff" d="M796.22,-185.83C781.5,-176.81 762.89,-165.42 748.11,-156.37"/>
<polygon fill="#63b8ff" stroke="#63b8ff" points="794.04,-188.6 804.4,-190.83 797.7,-182.63 794.04,-188.6"/>
</a>
</g>
</g>
<!-- Node17&#45;&gt;Node18 -->
<g id="edge23_Node000017_Node000018" class="edge">
<title>Node17&#45;&gt;Node18</title>
<g id="a_edge23_Node000017_Node000018"><a xlink:title=" ">
<path fill="none" stroke="#63b8ff" d="M843.08,-185.04C855.36,-176.16 870.58,-165.16 882.73,-156.37"/>
<polygon fill="#63b8ff" stroke="#63b8ff" points="841.25,-182.04 835.2,-190.74 845.35,-187.72 841.25,-182.04"/>
</a>
</g>
</g>
<!-- Node18&#45;&gt;Node2 -->
<g id="edge24_Node000018_Node000002" class="edge">
<title>Node18&#45;&gt;Node2</title>
<g id="a_edge24_Node000018_Node000002"><a xlink:title=" ">
<path fill="none" stroke="#63b8ff" d="M899.96,-112.31C898.34,-101.67 896.59,-90.13 895.41,-82.32"/>
<polygon fill="#63b8ff" stroke="#63b8ff" points="896.5,-112.83 901.45,-122.2 903.42,-111.78 896.5,-112.83"/>
</a>
</g>
</g>
<!-- Node19 -->
<g id="Node000019" class="node">
<title>Node19</title>
<g id="a_Node000019"><a xlink:href="_v_r_e___light_render_system_8cpp.html" target="_top" xlink:title=" ">
<polygon fill="white" stroke="#666666" points="1142.12,-88 979.88,-88 979.88,-56 1142.12,-56 1142.12,-88"/>
<text text-anchor="start" x="987.88" y="-74.5" font-family="Helvetica,sans-Serif" font-size="10.00">ReSTIRVulkan/VRE_LightRender</text>
<text text-anchor="middle" x="1061" y="-62.5" font-family="Helvetica,sans-Serif" font-size="10.00">System.cpp</text>
</a>
</g>
</g>
<!-- Node18&#45;&gt;Node19 -->
<g id="edge25_Node000018_Node000019" class="edge">
<title>Node18&#45;&gt;Node19</title>
<g id="a_edge25_Node000018_Node000019"><a xlink:title=" ">
<path fill="none" stroke="#63b8ff" d="M951.2,-119.16C974.57,-109.33 1002.37,-97.65 1024.15,-88.49"/>
<polygon fill="#63b8ff" stroke="#63b8ff" points="950.07,-115.84 942.2,-122.94 952.78,-122.29 950.07,-115.84"/>
</a>
</g>
</g>
<!-- Node22&#45;&gt;Node2 -->
<g id="edge30_Node000022_Node000002" class="edge">
<title>Node22&#45;&gt;Node2</title>
<g id="a_edge30_Node000022_Node000002"><a xlink:title=" ">
<path fill="none" stroke="#63b8ff" d="M914.14,-355.9C862.87,-338.19 776.01,-308.32 761,-304 694.28,-284.79 652.06,-322.45 609,-268 582.48,-234.47 497.09,-260.1 632,-124 690.97,-64.51 734.78,-104.01 817,-88 826.22,-86.2 836.07,-84.29 845.53,-82.44"/>
<polygon fill="#63b8ff" stroke="#63b8ff" points="912.78,-359.13 923.37,-359.09 915.07,-352.52 912.78,-359.13"/>
</a>
</g>
</g>
<!-- Node22&#45;&gt;Node10 -->
<g id="edge33_Node000022_Node000010" class="edge">
<title>Node22&#45;&gt;Node10</title>
<g id="a_edge33_Node000022_Node000010"><a xlink:title=" ">
<path fill="none" stroke="#63b8ff" d="M891.29,-357.37C839.93,-347.54 767.24,-333.62 719.39,-324.46"/>
<polygon fill="#63b8ff" stroke="#63b8ff" points="890.59,-360.8 901.07,-359.25 891.91,-353.93 890.59,-360.8"/>
</a>
</g>
</g>
<!-- Node22&#45;&gt;Node17 -->
<g id="edge32_Node000022_Node000017" class="edge">
<title>Node22&#45;&gt;Node17</title>
<g id="a_edge32_Node000022_Node000017"><a xlink:title=" ">
<path fill="none" stroke="#63b8ff" d="M884.57,-355.9C866.59,-349.23 848.88,-339.16 837,-324 810.6,-290.31 815.9,-234.45 819.31,-212.38"/>
<polygon fill="#63b8ff" stroke="#63b8ff" points="883.42,-359.21 894.02,-359.06 885.65,-352.57 883.42,-359.21"/>
</a>
</g>
</g>
<!-- Node23 -->
<g id="Node000023" class="node">
<title>Node23</title>
<g id="a_Node000023"><a xlink:href="_v_r_e___descriptor_8cpp.html" target="_top" xlink:title=" ">
<polygon fill="white" stroke="#666666" points="1019.75,-324 846.25,-324 846.25,-304 1019.75,-304 1019.75,-324"/>
<text text-anchor="middle" x="933" y="-310.5" font-family="Helvetica,sans-Serif" font-size="10.00">ReSTIRVulkan/VRE_Descriptor.cpp</text>
</a>
</g>
</g>
<!-- Node22&#45;&gt;Node23 -->
<g id="edge31_Node000022_Node000023" class="edge">
<title>Node22&#45;&gt;Node23</title>
<g id="a_edge31_Node000022_Node000023"><a xlink:title=" ">
<path fill="none" stroke="#63b8ff" d="M944.96,-349C941.99,-340.54 938.66,-331.08 936.27,-324.3"/>
<polygon fill="#63b8ff" stroke="#63b8ff" points="941.57,-349.89 948.19,-358.17 948.17,-347.57 941.57,-349.89"/>
</a>
</g>
</g>
<!-- Node25&#45;&gt;Node9 -->
<g id="edge41_Node000025_Node000009" class="edge">
<title>Node25&#45;&gt;Node9</title>
<g id="a_edge41_Node000025_Node000009"><a xlink:title=" ">
<path fill="none" stroke="#63b8ff" d="M136.8,-355.27C159.81,-345.64 189.98,-333.01 210.35,-324.48"/>
<polygon fill="#63b8ff" stroke="#63b8ff" points="135.74,-351.92 127.87,-359.01 138.44,-358.38 135.74,-351.92"/>
</a>
</g>
</g>
<!-- Node25&#45;&gt;Node10 -->
<g id="edge42_Node000025_Node000010" class="edge">
<title>Node25&#45;&gt;Node10</title>
<g id="a_edge42_Node000025_Node000010"><a xlink:title=" ">
<path fill="none" stroke="#63b8ff" d="M191.82,-359.83C337.94,-345.38 494.86,-330.9 588.01,-322.41"/>
<polygon fill="#63b8ff" stroke="#63b8ff" points="191.54,-356.34 181.93,-360.81 192.23,-363.31 191.54,-356.34"/>
</a>
</g>
</g>
<!-- Node25&#45;&gt;Node12 -->
<g id="edge39_Node000025_Node000012" class="edge">
<title>Node25&#45;&gt;Node12</title>
<g id="a_edge39_Node000025_Node000012"><a xlink:title=" ">
<path fill="none" stroke="#63b8ff" d="M100.42,-348.35C99.19,-334.56 99.94,-316.7 109,-304 179.2,-205.61 321.71,-166.05 410.01,-150.55"/>
<polygon fill="#63b8ff" stroke="#63b8ff" points="96.93,-348.65 101.73,-358.1 103.87,-347.72 96.93,-348.65"/>
</a>
</g>
</g>
<!-- Node25&#45;&gt;Node18 -->
<g id="edge40_Node000025_Node000018" class="edge">
<title>Node25&#45;&gt;Node18</title>
<g id="a_edge40_Node000025_Node000018"><a xlink:title=" ">
<path fill="none" stroke="#63b8ff" d="M110.62,-349.35C116.57,-334.68 126.74,-315.29 142,-304 169.6,-283.58 632.57,-193.05 823.09,-156.44"/>
<polygon fill="#63b8ff" stroke="#63b8ff" points="107.44,-347.85 107.26,-358.44 114.01,-350.27 107.44,-347.85"/>
</a>
</g>
</g>
<!-- Node26&#45;&gt;Node2 -->
<g id="edge44_Node000026_Node000002" class="edge">
<title>Node26&#45;&gt;Node2</title>
<g id="a_edge44_Node000026_Node000002"><a xlink:title=" ">
<path fill="none" stroke="#63b8ff" d="M1081.06,-243.53C1064.08,-236.37 1045.37,-226.08 1032,-212 1002.66,-181.11 1023.15,-155.07 994,-124 975.2,-103.96 946.77,-90.52 925.03,-82.5"/>
<polygon fill="#63b8ff" stroke="#63b8ff" points="1079.35,-246.62 1089.94,-247.03 1081.92,-240.11 1079.35,-246.62"/>
</a>
</g>
</g>
<!-- Node26&#45;&gt;Node17 -->
<g id="edge46_Node000026_Node000017" class="edge">
<title>Node26&#45;&gt;Node17</title>
<g id="a_edge46_Node000026_Node000017"><a xlink:title=" ">
<path fill="none" stroke="#63b8ff" d="M1059.02,-245.56C1003.96,-235.71 925.46,-221.68 873.89,-212.46"/>
<polygon fill="#63b8ff" stroke="#63b8ff" points="1058.1,-248.95 1068.56,-247.27 1059.33,-242.06 1058.1,-248.95"/>
</a>
</g>
</g>
<!-- Node27 -->
<g id="Node000027" class="node">
<title>Node27</title>
<g id="a_Node000027"><a xlink:href="_v_r_e___renderer_8cpp.html" target="_top" xlink:title=" ">
<polygon fill="white" stroke="#666666" points="1209.12,-212 1040.88,-212 1040.88,-192 1209.12,-192 1209.12,-212"/>
<text text-anchor="middle" x="1125" y="-198.5" font-family="Helvetica,sans-Serif" font-size="10.00">ReSTIRVulkan/VRE_Renderer.cpp</text>
</a>
</g>
</g>
<!-- Node26&#45;&gt;Node27 -->
<g id="edge45_Node000026_Node000027" class="edge">
<title>Node26&#45;&gt;Node27</title>
<g id="a_edge45_Node000026_Node000027"><a xlink:title=" ">
<path fill="none" stroke="#63b8ff" d="M1123.77,-236.13C1124.08,-227.9 1124.41,-218.85 1124.66,-212.3"/>
<polygon fill="#63b8ff" stroke="#63b8ff" points="1120.28,-235.96 1123.4,-246.08 1127.27,-236.22 1120.28,-235.96"/>
</a>
</g>
</g>
<!-- Node28&#45;&gt;Node11 -->
<g id="edge48_Node000028_Node000011" class="edge">
<title>Node28&#45;&gt;Node11</title>
<g id="a_edge48_Node000028_Node000011"><a xlink:title=" ">
<path fill="none" stroke="#63b8ff" d="M1037.71,-302.11C961.33,-292.24 849.93,-277.85 777.2,-268.46"/>
<polygon fill="#63b8ff" stroke="#63b8ff" points="1036.84,-305.53 1047.21,-303.34 1037.74,-298.59 1036.84,-305.53"/>
</a>
</g>
</g>
<!-- Node28&#45;&gt;Node26 -->
<g id="edge49_Node000028_Node000026" class="edge">
<title>Node28&#45;&gt;Node26</title>
<g id="a_edge49_Node000028_Node000026"><a xlink:title=" ">
<path fill="none" stroke="#63b8ff" d="M1122.39,-292.13C1122.54,-283.9 1122.71,-274.85 1122.83,-268.3"/>
<polygon fill="#63b8ff" stroke="#63b8ff" points="1118.89,-292.02 1122.2,-302.08 1125.89,-292.15 1118.89,-292.02"/>
</a>
</g>
</g>
<!-- Node29 -->
<g id="Node000029" class="node">
<title>Node29</title>
<g id="a_Node000029"><a xlink:href="_v_r_e___swap_chain_8cpp.html" target="_top" xlink:title=" ">
<polygon fill="white" stroke="#666666" points="1026.38,-268 847.62,-268 847.62,-248 1026.38,-248 1026.38,-268"/>
<text text-anchor="middle" x="937" y="-254.5" font-family="Helvetica,sans-Serif" font-size="10.00">ReSTIRVulkan/VRE_SwapChain.cpp</text>
</a>
</g>
</g>
<!-- Node28&#45;&gt;Node29 -->
<g id="edge50_Node000028_Node000029" class="edge">
<title>Node28&#45;&gt;Node29</title>
<g id="a_edge50_Node000028_Node000029"><a xlink:title=" ">
<path fill="none" stroke="#63b8ff" d="M1078.95,-300.43C1045.52,-290.67 999.88,-277.35 969.48,-268.48"/>
<polygon fill="#63b8ff" stroke="#63b8ff" points="1077.74,-303.73 1088.32,-303.17 1079.7,-297.01 1077.74,-303.73"/>
</a>
</g>
</g>
<!-- Node30&#45;&gt;Node7 -->
<g id="edge52_Node000030_Node000007" class="edge">
<title>Node30&#45;&gt;Node7</title>
<g id="a_edge52_Node000030_Node000007"><a xlink:title=" ">
<path fill="none" stroke="#63b8ff" d="M441.54,-412.56C406.62,-402.79 358.74,-389.39 326.88,-380.48"/>
<polygon fill="#63b8ff" stroke="#63b8ff" points="440.35,-415.86 450.92,-415.19 442.24,-409.12 440.35,-415.86"/>
</a>
</g>
</g>
<!-- Node30&#45;&gt;Node21 -->
<g id="edge53_Node000030_Node000021" class="edge">
<title>Node30&#45;&gt;Node21</title>
<g id="a_edge53_Node000030_Node000021"><a xlink:title=" ">
<path fill="none" stroke="#63b8ff" d="M486,-404.13C486,-395.9 486,-386.85 486,-380.3"/>
<polygon fill="#63b8ff" stroke="#63b8ff" points="482.5,-404.08 486,-414.08 489.5,-404.08 482.5,-404.08"/>
</a>
</g>
</g>
</g>
</svg>
