<?xml version="1.0" encoding="UTF-8" standalone="no"?>
<!DOCTYPE svg PUBLIC "-//W3C//DTD SVG 1.1//EN"
 "http://www.w3.org/Graphics/SVG/1.1/DTD/svg11.dtd">
<!-- Generated by graphviz version 12.1.2 (20240928.0832)
 -->
<!-- Title: ReSTIRVulkan/VRE_Pipeline.h Pages: 1 -->
<svg width="260pt" height="196pt"
 viewBox="0.00 0.00 259.75 196.00" xmlns="http://www.w3.org/2000/svg" xmlns:xlink="http://www.w3.org/1999/xlink">

<svg id="main" version="1.1" xmlns="http://www.w3.org/2000/svg" xmlns:xlink="http://www.w3.org/1999/xlink" xml:space="preserve">

<style type="text/css"><![CDATA[
.node, .edge {opacity: 0.7;}
.node.selected, .edge.selected {opacity: 1;}
.edge:hover path { stroke: red; }
.edge:hover polygon { stroke: red; fill: red; }
]]></style>
<script type="application/ecmascript" xlink:href="svg.min.js"/>
<svg id="graph" class="graph">
<g id="graph0" class="graph" transform="scale(1 1) rotate(0) translate(4 192)">
<title>ReSTIRVulkan/VRE_Pipeline.h</title>
<!-- Node1 -->
<g id="Node000001" class="node">
<title>Node1</title>
<g id="a_Node000001"><a xlink:title=" ">
<polygon fill="#999999" stroke="#666666" points="152.5,-188 0,-188 0,-168 152.5,-168 152.5,-188"/>
<text text-anchor="middle" x="76.25" y="-174.5" font-family="Helvetica,sans-Serif" font-size="10.00">ReSTIRVulkan/VRE_Pipeline.h</text>
</a>
</g>
</g>
<!-- Node2 -->
<g id="Node000002" class="node">
<title>Node2</title>
<g id="a_Node000002"><a xlink:title=" ">
<polygon fill="#e0e0e0" stroke="#999999" points="158.25,-20 118.25,-20 118.25,0 158.25,0 158.25,-20"/>
<text text-anchor="middle" x="138.25" y="-6.5" font-family="Helvetica,sans-Serif" font-size="10.00">string</text>
</a>
</g>
</g>
<!-- Node1&#45;&gt;Node2 -->
<g id="edge1_Node000001_Node000002" class="edge">
<title>Node1&#45;&gt;Node2</title>
<g id="a_edge1_Node000001_Node000002"><a xlink:title=" ">
<path fill="none" stroke="#63b8ff" d="M70.99,-167.75C59.65,-146.42 35.57,-92.84 57.25,-56 67.99,-37.74 89.11,-26.36 107.09,-19.61"/>
<polygon fill="#63b8ff" stroke="#63b8ff" points="107.99,-23.01 116.33,-16.48 105.73,-16.38 107.99,-23.01"/>
</a>
</g>
</g>
<!-- Node3 -->
<g id="Node000003" class="node">
<title>Node3</title>
<g id="a_Node000003"><a xlink:title=" ">
<polygon fill="#e0e0e0" stroke="#999999" points="109.75,-76 66.75,-76 66.75,-56 109.75,-56 109.75,-76"/>
<text text-anchor="middle" x="88.25" y="-62.5" font-family="Helvetica,sans-Serif" font-size="10.00">vector</text>
</a>
</g>
</g>
<!-- Node1&#45;&gt;Node3 -->
<g id="edge2_Node000001_Node000003" class="edge">
<title>Node1&#45;&gt;Node3</title>
<g id="a_edge2_Node000001_Node000003"><a xlink:title=" ">
<path fill="none" stroke="#63b8ff" d="M77.27,-167.62C79.19,-150.01 83.39,-111.59 86,-87.65"/>
<polygon fill="#63b8ff" stroke="#63b8ff" points="89.46,-88.18 87.07,-77.86 82.5,-87.42 89.46,-88.18"/>
</a>
</g>
</g>
<!-- Node4 -->
<g id="Node000004" class="node">
<title>Node4</title>
<g id="a_Node000004"><a xlink:href="_v_r_e___device_8h.html" target="_top" xlink:title=" ">
<polygon fill="white" stroke="#666666" points="185.88,-132 104.62,-132 104.62,-112 185.88,-112 185.88,-132"/>
<text text-anchor="middle" x="145.25" y="-118.5" font-family="Helvetica,sans-Serif" font-size="10.00">VRE_Device.h</text>
</a>
</g>
</g>
<!-- Node1&#45;&gt;Node4 -->
<g id="edge3_Node000001_Node000004" class="edge">
<title>Node1&#45;&gt;Node4</title>
<g id="a_edge3_Node000001_Node000004"><a xlink:title=" ">
<path fill="none" stroke="#63b8ff" d="M88.27,-167.59C98.26,-159.77 112.71,-148.46 124.56,-139.19"/>
<polygon fill="#63b8ff" stroke="#63b8ff" points="126.46,-142.15 132.18,-133.23 122.14,-136.64 126.46,-142.15"/>
</a>
</g>
</g>
<!-- Node4&#45;&gt;Node2 -->
<g id="edge7_Node000004_Node000002" class="edge">
<title>Node4&#45;&gt;Node2</title>
<g id="a_edge7_Node000004_Node000002"><a xlink:title=" ">
<path fill="none" stroke="#63b8ff" d="M144.65,-111.62C143.53,-94.01 141.09,-55.59 139.56,-31.65"/>
<polygon fill="#63b8ff" stroke="#63b8ff" points="143.07,-31.62 138.94,-21.87 136.08,-32.07 143.07,-31.62"/>
</a>
</g>
</g>
<!-- Node4&#45;&gt;Node3 -->
<g id="edge8_Node000004_Node000003" class="edge">
<title>Node4&#45;&gt;Node3</title>
<g id="a_edge8_Node000004_Node000003"><a xlink:title=" ">
<path fill="none" stroke="#63b8ff" d="M135.32,-111.59C127.31,-104.01 115.83,-93.13 106.22,-84.02"/>
<polygon fill="#63b8ff" stroke="#63b8ff" points="108.83,-81.68 99.16,-77.34 104.02,-86.76 108.83,-81.68"/>
</a>
</g>
</g>
<!-- Node5 -->
<g id="Node000005" class="node">
<title>Node5</title>
<g id="a_Node000005"><a xlink:href="_v_r_e___window_8h.html" target="_top" xlink:title=" ">
<polygon fill="white" stroke="#666666" points="251.75,-76 166.75,-76 166.75,-56 251.75,-56 251.75,-76"/>
<text text-anchor="middle" x="209.25" y="-62.5" font-family="Helvetica,sans-Serif" font-size="10.00">VRE_Window.h</text>
</a>
</g>
</g>
<!-- Node4&#45;&gt;Node5 -->
<g id="edge4_Node000004_Node000005" class="edge">
<title>Node4&#45;&gt;Node5</title>
<g id="a_edge4_Node000004_Node000005"><a xlink:title=" ">
<path fill="none" stroke="#63b8ff" d="M156.4,-111.59C165.58,-103.85 178.8,-92.69 189.73,-83.47"/>
<polygon fill="#63b8ff" stroke="#63b8ff" points="191.69,-86.4 197.07,-77.27 187.17,-81.05 191.69,-86.4"/>
</a>
</g>
</g>
<!-- Node5&#45;&gt;Node2 -->
<g id="edge6_Node000005_Node000002" class="edge">
<title>Node5&#45;&gt;Node2</title>
<g id="a_edge6_Node000005_Node000002"><a xlink:title=" ">
<path fill="none" stroke="#63b8ff" d="M196.88,-55.59C186.6,-47.77 171.73,-36.46 159.54,-27.19"/>
<polygon fill="#63b8ff" stroke="#63b8ff" points="161.76,-24.48 151.68,-21.21 157.52,-30.05 161.76,-24.48"/>
</a>
</g>
</g>
<!-- Node6 -->
<g id="Node000006" class="node">
<title>Node6</title>
<g id="a_Node000006"><a xlink:title=" ">
<polygon fill="#e0e0e0" stroke="#999999" points="233,-20 185.5,-20 185.5,0 233,0 233,-20"/>
<text text-anchor="middle" x="209.25" y="-6.5" font-family="Helvetica,sans-Serif" font-size="10.00">glfw3.h</text>
</a>
</g>
</g>
<!-- Node5&#45;&gt;Node6 -->
<g id="edge5_Node000005_Node000006" class="edge">
<title>Node5&#45;&gt;Node6</title>
<g id="a_edge5_Node000005_Node000006"><a xlink:title=" ">
<path fill="none" stroke="#63b8ff" d="M209.25,-55.59C209.25,-49.01 209.25,-39.96 209.25,-31.73"/>
<polygon fill="#63b8ff" stroke="#63b8ff" points="212.75,-31.81 209.25,-21.81 205.75,-31.81 212.75,-31.81"/>
</a>
</g>
</g>
</g>
</svg>
</svg>

<style type='text/css'>
<![CDATA[
[data-mouse-over-selected='false'] { opacity: 0.7; }
[data-mouse-over-selected='true']  { opacity: 1.0; }
]]>
</style>
<script type="application/ecmascript"><![CDATA[
document.addEventListener('DOMContentLoaded', (event) => {
  highlightEdges();
  highlightAdjacentNodes();
});
]]></script>
</svg>
