<?xml version="1.0" encoding="UTF-8" standalone="no"?>
<!DOCTYPE svg PUBLIC "-//W3C//DTD SVG 1.1//EN"
 "http://www.w3.org/Graphics/SVG/1.1/DTD/svg11.dtd">
<!-- Generated by graphviz version 12.1.2 (20240928.0832)
 -->
<!-- Title: ReSTIRVulkan/VRE_SwapChain.h Pages: 1 -->
<!--zoomable 332 -->

<svg id="main" version="1.1" xmlns="http://www.w3.org/2000/svg" xmlns:xlink="http://www.w3.org/1999/xlink" xml:space="preserve" onload="init(evt)">

<style type="text/css"><![CDATA[
.node, .edge {opacity: 0.7;}
.node.selected, .edge.selected {opacity: 1;}
.edge:hover path { stroke: red; }
.edge:hover polygon { stroke: red; fill: red; }
]]></style>

<defs>
  <circle id="rim" cx="0" cy="0" r="7"/>
  <circle id="rim2" cx="0" cy="0" r="3.5"/>
  <g id="zoomPlus">
    <use xlink:href="#rim" fill="#404040"><set attributeName="fill" to="#808080" begin="zoomplus.mouseover" end="zoomplus.mouseout"/></use>
    <path d="M-4,0h8M0,-4v8" fill="none" stroke="white" stroke-width="1.5" pointer-events="none"/>
  </g>
  <g id="zoomMin">
    <use xlink:href="#rim" fill="#404040"><set attributeName="fill" to="#808080" begin="zoomminus.mouseover" end="zoomminus.mouseout"/></use>
    <path d="M-4,0h8" fill="none" stroke="white" stroke-width="1.5" pointer-events="none"/>
  </g>
  <g id="arrowUp" transform="translate(30 24)">
    <use xlink:href="#rim"/>
    <path pointer-events="none" fill="none" stroke="white" stroke-width="1.5" d="M0,-3.0v7 M-2.5,-0.5L0,-3.0L2.5,-0.5"/>
  </g>
  <g id="arrowRight" transform="rotate(90) translate(36 -43)">
    <use xlink:href="#rim"/>
    <path pointer-events="none" fill="none" stroke="white" stroke-width="1.5" d="M0,-3.0v7 M-2.5,-0.5L0,-3.0L2.5,-0.5"/>
  </g>
  <g id="arrowDown" transform="rotate(180) translate(-30 -48)">
    <use xlink:href="#rim"/>
    <path pointer-events="none" fill="none" stroke="white" stroke-width="1.5" d="M0,-3.0v7 M-2.5,-0.5L0,-3.0L2.5,-0.5"/>
  </g>
  <g id="arrowLeft" transform="rotate(270) translate(-36 17)">
    <use xlink:href="#rim"/>
    <path pointer-events="none" fill="none" stroke="white" stroke-width="1.5" d="M0,-3.0v7 M-2.5,-0.5L0,-3.0L2.5,-0.5"/>
  </g>
  <g id="resetDef">
    <use xlink:href="#rim2" fill="#404040"><set attributeName="fill" to="#808080" begin="reset.mouseover" end="reset.mouseout"/></use>
  </g>
</defs>
<script type="application/ecmascript">
var viewWidth = 948;
var viewHeight = 332;
var sectionId = 'dynsection-1';
</script>
<script type="application/ecmascript" xlink:href="svg.min.js"/>
<svg id="graph" class="graph">
<g id="viewport">
<title>ReSTIRVulkan/VRE_SwapChain.h</title>
<!-- Node1 -->
<g id="Node000001" class="node">
<title>Node1</title>
<g id="a_Node000001"><a xlink:title=" ">
<polygon fill="#999999" stroke="#666666" points="746.75,-324 578.5,-324 578.5,-304 746.75,-304 746.75,-324"/>
<text text-anchor="middle" x="662.62" y="-310.5" font-family="Helvetica,sans-Serif" font-size="10.00">ReSTIRVulkan/VRE_SwapChain.h</text>
</a>
</g>
</g>
<!-- Node2 -->
<g id="Node000002" class="node">
<title>Node2</title>
<g id="a_Node000002"><a xlink:href="_v_r_e___game_object_8h.html" target="_top" xlink:title=" ">
<polygon fill="white" stroke="#666666" points="486,-268 313.25,-268 313.25,-248 486,-248 486,-268"/>
<text text-anchor="middle" x="399.62" y="-254.5" font-family="Helvetica,sans-Serif" font-size="10.00">ReSTIRVulkan/VRE_GameObject.h</text>
</a>
</g>
</g>
<!-- Node1&#45;&gt;Node2 -->
<g id="edge1_Node000001_Node000002" class="edge">
<title>Node1&#45;&gt;Node2</title>
<g id="a_edge1_Node000001_Node000002"><a xlink:title=" ">
<path fill="none" stroke="#63b8ff" d="M605.4,-301.25C557.53,-291.42 490.13,-277.58 445.68,-268.46"/>
<polygon fill="#63b8ff" stroke="#63b8ff" points="604.53,-304.64 615.03,-303.23 605.94,-297.79 604.53,-304.64"/>
</a>
</g>
</g>
<!-- Node14 -->
<g id="Node000014" class="node">
<title>Node14</title>
<g id="a_Node000014"><a xlink:href="_v_r_e___renderer_8h.html" target="_top" xlink:title=" ">
<polygon fill="white" stroke="#666666" points="741.5,-268 583.75,-268 583.75,-248 741.5,-248 741.5,-268"/>
<text text-anchor="middle" x="662.62" y="-254.5" font-family="Helvetica,sans-Serif" font-size="10.00">ReSTIRVulkan/VRE_Renderer.h</text>
</a>
</g>
</g>
<!-- Node1&#45;&gt;Node14 -->
<g id="edge18_Node000001_Node000014" class="edge">
<title>Node1&#45;&gt;Node14</title>
<g id="a_edge18_Node000001_Node000014"><a xlink:title=" ">
<path fill="none" stroke="#63b8ff" d="M662.62,-292.13C662.62,-283.9 662.62,-274.85 662.62,-268.3"/>
<polygon fill="#63b8ff" stroke="#63b8ff" points="659.13,-292.08 662.63,-302.08 666.13,-292.08 659.13,-292.08"/>
</a>
</g>
</g>
<!-- Node16 -->
<g id="Node000016" class="node">
<title>Node16</title>
<g id="a_Node000016"><a xlink:href="_v_r_e___swap_chain_8cpp.html" target="_top" xlink:title=" ">
<polygon fill="white" stroke="#666666" points="938,-268 759.25,-268 759.25,-248 938,-248 938,-268"/>
<text text-anchor="middle" x="848.62" y="-254.5" font-family="Helvetica,sans-Serif" font-size="10.00">ReSTIRVulkan/VRE_SwapChain.cpp</text>
</a>
</g>
</g>
<!-- Node1&#45;&gt;Node16 -->
<g id="edge22_Node000001_Node000016" class="edge">
<title>Node1&#45;&gt;Node16</title>
<g id="a_edge22_Node000001_Node000016"><a xlink:title=" ">
<path fill="none" stroke="#63b8ff" d="M705.91,-300.43C739.52,-290.67 785.4,-277.35 815.97,-268.48"/>
<polygon fill="#63b8ff" stroke="#63b8ff" points="705.1,-297.02 696.48,-303.17 707.06,-303.74 705.1,-297.02"/>
</a>
</g>
</g>
<!-- Node3 -->
<g id="Node000003" class="node">
<title>Node3</title>
<g id="a_Node000003"><a xlink:href="_v_r_e___game_obj_render_system_8h.html" target="_top" xlink:title=" ">
<polygon fill="white" stroke="#666666" points="535.12,-156 384.12,-156 384.12,-124 535.12,-124 535.12,-156"/>
<text text-anchor="start" x="392.12" y="-142.5" font-family="Helvetica,sans-Serif" font-size="10.00">ReSTIRVulkan/VRE_GameObj</text>
<text text-anchor="middle" x="459.62" y="-130.5" font-family="Helvetica,sans-Serif" font-size="10.00">RenderSystem.h</text>
</a>
</g>
</g>
<!-- Node2&#45;&gt;Node3 -->
<g id="edge2_Node000002_Node000003" class="edge">
<title>Node2&#45;&gt;Node3</title>
<g id="a_edge2_Node000002_Node000003"><a xlink:title=" ">
<path fill="none" stroke="#63b8ff" d="M403.43,-236.56C406.41,-223.35 411.29,-206.06 418.62,-192 425.45,-178.91 435.92,-165.96 444.57,-156.39"/>
<polygon fill="#63b8ff" stroke="#63b8ff" points="400.03,-235.76 401.45,-246.26 406.88,-237.16 400.03,-235.76"/>
</a>
</g>
</g>
<!-- Node8 -->
<g id="Node000008" class="node">
<title>Node8</title>
<g id="a_Node000008"><a xlink:href="_v_r_e___game_object_8cpp.html" target="_top" xlink:title=" ">
<polygon fill="white" stroke="#666666" points="183.25,-82 0,-82 0,-62 183.25,-62 183.25,-82"/>
<text text-anchor="middle" x="91.62" y="-68.5" font-family="Helvetica,sans-Serif" font-size="10.00">ReSTIRVulkan/VRE_GameObject.cpp</text>
</a>
</g>
</g>
<!-- Node2&#45;&gt;Node8 -->
<g id="edge7_Node000002_Node000008" class="edge">
<title>Node2&#45;&gt;Node8</title>
<g id="a_edge7_Node000002_Node000008"><a xlink:title=" ">
<path fill="none" stroke="#63b8ff" d="M365.49,-243.27C323.36,-225.68 250.23,-192.99 192.62,-156 156.53,-132.82 118.68,-98.63 101.34,-82.32"/>
<polygon fill="#63b8ff" stroke="#63b8ff" points="364.04,-246.46 374.61,-247.04 366.71,-239.99 364.04,-246.46"/>
</a>
</g>
</g>
<!-- Node9 -->
<g id="Node000009" class="node">
<title>Node9</title>
<g id="a_Node000009"><a xlink:href="_v_r_e___game_object_manager_8h.html" target="_top" xlink:title=" ">
<polygon fill="white" stroke="#666666" points="365.88,-156 201.38,-156 201.38,-124 365.88,-124 365.88,-156"/>
<text text-anchor="start" x="209.38" y="-142.5" font-family="Helvetica,sans-Serif" font-size="10.00">ReSTIRVulkan/VRE_GameObject</text>
<text text-anchor="middle" x="283.62" y="-130.5" font-family="Helvetica,sans-Serif" font-size="10.00">Manager.h</text>
</a>
</g>
</g>
<!-- Node2&#45;&gt;Node9 -->
<g id="edge8_Node000002_Node000009" class="edge">
<title>Node2&#45;&gt;Node9</title>
<g id="a_edge8_Node000002_Node000009"><a xlink:title=" ">
<path fill="none" stroke="#63b8ff" d="M382.07,-239.45C359.47,-216.85 320.55,-177.93 299.04,-156.41"/>
<polygon fill="#63b8ff" stroke="#63b8ff" points="379.52,-241.84 389.06,-246.44 384.47,-236.89 379.52,-241.84"/>
</a>
</g>
</g>
<!-- Node11 -->
<g id="Node000011" class="node">
<title>Node11</title>
<g id="a_Node000011"><a xlink:href="_v_r_e___shared_context_8h.html" target="_top" xlink:title=" ">
<polygon fill="white" stroke="#666666" points="611.25,-212 428,-212 428,-192 611.25,-192 611.25,-212"/>
<text text-anchor="middle" x="519.62" y="-198.5" font-family="Helvetica,sans-Serif" font-size="10.00">ReSTIRVulkan/VRE_SharedContext.h</text>
</a>
</g>
</g>
<!-- Node2&#45;&gt;Node11 -->
<g id="edge12_Node000002_Node000011" class="edge">
<title>Node2&#45;&gt;Node11</title>
<g id="a_edge12_Node000002_Node000011"><a xlink:title=" ">
<path fill="none" stroke="#63b8ff" d="M431.01,-242.88C452.3,-233.3 479.87,-220.89 498.56,-212.48"/>
<polygon fill="#63b8ff" stroke="#63b8ff" points="429.59,-239.68 421.91,-246.97 432.46,-246.06 429.59,-239.68"/>
</a>
</g>
</g>
<!-- Node4 -->
<g id="Node000004" class="node">
<title>Node4</title>
<g id="a_Node000004"><a xlink:href="_v_r_e___app_8h.html" target="_top" xlink:title=" ">
<polygon fill="white" stroke="#666666" points="688.25,-82 553,-82 553,-62 688.25,-62 688.25,-82"/>
<text text-anchor="middle" x="620.62" y="-68.5" font-family="Helvetica,sans-Serif" font-size="10.00">ReSTIRVulkan/VRE_App.h</text>
</a>
</g>
</g>
<!-- Node3&#45;&gt;Node4 -->
<g id="edge3_Node000003_Node000004" class="edge">
<title>Node3&#45;&gt;Node4</title>
<g id="a_edge3_Node000003_Node000004"><a xlink:title=" ">
<path fill="none" stroke="#63b8ff" d="M507.95,-119.19C537.62,-107.03 574.27,-92 597.55,-82.46"/>
<polygon fill="#63b8ff" stroke="#63b8ff" points="506.7,-115.92 498.77,-122.95 509.35,-122.4 506.7,-115.92"/>
</a>
</g>
</g>
<!-- Node7 -->
<g id="Node000007" class="node">
<title>Node7</title>
<g id="a_Node000007"><a xlink:href="_v_r_e___game_obj_render_system_8cpp.html" target="_top" xlink:title=" ">
<polygon fill="white" stroke="#666666" points="535.12,-88 384.12,-88 384.12,-56 535.12,-56 535.12,-88"/>
<text text-anchor="start" x="392.12" y="-74.5" font-family="Helvetica,sans-Serif" font-size="10.00">ReSTIRVulkan/VRE_GameObj</text>
<text text-anchor="middle" x="459.62" y="-62.5" font-family="Helvetica,sans-Serif" font-size="10.00">RenderSystem.cpp</text>
</a>
</g>
</g>
<!-- Node3&#45;&gt;Node7 -->
<g id="edge6_Node000003_Node000007" class="edge">
<title>Node3&#45;&gt;Node7</title>
<g id="a_edge6_Node000003_Node000007"><a xlink:title=" ">
<path fill="none" stroke="#63b8ff" d="M459.62,-112.31C459.62,-104.12 459.62,-95.38 459.62,-88.22"/>
<polygon fill="#63b8ff" stroke="#63b8ff" points="456.13,-112.18 459.63,-122.18 463.13,-112.18 456.13,-112.18"/>
</a>
</g>
</g>
<!-- Node5 -->
<g id="Node000005" class="node">
<title>Node5</title>
<g id="a_Node000005"><a xlink:href="_v_r_e___app_8cpp.html" target="_top" xlink:title=" ">
<polygon fill="white" stroke="#666666" points="616.5,-20 470.75,-20 470.75,0 616.5,0 616.5,-20"/>
<text text-anchor="middle" x="543.62" y="-6.5" font-family="Helvetica,sans-Serif" font-size="10.00">ReSTIRVulkan/VRE_App.cpp</text>
</a>
</g>
</g>
<!-- Node4&#45;&gt;Node5 -->
<g id="edge4_Node000004_Node000005" class="edge">
<title>Node4&#45;&gt;Node5</title>
<g id="a_edge4_Node000004_Node000005"><a xlink:title=" ">
<path fill="none" stroke="#63b8ff" d="M599.57,-54.59C585.42,-43.57 567.29,-29.44 555.57,-20.31"/>
<polygon fill="#63b8ff" stroke="#63b8ff" points="597.36,-57.31 607.4,-60.69 601.66,-51.79 597.36,-57.31"/>
</a>
</g>
</g>
<!-- Node6 -->
<g id="Node000006" class="node">
<title>Node6</title>
<g id="a_Node000006"><a xlink:href="main_8cpp.html" target="_top" xlink:title=" ">
<polygon fill="white" stroke="#666666" points="758.25,-20 635,-20 635,0 758.25,0 758.25,-20"/>
<text text-anchor="middle" x="696.62" y="-6.5" font-family="Helvetica,sans-Serif" font-size="10.00">ReSTIRVulkan/main.cpp</text>
</a>
</g>
</g>
<!-- Node4&#45;&gt;Node6 -->
<g id="edge5_Node000004_Node000006" class="edge">
<title>Node4&#45;&gt;Node6</title>
<g id="a_edge5_Node000004_Node000006"><a xlink:title=" ">
<path fill="none" stroke="#63b8ff" d="M641.47,-54.55C655.52,-43.45 673.54,-29.23 685.08,-20.11"/>
<polygon fill="#63b8ff" stroke="#63b8ff" points="639.37,-51.74 633.69,-60.69 643.71,-57.24 639.37,-51.74"/>
</a>
</g>
</g>
<!-- Node9&#45;&gt;Node4 -->
<g id="edge9_Node000009_Node000004" class="edge">
<title>Node9&#45;&gt;Node4</title>
<g id="a_edge9_Node000009_Node000004"><a xlink:title=" ">
<path fill="none" stroke="#63b8ff" d="M374.17,-121.35C424.4,-111.55 487.98,-99.13 544.62,-88 553.73,-86.21 563.45,-84.3 572.79,-82.46"/>
<polygon fill="#63b8ff" stroke="#63b8ff" points="373.65,-117.89 364.5,-123.24 374.99,-124.76 373.65,-117.89"/>
</a>
</g>
</g>
<!-- Node9&#45;&gt;Node8 -->
<g id="edge10_Node000009_Node000008" class="edge">
<title>Node9&#45;&gt;Node8</title>
<g id="a_edge10_Node000009_Node000008"><a xlink:title=" ">
<path fill="none" stroke="#63b8ff" d="M227.85,-119.83C192.15,-107.56 147.4,-92.17 119.15,-82.46"/>
<polygon fill="#63b8ff" stroke="#63b8ff" points="226.58,-123.09 237.18,-123.03 228.86,-116.47 226.58,-123.09"/>
</a>
</g>
</g>
<!-- Node10 -->
<g id="Node000010" class="node">
<title>Node10</title>
<g id="a_Node000010"><a xlink:href="_v_r_e___game_object_manager_8cpp.html" target="_top" xlink:title=" ">
<polygon fill="white" stroke="#666666" points="365.88,-88 201.38,-88 201.38,-56 365.88,-56 365.88,-88"/>
<text text-anchor="start" x="209.38" y="-74.5" font-family="Helvetica,sans-Serif" font-size="10.00">ReSTIRVulkan/VRE_GameObject</text>
<text text-anchor="middle" x="283.62" y="-62.5" font-family="Helvetica,sans-Serif" font-size="10.00">Manager.cpp</text>
</a>
</g>
</g>
<!-- Node9&#45;&gt;Node10 -->
<g id="edge11_Node000009_Node000010" class="edge">
<title>Node9&#45;&gt;Node10</title>
<g id="a_edge11_Node000009_Node000010"><a xlink:title=" ">
<path fill="none" stroke="#63b8ff" d="M283.62,-112.31C283.62,-104.12 283.62,-95.38 283.62,-88.22"/>
<polygon fill="#63b8ff" stroke="#63b8ff" points="280.13,-112.18 283.63,-122.18 287.13,-112.18 280.13,-112.18"/>
</a>
</g>
</g>
<!-- Node11&#45;&gt;Node3 -->
<g id="edge13_Node000011_Node000003" class="edge">
<title>Node11&#45;&gt;Node3</title>
<g id="a_edge13_Node000011_Node000003"><a xlink:title=" ">
<path fill="none" stroke="#63b8ff" d="M502.27,-183.65C493.57,-174.95 483.14,-164.51 474.77,-156.14"/>
<polygon fill="#63b8ff" stroke="#63b8ff" points="499.63,-185.96 509.18,-190.55 504.58,-181.01 499.63,-185.96"/>
</a>
</g>
</g>
<!-- Node11&#45;&gt;Node9 -->
<g id="edge14_Node000011_Node000009" class="edge">
<title>Node11&#45;&gt;Node9</title>
<g id="a_edge14_Node000011_Node000009"><a xlink:title=" ">
<path fill="none" stroke="#63b8ff" d="M471.58,-188.78C434.85,-179.45 383.98,-166.51 344.42,-156.46"/>
<polygon fill="#63b8ff" stroke="#63b8ff" points="470.47,-192.11 481.02,-191.19 472.19,-185.33 470.47,-192.11"/>
</a>
</g>
</g>
<!-- Node12 -->
<g id="Node000012" class="node">
<title>Node12</title>
<g id="a_Node000012"><a xlink:href="_v_r_e___light_render_system_8h.html" target="_top" xlink:title=" ">
<polygon fill="white" stroke="#666666" points="715.75,-156 553.5,-156 553.5,-124 715.75,-124 715.75,-156"/>
<text text-anchor="start" x="561.5" y="-142.5" font-family="Helvetica,sans-Serif" font-size="10.00">ReSTIRVulkan/VRE_LightRender</text>
<text text-anchor="middle" x="634.62" y="-130.5" font-family="Helvetica,sans-Serif" font-size="10.00">System.h</text>
</a>
</g>
</g>
<!-- Node11&#45;&gt;Node12 -->
<g id="edge15_Node000011_Node000012" class="edge">
<title>Node11&#45;&gt;Node12</title>
<g id="a_edge15_Node000011_Node000012"><a xlink:title=" ">
<path fill="none" stroke="#63b8ff" d="M547.72,-186.34C565.14,-177.25 587.49,-165.59 605.16,-156.37"/>
<polygon fill="#63b8ff" stroke="#63b8ff" points="546.18,-183.2 538.94,-190.92 549.42,-189.4 546.18,-183.2"/>
</a>
</g>
</g>
<!-- Node12&#45;&gt;Node4 -->
<g id="edge16_Node000012_Node000004" class="edge">
<title>Node12&#45;&gt;Node4</title>
<g id="a_edge16_Node000012_Node000004"><a xlink:title=" ">
<path fill="none" stroke="#63b8ff" d="M629.04,-112.66C626.76,-101.92 624.28,-90.21 622.6,-82.32"/>
<polygon fill="#63b8ff" stroke="#63b8ff" points="625.56,-113.16 631.06,-122.21 632.41,-111.7 625.56,-113.16"/>
</a>
</g>
</g>
<!-- Node13 -->
<g id="Node000013" class="node">
<title>Node13</title>
<g id="a_Node000013"><a xlink:href="_v_r_e___light_render_system_8cpp.html" target="_top" xlink:title=" ">
<polygon fill="white" stroke="#666666" points="868.75,-88 706.5,-88 706.5,-56 868.75,-56 868.75,-88"/>
<text text-anchor="start" x="714.5" y="-74.5" font-family="Helvetica,sans-Serif" font-size="10.00">ReSTIRVulkan/VRE_LightRender</text>
<text text-anchor="middle" x="787.62" y="-62.5" font-family="Helvetica,sans-Serif" font-size="10.00">System.cpp</text>
</a>
</g>
</g>
<!-- Node12&#45;&gt;Node13 -->
<g id="edge17_Node000012_Node000013" class="edge">
<title>Node12&#45;&gt;Node13</title>
<g id="a_edge17_Node000012_Node000013"><a xlink:title=" ">
<path fill="none" stroke="#63b8ff" d="M680.93,-119.03C703.64,-109.23 730.58,-97.61 751.71,-88.49"/>
<polygon fill="#63b8ff" stroke="#63b8ff" points="679.68,-115.75 671.89,-122.93 682.45,-122.18 679.68,-115.75"/>
</a>
</g>
</g>
<!-- Node14&#45;&gt;Node4 -->
<g id="edge19_Node000014_Node000004" class="edge">
<title>Node14&#45;&gt;Node4</title>
<g id="a_edge19_Node000014_Node000004"><a xlink:title=" ">
<path fill="none" stroke="#63b8ff" d="M681.54,-239.73C707.7,-213.68 749.08,-163.24 724.62,-124 711.22,-102.5 685.82,-89.81 663.47,-82.46"/>
<polygon fill="#63b8ff" stroke="#63b8ff" points="679.25,-237.07 674.46,-246.52 684.1,-242.12 679.25,-237.07"/>
</a>
</g>
</g>
<!-- Node14&#45;&gt;Node11 -->
<g id="edge21_Node000014_Node000011" class="edge">
<title>Node14&#45;&gt;Node11</title>
<g id="a_edge21_Node000014_Node000011"><a xlink:title=" ">
<path fill="none" stroke="#63b8ff" d="M626.96,-243.53C601.37,-233.87 567.52,-221.08 544.73,-212.48"/>
<polygon fill="#63b8ff" stroke="#63b8ff" points="625.71,-246.8 636.3,-247.06 628.18,-240.25 625.71,-246.8"/>
</a>
</g>
</g>
<!-- Node15 -->
<g id="Node000015" class="node">
<title>Node15</title>
<g id="a_Node000015"><a xlink:href="_v_r_e___renderer_8cpp.html" target="_top" xlink:title=" ">
<polygon fill="white" stroke="#666666" points="939.75,-212 771.5,-212 771.5,-192 939.75,-192 939.75,-212"/>
<text text-anchor="middle" x="855.62" y="-198.5" font-family="Helvetica,sans-Serif" font-size="10.00">ReSTIRVulkan/VRE_Renderer.cpp</text>
</a>
</g>
</g>
<!-- Node14&#45;&gt;Node15 -->
<g id="edge20_Node000014_Node000015" class="edge">
<title>Node14&#45;&gt;Node15</title>
<g id="a_edge20_Node000014_Node000015"><a xlink:title=" ">
<path fill="none" stroke="#63b8ff" d="M707.09,-244.56C742,-234.79 789.89,-221.39 821.74,-212.48"/>
<polygon fill="#63b8ff" stroke="#63b8ff" points="706.39,-241.12 697.7,-247.19 708.27,-247.86 706.39,-241.12"/>
</a>
</g>
</g>
</g>
</svg>

<g id="navigator" transform="translate(0 0)" fill="#404254">
  <rect fill="#f2f5e9" fill-opacity="0.5" stroke="#606060" stroke-width=".5" x="0" y="0" width="60" height="60"/>
  <use id="zoomplus" xlink:href="#zoomPlus" x="17" y="9" onmousedown="handleZoom(evt,'in')"/>
  <use id="zoomminus" xlink:href="#zoomMin" x="42" y="9" onmousedown="handleZoom(evt,'out')"/>
  <use id="reset" xlink:href="#resetDef" x="30" y="36" onmousedown="handleReset()"/>
   <use id="arrowup" xlink:href="#arrowUp" x="0" y="0" onmousedown="handlePan(0,-1)"/>
  <use id="arrowright" xlink:href="#arrowRight" x="0" y="0" onmousedown="handlePan(1,0)"/>
  <use id="arrowdown" xlink:href="#arrowDown" x="0" y="0" onmousedown="handlePan(0,1)"/>
  <use id="arrowleft" xlink:href="#arrowLeft" x="0" y="0" onmousedown="handlePan(-1,0)"/>
</g>
<svg viewBox="0 0 15 15" width="100%" height="30px" preserveAspectRatio="xMaxYMin meet">
 <g id="arrow_out" transform="scale(0.3 0.3)">
  <a xlink:href="_v_r_e___swap_chain_8h__dep__incl_org.svg" target="_base">
   <rect id="button" ry="5" rx="5" y="6" x="6" height="38" width="38"
        fill="#f2f5e9" fill-opacity="0.5" stroke="#606060" stroke-width="1.0"/>
   <path id="arrow"
     d="M 11.500037,31.436501 C 11.940474,20.09759 22.043105,11.32322 32.158766,21.979434 L 37.068811,17.246167 C 37.068811,17.246167 37.088388,32 37.088388,32 L 22.160133,31.978069 C 22.160133,31.978069 26.997745,27.140456 26.997745,27.140456 C 18.528582,18.264221 13.291696,25.230495 11.500037,31.436501 z"
     style="fill:#404040;"/>
  </a>
 </g>
</svg>

<style type='text/css'>
<![CDATA[
[data-mouse-over-selected='false'] { opacity: 0.7; }
[data-mouse-over-selected='true']  { opacity: 1.0; }
]]>
</style>
<script type="application/ecmascript"><![CDATA[
document.addEventListener('DOMContentLoaded', (event) => {
  highlightEdges();
  highlightAdjacentNodes();
});
]]></script>
</svg>
