<?xml version="1.0" encoding="UTF-8" standalone="no"?>
<!DOCTYPE svg PUBLIC "-//W3C//DTD SVG 1.1//EN"
 "http://www.w3.org/Graphics/SVG/1.1/DTD/svg11.dtd">
<!-- Generated by graphviz version 12.1.2 (20240928.0832)
 -->
<!-- Title: ReSTIRVulkan/VRE_PointLight.h Pages: 1 -->
<svg width="170pt" height="84pt"
 viewBox="0.00 0.00 169.50 84.00" xmlns="http://www.w3.org/2000/svg" xmlns:xlink="http://www.w3.org/1999/xlink">
<g id="graph0" class="graph" transform="scale(1 1) rotate(0) translate(4 80)">
<title>ReSTIRVulkan/VRE_PointLight.h</title>
<!-- Node1 -->
<g id="Node000001" class="node">
<title>Node1</title>
<g id="a_Node000001"><a xlink:title=" ">
<polygon fill="#999999" stroke="#666666" points="161.5,-76 0,-76 0,-56 161.5,-56 161.5,-76"/>
<text text-anchor="middle" x="80.75" y="-62.5" font-family="Helvetica,sans-Serif" font-size="10.00">ReSTIRVulkan/VRE_PointLight.h</text>
</a>
</g>
</g>
<!-- Node2 -->
<g id="Node000002" class="node">
<title>Node2</title>
<g id="a_Node000002"><a xlink:title=" ">
<polygon fill="#e0e0e0" stroke="#999999" points="72,-20 21.5,-20 21.5,0 72,0 72,-20"/>
<text text-anchor="middle" x="46.75" y="-6.5" font-family="Helvetica,sans-Serif" font-size="10.00">glm.hpp</text>
</a>
</g>
</g>
<!-- Node1&#45;&gt;Node2 -->
<g id="edge1_Node000001_Node000002" class="edge">
<title>Node1&#45;&gt;Node2</title>
<g id="a_edge1_Node000001_Node000002"><a xlink:title=" ">
<path fill="none" stroke="#63b8ff" d="M74.83,-55.59C70.39,-48.55 64.17,-38.67 58.71,-30"/>
<polygon fill="#63b8ff" stroke="#63b8ff" points="61.7,-28.18 53.41,-21.58 55.78,-31.91 61.7,-28.18"/>
</a>
</g>
</g>
<!-- Node3 -->
<g id="Node000003" class="node">
<title>Node3</title>
<g id="a_Node000003"><a xlink:title=" ">
<polygon fill="#e0e0e0" stroke="#999999" points="141.38,-20 90.12,-20 90.12,0 141.38,0 141.38,-20"/>
<text text-anchor="middle" x="115.75" y="-6.5" font-family="Helvetica,sans-Serif" font-size="10.00">memory</text>
</a>
</g>
</g>
<!-- Node1&#45;&gt;Node3 -->
<g id="edge2_Node000001_Node000003" class="edge">
<title>Node1&#45;&gt;Node3</title>
<g id="a_edge2_Node000001_Node000003"><a xlink:title=" ">
<path fill="none" stroke="#63b8ff" d="M86.85,-55.59C91.46,-48.47 97.96,-38.45 103.62,-29.72"/>
<polygon fill="#63b8ff" stroke="#63b8ff" points="106.4,-31.86 108.9,-21.57 100.52,-28.06 106.4,-31.86"/>
</a>
</g>
</g>
</g>
</svg>
