<?xml version="1.0" encoding="UTF-8" standalone="no"?>
<!DOCTYPE svg PUBLIC "-//W3C//DTD SVG 1.1//EN"
 "http://www.w3.org/Graphics/SVG/1.1/DTD/svg11.dtd">
<!-- Generated by graphviz version 12.1.2 (20240928.0832)
 -->
<!-- Title: ReSTIRVulkan/VRE_Camera.h Pages: 1 -->
<svg width="486pt" height="196pt"
 viewBox="0.00 0.00 486.25 196.00" xmlns="http://www.w3.org/2000/svg" xmlns:xlink="http://www.w3.org/1999/xlink">

<svg id="main" version="1.1" xmlns="http://www.w3.org/2000/svg" xmlns:xlink="http://www.w3.org/1999/xlink" xml:space="preserve">

<style type="text/css"><![CDATA[
.node, .edge {opacity: 0.7;}
.node.selected, .edge.selected {opacity: 1;}
.edge:hover path { stroke: red; }
.edge:hover polygon { stroke: red; fill: red; }
]]></style>
<script type="application/ecmascript" xlink:href="svg.min.js"/>
<svg id="graph" class="graph">
<g id="graph0" class="graph" transform="scale(1 1) rotate(0) translate(4 192)">
<title>ReSTIRVulkan/VRE_Camera.h</title>
<!-- Node1 -->
<g id="Node000001" class="node">
<title>Node1</title>
<g id="a_Node000001"><a xlink:title=" ">
<polygon fill="#999999" stroke="#666666" points="275.12,-188 122.62,-188 122.62,-168 275.12,-168 275.12,-188"/>
<text text-anchor="middle" x="198.88" y="-174.5" font-family="Helvetica,sans-Serif" font-size="10.00">ReSTIRVulkan/VRE_Camera.h</text>
</a>
</g>
</g>
<!-- Node2 -->
<g id="Node000002" class="node">
<title>Node2</title>
<g id="a_Node000002"><a xlink:href="_v_r_e___app_8h.html" target="_top" xlink:title=" ">
<polygon fill="white" stroke="#666666" points="216.5,-76 81.25,-76 81.25,-56 216.5,-56 216.5,-76"/>
<text text-anchor="middle" x="148.88" y="-62.5" font-family="Helvetica,sans-Serif" font-size="10.00">ReSTIRVulkan/VRE_App.h</text>
</a>
</g>
</g>
<!-- Node1&#45;&gt;Node2 -->
<g id="edge1_Node000001_Node000002" class="edge">
<title>Node1&#45;&gt;Node2</title>
<g id="a_edge1_Node000001_Node000002"><a xlink:title=" ">
<path fill="none" stroke="#63b8ff" d="M147.85,-163.4C132.3,-156.6 116.94,-146.6 107.88,-132 95.56,-112.17 119.24,-89.07 135.46,-76.45"/>
<polygon fill="#63b8ff" stroke="#63b8ff" points="146.57,-166.66 157.15,-167.05 149.12,-160.14 146.57,-166.66"/>
</a>
</g>
</g>
<!-- Node5 -->
<g id="Node000005" class="node">
<title>Node5</title>
<g id="a_Node000005"><a xlink:href="_v_r_e___camera_8cpp.html" target="_top" xlink:title=" ">
<polygon fill="white" stroke="#666666" points="280.38,-132 117.38,-132 117.38,-112 280.38,-112 280.38,-132"/>
<text text-anchor="middle" x="198.88" y="-118.5" font-family="Helvetica,sans-Serif" font-size="10.00">ReSTIRVulkan/VRE_Camera.cpp</text>
</a>
</g>
</g>
<!-- Node1&#45;&gt;Node5 -->
<g id="edge4_Node000001_Node000005" class="edge">
<title>Node1&#45;&gt;Node5</title>
<g id="a_edge4_Node000001_Node000005"><a xlink:title=" ">
<path fill="none" stroke="#63b8ff" d="M198.88,-156.13C198.88,-147.9 198.88,-138.85 198.88,-132.3"/>
<polygon fill="#63b8ff" stroke="#63b8ff" points="195.38,-156.08 198.88,-166.08 202.38,-156.08 195.38,-156.08"/>
</a>
</g>
</g>
<!-- Node6 -->
<g id="Node000006" class="node">
<title>Node6</title>
<g id="a_Node000006"><a xlink:href="_v_r_e___input_listener_8h.html" target="_top" xlink:title=" ">
<polygon fill="white" stroke="#666666" points="473,-132 298.75,-132 298.75,-112 473,-112 473,-132"/>
<text text-anchor="middle" x="385.88" y="-118.5" font-family="Helvetica,sans-Serif" font-size="10.00">ReSTIRVulkan/VRE_InputListener.h</text>
</a>
</g>
</g>
<!-- Node1&#45;&gt;Node6 -->
<g id="edge5_Node000001_Node000006" class="edge">
<title>Node1&#45;&gt;Node6</title>
<g id="a_edge5_Node000001_Node000006"><a xlink:title=" ">
<path fill="none" stroke="#63b8ff" d="M242.39,-164.43C276.19,-154.67 322.31,-141.35 353.05,-132.48"/>
<polygon fill="#63b8ff" stroke="#63b8ff" points="241.54,-161.04 232.9,-167.17 243.48,-167.76 241.54,-161.04"/>
</a>
</g>
</g>
<!-- Node3 -->
<g id="Node000003" class="node">
<title>Node3</title>
<g id="a_Node000003"><a xlink:href="_v_r_e___app_8cpp.html" target="_top" xlink:title=" ">
<polygon fill="white" stroke="#666666" points="145.75,-20 0,-20 0,0 145.75,0 145.75,-20"/>
<text text-anchor="middle" x="72.88" y="-6.5" font-family="Helvetica,sans-Serif" font-size="10.00">ReSTIRVulkan/VRE_App.cpp</text>
</a>
</g>
</g>
<!-- Node2&#45;&gt;Node3 -->
<g id="edge2_Node000002_Node000003" class="edge">
<title>Node2&#45;&gt;Node3</title>
<g id="a_edge2_Node000002_Node000003"><a xlink:title=" ">
<path fill="none" stroke="#63b8ff" d="M126.35,-49C113.3,-39.72 97.3,-28.35 86.22,-20.48"/>
<polygon fill="#63b8ff" stroke="#63b8ff" points="124.22,-51.78 134.4,-54.72 128.28,-46.07 124.22,-51.78"/>
</a>
</g>
</g>
<!-- Node4 -->
<g id="Node000004" class="node">
<title>Node4</title>
<g id="a_Node000004"><a xlink:href="main_8cpp.html" target="_top" xlink:title=" ">
<polygon fill="white" stroke="#666666" points="287.5,-20 164.25,-20 164.25,0 287.5,0 287.5,-20"/>
<text text-anchor="middle" x="225.88" y="-6.5" font-family="Helvetica,sans-Serif" font-size="10.00">ReSTIRVulkan/main.cpp</text>
</a>
</g>
</g>
<!-- Node2&#45;&gt;Node4 -->
<g id="edge3_Node000002_Node000004" class="edge">
<title>Node2&#45;&gt;Node4</title>
<g id="a_edge3_Node000002_Node000004"><a xlink:title=" ">
<path fill="none" stroke="#63b8ff" d="M171.69,-49C184.92,-39.72 201.13,-28.35 212.36,-20.48"/>
<polygon fill="#63b8ff" stroke="#63b8ff" points="169.7,-46.12 163.53,-54.72 173.72,-51.85 169.7,-46.12"/>
</a>
</g>
</g>
<!-- Node6&#45;&gt;Node2 -->
<g id="edge6_Node000006_Node000002" class="edge">
<title>Node6&#45;&gt;Node2</title>
<g id="a_edge6_Node000006_Node000002"><a xlink:title=" ">
<path fill="none" stroke="#63b8ff" d="M333.21,-109C290.15,-99.19 230.09,-85.51 190.38,-76.46"/>
<polygon fill="#63b8ff" stroke="#63b8ff" points="332.32,-112.39 342.85,-111.2 333.87,-105.56 332.32,-112.39"/>
</a>
</g>
</g>
<!-- Node7 -->
<g id="Node000007" class="node">
<title>Node7</title>
<g id="a_Node000007"><a xlink:href="_v_r_e___input_listener_8cpp.html" target="_top" xlink:title=" ">
<polygon fill="white" stroke="#666666" points="478.25,-76 293.5,-76 293.5,-56 478.25,-56 478.25,-76"/>
<text text-anchor="middle" x="385.88" y="-62.5" font-family="Helvetica,sans-Serif" font-size="10.00">ReSTIRVulkan/VRE_InputListener.cpp</text>
</a>
</g>
</g>
<!-- Node6&#45;&gt;Node7 -->
<g id="edge7_Node000006_Node000007" class="edge">
<title>Node6&#45;&gt;Node7</title>
<g id="a_edge7_Node000006_Node000007"><a xlink:title=" ">
<path fill="none" stroke="#63b8ff" d="M385.88,-100.13C385.88,-91.9 385.88,-82.85 385.88,-76.3"/>
<polygon fill="#63b8ff" stroke="#63b8ff" points="382.38,-100.08 385.88,-110.08 389.38,-100.08 382.38,-100.08"/>
</a>
</g>
</g>
</g>
</svg>
</svg>

<style type='text/css'>
<![CDATA[
[data-mouse-over-selected='false'] { opacity: 0.7; }
[data-mouse-over-selected='true']  { opacity: 1.0; }
]]>
</style>
<script type="application/ecmascript"><![CDATA[
document.addEventListener('DOMContentLoaded', (event) => {
  highlightEdges();
  highlightAdjacentNodes();
});
]]></script>
</svg>
