<?xml version="1.0" encoding="UTF-8" standalone="no"?>
<!DOCTYPE svg PUBLIC "-//W3C//DTD SVG 1.1//EN"
 "http://www.w3.org/Graphics/SVG/1.1/DTD/svg11.dtd">
<!-- Generated by graphviz version 12.1.2 (20240928.0832)
 -->
<!-- Title: ReSTIRVulkan/VRE_Texture.cpp Pages: 1 -->
<svg width="409pt" height="252pt"
 viewBox="0.00 0.00 409.00 252.00" xmlns="http://www.w3.org/2000/svg" xmlns:xlink="http://www.w3.org/1999/xlink">
<g id="graph0" class="graph" transform="scale(1 1) rotate(0) translate(4 248)">
<title>ReSTIRVulkan/VRE_Texture.cpp</title>
<!-- Node1 -->
<g id="Node000001" class="node">
<title>Node1</title>
<g id="a_Node000001"><a xlink:title=" ">
<polygon fill="#999999" stroke="#666666" points="303.75,-244 143,-244 143,-224 303.75,-224 303.75,-244"/>
<text text-anchor="middle" x="223.38" y="-230.5" font-family="Helvetica,sans-Serif" font-size="10.00">ReSTIRVulkan/VRE_Texture.cpp</text>
</a>
</g>
</g>
<!-- Node2 -->
<g id="Node000002" class="node">
<title>Node2</title>
<g id="a_Node000002"><a xlink:href="_v_r_e___texture_8h.html" target="_top" xlink:title=" ">
<polygon fill="white" stroke="#666666" points="82.75,-188 0,-188 0,-168 82.75,-168 82.75,-188"/>
<text text-anchor="middle" x="41.38" y="-174.5" font-family="Helvetica,sans-Serif" font-size="10.00">VRE_Texture.h</text>
</a>
</g>
</g>
<!-- Node1&#45;&gt;Node2 -->
<g id="edge1_Node000001_Node000002" class="edge">
<title>Node1&#45;&gt;Node2</title>
<g id="a_edge1_Node000001_Node000002"><a xlink:title=" ">
<path fill="none" stroke="#63b8ff" d="M191.67,-223.59C161.84,-214.74 116.96,-201.43 84,-191.65"/>
<polygon fill="#63b8ff" stroke="#63b8ff" points="85.36,-188.4 74.78,-188.91 83.37,-195.11 85.36,-188.4"/>
</a>
</g>
</g>
<!-- Node9 -->
<g id="Node000009" class="node">
<title>Node9</title>
<g id="a_Node000009"><a xlink:href="_v_r_e___buffer_8h.html" target="_top" xlink:title=" ">
<polygon fill="white" stroke="#666666" points="176.38,-188 100.38,-188 100.38,-168 176.38,-168 176.38,-188"/>
<text text-anchor="middle" x="138.38" y="-174.5" font-family="Helvetica,sans-Serif" font-size="10.00">VRE_Buffer.h</text>
</a>
</g>
</g>
<!-- Node1&#45;&gt;Node9 -->
<g id="edge9_Node000001_Node000009" class="edge">
<title>Node1&#45;&gt;Node9</title>
<g id="a_edge9_Node000001_Node000009"><a xlink:title=" ">
<path fill="none" stroke="#63b8ff" d="M208.57,-223.59C195.97,-215.59 177.62,-203.93 162.84,-194.54"/>
<polygon fill="#63b8ff" stroke="#63b8ff" points="164.89,-191.7 154.57,-189.29 161.14,-197.61 164.89,-191.7"/>
</a>
</g>
</g>
<!-- Node10 -->
<g id="Node000010" class="node">
<title>Node10</title>
<g id="a_Node000010"><a xlink:title=" ">
<polygon fill="#e0e0e0" stroke="#999999" points="252.75,-188 194,-188 194,-168 252.75,-168 252.75,-188"/>
<text text-anchor="middle" x="223.38" y="-174.5" font-family="Helvetica,sans-Serif" font-size="10.00">stdexcept</text>
</a>
</g>
</g>
<!-- Node1&#45;&gt;Node10 -->
<g id="edge11_Node000001_Node000010" class="edge">
<title>Node1&#45;&gt;Node10</title>
<g id="a_edge11_Node000001_Node000010"><a xlink:title=" ">
<path fill="none" stroke="#63b8ff" d="M223.38,-223.59C223.38,-217.01 223.38,-207.96 223.38,-199.73"/>
<polygon fill="#63b8ff" stroke="#63b8ff" points="226.88,-199.81 223.38,-189.81 219.88,-199.81 226.88,-199.81"/>
</a>
</g>
</g>
<!-- Node11 -->
<g id="Node000011" class="node">
<title>Node11</title>
<g id="a_Node000011"><a xlink:title=" ">
<polygon fill="#e0e0e0" stroke="#999999" points="313.88,-188 270.88,-188 270.88,-168 313.88,-168 313.88,-188"/>
<text text-anchor="middle" x="292.38" y="-174.5" font-family="Helvetica,sans-Serif" font-size="10.00">cmath</text>
</a>
</g>
</g>
<!-- Node1&#45;&gt;Node11 -->
<g id="edge12_Node000001_Node000011" class="edge">
<title>Node1&#45;&gt;Node11</title>
<g id="a_edge12_Node000001_Node000011"><a xlink:title=" ">
<path fill="none" stroke="#63b8ff" d="M235.39,-223.59C245.39,-215.77 259.84,-204.46 271.68,-195.19"/>
<polygon fill="#63b8ff" stroke="#63b8ff" points="273.58,-198.15 279.3,-189.23 269.27,-192.64 273.58,-198.15"/>
</a>
</g>
</g>
<!-- Node12 -->
<g id="Node000012" class="node">
<title>Node12</title>
<g id="a_Node000012"><a xlink:title=" ">
<polygon fill="#e0e0e0" stroke="#999999" points="401,-188 331.75,-188 331.75,-168 401,-168 401,-188"/>
<text text-anchor="middle" x="366.38" y="-174.5" font-family="Helvetica,sans-Serif" font-size="10.00">stb_image.h</text>
</a>
</g>
</g>
<!-- Node1&#45;&gt;Node12 -->
<g id="edge13_Node000001_Node000012" class="edge">
<title>Node1&#45;&gt;Node12</title>
<g id="a_edge13_Node000001_Node000012"><a xlink:title=" ">
<path fill="none" stroke="#63b8ff" d="M248.28,-223.59C271.11,-214.97 305.16,-202.12 330.84,-192.42"/>
<polygon fill="#63b8ff" stroke="#63b8ff" points="331.74,-195.82 339.86,-189.01 329.26,-189.27 331.74,-195.82"/>
</a>
</g>
</g>
<!-- Node3 -->
<g id="Node000003" class="node">
<title>Node3</title>
<g id="a_Node000003"><a xlink:title=" ">
<polygon fill="#e0e0e0" stroke="#999999" points="67,-132 15.75,-132 15.75,-112 67,-112 67,-132"/>
<text text-anchor="middle" x="41.38" y="-118.5" font-family="Helvetica,sans-Serif" font-size="10.00">memory</text>
</a>
</g>
</g>
<!-- Node2&#45;&gt;Node3 -->
<g id="edge2_Node000002_Node000003" class="edge">
<title>Node2&#45;&gt;Node3</title>
<g id="a_edge2_Node000002_Node000003"><a xlink:title=" ">
<path fill="none" stroke="#63b8ff" d="M41.38,-167.59C41.38,-161.01 41.38,-151.96 41.38,-143.73"/>
<polygon fill="#63b8ff" stroke="#63b8ff" points="44.88,-143.81 41.38,-133.81 37.88,-143.81 44.88,-143.81"/>
</a>
</g>
</g>
<!-- Node4 -->
<g id="Node000004" class="node">
<title>Node4</title>
<g id="a_Node000004"><a xlink:href="_v_r_e___device_8h.html" target="_top" xlink:title=" ">
<polygon fill="white" stroke="#666666" points="172,-132 90.75,-132 90.75,-112 172,-112 172,-132"/>
<text text-anchor="middle" x="131.38" y="-118.5" font-family="Helvetica,sans-Serif" font-size="10.00">VRE_Device.h</text>
</a>
</g>
</g>
<!-- Node2&#45;&gt;Node4 -->
<g id="edge3_Node000002_Node000004" class="edge">
<title>Node2&#45;&gt;Node4</title>
<g id="a_edge3_Node000002_Node000004"><a xlink:title=" ">
<path fill="none" stroke="#63b8ff" d="M57.05,-167.59C70.52,-159.51 90.19,-147.71 105.92,-138.27"/>
<polygon fill="#63b8ff" stroke="#63b8ff" points="107.5,-141.4 114.28,-133.26 103.9,-135.4 107.5,-141.4"/>
</a>
</g>
</g>
<!-- Node5 -->
<g id="Node000005" class="node">
<title>Node5</title>
<g id="a_Node000005"><a xlink:href="_v_r_e___window_8h.html" target="_top" xlink:title=" ">
<polygon fill="white" stroke="#666666" points="102.88,-76 17.88,-76 17.88,-56 102.88,-56 102.88,-76"/>
<text text-anchor="middle" x="60.38" y="-62.5" font-family="Helvetica,sans-Serif" font-size="10.00">VRE_Window.h</text>
</a>
</g>
</g>
<!-- Node4&#45;&gt;Node5 -->
<g id="edge4_Node000004_Node000005" class="edge">
<title>Node4&#45;&gt;Node5</title>
<g id="a_edge4_Node000004_Node000005"><a xlink:title=" ">
<path fill="none" stroke="#63b8ff" d="M119.01,-111.59C108.73,-103.77 93.86,-92.46 81.66,-83.19"/>
<polygon fill="#63b8ff" stroke="#63b8ff" points="83.88,-80.48 73.81,-77.21 79.65,-86.05 83.88,-80.48"/>
</a>
</g>
</g>
<!-- Node7 -->
<g id="Node000007" class="node">
<title>Node7</title>
<g id="a_Node000007"><a xlink:title=" ">
<polygon fill="#e0e0e0" stroke="#999999" points="146.38,-20 106.38,-20 106.38,0 146.38,0 146.38,-20"/>
<text text-anchor="middle" x="126.38" y="-6.5" font-family="Helvetica,sans-Serif" font-size="10.00">string</text>
</a>
</g>
</g>
<!-- Node4&#45;&gt;Node7 -->
<g id="edge7_Node000004_Node000007" class="edge">
<title>Node4&#45;&gt;Node7</title>
<g id="a_edge7_Node000004_Node000007"><a xlink:title=" ">
<path fill="none" stroke="#63b8ff" d="M130.95,-111.62C130.15,-94.01 128.4,-55.59 127.31,-31.65"/>
<polygon fill="#63b8ff" stroke="#63b8ff" points="130.82,-31.7 126.87,-21.87 123.83,-32.02 130.82,-31.7"/>
</a>
</g>
</g>
<!-- Node8 -->
<g id="Node000008" class="node">
<title>Node8</title>
<g id="a_Node000008"><a xlink:title=" ">
<polygon fill="#e0e0e0" stroke="#999999" points="202.88,-76 159.88,-76 159.88,-56 202.88,-56 202.88,-76"/>
<text text-anchor="middle" x="181.38" y="-62.5" font-family="Helvetica,sans-Serif" font-size="10.00">vector</text>
</a>
</g>
</g>
<!-- Node4&#45;&gt;Node8 -->
<g id="edge8_Node000004_Node000008" class="edge">
<title>Node4&#45;&gt;Node8</title>
<g id="a_edge8_Node000004_Node000008"><a xlink:title=" ">
<path fill="none" stroke="#63b8ff" d="M140.08,-111.59C146.97,-104.16 156.77,-93.58 165.09,-84.58"/>
<polygon fill="#63b8ff" stroke="#63b8ff" points="167.51,-87.12 171.74,-77.41 162.37,-82.37 167.51,-87.12"/>
</a>
</g>
</g>
<!-- Node6 -->
<g id="Node000006" class="node">
<title>Node6</title>
<g id="a_Node000006"><a xlink:title=" ">
<polygon fill="#e0e0e0" stroke="#999999" points="84.12,-20 36.62,-20 36.62,0 84.12,0 84.12,-20"/>
<text text-anchor="middle" x="60.38" y="-6.5" font-family="Helvetica,sans-Serif" font-size="10.00">glfw3.h</text>
</a>
</g>
</g>
<!-- Node5&#45;&gt;Node6 -->
<g id="edge5_Node000005_Node000006" class="edge">
<title>Node5&#45;&gt;Node6</title>
<g id="a_edge5_Node000005_Node000006"><a xlink:title=" ">
<path fill="none" stroke="#63b8ff" d="M60.38,-55.59C60.38,-49.01 60.38,-39.96 60.38,-31.73"/>
<polygon fill="#63b8ff" stroke="#63b8ff" points="63.88,-31.81 60.38,-21.81 56.88,-31.81 63.88,-31.81"/>
</a>
</g>
</g>
<!-- Node5&#45;&gt;Node7 -->
<g id="edge6_Node000005_Node000007" class="edge">
<title>Node5&#45;&gt;Node7</title>
<g id="a_edge6_Node000005_Node000007"><a xlink:title=" ">
<path fill="none" stroke="#63b8ff" d="M71.87,-55.59C81.34,-47.85 94.98,-36.69 106.25,-27.47"/>
<polygon fill="#63b8ff" stroke="#63b8ff" points="108.32,-30.3 113.84,-21.26 103.88,-24.88 108.32,-30.3"/>
</a>
</g>
</g>
<!-- Node9&#45;&gt;Node4 -->
<g id="edge10_Node000009_Node000004" class="edge">
<title>Node9&#45;&gt;Node4</title>
<g id="a_edge10_Node000009_Node000004"><a xlink:title=" ">
<path fill="none" stroke="#63b8ff" d="M137.16,-167.59C136.29,-160.93 135.1,-151.75 134.02,-143.44"/>
<polygon fill="#63b8ff" stroke="#63b8ff" points="137.53,-143.27 132.77,-133.8 130.59,-144.17 137.53,-143.27"/>
</a>
</g>
</g>
</g>
</svg>
