<?xml version="1.0" encoding="UTF-8" standalone="no"?>
<!DOCTYPE svg PUBLIC "-//W3C//DTD SVG 1.1//EN"
 "http://www.w3.org/Graphics/SVG/1.1/DTD/svg11.dtd">
<!-- Generated by graphviz version 12.1.2 (20240928.0832)
 -->
<!-- Title: ReSTIRVulkan/VRE_LightRenderSystem.h Pages: 1 -->
<!--zoomable 488 -->

<svg id="main" version="1.1" xmlns="http://www.w3.org/2000/svg" xmlns:xlink="http://www.w3.org/1999/xlink" xml:space="preserve" onload="init(evt)">

<style type="text/css"><![CDATA[
.node, .edge {opacity: 0.7;}
.node.selected, .edge.selected {opacity: 1;}
.edge:hover path { stroke: red; }
.edge:hover polygon { stroke: red; fill: red; }
]]></style>

<defs>
  <circle id="rim" cx="0" cy="0" r="7"/>
  <circle id="rim2" cx="0" cy="0" r="3.5"/>
  <g id="zoomPlus">
    <use xlink:href="#rim" fill="#404040"><set attributeName="fill" to="#808080" begin="zoomplus.mouseover" end="zoomplus.mouseout"/></use>
    <path d="M-4,0h8M0,-4v8" fill="none" stroke="white" stroke-width="1.5" pointer-events="none"/>
  </g>
  <g id="zoomMin">
    <use xlink:href="#rim" fill="#404040"><set attributeName="fill" to="#808080" begin="zoomminus.mouseover" end="zoomminus.mouseout"/></use>
    <path d="M-4,0h8" fill="none" stroke="white" stroke-width="1.5" pointer-events="none"/>
  </g>
  <g id="arrowUp" transform="translate(30 24)">
    <use xlink:href="#rim"/>
    <path pointer-events="none" fill="none" stroke="white" stroke-width="1.5" d="M0,-3.0v7 M-2.5,-0.5L0,-3.0L2.5,-0.5"/>
  </g>
  <g id="arrowRight" transform="rotate(90) translate(36 -43)">
    <use xlink:href="#rim"/>
    <path pointer-events="none" fill="none" stroke="white" stroke-width="1.5" d="M0,-3.0v7 M-2.5,-0.5L0,-3.0L2.5,-0.5"/>
  </g>
  <g id="arrowDown" transform="rotate(180) translate(-30 -48)">
    <use xlink:href="#rim"/>
    <path pointer-events="none" fill="none" stroke="white" stroke-width="1.5" d="M0,-3.0v7 M-2.5,-0.5L0,-3.0L2.5,-0.5"/>
  </g>
  <g id="arrowLeft" transform="rotate(270) translate(-36 17)">
    <use xlink:href="#rim"/>
    <path pointer-events="none" fill="none" stroke="white" stroke-width="1.5" d="M0,-3.0v7 M-2.5,-0.5L0,-3.0L2.5,-0.5"/>
  </g>
  <g id="resetDef">
    <use xlink:href="#rim2" fill="#404040"><set attributeName="fill" to="#808080" begin="reset.mouseover" end="reset.mouseout"/></use>
  </g>
</defs>
<script type="application/ecmascript">
var viewWidth = 1268;
var viewHeight = 488;
var sectionId = 'dynsection-0';
</script>
<script type="application/ecmascript" xlink:href="svg.min.js"/>
<svg id="graph" class="graph">
<g id="viewport">
<title>ReSTIRVulkan/VRE_LightRenderSystem.h</title>
<!-- Node1 -->
<g id="Node000001" class="node">
<title>Node1</title>
<g id="a_Node000001"><a xlink:title=" ">
<polygon fill="#999999" stroke="#666666" points="1227.24,-480 1064.99,-480 1064.99,-448 1227.24,-448 1227.24,-480"/>
<text text-anchor="start" x="1072.99" y="-466.5" font-family="Helvetica,sans-Serif" font-size="10.00">ReSTIRVulkan/VRE_LightRender</text>
<text text-anchor="middle" x="1146.12" y="-454.5" font-family="Helvetica,sans-Serif" font-size="10.00">System.h</text>
</a>
</g>
</g>
<!-- Node2 -->
<g id="Node000002" class="node">
<title>Node2</title>
<g id="a_Node000002"><a xlink:href="_v_r_e___device_8h.html" target="_top" xlink:title=" ">
<polygon fill="white" stroke="#666666" points="656.74,-132 575.49,-132 575.49,-112 656.74,-112 656.74,-132"/>
<text text-anchor="middle" x="616.12" y="-118.5" font-family="Helvetica,sans-Serif" font-size="10.00">VRE_Device.h</text>
</a>
</g>
</g>
<!-- Node1&#45;&gt;Node2 -->
<g id="edge1_Node000001_Node000002" class="edge">
<title>Node1&#45;&gt;Node2</title>
<g id="a_edge1_Node000001_Node000002"><a xlink:title=" ">
<path fill="none" stroke="#63b8ff" d="M1146.12,-447.61C1146.12,-425.4 1146.12,-383.05 1146.12,-347 1146.12,-347 1146.12,-347 1146.12,-233 1146.12,-202.9 1150.38,-187.09 1127.12,-168 1092.18,-139.34 791.47,-127.84 668.35,-124.3"/>
<polygon fill="#63b8ff" stroke="#63b8ff" points="668.61,-120.81 658.51,-124.03 668.41,-127.81 668.61,-120.81"/>
</a>
</g>
</g>
<!-- Node7 -->
<g id="Node000007" class="node">
<title>Node7</title>
<g id="a_Node000007"><a xlink:href="_v_r_e___shared_context_8h.html" target="_top" xlink:title=" ">
<polygon fill="white" stroke="#666666" points="452.99,-412 337.24,-412 337.24,-392 452.99,-392 452.99,-412"/>
<text text-anchor="middle" x="395.12" y="-398.5" font-family="Helvetica,sans-Serif" font-size="10.00">VRE_SharedContext.h</text>
</a>
</g>
</g>
<!-- Node1&#45;&gt;Node7 -->
<g id="edge7_Node000001_Node000007" class="edge">
<title>Node1&#45;&gt;Node7</title>
<g id="a_edge7_Node000001_Node000007"><a xlink:title=" ">
<path fill="none" stroke="#63b8ff" d="M1064.67,-456.49C916.2,-444.63 604,-419.69 464.74,-408.56"/>
<polygon fill="#63b8ff" stroke="#63b8ff" points="465.17,-405.09 454.92,-407.78 464.61,-412.06 465.17,-405.09"/>
</a>
</g>
</g>
<!-- Node24 -->
<g id="Node000024" class="node">
<title>Node24</title>
<g id="a_Node000024"><a xlink:href="_v_r_e___pipeline_8h.html" target="_top" xlink:title=" ">
<polygon fill="white" stroke="#666666" points="1259.62,-188 1174.62,-188 1174.62,-168 1259.62,-168 1259.62,-188"/>
<text text-anchor="middle" x="1217.12" y="-174.5" font-family="Helvetica,sans-Serif" font-size="10.00">VRE_Pipeline.h</text>
</a>
</g>
</g>
<!-- Node1&#45;&gt;Node24 -->
<g id="edge55_Node000001_Node000024" class="edge">
<title>Node1&#45;&gt;Node24</title>
<g id="a_edge55_Node000001_Node000024"><a xlink:title=" ">
<path fill="none" stroke="#63b8ff" d="M1158.64,-447.55C1174.59,-426.26 1200.12,-386.1 1200.12,-347 1200.12,-347 1200.12,-347 1200.12,-289 1200.12,-257.5 1207.01,-221.52 1212.02,-199.53"/>
<polygon fill="#63b8ff" stroke="#63b8ff" points="1215.42,-200.35 1214.33,-189.81 1208.61,-198.73 1215.42,-200.35"/>
</a>
</g>
</g>
<!-- Node3 -->
<g id="Node000003" class="node">
<title>Node3</title>
<g id="a_Node000003"><a xlink:href="_v_r_e___window_8h.html" target="_top" xlink:title=" ">
<polygon fill="white" stroke="#666666" points="148.62,-76 63.62,-76 63.62,-56 148.62,-56 148.62,-76"/>
<text text-anchor="middle" x="106.12" y="-62.5" font-family="Helvetica,sans-Serif" font-size="10.00">VRE_Window.h</text>
</a>
</g>
</g>
<!-- Node2&#45;&gt;Node3 -->
<g id="edge2_Node000002_Node000003" class="edge">
<title>Node2&#45;&gt;Node3</title>
<g id="a_edge2_Node000002_Node000003"><a xlink:title=" ">
<path fill="none" stroke="#63b8ff" d="M575.24,-116.67C483.86,-107 263.01,-83.61 160.31,-72.74"/>
<polygon fill="#63b8ff" stroke="#63b8ff" points="160.79,-69.27 150.48,-71.7 160.06,-76.23 160.79,-69.27"/>
</a>
</g>
</g>
<!-- Node5 -->
<g id="Node000005" class="node">
<title>Node5</title>
<g id="a_Node000005"><a xlink:title=" ">
<polygon fill="#e0e0e0" stroke="#999999" points="414.12,-20 374.12,-20 374.12,0 414.12,0 414.12,-20"/>
<text text-anchor="middle" x="394.12" y="-6.5" font-family="Helvetica,sans-Serif" font-size="10.00">string</text>
</a>
</g>
</g>
<!-- Node2&#45;&gt;Node5 -->
<g id="edge5_Node000002_Node000005" class="edge">
<title>Node2&#45;&gt;Node5</title>
<g id="a_edge5_Node000002_Node000005"><a xlink:title=" ">
<path fill="none" stroke="#63b8ff" d="M614.09,-111.89C610.45,-97.69 601.41,-70.41 583.12,-56 537.04,-19.69 466.34,-11.95 425.73,-10.71"/>
<polygon fill="#63b8ff" stroke="#63b8ff" points="425.97,-7.22 415.92,-10.54 425.85,-14.22 425.97,-7.22"/>
</a>
</g>
</g>
<!-- Node6 -->
<g id="Node000006" class="node">
<title>Node6</title>
<g id="a_Node000006"><a xlink:title=" ">
<polygon fill="#e0e0e0" stroke="#999999" points="573.62,-76 530.62,-76 530.62,-56 573.62,-56 573.62,-76"/>
<text text-anchor="middle" x="552.12" y="-62.5" font-family="Helvetica,sans-Serif" font-size="10.00">vector</text>
</a>
</g>
</g>
<!-- Node2&#45;&gt;Node6 -->
<g id="edge6_Node000002_Node000006" class="edge">
<title>Node2&#45;&gt;Node6</title>
<g id="a_edge6_Node000002_Node000006"><a xlink:title=" ">
<path fill="none" stroke="#63b8ff" d="M604.97,-111.59C595.79,-103.85 582.56,-92.69 571.63,-83.47"/>
<polygon fill="#63b8ff" stroke="#63b8ff" points="574.19,-81.05 564.29,-77.27 569.68,-86.4 574.19,-81.05"/>
</a>
</g>
</g>
<!-- Node4 -->
<g id="Node000004" class="node">
<title>Node4</title>
<g id="a_Node000004"><a xlink:title=" ">
<polygon fill="#e0e0e0" stroke="#999999" points="129.87,-20 82.37,-20 82.37,0 129.87,0 129.87,-20"/>
<text text-anchor="middle" x="106.12" y="-6.5" font-family="Helvetica,sans-Serif" font-size="10.00">glfw3.h</text>
</a>
</g>
</g>
<!-- Node3&#45;&gt;Node4 -->
<g id="edge3_Node000003_Node000004" class="edge">
<title>Node3&#45;&gt;Node4</title>
<g id="a_edge3_Node000003_Node000004"><a xlink:title=" ">
<path fill="none" stroke="#63b8ff" d="M106.12,-55.59C106.12,-49.01 106.12,-39.96 106.12,-31.73"/>
<polygon fill="#63b8ff" stroke="#63b8ff" points="109.62,-31.81 106.12,-21.81 102.62,-31.81 109.62,-31.81"/>
</a>
</g>
</g>
<!-- Node3&#45;&gt;Node5 -->
<g id="edge4_Node000003_Node000005" class="edge">
<title>Node3&#45;&gt;Node5</title>
<g id="a_edge4_Node000003_Node000005"><a xlink:title=" ">
<path fill="none" stroke="#63b8ff" d="M148.92,-56.97C207.36,-46.02 310.76,-26.63 362.62,-16.91"/>
<polygon fill="#63b8ff" stroke="#63b8ff" points="363.08,-20.38 372.26,-15.1 361.79,-13.5 363.08,-20.38"/>
</a>
</g>
</g>
<!-- Node8 -->
<g id="Node000008" class="node">
<title>Node8</title>
<g id="a_Node000008"><a xlink:title=" ">
<polygon fill="#e0e0e0" stroke="#999999" points="327.24,-132 242.99,-132 242.99,-112 327.24,-112 327.24,-132"/>
<text text-anchor="middle" x="285.12" y="-118.5" font-family="Helvetica,sans-Serif" font-size="10.00">vulkan/vulkan.h</text>
</a>
</g>
</g>
<!-- Node7&#45;&gt;Node8 -->
<g id="edge8_Node000007_Node000008" class="edge">
<title>Node7&#45;&gt;Node8</title>
<g id="a_edge8_Node000007_Node000008"><a xlink:title=" ">
<path fill="none" stroke="#63b8ff" d="M384.05,-391.82C358.32,-369.64 294.93,-310.12 272.12,-244 260.38,-210 270,-167.71 277.77,-143.19"/>
<polygon fill="#63b8ff" stroke="#63b8ff" points="281.04,-144.44 280.94,-133.85 274.41,-142.19 281.04,-144.44"/>
</a>
</g>
</g>
<!-- Node9 -->
<g id="Node000009" class="node">
<title>Node9</title>
<g id="a_Node000009"><a xlink:href="_v_r_e___renderer_8h.html" target="_top" xlink:title=" ">
<polygon fill="white" stroke="#666666" points="186.24,-244 95.99,-244 95.99,-224 186.24,-224 186.24,-244"/>
<text text-anchor="middle" x="141.12" y="-230.5" font-family="Helvetica,sans-Serif" font-size="10.00">VRE_Renderer.h</text>
</a>
</g>
</g>
<!-- Node7&#45;&gt;Node9 -->
<g id="edge9_Node000007_Node000009" class="edge">
<title>Node7&#45;&gt;Node9</title>
<g id="a_edge9_Node000007_Node000009"><a xlink:title=" ">
<path fill="none" stroke="#63b8ff" d="M337.04,-393.13C305.75,-386.82 267.62,-375.63 238.12,-356 198.1,-329.38 166.73,-281.05 151.4,-254.23"/>
<polygon fill="#63b8ff" stroke="#63b8ff" points="154.48,-252.56 146.57,-245.51 148.35,-255.95 154.48,-252.56"/>
</a>
</g>
</g>
<!-- Node13 -->
<g id="Node000013" class="node">
<title>Node13</title>
<g id="a_Node000013"><a xlink:href="_v_r_e___point_light_8h.html" target="_top" xlink:title=" ">
<polygon fill="white" stroke="#666666" points="375.12,-244 281.12,-244 281.12,-224 375.12,-224 375.12,-244"/>
<text text-anchor="middle" x="328.12" y="-230.5" font-family="Helvetica,sans-Serif" font-size="10.00">VRE_PointLight.h</text>
</a>
</g>
</g>
<!-- Node7&#45;&gt;Node13 -->
<g id="edge21_Node000007_Node000013" class="edge">
<title>Node7&#45;&gt;Node13</title>
<g id="a_edge21_Node000007_Node000013"><a xlink:title=" ">
<path fill="none" stroke="#63b8ff" d="M391.32,-391.6C380.73,-365.35 350.65,-290.84 336.14,-254.89"/>
<polygon fill="#63b8ff" stroke="#63b8ff" points="339.42,-253.66 332.44,-245.7 332.93,-256.28 339.42,-253.66"/>
</a>
</g>
</g>
<!-- Node15 -->
<g id="Node000015" class="node">
<title>Node15</title>
<g id="a_Node000015"><a xlink:href="_v_r_e___descriptor_8h.html" target="_top" xlink:title=" ">
<polygon fill="white" stroke="#666666" points="1041.87,-244 946.37,-244 946.37,-224 1041.87,-224 1041.87,-244"/>
<text text-anchor="middle" x="994.12" y="-230.5" font-family="Helvetica,sans-Serif" font-size="10.00">VRE_Descriptor.h</text>
</a>
</g>
</g>
<!-- Node7&#45;&gt;Node15 -->
<g id="edge24_Node000007_Node000015" class="edge">
<title>Node7&#45;&gt;Node15</title>
<g id="a_edge24_Node000007_Node000015"><a xlink:title=" ">
<path fill="none" stroke="#63b8ff" d="M453.48,-400.88C595.79,-399.23 954.4,-386.41 1028.12,-300 1040.44,-285.56 1026.88,-265.9 1013.41,-251.99"/>
<polygon fill="#63b8ff" stroke="#63b8ff" points="1015.99,-249.62 1006.35,-245.22 1011.15,-254.67 1015.99,-249.62"/>
</a>
</g>
</g>
<!-- Node17 -->
<g id="Node000017" class="node">
<title>Node17</title>
<g id="a_Node000017"><a xlink:href="_v_r_e___game_object_8h.html" target="_top" xlink:title=" ">
<polygon fill="white" stroke="#666666" points="550.74,-356 445.49,-356 445.49,-336 550.74,-336 550.74,-356"/>
<text text-anchor="middle" x="498.12" y="-342.5" font-family="Helvetica,sans-Serif" font-size="10.00">VRE_GameObject.h</text>
</a>
</g>
</g>
<!-- Node7&#45;&gt;Node17 -->
<g id="edge29_Node000007_Node000017" class="edge">
<title>Node7&#45;&gt;Node17</title>
<g id="a_edge29_Node000007_Node000017"><a xlink:title=" ">
<path fill="none" stroke="#63b8ff" d="M413.06,-391.59C428.76,-383.36 451.85,-371.26 470.01,-361.74"/>
<polygon fill="#63b8ff" stroke="#63b8ff" points="471.46,-364.93 478.69,-357.18 468.21,-358.73 471.46,-364.93"/>
</a>
</g>
</g>
<!-- Node9&#45;&gt;Node2 -->
<g id="edge11_Node000009_Node000002" class="edge">
<title>Node9&#45;&gt;Node2</title>
<g id="a_edge11_Node000009_Node000002"><a xlink:title=" ">
<path fill="none" stroke="#63b8ff" d="M182.03,-223.53C268.31,-203.55 468.8,-157.12 564.06,-135.06"/>
<polygon fill="#63b8ff" stroke="#63b8ff" points="564.71,-138.5 573.66,-132.83 563.13,-131.68 564.71,-138.5"/>
</a>
</g>
</g>
<!-- Node9&#45;&gt;Node3 -->
<g id="edge10_Node000009_Node000003" class="edge">
<title>Node9&#45;&gt;Node3</title>
<g id="a_edge10_Node000009_Node000003"><a xlink:title=" ">
<path fill="none" stroke="#63b8ff" d="M95.66,-229.73C67.17,-225.06 32.47,-213.98 14.12,-188 -5.38,-160.41 -3.77,-140.66 14.12,-112 23.31,-97.28 38.86,-87.24 54.6,-80.45"/>
<polygon fill="#63b8ff" stroke="#63b8ff" points="55.44,-83.88 63.49,-77 52.9,-77.36 55.44,-83.88"/>
</a>
</g>
</g>
<!-- Node9&#45;&gt;Node6 -->
<g id="edge19_Node000009_Node000006" class="edge">
<title>Node9&#45;&gt;Node6</title>
<g id="a_edge19_Node000009_Node000006"><a xlink:title=" ">
<path fill="none" stroke="#63b8ff" d="M104.27,-223.57C70.61,-213.07 28.68,-194.09 47.12,-168 102.08,-90.21 415.36,-71.94 518.9,-68.01"/>
<polygon fill="#63b8ff" stroke="#63b8ff" points="518.81,-71.51 528.67,-67.66 518.56,-64.52 518.81,-71.51"/>
</a>
</g>
</g>
<!-- Node10 -->
<g id="Node000010" class="node">
<title>Node10</title>
<g id="a_Node000010"><a xlink:href="_v_r_e___swap_chain_8h.html" target="_top" xlink:title=" ">
<polygon fill="white" stroke="#666666" points="223.49,-188 122.74,-188 122.74,-168 223.49,-168 223.49,-188"/>
<text text-anchor="middle" x="173.12" y="-174.5" font-family="Helvetica,sans-Serif" font-size="10.00">VRE_SwapChain.h</text>
</a>
</g>
</g>
<!-- Node9&#45;&gt;Node10 -->
<g id="edge12_Node000009_Node000010" class="edge">
<title>Node9&#45;&gt;Node10</title>
<g id="a_edge12_Node000009_Node000010"><a xlink:title=" ">
<path fill="none" stroke="#63b8ff" d="M146.69,-223.59C150.87,-216.55 156.72,-206.67 161.86,-198"/>
<polygon fill="#63b8ff" stroke="#63b8ff" points="164.75,-199.99 166.83,-189.6 158.73,-196.42 164.75,-199.99"/>
</a>
</g>
</g>
<!-- Node11 -->
<g id="Node000011" class="node">
<title>Node11</title>
<g id="a_Node000011"><a xlink:title=" ">
<polygon fill="#e0e0e0" stroke="#999999" points="412.74,-132 361.49,-132 361.49,-112 412.74,-112 412.74,-132"/>
<text text-anchor="middle" x="387.12" y="-118.5" font-family="Helvetica,sans-Serif" font-size="10.00">memory</text>
</a>
</g>
</g>
<!-- Node9&#45;&gt;Node11 -->
<g id="edge18_Node000009_Node000011" class="edge">
<title>Node9&#45;&gt;Node11</title>
<g id="a_edge18_Node000009_Node000011"><a xlink:title=" ">
<path fill="none" stroke="#63b8ff" d="M162.09,-223.62C205.39,-204.26 304.87,-159.78 355.81,-137"/>
<polygon fill="#63b8ff" stroke="#63b8ff" points="357.11,-140.25 364.81,-132.97 354.26,-133.86 357.11,-140.25"/>
</a>
</g>
</g>
<!-- Node12 -->
<g id="Node000012" class="node">
<title>Node12</title>
<g id="a_Node000012"><a xlink:title=" ">
<polygon fill="#e0e0e0" stroke="#999999" points="104.24,-188 55.99,-188 55.99,-168 104.24,-168 104.24,-188"/>
<text text-anchor="middle" x="80.12" y="-174.5" font-family="Helvetica,sans-Serif" font-size="10.00">cassert</text>
</a>
</g>
</g>
<!-- Node9&#45;&gt;Node12 -->
<g id="edge20_Node000009_Node000012" class="edge">
<title>Node9&#45;&gt;Node12</title>
<g id="a_edge20_Node000009_Node000012"><a xlink:title=" ">
<path fill="none" stroke="#63b8ff" d="M130.49,-223.59C121.83,-215.93 109.39,-204.91 99.03,-195.75"/>
<polygon fill="#63b8ff" stroke="#63b8ff" points="101.56,-193.31 91.75,-189.3 96.92,-198.55 101.56,-193.31"/>
</a>
</g>
</g>
<!-- Node10&#45;&gt;Node2 -->
<g id="edge13_Node000010_Node000002" class="edge">
<title>Node10&#45;&gt;Node2</title>
<g id="a_edge13_Node000010_Node000002"><a xlink:title=" ">
<path fill="none" stroke="#63b8ff" d="M223.93,-170.81C308.67,-160.48 477.98,-139.84 563.74,-129.38"/>
<polygon fill="#63b8ff" stroke="#63b8ff" points="564.02,-132.88 573.52,-128.19 563.17,-125.93 564.02,-132.88"/>
</a>
</g>
</g>
<!-- Node10&#45;&gt;Node5 -->
<g id="edge15_Node000010_Node000005" class="edge">
<title>Node10&#45;&gt;Node5</title>
<g id="a_edge15_Node000010_Node000005"><a xlink:title=" ">
<path fill="none" stroke="#63b8ff" d="M175.74,-167.52C179.95,-153.8 189.38,-128.27 205.12,-112 250.41,-65.17 322.18,-35.15 363.01,-20.85"/>
<polygon fill="#63b8ff" stroke="#63b8ff" points="364.12,-24.17 372.46,-17.64 361.87,-17.54 364.12,-24.17"/>
</a>
</g>
</g>
<!-- Node10&#45;&gt;Node6 -->
<g id="edge16_Node000010_Node000006" class="edge">
<title>Node10&#45;&gt;Node6</title>
<g id="a_edge16_Node000010_Node000006"><a xlink:title=" ">
<path fill="none" stroke="#63b8ff" d="M178.88,-167.58C188.39,-152.96 208.84,-125.12 234.12,-112 283.35,-86.44 448.18,-73.43 519.15,-68.9"/>
<polygon fill="#63b8ff" stroke="#63b8ff" points="519.21,-72.4 528.98,-68.29 518.78,-65.41 519.21,-72.4"/>
</a>
</g>
</g>
<!-- Node10&#45;&gt;Node8 -->
<g id="edge14_Node000010_Node000008" class="edge">
<title>Node10&#45;&gt;Node8</title>
<g id="a_edge14_Node000010_Node000008"><a xlink:title=" ">
<path fill="none" stroke="#63b8ff" d="M192.63,-167.59C209.86,-159.28 235.28,-147.03 255.1,-137.47"/>
<polygon fill="#63b8ff" stroke="#63b8ff" points="256.6,-140.63 264.09,-133.14 253.56,-134.33 256.6,-140.63"/>
</a>
</g>
</g>
<!-- Node10&#45;&gt;Node11 -->
<g id="edge17_Node000010_Node000011" class="edge">
<title>Node10&#45;&gt;Node11</title>
<g id="a_edge17_Node000010_Node000011"><a xlink:title=" ">
<path fill="none" stroke="#63b8ff" d="M210.39,-167.59C249.55,-157.71 310.76,-142.27 349.89,-132.39"/>
<polygon fill="#63b8ff" stroke="#63b8ff" points="350.73,-135.79 359.57,-129.95 349.02,-129 350.73,-135.79"/>
</a>
</g>
</g>
<!-- Node13&#45;&gt;Node11 -->
<g id="edge23_Node000013_Node000011" class="edge">
<title>Node13&#45;&gt;Node11</title>
<g id="a_edge23_Node000013_Node000011"><a xlink:title=" ">
<path fill="none" stroke="#63b8ff" d="M333.15,-223.62C342.77,-205.68 363.96,-166.17 376.74,-142.35"/>
<polygon fill="#63b8ff" stroke="#63b8ff" points="379.74,-144.16 381.38,-133.69 373.57,-140.85 379.74,-144.16"/>
</a>
</g>
</g>
<!-- Node14 -->
<g id="Node000014" class="node">
<title>Node14</title>
<g id="a_Node000014"><a xlink:title=" ">
<polygon fill="#e0e0e0" stroke="#999999" points="519.37,-188 468.87,-188 468.87,-168 519.37,-168 519.37,-188"/>
<text text-anchor="middle" x="494.12" y="-174.5" font-family="Helvetica,sans-Serif" font-size="10.00">glm.hpp</text>
</a>
</g>
</g>
<!-- Node13&#45;&gt;Node14 -->
<g id="edge22_Node000013_Node000014" class="edge">
<title>Node13&#45;&gt;Node14</title>
<g id="a_edge22_Node000013_Node000014"><a xlink:title=" ">
<path fill="none" stroke="#63b8ff" d="M357.03,-223.59C384.95,-214.51 427.34,-200.72 457.58,-190.88"/>
<polygon fill="#63b8ff" stroke="#63b8ff" points="458.66,-194.21 467.09,-187.79 456.49,-187.56 458.66,-194.21"/>
</a>
</g>
</g>
<!-- Node15&#45;&gt;Node2 -->
<g id="edge25_Node000015_Node000002" class="edge">
<title>Node15&#45;&gt;Node2</title>
<g id="a_edge25_Node000015_Node000002"><a xlink:title=" ">
<path fill="none" stroke="#63b8ff" d="M990.13,-223.59C983.4,-208.98 968.32,-181.16 946.12,-168 900.31,-140.84 749.58,-129.47 668.63,-125.23"/>
<polygon fill="#63b8ff" stroke="#63b8ff" points="668.89,-121.73 658.73,-124.73 668.54,-128.73 668.89,-121.73"/>
</a>
</g>
</g>
<!-- Node15&#45;&gt;Node6 -->
<g id="edge28_Node000015_Node000006" class="edge">
<title>Node15&#45;&gt;Node6</title>
<g id="a_edge28_Node000015_Node000006"><a xlink:title=" ">
<path fill="none" stroke="#63b8ff" d="M993.52,-223.5C992.1,-209.29 987.3,-182.59 971.12,-168 913.4,-115.97 673.52,-81.88 585.07,-70.87"/>
<polygon fill="#63b8ff" stroke="#63b8ff" points="585.71,-67.43 575.36,-69.68 584.86,-74.37 585.71,-67.43"/>
</a>
</g>
</g>
<!-- Node15&#45;&gt;Node11 -->
<g id="edge26_Node000015_Node000011" class="edge">
<title>Node15&#45;&gt;Node11</title>
<g id="a_edge26_Node000015_Node000011"><a xlink:title=" ">
<path fill="none" stroke="#63b8ff" d="M981.35,-223.7C960.37,-208.99 916.77,-180.7 875.12,-168 832.36,-154.96 530.95,-133.01 424.35,-125.56"/>
<polygon fill="#63b8ff" stroke="#63b8ff" points="424.65,-122.07 414.43,-124.87 424.17,-129.05 424.65,-122.07"/>
</a>
</g>
</g>
<!-- Node16 -->
<g id="Node000016" class="node">
<title>Node16</title>
<g id="a_Node000016"><a xlink:title=" ">
<polygon fill="#e0e0e0" stroke="#999999" points="1118.49,-188 1035.74,-188 1035.74,-168 1118.49,-168 1118.49,-188"/>
<text text-anchor="middle" x="1077.12" y="-174.5" font-family="Helvetica,sans-Serif" font-size="10.00">unordered_map</text>
</a>
</g>
</g>
<!-- Node15&#45;&gt;Node16 -->
<g id="edge27_Node000015_Node000016" class="edge">
<title>Node15&#45;&gt;Node16</title>
<g id="a_edge27_Node000015_Node000016"><a xlink:title=" ">
<path fill="none" stroke="#63b8ff" d="M1008.57,-223.59C1020.88,-215.59 1038.79,-203.93 1053.22,-194.54"/>
<polygon fill="#63b8ff" stroke="#63b8ff" points="1054.8,-197.69 1061.28,-189.3 1050.99,-191.82 1054.8,-197.69"/>
</a>
</g>
</g>
<!-- Node17&#45;&gt;Node10 -->
<g id="edge54_Node000017_Node000010" class="edge">
<title>Node17&#45;&gt;Node10</title>
<g id="a_edge54_Node000017_Node000010"><a xlink:title=" ">
<path fill="none" stroke="#63b8ff" d="M472.97,-335.55C430.44,-319.18 342.11,-283.49 272.12,-244 244.97,-228.69 215.26,-208.72 195.55,-194.98"/>
<polygon fill="#63b8ff" stroke="#63b8ff" points="197.64,-192.17 187.45,-189.29 193.62,-197.9 197.64,-192.17"/>
</a>
</g>
</g>
<!-- Node17&#45;&gt;Node11 -->
<g id="edge30_Node000017_Node000011" class="edge">
<title>Node17&#45;&gt;Node11</title>
<g id="a_edge30_Node000017_Node000011"><a xlink:title=" ">
<path fill="none" stroke="#63b8ff" d="M470.87,-335.51C454.25,-328.32 433.98,-316.77 422.12,-300 388.12,-251.94 385.17,-179.06 386.01,-143.7"/>
<polygon fill="#63b8ff" stroke="#63b8ff" points="389.5,-144.12 386.38,-134 382.5,-143.85 389.5,-144.12"/>
</a>
</g>
</g>
<!-- Node17&#45;&gt;Node16 -->
<g id="edge31_Node000017_Node000016" class="edge">
<title>Node17&#45;&gt;Node16</title>
<g id="a_edge31_Node000017_Node000016"><a xlink:title=" ">
<path fill="none" stroke="#63b8ff" d="M551.07,-343.6C677.67,-339.83 990.24,-327.79 1028.12,-300 1060.6,-276.17 1071.6,-227.09 1075.29,-199.31"/>
<polygon fill="#63b8ff" stroke="#63b8ff" points="1078.73,-200.05 1076.35,-189.73 1071.77,-199.28 1078.73,-200.05"/>
</a>
</g>
</g>
<!-- Node18 -->
<g id="Node000018" class="node">
<title>Node18</title>
<g id="a_Node000018"><a xlink:title=" ">
<polygon fill="#e0e0e0" stroke="#999999" points="1019.49,-300 894.74,-300 894.74,-280 1019.49,-280 1019.49,-300"/>
<text text-anchor="middle" x="957.12" y="-286.5" font-family="Helvetica,sans-Serif" font-size="10.00">gtc/matrix_transform.hpp</text>
</a>
</g>
</g>
<!-- Node17&#45;&gt;Node18 -->
<g id="edge32_Node000017_Node000018" class="edge">
<title>Node17&#45;&gt;Node18</title>
<g id="a_edge32_Node000017_Node000018"><a xlink:title=" ">
<path fill="none" stroke="#63b8ff" d="M551.03,-338.99C623.39,-330.75 757.59,-315.34 882.97,-300.25"/>
<polygon fill="#63b8ff" stroke="#63b8ff" points="883.28,-303.74 892.79,-299.07 882.44,-296.79 883.28,-303.74"/>
</a>
</g>
</g>
<!-- Node19 -->
<g id="Node000019" class="node">
<title>Node19</title>
<g id="a_Node000019"><a xlink:href="_v_r_e__gl_t_f_model_8h.html" target="_top" xlink:title=" ">
<polygon fill="white" stroke="#666666" points="876.24,-300 779.99,-300 779.99,-280 876.24,-280 876.24,-300"/>
<text text-anchor="middle" x="828.12" y="-286.5" font-family="Helvetica,sans-Serif" font-size="10.00">VRE_glTFModel.h</text>
</a>
</g>
</g>
<!-- Node17&#45;&gt;Node19 -->
<g id="edge33_Node000017_Node000019" class="edge">
<title>Node17&#45;&gt;Node19</title>
<g id="a_edge33_Node000017_Node000019"><a xlink:title=" ">
<path fill="none" stroke="#63b8ff" d="M551.14,-336.32C610.48,-326.61 706.42,-310.91 768.37,-300.78"/>
<polygon fill="#63b8ff" stroke="#63b8ff" points="768.73,-304.26 778.04,-299.2 767.6,-297.36 768.73,-304.26"/>
</a>
</g>
</g>
<!-- Node26 -->
<g id="Node000026" class="node">
<title>Node26</title>
<g id="a_Node000026"><a xlink:href="_v_r_e___object_components_8h.html" target="_top" xlink:title=" ">
<polygon fill="white" stroke="#666666" points="565.37,-300 430.87,-300 430.87,-280 565.37,-280 565.37,-300"/>
<text text-anchor="middle" x="498.12" y="-286.5" font-family="Helvetica,sans-Serif" font-size="10.00">VRE_ObjectComponents.h</text>
</a>
</g>
</g>
<!-- Node17&#45;&gt;Node26 -->
<g id="edge52_Node000017_Node000026" class="edge">
<title>Node17&#45;&gt;Node26</title>
<g id="a_edge52_Node000017_Node000026"><a xlink:title=" ">
<path fill="none" stroke="#63b8ff" d="M498.12,-335.59C498.12,-329.01 498.12,-319.96 498.12,-311.73"/>
<polygon fill="#63b8ff" stroke="#63b8ff" points="501.62,-311.81 498.12,-301.81 494.62,-311.81 501.62,-311.81"/>
</a>
</g>
</g>
<!-- Node19&#45;&gt;Node2 -->
<g id="edge34_Node000019_Node000002" class="edge">
<title>Node19&#45;&gt;Node2</title>
<g id="a_edge34_Node000019_Node000002"><a xlink:title=" ">
<path fill="none" stroke="#63b8ff" d="M855.06,-279.6C870.96,-272.49 889.76,-261.01 899.12,-244 912.83,-219.07 881.39,-172.96 875.12,-168 843.88,-143.3 734.86,-131.36 668.63,-126.27"/>
<polygon fill="#63b8ff" stroke="#63b8ff" points="668.93,-122.78 658.7,-125.53 668.41,-129.76 668.93,-122.78"/>
</a>
</g>
</g>
<!-- Node19&#45;&gt;Node15 -->
<g id="edge50_Node000019_Node000015" class="edge">
<title>Node19&#45;&gt;Node15</title>
<g id="a_edge50_Node000019_Node000015"><a xlink:title=" ">
<path fill="none" stroke="#63b8ff" d="M857.03,-279.59C883.88,-270.86 924.11,-257.77 954.05,-248.03"/>
<polygon fill="#63b8ff" stroke="#63b8ff" points="955.11,-251.37 963.54,-244.95 952.94,-244.71 955.11,-251.37"/>
</a>
</g>
</g>
<!-- Node20 -->
<g id="Node000020" class="node">
<title>Node20</title>
<g id="a_Node000020"><a xlink:href="_v_r_e___buffer_8h.html" target="_top" xlink:title=" ">
<polygon fill="white" stroke="#666666" points="866.12,-188 790.12,-188 790.12,-168 866.12,-168 866.12,-188"/>
<text text-anchor="middle" x="828.12" y="-174.5" font-family="Helvetica,sans-Serif" font-size="10.00">VRE_Buffer.h</text>
</a>
</g>
</g>
<!-- Node19&#45;&gt;Node20 -->
<g id="edge35_Node000019_Node000020" class="edge">
<title>Node19&#45;&gt;Node20</title>
<g id="a_edge35_Node000019_Node000020"><a xlink:title=" ">
<path fill="none" stroke="#63b8ff" d="M826.63,-279.75C824.79,-267.15 822.01,-243.89 823.12,-224 823.56,-215.96 824.45,-207.15 825.36,-199.47"/>
<polygon fill="#63b8ff" stroke="#63b8ff" points="828.8,-200.15 826.59,-189.78 821.86,-199.26 828.8,-200.15"/>
</a>
</g>
</g>
<!-- Node21 -->
<g id="Node000021" class="node">
<title>Node21</title>
<g id="a_Node000021"><a xlink:href="_v_r_e___model_properties_8h.html" target="_top" xlink:title=" ">
<polygon fill="white" stroke="#666666" points="676.62,-244 555.62,-244 555.62,-224 676.62,-224 676.62,-244"/>
<text text-anchor="middle" x="616.12" y="-230.5" font-family="Helvetica,sans-Serif" font-size="10.00">VRE_ModelProperties.h</text>
</a>
</g>
</g>
<!-- Node19&#45;&gt;Node21 -->
<g id="edge37_Node000019_Node000021" class="edge">
<title>Node19&#45;&gt;Node21</title>
<g id="a_edge37_Node000019_Node000021"><a xlink:title=" ">
<path fill="none" stroke="#63b8ff" d="M791.19,-279.59C755.99,-270.63 702.79,-257.08 664.28,-247.27"/>
<polygon fill="#63b8ff" stroke="#63b8ff" points="665.35,-243.93 654.8,-244.85 663.63,-250.71 665.35,-243.93"/>
</a>
</g>
</g>
<!-- Node19&#45;&gt;Node24 -->
<g id="edge46_Node000019_Node000024" class="edge">
<title>Node19&#45;&gt;Node24</title>
<g id="a_edge46_Node000019_Node000024"><a xlink:title=" ">
<path fill="none" stroke="#63b8ff" d="M876.29,-280.3C931.66,-270.11 1019,-253.45 1051.12,-244 1099.4,-229.79 1153.32,-207.41 1186.24,-192.97"/>
<polygon fill="#63b8ff" stroke="#63b8ff" points="1187.45,-196.26 1195.18,-189.01 1184.61,-189.86 1187.45,-196.26"/>
</a>
</g>
</g>
<!-- Node25 -->
<g id="Node000025" class="node">
<title>Node25</title>
<g id="a_Node000025"><a xlink:title=" ">
<polygon fill="#e0e0e0" stroke="#999999" points="890.49,-244 831.74,-244 831.74,-224 890.49,-224 890.49,-244"/>
<text text-anchor="middle" x="861.12" y="-230.5" font-family="Helvetica,sans-Serif" font-size="10.00">tiny_gltf.h</text>
</a>
</g>
</g>
<!-- Node19&#45;&gt;Node25 -->
<g id="edge51_Node000019_Node000025" class="edge">
<title>Node19&#45;&gt;Node25</title>
<g id="a_edge51_Node000019_Node000025"><a xlink:title=" ">
<path fill="none" stroke="#63b8ff" d="M833.86,-279.59C838.17,-272.55 844.21,-262.67 849.5,-254"/>
<polygon fill="#63b8ff" stroke="#63b8ff" points="852.42,-255.95 854.64,-245.59 846.44,-252.3 852.42,-255.95"/>
</a>
</g>
</g>
<!-- Node20&#45;&gt;Node2 -->
<g id="edge36_Node000020_Node000002" class="edge">
<title>Node20&#45;&gt;Node2</title>
<g id="a_edge36_Node000020_Node000002"><a xlink:title=" ">
<path fill="none" stroke="#63b8ff" d="M791.19,-167.59C755.99,-158.63 702.79,-145.08 664.28,-135.27"/>
<polygon fill="#63b8ff" stroke="#63b8ff" points="665.35,-131.93 654.8,-132.85 663.63,-138.71 665.35,-131.93"/>
</a>
</g>
</g>
<!-- Node21&#45;&gt;Node6 -->
<g id="edge43_Node000021_Node000006" class="edge">
<title>Node21&#45;&gt;Node6</title>
<g id="a_edge43_Node000021_Node000006"><a xlink:title=" ">
<path fill="none" stroke="#63b8ff" d="M600.69,-223.61C589.1,-215.66 573.94,-203.15 566.12,-188 549.59,-156 548.86,-113.02 550.22,-87.84"/>
<polygon fill="#63b8ff" stroke="#63b8ff" points="553.7,-88.18 550.94,-77.95 546.72,-87.67 553.7,-88.18"/>
</a>
</g>
</g>
<!-- Node21&#45;&gt;Node8 -->
<g id="edge38_Node000021_Node000008" class="edge">
<title>Node21&#45;&gt;Node8</title>
<g id="a_edge38_Node000021_Node000008"><a xlink:title=" ">
<path fill="none" stroke="#63b8ff" d="M580.57,-223.56C548.8,-214.93 501.08,-201.49 460.12,-188 410.67,-171.71 354.39,-150.28 319.3,-136.56"/>
<polygon fill="#63b8ff" stroke="#63b8ff" points="320.69,-133.35 310.1,-132.95 318.13,-139.86 320.69,-133.35"/>
</a>
</g>
</g>
<!-- Node21&#45;&gt;Node14 -->
<g id="edge44_Node000021_Node000014" class="edge">
<title>Node21&#45;&gt;Node14</title>
<g id="a_edge44_Node000021_Node000014"><a xlink:title=" ">
<path fill="none" stroke="#63b8ff" d="M594.87,-223.59C575.83,-215.17 547.64,-202.69 525.91,-193.07"/>
<polygon fill="#63b8ff" stroke="#63b8ff" points="527.48,-189.94 516.92,-189.09 524.64,-196.34 527.48,-189.94"/>
</a>
</g>
</g>
<!-- Node21&#45;&gt;Node20 -->
<g id="edge42_Node000021_Node000020" class="edge">
<title>Node21&#45;&gt;Node20</title>
<g id="a_edge42_Node000021_Node000020"><a xlink:title=" ">
<path fill="none" stroke="#63b8ff" d="M653.04,-223.59C688.24,-214.63 741.44,-201.08 779.96,-191.27"/>
<polygon fill="#63b8ff" stroke="#63b8ff" points="780.61,-194.71 789.43,-188.85 778.88,-187.93 780.61,-194.71"/>
</a>
</g>
</g>
<!-- Node22 -->
<g id="Node000022" class="node">
<title>Node22</title>
<g id="a_Node000022"><a xlink:href="_v_r_e___texture_8h.html" target="_top" xlink:title=" ">
<polygon fill="white" stroke="#666666" points="657.49,-188 574.74,-188 574.74,-168 657.49,-168 657.49,-188"/>
<text text-anchor="middle" x="616.12" y="-174.5" font-family="Helvetica,sans-Serif" font-size="10.00">VRE_Texture.h</text>
</a>
</g>
</g>
<!-- Node21&#45;&gt;Node22 -->
<g id="edge39_Node000021_Node000022" class="edge">
<title>Node21&#45;&gt;Node22</title>
<g id="a_edge39_Node000021_Node000022"><a xlink:title=" ">
<path fill="none" stroke="#63b8ff" d="M616.12,-223.59C616.12,-217.01 616.12,-207.96 616.12,-199.73"/>
<polygon fill="#63b8ff" stroke="#63b8ff" points="619.62,-199.81 616.12,-189.81 612.62,-199.81 619.62,-199.81"/>
</a>
</g>
</g>
<!-- Node23 -->
<g id="Node000023" class="node">
<title>Node23</title>
<g id="a_Node000023"><a xlink:title=" ">
<polygon fill="#e0e0e0" stroke="#999999" points="772.24,-188 675.99,-188 675.99,-168 772.24,-168 772.24,-188"/>
<text text-anchor="middle" x="724.12" y="-174.5" font-family="Helvetica,sans-Serif" font-size="10.00">gtc/quaternion.hpp</text>
</a>
</g>
</g>
<!-- Node21&#45;&gt;Node23 -->
<g id="edge45_Node000021_Node000023" class="edge">
<title>Node21&#45;&gt;Node23</title>
<g id="a_edge45_Node000021_Node000023"><a xlink:title=" ">
<path fill="none" stroke="#63b8ff" d="M634.93,-223.59C651.47,-215.32 675.83,-203.14 694.91,-193.6"/>
<polygon fill="#63b8ff" stroke="#63b8ff" points="696.42,-196.76 703.8,-189.16 693.29,-190.5 696.42,-196.76"/>
</a>
</g>
</g>
<!-- Node22&#45;&gt;Node2 -->
<g id="edge41_Node000022_Node000002" class="edge">
<title>Node22&#45;&gt;Node2</title>
<g id="a_edge41_Node000022_Node000002"><a xlink:title=" ">
<path fill="none" stroke="#63b8ff" d="M616.12,-167.59C616.12,-161.01 616.12,-151.96 616.12,-143.73"/>
<polygon fill="#63b8ff" stroke="#63b8ff" points="619.62,-143.81 616.12,-133.81 612.62,-143.81 619.62,-143.81"/>
</a>
</g>
</g>
<!-- Node22&#45;&gt;Node11 -->
<g id="edge40_Node000022_Node000011" class="edge">
<title>Node22&#45;&gt;Node11</title>
<g id="a_edge40_Node000022_Node000011"><a xlink:title=" ">
<path fill="none" stroke="#63b8ff" d="M575.97,-167.53C533.05,-157.41 465.59,-141.5 423.98,-131.69"/>
<polygon fill="#63b8ff" stroke="#63b8ff" points="424.98,-128.33 414.45,-129.44 423.38,-135.15 424.98,-128.33"/>
</a>
</g>
</g>
<!-- Node24&#45;&gt;Node2 -->
<g id="edge49_Node000024_Node000002" class="edge">
<title>Node24&#45;&gt;Node2</title>
<g id="a_edge49_Node000024_Node000002"><a xlink:title=" ">
<path fill="none" stroke="#63b8ff" d="M1174.21,-169.88C1169.46,-169.19 1164.69,-168.55 1160.12,-168 980.19,-146.38 765.53,-131.95 668.42,-126.03"/>
<polygon fill="#63b8ff" stroke="#63b8ff" points="668.87,-122.55 658.68,-125.44 668.45,-129.54 668.87,-122.55"/>
</a>
</g>
</g>
<!-- Node24&#45;&gt;Node5 -->
<g id="edge47_Node000024_Node000005" class="edge">
<title>Node24&#45;&gt;Node5</title>
<g id="a_edge47_Node000024_Node000005"><a xlink:title=" ">
<path fill="none" stroke="#63b8ff" d="M1200.16,-167.62C1173.52,-153.31 1119.86,-126.2 1071.12,-112 829.31,-41.56 523.88,-18.53 425.89,-12.69"/>
<polygon fill="#63b8ff" stroke="#63b8ff" points="426.18,-9.2 415.99,-12.12 425.77,-16.18 426.18,-9.2"/>
</a>
</g>
</g>
<!-- Node24&#45;&gt;Node6 -->
<g id="edge48_Node000024_Node000006" class="edge">
<title>Node24&#45;&gt;Node6</title>
<g id="a_edge48_Node000024_Node000006"><a xlink:title=" ">
<path fill="none" stroke="#63b8ff" d="M1194.47,-167.58C1158.59,-153.08 1086.18,-125.56 1022.12,-112 860.74,-77.84 662.65,-69.58 585.29,-67.61"/>
<polygon fill="#63b8ff" stroke="#63b8ff" points="585.52,-64.11 575.44,-67.38 585.36,-71.11 585.52,-64.11"/>
</a>
</g>
</g>
<!-- Node26&#45;&gt;Node14 -->
<g id="edge53_Node000026_Node000014" class="edge">
<title>Node26&#45;&gt;Node14</title>
<g id="a_edge53_Node000026_Node000014"><a xlink:title=" ">
<path fill="none" stroke="#63b8ff" d="M497.78,-279.62C497.13,-262.01 495.74,-223.59 494.87,-199.65"/>
<polygon fill="#63b8ff" stroke="#63b8ff" points="498.37,-199.73 494.51,-189.87 491.38,-199.99 498.37,-199.73"/>
</a>
</g>
</g>
</g>
</svg>

<g id="navigator" transform="translate(0 0)" fill="#404254">
  <rect fill="#f2f5e9" fill-opacity="0.5" stroke="#606060" stroke-width=".5" x="0" y="0" width="60" height="60"/>
  <use id="zoomplus" xlink:href="#zoomPlus" x="17" y="9" onmousedown="handleZoom(evt,'in')"/>
  <use id="zoomminus" xlink:href="#zoomMin" x="42" y="9" onmousedown="handleZoom(evt,'out')"/>
  <use id="reset" xlink:href="#resetDef" x="30" y="36" onmousedown="handleReset()"/>
   <use id="arrowup" xlink:href="#arrowUp" x="0" y="0" onmousedown="handlePan(0,-1)"/>
  <use id="arrowright" xlink:href="#arrowRight" x="0" y="0" onmousedown="handlePan(1,0)"/>
  <use id="arrowdown" xlink:href="#arrowDown" x="0" y="0" onmousedown="handlePan(0,1)"/>
  <use id="arrowleft" xlink:href="#arrowLeft" x="0" y="0" onmousedown="handlePan(-1,0)"/>
</g>
<svg viewBox="0 0 15 15" width="100%" height="30px" preserveAspectRatio="xMaxYMin meet">
 <g id="arrow_out" transform="scale(0.3 0.3)">
  <a xlink:href="_v_r_e___light_render_system_8h__incl_org.svg" target="_base">
   <rect id="button" ry="5" rx="5" y="6" x="6" height="38" width="38"
        fill="#f2f5e9" fill-opacity="0.5" stroke="#606060" stroke-width="1.0"/>
   <path id="arrow"
     d="M 11.500037,31.436501 C 11.940474,20.09759 22.043105,11.32322 32.158766,21.979434 L 37.068811,17.246167 C 37.068811,17.246167 37.088388,32 37.088388,32 L 22.160133,31.978069 C 22.160133,31.978069 26.997745,27.140456 26.997745,27.140456 C 18.528582,18.264221 13.291696,25.230495 11.500037,31.436501 z"
     style="fill:#404040;"/>
  </a>
 </g>
</svg>

<style type='text/css'>
<![CDATA[
[data-mouse-over-selected='false'] { opacity: 0.7; }
[data-mouse-over-selected='true']  { opacity: 1.0; }
]]>
</style>
<script type="application/ecmascript"><![CDATA[
document.addEventListener('DOMContentLoaded', (event) => {
  highlightEdges();
  highlightAdjacentNodes();
});
]]></script>
</svg>
