<?xml version="1.0" encoding="UTF-8" standalone="no"?>
<!DOCTYPE svg PUBLIC "-//W3C//DTD SVG 1.1//EN"
 "http://www.w3.org/Graphics/SVG/1.1/DTD/svg11.dtd">
<!-- Generated by graphviz version 12.1.2 (20240928.0832)
 -->
<!-- Title: ReSTIRVulkan/VRE_SharedContext.h Pages: 1 -->
<svg width="877pt" height="220pt"
 viewBox="0.00 0.00 876.75 220.00" xmlns="http://www.w3.org/2000/svg" xmlns:xlink="http://www.w3.org/1999/xlink">
<g id="graph0" class="graph" transform="scale(1 1) rotate(0) translate(4 216)">
<title>ReSTIRVulkan/VRE_SharedContext.h</title>
<!-- Node1 -->
<g id="Node000001" class="node">
<title>Node1</title>
<g id="a_Node000001"><a xlink:title=" ">
<polygon fill="#999999" stroke="#666666" points="556.88,-212 373.62,-212 373.62,-192 556.88,-192 556.88,-212"/>
<text text-anchor="middle" x="465.25" y="-198.5" font-family="Helvetica,sans-Serif" font-size="10.00">ReSTIRVulkan/VRE_SharedContext.h</text>
</a>
</g>
</g>
<!-- Node2 -->
<g id="Node000002" class="node">
<title>Node2</title>
<g id="a_Node000002"><a xlink:href="_v_r_e___game_obj_render_system_8h.html" target="_top" xlink:title=" ">
<polygon fill="white" stroke="#666666" points="715.75,-156 564.75,-156 564.75,-124 715.75,-124 715.75,-156"/>
<text text-anchor="start" x="572.75" y="-142.5" font-family="Helvetica,sans-Serif" font-size="10.00">ReSTIRVulkan/VRE_GameObj</text>
<text text-anchor="middle" x="640.25" y="-130.5" font-family="Helvetica,sans-Serif" font-size="10.00">RenderSystem.h</text>
</a>
</g>
</g>
<!-- Node1&#45;&gt;Node2 -->
<g id="edge1_Node000001_Node000002" class="edge">
<title>Node1&#45;&gt;Node2</title>
<g id="a_edge1_Node000001_Node000002"><a xlink:title=" ">
<path fill="none" stroke="#63b8ff" d="M503.17,-188C530.17,-178.74 566.57,-166.26 595.07,-156.49"/>
<polygon fill="#63b8ff" stroke="#63b8ff" points="502.35,-184.58 494.03,-191.13 504.62,-191.2 502.35,-184.58"/>
</a>
</g>
</g>
<!-- Node7 -->
<g id="Node000007" class="node">
<title>Node7</title>
<g id="a_Node000007"><a xlink:href="_v_r_e___game_object_manager_8h.html" target="_top" xlink:title=" ">
<polygon fill="white" stroke="#666666" points="361.5,-156 197,-156 197,-124 361.5,-124 361.5,-156"/>
<text text-anchor="start" x="205" y="-142.5" font-family="Helvetica,sans-Serif" font-size="10.00">ReSTIRVulkan/VRE_GameObject</text>
<text text-anchor="middle" x="279.25" y="-130.5" font-family="Helvetica,sans-Serif" font-size="10.00">Manager.h</text>
</a>
</g>
</g>
<!-- Node1&#45;&gt;Node7 -->
<g id="edge6_Node000001_Node000007" class="edge">
<title>Node1&#45;&gt;Node7</title>
<g id="a_edge6_Node000001_Node000007"><a xlink:title=" ">
<path fill="none" stroke="#63b8ff" d="M425.33,-188.12C396.59,-178.85 357.7,-166.31 327.27,-156.49"/>
<polygon fill="#63b8ff" stroke="#63b8ff" points="424.16,-191.42 434.75,-191.16 426.3,-184.76 424.16,-191.42"/>
</a>
</g>
</g>
<!-- Node10 -->
<g id="Node000010" class="node">
<title>Node10</title>
<g id="a_Node000010"><a xlink:href="_v_r_e___light_render_system_8h.html" target="_top" xlink:title=" ">
<polygon fill="white" stroke="#666666" points="546.38,-156 384.12,-156 384.12,-124 546.38,-124 546.38,-156"/>
<text text-anchor="start" x="392.12" y="-142.5" font-family="Helvetica,sans-Serif" font-size="10.00">ReSTIRVulkan/VRE_LightRender</text>
<text text-anchor="middle" x="465.25" y="-130.5" font-family="Helvetica,sans-Serif" font-size="10.00">System.h</text>
</a>
</g>
</g>
<!-- Node1&#45;&gt;Node10 -->
<g id="edge10_Node000001_Node000010" class="edge">
<title>Node1&#45;&gt;Node10</title>
<g id="a_edge10_Node000001_Node000010"><a xlink:title=" ">
<path fill="none" stroke="#63b8ff" d="M465.25,-180.31C465.25,-172.37 465.25,-163.46 465.25,-156.14"/>
<polygon fill="#63b8ff" stroke="#63b8ff" points="461.75,-180.11 465.25,-190.11 468.75,-180.11 461.75,-180.11"/>
</a>
</g>
</g>
<!-- Node3 -->
<g id="Node000003" class="node">
<title>Node3</title>
<g id="a_Node000003"><a xlink:href="_v_r_e___app_8h.html" target="_top" xlink:title=" ">
<polygon fill="white" stroke="#666666" points="699.88,-82 564.62,-82 564.62,-62 699.88,-62 699.88,-82"/>
<text text-anchor="middle" x="632.25" y="-68.5" font-family="Helvetica,sans-Serif" font-size="10.00">ReSTIRVulkan/VRE_App.h</text>
</a>
</g>
</g>
<!-- Node2&#45;&gt;Node3 -->
<g id="edge2_Node000002_Node000003" class="edge">
<title>Node2&#45;&gt;Node3</title>
<g id="a_edge2_Node000002_Node000003"><a xlink:title=" ">
<path fill="none" stroke="#63b8ff" d="M637.02,-112.31C635.73,-101.67 634.33,-90.13 633.38,-82.32"/>
<polygon fill="#63b8ff" stroke="#63b8ff" points="633.53,-112.68 638.21,-122.19 640.48,-111.84 633.53,-112.68"/>
</a>
</g>
</g>
<!-- Node6 -->
<g id="Node000006" class="node">
<title>Node6</title>
<g id="a_Node000006"><a xlink:href="_v_r_e___game_obj_render_system_8cpp.html" target="_top" xlink:title=" ">
<polygon fill="white" stroke="#666666" points="868.75,-88 717.75,-88 717.75,-56 868.75,-56 868.75,-88"/>
<text text-anchor="start" x="725.75" y="-74.5" font-family="Helvetica,sans-Serif" font-size="10.00">ReSTIRVulkan/VRE_GameObj</text>
<text text-anchor="middle" x="793.25" y="-62.5" font-family="Helvetica,sans-Serif" font-size="10.00">RenderSystem.cpp</text>
</a>
</g>
</g>
<!-- Node2&#45;&gt;Node6 -->
<g id="edge5_Node000002_Node000006" class="edge">
<title>Node2&#45;&gt;Node6</title>
<g id="a_edge5_Node000002_Node000006"><a xlink:title=" ">
<path fill="none" stroke="#63b8ff" d="M686.55,-119.03C709.27,-109.23 736.21,-97.61 757.34,-88.49"/>
<polygon fill="#63b8ff" stroke="#63b8ff" points="685.31,-115.75 677.51,-122.93 688.08,-122.18 685.31,-115.75"/>
</a>
</g>
</g>
<!-- Node4 -->
<g id="Node000004" class="node">
<title>Node4</title>
<g id="a_Node000004"><a xlink:href="_v_r_e___app_8cpp.html" target="_top" xlink:title=" ">
<polygon fill="white" stroke="#666666" points="628.12,-20 482.38,-20 482.38,0 628.12,0 628.12,-20"/>
<text text-anchor="middle" x="555.25" y="-6.5" font-family="Helvetica,sans-Serif" font-size="10.00">ReSTIRVulkan/VRE_App.cpp</text>
</a>
</g>
</g>
<!-- Node3&#45;&gt;Node4 -->
<g id="edge3_Node000003_Node000004" class="edge">
<title>Node3&#45;&gt;Node4</title>
<g id="a_edge3_Node000003_Node000004"><a xlink:title=" ">
<path fill="none" stroke="#63b8ff" d="M611.19,-54.59C597.05,-43.57 578.92,-29.44 567.2,-20.31"/>
<polygon fill="#63b8ff" stroke="#63b8ff" points="608.99,-57.31 619.02,-60.69 613.29,-51.79 608.99,-57.31"/>
</a>
</g>
</g>
<!-- Node5 -->
<g id="Node000005" class="node">
<title>Node5</title>
<g id="a_Node000005"><a xlink:href="main_8cpp.html" target="_top" xlink:title=" ">
<polygon fill="white" stroke="#666666" points="769.88,-20 646.62,-20 646.62,0 769.88,0 769.88,-20"/>
<text text-anchor="middle" x="708.25" y="-6.5" font-family="Helvetica,sans-Serif" font-size="10.00">ReSTIRVulkan/main.cpp</text>
</a>
</g>
</g>
<!-- Node3&#45;&gt;Node5 -->
<g id="edge4_Node000003_Node000005" class="edge">
<title>Node3&#45;&gt;Node5</title>
<g id="a_edge4_Node000003_Node000005"><a xlink:title=" ">
<path fill="none" stroke="#63b8ff" d="M653.09,-54.55C667.15,-43.45 685.16,-29.23 696.71,-20.11"/>
<polygon fill="#63b8ff" stroke="#63b8ff" points="650.99,-51.74 645.31,-60.69 655.33,-57.24 650.99,-51.74"/>
</a>
</g>
</g>
<!-- Node7&#45;&gt;Node3 -->
<g id="edge7_Node000007_Node000003" class="edge">
<title>Node7&#45;&gt;Node3</title>
<g id="a_edge7_Node000007_Node000003"><a xlink:title=" ">
<path fill="none" stroke="#63b8ff" d="M372.89,-121.93C426.33,-112.13 494.58,-99.51 555.25,-88 564.62,-86.22 574.62,-84.3 584.21,-82.43"/>
<polygon fill="#63b8ff" stroke="#63b8ff" points="372.41,-118.46 363.2,-123.7 373.67,-125.34 372.41,-118.46"/>
</a>
</g>
</g>
<!-- Node8 -->
<g id="Node000008" class="node">
<title>Node8</title>
<g id="a_Node000008"><a xlink:href="_v_r_e___game_object_8cpp.html" target="_top" xlink:title=" ">
<polygon fill="white" stroke="#666666" points="365.88,-82 182.62,-82 182.62,-62 365.88,-62 365.88,-82"/>
<text text-anchor="middle" x="274.25" y="-68.5" font-family="Helvetica,sans-Serif" font-size="10.00">ReSTIRVulkan/VRE_GameObject.cpp</text>
</a>
</g>
</g>
<!-- Node7&#45;&gt;Node8 -->
<g id="edge8_Node000007_Node000008" class="edge">
<title>Node7&#45;&gt;Node8</title>
<g id="a_edge8_Node000007_Node000008"><a xlink:title=" ">
<path fill="none" stroke="#63b8ff" d="M277.23,-112.31C276.42,-101.67 275.55,-90.13 274.96,-82.32"/>
<polygon fill="#63b8ff" stroke="#63b8ff" points="273.73,-112.48 277.98,-122.18 280.71,-111.95 273.73,-112.48"/>
</a>
</g>
</g>
<!-- Node9 -->
<g id="Node000009" class="node">
<title>Node9</title>
<g id="a_Node000009"><a xlink:href="_v_r_e___game_object_manager_8cpp.html" target="_top" xlink:title=" ">
<polygon fill="white" stroke="#666666" points="164.5,-88 0,-88 0,-56 164.5,-56 164.5,-88"/>
<text text-anchor="start" x="8" y="-74.5" font-family="Helvetica,sans-Serif" font-size="10.00">ReSTIRVulkan/VRE_GameObject</text>
<text text-anchor="middle" x="82.25" y="-62.5" font-family="Helvetica,sans-Serif" font-size="10.00">Manager.cpp</text>
</a>
</g>
</g>
<!-- Node7&#45;&gt;Node9 -->
<g id="edge9_Node000007_Node000009" class="edge">
<title>Node7&#45;&gt;Node9</title>
<g id="a_edge9_Node000007_Node000009"><a xlink:title=" ">
<path fill="none" stroke="#63b8ff" d="M222.39,-119.95C192.59,-109.97 156.56,-97.89 128.49,-88.49"/>
<polygon fill="#63b8ff" stroke="#63b8ff" points="221.03,-123.19 231.63,-123.05 223.26,-116.55 221.03,-123.19"/>
</a>
</g>
</g>
<!-- Node10&#45;&gt;Node3 -->
<g id="edge11_Node000010_Node000003" class="edge">
<title>Node10&#45;&gt;Node3</title>
<g id="a_edge11_Node000010_Node000003"><a xlink:title=" ">
<path fill="none" stroke="#63b8ff" d="M514.97,-119.35C545.82,-107.16 584.06,-92.05 608.31,-82.46"/>
<polygon fill="#63b8ff" stroke="#63b8ff" points="513.83,-116.04 505.81,-122.97 516.4,-122.55 513.83,-116.04"/>
</a>
</g>
</g>
<!-- Node11 -->
<g id="Node000011" class="node">
<title>Node11</title>
<g id="a_Node000011"><a xlink:href="_v_r_e___light_render_system_8cpp.html" target="_top" xlink:title=" ">
<polygon fill="white" stroke="#666666" points="546.38,-88 384.12,-88 384.12,-56 546.38,-56 546.38,-88"/>
<text text-anchor="start" x="392.12" y="-74.5" font-family="Helvetica,sans-Serif" font-size="10.00">ReSTIRVulkan/VRE_LightRender</text>
<text text-anchor="middle" x="465.25" y="-62.5" font-family="Helvetica,sans-Serif" font-size="10.00">System.cpp</text>
</a>
</g>
</g>
<!-- Node10&#45;&gt;Node11 -->
<g id="edge12_Node000010_Node000011" class="edge">
<title>Node10&#45;&gt;Node11</title>
<g id="a_edge12_Node000010_Node000011"><a xlink:title=" ">
<path fill="none" stroke="#63b8ff" d="M465.25,-112.31C465.25,-104.12 465.25,-95.38 465.25,-88.22"/>
<polygon fill="#63b8ff" stroke="#63b8ff" points="461.75,-112.18 465.25,-122.18 468.75,-112.18 461.75,-112.18"/>
</a>
</g>
</g>
</g>
</svg>
