<?xml version="1.0" encoding="UTF-8" standalone="no"?>
<!DOCTYPE svg PUBLIC "-//W3C//DTD SVG 1.1//EN"
 "http://www.w3.org/Graphics/SVG/1.1/DTD/svg11.dtd">
<!-- Generated by graphviz version 12.1.2 (20240928.0832)
 -->
<!-- Title: ReSTIRVulkan/VRE_GameObjectManager.h Pages: 1 -->
<!--zoomable 164 -->

<svg id="main" version="1.1" xmlns="http://www.w3.org/2000/svg" xmlns:xlink="http://www.w3.org/1999/xlink" xml:space="preserve" onload="init(evt)">

<style type="text/css"><![CDATA[
.node, .edge {opacity: 0.7;}
.node.selected, .edge.selected {opacity: 1;}
.edge:hover path { stroke: red; }
.edge:hover polygon { stroke: red; fill: red; }
]]></style>

<defs>
  <circle id="rim" cx="0" cy="0" r="7"/>
  <circle id="rim2" cx="0" cy="0" r="3.5"/>
  <g id="zoomPlus">
    <use xlink:href="#rim" fill="#404040"><set attributeName="fill" to="#808080" begin="zoomplus.mouseover" end="zoomplus.mouseout"/></use>
    <path d="M-4,0h8M0,-4v8" fill="none" stroke="white" stroke-width="1.5" pointer-events="none"/>
  </g>
  <g id="zoomMin">
    <use xlink:href="#rim" fill="#404040"><set attributeName="fill" to="#808080" begin="zoomminus.mouseover" end="zoomminus.mouseout"/></use>
    <path d="M-4,0h8" fill="none" stroke="white" stroke-width="1.5" pointer-events="none"/>
  </g>
  <g id="arrowUp" transform="translate(30 24)">
    <use xlink:href="#rim"/>
    <path pointer-events="none" fill="none" stroke="white" stroke-width="1.5" d="M0,-3.0v7 M-2.5,-0.5L0,-3.0L2.5,-0.5"/>
  </g>
  <g id="arrowRight" transform="rotate(90) translate(36 -43)">
    <use xlink:href="#rim"/>
    <path pointer-events="none" fill="none" stroke="white" stroke-width="1.5" d="M0,-3.0v7 M-2.5,-0.5L0,-3.0L2.5,-0.5"/>
  </g>
  <g id="arrowDown" transform="rotate(180) translate(-30 -48)">
    <use xlink:href="#rim"/>
    <path pointer-events="none" fill="none" stroke="white" stroke-width="1.5" d="M0,-3.0v7 M-2.5,-0.5L0,-3.0L2.5,-0.5"/>
  </g>
  <g id="arrowLeft" transform="rotate(270) translate(-36 17)">
    <use xlink:href="#rim"/>
    <path pointer-events="none" fill="none" stroke="white" stroke-width="1.5" d="M0,-3.0v7 M-2.5,-0.5L0,-3.0L2.5,-0.5"/>
  </g>
  <g id="resetDef">
    <use xlink:href="#rim2" fill="#404040"><set attributeName="fill" to="#808080" begin="reset.mouseover" end="reset.mouseout"/></use>
  </g>
</defs>
<script type="application/ecmascript">
var viewWidth = 608;
var viewHeight = 164;
var sectionId = 'dynsection-1';
</script>
<script type="application/ecmascript" xlink:href="svg.min.js"/>
<svg id="graph" class="graph">
<g id="viewport">
<title>ReSTIRVulkan/VRE_GameObjectManager.h</title>
<!-- Node1 -->
<g id="Node000001" class="node">
<title>Node1</title>
<g id="a_Node000001"><a xlink:title=" ">
<polygon fill="#999999" stroke="#666666" points="408.12,-156 243.62,-156 243.62,-124 408.12,-124 408.12,-156"/>
<text text-anchor="start" x="251.62" y="-142.5" font-family="Helvetica,sans-Serif" font-size="10.00">ReSTIRVulkan/VRE_GameObject</text>
<text text-anchor="middle" x="325.88" y="-130.5" font-family="Helvetica,sans-Serif" font-size="10.00">Manager.h</text>
</a>
</g>
</g>
<!-- Node2 -->
<g id="Node000002" class="node">
<title>Node2</title>
<g id="a_Node000002"><a xlink:href="_v_r_e___app_8h.html" target="_top" xlink:title=" ">
<polygon fill="white" stroke="#666666" points="216.5,-82 81.25,-82 81.25,-62 216.5,-62 216.5,-82"/>
<text text-anchor="middle" x="148.88" y="-68.5" font-family="Helvetica,sans-Serif" font-size="10.00">ReSTIRVulkan/VRE_App.h</text>
</a>
</g>
</g>
<!-- Node1&#45;&gt;Node2 -->
<g id="edge1_Node000001_Node000002" class="edge">
<title>Node1&#45;&gt;Node2</title>
<g id="a_edge1_Node000001_Node000002"><a xlink:title=" ">
<path fill="none" stroke="#63b8ff" d="M273.6,-119.51C240.84,-107.29 200.07,-92.09 174.25,-82.46"/>
<polygon fill="#63b8ff" stroke="#63b8ff" points="272.37,-122.78 282.96,-123 274.81,-116.22 272.37,-122.78"/>
</a>
</g>
</g>
<!-- Node5 -->
<g id="Node000005" class="node">
<title>Node5</title>
<g id="a_Node000005"><a xlink:href="_v_r_e___game_object_8cpp.html" target="_top" xlink:title=" ">
<polygon fill="white" stroke="#666666" points="417.5,-82 234.25,-82 234.25,-62 417.5,-62 417.5,-82"/>
<text text-anchor="middle" x="325.88" y="-68.5" font-family="Helvetica,sans-Serif" font-size="10.00">ReSTIRVulkan/VRE_GameObject.cpp</text>
</a>
</g>
</g>
<!-- Node1&#45;&gt;Node5 -->
<g id="edge4_Node000001_Node000005" class="edge">
<title>Node1&#45;&gt;Node5</title>
<g id="a_edge4_Node000001_Node000005"><a xlink:title=" ">
<path fill="none" stroke="#63b8ff" d="M325.88,-112.31C325.88,-101.67 325.88,-90.13 325.88,-82.32"/>
<polygon fill="#63b8ff" stroke="#63b8ff" points="322.38,-112.18 325.88,-122.18 329.38,-112.18 322.38,-112.18"/>
</a>
</g>
</g>
<!-- Node6 -->
<g id="Node000006" class="node">
<title>Node6</title>
<g id="a_Node000006"><a xlink:href="_v_r_e___game_object_manager_8cpp.html" target="_top" xlink:title=" ">
<polygon fill="white" stroke="#666666" points="600.12,-88 435.62,-88 435.62,-56 600.12,-56 600.12,-88"/>
<text text-anchor="start" x="443.62" y="-74.5" font-family="Helvetica,sans-Serif" font-size="10.00">ReSTIRVulkan/VRE_GameObject</text>
<text text-anchor="middle" x="517.88" y="-62.5" font-family="Helvetica,sans-Serif" font-size="10.00">Manager.cpp</text>
</a>
</g>
</g>
<!-- Node1&#45;&gt;Node6 -->
<g id="edge5_Node000001_Node000006" class="edge">
<title>Node1&#45;&gt;Node6</title>
<g id="a_edge5_Node000001_Node000006"><a xlink:title=" ">
<path fill="none" stroke="#63b8ff" d="M381.67,-119.82C410.64,-109.86 445.58,-97.85 472.81,-88.49"/>
<polygon fill="#63b8ff" stroke="#63b8ff" points="380.64,-116.47 372.32,-123.03 382.92,-123.09 380.64,-116.47"/>
</a>
</g>
</g>
<!-- Node3 -->
<g id="Node000003" class="node">
<title>Node3</title>
<g id="a_Node000003"><a xlink:href="_v_r_e___app_8cpp.html" target="_top" xlink:title=" ">
<polygon fill="white" stroke="#666666" points="145.75,-20 0,-20 0,0 145.75,0 145.75,-20"/>
<text text-anchor="middle" x="72.88" y="-6.5" font-family="Helvetica,sans-Serif" font-size="10.00">ReSTIRVulkan/VRE_App.cpp</text>
</a>
</g>
</g>
<!-- Node2&#45;&gt;Node3 -->
<g id="edge2_Node000002_Node000003" class="edge">
<title>Node2&#45;&gt;Node3</title>
<g id="a_edge2_Node000002_Node000003"><a xlink:title=" ">
<path fill="none" stroke="#63b8ff" d="M128.03,-54.55C113.98,-43.45 95.96,-29.23 84.42,-20.11"/>
<polygon fill="#63b8ff" stroke="#63b8ff" points="125.79,-57.24 135.81,-60.69 130.13,-51.74 125.79,-57.24"/>
</a>
</g>
</g>
<!-- Node4 -->
<g id="Node000004" class="node">
<title>Node4</title>
<g id="a_Node000004"><a xlink:href="main_8cpp.html" target="_top" xlink:title=" ">
<polygon fill="white" stroke="#666666" points="287.5,-20 164.25,-20 164.25,0 287.5,0 287.5,-20"/>
<text text-anchor="middle" x="225.88" y="-6.5" font-family="Helvetica,sans-Serif" font-size="10.00">ReSTIRVulkan/main.cpp</text>
</a>
</g>
</g>
<!-- Node2&#45;&gt;Node4 -->
<g id="edge3_Node000002_Node000004" class="edge">
<title>Node2&#45;&gt;Node4</title>
<g id="a_edge3_Node000002_Node000004"><a xlink:title=" ">
<path fill="none" stroke="#63b8ff" d="M169.93,-54.59C184.08,-43.57 202.21,-29.44 213.93,-20.31"/>
<polygon fill="#63b8ff" stroke="#63b8ff" points="167.84,-51.79 162.1,-60.69 172.14,-57.31 167.84,-51.79"/>
</a>
</g>
</g>
</g>
</svg>

<g id="navigator" transform="translate(0 0)" fill="#404254">
  <rect fill="#f2f5e9" fill-opacity="0.5" stroke="#606060" stroke-width=".5" x="0" y="0" width="60" height="60"/>
  <use id="zoomplus" xlink:href="#zoomPlus" x="17" y="9" onmousedown="handleZoom(evt,'in')"/>
  <use id="zoomminus" xlink:href="#zoomMin" x="42" y="9" onmousedown="handleZoom(evt,'out')"/>
  <use id="reset" xlink:href="#resetDef" x="30" y="36" onmousedown="handleReset()"/>
   <use id="arrowup" xlink:href="#arrowUp" x="0" y="0" onmousedown="handlePan(0,-1)"/>
  <use id="arrowright" xlink:href="#arrowRight" x="0" y="0" onmousedown="handlePan(1,0)"/>
  <use id="arrowdown" xlink:href="#arrowDown" x="0" y="0" onmousedown="handlePan(0,1)"/>
  <use id="arrowleft" xlink:href="#arrowLeft" x="0" y="0" onmousedown="handlePan(-1,0)"/>
</g>
<svg viewBox="0 0 15 15" width="100%" height="30px" preserveAspectRatio="xMaxYMin meet">
 <g id="arrow_out" transform="scale(0.3 0.3)">
  <a xlink:href="_v_r_e___game_object_manager_8h__dep__incl_org.svg" target="_base">
   <rect id="button" ry="5" rx="5" y="6" x="6" height="38" width="38"
        fill="#f2f5e9" fill-opacity="0.5" stroke="#606060" stroke-width="1.0"/>
   <path id="arrow"
     d="M 11.500037,31.436501 C 11.940474,20.09759 22.043105,11.32322 32.158766,21.979434 L 37.068811,17.246167 C 37.068811,17.246167 37.088388,32 37.088388,32 L 22.160133,31.978069 C 22.160133,31.978069 26.997745,27.140456 26.997745,27.140456 C 18.528582,18.264221 13.291696,25.230495 11.500037,31.436501 z"
     style="fill:#404040;"/>
  </a>
 </g>
</svg>

<style type='text/css'>
<![CDATA[
[data-mouse-over-selected='false'] { opacity: 0.7; }
[data-mouse-over-selected='true']  { opacity: 1.0; }
]]>
</style>
<script type="application/ecmascript"><![CDATA[
document.addEventListener('DOMContentLoaded', (event) => {
  highlightEdges();
  highlightAdjacentNodes();
});
]]></script>
</svg>
