<?xml version="1.0" encoding="UTF-8" standalone="no"?>
<!DOCTYPE svg PUBLIC "-//W3C//DTD SVG 1.1//EN"
 "http://www.w3.org/Graphics/SVG/1.1/DTD/svg11.dtd">
<!-- Generated by graphviz version 12.1.2 (20240928.0832)
 -->
<!-- Title: VRE::VRE_glTFModel::CreateIndexBuffer Pages: 1 -->
<svg width="301pt" height="116pt"
 viewBox="0.00 0.00 301.00 116.00" xmlns="http://www.w3.org/2000/svg" xmlns:xlink="http://www.w3.org/1999/xlink">
<g id="graph0" class="graph" transform="scale(1 1) rotate(0) translate(4 112)">
<title>VRE::VRE_glTFModel::CreateIndexBuffer</title>
<!-- Node1 -->
<g id="Node000001" class="node">
<title>Node1</title>
<g id="a_Node000001"><a xlink:title=" ">
<polygon fill="#999999" stroke="#666666" points="115,-76 0,-76 0,-44 115,-44 115,-76"/>
<text text-anchor="start" x="8" y="-62.5" font-family="Helvetica,sans-Serif" font-size="10.00">VRE::VRE_glTFModel</text>
<text text-anchor="middle" x="57.5" y="-50.5" font-family="Helvetica,sans-Serif" font-size="10.00">::CreateIndexBuffer</text>
</a>
</g>
</g>
<!-- Node2 -->
<g id="Node000002" class="node">
<title>Node2</title>
<g id="a_Node000002"><a xlink:href="class_v_r_e_1_1_v_r_e___buffer.html#a0b4e8cbd307ba5cb1efde5e350b15f34" target="_top" xlink:title=" ">
<polygon fill="white" stroke="#666666" points="293,-108 151,-108 151,-88 293,-88 293,-108"/>
<text text-anchor="middle" x="222" y="-94.5" font-family="Helvetica,sans-Serif" font-size="10.00">VRE::VRE_Buffer::GetBuffer</text>
</a>
</g>
</g>
<!-- Node1&#45;&gt;Node2 -->
<g id="edge1_Node000001_Node000002" class="edge">
<title>Node1&#45;&gt;Node2</title>
<g id="a_edge1_Node000001_Node000002"><a xlink:title=" ">
<path fill="none" stroke="#63b8ff" d="M115.33,-73.29C131.55,-77.08 149.19,-81.21 165.33,-84.98"/>
<polygon fill="#63b8ff" stroke="#63b8ff" points="164.22,-88.32 174.75,-87.19 165.81,-81.5 164.22,-88.32"/>
</a>
</g>
</g>
<!-- Node3 -->
<g id="Node000003" class="node">
<title>Node3</title>
<g id="a_Node000003"><a xlink:href="class_v_r_e_1_1_v_r_e___buffer.html#a1fcc1a81e90c3fb8a143ae4366b1f7d8" target="_top" xlink:title=" ">
<polygon fill="white" stroke="#666666" points="281.75,-70 162.25,-70 162.25,-50 281.75,-50 281.75,-70"/>
<text text-anchor="middle" x="222" y="-56.5" font-family="Helvetica,sans-Serif" font-size="10.00">VRE::VRE_Buffer::Map</text>
</a>
</g>
</g>
<!-- Node1&#45;&gt;Node3 -->
<g id="edge2_Node000001_Node000003" class="edge">
<title>Node1&#45;&gt;Node3</title>
<g id="a_edge2_Node000001_Node000003"><a xlink:title=" ">
<path fill="none" stroke="#63b8ff" d="M115.33,-60C126.78,-60 138.94,-60 150.77,-60"/>
<polygon fill="#63b8ff" stroke="#63b8ff" points="150.48,-63.5 160.48,-60 150.48,-56.5 150.48,-63.5"/>
</a>
</g>
</g>
<!-- Node4 -->
<g id="Node000004" class="node">
<title>Node4</title>
<g id="a_Node000004"><a xlink:href="class_v_r_e_1_1_v_r_e___buffer.html#ab3316823e14587f60b98ccdb0bf71c47" target="_top" xlink:title=" ">
<polygon fill="white" stroke="#666666" points="288.88,-32 155.12,-32 155.12,0 288.88,0 288.88,-32"/>
<text text-anchor="start" x="163.12" y="-18.5" font-family="Helvetica,sans-Serif" font-size="10.00">VRE::VRE_Buffer::WriteTo</text>
<text text-anchor="middle" x="222" y="-6.5" font-family="Helvetica,sans-Serif" font-size="10.00">Buffer</text>
</a>
</g>
</g>
<!-- Node1&#45;&gt;Node4 -->
<g id="edge3_Node000001_Node000004" class="edge">
<title>Node1&#45;&gt;Node4</title>
<g id="a_edge3_Node000001_Node000004"><a xlink:title=" ">
<path fill="none" stroke="#63b8ff" d="M115.33,-44.61C126.36,-41.62 138.05,-38.46 149.48,-35.37"/>
<polygon fill="#63b8ff" stroke="#63b8ff" points="150.13,-38.82 158.87,-32.82 148.3,-32.06 150.13,-38.82"/>
</a>
</g>
</g>
</g>
</svg>
