<?xml version="1.0" encoding="UTF-8" standalone="no"?>
<!DOCTYPE svg PUBLIC "-//W3C//DTD SVG 1.1//EN"
 "http://www.w3.org/Graphics/SVG/1.1/DTD/svg11.dtd">
<!-- Generated by graphviz version 12.1.2 (20240928.0832)
 -->
<!-- Title: VRE::VRE_InputListener Pages: 1 -->
<svg width="135pt" height="100pt"
 viewBox="0.00 0.00 135.00 100.00" xmlns="http://www.w3.org/2000/svg" xmlns:xlink="http://www.w3.org/1999/xlink">
<g id="graph0" class="graph" transform="scale(1 1) rotate(0) translate(4 96)">
<title>VRE::VRE_InputListener</title>
<!-- Node1 -->
<g id="Node000001" class="node">
<title>Node1</title>
<g id="a_Node000001"><a xlink:title=" ">
<polygon fill="#999999" stroke="none" points="127,-92 0,-92 0,0 127,0 127,-92"/>
<text text-anchor="start" x="8.75" y="-78.5" font-family="Helvetica,sans-Serif" font-size="10.00">VRE::VRE_InputListener</text>
<text text-anchor="start" x="4" y="-62.5" font-family="Helvetica,sans-Serif" font-size="10.00">+</text>
<text text-anchor="start" x="14" y="-62.5" font-family="Helvetica,sans-Serif" font-size="10.00">float mMoveSpeed</text>
<text text-anchor="start" x="4" y="-46.5" font-family="Helvetica,sans-Serif" font-size="10.00">+</text>
<text text-anchor="start" x="14" y="-46.5" font-family="Helvetica,sans-Serif" font-size="10.00">float mMouseSensitivity</text>
<text text-anchor="start" x="4" y="-30.5" font-family="Helvetica,sans-Serif" font-size="10.00">+</text>
<text text-anchor="start" x="14" y="-30.5" font-family="Helvetica,sans-Serif" font-size="10.00">void Move(GLFWwindow</text>
<text text-anchor="start" x="14" y="-18.5" font-family="Helvetica,sans-Serif" font-size="10.00"> *window, float dt, VRE</text>
<text text-anchor="start" x="14" y="-6.5" font-family="Helvetica,sans-Serif" font-size="10.00">_Camera &amp;camera)</text>
<polygon fill="#666666" stroke="#666666" points="0,-74 0,-74 127,-74 127,-74 0,-74"/>
<polygon fill="#666666" stroke="#666666" points="0,-42 0,-42 12,-42 12,-42 0,-42"/>
<polygon fill="#666666" stroke="#666666" points="12,-42 12,-42 127,-42 127,-42 12,-42"/>
<polygon fill="none" stroke="#666666" points="0,0 0,-92 127,-92 127,0 0,0"/>
</a>
</g>
</g>
</g>
</svg>
