<?xml version="1.0" encoding="UTF-8" standalone="no"?>
<!DOCTYPE svg PUBLIC "-//W3C//DTD SVG 1.1//EN"
 "http://www.w3.org/Graphics/SVG/1.1/DTD/svg11.dtd">
<!-- Generated by graphviz version 12.1.2 (20240928.0832)
 -->
<!-- Title: VRE::VRE_Device::CopyBuffer Pages: 1 -->
<svg width="357pt" height="90pt"
 viewBox="0.00 0.00 356.50 90.00" xmlns="http://www.w3.org/2000/svg" xmlns:xlink="http://www.w3.org/1999/xlink">
<g id="graph0" class="graph" transform="scale(1 1) rotate(0) translate(4 86)">
<title>VRE::VRE_Device::CopyBuffer</title>
<!-- Node1 -->
<g id="Node000001" class="node">
<title>Node1</title>
<g id="a_Node000001"><a xlink:title=" ">
<polygon fill="#999999" stroke="#666666" points="154.75,-51 0,-51 0,-31 154.75,-31 154.75,-51"/>
<text text-anchor="middle" x="77.38" y="-37.5" font-family="Helvetica,sans-Serif" font-size="10.00">VRE::VRE_Device::CopyBuffer</text>
</a>
</g>
</g>
<!-- Node2 -->
<g id="Node000002" class="node">
<title>Node2</title>
<g id="a_Node000002"><a xlink:href="class_v_r_e_1_1_v_r_e___device.html#a650aa7d0c1e58775adc826ad5914b923" target="_top" xlink:title=" ">
<polygon fill="white" stroke="#666666" points="348.5,-82 190.75,-82 190.75,-50 348.5,-50 348.5,-82"/>
<text text-anchor="start" x="198.75" y="-68.5" font-family="Helvetica,sans-Serif" font-size="10.00">VRE::VRE_Device::BeginSingle</text>
<text text-anchor="middle" x="269.62" y="-56.5" font-family="Helvetica,sans-Serif" font-size="10.00">TimeCommands</text>
</a>
</g>
</g>
<!-- Node1&#45;&gt;Node2 -->
<g id="edge1_Node000001_Node000002" class="edge">
<title>Node1&#45;&gt;Node2</title>
<g id="a_edge1_Node000001_Node000002"><a xlink:title=" ">
<path fill="none" stroke="#63b8ff" d="M155.21,-51.1C163.06,-52.13 171.08,-53.18 179.05,-54.23"/>
<polygon fill="#63b8ff" stroke="#63b8ff" points="178.39,-57.67 188.76,-55.51 179.31,-50.73 178.39,-57.67"/>
</a>
</g>
</g>
<!-- Node3 -->
<g id="Node000003" class="node">
<title>Node3</title>
<g id="a_Node000003"><a xlink:href="class_v_r_e_1_1_v_r_e___device.html#aa33fc80f7025d10335e7ad7470333a05" target="_top" xlink:title=" ">
<polygon fill="white" stroke="#666666" points="344.75,-32 194.5,-32 194.5,0 344.75,0 344.75,-32"/>
<text text-anchor="start" x="202.5" y="-18.5" font-family="Helvetica,sans-Serif" font-size="10.00">VRE::VRE_Device::EndSingle</text>
<text text-anchor="middle" x="269.62" y="-6.5" font-family="Helvetica,sans-Serif" font-size="10.00">TimeCommands</text>
</a>
</g>
</g>
<!-- Node1&#45;&gt;Node3 -->
<g id="edge2_Node000001_Node000003" class="edge">
<title>Node1&#45;&gt;Node3</title>
<g id="a_edge2_Node000001_Node000003"><a xlink:title=" ">
<path fill="none" stroke="#63b8ff" d="M155.21,-30.9C164.37,-29.7 173.77,-28.46 183.05,-27.24"/>
<polygon fill="#63b8ff" stroke="#63b8ff" points="183.32,-30.74 192.78,-25.97 182.41,-23.8 183.32,-30.74"/>
</a>
</g>
</g>
</g>
</svg>
