<?xml version="1.0" encoding="UTF-8" standalone="no"?>
<!DOCTYPE svg PUBLIC "-//W3C//DTD SVG 1.1//EN"
 "http://www.w3.org/Graphics/SVG/1.1/DTD/svg11.dtd">
<!-- Generated by graphviz version 12.1.2 (20240928.0832)
 -->
<!-- Title: VRE::VRE_GameObjRenderSystem::CreatePipelines Pages: 1 -->
<svg width="551pt" height="66pt"
 viewBox="0.00 0.00 551.00 66.00" xmlns="http://www.w3.org/2000/svg" xmlns:xlink="http://www.w3.org/1999/xlink">
<g id="graph0" class="graph" transform="scale(1 1) rotate(0) translate(4 62)">
<title>VRE::VRE_GameObjRenderSystem::CreatePipelines</title>
<!-- Node1 -->
<g id="Node000001" class="node">
<title>Node1</title>
<g id="a_Node000001"><a xlink:title=" ">
<polygon fill="#999999" stroke="#666666" points="175.75,-45 0,-45 0,-13 175.75,-13 175.75,-45"/>
<text text-anchor="start" x="8" y="-31.5" font-family="Helvetica,sans-Serif" font-size="10.00">VRE::VRE_GameObjRenderSystem</text>
<text text-anchor="middle" x="87.88" y="-19.5" font-family="Helvetica,sans-Serif" font-size="10.00">::CreatePipelines</text>
</a>
</g>
</g>
<!-- Node2 -->
<g id="Node000002" class="node">
<title>Node2</title>
<g id="a_Node000002"><a xlink:href="class_v_r_e_1_1_v_r_e___pipeline.html#aa30fd0bae585ba67fc296d6f1dc2234b" target="_top" xlink:title=" ">
<polygon fill="white" stroke="#666666" points="354.5,-45 211.75,-45 211.75,-13 354.5,-13 354.5,-45"/>
<text text-anchor="start" x="219.75" y="-31.5" font-family="Helvetica,sans-Serif" font-size="10.00">VRE::VRE_Pipeline::</text>
<text text-anchor="middle" x="283.12" y="-19.5" font-family="Helvetica,sans-Serif" font-size="10.00">GetDefaultPipelineConfigInfo</text>
</a>
</g>
</g>
<!-- Node1&#45;&gt;Node2 -->
<g id="edge1_Node000001_Node000002" class="edge">
<title>Node1&#45;&gt;Node2</title>
<g id="a_edge1_Node000001_Node000002"><a xlink:title=" ">
<path fill="none" stroke="#63b8ff" d="M176.17,-29C184.1,-29 192.12,-29 200,-29"/>
<polygon fill="#63b8ff" stroke="#63b8ff" points="199.92,-32.5 209.92,-29 199.92,-25.5 199.92,-32.5"/>
</a>
</g>
</g>
<!-- Node3 -->
<g id="Node000003" class="node">
<title>Node3</title>
<g id="a_Node000003"><a xlink:href="struct_v_r_e_1_1_vertex.html#aa02a08c6e6f16997ee7d1ba41362e7ee" target="_top" xlink:title=" ">
<polygon fill="white" stroke="#666666" points="543,-58 390.5,-58 390.5,-38 543,-38 543,-58"/>
<text text-anchor="middle" x="466.75" y="-44.5" font-family="Helvetica,sans-Serif" font-size="10.00">VRE::Vertex::GetAttributeDesc</text>
</a>
</g>
</g>
<!-- Node2&#45;&gt;Node3 -->
<g id="edge2_Node000002_Node000003" class="edge">
<title>Node2&#45;&gt;Node3</title>
<g id="a_edge2_Node000002_Node000003"><a xlink:title=" ">
<path fill="none" stroke="#63b8ff" d="M354.87,-36.4C362.72,-37.22 370.78,-38.07 378.81,-38.9"/>
<polygon fill="#63b8ff" stroke="#63b8ff" points="378.28,-42.37 388.59,-39.93 379.01,-35.41 378.28,-42.37"/>
</a>
</g>
</g>
<!-- Node4 -->
<g id="Node000004" class="node">
<title>Node4</title>
<g id="a_Node000004"><a xlink:href="struct_v_r_e_1_1_vertex.html#a728c4116a202c00fdeae9494f9bf5f80" target="_top" xlink:title=" ">
<polygon fill="white" stroke="#666666" points="540.75,-20 392.75,-20 392.75,0 540.75,0 540.75,-20"/>
<text text-anchor="middle" x="466.75" y="-6.5" font-family="Helvetica,sans-Serif" font-size="10.00">VRE::Vertex::GetBindingDesc</text>
</a>
</g>
</g>
<!-- Node2&#45;&gt;Node4 -->
<g id="edge3_Node000002_Node000004" class="edge">
<title>Node2&#45;&gt;Node4</title>
<g id="a_edge3_Node000002_Node000004"><a xlink:title=" ">
<path fill="none" stroke="#63b8ff" d="M354.87,-21.6C363.45,-20.7 372.29,-19.78 381.06,-18.86"/>
<polygon fill="#63b8ff" stroke="#63b8ff" points="381.42,-22.34 391,-17.82 380.69,-15.38 381.42,-22.34"/>
</a>
</g>
</g>
</g>
</svg>
