<?xml version="1.0" encoding="UTF-8" standalone="no"?>
<!DOCTYPE svg PUBLIC "-//W3C//DTD SVG 1.1//EN"
 "http://www.w3.org/Graphics/SVG/1.1/DTD/svg11.dtd">
<!-- Generated by graphviz version 12.1.2 (20240928.0832)
 -->
<!-- Title: VRE::VRE_Texture::VRE_Texture Pages: 1 -->
<svg width="490pt" height="222pt"
 viewBox="0.00 0.00 489.50 222.00" xmlns="http://www.w3.org/2000/svg" xmlns:xlink="http://www.w3.org/1999/xlink">
<g id="graph0" class="graph" transform="scale(1 1) rotate(0) translate(4 218)">
<title>VRE::VRE_Texture::VRE_Texture</title>
<!-- Node1 -->
<g id="Node000001" class="node">
<title>Node1</title>
<g id="a_Node000001"><a xlink:title=" ">
<polygon fill="#999999" stroke="#666666" points="128.5,-107 0,-107 0,-75 128.5,-75 128.5,-107"/>
<text text-anchor="start" x="8" y="-93.5" font-family="Helvetica,sans-Serif" font-size="10.00">VRE::VRE_Texture::VRE</text>
<text text-anchor="middle" x="64.25" y="-81.5" font-family="Helvetica,sans-Serif" font-size="10.00">_Texture</text>
</a>
</g>
</g>
<!-- Node2 -->
<g id="Node000002" class="node">
<title>Node2</title>
<g id="a_Node000002"><a xlink:href="class_v_r_e_1_1_v_r_e___texture.html#afe83eb6ee357d4773293fb3c3c33a7e3" target="_top" xlink:title=" ">
<polygon fill="white" stroke="#666666" points="302.38,-182 165.62,-182 165.62,-150 302.38,-150 302.38,-182"/>
<text text-anchor="start" x="173.62" y="-168.5" font-family="Helvetica,sans-Serif" font-size="10.00">VRE::VRE_Texture::Create</text>
<text text-anchor="middle" x="234" y="-156.5" font-family="Helvetica,sans-Serif" font-size="10.00">Image</text>
</a>
</g>
</g>
<!-- Node1&#45;&gt;Node2 -->
<g id="edge1_Node000001_Node000002" class="edge">
<title>Node1&#45;&gt;Node2</title>
<g id="a_edge1_Node000001_Node000002"><a xlink:title=" ">
<path fill="none" stroke="#63b8ff" d="M95.66,-107.48C115.08,-117.71 140.95,-130.81 164.5,-141 167.87,-142.46 171.35,-143.91 174.89,-145.33"/>
<polygon fill="#63b8ff" stroke="#63b8ff" points="173.55,-148.56 184.14,-148.95 176.1,-142.05 173.55,-148.56"/>
</a>
</g>
</g>
<!-- Node6 -->
<g id="Node000006" class="node">
<title>Node6</title>
<g id="a_Node000006"><a xlink:href="class_v_r_e_1_1_v_r_e___texture.html#afdef9716ac82d0e6ad87e16657dc43f7" target="_top" xlink:title=" ">
<polygon fill="white" stroke="#666666" points="302.38,-132 165.62,-132 165.62,-100 302.38,-100 302.38,-132"/>
<text text-anchor="start" x="173.62" y="-118.5" font-family="Helvetica,sans-Serif" font-size="10.00">VRE::VRE_Texture::Create</text>
<text text-anchor="middle" x="234" y="-106.5" font-family="Helvetica,sans-Serif" font-size="10.00">ImageView</text>
</a>
</g>
</g>
<!-- Node1&#45;&gt;Node6 -->
<g id="edge5_Node000001_Node000006" class="edge">
<title>Node1&#45;&gt;Node6</title>
<g id="a_edge5_Node000001_Node000006"><a xlink:title=" ">
<path fill="none" stroke="#63b8ff" d="M128.67,-100.45C136.99,-101.69 145.6,-102.97 154.14,-104.25"/>
<polygon fill="#63b8ff" stroke="#63b8ff" points="153.39,-107.67 163.8,-105.69 154.42,-100.75 153.39,-107.67"/>
</a>
</g>
</g>
<!-- Node7 -->
<g id="Node000007" class="node">
<title>Node7</title>
<g id="a_Node000007"><a xlink:href="class_v_r_e_1_1_v_r_e___texture.html#a691efb0fe4603628afd8ce48e57f65be" target="_top" xlink:title=" ">
<polygon fill="white" stroke="#666666" points="302.38,-82 165.62,-82 165.62,-50 302.38,-50 302.38,-82"/>
<text text-anchor="start" x="173.62" y="-68.5" font-family="Helvetica,sans-Serif" font-size="10.00">VRE::VRE_Texture::Create</text>
<text text-anchor="middle" x="234" y="-56.5" font-family="Helvetica,sans-Serif" font-size="10.00">TextureSampler</text>
</a>
</g>
</g>
<!-- Node1&#45;&gt;Node7 -->
<g id="edge6_Node000001_Node000007" class="edge">
<title>Node1&#45;&gt;Node7</title>
<g id="a_edge6_Node000001_Node000007"><a xlink:title=" ">
<path fill="none" stroke="#63b8ff" d="M128.67,-81.55C136.99,-80.31 145.6,-79.03 154.14,-77.75"/>
<polygon fill="#63b8ff" stroke="#63b8ff" points="154.42,-81.25 163.8,-76.31 153.39,-74.33 154.42,-81.25"/>
</a>
</g>
</g>
<!-- Node8 -->
<g id="Node000008" class="node">
<title>Node8</title>
<g id="a_Node000008"><a xlink:href="class_v_r_e_1_1_v_r_e___texture.html#a305bad16983d15b197c1bdd57417df36" target="_top" xlink:title=" ">
<polygon fill="white" stroke="#666666" points="303.5,-32 164.5,-32 164.5,0 303.5,0 303.5,-32"/>
<text text-anchor="start" x="172.5" y="-18.5" font-family="Helvetica,sans-Serif" font-size="10.00">VRE::VRE_Texture::Update</text>
<text text-anchor="middle" x="234" y="-6.5" font-family="Helvetica,sans-Serif" font-size="10.00">DescriptorInfo</text>
</a>
</g>
</g>
<!-- Node1&#45;&gt;Node8 -->
<g id="edge7_Node000001_Node000008" class="edge">
<title>Node1&#45;&gt;Node8</title>
<g id="a_edge7_Node000001_Node000008"><a xlink:title=" ">
<path fill="none" stroke="#63b8ff" d="M95.66,-74.52C115.08,-64.29 140.95,-51.19 164.5,-41 167.87,-39.54 171.35,-38.09 174.89,-36.67"/>
<polygon fill="#63b8ff" stroke="#63b8ff" points="176.1,-39.95 184.14,-33.05 173.55,-33.44 176.1,-39.95"/>
</a>
</g>
</g>
<!-- Node3 -->
<g id="Node000003" class="node">
<title>Node3</title>
<g id="a_Node000003"><a xlink:href="class_v_r_e_1_1_v_r_e___buffer.html#a0b4e8cbd307ba5cb1efde5e350b15f34" target="_top" xlink:title=" ">
<polygon fill="white" stroke="#666666" points="481.5,-214 339.5,-214 339.5,-194 481.5,-194 481.5,-214"/>
<text text-anchor="middle" x="410.5" y="-200.5" font-family="Helvetica,sans-Serif" font-size="10.00">VRE::VRE_Buffer::GetBuffer</text>
</a>
</g>
</g>
<!-- Node2&#45;&gt;Node3 -->
<g id="edge2_Node000002_Node000003" class="edge">
<title>Node2&#45;&gt;Node3</title>
<g id="a_edge2_Node000002_Node000003"><a xlink:title=" ">
<path fill="none" stroke="#63b8ff" d="M302.47,-180.69C318.29,-184.14 335.02,-187.78 350.44,-191.14"/>
<polygon fill="#63b8ff" stroke="#63b8ff" points="349.41,-194.5 359.93,-193.21 350.9,-187.66 349.41,-194.5"/>
</a>
</g>
</g>
<!-- Node4 -->
<g id="Node000004" class="node">
<title>Node4</title>
<g id="a_Node000004"><a xlink:href="class_v_r_e_1_1_v_r_e___buffer.html#a1fcc1a81e90c3fb8a143ae4366b1f7d8" target="_top" xlink:title=" ">
<polygon fill="white" stroke="#666666" points="470.25,-176 350.75,-176 350.75,-156 470.25,-156 470.25,-176"/>
<text text-anchor="middle" x="410.5" y="-162.5" font-family="Helvetica,sans-Serif" font-size="10.00">VRE::VRE_Buffer::Map</text>
</a>
</g>
</g>
<!-- Node2&#45;&gt;Node4 -->
<g id="edge3_Node000002_Node000004" class="edge">
<title>Node2&#45;&gt;Node4</title>
<g id="a_edge3_Node000002_Node000004"><a xlink:title=" ">
<path fill="none" stroke="#63b8ff" d="M302.47,-166C314.46,-166 326.98,-166 339.05,-166"/>
<polygon fill="#63b8ff" stroke="#63b8ff" points="338.94,-169.5 348.94,-166 338.94,-162.5 338.94,-169.5"/>
</a>
</g>
</g>
<!-- Node5 -->
<g id="Node000005" class="node">
<title>Node5</title>
<g id="a_Node000005"><a xlink:href="class_v_r_e_1_1_v_r_e___buffer.html#ab3316823e14587f60b98ccdb0bf71c47" target="_top" xlink:title=" ">
<polygon fill="white" stroke="#666666" points="477.38,-138 343.62,-138 343.62,-106 477.38,-106 477.38,-138"/>
<text text-anchor="start" x="351.62" y="-124.5" font-family="Helvetica,sans-Serif" font-size="10.00">VRE::VRE_Buffer::WriteTo</text>
<text text-anchor="middle" x="410.5" y="-112.5" font-family="Helvetica,sans-Serif" font-size="10.00">Buffer</text>
</a>
</g>
</g>
<!-- Node2&#45;&gt;Node5 -->
<g id="edge4_Node000002_Node000005" class="edge">
<title>Node2&#45;&gt;Node5</title>
<g id="a_edge4_Node000002_Node000005"><a xlink:title=" ">
<path fill="none" stroke="#63b8ff" d="M299.98,-149.62C310.81,-146.89 322.13,-144.03 333.2,-141.24"/>
<polygon fill="#63b8ff" stroke="#63b8ff" points="333.87,-144.68 342.71,-138.84 332.16,-137.89 333.87,-144.68"/>
</a>
</g>
</g>
</g>
</svg>
