<?xml version="1.0" encoding="UTF-8" standalone="no"?>
<!DOCTYPE svg PUBLIC "-//W3C//DTD SVG 1.1//EN"
 "http://www.w3.org/Graphics/SVG/1.1/DTD/svg11.dtd">
<!-- Generated by graphviz version 12.1.2 (20240928.0832)
 -->
<!-- Title: VRE::VRE_SwapChain::CreateFramebuffers Pages: 1 -->
<svg width="328pt" height="128pt"
 viewBox="0.00 0.00 328.00 128.00" xmlns="http://www.w3.org/2000/svg" xmlns:xlink="http://www.w3.org/1999/xlink">

<svg id="main" version="1.1" xmlns="http://www.w3.org/2000/svg" xmlns:xlink="http://www.w3.org/1999/xlink" xml:space="preserve">

<style type="text/css"><![CDATA[
.node, .edge {opacity: 0.7;}
.node.selected, .edge.selected {opacity: 1;}
.edge:hover path { stroke: red; }
.edge:hover polygon { stroke: red; fill: red; }
]]></style>
<script type="application/ecmascript" xlink:href="svg.min.js"/>
<svg id="graph" class="graph">
<g id="graph0" class="graph" transform="scale(1 1) rotate(0) translate(4 124)">
<title>VRE::VRE_SwapChain::CreateFramebuffers</title>
<!-- Node1 -->
<g id="Node000001" class="node">
<title>Node1</title>
<g id="a_Node000001"><a xlink:title=" ">
<polygon fill="#999999" stroke="#666666" points="119.5,-70 0,-70 0,-38 119.5,-38 119.5,-70"/>
<text text-anchor="start" x="8" y="-56.5" font-family="Helvetica,sans-Serif" font-size="10.00">VRE::VRE_SwapChain</text>
<text text-anchor="middle" x="59.75" y="-44.5" font-family="Helvetica,sans-Serif" font-size="10.00">::CreateFramebuffers</text>
</a>
</g>
</g>
<!-- Node2 -->
<g id="Node000002" class="node">
<title>Node2</title>
<g id="a_Node000002"><a xlink:href="class_v_r_e_1_1_v_r_e___swap_chain.html#a0d7125e8f2743c4ebff9b1e217d0a531" target="_top" xlink:title=" ">
<polygon fill="white" stroke="#666666" points="297.5,-120 178,-120 178,-88 297.5,-88 297.5,-120"/>
<text text-anchor="start" x="186" y="-106.5" font-family="Helvetica,sans-Serif" font-size="10.00">VRE::VRE_SwapChain</text>
<text text-anchor="middle" x="237.75" y="-94.5" font-family="Helvetica,sans-Serif" font-size="10.00">::GetImageCount</text>
</a>
</g>
</g>
<!-- Node1&#45;&gt;Node2 -->
<g id="edge1_Node000001_Node000002" class="edge">
<title>Node1&#45;&gt;Node2</title>
<g id="a_edge1_Node000001_Node000002"><a xlink:title=" ">
<path fill="none" stroke="#63b8ff" d="M118.38,-70.37C134.25,-74.88 151.63,-79.82 168.06,-84.48"/>
<polygon fill="#63b8ff" stroke="#63b8ff" points="166.66,-87.73 177.23,-87.09 168.57,-80.99 166.66,-87.73"/>
</a>
</g>
</g>
<!-- Node3 -->
<g id="Node000003" class="node">
<title>Node3</title>
<g id="a_Node000003"><a xlink:href="class_v_r_e_1_1_v_r_e___swap_chain.html#a323d9f1e3959053b88f7af19744b578c" target="_top" xlink:title=" ">
<polygon fill="white" stroke="#666666" points="297.5,-70 178,-70 178,-38 297.5,-38 297.5,-70"/>
<text text-anchor="start" x="186" y="-56.5" font-family="Helvetica,sans-Serif" font-size="10.00">VRE::VRE_SwapChain</text>
<text text-anchor="middle" x="237.75" y="-44.5" font-family="Helvetica,sans-Serif" font-size="10.00">::GetSwapChainExtent</text>
</a>
</g>
</g>
<!-- Node1&#45;&gt;Node3 -->
<g id="edge2_Node000001_Node000003" class="edge">
<title>Node1&#45;&gt;Node3</title>
<g id="a_edge2_Node000001_Node000003"><a xlink:title=" ">
<path fill="none" stroke="#63b8ff" d="M119.85,-54C134.79,-54 150.99,-54 166.43,-54"/>
<polygon fill="#63b8ff" stroke="#63b8ff" points="166,-57.5 176,-54 166,-50.5 166,-57.5"/>
</a>
</g>
</g>
<!-- Node4 -->
<g id="Node000004" class="node">
<title>Node4</title>
<g id="a_Node000004"><a xlink:href="class_v_r_e_1_1_v_r_e___device.html#a3b6e89f878e54464b3a03c1e4e84c52e" target="_top" xlink:title=" ">
<polygon fill="white" stroke="#666666" points="320,-20 155.5,-20 155.5,0 320,0 320,-20"/>
<text text-anchor="middle" x="237.75" y="-6.5" font-family="Helvetica,sans-Serif" font-size="10.00">VRE::VRE_Device::GetVkDevice</text>
</a>
</g>
</g>
<!-- Node1&#45;&gt;Node4 -->
<g id="edge3_Node000001_Node000004" class="edge">
<title>Node1&#45;&gt;Node4</title>
<g id="a_edge3_Node000001_Node000004"><a xlink:title=" ">
<path fill="none" stroke="#63b8ff" d="M119.82,-38.14C131.62,-35.05 143.94,-31.88 155.5,-29 163.43,-27.03 171.8,-25 180.04,-23.04"/>
<polygon fill="#63b8ff" stroke="#63b8ff" points="180.74,-26.48 189.67,-20.77 179.14,-19.66 180.74,-26.48"/>
</a>
</g>
</g>
</g>
</svg>
</svg>

<style type='text/css'>
<![CDATA[
[data-mouse-over-selected='false'] { opacity: 0.7; }
[data-mouse-over-selected='true']  { opacity: 1.0; }
]]>
</style>
<script type="application/ecmascript"><![CDATA[
document.addEventListener('DOMContentLoaded', (event) => {
  highlightEdges();
  highlightAdjacentNodes();
});
]]></script>
</svg>
