<?xml version="1.0" encoding="UTF-8" standalone="no"?>
<!DOCTYPE svg PUBLIC "-//W3C//DTD SVG 1.1//EN"
 "http://www.w3.org/Graphics/SVG/1.1/DTD/svg11.dtd">
<!-- Generated by graphviz version 12.1.2 (20240928.0832)
 -->
<!-- Title: VRE::VRE_Device::PickPhysicalDevice Pages: 1 -->
<svg width="722pt" height="178pt"
 viewBox="0.00 0.00 721.50 178.00" xmlns="http://www.w3.org/2000/svg" xmlns:xlink="http://www.w3.org/1999/xlink">
<g id="graph0" class="graph" transform="scale(1 1) rotate(0) translate(4 174)">
<title>VRE::VRE_Device::PickPhysicalDevice</title>
<!-- Node1 -->
<g id="Node000001" class="node">
<title>Node1</title>
<g id="a_Node000001"><a xlink:title=" ">
<polygon fill="#999999" stroke="#666666" points="163,-98 0,-98 0,-66 163,-66 163,-98"/>
<text text-anchor="start" x="8" y="-84.5" font-family="Helvetica,sans-Serif" font-size="10.00">VRE::VRE_Device::PickPhysical</text>
<text text-anchor="middle" x="81.5" y="-72.5" font-family="Helvetica,sans-Serif" font-size="10.00">Device</text>
</a>
</g>
</g>
<!-- Node2 -->
<g id="Node000002" class="node">
<title>Node2</title>
<g id="a_Node000002"><a xlink:href="class_v_r_e_1_1_v_r_e___device.html#ae38ecc22f4f08ae6222d2fd4e45045e1" target="_top" xlink:title=" ">
<polygon fill="white" stroke="#666666" points="344,-98 199,-98 199,-66 344,-66 344,-98"/>
<text text-anchor="start" x="207" y="-84.5" font-family="Helvetica,sans-Serif" font-size="10.00">VRE::VRE_Device::IsDevice</text>
<text text-anchor="middle" x="271.5" y="-72.5" font-family="Helvetica,sans-Serif" font-size="10.00">Suitable</text>
</a>
</g>
</g>
<!-- Node1&#45;&gt;Node2 -->
<g id="edge1_Node000001_Node000002" class="edge">
<title>Node1&#45;&gt;Node2</title>
<g id="a_edge1_Node000001_Node000002"><a xlink:title=" ">
<path fill="none" stroke="#63b8ff" d="M163.32,-82C171.21,-82 179.23,-82 187.14,-82"/>
<polygon fill="#63b8ff" stroke="#63b8ff" points="187.12,-85.5 197.12,-82 187.12,-78.5 187.12,-85.5"/>
</a>
</g>
</g>
<!-- Node3 -->
<g id="Node000003" class="node">
<title>Node3</title>
<g id="a_Node000003"><a xlink:href="class_v_r_e_1_1_v_r_e___device.html#a90fdae5aade29df930a26e19e6dd63a4" target="_top" xlink:title=" ">
<polygon fill="white" stroke="#666666" points="545.25,-170 380,-170 380,-138 545.25,-138 545.25,-170"/>
<text text-anchor="start" x="388" y="-156.5" font-family="Helvetica,sans-Serif" font-size="10.00">VRE::VRE_Device::CheckDevice</text>
<text text-anchor="middle" x="462.62" y="-144.5" font-family="Helvetica,sans-Serif" font-size="10.00">ExtensionSupport</text>
</a>
</g>
</g>
<!-- Node2&#45;&gt;Node3 -->
<g id="edge2_Node000002_Node000003" class="edge">
<title>Node2&#45;&gt;Node3</title>
<g id="a_edge2_Node000002_Node000003"><a xlink:title=" ">
<path fill="none" stroke="#63b8ff" d="M307.43,-98.49C328.26,-108.01 355.36,-119.87 380,-129 384.66,-130.73 389.5,-132.43 394.39,-134.08"/>
<polygon fill="#63b8ff" stroke="#63b8ff" points="393.11,-137.35 403.7,-137.15 395.3,-130.7 393.11,-137.35"/>
</a>
</g>
</g>
<!-- Node4 -->
<g id="Node000004" class="node">
<title>Node4</title>
<g id="a_Node000004"><a xlink:href="class_v_r_e_1_1_v_r_e___device.html#a49164610e5f85640d5a4f59613cb3539" target="_top" xlink:title=" ">
<polygon fill="white" stroke="#666666" points="539.25,-120 386,-120 386,-88 539.25,-88 539.25,-120"/>
<text text-anchor="start" x="394" y="-106.5" font-family="Helvetica,sans-Serif" font-size="10.00">VRE::VRE_Device::FindQueue</text>
<text text-anchor="middle" x="462.62" y="-94.5" font-family="Helvetica,sans-Serif" font-size="10.00">Families</text>
</a>
</g>
</g>
<!-- Node2&#45;&gt;Node4 -->
<g id="edge3_Node000002_Node000004" class="edge">
<title>Node2&#45;&gt;Node4</title>
<g id="a_edge3_Node000002_Node000004"><a xlink:title=" ">
<path fill="none" stroke="#63b8ff" d="M344.27,-90.35C354.14,-91.5 364.36,-92.69 374.47,-93.86"/>
<polygon fill="#63b8ff" stroke="#63b8ff" points="373.97,-97.33 384.31,-95.01 374.78,-90.37 373.97,-97.33"/>
</a>
</g>
</g>
<!-- Node5 -->
<g id="Node000005" class="node">
<title>Node5</title>
<g id="a_Node000005"><a xlink:href="struct_v_r_e_1_1_queue_family_indices.html#a163909a037bfb772931414e8557eb5b6" target="_top" xlink:title=" ">
<polygon fill="white" stroke="#666666" points="713.5,-98 581.25,-98 581.25,-66 713.5,-66 713.5,-98"/>
<text text-anchor="start" x="589.25" y="-84.5" font-family="Helvetica,sans-Serif" font-size="10.00">VRE::QueueFamilyIndices</text>
<text text-anchor="middle" x="647.38" y="-72.5" font-family="Helvetica,sans-Serif" font-size="10.00">::IsComplete</text>
</a>
</g>
</g>
<!-- Node2&#45;&gt;Node5 -->
<g id="edge5_Node000002_Node000005" class="edge">
<title>Node2&#45;&gt;Node5</title>
<g id="a_edge5_Node000002_Node000005"><a xlink:title=" ">
<path fill="none" stroke="#63b8ff" d="M344.49,-79.71C356.35,-79.42 368.52,-79.16 380,-79 453.44,-77.98 471.81,-77.91 545.25,-79 553.07,-79.12 561.23,-79.28 569.37,-79.48"/>
<polygon fill="#63b8ff" stroke="#63b8ff" points="569.23,-82.98 579.32,-79.73 569.41,-75.98 569.23,-82.98"/>
</a>
</g>
</g>
<!-- Node6 -->
<g id="Node000006" class="node">
<title>Node6</title>
<g id="a_Node000006"><a xlink:href="class_v_r_e_1_1_v_r_e___device.html#a30a3edcffb07cf4e3050b438405bbd81" target="_top" xlink:title=" ">
<polygon fill="white" stroke="#666666" points="541.12,-32 384.12,-32 384.12,0 541.12,0 541.12,-32"/>
<text text-anchor="start" x="392.12" y="-18.5" font-family="Helvetica,sans-Serif" font-size="10.00">VRE::VRE_Device::QuerySwap</text>
<text text-anchor="middle" x="462.62" y="-6.5" font-family="Helvetica,sans-Serif" font-size="10.00">ChainSupport</text>
</a>
</g>
</g>
<!-- Node2&#45;&gt;Node6 -->
<g id="edge6_Node000002_Node000006" class="edge">
<title>Node2&#45;&gt;Node6</title>
<g id="a_edge6_Node000002_Node000006"><a xlink:title=" ">
<path fill="none" stroke="#63b8ff" d="M319.74,-65.52C345.22,-56.62 376.88,-45.57 403.82,-36.17"/>
<polygon fill="#63b8ff" stroke="#63b8ff" points="404.95,-39.49 413.23,-32.89 402.64,-32.88 404.95,-39.49"/>
</a>
</g>
</g>
<!-- Node4&#45;&gt;Node5 -->
<g id="edge4_Node000004_Node000005" class="edge">
<title>Node4&#45;&gt;Node5</title>
<g id="a_edge4_Node000004_Node000005"><a xlink:title=" ">
<path fill="none" stroke="#63b8ff" d="M539.54,-94.86C549.52,-93.66 559.74,-92.43 569.73,-91.23"/>
<polygon fill="#63b8ff" stroke="#63b8ff" points="569.87,-94.74 579.38,-90.07 569.03,-87.79 569.87,-94.74"/>
</a>
</g>
</g>
</g>
</svg>
