<?xml version="1.0" encoding="UTF-8" standalone="no"?>
<!DOCTYPE svg PUBLIC "-//W3C//DTD SVG 1.1//EN"
 "http://www.w3.org/Graphics/SVG/1.1/DTD/svg11.dtd">
<!-- Generated by graphviz version 12.1.2 (20240928.0832)
 -->
<!-- Title: VRE::VRE_SwapChain::CreateRenderPass Pages: 1 -->
<svg width="533pt" height="128pt"
 viewBox="0.00 0.00 533.00 128.00" xmlns="http://www.w3.org/2000/svg" xmlns:xlink="http://www.w3.org/1999/xlink">
<g id="graph0" class="graph" transform="scale(1 1) rotate(0) translate(4 124)">
<title>VRE::VRE_SwapChain::CreateRenderPass</title>
<!-- Node1 -->
<g id="Node000001" class="node">
<title>Node1</title>
<g id="a_Node000001"><a xlink:title=" ">
<polygon fill="#999999" stroke="#666666" points="119.5,-70 0,-70 0,-38 119.5,-38 119.5,-70"/>
<text text-anchor="start" x="8" y="-56.5" font-family="Helvetica,sans-Serif" font-size="10.00">VRE::VRE_SwapChain</text>
<text text-anchor="middle" x="59.75" y="-44.5" font-family="Helvetica,sans-Serif" font-size="10.00">::CreateRenderPass</text>
</a>
</g>
</g>
<!-- Node2 -->
<g id="Node000002" class="node">
<title>Node2</title>
<g id="a_Node000002"><a xlink:href="class_v_r_e_1_1_v_r_e___swap_chain.html#a4eb9ee8a5485a62ffa0bdd4f1494ea79" target="_top" xlink:title=" ">
<polygon fill="white" stroke="#666666" points="297.5,-120 178,-120 178,-88 297.5,-88 297.5,-120"/>
<text text-anchor="start" x="186" y="-106.5" font-family="Helvetica,sans-Serif" font-size="10.00">VRE::VRE_SwapChain</text>
<text text-anchor="middle" x="237.75" y="-94.5" font-family="Helvetica,sans-Serif" font-size="10.00">::FindDepthFormat</text>
</a>
</g>
</g>
<!-- Node1&#45;&gt;Node2 -->
<g id="edge1_Node000001_Node000002" class="edge">
<title>Node1&#45;&gt;Node2</title>
<g id="a_edge1_Node000001_Node000002"><a xlink:title=" ">
<path fill="none" stroke="#63b8ff" d="M118.38,-70.37C134.25,-74.88 151.63,-79.82 168.06,-84.48"/>
<polygon fill="#63b8ff" stroke="#63b8ff" points="166.66,-87.73 177.23,-87.09 168.57,-80.99 166.66,-87.73"/>
</a>
</g>
</g>
<!-- Node4 -->
<g id="Node000004" class="node">
<title>Node4</title>
<g id="a_Node000004"><a xlink:href="class_v_r_e_1_1_v_r_e___swap_chain.html#af35795133f50bcf3d79f55e2cc202cd6" target="_top" xlink:title=" ">
<polygon fill="white" stroke="#666666" points="310.62,-70 164.88,-70 164.88,-38 310.62,-38 310.62,-70"/>
<text text-anchor="start" x="172.88" y="-56.5" font-family="Helvetica,sans-Serif" font-size="10.00">VRE::VRE_SwapChain</text>
<text text-anchor="middle" x="237.75" y="-44.5" font-family="Helvetica,sans-Serif" font-size="10.00">::GetSwapChainImageFormat</text>
</a>
</g>
</g>
<!-- Node1&#45;&gt;Node4 -->
<g id="edge3_Node000001_Node000004" class="edge">
<title>Node1&#45;&gt;Node4</title>
<g id="a_edge3_Node000001_Node000004"><a xlink:title=" ">
<path fill="none" stroke="#63b8ff" d="M119.85,-54C130.63,-54 142.07,-54 153.4,-54"/>
<polygon fill="#63b8ff" stroke="#63b8ff" points="153.16,-57.5 163.16,-54 153.16,-50.5 153.16,-57.5"/>
</a>
</g>
</g>
<!-- Node5 -->
<g id="Node000005" class="node">
<title>Node5</title>
<g id="a_Node000005"><a xlink:href="class_v_r_e_1_1_v_r_e___device.html#a3b6e89f878e54464b3a03c1e4e84c52e" target="_top" xlink:title=" ">
<polygon fill="white" stroke="#666666" points="320,-20 155.5,-20 155.5,0 320,0 320,-20"/>
<text text-anchor="middle" x="237.75" y="-6.5" font-family="Helvetica,sans-Serif" font-size="10.00">VRE::VRE_Device::GetVkDevice</text>
</a>
</g>
</g>
<!-- Node1&#45;&gt;Node5 -->
<g id="edge4_Node000001_Node000005" class="edge">
<title>Node1&#45;&gt;Node5</title>
<g id="a_edge4_Node000001_Node000005"><a xlink:title=" ">
<path fill="none" stroke="#63b8ff" d="M119.82,-38.14C131.62,-35.05 143.94,-31.88 155.5,-29 163.43,-27.03 171.8,-25 180.04,-23.04"/>
<polygon fill="#63b8ff" stroke="#63b8ff" points="180.74,-26.48 189.67,-20.77 179.14,-19.66 180.74,-26.48"/>
</a>
</g>
</g>
<!-- Node3 -->
<g id="Node000003" class="node">
<title>Node3</title>
<g id="a_Node000003"><a xlink:href="class_v_r_e_1_1_v_r_e___device.html#aaf3ae6a0100c9dca6974824bc3c607db" target="_top" xlink:title=" ">
<polygon fill="white" stroke="#666666" points="525,-120 356,-120 356,-88 525,-88 525,-120"/>
<text text-anchor="start" x="364" y="-106.5" font-family="Helvetica,sans-Serif" font-size="10.00">VRE::VRE_Device::FindSupported</text>
<text text-anchor="middle" x="440.5" y="-94.5" font-family="Helvetica,sans-Serif" font-size="10.00">Format</text>
</a>
</g>
</g>
<!-- Node2&#45;&gt;Node3 -->
<g id="edge2_Node000002_Node000003" class="edge">
<title>Node2&#45;&gt;Node3</title>
<g id="a_edge2_Node000002_Node000003"><a xlink:title=" ">
<path fill="none" stroke="#63b8ff" d="M297.9,-104C312.51,-104 328.53,-104 344.38,-104"/>
<polygon fill="#63b8ff" stroke="#63b8ff" points="344.35,-107.5 354.35,-104 344.35,-100.5 344.35,-107.5"/>
</a>
</g>
</g>
</g>
</svg>
