<?xml version="1.0" encoding="UTF-8" standalone="no"?>
<!DOCTYPE svg PUBLIC "-//W3C//DTD SVG 1.1//EN"
 "http://www.w3.org/Graphics/SVG/1.1/DTD/svg11.dtd">
<!-- Generated by graphviz version 12.1.2 (20240928.0832)
 -->
<!-- Title: VRE::VRE_App::Init Pages: 1 -->
<svg width="309pt" height="390pt"
 viewBox="0.00 0.00 308.50 390.00" xmlns="http://www.w3.org/2000/svg" xmlns:xlink="http://www.w3.org/1999/xlink">

<svg id="main" version="1.1" xmlns="http://www.w3.org/2000/svg" xmlns:xlink="http://www.w3.org/1999/xlink" xml:space="preserve">

<style type="text/css"><![CDATA[
.node, .edge {opacity: 0.7;}
.node.selected, .edge.selected {opacity: 1;}
.edge:hover path { stroke: red; }
.edge:hover polygon { stroke: red; fill: red; }
]]></style>
<script type="application/ecmascript" xlink:href="svg.min.js"/>
<svg id="graph" class="graph">
<g id="graph0" class="graph" transform="scale(1 1) rotate(0) translate(4 386)">
<title>VRE::VRE_App::Init</title>
<!-- Node1 -->
<g id="Node000001" class="node">
<title>Node1</title>
<g id="a_Node000001"><a xlink:title=" ">
<polygon fill="#999999" stroke="#666666" points="106,-201 0,-201 0,-181 106,-181 106,-201"/>
<text text-anchor="middle" x="53" y="-187.5" font-family="Helvetica,sans-Serif" font-size="10.00">VRE::VRE_App::Init</text>
</a>
</g>
</g>
<!-- Node2 -->
<g id="Node000002" class="node">
<title>Node2</title>
<g id="a_Node000002"><a xlink:href="class_v_r_e_1_1_v_r_e___descriptor_set_layout_1_1_builder.html#a30b7ba2e3dd8f6a786f516714387c2fe" target="_top" xlink:title=" ">
<polygon fill="white" stroke="#666666" points="300.5,-382 142,-382 142,-350 300.5,-350 300.5,-382"/>
<text text-anchor="start" x="150" y="-368.5" font-family="Helvetica,sans-Serif" font-size="10.00">VRE::VRE_DescriptorSetLayout</text>
<text text-anchor="middle" x="221.25" y="-356.5" font-family="Helvetica,sans-Serif" font-size="10.00">::Builder::AddBinding</text>
</a>
</g>
</g>
<!-- Node1&#45;&gt;Node2 -->
<g id="edge1_Node000001_Node000002" class="edge">
<title>Node1&#45;&gt;Node2</title>
<g id="a_edge1_Node000001_Node000002"><a xlink:title=" ">
<path fill="none" stroke="#63b8ff" d="M57.2,-201.48C66.05,-228.69 93.43,-302.15 142,-341 143.29,-342.03 144.62,-343.02 145.99,-343.97"/>
<polygon fill="#63b8ff" stroke="#63b8ff" points="143.8,-346.74 154.18,-348.87 147.4,-340.73 143.8,-346.74"/>
</a>
</g>
</g>
<!-- Node3 -->
<g id="Node000003" class="node">
<title>Node3</title>
<g id="a_Node000003"><a xlink:href="class_v_r_e_1_1_v_r_e___descriptor_pool_1_1_builder.html#a0dd8df8b0c0eccf5137addb4ede41136" target="_top" xlink:title=" ">
<polygon fill="white" stroke="#666666" points="288.12,-332 154.38,-332 154.38,-300 288.12,-300 288.12,-332"/>
<text text-anchor="start" x="162.38" y="-318.5" font-family="Helvetica,sans-Serif" font-size="10.00">VRE::VRE_DescriptorPool</text>
<text text-anchor="middle" x="221.25" y="-306.5" font-family="Helvetica,sans-Serif" font-size="10.00">::Builder::AddPoolSize</text>
</a>
</g>
</g>
<!-- Node1&#45;&gt;Node3 -->
<g id="edge2_Node000001_Node000003" class="edge">
<title>Node1&#45;&gt;Node3</title>
<g id="a_edge2_Node000001_Node000003"><a xlink:title=" ">
<path fill="none" stroke="#63b8ff" d="M60.38,-201.43C73.28,-221.68 104.45,-266.44 142,-291 143.96,-292.28 145.99,-293.5 148.07,-294.66"/>
<polygon fill="#63b8ff" stroke="#63b8ff" points="146.27,-297.67 156.78,-299 149.39,-291.41 146.27,-297.67"/>
</a>
</g>
</g>
<!-- Node4 -->
<g id="Node000004" class="node">
<title>Node4</title>
<g id="a_Node000004"><a xlink:href="class_v_r_e_1_1_v_r_e___descriptor_pool_1_1_builder.html#a95e644dcedccbc892e1f8bd1fcf3706b" target="_top" xlink:title=" ">
<polygon fill="white" stroke="#666666" points="288.12,-282 154.38,-282 154.38,-250 288.12,-250 288.12,-282"/>
<text text-anchor="start" x="162.38" y="-268.5" font-family="Helvetica,sans-Serif" font-size="10.00">VRE::VRE_DescriptorPool</text>
<text text-anchor="middle" x="221.25" y="-256.5" font-family="Helvetica,sans-Serif" font-size="10.00">::Builder::Build</text>
</a>
</g>
</g>
<!-- Node1&#45;&gt;Node4 -->
<g id="edge3_Node000001_Node000004" class="edge">
<title>Node1&#45;&gt;Node4</title>
<g id="a_edge3_Node000001_Node000004"><a xlink:title=" ">
<path fill="none" stroke="#63b8ff" d="M70.02,-201.45C87.26,-212.38 115.77,-229.51 142,-241 145.75,-242.64 149.64,-244.23 153.59,-245.76"/>
<polygon fill="#63b8ff" stroke="#63b8ff" points="152.14,-248.95 162.73,-249.12 154.56,-242.38 152.14,-248.95"/>
</a>
</g>
</g>
<!-- Node5 -->
<g id="Node000005" class="node">
<title>Node5</title>
<g id="a_Node000005"><a xlink:href="class_v_r_e_1_1_v_r_e___descriptor_set_layout_1_1_builder.html#acf404e08a52e7cddf3f10e6b126d8f0e" target="_top" xlink:title=" ">
<polygon fill="white" stroke="#666666" points="300.5,-232 142,-232 142,-200 300.5,-200 300.5,-232"/>
<text text-anchor="start" x="150" y="-218.5" font-family="Helvetica,sans-Serif" font-size="10.00">VRE::VRE_DescriptorSetLayout</text>
<text text-anchor="middle" x="221.25" y="-206.5" font-family="Helvetica,sans-Serif" font-size="10.00">::Builder::Build</text>
</a>
</g>
</g>
<!-- Node1&#45;&gt;Node5 -->
<g id="edge4_Node000001_Node000005" class="edge">
<title>Node1&#45;&gt;Node5</title>
<g id="a_edge4_Node000001_Node000005"><a xlink:title=" ">
<path fill="none" stroke="#63b8ff" d="M106.15,-198.84C113.94,-200.01 122.15,-201.25 130.46,-202.5"/>
<polygon fill="#63b8ff" stroke="#63b8ff" points="129.9,-205.95 140.31,-203.98 130.94,-199.03 129.9,-205.95"/>
</a>
</g>
</g>
<!-- Node6 -->
<g id="Node000006" class="node">
<title>Node6</title>
<g id="a_Node000006"><a xlink:href="class_v_r_e_1_1_v_r_e___descriptor_writer.html#a55cab3920a8f2dfbcbba0f3710cd373e" target="_top" xlink:title=" ">
<polygon fill="white" stroke="#666666" points="291.12,-182 151.38,-182 151.38,-150 291.12,-150 291.12,-182"/>
<text text-anchor="start" x="159.38" y="-168.5" font-family="Helvetica,sans-Serif" font-size="10.00">VRE::VRE_DescriptorWriter</text>
<text text-anchor="middle" x="221.25" y="-156.5" font-family="Helvetica,sans-Serif" font-size="10.00">::Build</text>
</a>
</g>
</g>
<!-- Node1&#45;&gt;Node6 -->
<g id="edge5_Node000001_Node000006" class="edge">
<title>Node1&#45;&gt;Node6</title>
<g id="a_edge5_Node000001_Node000006"><a xlink:title=" ">
<path fill="none" stroke="#63b8ff" d="M106.15,-183.16C116.79,-181.56 128.22,-179.84 139.59,-178.13"/>
<polygon fill="#63b8ff" stroke="#63b8ff" points="140.04,-181.6 149.41,-176.65 139,-174.68 140.04,-181.6"/>
</a>
</g>
</g>
<!-- Node7 -->
<g id="Node000007" class="node">
<title>Node7</title>
<g id="a_Node000007"><a xlink:href="class_v_r_e_1_1_v_r_e___descriptor_pool_1_1_builder.html#a1cef6583b5fa934410be226c1471bcc0" target="_top" xlink:title=" ">
<polygon fill="white" stroke="#666666" points="288.12,-132 154.38,-132 154.38,-100 288.12,-100 288.12,-132"/>
<text text-anchor="start" x="162.38" y="-118.5" font-family="Helvetica,sans-Serif" font-size="10.00">VRE::VRE_DescriptorPool</text>
<text text-anchor="middle" x="221.25" y="-106.5" font-family="Helvetica,sans-Serif" font-size="10.00">::Builder::SetMaxSets</text>
</a>
</g>
</g>
<!-- Node1&#45;&gt;Node7 -->
<g id="edge6_Node000001_Node000007" class="edge">
<title>Node1&#45;&gt;Node7</title>
<g id="a_edge6_Node000001_Node000007"><a xlink:title=" ">
<path fill="none" stroke="#63b8ff" d="M70.02,-180.55C87.26,-169.62 115.77,-152.49 142,-141 145.75,-139.36 149.64,-137.77 153.59,-136.24"/>
<polygon fill="#63b8ff" stroke="#63b8ff" points="154.56,-139.62 162.73,-132.88 152.14,-133.05 154.56,-139.62"/>
</a>
</g>
</g>
<!-- Node8 -->
<g id="Node000008" class="node">
<title>Node8</title>
<g id="a_Node000008"><a xlink:href="class_v_r_e_1_1_v_r_e___descriptor_pool_1_1_builder.html#a3ca8263cc05f8745916f7b8842a3f6d4" target="_top" xlink:title=" ">
<polygon fill="white" stroke="#666666" points="288.12,-82 154.38,-82 154.38,-50 288.12,-50 288.12,-82"/>
<text text-anchor="start" x="162.38" y="-68.5" font-family="Helvetica,sans-Serif" font-size="10.00">VRE::VRE_DescriptorPool</text>
<text text-anchor="middle" x="221.25" y="-56.5" font-family="Helvetica,sans-Serif" font-size="10.00">::Builder::SetPoolFlags</text>
</a>
</g>
</g>
<!-- Node1&#45;&gt;Node8 -->
<g id="edge7_Node000001_Node000008" class="edge">
<title>Node1&#45;&gt;Node8</title>
<g id="a_edge7_Node000001_Node000008"><a xlink:title=" ">
<path fill="none" stroke="#63b8ff" d="M60.38,-180.57C73.28,-160.32 104.45,-115.56 142,-91 143.96,-89.72 145.99,-88.5 148.07,-87.34"/>
<polygon fill="#63b8ff" stroke="#63b8ff" points="149.39,-90.59 156.78,-83 146.27,-84.33 149.39,-90.59"/>
</a>
</g>
</g>
<!-- Node9 -->
<g id="Node000009" class="node">
<title>Node9</title>
<g id="a_Node000009"><a xlink:href="class_v_r_e_1_1_v_r_e___descriptor_writer.html#a99d4a37512a0e259687703f68c2eab76" target="_top" xlink:title=" ">
<polygon fill="white" stroke="#666666" points="291.12,-32 151.38,-32 151.38,0 291.12,0 291.12,-32"/>
<text text-anchor="start" x="159.38" y="-18.5" font-family="Helvetica,sans-Serif" font-size="10.00">VRE::VRE_DescriptorWriter</text>
<text text-anchor="middle" x="221.25" y="-6.5" font-family="Helvetica,sans-Serif" font-size="10.00">::WriteBuffer</text>
</a>
</g>
</g>
<!-- Node1&#45;&gt;Node9 -->
<g id="edge8_Node000001_Node000009" class="edge">
<title>Node1&#45;&gt;Node9</title>
<g id="a_edge8_Node000001_Node000009"><a xlink:title=" ">
<path fill="none" stroke="#63b8ff" d="M57.2,-180.52C66.05,-153.31 93.43,-79.85 142,-41 143.29,-39.97 144.62,-38.98 145.99,-38.03"/>
<polygon fill="#63b8ff" stroke="#63b8ff" points="147.4,-41.27 154.18,-33.13 143.8,-35.26 147.4,-41.27"/>
</a>
</g>
</g>
</g>
</svg>
</svg>

<style type='text/css'>
<![CDATA[
[data-mouse-over-selected='false'] { opacity: 0.7; }
[data-mouse-over-selected='true']  { opacity: 1.0; }
]]>
</style>
<script type="application/ecmascript"><![CDATA[
document.addEventListener('DOMContentLoaded', (event) => {
  highlightEdges();
  highlightAdjacentNodes();
});
]]></script>
</svg>
