<?xml version="1.0" encoding="UTF-8" standalone="no"?>
<!DOCTYPE svg PUBLIC "-//W3C//DTD SVG 1.1//EN"
 "http://www.w3.org/Graphics/SVG/1.1/DTD/svg11.dtd">
<!-- Generated by graphviz version 12.1.2 (20240928.0832)
 -->
<!-- Title: VRE::VRE_Renderer::VRE_Renderer Pages: 1 -->
<svg width="280pt" height="90pt"
 viewBox="0.00 0.00 280.00 90.00" xmlns="http://www.w3.org/2000/svg" xmlns:xlink="http://www.w3.org/1999/xlink">
<g id="graph0" class="graph" transform="scale(1 1) rotate(0) translate(4 86)">
<title>VRE::VRE_Renderer::VRE_Renderer</title>
<!-- Node1 -->
<g id="Node000001" class="node">
<title>Node1</title>
<g id="a_Node000001"><a xlink:title=" ">
<polygon fill="#999999" stroke="#666666" points="115,-57 0,-57 0,-25 115,-25 115,-57"/>
<text text-anchor="start" x="8" y="-43.5" font-family="Helvetica,sans-Serif" font-size="10.00">VRE::VRE_Renderer::</text>
<text text-anchor="middle" x="57.5" y="-31.5" font-family="Helvetica,sans-Serif" font-size="10.00">VRE_Renderer</text>
</a>
</g>
</g>
<!-- Node2 -->
<g id="Node000002" class="node">
<title>Node2</title>
<g id="a_Node000002"><a xlink:href="class_v_r_e_1_1_v_r_e___renderer.html#a0b9f58e169ca5a32ae3a1384eb5d778e" target="_top" xlink:title=" ">
<polygon fill="white" stroke="#666666" points="272,-82 151,-82 151,-50 272,-50 272,-82"/>
<text text-anchor="start" x="159" y="-68.5" font-family="Helvetica,sans-Serif" font-size="10.00">VRE::VRE_Renderer::</text>
<text text-anchor="middle" x="211.5" y="-56.5" font-family="Helvetica,sans-Serif" font-size="10.00">CreateCommandBuffers</text>
</a>
</g>
</g>
<!-- Node1&#45;&gt;Node2 -->
<g id="edge1_Node000001_Node000002" class="edge">
<title>Node1&#45;&gt;Node2</title>
<g id="a_edge1_Node000001_Node000002"><a xlink:title=" ">
<path fill="none" stroke="#63b8ff" d="M115.1,-50.31C122.96,-51.6 131.12,-52.94 139.2,-54.27"/>
<polygon fill="#63b8ff" stroke="#63b8ff" points="138.62,-57.72 149.05,-55.89 139.75,-50.82 138.62,-57.72"/>
</a>
</g>
</g>
<!-- Node3 -->
<g id="Node000003" class="node">
<title>Node3</title>
<g id="a_Node000003"><a xlink:href="class_v_r_e_1_1_v_r_e___renderer.html#a93eaa61fbc695db703560760dd6db5a7" target="_top" xlink:title=" ">
<polygon fill="white" stroke="#666666" points="269,-32 154,-32 154,0 269,0 269,-32"/>
<text text-anchor="start" x="162" y="-18.5" font-family="Helvetica,sans-Serif" font-size="10.00">VRE::VRE_Renderer::</text>
<text text-anchor="middle" x="211.5" y="-6.5" font-family="Helvetica,sans-Serif" font-size="10.00">RecreateSwapChain</text>
</a>
</g>
</g>
<!-- Node1&#45;&gt;Node3 -->
<g id="edge2_Node000001_Node000003" class="edge">
<title>Node1&#45;&gt;Node3</title>
<g id="a_edge2_Node000001_Node000003"><a xlink:title=" ">
<path fill="none" stroke="#63b8ff" d="M115.1,-31.69C124.04,-30.22 133.37,-28.69 142.53,-27.18"/>
<polygon fill="#63b8ff" stroke="#63b8ff" points="142.81,-30.68 152.11,-25.6 141.67,-23.77 142.81,-30.68"/>
</a>
</g>
</g>
</g>
</svg>
