<?xml version="1.0" encoding="UTF-8" standalone="no"?>
<!DOCTYPE svg PUBLIC "-//W3C//DTD SVG 1.1//EN"
 "http://www.w3.org/Graphics/SVG/1.1/DTD/svg11.dtd">
<!-- Generated by graphviz version 12.1.2 (20240928.0832)
 -->
<!-- Title: VRE::VRE_SwapChain::CreateSwapChain Pages: 1 -->
<svg width="689pt" height="316pt"
 viewBox="0.00 0.00 689.25 316.00" xmlns="http://www.w3.org/2000/svg" xmlns:xlink="http://www.w3.org/1999/xlink">
<g id="graph0" class="graph" transform="scale(1 1) rotate(0) translate(4 312)">
<title>VRE::VRE_SwapChain::CreateSwapChain</title>
<!-- Node1 -->
<g id="Node000001" class="node">
<title>Node1</title>
<g id="a_Node000001"><a xlink:title=" ">
<polygon fill="#999999" stroke="#666666" points="119.5,-158 0,-158 0,-126 119.5,-126 119.5,-158"/>
<text text-anchor="start" x="8" y="-144.5" font-family="Helvetica,sans-Serif" font-size="10.00">VRE::VRE_SwapChain</text>
<text text-anchor="middle" x="59.75" y="-132.5" font-family="Helvetica,sans-Serif" font-size="10.00">::CreateSwapChain</text>
</a>
</g>
</g>
<!-- Node2 -->
<g id="Node000002" class="node">
<title>Node2</title>
<g id="a_Node000002"><a xlink:href="class_v_r_e_1_1_v_r_e___swap_chain.html#a04cf5db3442eeef1af26ef00be8d9885" target="_top" xlink:title=" ">
<polygon fill="white" stroke="#666666" points="297.5,-308 178,-308 178,-276 297.5,-276 297.5,-308"/>
<text text-anchor="start" x="186" y="-294.5" font-family="Helvetica,sans-Serif" font-size="10.00">VRE::VRE_SwapChain</text>
<text text-anchor="middle" x="237.75" y="-282.5" font-family="Helvetica,sans-Serif" font-size="10.00">::ChooseSwapExtent</text>
</a>
</g>
</g>
<!-- Node1&#45;&gt;Node2 -->
<g id="edge1_Node000001_Node000002" class="edge">
<title>Node1&#45;&gt;Node2</title>
<g id="a_edge1_Node000001_Node000002"><a xlink:title=" ">
<path fill="none" stroke="#63b8ff" d="M68.82,-158.42C82.78,-185.14 113.99,-237.97 155.5,-267 159.31,-269.66 163.41,-272.05 167.68,-274.19"/>
<polygon fill="#63b8ff" stroke="#63b8ff" points="165.92,-277.24 176.48,-278.12 168.78,-270.85 165.92,-277.24"/>
</a>
</g>
</g>
<!-- Node3 -->
<g id="Node000003" class="node">
<title>Node3</title>
<g id="a_Node000003"><a xlink:href="class_v_r_e_1_1_v_r_e___swap_chain.html#a6ad223607b459d6fa64c3ed2498797bf" target="_top" xlink:title=" ">
<polygon fill="white" stroke="#666666" points="306.88,-258 168.62,-258 168.62,-226 306.88,-226 306.88,-258"/>
<text text-anchor="start" x="176.62" y="-244.5" font-family="Helvetica,sans-Serif" font-size="10.00">VRE::VRE_SwapChain</text>
<text text-anchor="middle" x="237.75" y="-232.5" font-family="Helvetica,sans-Serif" font-size="10.00">::ChooseSwapPresentMode</text>
</a>
</g>
</g>
<!-- Node1&#45;&gt;Node3 -->
<g id="edge2_Node000001_Node000003" class="edge">
<title>Node1&#45;&gt;Node3</title>
<g id="a_edge2_Node000001_Node000003"><a xlink:title=" ">
<path fill="none" stroke="#63b8ff" d="M77.19,-158.2C95.1,-175.03 125.23,-201.09 155.5,-217 158.32,-218.48 161.24,-219.89 164.22,-221.23"/>
<polygon fill="#63b8ff" stroke="#63b8ff" points="162.58,-224.34 173.16,-224.93 165.26,-217.87 162.58,-224.34"/>
</a>
</g>
</g>
<!-- Node4 -->
<g id="Node000004" class="node">
<title>Node4</title>
<g id="a_Node000004"><a xlink:href="class_v_r_e_1_1_v_r_e___swap_chain.html#a575538bcc18de6bcb5278af1a27e50d2" target="_top" xlink:title=" ">
<polygon fill="white" stroke="#666666" points="310.25,-208 165.25,-208 165.25,-176 310.25,-176 310.25,-208"/>
<text text-anchor="start" x="173.25" y="-194.5" font-family="Helvetica,sans-Serif" font-size="10.00">VRE::VRE_SwapChain</text>
<text text-anchor="middle" x="237.75" y="-182.5" font-family="Helvetica,sans-Serif" font-size="10.00">::ChooseSwapSurfaceFormat</text>
</a>
</g>
</g>
<!-- Node1&#45;&gt;Node4 -->
<g id="edge3_Node000001_Node000004" class="edge">
<title>Node1&#45;&gt;Node4</title>
<g id="a_edge3_Node000001_Node000004"><a xlink:title=" ">
<path fill="none" stroke="#63b8ff" d="M118.38,-158.37C134.25,-162.88 151.63,-167.82 168.06,-172.48"/>
<polygon fill="#63b8ff" stroke="#63b8ff" points="166.66,-175.73 177.23,-175.09 168.57,-168.99 166.66,-175.73"/>
</a>
</g>
</g>
<!-- Node5 -->
<g id="Node000005" class="node">
<title>Node5</title>
<g id="a_Node000005"><a xlink:href="class_v_r_e_1_1_v_r_e___device.html#a69f90869ef38058b3880e3f87ae07ade" target="_top" xlink:title=" ">
<polygon fill="white" stroke="#666666" points="318.88,-158 156.62,-158 156.62,-126 318.88,-126 318.88,-158"/>
<text text-anchor="start" x="164.62" y="-144.5" font-family="Helvetica,sans-Serif" font-size="10.00">VRE::VRE_Device::FindPhysical</text>
<text text-anchor="middle" x="237.75" y="-132.5" font-family="Helvetica,sans-Serif" font-size="10.00">QueueFamilies</text>
</a>
</g>
</g>
<!-- Node1&#45;&gt;Node5 -->
<g id="edge4_Node000001_Node000005" class="edge">
<title>Node1&#45;&gt;Node5</title>
<g id="a_edge4_Node000001_Node000005"><a xlink:title=" ">
<path fill="none" stroke="#63b8ff" d="M119.85,-142C127.97,-142 136.46,-142 145,-142"/>
<polygon fill="#63b8ff" stroke="#63b8ff" points="144.72,-145.5 154.72,-142 144.72,-138.5 144.72,-145.5"/>
</a>
</g>
</g>
<!-- Node8 -->
<g id="Node000008" class="node">
<title>Node8</title>
<g id="a_Node000008"><a xlink:href="class_v_r_e_1_1_v_r_e___device.html#aaaf7ec5ac218bf43766fb3a61cc60965" target="_top" xlink:title=" ">
<polygon fill="white" stroke="#666666" points="311,-108 164.5,-108 164.5,-76 311,-76 311,-108"/>
<text text-anchor="start" x="172.5" y="-94.5" font-family="Helvetica,sans-Serif" font-size="10.00">VRE::VRE_Device::GetSwap</text>
<text text-anchor="middle" x="237.75" y="-82.5" font-family="Helvetica,sans-Serif" font-size="10.00">ChainSupport</text>
</a>
</g>
</g>
<!-- Node1&#45;&gt;Node8 -->
<g id="edge7_Node000001_Node000008" class="edge">
<title>Node1&#45;&gt;Node8</title>
<g id="a_edge7_Node000001_Node000008"><a xlink:title=" ">
<path fill="none" stroke="#63b8ff" d="M118.38,-125.63C134.25,-121.12 151.63,-116.18 168.06,-111.52"/>
<polygon fill="#63b8ff" stroke="#63b8ff" points="168.57,-115.01 177.23,-108.91 166.66,-108.27 168.57,-115.01"/>
</a>
</g>
</g>
<!-- Node10 -->
<g id="Node000010" class="node">
<title>Node10</title>
<g id="a_Node000010"><a xlink:href="class_v_r_e_1_1_v_r_e___device.html#a3b6e89f878e54464b3a03c1e4e84c52e" target="_top" xlink:title=" ">
<polygon fill="white" stroke="#666666" points="320,-58 155.5,-58 155.5,-38 320,-38 320,-58"/>
<text text-anchor="middle" x="237.75" y="-44.5" font-family="Helvetica,sans-Serif" font-size="10.00">VRE::VRE_Device::GetVkDevice</text>
</a>
</g>
</g>
<!-- Node1&#45;&gt;Node10 -->
<g id="edge9_Node000001_Node000010" class="edge">
<title>Node1&#45;&gt;Node10</title>
<g id="a_edge9_Node000001_Node000010"><a xlink:title=" ">
<path fill="none" stroke="#63b8ff" d="M76.66,-125.7C94.34,-108.53 124.51,-81.95 155.5,-67 159.24,-65.19 163.17,-63.55 167.18,-62.07"/>
<polygon fill="#63b8ff" stroke="#63b8ff" points="168.16,-65.43 176.54,-58.95 165.95,-58.79 168.16,-65.43"/>
</a>
</g>
</g>
<!-- Node11 -->
<g id="Node000011" class="node">
<title>Node11</title>
<g id="a_Node000011"><a xlink:href="class_v_r_e_1_1_v_r_e___device.html#a5f4c0b082d6998ad49fc5616e8c3d48b" target="_top" xlink:title=" ">
<polygon fill="white" stroke="#666666" points="307.62,-20 167.88,-20 167.88,0 307.62,0 307.62,-20"/>
<text text-anchor="middle" x="237.75" y="-6.5" font-family="Helvetica,sans-Serif" font-size="10.00">VRE::VRE_Device::Surface</text>
</a>
</g>
</g>
<!-- Node1&#45;&gt;Node11 -->
<g id="edge10_Node000001_Node000011" class="edge">
<title>Node1&#45;&gt;Node11</title>
<g id="a_edge10_Node000001_Node000011"><a xlink:title=" ">
<path fill="none" stroke="#63b8ff" d="M69.73,-125.66C84.32,-100.74 115.59,-53.54 155.5,-29 157.93,-27.51 160.47,-26.13 163.08,-24.86"/>
<polygon fill="#63b8ff" stroke="#63b8ff" points="164.21,-28.18 172.07,-21.07 161.5,-21.73 164.21,-28.18"/>
</a>
</g>
</g>
<!-- Node6 -->
<g id="Node000006" class="node">
<title>Node6</title>
<g id="a_Node000006"><a xlink:href="class_v_r_e_1_1_v_r_e___device.html#a49164610e5f85640d5a4f59613cb3539" target="_top" xlink:title=" ">
<polygon fill="white" stroke="#666666" points="511.12,-158 357.88,-158 357.88,-126 511.12,-126 511.12,-158"/>
<text text-anchor="start" x="365.88" y="-144.5" font-family="Helvetica,sans-Serif" font-size="10.00">VRE::VRE_Device::FindQueue</text>
<text text-anchor="middle" x="434.5" y="-132.5" font-family="Helvetica,sans-Serif" font-size="10.00">Families</text>
</a>
</g>
</g>
<!-- Node5&#45;&gt;Node6 -->
<g id="edge5_Node000005_Node000006" class="edge">
<title>Node5&#45;&gt;Node6</title>
<g id="a_edge5_Node000005_Node000006"><a xlink:title=" ">
<path fill="none" stroke="#63b8ff" d="M319.37,-142C328.27,-142 337.37,-142 346.34,-142"/>
<polygon fill="#63b8ff" stroke="#63b8ff" points="346.12,-145.5 356.12,-142 346.12,-138.5 346.12,-145.5"/>
</a>
</g>
</g>
<!-- Node7 -->
<g id="Node000007" class="node">
<title>Node7</title>
<g id="a_Node000007"><a xlink:href="struct_v_r_e_1_1_queue_family_indices.html#a163909a037bfb772931414e8557eb5b6" target="_top" xlink:title=" ">
<polygon fill="white" stroke="#666666" points="681.25,-158 549,-158 549,-126 681.25,-126 681.25,-158"/>
<text text-anchor="start" x="557" y="-144.5" font-family="Helvetica,sans-Serif" font-size="10.00">VRE::QueueFamilyIndices</text>
<text text-anchor="middle" x="615.12" y="-132.5" font-family="Helvetica,sans-Serif" font-size="10.00">::IsComplete</text>
</a>
</g>
</g>
<!-- Node6&#45;&gt;Node7 -->
<g id="edge6_Node000006_Node000007" class="edge">
<title>Node6&#45;&gt;Node7</title>
<g id="a_edge6_Node000006_Node000007"><a xlink:title=" ">
<path fill="none" stroke="#63b8ff" d="M511.51,-142C520,-142 528.65,-142 537.15,-142"/>
<polygon fill="#63b8ff" stroke="#63b8ff" points="537.1,-145.5 547.1,-142 537.1,-138.5 537.1,-145.5"/>
</a>
</g>
</g>
<!-- Node9 -->
<g id="Node000009" class="node">
<title>Node9</title>
<g id="a_Node000009"><a xlink:href="class_v_r_e_1_1_v_r_e___device.html#a30a3edcffb07cf4e3050b438405bbd81" target="_top" xlink:title=" ">
<polygon fill="white" stroke="#666666" points="513,-108 356,-108 356,-76 513,-76 513,-108"/>
<text text-anchor="start" x="364" y="-94.5" font-family="Helvetica,sans-Serif" font-size="10.00">VRE::VRE_Device::QuerySwap</text>
<text text-anchor="middle" x="434.5" y="-82.5" font-family="Helvetica,sans-Serif" font-size="10.00">ChainSupport</text>
</a>
</g>
</g>
<!-- Node8&#45;&gt;Node9 -->
<g id="edge8_Node000008_Node000009" class="edge">
<title>Node8&#45;&gt;Node9</title>
<g id="a_edge8_Node000008_Node000009"><a xlink:title=" ">
<path fill="none" stroke="#63b8ff" d="M311.27,-92C322.02,-92 333.21,-92 344.26,-92"/>
<polygon fill="#63b8ff" stroke="#63b8ff" points="344.19,-95.5 354.19,-92 344.19,-88.5 344.19,-95.5"/>
</a>
</g>
</g>
</g>
</svg>
