<?xml version="1.0" encoding="UTF-8" standalone="no"?>
<!DOCTYPE svg PUBLIC "-//W3C//DTD SVG 1.1//EN"
 "http://www.w3.org/Graphics/SVG/1.1/DTD/svg11.dtd">
<!-- Generated by graphviz version 12.1.2 (20240928.0832)
 -->
<!-- Title: VRE::VRE_GameObjRenderSystem::CreatePipelineLayouts Pages: 1 -->
<svg width="378pt" height="90pt"
 viewBox="0.00 0.00 378.25 90.00" xmlns="http://www.w3.org/2000/svg" xmlns:xlink="http://www.w3.org/1999/xlink">
<g id="graph0" class="graph" transform="scale(1 1) rotate(0) translate(4 86)">
<title>VRE::VRE_GameObjRenderSystem::CreatePipelineLayouts</title>
<!-- Node1 -->
<g id="Node000001" class="node">
<title>Node1</title>
<g id="a_Node000001"><a xlink:title=" ">
<polygon fill="#999999" stroke="#666666" points="175.75,-57 0,-57 0,-25 175.75,-25 175.75,-57"/>
<text text-anchor="start" x="8" y="-43.5" font-family="Helvetica,sans-Serif" font-size="10.00">VRE::VRE_GameObjRenderSystem</text>
<text text-anchor="middle" x="87.88" y="-31.5" font-family="Helvetica,sans-Serif" font-size="10.00">::CreatePipelineLayouts</text>
</a>
</g>
</g>
<!-- Node2 -->
<g id="Node000002" class="node">
<title>Node2</title>
<g id="a_Node000002"><a xlink:href="class_v_r_e_1_1_v_r_e___descriptor_set_layout_1_1_builder.html#a30b7ba2e3dd8f6a786f516714387c2fe" target="_top" xlink:title=" ">
<polygon fill="white" stroke="#666666" points="370.25,-82 211.75,-82 211.75,-50 370.25,-50 370.25,-82"/>
<text text-anchor="start" x="219.75" y="-68.5" font-family="Helvetica,sans-Serif" font-size="10.00">VRE::VRE_DescriptorSetLayout</text>
<text text-anchor="middle" x="291" y="-56.5" font-family="Helvetica,sans-Serif" font-size="10.00">::Builder::AddBinding</text>
</a>
</g>
</g>
<!-- Node1&#45;&gt;Node2 -->
<g id="edge1_Node000001_Node000002" class="edge">
<title>Node1&#45;&gt;Node2</title>
<g id="a_edge1_Node000001_Node000002"><a xlink:title=" ">
<path fill="none" stroke="#63b8ff" d="M176.21,-51.86C184.14,-52.84 192.18,-53.84 200.12,-54.83"/>
<polygon fill="#63b8ff" stroke="#63b8ff" points="199.42,-58.27 209.78,-56.03 200.29,-51.32 199.42,-58.27"/>
</a>
</g>
</g>
<!-- Node3 -->
<g id="Node000003" class="node">
<title>Node3</title>
<g id="a_Node000003"><a xlink:href="class_v_r_e_1_1_v_r_e___descriptor_set_layout_1_1_builder.html#acf404e08a52e7cddf3f10e6b126d8f0e" target="_top" xlink:title=" ">
<polygon fill="white" stroke="#666666" points="370.25,-32 211.75,-32 211.75,0 370.25,0 370.25,-32"/>
<text text-anchor="start" x="219.75" y="-18.5" font-family="Helvetica,sans-Serif" font-size="10.00">VRE::VRE_DescriptorSetLayout</text>
<text text-anchor="middle" x="291" y="-6.5" font-family="Helvetica,sans-Serif" font-size="10.00">::Builder::Build</text>
</a>
</g>
</g>
<!-- Node1&#45;&gt;Node3 -->
<g id="edge2_Node000001_Node000003" class="edge">
<title>Node1&#45;&gt;Node3</title>
<g id="a_edge2_Node000001_Node000003"><a xlink:title=" ">
<path fill="none" stroke="#63b8ff" d="M176.21,-30.14C184.14,-29.16 192.18,-28.16 200.12,-27.17"/>
<polygon fill="#63b8ff" stroke="#63b8ff" points="200.29,-30.68 209.78,-25.97 199.42,-23.73 200.29,-30.68"/>
</a>
</g>
</g>
</g>
</svg>
