<?xml version="1.0" encoding="UTF-8" standalone="no"?>
<!DOCTYPE svg PUBLIC "-//W3C//DTD SVG 1.1//EN"
 "http://www.w3.org/Graphics/SVG/1.1/DTD/svg11.dtd">
<!-- Generated by graphviz version 12.1.2 (20240928.0832)
 -->
<!-- Title: VRE::VRE_App::VRE_App Pages: 1 -->
<svg width="481pt" height="390pt"
 viewBox="0.00 0.00 480.50 390.00" xmlns="http://www.w3.org/2000/svg" xmlns:xlink="http://www.w3.org/1999/xlink">

<svg id="main" version="1.1" xmlns="http://www.w3.org/2000/svg" xmlns:xlink="http://www.w3.org/1999/xlink" xml:space="preserve">

<style type="text/css"><![CDATA[
.node, .edge {opacity: 0.7;}
.node.selected, .edge.selected {opacity: 1;}
.edge:hover path { stroke: red; }
.edge:hover polygon { stroke: red; fill: red; }
]]></style>
<script type="application/ecmascript" xlink:href="svg.min.js"/>
<svg id="graph" class="graph">
<g id="graph0" class="graph" transform="scale(1 1) rotate(0) translate(4 386)">
<title>VRE::VRE_App::VRE_App</title>
<!-- Node1 -->
<g id="Node000001" class="node">
<title>Node1</title>
<g id="a_Node000001"><a xlink:title=" ">
<polygon fill="#999999" stroke="#666666" points="136,-201 0,-201 0,-181 136,-181 136,-201"/>
<text text-anchor="middle" x="68" y="-187.5" font-family="Helvetica,sans-Serif" font-size="10.00">VRE::VRE_App::VRE_App</text>
</a>
</g>
</g>
<!-- Node2 -->
<g id="Node000002" class="node">
<title>Node2</title>
<g id="a_Node000002"><a xlink:href="class_v_r_e_1_1_v_r_e___app.html#ae127f70c24bc2cfeb57fa90fb163b557" target="_top" xlink:title=" ">
<polygon fill="white" stroke="#666666" points="278,-201 172,-201 172,-181 278,-181 278,-201"/>
<text text-anchor="middle" x="225" y="-187.5" font-family="Helvetica,sans-Serif" font-size="10.00">VRE::VRE_App::Init</text>
</a>
</g>
</g>
<!-- Node1&#45;&gt;Node2 -->
<g id="edge1_Node000001_Node000002" class="edge">
<title>Node1&#45;&gt;Node2</title>
<g id="a_edge1_Node000001_Node000002"><a xlink:title=" ">
<path fill="none" stroke="#63b8ff" d="M136.08,-191C144.11,-191 152.29,-191 160.26,-191"/>
<polygon fill="#63b8ff" stroke="#63b8ff" points="160.25,-194.5 170.25,-191 160.25,-187.5 160.25,-194.5"/>
</a>
</g>
</g>
<!-- Node3 -->
<g id="Node000003" class="node">
<title>Node3</title>
<g id="a_Node000003"><a xlink:href="class_v_r_e_1_1_v_r_e___descriptor_set_layout_1_1_builder.html#a30b7ba2e3dd8f6a786f516714387c2fe" target="_top" xlink:title=" ">
<polygon fill="white" stroke="#666666" points="472.5,-382 314,-382 314,-350 472.5,-350 472.5,-382"/>
<text text-anchor="start" x="322" y="-368.5" font-family="Helvetica,sans-Serif" font-size="10.00">VRE::VRE_DescriptorSetLayout</text>
<text text-anchor="middle" x="393.25" y="-356.5" font-family="Helvetica,sans-Serif" font-size="10.00">::Builder::AddBinding</text>
</a>
</g>
</g>
<!-- Node2&#45;&gt;Node3 -->
<g id="edge2_Node000002_Node000003" class="edge">
<title>Node2&#45;&gt;Node3</title>
<g id="a_edge2_Node000002_Node000003"><a xlink:title=" ">
<path fill="none" stroke="#63b8ff" d="M229.2,-201.48C238.05,-228.69 265.43,-302.15 314,-341 315.29,-342.03 316.62,-343.02 317.99,-343.97"/>
<polygon fill="#63b8ff" stroke="#63b8ff" points="315.8,-346.74 326.18,-348.87 319.4,-340.73 315.8,-346.74"/>
</a>
</g>
</g>
<!-- Node4 -->
<g id="Node000004" class="node">
<title>Node4</title>
<g id="a_Node000004"><a xlink:href="class_v_r_e_1_1_v_r_e___descriptor_pool_1_1_builder.html#a0dd8df8b0c0eccf5137addb4ede41136" target="_top" xlink:title=" ">
<polygon fill="white" stroke="#666666" points="460.12,-332 326.38,-332 326.38,-300 460.12,-300 460.12,-332"/>
<text text-anchor="start" x="334.38" y="-318.5" font-family="Helvetica,sans-Serif" font-size="10.00">VRE::VRE_DescriptorPool</text>
<text text-anchor="middle" x="393.25" y="-306.5" font-family="Helvetica,sans-Serif" font-size="10.00">::Builder::AddPoolSize</text>
</a>
</g>
</g>
<!-- Node2&#45;&gt;Node4 -->
<g id="edge3_Node000002_Node000004" class="edge">
<title>Node2&#45;&gt;Node4</title>
<g id="a_edge3_Node000002_Node000004"><a xlink:title=" ">
<path fill="none" stroke="#63b8ff" d="M232.38,-201.43C245.28,-221.68 276.45,-266.44 314,-291 315.96,-292.28 317.99,-293.5 320.07,-294.66"/>
<polygon fill="#63b8ff" stroke="#63b8ff" points="318.27,-297.67 328.78,-299 321.39,-291.41 318.27,-297.67"/>
</a>
</g>
</g>
<!-- Node5 -->
<g id="Node000005" class="node">
<title>Node5</title>
<g id="a_Node000005"><a xlink:href="class_v_r_e_1_1_v_r_e___descriptor_pool_1_1_builder.html#a95e644dcedccbc892e1f8bd1fcf3706b" target="_top" xlink:title=" ">
<polygon fill="white" stroke="#666666" points="460.12,-282 326.38,-282 326.38,-250 460.12,-250 460.12,-282"/>
<text text-anchor="start" x="334.38" y="-268.5" font-family="Helvetica,sans-Serif" font-size="10.00">VRE::VRE_DescriptorPool</text>
<text text-anchor="middle" x="393.25" y="-256.5" font-family="Helvetica,sans-Serif" font-size="10.00">::Builder::Build</text>
</a>
</g>
</g>
<!-- Node2&#45;&gt;Node5 -->
<g id="edge4_Node000002_Node000005" class="edge">
<title>Node2&#45;&gt;Node5</title>
<g id="a_edge4_Node000002_Node000005"><a xlink:title=" ">
<path fill="none" stroke="#63b8ff" d="M242.02,-201.45C259.26,-212.38 287.77,-229.51 314,-241 317.75,-242.64 321.64,-244.23 325.59,-245.76"/>
<polygon fill="#63b8ff" stroke="#63b8ff" points="324.14,-248.95 334.73,-249.12 326.56,-242.38 324.14,-248.95"/>
</a>
</g>
</g>
<!-- Node6 -->
<g id="Node000006" class="node">
<title>Node6</title>
<g id="a_Node000006"><a xlink:href="class_v_r_e_1_1_v_r_e___descriptor_set_layout_1_1_builder.html#acf404e08a52e7cddf3f10e6b126d8f0e" target="_top" xlink:title=" ">
<polygon fill="white" stroke="#666666" points="472.5,-232 314,-232 314,-200 472.5,-200 472.5,-232"/>
<text text-anchor="start" x="322" y="-218.5" font-family="Helvetica,sans-Serif" font-size="10.00">VRE::VRE_DescriptorSetLayout</text>
<text text-anchor="middle" x="393.25" y="-206.5" font-family="Helvetica,sans-Serif" font-size="10.00">::Builder::Build</text>
</a>
</g>
</g>
<!-- Node2&#45;&gt;Node6 -->
<g id="edge5_Node000002_Node000006" class="edge">
<title>Node2&#45;&gt;Node6</title>
<g id="a_edge5_Node000002_Node000006"><a xlink:title=" ">
<path fill="none" stroke="#63b8ff" d="M278.15,-198.84C285.94,-200.01 294.15,-201.25 302.46,-202.5"/>
<polygon fill="#63b8ff" stroke="#63b8ff" points="301.9,-205.95 312.31,-203.98 302.94,-199.03 301.9,-205.95"/>
</a>
</g>
</g>
<!-- Node7 -->
<g id="Node000007" class="node">
<title>Node7</title>
<g id="a_Node000007"><a xlink:href="class_v_r_e_1_1_v_r_e___descriptor_writer.html#a55cab3920a8f2dfbcbba0f3710cd373e" target="_top" xlink:title=" ">
<polygon fill="white" stroke="#666666" points="463.12,-182 323.38,-182 323.38,-150 463.12,-150 463.12,-182"/>
<text text-anchor="start" x="331.38" y="-168.5" font-family="Helvetica,sans-Serif" font-size="10.00">VRE::VRE_DescriptorWriter</text>
<text text-anchor="middle" x="393.25" y="-156.5" font-family="Helvetica,sans-Serif" font-size="10.00">::Build</text>
</a>
</g>
</g>
<!-- Node2&#45;&gt;Node7 -->
<g id="edge6_Node000002_Node000007" class="edge">
<title>Node2&#45;&gt;Node7</title>
<g id="a_edge6_Node000002_Node000007"><a xlink:title=" ">
<path fill="none" stroke="#63b8ff" d="M278.15,-183.16C288.79,-181.56 300.22,-179.84 311.59,-178.13"/>
<polygon fill="#63b8ff" stroke="#63b8ff" points="312.04,-181.6 321.41,-176.65 311,-174.68 312.04,-181.6"/>
</a>
</g>
</g>
<!-- Node8 -->
<g id="Node000008" class="node">
<title>Node8</title>
<g id="a_Node000008"><a xlink:href="class_v_r_e_1_1_v_r_e___descriptor_pool_1_1_builder.html#a1cef6583b5fa934410be226c1471bcc0" target="_top" xlink:title=" ">
<polygon fill="white" stroke="#666666" points="460.12,-132 326.38,-132 326.38,-100 460.12,-100 460.12,-132"/>
<text text-anchor="start" x="334.38" y="-118.5" font-family="Helvetica,sans-Serif" font-size="10.00">VRE::VRE_DescriptorPool</text>
<text text-anchor="middle" x="393.25" y="-106.5" font-family="Helvetica,sans-Serif" font-size="10.00">::Builder::SetMaxSets</text>
</a>
</g>
</g>
<!-- Node2&#45;&gt;Node8 -->
<g id="edge7_Node000002_Node000008" class="edge">
<title>Node2&#45;&gt;Node8</title>
<g id="a_edge7_Node000002_Node000008"><a xlink:title=" ">
<path fill="none" stroke="#63b8ff" d="M242.02,-180.55C259.26,-169.62 287.77,-152.49 314,-141 317.75,-139.36 321.64,-137.77 325.59,-136.24"/>
<polygon fill="#63b8ff" stroke="#63b8ff" points="326.56,-139.62 334.73,-132.88 324.14,-133.05 326.56,-139.62"/>
</a>
</g>
</g>
<!-- Node9 -->
<g id="Node000009" class="node">
<title>Node9</title>
<g id="a_Node000009"><a xlink:href="class_v_r_e_1_1_v_r_e___descriptor_pool_1_1_builder.html#a3ca8263cc05f8745916f7b8842a3f6d4" target="_top" xlink:title=" ">
<polygon fill="white" stroke="#666666" points="460.12,-82 326.38,-82 326.38,-50 460.12,-50 460.12,-82"/>
<text text-anchor="start" x="334.38" y="-68.5" font-family="Helvetica,sans-Serif" font-size="10.00">VRE::VRE_DescriptorPool</text>
<text text-anchor="middle" x="393.25" y="-56.5" font-family="Helvetica,sans-Serif" font-size="10.00">::Builder::SetPoolFlags</text>
</a>
</g>
</g>
<!-- Node2&#45;&gt;Node9 -->
<g id="edge8_Node000002_Node000009" class="edge">
<title>Node2&#45;&gt;Node9</title>
<g id="a_edge8_Node000002_Node000009"><a xlink:title=" ">
<path fill="none" stroke="#63b8ff" d="M232.38,-180.57C245.28,-160.32 276.45,-115.56 314,-91 315.96,-89.72 317.99,-88.5 320.07,-87.34"/>
<polygon fill="#63b8ff" stroke="#63b8ff" points="321.39,-90.59 328.78,-83 318.27,-84.33 321.39,-90.59"/>
</a>
</g>
</g>
<!-- Node10 -->
<g id="Node000010" class="node">
<title>Node10</title>
<g id="a_Node000010"><a xlink:href="class_v_r_e_1_1_v_r_e___descriptor_writer.html#a99d4a37512a0e259687703f68c2eab76" target="_top" xlink:title=" ">
<polygon fill="white" stroke="#666666" points="463.12,-32 323.38,-32 323.38,0 463.12,0 463.12,-32"/>
<text text-anchor="start" x="331.38" y="-18.5" font-family="Helvetica,sans-Serif" font-size="10.00">VRE::VRE_DescriptorWriter</text>
<text text-anchor="middle" x="393.25" y="-6.5" font-family="Helvetica,sans-Serif" font-size="10.00">::WriteBuffer</text>
</a>
</g>
</g>
<!-- Node2&#45;&gt;Node10 -->
<g id="edge9_Node000002_Node000010" class="edge">
<title>Node2&#45;&gt;Node10</title>
<g id="a_edge9_Node000002_Node000010"><a xlink:title=" ">
<path fill="none" stroke="#63b8ff" d="M229.2,-180.52C238.05,-153.31 265.43,-79.85 314,-41 315.29,-39.97 316.62,-38.98 317.99,-38.03"/>
<polygon fill="#63b8ff" stroke="#63b8ff" points="319.4,-41.27 326.18,-33.13 315.8,-35.26 319.4,-41.27"/>
</a>
</g>
</g>
</g>
</svg>
</svg>

<style type='text/css'>
<![CDATA[
[data-mouse-over-selected='false'] { opacity: 0.7; }
[data-mouse-over-selected='true']  { opacity: 1.0; }
]]>
</style>
<script type="application/ecmascript"><![CDATA[
document.addEventListener('DOMContentLoaded', (event) => {
  highlightEdges();
  highlightAdjacentNodes();
});
]]></script>
</svg>
