<?xml version="1.0" encoding="UTF-8" standalone="no"?>
<!DOCTYPE svg PUBLIC "-//W3C//DTD SVG 1.1//EN"
 "http://www.w3.org/Graphics/SVG/1.1/DTD/svg11.dtd">
<!-- Generated by graphviz version 12.1.2 (20240928.0832)
 -->
<!-- Title: VRE::VRE_Device::CreateCommandPool Pages: 1 -->
<svg width="764pt" height="40pt"
 viewBox="0.00 0.00 763.50 40.00" xmlns="http://www.w3.org/2000/svg" xmlns:xlink="http://www.w3.org/1999/xlink">
<g id="graph0" class="graph" transform="scale(1 1) rotate(0) translate(4 36)">
<title>VRE::VRE_Device::CreateCommandPool</title>
<!-- Node1 -->
<g id="Node000001" class="node">
<title>Node1</title>
<g id="a_Node000001"><a xlink:title=" ">
<polygon fill="#999999" stroke="#666666" points="199.75,-26 0,-26 0,-6 199.75,-6 199.75,-26"/>
<text text-anchor="middle" x="99.88" y="-12.5" font-family="Helvetica,sans-Serif" font-size="10.00">VRE::VRE_Device::CreateCommandPool</text>
</a>
</g>
</g>
<!-- Node2 -->
<g id="Node000002" class="node">
<title>Node2</title>
<g id="a_Node000002"><a xlink:href="class_v_r_e_1_1_v_r_e___device.html#a69f90869ef38058b3880e3f87ae07ade" target="_top" xlink:title=" ">
<polygon fill="white" stroke="#666666" points="398,-32 235.75,-32 235.75,0 398,0 398,-32"/>
<text text-anchor="start" x="243.75" y="-18.5" font-family="Helvetica,sans-Serif" font-size="10.00">VRE::VRE_Device::FindPhysical</text>
<text text-anchor="middle" x="316.88" y="-6.5" font-family="Helvetica,sans-Serif" font-size="10.00">QueueFamilies</text>
</a>
</g>
</g>
<!-- Node1&#45;&gt;Node2 -->
<g id="edge1_Node000001_Node000002" class="edge">
<title>Node1&#45;&gt;Node2</title>
<g id="a_edge1_Node000001_Node000002"><a xlink:title=" ">
<path fill="none" stroke="#63b8ff" d="M200.19,-16C208.1,-16 216.07,-16 223.93,-16"/>
<polygon fill="#63b8ff" stroke="#63b8ff" points="223.82,-19.5 233.82,-16 223.82,-12.5 223.82,-19.5"/>
</a>
</g>
</g>
<!-- Node3 -->
<g id="Node000003" class="node">
<title>Node3</title>
<g id="a_Node000003"><a xlink:href="class_v_r_e_1_1_v_r_e___device.html#a49164610e5f85640d5a4f59613cb3539" target="_top" xlink:title=" ">
<polygon fill="white" stroke="#666666" points="587.25,-32 434,-32 434,0 587.25,0 587.25,-32"/>
<text text-anchor="start" x="442" y="-18.5" font-family="Helvetica,sans-Serif" font-size="10.00">VRE::VRE_Device::FindQueue</text>
<text text-anchor="middle" x="510.62" y="-6.5" font-family="Helvetica,sans-Serif" font-size="10.00">Families</text>
</a>
</g>
</g>
<!-- Node2&#45;&gt;Node3 -->
<g id="edge2_Node000002_Node000003" class="edge">
<title>Node2&#45;&gt;Node3</title>
<g id="a_edge2_Node000002_Node000003"><a xlink:title=" ">
<path fill="none" stroke="#63b8ff" d="M398.36,-16C406.3,-16 414.39,-16 422.39,-16"/>
<polygon fill="#63b8ff" stroke="#63b8ff" points="422.12,-19.5 432.12,-16 422.12,-12.5 422.12,-19.5"/>
</a>
</g>
</g>
<!-- Node4 -->
<g id="Node000004" class="node">
<title>Node4</title>
<g id="a_Node000004"><a xlink:href="struct_v_r_e_1_1_queue_family_indices.html#a163909a037bfb772931414e8557eb5b6" target="_top" xlink:title=" ">
<polygon fill="white" stroke="#666666" points="755.5,-32 623.25,-32 623.25,0 755.5,0 755.5,-32"/>
<text text-anchor="start" x="631.25" y="-18.5" font-family="Helvetica,sans-Serif" font-size="10.00">VRE::QueueFamilyIndices</text>
<text text-anchor="middle" x="689.38" y="-6.5" font-family="Helvetica,sans-Serif" font-size="10.00">::IsComplete</text>
</a>
</g>
</g>
<!-- Node3&#45;&gt;Node4 -->
<g id="edge3_Node000003_Node000004" class="edge">
<title>Node3&#45;&gt;Node4</title>
<g id="a_edge3_Node000003_Node000004"><a xlink:title=" ">
<path fill="none" stroke="#63b8ff" d="M587.61,-16C595.53,-16 603.59,-16 611.52,-16"/>
<polygon fill="#63b8ff" stroke="#63b8ff" points="611.5,-19.5 621.5,-16 611.5,-12.5 611.5,-19.5"/>
</a>
</g>
</g>
</g>
</svg>
