<?xml version="1.0" encoding="UTF-8" standalone="no"?>
<!DOCTYPE svg PUBLIC "-//W3C//DTD SVG 1.1//EN"
 "http://www.w3.org/Graphics/SVG/1.1/DTD/svg11.dtd">
<!-- Generated by graphviz version 12.1.2 (20240928.0832)
 -->
<!-- Title: VRE::VRE_SwapChain::VRE_SwapChain Pages: 1 -->
<svg width="1030pt" height="566pt"
 viewBox="0.00 0.00 1029.50 566.00" xmlns="http://www.w3.org/2000/svg" xmlns:xlink="http://www.w3.org/1999/xlink">
<g id="graph0" class="graph" transform="scale(1 1) rotate(0) translate(4 562)">
<title>VRE::VRE_SwapChain::VRE_SwapChain</title>
<!-- Node1 -->
<g id="Node000001" class="node">
<title>Node1</title>
<g id="a_Node000001"><a xlink:title=" ">
<polygon fill="#999999" stroke="#666666" points="119.5,-383 0,-383 0,-351 119.5,-351 119.5,-383"/>
<text text-anchor="start" x="8" y="-369.5" font-family="Helvetica,sans-Serif" font-size="10.00">VRE::VRE_SwapChain</text>
<text text-anchor="middle" x="59.75" y="-357.5" font-family="Helvetica,sans-Serif" font-size="10.00">::VRE_SwapChain</text>
</a>
</g>
</g>
<!-- Node2 -->
<g id="Node000002" class="node">
<title>Node2</title>
<g id="a_Node000002"><a xlink:href="class_v_r_e_1_1_v_r_e___swap_chain.html#a85e5751ccea9c4fda55d6b589f053507" target="_top" xlink:title=" ">
<polygon fill="white" stroke="#666666" points="275,-383 155.5,-383 155.5,-351 275,-351 275,-383"/>
<text text-anchor="start" x="163.5" y="-369.5" font-family="Helvetica,sans-Serif" font-size="10.00">VRE::VRE_SwapChain</text>
<text text-anchor="middle" x="215.25" y="-357.5" font-family="Helvetica,sans-Serif" font-size="10.00">::Init</text>
</a>
</g>
</g>
<!-- Node1&#45;&gt;Node2 -->
<g id="edge1_Node000001_Node000002" class="edge">
<title>Node1&#45;&gt;Node2</title>
<g id="a_edge1_Node000001_Node000002"><a xlink:title=" ">
<path fill="none" stroke="#63b8ff" d="M119.66,-367C127.59,-367 135.79,-367 143.89,-367"/>
<polygon fill="#63b8ff" stroke="#63b8ff" points="143.73,-370.5 153.73,-367 143.73,-363.5 143.73,-370.5"/>
</a>
</g>
</g>
<!-- Node3 -->
<g id="Node000003" class="node">
<title>Node3</title>
<g id="a_Node000003"><a xlink:href="class_v_r_e_1_1_v_r_e___swap_chain.html#ada998dbadfac34d4f27c8747aee65e39" target="_top" xlink:title=" ">
<polygon fill="white" stroke="#666666" points="435.75,-508 311,-508 311,-476 435.75,-476 435.75,-508"/>
<text text-anchor="start" x="319" y="-494.5" font-family="Helvetica,sans-Serif" font-size="10.00">VRE::VRE_SwapChain</text>
<text text-anchor="middle" x="373.38" y="-482.5" font-family="Helvetica,sans-Serif" font-size="10.00">::CreateDepthResources</text>
</a>
</g>
</g>
<!-- Node2&#45;&gt;Node3 -->
<g id="edge2_Node000002_Node000003" class="edge">
<title>Node2&#45;&gt;Node3</title>
<g id="a_edge2_Node000002_Node000003"><a xlink:title=" ">
<path fill="none" stroke="#63b8ff" d="M228.04,-383.23C244.5,-404.89 276.25,-443.25 311,-467 312.6,-468.09 314.25,-469.15 315.95,-470.17"/>
<polygon fill="#63b8ff" stroke="#63b8ff" points="314.23,-473.22 324.68,-474.91 317.57,-467.07 314.23,-473.22"/>
</a>
</g>
</g>
<!-- Node11 -->
<g id="Node000011" class="node">
<title>Node11</title>
<g id="a_Node000011"><a xlink:href="class_v_r_e_1_1_v_r_e___swap_chain.html#adde42a1963050d3ad906423b5d95291b" target="_top" xlink:title=" ">
<polygon fill="white" stroke="#666666" points="433.12,-458 313.62,-458 313.62,-426 433.12,-426 433.12,-458"/>
<text text-anchor="start" x="321.62" y="-444.5" font-family="Helvetica,sans-Serif" font-size="10.00">VRE::VRE_SwapChain</text>
<text text-anchor="middle" x="373.38" y="-432.5" font-family="Helvetica,sans-Serif" font-size="10.00">::CreateFramebuffers</text>
</a>
</g>
</g>
<!-- Node2&#45;&gt;Node11 -->
<g id="edge10_Node000002_Node000011" class="edge">
<title>Node2&#45;&gt;Node11</title>
<g id="a_edge10_Node000002_Node000011"><a xlink:title=" ">
<path fill="none" stroke="#63b8ff" d="M245.32,-383.3C263.88,-393.46 288.58,-406.55 311,-417 313.93,-418.37 316.96,-419.74 320.03,-421.09"/>
<polygon fill="#63b8ff" stroke="#63b8ff" points="318.58,-424.27 329.15,-425.01 321.34,-417.84 318.58,-424.27"/>
</a>
</g>
</g>
<!-- Node12 -->
<g id="Node000012" class="node">
<title>Node12</title>
<g id="a_Node000012"><a xlink:href="class_v_r_e_1_1_v_r_e___swap_chain.html#aa8aaebb654bddc81c80b6034188a81c6" target="_top" xlink:title=" ">
<polygon fill="white" stroke="#666666" points="433.12,-358 313.62,-358 313.62,-326 433.12,-326 433.12,-358"/>
<text text-anchor="start" x="321.62" y="-344.5" font-family="Helvetica,sans-Serif" font-size="10.00">VRE::VRE_SwapChain</text>
<text text-anchor="middle" x="373.38" y="-332.5" font-family="Helvetica,sans-Serif" font-size="10.00">::CreateImageViews</text>
</a>
</g>
</g>
<!-- Node2&#45;&gt;Node12 -->
<g id="edge14_Node000002_Node000012" class="edge">
<title>Node2&#45;&gt;Node12</title>
<g id="a_edge14_Node000002_Node000012"><a xlink:title=" ">
<path fill="none" stroke="#63b8ff" d="M275.27,-357.55C284.02,-356.15 293.1,-354.69 302.05,-353.26"/>
<polygon fill="#63b8ff" stroke="#63b8ff" points="302.45,-356.74 311.77,-351.7 301.35,-349.83 302.45,-356.74"/>
</a>
</g>
</g>
<!-- Node13 -->
<g id="Node000013" class="node">
<title>Node13</title>
<g id="a_Node000013"><a xlink:href="class_v_r_e_1_1_v_r_e___swap_chain.html#a8bfd8e3d73ce6bcd5fa91e8ce18db684" target="_top" xlink:title=" ">
<polygon fill="white" stroke="#666666" points="433.12,-308 313.62,-308 313.62,-276 433.12,-276 433.12,-308"/>
<text text-anchor="start" x="321.62" y="-294.5" font-family="Helvetica,sans-Serif" font-size="10.00">VRE::VRE_SwapChain</text>
<text text-anchor="middle" x="373.38" y="-282.5" font-family="Helvetica,sans-Serif" font-size="10.00">::CreateRenderPass</text>
</a>
</g>
</g>
<!-- Node2&#45;&gt;Node13 -->
<g id="edge16_Node000002_Node000013" class="edge">
<title>Node2&#45;&gt;Node13</title>
<g id="a_edge16_Node000002_Node000013"><a xlink:title=" ">
<path fill="none" stroke="#63b8ff" d="M245.32,-350.7C263.88,-340.54 288.58,-327.45 311,-317 313.93,-315.63 316.96,-314.26 320.03,-312.91"/>
<polygon fill="#63b8ff" stroke="#63b8ff" points="321.34,-316.16 329.15,-308.99 318.58,-309.73 321.34,-316.16"/>
</a>
</g>
</g>
<!-- Node15 -->
<g id="Node000015" class="node">
<title>Node15</title>
<g id="a_Node000015"><a xlink:href="class_v_r_e_1_1_v_r_e___swap_chain.html#a0cd1b296481d4ed4be59efe3d163292f" target="_top" xlink:title=" ">
<polygon fill="white" stroke="#666666" points="433.12,-195 313.62,-195 313.62,-163 433.12,-163 433.12,-195"/>
<text text-anchor="start" x="321.62" y="-181.5" font-family="Helvetica,sans-Serif" font-size="10.00">VRE::VRE_SwapChain</text>
<text text-anchor="middle" x="373.38" y="-169.5" font-family="Helvetica,sans-Serif" font-size="10.00">::CreateSwapChain</text>
</a>
</g>
</g>
<!-- Node2&#45;&gt;Node15 -->
<g id="edge20_Node000002_Node000015" class="edge">
<title>Node2&#45;&gt;Node15</title>
<g id="a_edge20_Node000002_Node000015"><a xlink:title=" ">
<path fill="none" stroke="#63b8ff" d="M229.83,-350.65C257.17,-317.73 318.98,-243.29 351.49,-204.15"/>
<polygon fill="#63b8ff" stroke="#63b8ff" points="354.05,-206.54 357.75,-196.62 348.66,-202.07 354.05,-206.54"/>
</a>
</g>
</g>
<!-- Node25 -->
<g id="Node000025" class="node">
<title>Node25</title>
<g id="a_Node000025"><a xlink:href="class_v_r_e_1_1_v_r_e___swap_chain.html#a6633857196b70b1a837d3548f05fc2fe" target="_top" xlink:title=" ">
<polygon fill="white" stroke="#666666" points="433.12,-408 313.62,-408 313.62,-376 433.12,-376 433.12,-408"/>
<text text-anchor="start" x="321.62" y="-394.5" font-family="Helvetica,sans-Serif" font-size="10.00">VRE::VRE_SwapChain</text>
<text text-anchor="middle" x="373.38" y="-382.5" font-family="Helvetica,sans-Serif" font-size="10.00">::CreateSyncObjects</text>
</a>
</g>
</g>
<!-- Node2&#45;&gt;Node25 -->
<g id="edge31_Node000002_Node000025" class="edge">
<title>Node2&#45;&gt;Node25</title>
<g id="a_edge31_Node000002_Node000025"><a xlink:title=" ">
<path fill="none" stroke="#63b8ff" d="M275.27,-376.45C284.02,-377.85 293.1,-379.31 302.05,-380.74"/>
<polygon fill="#63b8ff" stroke="#63b8ff" points="301.35,-384.17 311.77,-382.3 302.45,-377.26 301.35,-384.17"/>
</a>
</g>
</g>
<!-- Node4 -->
<g id="Node000004" class="node">
<title>Node4</title>
<g id="a_Node000004"><a xlink:href="class_v_r_e_1_1_v_r_e___device.html#adc5b3ee0fceffe8a4ec5b5ed9f87baf2" target="_top" xlink:title=" ">
<polygon fill="white" stroke="#666666" points="635.12,-558 472.88,-558 472.88,-526 635.12,-526 635.12,-558"/>
<text text-anchor="start" x="480.88" y="-544.5" font-family="Helvetica,sans-Serif" font-size="10.00">VRE::VRE_Device::CreateImage</text>
<text text-anchor="middle" x="554" y="-532.5" font-family="Helvetica,sans-Serif" font-size="10.00">WithInfo</text>
</a>
</g>
</g>
<!-- Node3&#45;&gt;Node4 -->
<g id="edge3_Node000003_Node000004" class="edge">
<title>Node3&#45;&gt;Node4</title>
<g id="a_edge3_Node000003_Node000004"><a xlink:title=" ">
<path fill="none" stroke="#63b8ff" d="M432.86,-508.37C448.97,-512.88 466.61,-517.82 483.28,-522.48"/>
<polygon fill="#63b8ff" stroke="#63b8ff" points="482.04,-525.77 492.62,-525.1 483.93,-519.03 482.04,-525.77"/>
</a>
</g>
</g>
<!-- Node6 -->
<g id="Node000006" class="node">
<title>Node6</title>
<g id="a_Node000006"><a xlink:href="class_v_r_e_1_1_v_r_e___swap_chain.html#a4eb9ee8a5485a62ffa0bdd4f1494ea79" target="_top" xlink:title=" ">
<polygon fill="white" stroke="#666666" points="613.75,-408 494.25,-408 494.25,-376 613.75,-376 613.75,-408"/>
<text text-anchor="start" x="502.25" y="-394.5" font-family="Helvetica,sans-Serif" font-size="10.00">VRE::VRE_SwapChain</text>
<text text-anchor="middle" x="554" y="-382.5" font-family="Helvetica,sans-Serif" font-size="10.00">::FindDepthFormat</text>
</a>
</g>
</g>
<!-- Node3&#45;&gt;Node6 -->
<g id="edge5_Node000003_Node000006" class="edge">
<title>Node3&#45;&gt;Node6</title>
<g id="a_edge5_Node000003_Node000006"><a xlink:title=" ">
<path fill="none" stroke="#63b8ff" d="M422.44,-475.57C427.15,-473.05 431.68,-470.2 435.75,-467 457.27,-450.06 449.51,-432.97 471.75,-417 475.53,-414.29 479.6,-411.87 483.85,-409.7"/>
<polygon fill="#63b8ff" stroke="#63b8ff" points="484.96,-413.04 492.63,-405.73 482.07,-406.67 484.96,-413.04"/>
</a>
</g>
</g>
<!-- Node8 -->
<g id="Node000008" class="node">
<title>Node8</title>
<g id="a_Node000008"><a xlink:href="class_v_r_e_1_1_v_r_e___swap_chain.html#a0d7125e8f2743c4ebff9b1e217d0a531" target="_top" xlink:title=" ">
<polygon fill="white" stroke="#666666" points="613.75,-458 494.25,-458 494.25,-426 613.75,-426 613.75,-458"/>
<text text-anchor="start" x="502.25" y="-444.5" font-family="Helvetica,sans-Serif" font-size="10.00">VRE::VRE_SwapChain</text>
<text text-anchor="middle" x="554" y="-432.5" font-family="Helvetica,sans-Serif" font-size="10.00">::GetImageCount</text>
</a>
</g>
</g>
<!-- Node3&#45;&gt;Node8 -->
<g id="edge7_Node000003_Node000008" class="edge">
<title>Node3&#45;&gt;Node8</title>
<g id="a_edge7_Node000003_Node000008"><a xlink:title=" ">
<path fill="none" stroke="#63b8ff" d="M432.86,-475.63C448.97,-471.12 466.61,-466.18 483.28,-461.52"/>
<polygon fill="#63b8ff" stroke="#63b8ff" points="483.93,-464.97 492.62,-458.9 482.04,-458.23 483.93,-464.97"/>
</a>
</g>
</g>
<!-- Node9 -->
<g id="Node000009" class="node">
<title>Node9</title>
<g id="a_Node000009"><a xlink:href="class_v_r_e_1_1_v_r_e___swap_chain.html#a323d9f1e3959053b88f7af19744b578c" target="_top" xlink:title=" ">
<polygon fill="white" stroke="#666666" points="613.75,-508 494.25,-508 494.25,-476 613.75,-476 613.75,-508"/>
<text text-anchor="start" x="502.25" y="-494.5" font-family="Helvetica,sans-Serif" font-size="10.00">VRE::VRE_SwapChain</text>
<text text-anchor="middle" x="554" y="-482.5" font-family="Helvetica,sans-Serif" font-size="10.00">::GetSwapChainExtent</text>
</a>
</g>
</g>
<!-- Node3&#45;&gt;Node9 -->
<g id="edge8_Node000003_Node000009" class="edge">
<title>Node3&#45;&gt;Node9</title>
<g id="a_edge8_Node000003_Node000009"><a xlink:title=" ">
<path fill="none" stroke="#63b8ff" d="M436.1,-492C451.19,-492 467.45,-492 482.9,-492"/>
<polygon fill="#63b8ff" stroke="#63b8ff" points="482.47,-495.5 492.47,-492 482.47,-488.5 482.47,-495.5"/>
</a>
</g>
</g>
<!-- Node10 -->
<g id="Node000010" class="node">
<title>Node10</title>
<g id="a_Node000010"><a xlink:href="class_v_r_e_1_1_v_r_e___device.html#a3b6e89f878e54464b3a03c1e4e84c52e" target="_top" xlink:title=" ">
<polygon fill="white" stroke="#666666" points="636.25,-358 471.75,-358 471.75,-338 636.25,-338 636.25,-358"/>
<text text-anchor="middle" x="554" y="-344.5" font-family="Helvetica,sans-Serif" font-size="10.00">VRE::VRE_Device::GetVkDevice</text>
</a>
</g>
</g>
<!-- Node3&#45;&gt;Node10 -->
<g id="edge9_Node000003_Node000010" class="edge">
<title>Node3&#45;&gt;Node10</title>
<g id="a_edge9_Node000003_Node000010"><a xlink:title=" ">
<path fill="none" stroke="#63b8ff" d="M425.21,-475.54C429.06,-473.07 432.64,-470.24 435.75,-467 468.46,-432.92 436.47,-398.41 471.75,-367 472.7,-366.16 473.67,-365.35 474.68,-364.58"/>
<polygon fill="#63b8ff" stroke="#63b8ff" points="476.47,-367.58 483.08,-359.3 472.75,-361.66 476.47,-367.58"/>
</a>
</g>
</g>
<!-- Node5 -->
<g id="Node000005" class="node">
<title>Node5</title>
<g id="a_Node000005"><a xlink:href="class_v_r_e_1_1_v_r_e___device.html#a2e8b8fd1480951dd2b669b263e0611e5" target="_top" xlink:title=" ">
<polygon fill="white" stroke="#666666" points="853.25,-552 672.25,-552 672.25,-532 853.25,-532 853.25,-552"/>
<text text-anchor="middle" x="762.75" y="-538.5" font-family="Helvetica,sans-Serif" font-size="10.00">VRE::VRE_Device::FindMemoryType</text>
</a>
</g>
</g>
<!-- Node4&#45;&gt;Node5 -->
<g id="edge4_Node000004_Node000005" class="edge">
<title>Node4&#45;&gt;Node5</title>
<g id="a_edge4_Node000004_Node000005"><a xlink:title=" ">
<path fill="none" stroke="#63b8ff" d="M635.53,-542C643.71,-542 652.1,-542 660.47,-542"/>
<polygon fill="#63b8ff" stroke="#63b8ff" points="660.33,-545.5 670.33,-542 660.33,-538.5 660.33,-545.5"/>
</a>
</g>
</g>
<!-- Node7 -->
<g id="Node000007" class="node">
<title>Node7</title>
<g id="a_Node000007"><a xlink:href="class_v_r_e_1_1_v_r_e___device.html#aaf3ae6a0100c9dca6974824bc3c607db" target="_top" xlink:title=" ">
<polygon fill="white" stroke="#666666" points="847.25,-408 678.25,-408 678.25,-376 847.25,-376 847.25,-408"/>
<text text-anchor="start" x="686.25" y="-394.5" font-family="Helvetica,sans-Serif" font-size="10.00">VRE::VRE_Device::FindSupported</text>
<text text-anchor="middle" x="762.75" y="-382.5" font-family="Helvetica,sans-Serif" font-size="10.00">Format</text>
</a>
</g>
</g>
<!-- Node6&#45;&gt;Node7 -->
<g id="edge6_Node000006_Node000007" class="edge">
<title>Node6&#45;&gt;Node7</title>
<g id="a_edge6_Node000006_Node000007"><a xlink:title=" ">
<path fill="none" stroke="#63b8ff" d="M614.25,-392C630.57,-392 648.71,-392 666.52,-392"/>
<polygon fill="#63b8ff" stroke="#63b8ff" points="666.33,-395.5 676.33,-392 666.33,-388.5 666.33,-395.5"/>
</a>
</g>
</g>
<!-- Node11&#45;&gt;Node8 -->
<g id="edge11_Node000011_Node000008" class="edge">
<title>Node11&#45;&gt;Node8</title>
<g id="a_edge11_Node000011_Node000008"><a xlink:title=" ">
<path fill="none" stroke="#63b8ff" d="M433.36,-442C449.13,-442 466.33,-442 482.65,-442"/>
<polygon fill="#63b8ff" stroke="#63b8ff" points="482.26,-445.5 492.26,-442 482.26,-438.5 482.26,-445.5"/>
</a>
</g>
</g>
<!-- Node11&#45;&gt;Node9 -->
<g id="edge12_Node000011_Node000009" class="edge">
<title>Node11&#45;&gt;Node9</title>
<g id="a_edge12_Node000011_Node000009"><a xlink:title=" ">
<path fill="none" stroke="#63b8ff" d="M432.86,-458.37C448.97,-462.88 466.61,-467.82 483.28,-472.48"/>
<polygon fill="#63b8ff" stroke="#63b8ff" points="482.04,-475.77 492.62,-475.1 483.93,-469.03 482.04,-475.77"/>
</a>
</g>
</g>
<!-- Node11&#45;&gt;Node10 -->
<g id="edge13_Node000011_Node000010" class="edge">
<title>Node11&#45;&gt;Node10</title>
<g id="a_edge13_Node000011_Node000010"><a xlink:title=" ">
<path fill="none" stroke="#63b8ff" d="M422.44,-425.57C427.15,-423.05 431.68,-420.2 435.75,-417 457.27,-400.06 448.97,-382.19 471.75,-367 473.86,-365.6 476.05,-364.29 478.32,-363.09"/>
<polygon fill="#63b8ff" stroke="#63b8ff" points="479.59,-366.35 487.24,-359.02 476.69,-359.98 479.59,-366.35"/>
</a>
</g>
</g>
<!-- Node12&#45;&gt;Node10 -->
<g id="edge15_Node000012_Node000010" class="edge">
<title>Node12&#45;&gt;Node10</title>
<g id="a_edge15_Node000012_Node000010"><a xlink:title=" ">
<path fill="none" stroke="#63b8ff" d="M433.36,-343.98C441.93,-344.27 450.93,-344.57 459.98,-344.88"/>
<polygon fill="#63b8ff" stroke="#63b8ff" points="459.81,-348.37 469.93,-345.21 460.05,-341.38 459.81,-348.37"/>
</a>
</g>
</g>
<!-- Node13&#45;&gt;Node6 -->
<g id="edge17_Node000013_Node000006" class="edge">
<title>Node13&#45;&gt;Node6</title>
<g id="a_edge17_Node000013_Node000006"><a xlink:title=" ">
<path fill="none" stroke="#63b8ff" d="M422.44,-308.43C427.15,-310.95 431.68,-313.8 435.75,-317 457.27,-333.94 449.51,-351.03 471.75,-367 475.53,-369.71 479.6,-372.13 483.85,-374.3"/>
<polygon fill="#63b8ff" stroke="#63b8ff" points="482.07,-377.33 492.63,-378.27 484.96,-370.96 482.07,-377.33"/>
</a>
</g>
</g>
<!-- Node13&#45;&gt;Node10 -->
<g id="edge19_Node000013_Node000010" class="edge">
<title>Node13&#45;&gt;Node10</title>
<g id="a_edge19_Node000013_Node000010"><a xlink:title=" ">
<path fill="none" stroke="#63b8ff" d="M413.76,-308.33C431.32,-315.26 452.38,-323.08 471.75,-329 478.48,-331.05 485.58,-333.01 492.67,-334.84"/>
<polygon fill="#63b8ff" stroke="#63b8ff" points="491.72,-338.21 502.27,-337.23 493.41,-331.42 491.72,-338.21"/>
</a>
</g>
</g>
<!-- Node14 -->
<g id="Node000014" class="node">
<title>Node14</title>
<g id="a_Node000014"><a xlink:href="class_v_r_e_1_1_v_r_e___swap_chain.html#af35795133f50bcf3d79f55e2cc202cd6" target="_top" xlink:title=" ">
<polygon fill="white" stroke="#666666" points="626.88,-320 481.12,-320 481.12,-288 626.88,-288 626.88,-320"/>
<text text-anchor="start" x="489.12" y="-306.5" font-family="Helvetica,sans-Serif" font-size="10.00">VRE::VRE_SwapChain</text>
<text text-anchor="middle" x="554" y="-294.5" font-family="Helvetica,sans-Serif" font-size="10.00">::GetSwapChainImageFormat</text>
</a>
</g>
</g>
<!-- Node13&#45;&gt;Node14 -->
<g id="edge18_Node000013_Node000014" class="edge">
<title>Node13&#45;&gt;Node14</title>
<g id="a_edge18_Node000013_Node000014"><a xlink:title=" ">
<path fill="none" stroke="#63b8ff" d="M433.36,-295.96C444.95,-296.74 457.32,-297.57 469.54,-298.39"/>
<polygon fill="#63b8ff" stroke="#63b8ff" points="468.97,-301.86 479.18,-299.04 469.44,-294.88 468.97,-301.86"/>
</a>
</g>
</g>
<!-- Node15&#45;&gt;Node10 -->
<g id="edge29_Node000015_Node000010" class="edge">
<title>Node15&#45;&gt;Node10</title>
<g id="a_edge29_Node000015_Node000010"><a xlink:title=" ">
<path fill="none" stroke="#63b8ff" d="M386.33,-195.27C399.01,-212.72 419.43,-241.4 435.75,-267 452.88,-293.87 446.14,-310.04 471.75,-329 473.5,-330.29 475.32,-331.5 477.2,-332.63"/>
<polygon fill="#63b8ff" stroke="#63b8ff" points="475.18,-335.52 485.68,-336.93 478.34,-329.28 475.18,-335.52"/>
</a>
</g>
</g>
<!-- Node16 -->
<g id="Node000016" class="node">
<title>Node16</title>
<g id="a_Node000016"><a xlink:href="class_v_r_e_1_1_v_r_e___swap_chain.html#a04cf5db3442eeef1af26ef00be8d9885" target="_top" xlink:title=" ">
<polygon fill="white" stroke="#666666" points="613.75,-270 494.25,-270 494.25,-238 613.75,-238 613.75,-270"/>
<text text-anchor="start" x="502.25" y="-256.5" font-family="Helvetica,sans-Serif" font-size="10.00">VRE::VRE_SwapChain</text>
<text text-anchor="middle" x="554" y="-244.5" font-family="Helvetica,sans-Serif" font-size="10.00">::ChooseSwapExtent</text>
</a>
</g>
</g>
<!-- Node15&#45;&gt;Node16 -->
<g id="edge21_Node000015_Node000016" class="edge">
<title>Node15&#45;&gt;Node16</title>
<g id="a_edge21_Node000015_Node000016"><a xlink:title=" ">
<path fill="none" stroke="#63b8ff" d="M403.15,-195.47C422.21,-205.96 447.99,-219.33 471.75,-229 475.86,-230.67 480.13,-232.3 484.46,-233.86"/>
<polygon fill="#63b8ff" stroke="#63b8ff" points="483.27,-237.16 493.86,-237.13 485.56,-230.54 483.27,-237.16"/>
</a>
</g>
</g>
<!-- Node17 -->
<g id="Node000017" class="node">
<title>Node17</title>
<g id="a_Node000017"><a xlink:href="class_v_r_e_1_1_v_r_e___swap_chain.html#a6ad223607b459d6fa64c3ed2498797bf" target="_top" xlink:title=" ">
<polygon fill="white" stroke="#666666" points="623.12,-220 484.88,-220 484.88,-188 623.12,-188 623.12,-220"/>
<text text-anchor="start" x="492.88" y="-206.5" font-family="Helvetica,sans-Serif" font-size="10.00">VRE::VRE_SwapChain</text>
<text text-anchor="middle" x="554" y="-194.5" font-family="Helvetica,sans-Serif" font-size="10.00">::ChooseSwapPresentMode</text>
</a>
</g>
</g>
<!-- Node15&#45;&gt;Node17 -->
<g id="edge22_Node000015_Node000017" class="edge">
<title>Node15&#45;&gt;Node17</title>
<g id="a_edge22_Node000015_Node000017"><a xlink:title=" ">
<path fill="none" stroke="#63b8ff" d="M433.36,-187.26C446.14,-189.04 459.86,-190.96 473.29,-192.84"/>
<polygon fill="#63b8ff" stroke="#63b8ff" points="472.59,-196.28 482.98,-194.2 473.56,-189.35 472.59,-196.28"/>
</a>
</g>
</g>
<!-- Node18 -->
<g id="Node000018" class="node">
<title>Node18</title>
<g id="a_Node000018"><a xlink:href="class_v_r_e_1_1_v_r_e___swap_chain.html#a575538bcc18de6bcb5278af1a27e50d2" target="_top" xlink:title=" ">
<polygon fill="white" stroke="#666666" points="626.5,-170 481.5,-170 481.5,-138 626.5,-138 626.5,-170"/>
<text text-anchor="start" x="489.5" y="-156.5" font-family="Helvetica,sans-Serif" font-size="10.00">VRE::VRE_SwapChain</text>
<text text-anchor="middle" x="554" y="-144.5" font-family="Helvetica,sans-Serif" font-size="10.00">::ChooseSwapSurfaceFormat</text>
</a>
</g>
</g>
<!-- Node15&#45;&gt;Node18 -->
<g id="edge23_Node000015_Node000018" class="edge">
<title>Node15&#45;&gt;Node18</title>
<g id="a_edge23_Node000015_Node000018"><a xlink:title=" ">
<path fill="none" stroke="#63b8ff" d="M433.36,-170.74C445.03,-169.11 457.48,-167.37 469.78,-165.65"/>
<polygon fill="#63b8ff" stroke="#63b8ff" points="470.09,-169.14 479.51,-164.29 469.12,-162.21 470.09,-169.14"/>
</a>
</g>
</g>
<!-- Node19 -->
<g id="Node000019" class="node">
<title>Node19</title>
<g id="a_Node000019"><a xlink:href="class_v_r_e_1_1_v_r_e___device.html#a69f90869ef38058b3880e3f87ae07ade" target="_top" xlink:title=" ">
<polygon fill="white" stroke="#666666" points="635.12,-120 472.88,-120 472.88,-88 635.12,-88 635.12,-120"/>
<text text-anchor="start" x="480.88" y="-106.5" font-family="Helvetica,sans-Serif" font-size="10.00">VRE::VRE_Device::FindPhysical</text>
<text text-anchor="middle" x="554" y="-94.5" font-family="Helvetica,sans-Serif" font-size="10.00">QueueFamilies</text>
</a>
</g>
</g>
<!-- Node15&#45;&gt;Node19 -->
<g id="edge24_Node000015_Node000019" class="edge">
<title>Node15&#45;&gt;Node19</title>
<g id="a_edge24_Node000015_Node000019"><a xlink:title=" ">
<path fill="none" stroke="#63b8ff" d="M403.15,-162.53C422.21,-152.04 447.99,-138.67 471.75,-129 475.86,-127.33 480.13,-125.7 484.46,-124.14"/>
<polygon fill="#63b8ff" stroke="#63b8ff" points="485.56,-127.46 493.86,-120.87 483.27,-120.84 485.56,-127.46"/>
</a>
</g>
</g>
<!-- Node22 -->
<g id="Node000022" class="node">
<title>Node22</title>
<g id="a_Node000022"><a xlink:href="class_v_r_e_1_1_v_r_e___device.html#aaaf7ec5ac218bf43766fb3a61cc60965" target="_top" xlink:title=" ">
<polygon fill="white" stroke="#666666" points="627.25,-70 480.75,-70 480.75,-38 627.25,-38 627.25,-70"/>
<text text-anchor="start" x="488.75" y="-56.5" font-family="Helvetica,sans-Serif" font-size="10.00">VRE::VRE_Device::GetSwap</text>
<text text-anchor="middle" x="554" y="-44.5" font-family="Helvetica,sans-Serif" font-size="10.00">ChainSupport</text>
</a>
</g>
</g>
<!-- Node15&#45;&gt;Node22 -->
<g id="edge27_Node000015_Node000022" class="edge">
<title>Node15&#45;&gt;Node22</title>
<g id="a_edge27_Node000015_Node000022"><a xlink:title=" ">
<path fill="none" stroke="#63b8ff" d="M386.02,-162.7C402.61,-140.61 435.15,-101.37 471.75,-79 473.9,-77.69 476.12,-76.44 478.4,-75.25"/>
<polygon fill="#63b8ff" stroke="#63b8ff" points="479.74,-78.48 487.31,-71.07 476.77,-72.15 479.74,-78.48"/>
</a>
</g>
</g>
<!-- Node24 -->
<g id="Node000024" class="node">
<title>Node24</title>
<g id="a_Node000024"><a xlink:href="class_v_r_e_1_1_v_r_e___device.html#a5f4c0b082d6998ad49fc5616e8c3d48b" target="_top" xlink:title=" ">
<polygon fill="white" stroke="#666666" points="623.88,-20 484.12,-20 484.12,0 623.88,0 623.88,-20"/>
<text text-anchor="middle" x="554" y="-6.5" font-family="Helvetica,sans-Serif" font-size="10.00">VRE::VRE_Device::Surface</text>
</a>
</g>
</g>
<!-- Node15&#45;&gt;Node24 -->
<g id="edge30_Node000015_Node000024" class="edge">
<title>Node15&#45;&gt;Node24</title>
<g id="a_edge30_Node000015_Node000024"><a xlink:title=" ">
<path fill="none" stroke="#63b8ff" d="M380.07,-162.96C391.96,-131.91 422.46,-63.62 471.75,-29 473.57,-27.72 475.47,-26.52 477.42,-25.41"/>
<polygon fill="#63b8ff" stroke="#63b8ff" points="478.78,-28.64 486.26,-21.13 475.73,-22.34 478.78,-28.64"/>
</a>
</g>
</g>
<!-- Node20 -->
<g id="Node000020" class="node">
<title>Node20</title>
<g id="a_Node000020"><a xlink:href="class_v_r_e_1_1_v_r_e___device.html#a49164610e5f85640d5a4f59613cb3539" target="_top" xlink:title=" ">
<polygon fill="white" stroke="#666666" points="839.38,-120 686.12,-120 686.12,-88 839.38,-88 839.38,-120"/>
<text text-anchor="start" x="694.12" y="-106.5" font-family="Helvetica,sans-Serif" font-size="10.00">VRE::VRE_Device::FindQueue</text>
<text text-anchor="middle" x="762.75" y="-94.5" font-family="Helvetica,sans-Serif" font-size="10.00">Families</text>
</a>
</g>
</g>
<!-- Node19&#45;&gt;Node20 -->
<g id="edge25_Node000019_Node000020" class="edge">
<title>Node19&#45;&gt;Node20</title>
<g id="a_edge25_Node000019_Node000020"><a xlink:title=" ">
<path fill="none" stroke="#63b8ff" d="M635.53,-104C648.33,-104 661.63,-104 674.57,-104"/>
<polygon fill="#63b8ff" stroke="#63b8ff" points="674.33,-107.5 684.33,-104 674.33,-100.5 674.33,-107.5"/>
</a>
</g>
</g>
<!-- Node21 -->
<g id="Node000021" class="node">
<title>Node21</title>
<g id="a_Node000021"><a xlink:href="struct_v_r_e_1_1_queue_family_indices.html#a163909a037bfb772931414e8557eb5b6" target="_top" xlink:title=" ">
<polygon fill="white" stroke="#666666" points="1021.5,-120 889.25,-120 889.25,-88 1021.5,-88 1021.5,-120"/>
<text text-anchor="start" x="897.25" y="-106.5" font-family="Helvetica,sans-Serif" font-size="10.00">VRE::QueueFamilyIndices</text>
<text text-anchor="middle" x="955.38" y="-94.5" font-family="Helvetica,sans-Serif" font-size="10.00">::IsComplete</text>
</a>
</g>
</g>
<!-- Node20&#45;&gt;Node21 -->
<g id="edge26_Node000020_Node000021" class="edge">
<title>Node20&#45;&gt;Node21</title>
<g id="a_edge26_Node000020_Node000021"><a xlink:title=" ">
<path fill="none" stroke="#63b8ff" d="M839.64,-104C852.12,-104 865.06,-104 877.56,-104"/>
<polygon fill="#63b8ff" stroke="#63b8ff" points="877.38,-107.5 887.38,-104 877.38,-100.5 877.38,-107.5"/>
</a>
</g>
</g>
<!-- Node23 -->
<g id="Node000023" class="node">
<title>Node23</title>
<g id="a_Node000023"><a xlink:href="class_v_r_e_1_1_v_r_e___device.html#a30a3edcffb07cf4e3050b438405bbd81" target="_top" xlink:title=" ">
<polygon fill="white" stroke="#666666" points="841.25,-70 684.25,-70 684.25,-38 841.25,-38 841.25,-70"/>
<text text-anchor="start" x="692.25" y="-56.5" font-family="Helvetica,sans-Serif" font-size="10.00">VRE::VRE_Device::QuerySwap</text>
<text text-anchor="middle" x="762.75" y="-44.5" font-family="Helvetica,sans-Serif" font-size="10.00">ChainSupport</text>
</a>
</g>
</g>
<!-- Node22&#45;&gt;Node23 -->
<g id="edge28_Node000022_Node000023" class="edge">
<title>Node22&#45;&gt;Node23</title>
<g id="a_edge28_Node000022_Node000023"><a xlink:title=" ">
<path fill="none" stroke="#63b8ff" d="M627.6,-54C642.16,-54 657.61,-54 672.65,-54"/>
<polygon fill="#63b8ff" stroke="#63b8ff" points="672.54,-57.5 682.54,-54 672.54,-50.5 672.54,-57.5"/>
</a>
</g>
</g>
<!-- Node25&#45;&gt;Node8 -->
<g id="edge32_Node000025_Node000008" class="edge">
<title>Node25&#45;&gt;Node8</title>
<g id="a_edge32_Node000025_Node000008"><a xlink:title=" ">
<path fill="none" stroke="#63b8ff" d="M432.86,-408.37C448.97,-412.88 466.61,-417.82 483.28,-422.48"/>
<polygon fill="#63b8ff" stroke="#63b8ff" points="482.04,-425.77 492.62,-425.1 483.93,-419.03 482.04,-425.77"/>
</a>
</g>
</g>
<!-- Node25&#45;&gt;Node10 -->
<g id="edge33_Node000025_Node000010" class="edge">
<title>Node25&#45;&gt;Node10</title>
<g id="a_edge33_Node000025_Node000010"><a xlink:title=" ">
<path fill="none" stroke="#63b8ff" d="M433.54,-376.59C446.14,-373.37 459.38,-370.03 471.75,-367 479.68,-365.05 488.06,-363.04 496.3,-361.09"/>
<polygon fill="#63b8ff" stroke="#63b8ff" points="497,-364.52 505.93,-358.83 495.4,-357.71 497,-364.52"/>
</a>
</g>
</g>
</g>
</svg>
