<?xml version="1.0" encoding="UTF-8" standalone="no"?>
<!DOCTYPE svg PUBLIC "-//W3C//DTD SVG 1.1//EN"
 "http://www.w3.org/Graphics/SVG/1.1/DTD/svg11.dtd">
<!-- Generated by graphviz version 12.1.2 (20240928.0832)
 -->
<!-- Title: VRE::VRE_Device::IsDeviceSuitable Pages: 1 -->
<!--zoomable 178 -->

<svg id="main" version="1.1" xmlns="http://www.w3.org/2000/svg" xmlns:xlink="http://www.w3.org/1999/xlink" xml:space="preserve" onload="init(evt)">

<style type="text/css"><![CDATA[
.node, .edge {opacity: 0.7;}
.node.selected, .edge.selected {opacity: 1;}
.edge:hover path { stroke: red; }
.edge:hover polygon { stroke: red; fill: red; }
]]></style>

<defs>
  <circle id="rim" cx="0" cy="0" r="7"/>
  <circle id="rim2" cx="0" cy="0" r="3.5"/>
  <g id="zoomPlus">
    <use xlink:href="#rim" fill="#404040"><set attributeName="fill" to="#808080" begin="zoomplus.mouseover" end="zoomplus.mouseout"/></use>
    <path d="M-4,0h8M0,-4v8" fill="none" stroke="white" stroke-width="1.5" pointer-events="none"/>
  </g>
  <g id="zoomMin">
    <use xlink:href="#rim" fill="#404040"><set attributeName="fill" to="#808080" begin="zoomminus.mouseover" end="zoomminus.mouseout"/></use>
    <path d="M-4,0h8" fill="none" stroke="white" stroke-width="1.5" pointer-events="none"/>
  </g>
  <g id="arrowUp" transform="translate(30 24)">
    <use xlink:href="#rim"/>
    <path pointer-events="none" fill="none" stroke="white" stroke-width="1.5" d="M0,-3.0v7 M-2.5,-0.5L0,-3.0L2.5,-0.5"/>
  </g>
  <g id="arrowRight" transform="rotate(90) translate(36 -43)">
    <use xlink:href="#rim"/>
    <path pointer-events="none" fill="none" stroke="white" stroke-width="1.5" d="M0,-3.0v7 M-2.5,-0.5L0,-3.0L2.5,-0.5"/>
  </g>
  <g id="arrowDown" transform="rotate(180) translate(-30 -48)">
    <use xlink:href="#rim"/>
    <path pointer-events="none" fill="none" stroke="white" stroke-width="1.5" d="M0,-3.0v7 M-2.5,-0.5L0,-3.0L2.5,-0.5"/>
  </g>
  <g id="arrowLeft" transform="rotate(270) translate(-36 17)">
    <use xlink:href="#rim"/>
    <path pointer-events="none" fill="none" stroke="white" stroke-width="1.5" d="M0,-3.0v7 M-2.5,-0.5L0,-3.0L2.5,-0.5"/>
  </g>
  <g id="resetDef">
    <use xlink:href="#rim2" fill="#404040"><set attributeName="fill" to="#808080" begin="reset.mouseover" end="reset.mouseout"/></use>
  </g>
</defs>
<script type="application/ecmascript">
var viewWidth = 523;
var viewHeight = 178;
var sectionId = 'dynsection-15';
</script>
<script type="application/ecmascript" xlink:href="svg.min.js"/>
<svg id="graph" class="graph">
<g id="viewport">
<title>VRE::VRE_Device::IsDeviceSuitable</title>
<!-- Node1 -->
<g id="Node000001" class="node">
<title>Node1</title>
<g id="a_Node000001"><a xlink:title=" ">
<polygon fill="#999999" stroke="#666666" points="145,-98 0,-98 0,-66 145,-66 145,-98"/>
<text text-anchor="start" x="8" y="-84.5" font-family="Helvetica,sans-Serif" font-size="10.00">VRE::VRE_Device::IsDevice</text>
<text text-anchor="middle" x="72.5" y="-72.5" font-family="Helvetica,sans-Serif" font-size="10.00">Suitable</text>
</a>
</g>
</g>
<!-- Node2 -->
<g id="Node000002" class="node">
<title>Node2</title>
<g id="a_Node000002"><a xlink:href="class_v_r_e_1_1_v_r_e___device.html#a90fdae5aade29df930a26e19e6dd63a4" target="_top" xlink:title=" ">
<polygon fill="white" stroke="#666666" points="346.25,-170 181,-170 181,-138 346.25,-138 346.25,-170"/>
<text text-anchor="start" x="189" y="-156.5" font-family="Helvetica,sans-Serif" font-size="10.00">VRE::VRE_Device::CheckDevice</text>
<text text-anchor="middle" x="263.62" y="-144.5" font-family="Helvetica,sans-Serif" font-size="10.00">ExtensionSupport</text>
</a>
</g>
</g>
<!-- Node1&#45;&gt;Node2 -->
<g id="edge1_Node000001_Node000002" class="edge">
<title>Node1&#45;&gt;Node2</title>
<g id="a_edge1_Node000001_Node000002"><a xlink:title=" ">
<path fill="none" stroke="#63b8ff" d="M108.43,-98.49C129.26,-108.01 156.36,-119.87 181,-129 185.66,-130.73 190.5,-132.43 195.39,-134.08"/>
<polygon fill="#63b8ff" stroke="#63b8ff" points="194.11,-137.35 204.7,-137.15 196.3,-130.7 194.11,-137.35"/>
</a>
</g>
</g>
<!-- Node3 -->
<g id="Node000003" class="node">
<title>Node3</title>
<g id="a_Node000003"><a xlink:href="class_v_r_e_1_1_v_r_e___device.html#a49164610e5f85640d5a4f59613cb3539" target="_top" xlink:title=" ">
<polygon fill="white" stroke="#666666" points="340.25,-120 187,-120 187,-88 340.25,-88 340.25,-120"/>
<text text-anchor="start" x="195" y="-106.5" font-family="Helvetica,sans-Serif" font-size="10.00">VRE::VRE_Device::FindQueue</text>
<text text-anchor="middle" x="263.62" y="-94.5" font-family="Helvetica,sans-Serif" font-size="10.00">Families</text>
</a>
</g>
</g>
<!-- Node1&#45;&gt;Node3 -->
<g id="edge2_Node000001_Node000003" class="edge">
<title>Node1&#45;&gt;Node3</title>
<g id="a_edge2_Node000001_Node000003"><a xlink:title=" ">
<path fill="none" stroke="#63b8ff" d="M145.27,-90.35C155.14,-91.5 165.36,-92.69 175.47,-93.86"/>
<polygon fill="#63b8ff" stroke="#63b8ff" points="174.97,-97.33 185.31,-95.01 175.78,-90.37 174.97,-97.33"/>
</a>
</g>
</g>
<!-- Node4 -->
<g id="Node000004" class="node">
<title>Node4</title>
<g id="a_Node000004"><a xlink:href="struct_v_r_e_1_1_queue_family_indices.html#a163909a037bfb772931414e8557eb5b6" target="_top" xlink:title=" ">
<polygon fill="white" stroke="#666666" points="514.5,-98 382.25,-98 382.25,-66 514.5,-66 514.5,-98"/>
<text text-anchor="start" x="390.25" y="-84.5" font-family="Helvetica,sans-Serif" font-size="10.00">VRE::QueueFamilyIndices</text>
<text text-anchor="middle" x="448.38" y="-72.5" font-family="Helvetica,sans-Serif" font-size="10.00">::IsComplete</text>
</a>
</g>
</g>
<!-- Node1&#45;&gt;Node4 -->
<g id="edge4_Node000001_Node000004" class="edge">
<title>Node1&#45;&gt;Node4</title>
<g id="a_edge4_Node000001_Node000004"><a xlink:title=" ">
<path fill="none" stroke="#63b8ff" d="M145.49,-79.71C157.35,-79.42 169.52,-79.16 181,-79 254.44,-77.98 272.81,-77.91 346.25,-79 354.07,-79.12 362.23,-79.28 370.37,-79.48"/>
<polygon fill="#63b8ff" stroke="#63b8ff" points="370.23,-82.98 380.32,-79.73 370.41,-75.98 370.23,-82.98"/>
</a>
</g>
</g>
<!-- Node5 -->
<g id="Node000005" class="node">
<title>Node5</title>
<g id="a_Node000005"><a xlink:href="class_v_r_e_1_1_v_r_e___device.html#a30a3edcffb07cf4e3050b438405bbd81" target="_top" xlink:title=" ">
<polygon fill="white" stroke="#666666" points="342.12,-32 185.12,-32 185.12,0 342.12,0 342.12,-32"/>
<text text-anchor="start" x="193.12" y="-18.5" font-family="Helvetica,sans-Serif" font-size="10.00">VRE::VRE_Device::QuerySwap</text>
<text text-anchor="middle" x="263.62" y="-6.5" font-family="Helvetica,sans-Serif" font-size="10.00">ChainSupport</text>
</a>
</g>
</g>
<!-- Node1&#45;&gt;Node5 -->
<g id="edge5_Node000001_Node000005" class="edge">
<title>Node1&#45;&gt;Node5</title>
<g id="a_edge5_Node000001_Node000005"><a xlink:title=" ">
<path fill="none" stroke="#63b8ff" d="M120.74,-65.52C146.22,-56.62 177.88,-45.57 204.82,-36.17"/>
<polygon fill="#63b8ff" stroke="#63b8ff" points="205.95,-39.49 214.23,-32.89 203.64,-32.88 205.95,-39.49"/>
</a>
</g>
</g>
<!-- Node3&#45;&gt;Node4 -->
<g id="edge3_Node000003_Node000004" class="edge">
<title>Node3&#45;&gt;Node4</title>
<g id="a_edge3_Node000003_Node000004"><a xlink:title=" ">
<path fill="none" stroke="#63b8ff" d="M340.54,-94.86C350.52,-93.66 360.74,-92.43 370.73,-91.23"/>
<polygon fill="#63b8ff" stroke="#63b8ff" points="370.87,-94.74 380.38,-90.07 370.03,-87.79 370.87,-94.74"/>
</a>
</g>
</g>
</g>
</svg>

<g id="navigator" transform="translate(0 0)" fill="#404254">
  <rect fill="#f2f5e9" fill-opacity="0.5" stroke="#606060" stroke-width=".5" x="0" y="0" width="60" height="60"/>
  <use id="zoomplus" xlink:href="#zoomPlus" x="17" y="9" onmousedown="handleZoom(evt,'in')"/>
  <use id="zoomminus" xlink:href="#zoomMin" x="42" y="9" onmousedown="handleZoom(evt,'out')"/>
  <use id="reset" xlink:href="#resetDef" x="30" y="36" onmousedown="handleReset()"/>
   <use id="arrowup" xlink:href="#arrowUp" x="0" y="0" onmousedown="handlePan(0,-1)"/>
  <use id="arrowright" xlink:href="#arrowRight" x="0" y="0" onmousedown="handlePan(1,0)"/>
  <use id="arrowdown" xlink:href="#arrowDown" x="0" y="0" onmousedown="handlePan(0,1)"/>
  <use id="arrowleft" xlink:href="#arrowLeft" x="0" y="0" onmousedown="handlePan(-1,0)"/>
</g>
<svg viewBox="0 0 15 15" width="100%" height="30px" preserveAspectRatio="xMaxYMin meet">
 <g id="arrow_out" transform="scale(0.3 0.3)">
  <a xlink:href="class_v_r_e_1_1_v_r_e___device_ae38ecc22f4f08ae6222d2fd4e45045e1_cgraph_org.svg" target="_base">
   <rect id="button" ry="5" rx="5" y="6" x="6" height="38" width="38"
        fill="#f2f5e9" fill-opacity="0.5" stroke="#606060" stroke-width="1.0"/>
   <path id="arrow"
     d="M 11.500037,31.436501 C 11.940474,20.09759 22.043105,11.32322 32.158766,21.979434 L 37.068811,17.246167 C 37.068811,17.246167 37.088388,32 37.088388,32 L 22.160133,31.978069 C 22.160133,31.978069 26.997745,27.140456 26.997745,27.140456 C 18.528582,18.264221 13.291696,25.230495 11.500037,31.436501 z"
     style="fill:#404040;"/>
  </a>
 </g>
</svg>

<style type='text/css'>
<![CDATA[
[data-mouse-over-selected='false'] { opacity: 0.7; }
[data-mouse-over-selected='true']  { opacity: 1.0; }
]]>
</style>
<script type="application/ecmascript"><![CDATA[
document.addEventListener('DOMContentLoaded', (event) => {
  highlightEdges();
  highlightAdjacentNodes();
});
]]></script>
</svg>
