<?xml version="1.0" encoding="UTF-8" standalone="no"?>
<!DOCTYPE svg PUBLIC "-//W3C//DTD SVG 1.1//EN"
 "http://www.w3.org/Graphics/SVG/1.1/DTD/svg11.dtd">
<!-- Generated by graphviz version 12.1.2 (20240928.0832)
 -->
<!-- Title: VRE::VRE_Device::VRE_Device Pages: 1 -->
<!--zoomable 404 -->

<svg id="main" version="1.1" xmlns="http://www.w3.org/2000/svg" xmlns:xlink="http://www.w3.org/1999/xlink" xml:space="preserve" onload="init(evt)">

<style type="text/css"><![CDATA[
.node, .edge {opacity: 0.7;}
.node.selected, .edge.selected {opacity: 1;}
.edge:hover path { stroke: red; }
.edge:hover polygon { stroke: red; fill: red; }
]]></style>

<defs>
  <circle id="rim" cx="0" cy="0" r="7"/>
  <circle id="rim2" cx="0" cy="0" r="3.5"/>
  <g id="zoomPlus">
    <use xlink:href="#rim" fill="#404040"><set attributeName="fill" to="#808080" begin="zoomplus.mouseover" end="zoomplus.mouseout"/></use>
    <path d="M-4,0h8M0,-4v8" fill="none" stroke="white" stroke-width="1.5" pointer-events="none"/>
  </g>
  <g id="zoomMin">
    <use xlink:href="#rim" fill="#404040"><set attributeName="fill" to="#808080" begin="zoomminus.mouseover" end="zoomminus.mouseout"/></use>
    <path d="M-4,0h8" fill="none" stroke="white" stroke-width="1.5" pointer-events="none"/>
  </g>
  <g id="arrowUp" transform="translate(30 24)">
    <use xlink:href="#rim"/>
    <path pointer-events="none" fill="none" stroke="white" stroke-width="1.5" d="M0,-3.0v7 M-2.5,-0.5L0,-3.0L2.5,-0.5"/>
  </g>
  <g id="arrowRight" transform="rotate(90) translate(36 -43)">
    <use xlink:href="#rim"/>
    <path pointer-events="none" fill="none" stroke="white" stroke-width="1.5" d="M0,-3.0v7 M-2.5,-0.5L0,-3.0L2.5,-0.5"/>
  </g>
  <g id="arrowDown" transform="rotate(180) translate(-30 -48)">
    <use xlink:href="#rim"/>
    <path pointer-events="none" fill="none" stroke="white" stroke-width="1.5" d="M0,-3.0v7 M-2.5,-0.5L0,-3.0L2.5,-0.5"/>
  </g>
  <g id="arrowLeft" transform="rotate(270) translate(-36 17)">
    <use xlink:href="#rim"/>
    <path pointer-events="none" fill="none" stroke="white" stroke-width="1.5" d="M0,-3.0v7 M-2.5,-0.5L0,-3.0L2.5,-0.5"/>
  </g>
  <g id="resetDef">
    <use xlink:href="#rim2" fill="#404040"><set attributeName="fill" to="#808080" begin="reset.mouseover" end="reset.mouseout"/></use>
  </g>
</defs>
<script type="application/ecmascript">
var viewWidth = 965;
var viewHeight = 404;
var sectionId = 'dynsection-1';
</script>
<script type="application/ecmascript" xlink:href="svg.min.js"/>
<svg id="graph" class="graph">
<g id="viewport">
<title>VRE::VRE_Device::VRE_Device</title>
<!-- Node1 -->
<g id="Node000001" class="node">
<title>Node1</title>
<g id="a_Node000001"><a xlink:title=" ">
<polygon fill="#999999" stroke="#666666" points="127,-236 0,-236 0,-204 127,-204 127,-236"/>
<text text-anchor="start" x="8" y="-222.5" font-family="Helvetica,sans-Serif" font-size="10.00">VRE::VRE_Device::VRE</text>
<text text-anchor="middle" x="63.5" y="-210.5" font-family="Helvetica,sans-Serif" font-size="10.00">_Device</text>
</a>
</g>
</g>
<!-- Node2 -->
<g id="Node000002" class="node">
<title>Node2</title>
<g id="a_Node000002"><a xlink:href="class_v_r_e_1_1_v_r_e___device.html#a82293b456abd0802f4dec511cfd877db" target="_top" xlink:title=" ">
<polygon fill="white" stroke="#666666" points="362.75,-384 163,-384 163,-364 362.75,-364 362.75,-384"/>
<text text-anchor="middle" x="262.88" y="-370.5" font-family="Helvetica,sans-Serif" font-size="10.00">VRE::VRE_Device::CreateCommandPool</text>
</a>
</g>
</g>
<!-- Node1&#45;&gt;Node2 -->
<g id="edge1_Node000001_Node000002" class="edge">
<title>Node1&#45;&gt;Node2</title>
<g id="a_edge1_Node000001_Node000002"><a xlink:title=" ">
<path fill="none" stroke="#63b8ff" d="M72.23,-236.47C86.23,-264.39 118.48,-320.81 163,-350 168.82,-353.81 175.18,-357.02 181.79,-359.72"/>
<polygon fill="#63b8ff" stroke="#63b8ff" points="180.32,-362.91 190.91,-363.04 182.71,-356.33 180.32,-362.91"/>
</a>
</g>
</g>
<!-- Node6 -->
<g id="Node000006" class="node">
<title>Node6</title>
<g id="a_Node000006"><a xlink:href="class_v_r_e_1_1_v_r_e___device.html#a5bbbb7f93156011a776352ea773f2761" target="_top" xlink:title=" ">
<polygon fill="white" stroke="#666666" points="349.25,-208 176.5,-208 176.5,-188 349.25,-188 349.25,-208"/>
<text text-anchor="middle" x="262.88" y="-194.5" font-family="Helvetica,sans-Serif" font-size="10.00">VRE::VRE_Device::CreateInstance</text>
</a>
</g>
</g>
<!-- Node1&#45;&gt;Node6 -->
<g id="edge5_Node000001_Node000006" class="edge">
<title>Node1&#45;&gt;Node6</title>
<g id="a_edge5_Node000001_Node000006"><a xlink:title=" ">
<path fill="none" stroke="#63b8ff" d="M127.49,-212.98C139.45,-211.65 152.21,-210.22 164.93,-208.81"/>
<polygon fill="#63b8ff" stroke="#63b8ff" points="165.03,-212.32 174.58,-207.73 164.25,-205.36 165.03,-212.32"/>
</a>
</g>
</g>
<!-- Node12 -->
<g id="Node000012" class="node">
<title>Node12</title>
<g id="a_Node000012"><a xlink:href="class_v_r_e_1_1_v_r_e___device.html#af29b36e906934dd4c3d6c5e4e4d390ed" target="_top" xlink:title=" ">
<polygon fill="white" stroke="#666666" points="345.88,-341 179.88,-341 179.88,-309 345.88,-309 345.88,-341"/>
<text text-anchor="start" x="187.88" y="-327.5" font-family="Helvetica,sans-Serif" font-size="10.00">VRE::VRE_Device::CreateLogical</text>
<text text-anchor="middle" x="262.88" y="-315.5" font-family="Helvetica,sans-Serif" font-size="10.00">Device</text>
</a>
</g>
</g>
<!-- Node1&#45;&gt;Node12 -->
<g id="edge12_Node000001_Node000012" class="edge">
<title>Node1&#45;&gt;Node12</title>
<g id="a_edge12_Node000001_Node000012"><a xlink:title=" ">
<path fill="none" stroke="#63b8ff" d="M84.62,-236.47C103.85,-251.62 134.11,-273.96 163,-289 173.98,-294.72 186.07,-299.93 197.92,-304.5"/>
<polygon fill="#63b8ff" stroke="#63b8ff" points="196.69,-307.78 207.28,-307.99 199.13,-301.22 196.69,-307.78"/>
</a>
</g>
</g>
<!-- Node13 -->
<g id="Node000013" class="node">
<title>Node13</title>
<g id="a_Node000013"><a xlink:href="class_v_r_e_1_1_v_r_e___device.html#a2af6598309e1830a17e7d2fc07565f34" target="_top" xlink:title=" ">
<polygon fill="white" stroke="#666666" points="347.38,-48 178.38,-48 178.38,-28 347.38,-28 347.38,-48"/>
<text text-anchor="middle" x="262.88" y="-34.5" font-family="Helvetica,sans-Serif" font-size="10.00">VRE::VRE_Device::CreateSurface</text>
</a>
</g>
</g>
<!-- Node1&#45;&gt;Node13 -->
<g id="edge14_Node000001_Node000013" class="edge">
<title>Node1&#45;&gt;Node13</title>
<g id="a_edge14_Node000001_Node000013"><a xlink:title=" ">
<path fill="none" stroke="#63b8ff" d="M71.95,-203.8C85.94,-175 118.78,-114.54 163,-79 177.38,-67.44 195.47,-58.69 212.23,-52.29"/>
<polygon fill="#63b8ff" stroke="#63b8ff" points="213.35,-55.61 221.58,-48.94 210.99,-49.02 213.35,-55.61"/>
</a>
</g>
</g>
<!-- Node15 -->
<g id="Node000015" class="node">
<title>Node15</title>
<g id="a_Node000015"><a xlink:href="class_v_r_e_1_1_v_r_e___device.html#a864036439c38249d08abcef93b24d94a" target="_top" xlink:title=" ">
<polygon fill="white" stroke="#666666" points="344.38,-280 181.38,-280 181.38,-248 344.38,-248 344.38,-280"/>
<text text-anchor="start" x="189.38" y="-266.5" font-family="Helvetica,sans-Serif" font-size="10.00">VRE::VRE_Device::PickPhysical</text>
<text text-anchor="middle" x="262.88" y="-254.5" font-family="Helvetica,sans-Serif" font-size="10.00">Device</text>
</a>
</g>
</g>
<!-- Node1&#45;&gt;Node15 -->
<g id="edge16_Node000001_Node000015" class="edge">
<title>Node1&#45;&gt;Node15</title>
<g id="a_edge16_Node000001_Node000015"><a xlink:title=" ">
<path fill="none" stroke="#63b8ff" d="M127.49,-234.04C143.32,-237.57 160.56,-241.41 177.25,-245.14"/>
<polygon fill="#63b8ff" stroke="#63b8ff" points="176.12,-248.47 186.64,-247.23 177.65,-241.64 176.12,-248.47"/>
</a>
</g>
</g>
<!-- Node19 -->
<g id="Node000019" class="node">
<title>Node19</title>
<g id="a_Node000019"><a xlink:href="class_v_r_e_1_1_v_r_e___device.html#af582ab8ae1c0550bbd19b445f0d85018" target="_top" xlink:title=" ">
<polygon fill="white" stroke="#666666" points="342.88,-120 182.88,-120 182.88,-88 342.88,-88 342.88,-120"/>
<text text-anchor="start" x="190.88" y="-106.5" font-family="Helvetica,sans-Serif" font-size="10.00">VRE::VRE_Device::SetupDebug</text>
<text text-anchor="middle" x="262.88" y="-94.5" font-family="Helvetica,sans-Serif" font-size="10.00">Messenger</text>
</a>
</g>
</g>
<!-- Node1&#45;&gt;Node19 -->
<g id="edge22_Node000001_Node000019" class="edge">
<title>Node1&#45;&gt;Node19</title>
<g id="a_edge22_Node000001_Node000019"><a xlink:title=" ">
<path fill="none" stroke="#63b8ff" d="M92.36,-203.63C126.79,-183.39 185.54,-148.86 224.04,-126.24"/>
<polygon fill="#63b8ff" stroke="#63b8ff" points="225.68,-129.33 232.53,-121.24 222.14,-123.29 225.68,-129.33"/>
</a>
</g>
</g>
<!-- Node3 -->
<g id="Node000003" class="node">
<title>Node3</title>
<g id="a_Node000003"><a xlink:href="class_v_r_e_1_1_v_r_e___device.html#a69f90869ef38058b3880e3f87ae07ade" target="_top" xlink:title=" ">
<polygon fill="white" stroke="#666666" points="574.12,-396 411.88,-396 411.88,-364 574.12,-364 574.12,-396"/>
<text text-anchor="start" x="419.88" y="-382.5" font-family="Helvetica,sans-Serif" font-size="10.00">VRE::VRE_Device::FindPhysical</text>
<text text-anchor="middle" x="493" y="-370.5" font-family="Helvetica,sans-Serif" font-size="10.00">QueueFamilies</text>
</a>
</g>
</g>
<!-- Node2&#45;&gt;Node3 -->
<g id="edge2_Node000002_Node000003" class="edge">
<title>Node2&#45;&gt;Node3</title>
<g id="a_edge2_Node000002_Node000003"><a xlink:title=" ">
<path fill="none" stroke="#63b8ff" d="M362.94,-376.61C375.37,-376.93 388.04,-377.27 400.34,-377.59"/>
<polygon fill="#63b8ff" stroke="#63b8ff" points="399.93,-381.08 410.02,-377.84 400.11,-374.08 399.93,-381.08"/>
</a>
</g>
</g>
<!-- Node4 -->
<g id="Node000004" class="node">
<title>Node4</title>
<g id="a_Node000004"><a xlink:href="class_v_r_e_1_1_v_r_e___device.html#a49164610e5f85640d5a4f59613cb3539" target="_top" xlink:title=" ">
<polygon fill="white" stroke="#666666" points="782.5,-386 629.25,-386 629.25,-354 782.5,-354 782.5,-386"/>
<text text-anchor="start" x="637.25" y="-372.5" font-family="Helvetica,sans-Serif" font-size="10.00">VRE::VRE_Device::FindQueue</text>
<text text-anchor="middle" x="705.88" y="-360.5" font-family="Helvetica,sans-Serif" font-size="10.00">Families</text>
</a>
</g>
</g>
<!-- Node3&#45;&gt;Node4 -->
<g id="edge3_Node000003_Node000004" class="edge">
<title>Node3&#45;&gt;Node4</title>
<g id="a_edge3_Node000003_Node000004"><a xlink:title=" ">
<path fill="none" stroke="#63b8ff" d="M574.32,-376.19C588.47,-375.52 603.25,-374.82 617.57,-374.14"/>
<polygon fill="#63b8ff" stroke="#63b8ff" points="617.61,-377.64 627.43,-373.67 617.28,-370.65 617.61,-377.64"/>
</a>
</g>
</g>
<!-- Node5 -->
<g id="Node000005" class="node">
<title>Node5</title>
<g id="a_Node000005"><a xlink:href="struct_v_r_e_1_1_queue_family_indices.html#a163909a037bfb772931414e8557eb5b6" target="_top" xlink:title=" ">
<polygon fill="white" stroke="#666666" points="956.75,-364 824.5,-364 824.5,-332 956.75,-332 956.75,-364"/>
<text text-anchor="start" x="832.5" y="-350.5" font-family="Helvetica,sans-Serif" font-size="10.00">VRE::QueueFamilyIndices</text>
<text text-anchor="middle" x="890.62" y="-338.5" font-family="Helvetica,sans-Serif" font-size="10.00">::IsComplete</text>
</a>
</g>
</g>
<!-- Node4&#45;&gt;Node5 -->
<g id="edge4_Node000004_Node000005" class="edge">
<title>Node4&#45;&gt;Node5</title>
<g id="a_edge4_Node000004_Node000005"><a xlink:title=" ">
<path fill="none" stroke="#63b8ff" d="M782.79,-360.86C792.77,-359.66 802.99,-358.43 812.98,-357.23"/>
<polygon fill="#63b8ff" stroke="#63b8ff" points="813.12,-360.74 822.63,-356.07 812.28,-353.79 813.12,-360.74"/>
</a>
</g>
</g>
<!-- Node7 -->
<g id="Node000007" class="node">
<title>Node7</title>
<g id="a_Node000007"><a xlink:href="class_v_r_e_1_1_v_r_e___device.html#a491f794af166b3377214663df8abc85e" target="_top" xlink:title=" ">
<polygon fill="white" stroke="#666666" points="581.25,-258 404.75,-258 404.75,-226 581.25,-226 581.25,-258"/>
<text text-anchor="start" x="412.75" y="-244.5" font-family="Helvetica,sans-Serif" font-size="10.00">VRE::VRE_Device::CheckValidation</text>
<text text-anchor="middle" x="493" y="-232.5" font-family="Helvetica,sans-Serif" font-size="10.00">LayerSupport</text>
</a>
</g>
</g>
<!-- Node6&#45;&gt;Node7 -->
<g id="edge6_Node000006_Node000007" class="edge">
<title>Node6&#45;&gt;Node7</title>
<g id="a_edge6_Node000006_Node000007"><a xlink:title=" ">
<path fill="none" stroke="#63b8ff" d="M318.23,-208.48C341.4,-212.95 369.16,-218.31 395.62,-223.41"/>
<polygon fill="#63b8ff" stroke="#63b8ff" points="394.9,-226.84 405.38,-225.29 396.22,-219.96 394.9,-226.84"/>
</a>
</g>
</g>
<!-- Node8 -->
<g id="Node000008" class="node">
<title>Node8</title>
<g id="a_Node000008"><a xlink:href="class_v_r_e_1_1_v_r_e___device.html#a5e60ae7c2652c1fe60d3feab81c77927" target="_top" xlink:title=" ">
<polygon fill="white" stroke="#666666" points="786.25,-189 625.5,-189 625.5,-157 786.25,-157 786.25,-189"/>
<text text-anchor="start" x="633.5" y="-175.5" font-family="Helvetica,sans-Serif" font-size="10.00">VRE::VRE_Device::GetRequired</text>
<text text-anchor="middle" x="705.88" y="-163.5" font-family="Helvetica,sans-Serif" font-size="10.00">Extensions</text>
</a>
</g>
</g>
<!-- Node6&#45;&gt;Node8 -->
<g id="edge7_Node000006_Node000008" class="edge">
<title>Node6&#45;&gt;Node8</title>
<g id="a_edge7_Node000006_Node000008"><a xlink:title=" ">
<path fill="none" stroke="#63b8ff" d="M349.69,-193.14C425.75,-188.82 536.48,-182.55 614.03,-178.15"/>
<polygon fill="#63b8ff" stroke="#63b8ff" points="613.93,-181.66 623.71,-177.6 613.53,-174.67 613.93,-181.66"/>
</a>
</g>
</g>
<!-- Node9 -->
<g id="Node000009" class="node">
<title>Node9</title>
<g id="a_Node000009"><a xlink:href="class_v_r_e_1_1_v_r_e___device.html#ab5f5627926ed001d28590a45c0120222" target="_top" xlink:title=" ">
<polygon fill="white" stroke="#666666" points="565.12,-170 420.88,-170 420.88,-138 565.12,-138 565.12,-170"/>
<text text-anchor="start" x="428.88" y="-156.5" font-family="Helvetica,sans-Serif" font-size="10.00">VRE::VRE_Device::HasGflw</text>
<text text-anchor="middle" x="493" y="-144.5" font-family="Helvetica,sans-Serif" font-size="10.00">RequiredInstanceExtensions</text>
</a>
</g>
</g>
<!-- Node6&#45;&gt;Node9 -->
<g id="edge8_Node000006_Node000009" class="edge">
<title>Node6&#45;&gt;Node9</title>
<g id="a_edge8_Node000006_Node000009"><a xlink:title=" ">
<path fill="none" stroke="#63b8ff" d="M318.23,-187.52C345.57,-182.24 379.3,-175.74 409.74,-169.87"/>
<polygon fill="#63b8ff" stroke="#63b8ff" points="410.15,-173.35 419.3,-168.02 408.82,-166.48 410.15,-173.35"/>
</a>
</g>
</g>
<!-- Node10 -->
<g id="Node000010" class="node">
<title>Node10</title>
<g id="a_Node000010"><a xlink:href="class_v_r_e_1_1_v_r_e___device.html#a5be545b677e320b86cd1250844bfb466" target="_top" xlink:title=" ">
<polygon fill="white" stroke="#666666" points="565.12,-120 420.88,-120 420.88,-88 565.12,-88 565.12,-120"/>
<text text-anchor="start" x="428.88" y="-106.5" font-family="Helvetica,sans-Serif" font-size="10.00">VRE::VRE_Device::Populate</text>
<text text-anchor="middle" x="493" y="-94.5" font-family="Helvetica,sans-Serif" font-size="10.00">DebugMessengerCreateInfo</text>
</a>
</g>
</g>
<!-- Node6&#45;&gt;Node10 -->
<g id="edge10_Node000006_Node000010" class="edge">
<title>Node6&#45;&gt;Node10</title>
<g id="a_edge10_Node000006_Node000010"><a xlink:title=" ">
<path fill="none" stroke="#63b8ff" d="M281.22,-187.62C306.38,-172.91 354.81,-145.91 398.75,-129 403.45,-127.19 408.34,-125.46 413.29,-123.82"/>
<polygon fill="#63b8ff" stroke="#63b8ff" points="414.3,-127.17 422.78,-120.82 412.19,-120.5 414.3,-127.17"/>
</a>
</g>
</g>
<!-- Node9&#45;&gt;Node8 -->
<g id="edge9_Node000009_Node000008" class="edge">
<title>Node9&#45;&gt;Node8</title>
<g id="a_edge9_Node000009_Node000008"><a xlink:title=" ">
<path fill="none" stroke="#63b8ff" d="M565.39,-160.43C581.02,-161.84 597.77,-163.35 614.05,-164.82"/>
<polygon fill="#63b8ff" stroke="#63b8ff" points="613.44,-168.28 623.71,-165.69 614.06,-161.3 613.44,-168.28"/>
</a>
</g>
</g>
<!-- Node11 -->
<g id="Node000011" class="node">
<title>Node11</title>
<g id="a_Node000011"><a xlink:href="namespace_v_r_e.html#a3d5fd8bffde402e896abe076f5ca86d0" target="_top" xlink:title=" ">
<polygon fill="white" stroke="#666666" points="759.62,-114 652.12,-114 652.12,-94 759.62,-94 759.62,-114"/>
<text text-anchor="middle" x="705.88" y="-100.5" font-family="Helvetica,sans-Serif" font-size="10.00">VRE::debugCallback</text>
</a>
</g>
</g>
<!-- Node10&#45;&gt;Node11 -->
<g id="edge11_Node000010_Node000011" class="edge">
<title>Node10&#45;&gt;Node11</title>
<g id="a_edge11_Node000010_Node000011"><a xlink:title=" ">
<path fill="none" stroke="#63b8ff" d="M565.39,-104C589.73,-104 616.77,-104 640.52,-104"/>
<polygon fill="#63b8ff" stroke="#63b8ff" points="640.38,-107.5 650.38,-104 640.38,-100.5 640.38,-107.5"/>
</a>
</g>
</g>
<!-- Node12&#45;&gt;Node4 -->
<g id="edge13_Node000012_Node000004" class="edge">
<title>Node12&#45;&gt;Node4</title>
<g id="a_edge13_Node000012_Node000004"><a xlink:title=" ">
<path fill="none" stroke="#63b8ff" d="M346.36,-331.87C411.75,-337.5 505.43,-345.99 587.25,-355 597.17,-356.09 607.55,-357.31 617.86,-358.56"/>
<polygon fill="#63b8ff" stroke="#63b8ff" points="617.14,-362 627.49,-359.75 617.99,-355.05 617.14,-362"/>
</a>
</g>
</g>
<!-- Node14 -->
<g id="Node000014" class="node">
<title>Node14</title>
<g id="a_Node000014"><a xlink:href="class_v_r_e_1_1_v_r_e___window.html#af00df384f7d8c54bb8577519bb6eaf7e" target="_top" xlink:title=" ">
<polygon fill="white" stroke="#666666" points="580.5,-32 405.5,-32 405.5,0 580.5,0 580.5,-32"/>
<text text-anchor="start" x="413.5" y="-18.5" font-family="Helvetica,sans-Serif" font-size="10.00">VRE::VRE_Window::CreateWindow</text>
<text text-anchor="middle" x="493" y="-6.5" font-family="Helvetica,sans-Serif" font-size="10.00">Surface</text>
</a>
</g>
</g>
<!-- Node13&#45;&gt;Node14 -->
<g id="edge15_Node000013_Node000014" class="edge">
<title>Node13&#45;&gt;Node14</title>
<g id="a_edge15_Node000013_Node000014"><a xlink:title=" ">
<path fill="none" stroke="#63b8ff" d="M347.85,-29.9C362.88,-28.45 378.65,-26.93 394.03,-25.45"/>
<polygon fill="#63b8ff" stroke="#63b8ff" points="394.02,-28.97 403.64,-24.52 393.35,-22 394.02,-28.97"/>
</a>
</g>
</g>
<!-- Node16 -->
<g id="Node000016" class="node">
<title>Node16</title>
<g id="a_Node000016"><a xlink:href="class_v_r_e_1_1_v_r_e___device.html#ae38ecc22f4f08ae6222d2fd4e45045e1" target="_top" xlink:title=" ">
<polygon fill="white" stroke="#666666" points="565.5,-308 420.5,-308 420.5,-276 565.5,-276 565.5,-308"/>
<text text-anchor="start" x="428.5" y="-294.5" font-family="Helvetica,sans-Serif" font-size="10.00">VRE::VRE_Device::IsDevice</text>
<text text-anchor="middle" x="493" y="-282.5" font-family="Helvetica,sans-Serif" font-size="10.00">Suitable</text>
</a>
</g>
</g>
<!-- Node15&#45;&gt;Node16 -->
<g id="edge17_Node000015_Node000016" class="edge">
<title>Node15&#45;&gt;Node16</title>
<g id="a_edge17_Node000015_Node000016"><a xlink:title=" ">
<path fill="none" stroke="#63b8ff" d="M344.62,-273.91C365.48,-276.47 387.97,-279.23 408.95,-281.81"/>
<polygon fill="#63b8ff" stroke="#63b8ff" points="408.24,-285.25 418.59,-282.99 409.09,-278.3 408.24,-285.25"/>
</a>
</g>
</g>
<!-- Node16&#45;&gt;Node4 -->
<g id="edge19_Node000016_Node000004" class="edge">
<title>Node16&#45;&gt;Node4</title>
<g id="a_edge19_Node000016_Node000004"><a xlink:title=" ">
<path fill="none" stroke="#63b8ff" d="M549.73,-308.39C562.2,-312.49 575.28,-317.12 587.25,-322 603.81,-328.76 606.83,-332.9 623.25,-340 630.78,-343.25 638.78,-346.48 646.73,-349.54"/>
<polygon fill="#63b8ff" stroke="#63b8ff" points="645.47,-352.8 656.06,-353.06 647.94,-346.25 645.47,-352.8"/>
</a>
</g>
</g>
<!-- Node16&#45;&gt;Node5 -->
<g id="edge20_Node000016_Node000005" class="edge">
<title>Node16&#45;&gt;Node5</title>
<g id="a_edge20_Node000016_Node000005"><a xlink:title=" ">
<path fill="none" stroke="#63b8ff" d="M565.64,-302.14C635.5,-312.03 741.39,-327.02 812.92,-337.14"/>
<polygon fill="#63b8ff" stroke="#63b8ff" points="812.2,-340.58 822.6,-338.51 813.19,-333.65 812.2,-340.58"/>
</a>
</g>
</g>
<!-- Node17 -->
<g id="Node000017" class="node">
<title>Node17</title>
<g id="a_Node000017"><a xlink:href="class_v_r_e_1_1_v_r_e___device.html#a90fdae5aade29df930a26e19e6dd63a4" target="_top" xlink:title=" ">
<polygon fill="white" stroke="#666666" points="788.5,-298 623.25,-298 623.25,-266 788.5,-266 788.5,-298"/>
<text text-anchor="start" x="631.25" y="-284.5" font-family="Helvetica,sans-Serif" font-size="10.00">VRE::VRE_Device::CheckDevice</text>
<text text-anchor="middle" x="705.88" y="-272.5" font-family="Helvetica,sans-Serif" font-size="10.00">ExtensionSupport</text>
</a>
</g>
</g>
<!-- Node16&#45;&gt;Node17 -->
<g id="edge18_Node000016_Node000017" class="edge">
<title>Node16&#45;&gt;Node17</title>
<g id="a_edge18_Node000016_Node000017"><a xlink:title=" ">
<path fill="none" stroke="#63b8ff" d="M565.98,-288.59C580.77,-287.89 596.53,-287.14 611.94,-286.41"/>
<polygon fill="#63b8ff" stroke="#63b8ff" points="611.73,-289.92 621.56,-285.95 611.4,-282.93 611.73,-289.92"/>
</a>
</g>
</g>
<!-- Node18 -->
<g id="Node000018" class="node">
<title>Node18</title>
<g id="a_Node000018"><a xlink:href="class_v_r_e_1_1_v_r_e___device.html#a30a3edcffb07cf4e3050b438405bbd81" target="_top" xlink:title=" ">
<polygon fill="white" stroke="#666666" points="784.38,-248 627.38,-248 627.38,-216 784.38,-216 784.38,-248"/>
<text text-anchor="start" x="635.38" y="-234.5" font-family="Helvetica,sans-Serif" font-size="10.00">VRE::VRE_Device::QuerySwap</text>
<text text-anchor="middle" x="705.88" y="-222.5" font-family="Helvetica,sans-Serif" font-size="10.00">ChainSupport</text>
</a>
</g>
</g>
<!-- Node16&#45;&gt;Node18 -->
<g id="edge21_Node000016_Node000018" class="edge">
<title>Node16&#45;&gt;Node18</title>
<g id="a_edge21_Node000016_Node000018"><a xlink:title=" ">
<path fill="none" stroke="#63b8ff" d="M556.26,-275.56C566.62,-272.75 577.25,-269.83 587.25,-267 604.32,-262.17 622.73,-256.78 639.8,-251.71"/>
<polygon fill="#63b8ff" stroke="#63b8ff" points="640.77,-255.07 649.35,-248.86 638.76,-248.36 640.77,-255.07"/>
</a>
</g>
</g>
<!-- Node19&#45;&gt;Node10 -->
<g id="edge24_Node000019_Node000010" class="edge">
<title>Node19&#45;&gt;Node10</title>
<g id="a_edge24_Node000019_Node000010"><a xlink:title=" ">
<path fill="none" stroke="#63b8ff" d="M343.34,-104C364.6,-104 387.62,-104 409.06,-104"/>
<polygon fill="#63b8ff" stroke="#63b8ff" points="408.93,-107.5 418.93,-104 408.93,-100.5 408.93,-107.5"/>
</a>
</g>
</g>
<!-- Node20 -->
<g id="Node000020" class="node">
<title>Node20</title>
<g id="a_Node000020"><a xlink:href="namespace_v_r_e.html#a411c34cbfcabaf6ba94f2e11a759dce7" target="_top" xlink:title=" ">
<polygon fill="white" stroke="#666666" points="587.25,-70 398.75,-70 398.75,-50 587.25,-50 587.25,-70"/>
<text text-anchor="middle" x="493" y="-56.5" font-family="Helvetica,sans-Serif" font-size="10.00">VRE::CreateDebugUtilsMessengerEXT</text>
</a>
</g>
</g>
<!-- Node19&#45;&gt;Node20 -->
<g id="edge23_Node000019_Node000020" class="edge">
<title>Node19&#45;&gt;Node20</title>
<g id="a_edge23_Node000019_Node000020"><a xlink:title=" ">
<path fill="none" stroke="#63b8ff" d="M343.34,-88.67C370.56,-83.42 400.68,-77.61 426.65,-72.6"/>
<polygon fill="#63b8ff" stroke="#63b8ff" points="427.25,-76.05 436.4,-70.72 425.92,-69.18 427.25,-76.05"/>
</a>
</g>
</g>
</g>
</svg>

<g id="navigator" transform="translate(0 0)" fill="#404254">
  <rect fill="#f2f5e9" fill-opacity="0.5" stroke="#606060" stroke-width=".5" x="0" y="0" width="60" height="60"/>
  <use id="zoomplus" xlink:href="#zoomPlus" x="17" y="9" onmousedown="handleZoom(evt,'in')"/>
  <use id="zoomminus" xlink:href="#zoomMin" x="42" y="9" onmousedown="handleZoom(evt,'out')"/>
  <use id="reset" xlink:href="#resetDef" x="30" y="36" onmousedown="handleReset()"/>
   <use id="arrowup" xlink:href="#arrowUp" x="0" y="0" onmousedown="handlePan(0,-1)"/>
  <use id="arrowright" xlink:href="#arrowRight" x="0" y="0" onmousedown="handlePan(1,0)"/>
  <use id="arrowdown" xlink:href="#arrowDown" x="0" y="0" onmousedown="handlePan(0,1)"/>
  <use id="arrowleft" xlink:href="#arrowLeft" x="0" y="0" onmousedown="handlePan(-1,0)"/>
</g>
<svg viewBox="0 0 15 15" width="100%" height="30px" preserveAspectRatio="xMaxYMin meet">
 <g id="arrow_out" transform="scale(0.3 0.3)">
  <a xlink:href="class_v_r_e_1_1_v_r_e___device_a5d4844121745038e06c3f7de3bae4687_cgraph_org.svg" target="_base">
   <rect id="button" ry="5" rx="5" y="6" x="6" height="38" width="38"
        fill="#f2f5e9" fill-opacity="0.5" stroke="#606060" stroke-width="1.0"/>
   <path id="arrow"
     d="M 11.500037,31.436501 C 11.940474,20.09759 22.043105,11.32322 32.158766,21.979434 L 37.068811,17.246167 C 37.068811,17.246167 37.088388,32 37.088388,32 L 22.160133,31.978069 C 22.160133,31.978069 26.997745,27.140456 26.997745,27.140456 C 18.528582,18.264221 13.291696,25.230495 11.500037,31.436501 z"
     style="fill:#404040;"/>
  </a>
 </g>
</svg>

<style type='text/css'>
<![CDATA[
[data-mouse-over-selected='false'] { opacity: 0.7; }
[data-mouse-over-selected='true']  { opacity: 1.0; }
]]>
</style>
<script type="application/ecmascript"><![CDATA[
document.addEventListener('DOMContentLoaded', (event) => {
  highlightEdges();
  highlightAdjacentNodes();
});
]]></script>
</svg>
