<?xml version="1.0" encoding="UTF-8" standalone="no"?>
<!DOCTYPE svg PUBLIC "-//W3C//DTD SVG 1.1//EN"
 "http://www.w3.org/Graphics/SVG/1.1/DTD/svg11.dtd">
<!-- Generated by graphviz version 12.1.2 (20240928.0832)
 -->
<!-- Title: VRE::VRE_glTFModel::RenderNode Pages: 1 -->
<svg width="299pt" height="90pt"
 viewBox="0.00 0.00 298.75 90.00" xmlns="http://www.w3.org/2000/svg" xmlns:xlink="http://www.w3.org/1999/xlink">
<g id="graph0" class="graph" transform="scale(1 1) rotate(0) translate(4 86)">
<title>VRE::VRE_glTFModel::RenderNode</title>
<!-- Node1 -->
<g id="Node000001" class="node">
<title>Node1</title>
<g id="a_Node000001"><a xlink:title=" ">
<polygon fill="#999999" stroke="#666666" points="115,-57 0,-57 0,-25 115,-25 115,-57"/>
<text text-anchor="start" x="8" y="-43.5" font-family="Helvetica,sans-Serif" font-size="10.00">VRE::VRE_glTFModel</text>
<text text-anchor="middle" x="57.5" y="-31.5" font-family="Helvetica,sans-Serif" font-size="10.00">::RenderNode</text>
</a>
</g>
</g>
<!-- Node2 -->
<g id="Node000002" class="node">
<title>Node2</title>
<g id="a_Node000002"><a xlink:href="class_v_r_e_1_1_v_r_e___descriptor_writer.html#a55cab3920a8f2dfbcbba0f3710cd373e" target="_top" xlink:title=" ">
<polygon fill="white" stroke="#666666" points="290.75,-82 151,-82 151,-50 290.75,-50 290.75,-82"/>
<text text-anchor="start" x="159" y="-68.5" font-family="Helvetica,sans-Serif" font-size="10.00">VRE::VRE_DescriptorWriter</text>
<text text-anchor="middle" x="220.88" y="-56.5" font-family="Helvetica,sans-Serif" font-size="10.00">::Build</text>
</a>
</g>
</g>
<!-- Node1&#45;&gt;Node2 -->
<g id="edge1_Node000001_Node000002" class="edge">
<title>Node1&#45;&gt;Node2</title>
<g id="a_edge1_Node000001_Node000002"><a xlink:title=" ">
<path fill="none" stroke="#63b8ff" d="M115.39,-49.81C123.26,-51.03 131.45,-52.3 139.63,-53.57"/>
<polygon fill="#63b8ff" stroke="#63b8ff" points="138.85,-56.99 149.26,-55.06 139.92,-50.07 138.85,-56.99"/>
</a>
</g>
</g>
<!-- Node3 -->
<g id="Node000003" class="node">
<title>Node3</title>
<g id="a_Node000003"><a xlink:href="class_v_r_e_1_1_v_r_e___descriptor_writer.html#acbe2599628d159398cfd588f2e7a25c2" target="_top" xlink:title=" ">
<polygon fill="white" stroke="#666666" points="290.75,-32 151,-32 151,0 290.75,0 290.75,-32"/>
<text text-anchor="start" x="159" y="-18.5" font-family="Helvetica,sans-Serif" font-size="10.00">VRE::VRE_DescriptorWriter</text>
<text text-anchor="middle" x="220.88" y="-6.5" font-family="Helvetica,sans-Serif" font-size="10.00">::WriteImage</text>
</a>
</g>
</g>
<!-- Node1&#45;&gt;Node3 -->
<g id="edge2_Node000001_Node000003" class="edge">
<title>Node1&#45;&gt;Node3</title>
<g id="a_edge2_Node000001_Node000003"><a xlink:title=" ">
<path fill="none" stroke="#63b8ff" d="M115.39,-32.19C123.26,-30.97 131.45,-29.7 139.63,-28.43"/>
<polygon fill="#63b8ff" stroke="#63b8ff" points="139.92,-31.93 149.26,-26.94 138.85,-25.01 139.92,-31.93"/>
</a>
</g>
</g>
</g>
</svg>
