<?xml version="1.0" encoding="UTF-8" standalone="no"?>
<!DOCTYPE svg PUBLIC "-//W3C//DTD SVG 1.1//EN"
 "http://www.w3.org/Graphics/SVG/1.1/DTD/svg11.dtd">
<!-- Generated by graphviz version 12.1.2 (20240928.0832)
 -->
<!-- Title: VRE::VRE_LightRenderSystem::CreatePipeline Pages: 1 -->
<svg width="531pt" height="66pt"
 viewBox="0.00 0.00 530.75 66.00" xmlns="http://www.w3.org/2000/svg" xmlns:xlink="http://www.w3.org/1999/xlink">
<g id="graph0" class="graph" transform="scale(1 1) rotate(0) translate(4 62)">
<title>VRE::VRE_LightRenderSystem::CreatePipeline</title>
<!-- Node1 -->
<g id="Node000001" class="node">
<title>Node1</title>
<g id="a_Node000001"><a xlink:title=" ">
<polygon fill="#999999" stroke="#666666" points="155.5,-45 0,-45 0,-13 155.5,-13 155.5,-45"/>
<text text-anchor="start" x="8" y="-31.5" font-family="Helvetica,sans-Serif" font-size="10.00">VRE::VRE_LightRenderSystem</text>
<text text-anchor="middle" x="77.75" y="-19.5" font-family="Helvetica,sans-Serif" font-size="10.00">::CreatePipeline</text>
</a>
</g>
</g>
<!-- Node2 -->
<g id="Node000002" class="node">
<title>Node2</title>
<g id="a_Node000002"><a xlink:href="class_v_r_e_1_1_v_r_e___pipeline.html#aa30fd0bae585ba67fc296d6f1dc2234b" target="_top" xlink:title=" ">
<polygon fill="white" stroke="#666666" points="334.25,-45 191.5,-45 191.5,-13 334.25,-13 334.25,-45"/>
<text text-anchor="start" x="199.5" y="-31.5" font-family="Helvetica,sans-Serif" font-size="10.00">VRE::VRE_Pipeline::</text>
<text text-anchor="middle" x="262.88" y="-19.5" font-family="Helvetica,sans-Serif" font-size="10.00">GetDefaultPipelineConfigInfo</text>
</a>
</g>
</g>
<!-- Node1&#45;&gt;Node2 -->
<g id="edge1_Node000001_Node000002" class="edge">
<title>Node1&#45;&gt;Node2</title>
<g id="a_edge1_Node000001_Node000002"><a xlink:title=" ">
<path fill="none" stroke="#63b8ff" d="M155.88,-29C163.85,-29 171.98,-29 180,-29"/>
<polygon fill="#63b8ff" stroke="#63b8ff" points="179.73,-32.5 189.73,-29 179.73,-25.5 179.73,-32.5"/>
</a>
</g>
</g>
<!-- Node3 -->
<g id="Node000003" class="node">
<title>Node3</title>
<g id="a_Node000003"><a xlink:href="struct_v_r_e_1_1_vertex.html#aa02a08c6e6f16997ee7d1ba41362e7ee" target="_top" xlink:title=" ">
<polygon fill="white" stroke="#666666" points="522.75,-58 370.25,-58 370.25,-38 522.75,-38 522.75,-58"/>
<text text-anchor="middle" x="446.5" y="-44.5" font-family="Helvetica,sans-Serif" font-size="10.00">VRE::Vertex::GetAttributeDesc</text>
</a>
</g>
</g>
<!-- Node2&#45;&gt;Node3 -->
<g id="edge2_Node000002_Node000003" class="edge">
<title>Node2&#45;&gt;Node3</title>
<g id="a_edge2_Node000002_Node000003"><a xlink:title=" ">
<path fill="none" stroke="#63b8ff" d="M334.62,-36.4C342.47,-37.22 350.53,-38.07 358.56,-38.9"/>
<polygon fill="#63b8ff" stroke="#63b8ff" points="358.03,-42.37 368.34,-39.93 358.76,-35.41 358.03,-42.37"/>
</a>
</g>
</g>
<!-- Node4 -->
<g id="Node000004" class="node">
<title>Node4</title>
<g id="a_Node000004"><a xlink:href="struct_v_r_e_1_1_vertex.html#a728c4116a202c00fdeae9494f9bf5f80" target="_top" xlink:title=" ">
<polygon fill="white" stroke="#666666" points="520.5,-20 372.5,-20 372.5,0 520.5,0 520.5,-20"/>
<text text-anchor="middle" x="446.5" y="-6.5" font-family="Helvetica,sans-Serif" font-size="10.00">VRE::Vertex::GetBindingDesc</text>
</a>
</g>
</g>
<!-- Node2&#45;&gt;Node4 -->
<g id="edge3_Node000002_Node000004" class="edge">
<title>Node2&#45;&gt;Node4</title>
<g id="a_edge3_Node000002_Node000004"><a xlink:title=" ">
<path fill="none" stroke="#63b8ff" d="M334.62,-21.6C343.2,-20.7 352.04,-19.78 360.81,-18.86"/>
<polygon fill="#63b8ff" stroke="#63b8ff" points="361.17,-22.34 370.75,-17.82 360.44,-15.38 361.17,-22.34"/>
</a>
</g>
</g>
</g>
</svg>
