<?xml version="1.0" encoding="UTF-8" standalone="no"?>
<!DOCTYPE svg PUBLIC "-//W3C//DTD SVG 1.1//EN"
 "http://www.w3.org/Graphics/SVG/1.1/DTD/svg11.dtd">
<!-- Generated by graphviz version 12.1.2 (20240928.0832)
 -->
<!-- Title: VRE::VRE_Device::CreateInstance Pages: 1 -->
<svg width="590pt" height="178pt"
 viewBox="0.00 0.00 590.00 178.00" xmlns="http://www.w3.org/2000/svg" xmlns:xlink="http://www.w3.org/1999/xlink">
<g id="graph0" class="graph" transform="scale(1 1) rotate(0) translate(4 174)">
<title>VRE::VRE_Device::CreateInstance</title>
<!-- Node1 -->
<g id="Node000001" class="node">
<title>Node1</title>
<g id="a_Node000001"><a xlink:title=" ">
<polygon fill="#999999" stroke="#666666" points="172.75,-98 0,-98 0,-78 172.75,-78 172.75,-98"/>
<text text-anchor="middle" x="86.38" y="-84.5" font-family="Helvetica,sans-Serif" font-size="10.00">VRE::VRE_Device::CreateInstance</text>
</a>
</g>
</g>
<!-- Node2 -->
<g id="Node000002" class="node">
<title>Node2</title>
<g id="a_Node000002"><a xlink:href="class_v_r_e_1_1_v_r_e___device.html#a491f794af166b3377214663df8abc85e" target="_top" xlink:title=" ">
<polygon fill="white" stroke="#666666" points="385.25,-170 208.75,-170 208.75,-138 385.25,-138 385.25,-170"/>
<text text-anchor="start" x="216.75" y="-156.5" font-family="Helvetica,sans-Serif" font-size="10.00">VRE::VRE_Device::CheckValidation</text>
<text text-anchor="middle" x="297" y="-144.5" font-family="Helvetica,sans-Serif" font-size="10.00">LayerSupport</text>
</a>
</g>
</g>
<!-- Node1&#45;&gt;Node2 -->
<g id="edge1_Node000001_Node000002" class="edge">
<title>Node1&#45;&gt;Node2</title>
<g id="a_edge1_Node000001_Node000002"><a xlink:title=" ">
<path fill="none" stroke="#63b8ff" d="M120.43,-98.46C150.65,-108.02 196.16,-122.42 233.27,-134.16"/>
<polygon fill="#63b8ff" stroke="#63b8ff" points="231.96,-137.41 242.55,-137.09 234.07,-130.74 231.96,-137.41"/>
</a>
</g>
</g>
<!-- Node3 -->
<g id="Node000003" class="node">
<title>Node3</title>
<g id="a_Node000003"><a xlink:href="class_v_r_e_1_1_v_r_e___device.html#a5e60ae7c2652c1fe60d3feab81c77927" target="_top" xlink:title=" ">
<polygon fill="white" stroke="#666666" points="582,-104 421.25,-104 421.25,-72 582,-72 582,-104"/>
<text text-anchor="start" x="429.25" y="-90.5" font-family="Helvetica,sans-Serif" font-size="10.00">VRE::VRE_Device::GetRequired</text>
<text text-anchor="middle" x="501.62" y="-78.5" font-family="Helvetica,sans-Serif" font-size="10.00">Extensions</text>
</a>
</g>
</g>
<!-- Node1&#45;&gt;Node3 -->
<g id="edge2_Node000001_Node000003" class="edge">
<title>Node1&#45;&gt;Node3</title>
<g id="a_edge2_Node000001_Node000003"><a xlink:title=" ">
<path fill="none" stroke="#63b8ff" d="M173.24,-90.39C185.17,-90.64 197.26,-90.86 208.75,-91 287.19,-91.97 306.81,-92.02 385.25,-91 393.17,-90.9 401.4,-90.75 409.64,-90.59"/>
<polygon fill="#63b8ff" stroke="#63b8ff" points="409.44,-94.09 419.36,-90.38 409.29,-87.09 409.44,-94.09"/>
</a>
</g>
</g>
<!-- Node4 -->
<g id="Node000004" class="node">
<title>Node4</title>
<g id="a_Node000004"><a xlink:href="class_v_r_e_1_1_v_r_e___device.html#ab5f5627926ed001d28590a45c0120222" target="_top" xlink:title=" ">
<polygon fill="white" stroke="#666666" points="369.12,-82 224.88,-82 224.88,-50 369.12,-50 369.12,-82"/>
<text text-anchor="start" x="232.88" y="-68.5" font-family="Helvetica,sans-Serif" font-size="10.00">VRE::VRE_Device::HasGflw</text>
<text text-anchor="middle" x="297" y="-56.5" font-family="Helvetica,sans-Serif" font-size="10.00">RequiredInstanceExtensions</text>
</a>
</g>
</g>
<!-- Node1&#45;&gt;Node4 -->
<g id="edge3_Node000001_Node000004" class="edge">
<title>Node1&#45;&gt;Node4</title>
<g id="a_edge3_Node000001_Node000004"><a xlink:title=" ">
<path fill="none" stroke="#63b8ff" d="M173.13,-78.96C186.35,-77.56 199.97,-76.13 213.12,-74.74"/>
<polygon fill="#63b8ff" stroke="#63b8ff" points="213.44,-78.23 223.02,-73.7 212.71,-71.26 213.44,-78.23"/>
</a>
</g>
</g>
<!-- Node5 -->
<g id="Node000005" class="node">
<title>Node5</title>
<g id="a_Node000005"><a xlink:href="class_v_r_e_1_1_v_r_e___device.html#a5be545b677e320b86cd1250844bfb466" target="_top" xlink:title=" ">
<polygon fill="white" stroke="#666666" points="369.12,-32 224.88,-32 224.88,0 369.12,0 369.12,-32"/>
<text text-anchor="start" x="232.88" y="-18.5" font-family="Helvetica,sans-Serif" font-size="10.00">VRE::VRE_Device::Populate</text>
<text text-anchor="middle" x="297" y="-6.5" font-family="Helvetica,sans-Serif" font-size="10.00">DebugMessengerCreateInfo</text>
</a>
</g>
</g>
<!-- Node1&#45;&gt;Node5 -->
<g id="edge5_Node000001_Node000005" class="edge">
<title>Node1&#45;&gt;Node5</title>
<g id="a_edge5_Node000001_Node000005"><a xlink:title=" ">
<path fill="none" stroke="#63b8ff" d="M112.24,-77.61C136.61,-67.61 174.91,-52.37 208.75,-41 214.12,-39.2 219.7,-37.4 225.33,-35.66"/>
<polygon fill="#63b8ff" stroke="#63b8ff" points="226.17,-39.06 234.72,-32.81 224.14,-32.36 226.17,-39.06"/>
</a>
</g>
</g>
<!-- Node4&#45;&gt;Node3 -->
<g id="edge4_Node000004_Node000003" class="edge">
<title>Node4&#45;&gt;Node3</title>
<g id="a_edge4_Node000004_Node000003"><a xlink:title=" ">
<path fill="none" stroke="#63b8ff" d="M369.44,-73.76C382.43,-75.17 396.15,-76.66 409.62,-78.12"/>
<polygon fill="#63b8ff" stroke="#63b8ff" points="409.03,-81.58 419.35,-79.18 409.79,-74.62 409.03,-81.58"/>
</a>
</g>
</g>
<!-- Node6 -->
<g id="Node000006" class="node">
<title>Node6</title>
<g id="a_Node000006"><a xlink:href="namespace_v_r_e.html#a3d5fd8bffde402e896abe076f5ca86d0" target="_top" xlink:title=" ">
<polygon fill="white" stroke="#666666" points="555.38,-26 447.88,-26 447.88,-6 555.38,-6 555.38,-26"/>
<text text-anchor="middle" x="501.62" y="-12.5" font-family="Helvetica,sans-Serif" font-size="10.00">VRE::debugCallback</text>
</a>
</g>
</g>
<!-- Node5&#45;&gt;Node6 -->
<g id="edge6_Node000005_Node000006" class="edge">
<title>Node5&#45;&gt;Node6</title>
<g id="a_edge6_Node000005_Node000006"><a xlink:title=" ">
<path fill="none" stroke="#63b8ff" d="M369.44,-16C391.27,-16 415.12,-16 436.44,-16"/>
<polygon fill="#63b8ff" stroke="#63b8ff" points="436.15,-19.5 446.14,-16 436.14,-12.5 436.15,-19.5"/>
</a>
</g>
</g>
</g>
</svg>
