<?xml version="1.0" encoding="UTF-8" standalone="no"?>
<!DOCTYPE svg PUBLIC "-//W3C//DTD SVG 1.1//EN"
 "http://www.w3.org/Graphics/SVG/1.1/DTD/svg11.dtd">
<!-- Generated by graphviz version 12.1.2 (20240928.0832)
 -->
<!-- Title: VRE::VRE_Device::SetupDebugMessenger Pages: 1 -->
<svg width="536pt" height="78pt"
 viewBox="0.00 0.00 536.00 78.00" xmlns="http://www.w3.org/2000/svg" xmlns:xlink="http://www.w3.org/1999/xlink">
<g id="graph0" class="graph" transform="scale(1 1) rotate(0) translate(4 74)">
<title>VRE::VRE_Device::SetupDebugMessenger</title>
<!-- Node1 -->
<g id="Node000001" class="node">
<title>Node1</title>
<g id="a_Node000001"><a xlink:title=" ">
<polygon fill="#999999" stroke="#666666" points="160,-54 0,-54 0,-22 160,-22 160,-54"/>
<text text-anchor="start" x="8" y="-40.5" font-family="Helvetica,sans-Serif" font-size="10.00">VRE::VRE_Device::SetupDebug</text>
<text text-anchor="middle" x="80" y="-28.5" font-family="Helvetica,sans-Serif" font-size="10.00">Messenger</text>
</a>
</g>
</g>
<!-- Node2 -->
<g id="Node000002" class="node">
<title>Node2</title>
<g id="a_Node000002"><a xlink:href="namespace_v_r_e.html#a411c34cbfcabaf6ba94f2e11a759dce7" target="_top" xlink:title=" ">
<polygon fill="white" stroke="#666666" points="384.5,-70 196,-70 196,-50 384.5,-50 384.5,-70"/>
<text text-anchor="middle" x="290.25" y="-56.5" font-family="Helvetica,sans-Serif" font-size="10.00">VRE::CreateDebugUtilsMessengerEXT</text>
</a>
</g>
</g>
<!-- Node1&#45;&gt;Node2 -->
<g id="edge1_Node000001_Node000002" class="edge">
<title>Node1&#45;&gt;Node2</title>
<g id="a_edge1_Node000001_Node000002"><a xlink:title=" ">
<path fill="none" stroke="#63b8ff" d="M160.32,-46.38C168.22,-47.21 176.31,-48.07 184.41,-48.92"/>
<polygon fill="#63b8ff" stroke="#63b8ff" points="184.02,-52.4 194.33,-49.97 184.76,-45.44 184.02,-52.4"/>
</a>
</g>
</g>
<!-- Node3 -->
<g id="Node000003" class="node">
<title>Node3</title>
<g id="a_Node000003"><a xlink:href="class_v_r_e_1_1_v_r_e___device.html#a5be545b677e320b86cd1250844bfb466" target="_top" xlink:title=" ">
<polygon fill="white" stroke="#666666" points="362.38,-32 218.12,-32 218.12,0 362.38,0 362.38,-32"/>
<text text-anchor="start" x="226.12" y="-18.5" font-family="Helvetica,sans-Serif" font-size="10.00">VRE::VRE_Device::Populate</text>
<text text-anchor="middle" x="290.25" y="-6.5" font-family="Helvetica,sans-Serif" font-size="10.00">DebugMessengerCreateInfo</text>
</a>
</g>
</g>
<!-- Node1&#45;&gt;Node3 -->
<g id="edge2_Node000001_Node000003" class="edge">
<title>Node1&#45;&gt;Node3</title>
<g id="a_edge2_Node000001_Node000003"><a xlink:title=" ">
<path fill="none" stroke="#63b8ff" d="M160.32,-29.62C175.35,-28.03 191.1,-26.37 206.23,-24.77"/>
<polygon fill="#63b8ff" stroke="#63b8ff" points="206.58,-28.25 216.15,-23.72 205.84,-21.29 206.58,-28.25"/>
</a>
</g>
</g>
<!-- Node4 -->
<g id="Node000004" class="node">
<title>Node4</title>
<g id="a_Node000004"><a xlink:href="namespace_v_r_e.html#a3d5fd8bffde402e896abe076f5ca86d0" target="_top" xlink:title=" ">
<polygon fill="white" stroke="#666666" points="528,-26 420.5,-26 420.5,-6 528,-6 528,-26"/>
<text text-anchor="middle" x="474.25" y="-12.5" font-family="Helvetica,sans-Serif" font-size="10.00">VRE::debugCallback</text>
</a>
</g>
</g>
<!-- Node3&#45;&gt;Node4 -->
<g id="edge3_Node000003_Node000004" class="edge">
<title>Node3&#45;&gt;Node4</title>
<g id="a_edge3_Node000003_Node000004"><a xlink:title=" ">
<path fill="none" stroke="#63b8ff" d="M362.66,-16C377.9,-16 393.9,-16 408.86,-16"/>
<polygon fill="#63b8ff" stroke="#63b8ff" points="408.54,-19.5 418.54,-16 408.54,-12.5 408.54,-19.5"/>
</a>
</g>
</g>
</g>
</svg>
