<?xml version="1.0" encoding="UTF-8" standalone="no"?>
<!DOCTYPE svg PUBLIC "-//W3C//DTD SVG 1.1//EN"
 "http://www.w3.org/Graphics/SVG/1.1/DTD/svg11.dtd">
<!-- Generated by graphviz version 12.1.2 (20240928.0832)
 -->
<!-- Title: VRE::VRE_SwapChain::SubmitCommandBuffers Pages: 1 -->
<svg width="337pt" height="128pt"
 viewBox="0.00 0.00 337.00 128.00" xmlns="http://www.w3.org/2000/svg" xmlns:xlink="http://www.w3.org/1999/xlink">
<g id="graph0" class="graph" transform="scale(1 1) rotate(0) translate(4 124)">
<title>VRE::VRE_SwapChain::SubmitCommandBuffers</title>
<!-- Node1 -->
<g id="Node000001" class="node">
<title>Node1</title>
<g id="a_Node000001"><a xlink:title=" ">
<polygon fill="#999999" stroke="#666666" points="128.5,-82 0,-82 0,-50 128.5,-50 128.5,-82"/>
<text text-anchor="start" x="8" y="-68.5" font-family="Helvetica,sans-Serif" font-size="10.00">VRE::VRE_SwapChain</text>
<text text-anchor="middle" x="64.25" y="-56.5" font-family="Helvetica,sans-Serif" font-size="10.00">::SubmitCommandBuffers</text>
</a>
</g>
</g>
<!-- Node2 -->
<g id="Node000002" class="node">
<title>Node2</title>
<g id="a_Node000002"><a xlink:href="class_v_r_e_1_1_v_r_e___device.html#a3b6e89f878e54464b3a03c1e4e84c52e" target="_top" xlink:title=" ">
<polygon fill="white" stroke="#666666" points="329,-120 164.5,-120 164.5,-100 329,-100 329,-120"/>
<text text-anchor="middle" x="246.75" y="-106.5" font-family="Helvetica,sans-Serif" font-size="10.00">VRE::VRE_Device::GetVkDevice</text>
</a>
</g>
</g>
<!-- Node1&#45;&gt;Node2 -->
<g id="edge1_Node000001_Node000002" class="edge">
<title>Node1&#45;&gt;Node2</title>
<g id="a_edge1_Node000001_Node000002"><a xlink:title=" ">
<path fill="none" stroke="#63b8ff" d="M128.75,-82.17C140.62,-85.14 152.93,-88.19 164.5,-91 172.62,-92.97 181.21,-95.02 189.65,-97.01"/>
<polygon fill="#63b8ff" stroke="#63b8ff" points="188.58,-100.36 199.12,-99.24 190.18,-93.54 188.58,-100.36"/>
</a>
</g>
</g>
<!-- Node3 -->
<g id="Node000003" class="node">
<title>Node3</title>
<g id="a_Node000003"><a xlink:href="class_v_r_e_1_1_v_r_e___device.html#adba3699602deee3de853d0dc7420dd47" target="_top" xlink:title=" ">
<polygon fill="white" stroke="#666666" points="319.25,-82 174.25,-82 174.25,-50 319.25,-50 319.25,-82"/>
<text text-anchor="start" x="182.25" y="-68.5" font-family="Helvetica,sans-Serif" font-size="10.00">VRE::VRE_Device::Graphics</text>
<text text-anchor="middle" x="246.75" y="-56.5" font-family="Helvetica,sans-Serif" font-size="10.00">Queue</text>
</a>
</g>
</g>
<!-- Node1&#45;&gt;Node3 -->
<g id="edge2_Node000001_Node000003" class="edge">
<title>Node1&#45;&gt;Node3</title>
<g id="a_edge2_Node000001_Node000003"><a xlink:title=" ">
<path fill="none" stroke="#63b8ff" d="M128.89,-66C139.77,-66 151.23,-66 162.53,-66"/>
<polygon fill="#63b8ff" stroke="#63b8ff" points="162.25,-69.5 172.25,-66 162.25,-62.5 162.25,-69.5"/>
</a>
</g>
</g>
<!-- Node4 -->
<g id="Node000004" class="node">
<title>Node4</title>
<g id="a_Node000004"><a xlink:href="class_v_r_e_1_1_v_r_e___device.html#a0052048be873e934886da93e942c3a22" target="_top" xlink:title=" ">
<polygon fill="white" stroke="#666666" points="316.62,-32 176.88,-32 176.88,0 316.62,0 316.62,-32"/>
<text text-anchor="start" x="184.88" y="-18.5" font-family="Helvetica,sans-Serif" font-size="10.00">VRE::VRE_Device::Present</text>
<text text-anchor="middle" x="246.75" y="-6.5" font-family="Helvetica,sans-Serif" font-size="10.00">Queue</text>
</a>
</g>
</g>
<!-- Node1&#45;&gt;Node4 -->
<g id="edge3_Node000001_Node000004" class="edge">
<title>Node1&#45;&gt;Node4</title>
<g id="a_edge3_Node000001_Node000004"><a xlink:title=" ">
<path fill="none" stroke="#63b8ff" d="M124.6,-49.56C140.87,-45.05 158.66,-40.12 175.48,-35.47"/>
<polygon fill="#63b8ff" stroke="#63b8ff" points="176.2,-38.9 184.9,-32.86 174.33,-32.15 176.2,-38.9"/>
</a>
</g>
</g>
</g>
</svg>
