<?xml version="1.0" encoding="UTF-8" standalone="no"?>
<!DOCTYPE svg PUBLIC "-//W3C//DTD SVG 1.1//EN"
 "http://www.w3.org/Graphics/SVG/1.1/DTD/svg11.dtd">
<!-- Generated by graphviz version 12.1.2 (20240928.0832)
 -->
<!-- Title: VRE::VRE_SwapChain::CreateDepthResources Pages: 1 -->
<svg width="550pt" height="228pt"
 viewBox="0.00 0.00 550.25 228.00" xmlns="http://www.w3.org/2000/svg" xmlns:xlink="http://www.w3.org/1999/xlink">
<g id="graph0" class="graph" transform="scale(1 1) rotate(0) translate(4 224)">
<title>VRE::VRE_SwapChain::CreateDepthResources</title>
<!-- Node1 -->
<g id="Node000001" class="node">
<title>Node1</title>
<g id="a_Node000001"><a xlink:title=" ">
<polygon fill="#999999" stroke="#666666" points="124.75,-120 0,-120 0,-88 124.75,-88 124.75,-120"/>
<text text-anchor="start" x="8" y="-106.5" font-family="Helvetica,sans-Serif" font-size="10.00">VRE::VRE_SwapChain</text>
<text text-anchor="middle" x="62.38" y="-94.5" font-family="Helvetica,sans-Serif" font-size="10.00">::CreateDepthResources</text>
</a>
</g>
</g>
<!-- Node2 -->
<g id="Node000002" class="node">
<title>Node2</title>
<g id="a_Node000002"><a xlink:href="class_v_r_e_1_1_v_r_e___device.html#adc5b3ee0fceffe8a4ec5b5ed9f87baf2" target="_top" xlink:title=" ">
<polygon fill="white" stroke="#666666" points="324.12,-220 161.88,-220 161.88,-188 324.12,-188 324.12,-220"/>
<text text-anchor="start" x="169.88" y="-206.5" font-family="Helvetica,sans-Serif" font-size="10.00">VRE::VRE_Device::CreateImage</text>
<text text-anchor="middle" x="243" y="-194.5" font-family="Helvetica,sans-Serif" font-size="10.00">WithInfo</text>
</a>
</g>
</g>
<!-- Node1&#45;&gt;Node2 -->
<g id="edge1_Node000001_Node000002" class="edge">
<title>Node1&#45;&gt;Node2</title>
<g id="a_edge1_Node000001_Node000002"><a xlink:title=" ">
<path fill="none" stroke="#63b8ff" d="M80.7,-120.49C99.21,-137.3 130.05,-163.12 160.75,-179 163.64,-180.49 166.63,-181.92 169.69,-183.27"/>
<polygon fill="#63b8ff" stroke="#63b8ff" points="168.3,-186.48 178.88,-187.02 170.94,-180 168.3,-186.48"/>
</a>
</g>
</g>
<!-- Node4 -->
<g id="Node000004" class="node">
<title>Node4</title>
<g id="a_Node000004"><a xlink:href="class_v_r_e_1_1_v_r_e___swap_chain.html#a4eb9ee8a5485a62ffa0bdd4f1494ea79" target="_top" xlink:title=" ">
<polygon fill="white" stroke="#666666" points="302.75,-170 183.25,-170 183.25,-138 302.75,-138 302.75,-170"/>
<text text-anchor="start" x="191.25" y="-156.5" font-family="Helvetica,sans-Serif" font-size="10.00">VRE::VRE_SwapChain</text>
<text text-anchor="middle" x="243" y="-144.5" font-family="Helvetica,sans-Serif" font-size="10.00">::FindDepthFormat</text>
</a>
</g>
</g>
<!-- Node1&#45;&gt;Node4 -->
<g id="edge3_Node000001_Node000004" class="edge">
<title>Node1&#45;&gt;Node4</title>
<g id="a_edge3_Node000001_Node000004"><a xlink:title=" ">
<path fill="none" stroke="#63b8ff" d="M121.86,-120.37C137.97,-124.88 155.61,-129.82 172.28,-134.48"/>
<polygon fill="#63b8ff" stroke="#63b8ff" points="171.04,-137.77 181.62,-137.1 172.93,-131.03 171.04,-137.77"/>
</a>
</g>
</g>
<!-- Node6 -->
<g id="Node000006" class="node">
<title>Node6</title>
<g id="a_Node000006"><a xlink:href="class_v_r_e_1_1_v_r_e___swap_chain.html#a0d7125e8f2743c4ebff9b1e217d0a531" target="_top" xlink:title=" ">
<polygon fill="white" stroke="#666666" points="302.75,-120 183.25,-120 183.25,-88 302.75,-88 302.75,-120"/>
<text text-anchor="start" x="191.25" y="-106.5" font-family="Helvetica,sans-Serif" font-size="10.00">VRE::VRE_SwapChain</text>
<text text-anchor="middle" x="243" y="-94.5" font-family="Helvetica,sans-Serif" font-size="10.00">::GetImageCount</text>
</a>
</g>
</g>
<!-- Node1&#45;&gt;Node6 -->
<g id="edge5_Node000001_Node000006" class="edge">
<title>Node1&#45;&gt;Node6</title>
<g id="a_edge5_Node000001_Node000006"><a xlink:title=" ">
<path fill="none" stroke="#63b8ff" d="M125.1,-104C140.19,-104 156.45,-104 171.9,-104"/>
<polygon fill="#63b8ff" stroke="#63b8ff" points="171.47,-107.5 181.47,-104 171.47,-100.5 171.47,-107.5"/>
</a>
</g>
</g>
<!-- Node7 -->
<g id="Node000007" class="node">
<title>Node7</title>
<g id="a_Node000007"><a xlink:href="class_v_r_e_1_1_v_r_e___swap_chain.html#a323d9f1e3959053b88f7af19744b578c" target="_top" xlink:title=" ">
<polygon fill="white" stroke="#666666" points="302.75,-70 183.25,-70 183.25,-38 302.75,-38 302.75,-70"/>
<text text-anchor="start" x="191.25" y="-56.5" font-family="Helvetica,sans-Serif" font-size="10.00">VRE::VRE_SwapChain</text>
<text text-anchor="middle" x="243" y="-44.5" font-family="Helvetica,sans-Serif" font-size="10.00">::GetSwapChainExtent</text>
</a>
</g>
</g>
<!-- Node1&#45;&gt;Node7 -->
<g id="edge6_Node000001_Node000007" class="edge">
<title>Node1&#45;&gt;Node7</title>
<g id="a_edge6_Node000001_Node000007"><a xlink:title=" ">
<path fill="none" stroke="#63b8ff" d="M121.86,-87.63C137.97,-83.12 155.61,-78.18 172.28,-73.52"/>
<polygon fill="#63b8ff" stroke="#63b8ff" points="172.93,-76.97 181.62,-70.9 171.04,-70.23 172.93,-76.97"/>
</a>
</g>
</g>
<!-- Node8 -->
<g id="Node000008" class="node">
<title>Node8</title>
<g id="a_Node000008"><a xlink:href="class_v_r_e_1_1_v_r_e___device.html#a3b6e89f878e54464b3a03c1e4e84c52e" target="_top" xlink:title=" ">
<polygon fill="white" stroke="#666666" points="325.25,-20 160.75,-20 160.75,0 325.25,0 325.25,-20"/>
<text text-anchor="middle" x="243" y="-6.5" font-family="Helvetica,sans-Serif" font-size="10.00">VRE::VRE_Device::GetVkDevice</text>
</a>
</g>
</g>
<!-- Node1&#45;&gt;Node8 -->
<g id="edge7_Node000001_Node000008" class="edge">
<title>Node1&#45;&gt;Node8</title>
<g id="a_edge7_Node000001_Node000008"><a xlink:title=" ">
<path fill="none" stroke="#63b8ff" d="M79.81,-87.72C98.06,-70.56 129.13,-44 160.75,-29 164.69,-27.13 168.82,-25.44 173.05,-23.91"/>
<polygon fill="#63b8ff" stroke="#63b8ff" points="173.85,-27.33 182.26,-20.9 171.67,-20.68 173.85,-27.33"/>
</a>
</g>
</g>
<!-- Node3 -->
<g id="Node000003" class="node">
<title>Node3</title>
<g id="a_Node000003"><a xlink:href="class_v_r_e_1_1_v_r_e___device.html#a2e8b8fd1480951dd2b669b263e0611e5" target="_top" xlink:title=" ">
<polygon fill="white" stroke="#666666" points="542.25,-214 361.25,-214 361.25,-194 542.25,-194 542.25,-214"/>
<text text-anchor="middle" x="451.75" y="-200.5" font-family="Helvetica,sans-Serif" font-size="10.00">VRE::VRE_Device::FindMemoryType</text>
</a>
</g>
</g>
<!-- Node2&#45;&gt;Node3 -->
<g id="edge2_Node000002_Node000003" class="edge">
<title>Node2&#45;&gt;Node3</title>
<g id="a_edge2_Node000002_Node000003"><a xlink:title=" ">
<path fill="none" stroke="#63b8ff" d="M324.53,-204C332.71,-204 341.1,-204 349.47,-204"/>
<polygon fill="#63b8ff" stroke="#63b8ff" points="349.33,-207.5 359.33,-204 349.33,-200.5 349.33,-207.5"/>
</a>
</g>
</g>
<!-- Node5 -->
<g id="Node000005" class="node">
<title>Node5</title>
<g id="a_Node000005"><a xlink:href="class_v_r_e_1_1_v_r_e___device.html#aaf3ae6a0100c9dca6974824bc3c607db" target="_top" xlink:title=" ">
<polygon fill="white" stroke="#666666" points="536.25,-170 367.25,-170 367.25,-138 536.25,-138 536.25,-170"/>
<text text-anchor="start" x="375.25" y="-156.5" font-family="Helvetica,sans-Serif" font-size="10.00">VRE::VRE_Device::FindSupported</text>
<text text-anchor="middle" x="451.75" y="-144.5" font-family="Helvetica,sans-Serif" font-size="10.00">Format</text>
</a>
</g>
</g>
<!-- Node4&#45;&gt;Node5 -->
<g id="edge4_Node000004_Node000005" class="edge">
<title>Node4&#45;&gt;Node5</title>
<g id="a_edge4_Node000004_Node000005"><a xlink:title=" ">
<path fill="none" stroke="#63b8ff" d="M303.25,-154C319.57,-154 337.71,-154 355.52,-154"/>
<polygon fill="#63b8ff" stroke="#63b8ff" points="355.33,-157.5 365.33,-154 355.33,-150.5 355.33,-157.5"/>
</a>
</g>
</g>
</g>
</svg>
