<?xml version="1.0" encoding="UTF-8" standalone="no"?>
<!DOCTYPE svg PUBLIC "-//W3C//DTD SVG 1.1//EN"
 "http://www.w3.org/Graphics/SVG/1.1/DTD/svg11.dtd">
<!-- Generated by graphviz version 12.1.2 (20240928.0832)
 -->
<!-- Title: VRE::VRE_Texture::CreateImage Pages: 1 -->
<svg width="323pt" height="116pt"
 viewBox="0.00 0.00 322.75 116.00" xmlns="http://www.w3.org/2000/svg" xmlns:xlink="http://www.w3.org/1999/xlink">
<g id="graph0" class="graph" transform="scale(1 1) rotate(0) translate(4 112)">
<title>VRE::VRE_Texture::CreateImage</title>
<!-- Node1 -->
<g id="Node000001" class="node">
<title>Node1</title>
<g id="a_Node000001"><a xlink:title=" ">
<polygon fill="#999999" stroke="#666666" points="136.75,-76 0,-76 0,-44 136.75,-44 136.75,-76"/>
<text text-anchor="start" x="8" y="-62.5" font-family="Helvetica,sans-Serif" font-size="10.00">VRE::VRE_Texture::Create</text>
<text text-anchor="middle" x="68.38" y="-50.5" font-family="Helvetica,sans-Serif" font-size="10.00">Image</text>
</a>
</g>
</g>
<!-- Node2 -->
<g id="Node000002" class="node">
<title>Node2</title>
<g id="a_Node000002"><a xlink:href="class_v_r_e_1_1_v_r_e___buffer.html#a0b4e8cbd307ba5cb1efde5e350b15f34" target="_top" xlink:title=" ">
<polygon fill="white" stroke="#666666" points="314.75,-108 172.75,-108 172.75,-88 314.75,-88 314.75,-108"/>
<text text-anchor="middle" x="243.75" y="-94.5" font-family="Helvetica,sans-Serif" font-size="10.00">VRE::VRE_Buffer::GetBuffer</text>
</a>
</g>
</g>
<!-- Node1&#45;&gt;Node2 -->
<g id="edge1_Node000001_Node000002" class="edge">
<title>Node1&#45;&gt;Node2</title>
<g id="a_edge1_Node000001_Node000002"><a xlink:title=" ">
<path fill="none" stroke="#63b8ff" d="M136.9,-74.8C152.36,-78.19 168.67,-81.76 183.74,-85.07"/>
<polygon fill="#63b8ff" stroke="#63b8ff" points="182.98,-88.48 193.5,-87.21 184.48,-81.65 182.98,-88.48"/>
</a>
</g>
</g>
<!-- Node3 -->
<g id="Node000003" class="node">
<title>Node3</title>
<g id="a_Node000003"><a xlink:href="class_v_r_e_1_1_v_r_e___buffer.html#a1fcc1a81e90c3fb8a143ae4366b1f7d8" target="_top" xlink:title=" ">
<polygon fill="white" stroke="#666666" points="303.5,-70 184,-70 184,-50 303.5,-50 303.5,-70"/>
<text text-anchor="middle" x="243.75" y="-56.5" font-family="Helvetica,sans-Serif" font-size="10.00">VRE::VRE_Buffer::Map</text>
</a>
</g>
</g>
<!-- Node1&#45;&gt;Node3 -->
<g id="edge2_Node000001_Node000003" class="edge">
<title>Node1&#45;&gt;Node3</title>
<g id="a_edge2_Node000001_Node000003"><a xlink:title=" ">
<path fill="none" stroke="#63b8ff" d="M136.9,-60C148.45,-60 160.48,-60 172.12,-60"/>
<polygon fill="#63b8ff" stroke="#63b8ff" points="172.07,-63.5 182.07,-60 172.07,-56.5 172.07,-63.5"/>
</a>
</g>
</g>
<!-- Node4 -->
<g id="Node000004" class="node">
<title>Node4</title>
<g id="a_Node000004"><a xlink:href="class_v_r_e_1_1_v_r_e___buffer.html#ab3316823e14587f60b98ccdb0bf71c47" target="_top" xlink:title=" ">
<polygon fill="white" stroke="#666666" points="310.62,-32 176.88,-32 176.88,0 310.62,0 310.62,-32"/>
<text text-anchor="start" x="184.88" y="-18.5" font-family="Helvetica,sans-Serif" font-size="10.00">VRE::VRE_Buffer::WriteTo</text>
<text text-anchor="middle" x="243.75" y="-6.5" font-family="Helvetica,sans-Serif" font-size="10.00">Buffer</text>
</a>
</g>
</g>
<!-- Node1&#45;&gt;Node4 -->
<g id="edge3_Node000001_Node000004" class="edge">
<title>Node1&#45;&gt;Node4</title>
<g id="a_edge3_Node000001_Node000004"><a xlink:title=" ">
<path fill="none" stroke="#63b8ff" d="M133.93,-43.62C144.69,-40.89 155.94,-38.03 166.95,-35.24"/>
<polygon fill="#63b8ff" stroke="#63b8ff" points="167.55,-38.7 176.38,-32.84 165.83,-31.91 167.55,-38.7"/>
</a>
</g>
</g>
</g>
</svg>
