<?xml version="1.0" encoding="UTF-8" standalone="no"?>
<!DOCTYPE svg PUBLIC "-//W3C//DTD SVG 1.1//EN"
 "http://www.w3.org/Graphics/SVG/1.1/DTD/svg11.dtd">
<!-- Generated by graphviz version 12.1.2 (20240928.0832)
 -->
<!-- Title: VRE::VRE_Buffer::VRE_Buffer Pages: 1 -->
<svg width="544pt" height="66pt"
 viewBox="0.00 0.00 543.50 66.00" xmlns="http://www.w3.org/2000/svg" xmlns:xlink="http://www.w3.org/1999/xlink">
<g id="graph0" class="graph" transform="scale(1 1) rotate(0) translate(4 62)">
<title>VRE::VRE_Buffer::VRE_Buffer</title>
<!-- Node1 -->
<g id="Node000001" class="node">
<title>Node1</title>
<g id="a_Node000001"><a xlink:title=" ">
<polygon fill="#999999" stroke="#666666" points="121.75,-45 0,-45 0,-13 121.75,-13 121.75,-45"/>
<text text-anchor="start" x="8" y="-31.5" font-family="Helvetica,sans-Serif" font-size="10.00">VRE::VRE_Buffer::VRE</text>
<text text-anchor="middle" x="60.88" y="-19.5" font-family="Helvetica,sans-Serif" font-size="10.00">_Buffer</text>
</a>
</g>
</g>
<!-- Node2 -->
<g id="Node000002" class="node">
<title>Node2</title>
<g id="a_Node000002"><a xlink:href="class_v_r_e_1_1_v_r_e___device.html#a7f4e71666ae4d01a47823eeb2d4f8b01" target="_top" xlink:title=" ">
<polygon fill="white" stroke="#666666" points="318.5,-58 157.75,-58 157.75,-38 318.5,-38 318.5,-58"/>
<text text-anchor="middle" x="238.12" y="-44.5" font-family="Helvetica,sans-Serif" font-size="10.00">VRE::VRE_Device::CreateBuffer</text>
</a>
</g>
</g>
<!-- Node1&#45;&gt;Node2 -->
<g id="edge1_Node000001_Node000002" class="edge">
<title>Node1&#45;&gt;Node2</title>
<g id="a_edge1_Node000001_Node000002"><a xlink:title=" ">
<path fill="none" stroke="#63b8ff" d="M122.19,-35.54C129.93,-36.38 137.98,-37.25 146.07,-38.13"/>
<polygon fill="#63b8ff" stroke="#63b8ff" points="145.69,-41.61 156.01,-39.21 146.45,-34.65 145.69,-41.61"/>
</a>
</g>
</g>
<!-- Node4 -->
<g id="Node000004" class="node">
<title>Node4</title>
<g id="a_Node000004"><a xlink:href="class_v_r_e_1_1_v_r_e___buffer.html#a08abc6cbd120730de3ae1fc7eff78d97" target="_top" xlink:title=" ">
<polygon fill="white" stroke="#666666" points="318.12,-20 158.12,-20 158.12,0 318.12,0 318.12,-20"/>
<text text-anchor="middle" x="238.12" y="-6.5" font-family="Helvetica,sans-Serif" font-size="10.00">VRE::VRE_Buffer::GetAlignment</text>
</a>
</g>
</g>
<!-- Node1&#45;&gt;Node4 -->
<g id="edge3_Node000001_Node000004" class="edge">
<title>Node1&#45;&gt;Node4</title>
<g id="a_edge3_Node000001_Node000004"><a xlink:title=" ">
<path fill="none" stroke="#63b8ff" d="M122.19,-22.46C130.08,-21.61 138.31,-20.71 146.57,-19.82"/>
<polygon fill="#63b8ff" stroke="#63b8ff" points="146.75,-23.32 156.32,-18.76 146,-16.36 146.75,-23.32"/>
</a>
</g>
</g>
<!-- Node3 -->
<g id="Node000003" class="node">
<title>Node3</title>
<g id="a_Node000003"><a xlink:href="class_v_r_e_1_1_v_r_e___device.html#a2e8b8fd1480951dd2b669b263e0611e5" target="_top" xlink:title=" ">
<polygon fill="white" stroke="#666666" points="535.5,-58 354.5,-58 354.5,-38 535.5,-38 535.5,-58"/>
<text text-anchor="middle" x="445" y="-44.5" font-family="Helvetica,sans-Serif" font-size="10.00">VRE::VRE_Device::FindMemoryType</text>
</a>
</g>
</g>
<!-- Node2&#45;&gt;Node3 -->
<g id="edge2_Node000002_Node000003" class="edge">
<title>Node2&#45;&gt;Node3</title>
<g id="a_edge2_Node000002_Node000003"><a xlink:title=" ">
<path fill="none" stroke="#63b8ff" d="M318.92,-48C326.79,-48 334.84,-48 342.88,-48"/>
<polygon fill="#63b8ff" stroke="#63b8ff" points="342.71,-51.5 352.71,-48 342.71,-44.5 342.71,-51.5"/>
</a>
</g>
</g>
</g>
</svg>
