<?xml version="1.0" encoding="UTF-8" standalone="no"?>
<!DOCTYPE svg PUBLIC "-//W3C//DTD SVG 1.1//EN"
 "http://www.w3.org/Graphics/SVG/1.1/DTD/svg11.dtd">
<!-- Generated by graphviz version 12.1.2 (20240928.0832)
 -->
<!-- Title: VRE::VRE_SwapChain::Init Pages: 1 -->
<svg width="874pt" height="566pt"
 viewBox="0.00 0.00 874.00 566.00" xmlns="http://www.w3.org/2000/svg" xmlns:xlink="http://www.w3.org/1999/xlink">
<g id="graph0" class="graph" transform="scale(1 1) rotate(0) translate(4 562)">
<title>VRE::VRE_SwapChain::Init</title>
<!-- Node1 -->
<g id="Node000001" class="node">
<title>Node1</title>
<g id="a_Node000001"><a xlink:title=" ">
<polygon fill="#999999" stroke="#666666" points="119.5,-383 0,-383 0,-351 119.5,-351 119.5,-383"/>
<text text-anchor="start" x="8" y="-369.5" font-family="Helvetica,sans-Serif" font-size="10.00">VRE::VRE_SwapChain</text>
<text text-anchor="middle" x="59.75" y="-357.5" font-family="Helvetica,sans-Serif" font-size="10.00">::Init</text>
</a>
</g>
</g>
<!-- Node2 -->
<g id="Node000002" class="node">
<title>Node2</title>
<g id="a_Node000002"><a xlink:href="class_v_r_e_1_1_v_r_e___swap_chain.html#ada998dbadfac34d4f27c8747aee65e39" target="_top" xlink:title=" ">
<polygon fill="white" stroke="#666666" points="280.25,-508 155.5,-508 155.5,-476 280.25,-476 280.25,-508"/>
<text text-anchor="start" x="163.5" y="-494.5" font-family="Helvetica,sans-Serif" font-size="10.00">VRE::VRE_SwapChain</text>
<text text-anchor="middle" x="217.88" y="-482.5" font-family="Helvetica,sans-Serif" font-size="10.00">::CreateDepthResources</text>
</a>
</g>
</g>
<!-- Node1&#45;&gt;Node2 -->
<g id="edge1_Node000001_Node000002" class="edge">
<title>Node1&#45;&gt;Node2</title>
<g id="a_edge1_Node000001_Node000002"><a xlink:title=" ">
<path fill="none" stroke="#63b8ff" d="M72.54,-383.23C89,-404.89 120.75,-443.25 155.5,-467 157.1,-468.09 158.75,-469.15 160.45,-470.17"/>
<polygon fill="#63b8ff" stroke="#63b8ff" points="158.73,-473.22 169.18,-474.91 162.07,-467.07 158.73,-473.22"/>
</a>
</g>
</g>
<!-- Node10 -->
<g id="Node000010" class="node">
<title>Node10</title>
<g id="a_Node000010"><a xlink:href="class_v_r_e_1_1_v_r_e___swap_chain.html#adde42a1963050d3ad906423b5d95291b" target="_top" xlink:title=" ">
<polygon fill="white" stroke="#666666" points="277.62,-458 158.12,-458 158.12,-426 277.62,-426 277.62,-458"/>
<text text-anchor="start" x="166.12" y="-444.5" font-family="Helvetica,sans-Serif" font-size="10.00">VRE::VRE_SwapChain</text>
<text text-anchor="middle" x="217.88" y="-432.5" font-family="Helvetica,sans-Serif" font-size="10.00">::CreateFramebuffers</text>
</a>
</g>
</g>
<!-- Node1&#45;&gt;Node10 -->
<g id="edge9_Node000001_Node000010" class="edge">
<title>Node1&#45;&gt;Node10</title>
<g id="a_edge9_Node000001_Node000010"><a xlink:title=" ">
<path fill="none" stroke="#63b8ff" d="M89.82,-383.3C108.38,-393.46 133.08,-406.55 155.5,-417 158.43,-418.37 161.46,-419.74 164.53,-421.09"/>
<polygon fill="#63b8ff" stroke="#63b8ff" points="163.08,-424.27 173.65,-425.01 165.84,-417.84 163.08,-424.27"/>
</a>
</g>
</g>
<!-- Node11 -->
<g id="Node000011" class="node">
<title>Node11</title>
<g id="a_Node000011"><a xlink:href="class_v_r_e_1_1_v_r_e___swap_chain.html#aa8aaebb654bddc81c80b6034188a81c6" target="_top" xlink:title=" ">
<polygon fill="white" stroke="#666666" points="277.62,-358 158.12,-358 158.12,-326 277.62,-326 277.62,-358"/>
<text text-anchor="start" x="166.12" y="-344.5" font-family="Helvetica,sans-Serif" font-size="10.00">VRE::VRE_SwapChain</text>
<text text-anchor="middle" x="217.88" y="-332.5" font-family="Helvetica,sans-Serif" font-size="10.00">::CreateImageViews</text>
</a>
</g>
</g>
<!-- Node1&#45;&gt;Node11 -->
<g id="edge13_Node000001_Node000011" class="edge">
<title>Node1&#45;&gt;Node11</title>
<g id="a_edge13_Node000001_Node000011"><a xlink:title=" ">
<path fill="none" stroke="#63b8ff" d="M119.77,-357.55C128.52,-356.15 137.6,-354.69 146.55,-353.26"/>
<polygon fill="#63b8ff" stroke="#63b8ff" points="146.95,-356.74 156.27,-351.7 145.85,-349.83 146.95,-356.74"/>
</a>
</g>
</g>
<!-- Node12 -->
<g id="Node000012" class="node">
<title>Node12</title>
<g id="a_Node000012"><a xlink:href="class_v_r_e_1_1_v_r_e___swap_chain.html#a8bfd8e3d73ce6bcd5fa91e8ce18db684" target="_top" xlink:title=" ">
<polygon fill="white" stroke="#666666" points="277.62,-308 158.12,-308 158.12,-276 277.62,-276 277.62,-308"/>
<text text-anchor="start" x="166.12" y="-294.5" font-family="Helvetica,sans-Serif" font-size="10.00">VRE::VRE_SwapChain</text>
<text text-anchor="middle" x="217.88" y="-282.5" font-family="Helvetica,sans-Serif" font-size="10.00">::CreateRenderPass</text>
</a>
</g>
</g>
<!-- Node1&#45;&gt;Node12 -->
<g id="edge15_Node000001_Node000012" class="edge">
<title>Node1&#45;&gt;Node12</title>
<g id="a_edge15_Node000001_Node000012"><a xlink:title=" ">
<path fill="none" stroke="#63b8ff" d="M89.82,-350.7C108.38,-340.54 133.08,-327.45 155.5,-317 158.43,-315.63 161.46,-314.26 164.53,-312.91"/>
<polygon fill="#63b8ff" stroke="#63b8ff" points="165.84,-316.16 173.65,-308.99 163.08,-309.73 165.84,-316.16"/>
</a>
</g>
</g>
<!-- Node14 -->
<g id="Node000014" class="node">
<title>Node14</title>
<g id="a_Node000014"><a xlink:href="class_v_r_e_1_1_v_r_e___swap_chain.html#a0cd1b296481d4ed4be59efe3d163292f" target="_top" xlink:title=" ">
<polygon fill="white" stroke="#666666" points="277.62,-195 158.12,-195 158.12,-163 277.62,-163 277.62,-195"/>
<text text-anchor="start" x="166.12" y="-181.5" font-family="Helvetica,sans-Serif" font-size="10.00">VRE::VRE_SwapChain</text>
<text text-anchor="middle" x="217.88" y="-169.5" font-family="Helvetica,sans-Serif" font-size="10.00">::CreateSwapChain</text>
</a>
</g>
</g>
<!-- Node1&#45;&gt;Node14 -->
<g id="edge19_Node000001_Node000014" class="edge">
<title>Node1&#45;&gt;Node14</title>
<g id="a_edge19_Node000001_Node000014"><a xlink:title=" ">
<path fill="none" stroke="#63b8ff" d="M74.33,-350.65C101.67,-317.73 163.48,-243.29 195.99,-204.15"/>
<polygon fill="#63b8ff" stroke="#63b8ff" points="198.55,-206.54 202.25,-196.62 193.16,-202.07 198.55,-206.54"/>
</a>
</g>
</g>
<!-- Node24 -->
<g id="Node000024" class="node">
<title>Node24</title>
<g id="a_Node000024"><a xlink:href="class_v_r_e_1_1_v_r_e___swap_chain.html#a6633857196b70b1a837d3548f05fc2fe" target="_top" xlink:title=" ">
<polygon fill="white" stroke="#666666" points="277.62,-408 158.12,-408 158.12,-376 277.62,-376 277.62,-408"/>
<text text-anchor="start" x="166.12" y="-394.5" font-family="Helvetica,sans-Serif" font-size="10.00">VRE::VRE_SwapChain</text>
<text text-anchor="middle" x="217.88" y="-382.5" font-family="Helvetica,sans-Serif" font-size="10.00">::CreateSyncObjects</text>
</a>
</g>
</g>
<!-- Node1&#45;&gt;Node24 -->
<g id="edge30_Node000001_Node000024" class="edge">
<title>Node1&#45;&gt;Node24</title>
<g id="a_edge30_Node000001_Node000024"><a xlink:title=" ">
<path fill="none" stroke="#63b8ff" d="M119.77,-376.45C128.52,-377.85 137.6,-379.31 146.55,-380.74"/>
<polygon fill="#63b8ff" stroke="#63b8ff" points="145.85,-384.17 156.27,-382.3 146.95,-377.26 145.85,-384.17"/>
</a>
</g>
</g>
<!-- Node3 -->
<g id="Node000003" class="node">
<title>Node3</title>
<g id="a_Node000003"><a xlink:href="class_v_r_e_1_1_v_r_e___device.html#adc5b3ee0fceffe8a4ec5b5ed9f87baf2" target="_top" xlink:title=" ">
<polygon fill="white" stroke="#666666" points="479.62,-558 317.38,-558 317.38,-526 479.62,-526 479.62,-558"/>
<text text-anchor="start" x="325.38" y="-544.5" font-family="Helvetica,sans-Serif" font-size="10.00">VRE::VRE_Device::CreateImage</text>
<text text-anchor="middle" x="398.5" y="-532.5" font-family="Helvetica,sans-Serif" font-size="10.00">WithInfo</text>
</a>
</g>
</g>
<!-- Node2&#45;&gt;Node3 -->
<g id="edge2_Node000002_Node000003" class="edge">
<title>Node2&#45;&gt;Node3</title>
<g id="a_edge2_Node000002_Node000003"><a xlink:title=" ">
<path fill="none" stroke="#63b8ff" d="M277.36,-508.37C293.47,-512.88 311.11,-517.82 327.78,-522.48"/>
<polygon fill="#63b8ff" stroke="#63b8ff" points="326.54,-525.77 337.12,-525.1 328.43,-519.03 326.54,-525.77"/>
</a>
</g>
</g>
<!-- Node5 -->
<g id="Node000005" class="node">
<title>Node5</title>
<g id="a_Node000005"><a xlink:href="class_v_r_e_1_1_v_r_e___swap_chain.html#a4eb9ee8a5485a62ffa0bdd4f1494ea79" target="_top" xlink:title=" ">
<polygon fill="white" stroke="#666666" points="458.25,-408 338.75,-408 338.75,-376 458.25,-376 458.25,-408"/>
<text text-anchor="start" x="346.75" y="-394.5" font-family="Helvetica,sans-Serif" font-size="10.00">VRE::VRE_SwapChain</text>
<text text-anchor="middle" x="398.5" y="-382.5" font-family="Helvetica,sans-Serif" font-size="10.00">::FindDepthFormat</text>
</a>
</g>
</g>
<!-- Node2&#45;&gt;Node5 -->
<g id="edge4_Node000002_Node000005" class="edge">
<title>Node2&#45;&gt;Node5</title>
<g id="a_edge4_Node000002_Node000005"><a xlink:title=" ">
<path fill="none" stroke="#63b8ff" d="M266.94,-475.57C271.65,-473.05 276.18,-470.2 280.25,-467 301.77,-450.06 294.01,-432.97 316.25,-417 320.03,-414.29 324.1,-411.87 328.35,-409.7"/>
<polygon fill="#63b8ff" stroke="#63b8ff" points="329.46,-413.04 337.13,-405.73 326.57,-406.67 329.46,-413.04"/>
</a>
</g>
</g>
<!-- Node7 -->
<g id="Node000007" class="node">
<title>Node7</title>
<g id="a_Node000007"><a xlink:href="class_v_r_e_1_1_v_r_e___swap_chain.html#a0d7125e8f2743c4ebff9b1e217d0a531" target="_top" xlink:title=" ">
<polygon fill="white" stroke="#666666" points="458.25,-458 338.75,-458 338.75,-426 458.25,-426 458.25,-458"/>
<text text-anchor="start" x="346.75" y="-444.5" font-family="Helvetica,sans-Serif" font-size="10.00">VRE::VRE_SwapChain</text>
<text text-anchor="middle" x="398.5" y="-432.5" font-family="Helvetica,sans-Serif" font-size="10.00">::GetImageCount</text>
</a>
</g>
</g>
<!-- Node2&#45;&gt;Node7 -->
<g id="edge6_Node000002_Node000007" class="edge">
<title>Node2&#45;&gt;Node7</title>
<g id="a_edge6_Node000002_Node000007"><a xlink:title=" ">
<path fill="none" stroke="#63b8ff" d="M277.36,-475.63C293.47,-471.12 311.11,-466.18 327.78,-461.52"/>
<polygon fill="#63b8ff" stroke="#63b8ff" points="328.43,-464.97 337.12,-458.9 326.54,-458.23 328.43,-464.97"/>
</a>
</g>
</g>
<!-- Node8 -->
<g id="Node000008" class="node">
<title>Node8</title>
<g id="a_Node000008"><a xlink:href="class_v_r_e_1_1_v_r_e___swap_chain.html#a323d9f1e3959053b88f7af19744b578c" target="_top" xlink:title=" ">
<polygon fill="white" stroke="#666666" points="458.25,-508 338.75,-508 338.75,-476 458.25,-476 458.25,-508"/>
<text text-anchor="start" x="346.75" y="-494.5" font-family="Helvetica,sans-Serif" font-size="10.00">VRE::VRE_SwapChain</text>
<text text-anchor="middle" x="398.5" y="-482.5" font-family="Helvetica,sans-Serif" font-size="10.00">::GetSwapChainExtent</text>
</a>
</g>
</g>
<!-- Node2&#45;&gt;Node8 -->
<g id="edge7_Node000002_Node000008" class="edge">
<title>Node2&#45;&gt;Node8</title>
<g id="a_edge7_Node000002_Node000008"><a xlink:title=" ">
<path fill="none" stroke="#63b8ff" d="M280.6,-492C295.69,-492 311.95,-492 327.4,-492"/>
<polygon fill="#63b8ff" stroke="#63b8ff" points="326.97,-495.5 336.97,-492 326.97,-488.5 326.97,-495.5"/>
</a>
</g>
</g>
<!-- Node9 -->
<g id="Node000009" class="node">
<title>Node9</title>
<g id="a_Node000009"><a xlink:href="class_v_r_e_1_1_v_r_e___device.html#a3b6e89f878e54464b3a03c1e4e84c52e" target="_top" xlink:title=" ">
<polygon fill="white" stroke="#666666" points="480.75,-358 316.25,-358 316.25,-338 480.75,-338 480.75,-358"/>
<text text-anchor="middle" x="398.5" y="-344.5" font-family="Helvetica,sans-Serif" font-size="10.00">VRE::VRE_Device::GetVkDevice</text>
</a>
</g>
</g>
<!-- Node2&#45;&gt;Node9 -->
<g id="edge8_Node000002_Node000009" class="edge">
<title>Node2&#45;&gt;Node9</title>
<g id="a_edge8_Node000002_Node000009"><a xlink:title=" ">
<path fill="none" stroke="#63b8ff" d="M269.71,-475.54C273.56,-473.07 277.14,-470.24 280.25,-467 312.96,-432.92 280.97,-398.41 316.25,-367 317.2,-366.16 318.17,-365.35 319.18,-364.58"/>
<polygon fill="#63b8ff" stroke="#63b8ff" points="320.97,-367.58 327.58,-359.3 317.25,-361.66 320.97,-367.58"/>
</a>
</g>
</g>
<!-- Node4 -->
<g id="Node000004" class="node">
<title>Node4</title>
<g id="a_Node000004"><a xlink:href="class_v_r_e_1_1_v_r_e___device.html#a2e8b8fd1480951dd2b669b263e0611e5" target="_top" xlink:title=" ">
<polygon fill="white" stroke="#666666" points="697.75,-552 516.75,-552 516.75,-532 697.75,-532 697.75,-552"/>
<text text-anchor="middle" x="607.25" y="-538.5" font-family="Helvetica,sans-Serif" font-size="10.00">VRE::VRE_Device::FindMemoryType</text>
</a>
</g>
</g>
<!-- Node3&#45;&gt;Node4 -->
<g id="edge3_Node000003_Node000004" class="edge">
<title>Node3&#45;&gt;Node4</title>
<g id="a_edge3_Node000003_Node000004"><a xlink:title=" ">
<path fill="none" stroke="#63b8ff" d="M480.03,-542C488.21,-542 496.6,-542 504.97,-542"/>
<polygon fill="#63b8ff" stroke="#63b8ff" points="504.83,-545.5 514.83,-542 504.83,-538.5 504.83,-545.5"/>
</a>
</g>
</g>
<!-- Node6 -->
<g id="Node000006" class="node">
<title>Node6</title>
<g id="a_Node000006"><a xlink:href="class_v_r_e_1_1_v_r_e___device.html#aaf3ae6a0100c9dca6974824bc3c607db" target="_top" xlink:title=" ">
<polygon fill="white" stroke="#666666" points="691.75,-408 522.75,-408 522.75,-376 691.75,-376 691.75,-408"/>
<text text-anchor="start" x="530.75" y="-394.5" font-family="Helvetica,sans-Serif" font-size="10.00">VRE::VRE_Device::FindSupported</text>
<text text-anchor="middle" x="607.25" y="-382.5" font-family="Helvetica,sans-Serif" font-size="10.00">Format</text>
</a>
</g>
</g>
<!-- Node5&#45;&gt;Node6 -->
<g id="edge5_Node000005_Node000006" class="edge">
<title>Node5&#45;&gt;Node6</title>
<g id="a_edge5_Node000005_Node000006"><a xlink:title=" ">
<path fill="none" stroke="#63b8ff" d="M458.75,-392C475.07,-392 493.21,-392 511.02,-392"/>
<polygon fill="#63b8ff" stroke="#63b8ff" points="510.83,-395.5 520.83,-392 510.83,-388.5 510.83,-395.5"/>
</a>
</g>
</g>
<!-- Node10&#45;&gt;Node7 -->
<g id="edge10_Node000010_Node000007" class="edge">
<title>Node10&#45;&gt;Node7</title>
<g id="a_edge10_Node000010_Node000007"><a xlink:title=" ">
<path fill="none" stroke="#63b8ff" d="M277.86,-442C293.63,-442 310.83,-442 327.15,-442"/>
<polygon fill="#63b8ff" stroke="#63b8ff" points="326.76,-445.5 336.76,-442 326.76,-438.5 326.76,-445.5"/>
</a>
</g>
</g>
<!-- Node10&#45;&gt;Node8 -->
<g id="edge11_Node000010_Node000008" class="edge">
<title>Node10&#45;&gt;Node8</title>
<g id="a_edge11_Node000010_Node000008"><a xlink:title=" ">
<path fill="none" stroke="#63b8ff" d="M277.36,-458.37C293.47,-462.88 311.11,-467.82 327.78,-472.48"/>
<polygon fill="#63b8ff" stroke="#63b8ff" points="326.54,-475.77 337.12,-475.1 328.43,-469.03 326.54,-475.77"/>
</a>
</g>
</g>
<!-- Node10&#45;&gt;Node9 -->
<g id="edge12_Node000010_Node000009" class="edge">
<title>Node10&#45;&gt;Node9</title>
<g id="a_edge12_Node000010_Node000009"><a xlink:title=" ">
<path fill="none" stroke="#63b8ff" d="M266.94,-425.57C271.65,-423.05 276.18,-420.2 280.25,-417 301.77,-400.06 293.47,-382.19 316.25,-367 318.36,-365.6 320.55,-364.29 322.82,-363.09"/>
<polygon fill="#63b8ff" stroke="#63b8ff" points="324.09,-366.35 331.74,-359.02 321.19,-359.98 324.09,-366.35"/>
</a>
</g>
</g>
<!-- Node11&#45;&gt;Node9 -->
<g id="edge14_Node000011_Node000009" class="edge">
<title>Node11&#45;&gt;Node9</title>
<g id="a_edge14_Node000011_Node000009"><a xlink:title=" ">
<path fill="none" stroke="#63b8ff" d="M277.86,-343.98C286.43,-344.27 295.43,-344.57 304.48,-344.88"/>
<polygon fill="#63b8ff" stroke="#63b8ff" points="304.31,-348.37 314.43,-345.21 304.55,-341.38 304.31,-348.37"/>
</a>
</g>
</g>
<!-- Node12&#45;&gt;Node5 -->
<g id="edge16_Node000012_Node000005" class="edge">
<title>Node12&#45;&gt;Node5</title>
<g id="a_edge16_Node000012_Node000005"><a xlink:title=" ">
<path fill="none" stroke="#63b8ff" d="M266.94,-308.43C271.65,-310.95 276.18,-313.8 280.25,-317 301.77,-333.94 294.01,-351.03 316.25,-367 320.03,-369.71 324.1,-372.13 328.35,-374.3"/>
<polygon fill="#63b8ff" stroke="#63b8ff" points="326.57,-377.33 337.13,-378.27 329.46,-370.96 326.57,-377.33"/>
</a>
</g>
</g>
<!-- Node12&#45;&gt;Node9 -->
<g id="edge18_Node000012_Node000009" class="edge">
<title>Node12&#45;&gt;Node9</title>
<g id="a_edge18_Node000012_Node000009"><a xlink:title=" ">
<path fill="none" stroke="#63b8ff" d="M258.26,-308.33C275.82,-315.26 296.88,-323.08 316.25,-329 322.98,-331.05 330.08,-333.01 337.17,-334.84"/>
<polygon fill="#63b8ff" stroke="#63b8ff" points="336.22,-338.21 346.77,-337.23 337.91,-331.42 336.22,-338.21"/>
</a>
</g>
</g>
<!-- Node13 -->
<g id="Node000013" class="node">
<title>Node13</title>
<g id="a_Node000013"><a xlink:href="class_v_r_e_1_1_v_r_e___swap_chain.html#af35795133f50bcf3d79f55e2cc202cd6" target="_top" xlink:title=" ">
<polygon fill="white" stroke="#666666" points="471.38,-320 325.62,-320 325.62,-288 471.38,-288 471.38,-320"/>
<text text-anchor="start" x="333.62" y="-306.5" font-family="Helvetica,sans-Serif" font-size="10.00">VRE::VRE_SwapChain</text>
<text text-anchor="middle" x="398.5" y="-294.5" font-family="Helvetica,sans-Serif" font-size="10.00">::GetSwapChainImageFormat</text>
</a>
</g>
</g>
<!-- Node12&#45;&gt;Node13 -->
<g id="edge17_Node000012_Node000013" class="edge">
<title>Node12&#45;&gt;Node13</title>
<g id="a_edge17_Node000012_Node000013"><a xlink:title=" ">
<path fill="none" stroke="#63b8ff" d="M277.86,-295.96C289.45,-296.74 301.82,-297.57 314.04,-298.39"/>
<polygon fill="#63b8ff" stroke="#63b8ff" points="313.47,-301.86 323.68,-299.04 313.94,-294.88 313.47,-301.86"/>
</a>
</g>
</g>
<!-- Node14&#45;&gt;Node9 -->
<g id="edge28_Node000014_Node000009" class="edge">
<title>Node14&#45;&gt;Node9</title>
<g id="a_edge28_Node000014_Node000009"><a xlink:title=" ">
<path fill="none" stroke="#63b8ff" d="M230.83,-195.27C243.51,-212.72 263.93,-241.4 280.25,-267 297.38,-293.87 290.64,-310.04 316.25,-329 318,-330.29 319.82,-331.5 321.7,-332.63"/>
<polygon fill="#63b8ff" stroke="#63b8ff" points="319.68,-335.52 330.18,-336.93 322.84,-329.28 319.68,-335.52"/>
</a>
</g>
</g>
<!-- Node15 -->
<g id="Node000015" class="node">
<title>Node15</title>
<g id="a_Node000015"><a xlink:href="class_v_r_e_1_1_v_r_e___swap_chain.html#a04cf5db3442eeef1af26ef00be8d9885" target="_top" xlink:title=" ">
<polygon fill="white" stroke="#666666" points="458.25,-270 338.75,-270 338.75,-238 458.25,-238 458.25,-270"/>
<text text-anchor="start" x="346.75" y="-256.5" font-family="Helvetica,sans-Serif" font-size="10.00">VRE::VRE_SwapChain</text>
<text text-anchor="middle" x="398.5" y="-244.5" font-family="Helvetica,sans-Serif" font-size="10.00">::ChooseSwapExtent</text>
</a>
</g>
</g>
<!-- Node14&#45;&gt;Node15 -->
<g id="edge20_Node000014_Node000015" class="edge">
<title>Node14&#45;&gt;Node15</title>
<g id="a_edge20_Node000014_Node000015"><a xlink:title=" ">
<path fill="none" stroke="#63b8ff" d="M247.65,-195.47C266.71,-205.96 292.49,-219.33 316.25,-229 320.36,-230.67 324.63,-232.3 328.96,-233.86"/>
<polygon fill="#63b8ff" stroke="#63b8ff" points="327.77,-237.16 338.36,-237.13 330.06,-230.54 327.77,-237.16"/>
</a>
</g>
</g>
<!-- Node16 -->
<g id="Node000016" class="node">
<title>Node16</title>
<g id="a_Node000016"><a xlink:href="class_v_r_e_1_1_v_r_e___swap_chain.html#a6ad223607b459d6fa64c3ed2498797bf" target="_top" xlink:title=" ">
<polygon fill="white" stroke="#666666" points="467.62,-220 329.38,-220 329.38,-188 467.62,-188 467.62,-220"/>
<text text-anchor="start" x="337.38" y="-206.5" font-family="Helvetica,sans-Serif" font-size="10.00">VRE::VRE_SwapChain</text>
<text text-anchor="middle" x="398.5" y="-194.5" font-family="Helvetica,sans-Serif" font-size="10.00">::ChooseSwapPresentMode</text>
</a>
</g>
</g>
<!-- Node14&#45;&gt;Node16 -->
<g id="edge21_Node000014_Node000016" class="edge">
<title>Node14&#45;&gt;Node16</title>
<g id="a_edge21_Node000014_Node000016"><a xlink:title=" ">
<path fill="none" stroke="#63b8ff" d="M277.86,-187.26C290.64,-189.04 304.36,-190.96 317.79,-192.84"/>
<polygon fill="#63b8ff" stroke="#63b8ff" points="317.09,-196.28 327.48,-194.2 318.06,-189.35 317.09,-196.28"/>
</a>
</g>
</g>
<!-- Node17 -->
<g id="Node000017" class="node">
<title>Node17</title>
<g id="a_Node000017"><a xlink:href="class_v_r_e_1_1_v_r_e___swap_chain.html#a575538bcc18de6bcb5278af1a27e50d2" target="_top" xlink:title=" ">
<polygon fill="white" stroke="#666666" points="471,-170 326,-170 326,-138 471,-138 471,-170"/>
<text text-anchor="start" x="334" y="-156.5" font-family="Helvetica,sans-Serif" font-size="10.00">VRE::VRE_SwapChain</text>
<text text-anchor="middle" x="398.5" y="-144.5" font-family="Helvetica,sans-Serif" font-size="10.00">::ChooseSwapSurfaceFormat</text>
</a>
</g>
</g>
<!-- Node14&#45;&gt;Node17 -->
<g id="edge22_Node000014_Node000017" class="edge">
<title>Node14&#45;&gt;Node17</title>
<g id="a_edge22_Node000014_Node000017"><a xlink:title=" ">
<path fill="none" stroke="#63b8ff" d="M277.86,-170.74C289.53,-169.11 301.98,-167.37 314.28,-165.65"/>
<polygon fill="#63b8ff" stroke="#63b8ff" points="314.59,-169.14 324.01,-164.29 313.62,-162.21 314.59,-169.14"/>
</a>
</g>
</g>
<!-- Node18 -->
<g id="Node000018" class="node">
<title>Node18</title>
<g id="a_Node000018"><a xlink:href="class_v_r_e_1_1_v_r_e___device.html#a69f90869ef38058b3880e3f87ae07ade" target="_top" xlink:title=" ">
<polygon fill="white" stroke="#666666" points="479.62,-120 317.38,-120 317.38,-88 479.62,-88 479.62,-120"/>
<text text-anchor="start" x="325.38" y="-106.5" font-family="Helvetica,sans-Serif" font-size="10.00">VRE::VRE_Device::FindPhysical</text>
<text text-anchor="middle" x="398.5" y="-94.5" font-family="Helvetica,sans-Serif" font-size="10.00">QueueFamilies</text>
</a>
</g>
</g>
<!-- Node14&#45;&gt;Node18 -->
<g id="edge23_Node000014_Node000018" class="edge">
<title>Node14&#45;&gt;Node18</title>
<g id="a_edge23_Node000014_Node000018"><a xlink:title=" ">
<path fill="none" stroke="#63b8ff" d="M247.65,-162.53C266.71,-152.04 292.49,-138.67 316.25,-129 320.36,-127.33 324.63,-125.7 328.96,-124.14"/>
<polygon fill="#63b8ff" stroke="#63b8ff" points="330.06,-127.46 338.36,-120.87 327.77,-120.84 330.06,-127.46"/>
</a>
</g>
</g>
<!-- Node21 -->
<g id="Node000021" class="node">
<title>Node21</title>
<g id="a_Node000021"><a xlink:href="class_v_r_e_1_1_v_r_e___device.html#aaaf7ec5ac218bf43766fb3a61cc60965" target="_top" xlink:title=" ">
<polygon fill="white" stroke="#666666" points="471.75,-70 325.25,-70 325.25,-38 471.75,-38 471.75,-70"/>
<text text-anchor="start" x="333.25" y="-56.5" font-family="Helvetica,sans-Serif" font-size="10.00">VRE::VRE_Device::GetSwap</text>
<text text-anchor="middle" x="398.5" y="-44.5" font-family="Helvetica,sans-Serif" font-size="10.00">ChainSupport</text>
</a>
</g>
</g>
<!-- Node14&#45;&gt;Node21 -->
<g id="edge26_Node000014_Node000021" class="edge">
<title>Node14&#45;&gt;Node21</title>
<g id="a_edge26_Node000014_Node000021"><a xlink:title=" ">
<path fill="none" stroke="#63b8ff" d="M230.52,-162.7C247.11,-140.61 279.65,-101.37 316.25,-79 318.4,-77.69 320.62,-76.44 322.9,-75.25"/>
<polygon fill="#63b8ff" stroke="#63b8ff" points="324.24,-78.48 331.81,-71.07 321.27,-72.15 324.24,-78.48"/>
</a>
</g>
</g>
<!-- Node23 -->
<g id="Node000023" class="node">
<title>Node23</title>
<g id="a_Node000023"><a xlink:href="class_v_r_e_1_1_v_r_e___device.html#a5f4c0b082d6998ad49fc5616e8c3d48b" target="_top" xlink:title=" ">
<polygon fill="white" stroke="#666666" points="468.38,-20 328.62,-20 328.62,0 468.38,0 468.38,-20"/>
<text text-anchor="middle" x="398.5" y="-6.5" font-family="Helvetica,sans-Serif" font-size="10.00">VRE::VRE_Device::Surface</text>
</a>
</g>
</g>
<!-- Node14&#45;&gt;Node23 -->
<g id="edge29_Node000014_Node000023" class="edge">
<title>Node14&#45;&gt;Node23</title>
<g id="a_edge29_Node000014_Node000023"><a xlink:title=" ">
<path fill="none" stroke="#63b8ff" d="M224.57,-162.96C236.46,-131.91 266.96,-63.62 316.25,-29 318.07,-27.72 319.97,-26.52 321.92,-25.41"/>
<polygon fill="#63b8ff" stroke="#63b8ff" points="323.28,-28.64 330.76,-21.13 320.23,-22.34 323.28,-28.64"/>
</a>
</g>
</g>
<!-- Node19 -->
<g id="Node000019" class="node">
<title>Node19</title>
<g id="a_Node000019"><a xlink:href="class_v_r_e_1_1_v_r_e___device.html#a49164610e5f85640d5a4f59613cb3539" target="_top" xlink:title=" ">
<polygon fill="white" stroke="#666666" points="683.88,-120 530.62,-120 530.62,-88 683.88,-88 683.88,-120"/>
<text text-anchor="start" x="538.62" y="-106.5" font-family="Helvetica,sans-Serif" font-size="10.00">VRE::VRE_Device::FindQueue</text>
<text text-anchor="middle" x="607.25" y="-94.5" font-family="Helvetica,sans-Serif" font-size="10.00">Families</text>
</a>
</g>
</g>
<!-- Node18&#45;&gt;Node19 -->
<g id="edge24_Node000018_Node000019" class="edge">
<title>Node18&#45;&gt;Node19</title>
<g id="a_edge24_Node000018_Node000019"><a xlink:title=" ">
<path fill="none" stroke="#63b8ff" d="M480.03,-104C492.83,-104 506.13,-104 519.07,-104"/>
<polygon fill="#63b8ff" stroke="#63b8ff" points="518.83,-107.5 528.83,-104 518.83,-100.5 518.83,-107.5"/>
</a>
</g>
</g>
<!-- Node20 -->
<g id="Node000020" class="node">
<title>Node20</title>
<g id="a_Node000020"><a xlink:href="struct_v_r_e_1_1_queue_family_indices.html#a163909a037bfb772931414e8557eb5b6" target="_top" xlink:title=" ">
<polygon fill="white" stroke="#666666" points="866,-120 733.75,-120 733.75,-88 866,-88 866,-120"/>
<text text-anchor="start" x="741.75" y="-106.5" font-family="Helvetica,sans-Serif" font-size="10.00">VRE::QueueFamilyIndices</text>
<text text-anchor="middle" x="799.88" y="-94.5" font-family="Helvetica,sans-Serif" font-size="10.00">::IsComplete</text>
</a>
</g>
</g>
<!-- Node19&#45;&gt;Node20 -->
<g id="edge25_Node000019_Node000020" class="edge">
<title>Node19&#45;&gt;Node20</title>
<g id="a_edge25_Node000019_Node000020"><a xlink:title=" ">
<path fill="none" stroke="#63b8ff" d="M684.14,-104C696.62,-104 709.56,-104 722.06,-104"/>
<polygon fill="#63b8ff" stroke="#63b8ff" points="721.88,-107.5 731.88,-104 721.88,-100.5 721.88,-107.5"/>
</a>
</g>
</g>
<!-- Node22 -->
<g id="Node000022" class="node">
<title>Node22</title>
<g id="a_Node000022"><a xlink:href="class_v_r_e_1_1_v_r_e___device.html#a30a3edcffb07cf4e3050b438405bbd81" target="_top" xlink:title=" ">
<polygon fill="white" stroke="#666666" points="685.75,-70 528.75,-70 528.75,-38 685.75,-38 685.75,-70"/>
<text text-anchor="start" x="536.75" y="-56.5" font-family="Helvetica,sans-Serif" font-size="10.00">VRE::VRE_Device::QuerySwap</text>
<text text-anchor="middle" x="607.25" y="-44.5" font-family="Helvetica,sans-Serif" font-size="10.00">ChainSupport</text>
</a>
</g>
</g>
<!-- Node21&#45;&gt;Node22 -->
<g id="edge27_Node000021_Node000022" class="edge">
<title>Node21&#45;&gt;Node22</title>
<g id="a_edge27_Node000021_Node000022"><a xlink:title=" ">
<path fill="none" stroke="#63b8ff" d="M472.1,-54C486.66,-54 502.11,-54 517.15,-54"/>
<polygon fill="#63b8ff" stroke="#63b8ff" points="517.04,-57.5 527.04,-54 517.04,-50.5 517.04,-57.5"/>
</a>
</g>
</g>
<!-- Node24&#45;&gt;Node7 -->
<g id="edge31_Node000024_Node000007" class="edge">
<title>Node24&#45;&gt;Node7</title>
<g id="a_edge31_Node000024_Node000007"><a xlink:title=" ">
<path fill="none" stroke="#63b8ff" d="M277.36,-408.37C293.47,-412.88 311.11,-417.82 327.78,-422.48"/>
<polygon fill="#63b8ff" stroke="#63b8ff" points="326.54,-425.77 337.12,-425.1 328.43,-419.03 326.54,-425.77"/>
</a>
</g>
</g>
<!-- Node24&#45;&gt;Node9 -->
<g id="edge32_Node000024_Node000009" class="edge">
<title>Node24&#45;&gt;Node9</title>
<g id="a_edge32_Node000024_Node000009"><a xlink:title=" ">
<path fill="none" stroke="#63b8ff" d="M278.04,-376.59C290.64,-373.37 303.88,-370.03 316.25,-367 324.18,-365.05 332.56,-363.04 340.8,-361.09"/>
<polygon fill="#63b8ff" stroke="#63b8ff" points="341.5,-364.52 350.43,-358.83 339.9,-357.71 341.5,-364.52"/>
</a>
</g>
</g>
</g>
</svg>
