<?xml version="1.0" encoding="UTF-8" standalone="no"?>
<!DOCTYPE svg PUBLIC "-//W3C//DTD SVG 1.1//EN"
 "http://www.w3.org/Graphics/SVG/1.1/DTD/svg11.dtd">
<!-- Generated by graphviz version 12.1.2 (20240928.0832)
 -->
<!-- Title: Graph Legend Pages: 1 -->
<svg width="505pt" height="196pt"
 viewBox="0.00 0.00 505.38 196.00" xmlns="http://www.w3.org/2000/svg" xmlns:xlink="http://www.w3.org/1999/xlink">
<g id="graph0" class="graph" transform="scale(1 1) rotate(0) translate(4 192)">
<title>Graph Legend</title>
<!-- Node9 -->
<g id="Node000009" class="node">
<title>Node9</title>
<g id="a_Node000009"><a xlink:title=" ">
<polygon fill="#999999" stroke="#666666" points="290.5,-20 237,-20 237,0 290.5,0 290.5,-20"/>
<text text-anchor="middle" x="263.75" y="-6.5" font-family="Helvetica,sans-Serif" font-size="10.00">Inherited</text>
</a>
</g>
</g>
<!-- Node10 -->
<g id="Node000010" class="node">
<title>Node10</title>
<g id="a_Node000010"><a xlink:title=" ">
<polygon fill="white" stroke="#666666" points="65.5,-96 0,-96 0,-76 65.5,-76 65.5,-96"/>
<text text-anchor="middle" x="32.75" y="-82.5" font-family="Helvetica,sans-Serif" font-size="10.00">PublicBase</text>
</a>
</g>
</g>
<!-- Node10&#45;&gt;Node9 -->
<g id="edge1" class="edge">
<title>Node10&#45;&gt;Node9</title>
<g id="a_edge1"><a xlink:title=" ">
<path fill="none" stroke="#63b8ff" d="M65.37,-71.46C68.52,-70.25 71.69,-69.08 74.75,-68 131.64,-47.95 199.64,-28.53 236.58,-18.35"/>
<polygon fill="#63b8ff" stroke="#63b8ff" points="64.26,-68.13 56.25,-75.06 66.83,-74.64 64.26,-68.13"/>
</a>
</g>
</g>
<!-- Node11 -->
<g id="Node000011" class="node">
<title>Node11</title>
<g id="a_Node000011"><a xlink:title=" ">
<polygon fill="#fff0f0" stroke="red" points="62.5,-180 3,-180 3,-160 62.5,-160 62.5,-180"/>
<text text-anchor="middle" x="32.75" y="-166.5" font-family="Helvetica,sans-Serif" font-size="10.00">Truncated</text>
</a>
</g>
</g>
<!-- Node11&#45;&gt;Node10 -->
<g id="edge2" class="edge">
<title>Node11&#45;&gt;Node10</title>
<g id="a_edge2"><a xlink:title=" ">
<path fill="none" stroke="#63b8ff" d="M32.75,-148.25C32.75,-131.54 32.75,-108.84 32.75,-96.3"/>
<polygon fill="#63b8ff" stroke="#63b8ff" points="29.25,-148.08 32.75,-158.08 36.25,-148.08 29.25,-148.08"/>
</a>
</g>
</g>
<!-- Node13 -->
<g id="node4" class="node">
<title>Node13</title>
<g id="a_node4"><a xlink:title=" ">
<polygon fill="white" stroke="#666666" points="164,-104 83.5,-104 83.5,-68 164,-68 164,-104"/>
<text text-anchor="middle" x="123.75" y="-82.5" font-family="Helvetica,sans-Serif" font-size="10.00">ProtectedBase</text>
</a>
</g>
</g>
<!-- Node13&#45;&gt;Node9 -->
<g id="edge3" class="edge">
<title>Node13&#45;&gt;Node9</title>
<g id="a_edge3"><a xlink:title=" ">
<path fill="none" stroke="darkgreen" d="M166.47,-62.42C193.19,-48.3 226.19,-30.85 246.08,-20.34"/>
<polygon fill="darkgreen" stroke="darkgreen" points="165.12,-59.18 157.91,-66.94 168.39,-65.36 165.12,-59.18"/>
</a>
</g>
</g>
<!-- Node14 -->
<g id="node5" class="node">
<title>Node14</title>
<g id="a_node5"><a xlink:title=" ">
<polygon fill="white" stroke="#666666" points="251.38,-104 182.12,-104 182.12,-68 251.38,-68 251.38,-104"/>
<text text-anchor="middle" x="216.75" y="-82.5" font-family="Helvetica,sans-Serif" font-size="10.00">PrivateBase</text>
</a>
</g>
</g>
<!-- Node14&#45;&gt;Node9 -->
<g id="edge4" class="edge">
<title>Node14&#45;&gt;Node9</title>
<g id="a_edge4"><a xlink:title=" ">
<path fill="none" stroke="#8b1a1a" d="M233.8,-58.16C242.25,-44.85 251.91,-29.65 257.92,-20.19"/>
<polygon fill="#8b1a1a" stroke="#8b1a1a" points="230.87,-56.24 228.46,-66.56 236.78,-59.99 230.87,-56.24"/>
</a>
</g>
</g>
<!-- Node15 -->
<g id="Node000015" class="node">
<title>Node15</title>
<g id="a_Node000015"><a xlink:title=" ">
<polygon fill="#e0e0e0" stroke="#999999" points="351.75,-96 269.75,-96 269.75,-76 351.75,-76 351.75,-96"/>
<text text-anchor="middle" x="310.75" y="-82.5" font-family="Helvetica,sans-Serif" font-size="10.00">Undocumented</text>
</a>
</g>
</g>
<!-- Node15&#45;&gt;Node9 -->
<g id="edge5" class="edge">
<title>Node15&#45;&gt;Node9</title>
<g id="a_edge5"><a xlink:title=" ">
<path fill="none" stroke="#63b8ff" d="M298.66,-65.97C289.29,-51.22 276.73,-31.43 269.51,-20.06"/>
<polygon fill="#63b8ff" stroke="#63b8ff" points="295.67,-67.79 303.99,-74.35 301.58,-64.03 295.67,-67.79"/>
</a>
</g>
</g>
<!-- Node16 -->
<g id="node7" class="node">
<title>Node16</title>
<g id="a_node7"><a xlink:title=" ">
<polygon fill="white" stroke="#666666" points="440.12,-104 369.38,-104 369.38,-68 440.12,-68 440.12,-104"/>
<text text-anchor="middle" x="404.75" y="-82.5" font-family="Helvetica,sans-Serif" font-size="10.00">Templ&lt; int &gt;</text>
</a>
</g>
</g>
<!-- Node16&#45;&gt;Node9 -->
<g id="edge6" class="edge">
<title>Node16&#45;&gt;Node9</title>
<g id="a_edge6"><a xlink:title=" ">
<path fill="none" stroke="#63b8ff" d="M361.73,-62.42C334.82,-48.3 301.58,-30.85 281.55,-20.34"/>
<polygon fill="#63b8ff" stroke="#63b8ff" points="359.87,-65.4 370.35,-66.95 363.12,-59.2 359.87,-65.4"/>
</a>
</g>
</g>
<!-- Node17 -->
<g id="node8" class="node">
<title>Node17</title>
<g id="a_node8"><a xlink:title=" ">
<polygon fill="white" stroke="#666666" points="437.5,-188 372,-188 372,-152 437.5,-152 437.5,-188"/>
<text text-anchor="middle" x="404.75" y="-166.5" font-family="Helvetica,sans-Serif" font-size="10.00">Templ&lt; T &gt;</text>
</a>
</g>
</g>
<!-- Node17&#45;&gt;Node16 -->
<g id="edge7" class="edge">
<title>Node17&#45;&gt;Node16</title>
<g id="a_edge7"><a xlink:title=" ">
<path fill="none" stroke="orange" stroke-dasharray="5,2" d="M404.75,-140.31C404.75,-128.33 404.75,-114.8 404.75,-104.37"/>
<polygon fill="orange" stroke="orange" points="401.25,-140.1 404.75,-150.1 408.25,-140.1 401.25,-140.1"/>
</a>
</g>
<text text-anchor="middle" x="419" y="-124.5" font-family="Helvetica,sans-Serif" font-size="10.00" fill="grey">&lt; int &gt;</text>
</g>
<!-- Node18 -->
<g id="node9" class="node">
<title>Node18</title>
<g id="a_node9"><a xlink:title=" ">
<polygon fill="white" stroke="#666666" points="497.38,-104 458.12,-104 458.12,-68 497.38,-68 497.38,-104"/>
<text text-anchor="middle" x="477.75" y="-82.5" font-family="Helvetica,sans-Serif" font-size="10.00">Used</text>
</a>
</g>
</g>
<!-- Node18&#45;&gt;Node9 -->
<g id="edge8" class="edge">
<title>Node18&#45;&gt;Node9</title>
<g id="a_edge8"><a xlink:title=" ">
<path fill="none" stroke="#9a32cd" stroke-dasharray="5,2" d="M447.39,-67.94C387.36,-42.23 325.47,-25.68 290.8,-17.24"/>
<polygon fill="#9a32cd" stroke="#9a32cd" points="445.83,-71.08 456.4,-71.89 448.64,-64.67 445.83,-71.08"/>
</a>
</g>
<text text-anchor="middle" x="429.27" y="-40.5" font-family="Helvetica,sans-Serif" font-size="10.00" fill="grey">m_usedClass</text>
</g>
</g>
</svg>
