<?xml version="1.0" encoding="UTF-8" standalone="no"?>
<!DOCTYPE svg PUBLIC "-//W3C//DTD SVG 1.1//EN"
 "http://www.w3.org/Graphics/SVG/1.1/DTD/svg11.dtd">
<!-- Generated by graphviz version 12.1.2 (20240928.0832)
 -->
<!-- Title: VRE::UBO Pages: 1 -->
<svg width="160pt" height="240pt"
 viewBox="0.00 0.00 160.00 240.00" xmlns="http://www.w3.org/2000/svg" xmlns:xlink="http://www.w3.org/1999/xlink">
<g id="graph0" class="graph" transform="scale(1 1) rotate(0) translate(4 236)">
<title>VRE::UBO</title>
<!-- Node1 -->
<g id="Node000001" class="node">
<title>Node1</title>
<g id="a_Node000001"><a xlink:title=" ">
<polygon fill="#999999" stroke="none" points="152,-116 0,-116 0,0 152,0 152,-116"/>
<text text-anchor="start" x="51.62" y="-102.5" font-family="Helvetica,sans-Serif" font-size="10.00">VRE::UBO</text>
<text text-anchor="start" x="4" y="-86.5" font-family="Helvetica,sans-Serif" font-size="10.00">+</text>
<text text-anchor="start" x="14" y="-86.5" font-family="Helvetica,sans-Serif" font-size="10.00">glm::mat4 mProjectionMat</text>
<text text-anchor="start" x="4" y="-70.5" font-family="Helvetica,sans-Serif" font-size="10.00">+</text>
<text text-anchor="start" x="14" y="-70.5" font-family="Helvetica,sans-Serif" font-size="10.00">glm::mat4 mViewMat</text>
<text text-anchor="start" x="4" y="-54.5" font-family="Helvetica,sans-Serif" font-size="10.00">+</text>
<text text-anchor="start" x="14" y="-54.5" font-family="Helvetica,sans-Serif" font-size="10.00">glm::mat4 mInvViewMat</text>
<text text-anchor="start" x="4" y="-38.5" font-family="Helvetica,sans-Serif" font-size="10.00">+</text>
<text text-anchor="start" x="14" y="-38.5" font-family="Helvetica,sans-Serif" font-size="10.00">glm::vec4 mAmbientLightColor</text>
<text text-anchor="start" x="4" y="-22.5" font-family="Helvetica,sans-Serif" font-size="10.00">+</text>
<text text-anchor="start" x="14" y="-22.5" font-family="Helvetica,sans-Serif" font-size="10.00">int mActiveLightCount</text>
<text text-anchor="start" x="74.5" y="-6.5" font-family="Helvetica,sans-Serif" font-size="10.00"> </text>
<polygon fill="#666666" stroke="#666666" points="0,-98 0,-98 152,-98 152,-98 0,-98"/>
<polygon fill="#666666" stroke="#666666" points="0,-18 0,-18 12,-18 12,-18 0,-18"/>
<polygon fill="#666666" stroke="#666666" points="12,-18 12,-18 152,-18 152,-18 12,-18"/>
<polygon fill="none" stroke="#666666" points="0,0 0,-116 152,-116 152,0 0,0"/>
</a>
</g>
</g>
<!-- Node2 -->
<g id="Node000002" class="node">
<title>Node2</title>
<g id="a_Node000002"><a xlink:href="struct_v_r_e_1_1_point_light_info.html" target="_top" xlink:title=" ">
<polygon fill="white" stroke="none" points="129.5,-232 22.5,-232 22.5,-164 129.5,-164 129.5,-232"/>
<text text-anchor="start" x="32.5" y="-218.5" font-family="Helvetica,sans-Serif" font-size="10.00">VRE::PointLightInfo</text>
<text text-anchor="start" x="26.5" y="-202.5" font-family="Helvetica,sans-Serif" font-size="10.00">+</text>
<text text-anchor="start" x="36.5" y="-202.5" font-family="Helvetica,sans-Serif" font-size="10.00">glm::vec4 mPosition</text>
<text text-anchor="start" x="26.5" y="-186.5" font-family="Helvetica,sans-Serif" font-size="10.00">+</text>
<text text-anchor="start" x="36.5" y="-186.5" font-family="Helvetica,sans-Serif" font-size="10.00">glm::vec4 mColor</text>
<text text-anchor="start" x="74.5" y="-170.5" font-family="Helvetica,sans-Serif" font-size="10.00"> </text>
<polygon fill="#666666" stroke="#666666" points="22.5,-214 22.5,-214 129.5,-214 129.5,-214 22.5,-214"/>
<polygon fill="#666666" stroke="#666666" points="22.5,-182 22.5,-182 34.5,-182 34.5,-182 22.5,-182"/>
<polygon fill="#666666" stroke="#666666" points="34.5,-182 34.5,-182 129.5,-182 129.5,-182 34.5,-182"/>
<polygon fill="none" stroke="#666666" points="22.5,-164 22.5,-232 129.5,-232 129.5,-164 22.5,-164"/>
</a>
</g>
</g>
<!-- Node2&#45;&gt;Node1 -->
<g id="edge1_Node000001_Node000002" class="edge">
<title>Node2&#45;&gt;Node1</title>
<g id="a_edge1_Node000001_Node000002"><a xlink:title=" ">
<path fill="none" stroke="#63b8ff" d="M76,-164.3C76,-153.53 76,-141.12 76,-128.67"/>
<polygon fill="none" stroke="#63b8ff" points="76,-128.66 72,-122.66 76,-116.66 80,-122.66 76,-128.66"/>
</a>
</g>
<text text-anchor="middle" x="109" y="-136.5" font-family="Helvetica,sans-Serif" font-size="10.00" fill="grey"> +mPointLights</text>
</g>
</g>
</svg>
