<?xml version="1.0" encoding="UTF-8" standalone="no"?>
<!DOCTYPE svg PUBLIC "-//W3C//DTD SVG 1.1//EN"
 "http://www.w3.org/Graphics/SVG/1.1/DTD/svg11.dtd">
<!-- Generated by graphviz version 12.1.2 (20240928.0832)
 -->
<!-- Title: VRE::glTFNode Pages: 1 -->
<svg width="195pt" height="184pt"
 viewBox="0.00 0.00 195.25 184.00" xmlns="http://www.w3.org/2000/svg" xmlns:xlink="http://www.w3.org/1999/xlink">
<g id="graph0" class="graph" transform="scale(1 1) rotate(0) translate(4 180)">
<title>VRE::glTFNode</title>
<!-- Node1 -->
<g id="Node000001" class="node">
<title>Node1</title>
<g id="a_Node000001"><a xlink:title=" ">
<polygon fill="#999999" stroke="none" points="123.5,-64 7.5,-64 7.5,0 123.5,0 123.5,-64"/>
<text text-anchor="start" x="30.62" y="-50.5" font-family="Helvetica,sans-Serif" font-size="10.00">VRE::glTFNode</text>
<text text-anchor="start" x="11.5" y="-34.5" font-family="Helvetica,sans-Serif" font-size="10.00">+</text>
<text text-anchor="start" x="21.5" y="-34.5" font-family="Helvetica,sans-Serif" font-size="10.00">std::vector&lt; glTFNode</text>
<text text-anchor="start" x="21.5" y="-22.5" font-family="Helvetica,sans-Serif" font-size="10.00"> * &gt; mChildren</text>
<text text-anchor="start" x="11.5" y="-6.5" font-family="Helvetica,sans-Serif" font-size="10.00">+</text>
<text text-anchor="start" x="21.5" y="-6.5" font-family="Helvetica,sans-Serif" font-size="10.00">~glTFNode()</text>
<polygon fill="#666666" stroke="#666666" points="7.5,-46 7.5,-46 123.5,-46 123.5,-46 7.5,-46"/>
<polygon fill="#666666" stroke="#666666" points="7.5,-18 7.5,-18 19.5,-18 19.5,-18 7.5,-18"/>
<polygon fill="#666666" stroke="#666666" points="19.5,-18 19.5,-18 123.5,-18 123.5,-18 19.5,-18"/>
<polygon fill="none" stroke="#666666" points="7.5,0 7.5,-64 123.5,-64 123.5,0 7.5,0"/>
</a>
</g>
</g>
<!-- Node1&#45;&gt;Node1 -->
<g id="edge1_Node000001_Node000001" class="edge">
<title>Node1&#45;&gt;Node1</title>
<g id="a_edge1_Node000001_Node000001"><a xlink:title=" ">
<path fill="none" stroke="#63b8ff" d="M123.49,-41.92C134.08,-40.67 141.5,-37.36 141.5,-32 141.5,-29.15 139.4,-26.88 135.85,-25.2"/>
<polygon fill="none" stroke="#63b8ff" points="136,-25.23 129.2,-27.64 124.36,-22.3 131.16,-19.89 136,-25.23"/>
</a>
</g>
<text text-anchor="middle" x="164.38" y="-28.5" font-family="Helvetica,sans-Serif" font-size="10.00" fill="grey"> +mParent</text>
</g>
<!-- Node2 -->
<g id="Node000002" class="node">
<title>Node2</title>
<g id="a_Node000002"><a xlink:href="struct_v_r_e_1_1gl_t_f_mesh.html" target="_top" xlink:title=" ">
<polygon fill="white" stroke="none" points="131,-176 0,-176 0,-112 131,-112 131,-176"/>
<text text-anchor="start" x="30.25" y="-162.5" font-family="Helvetica,sans-Serif" font-size="10.00">VRE::glTFMesh</text>
<text text-anchor="start" x="4" y="-146.5" font-family="Helvetica,sans-Serif" font-size="10.00">+</text>
<text text-anchor="start" x="14" y="-146.5" font-family="Helvetica,sans-Serif" font-size="10.00">std::vector&lt; glTFPrimitive</text>
<text text-anchor="start" x="14" y="-134.5" font-family="Helvetica,sans-Serif" font-size="10.00"> &gt; mPrimitives</text>
<text text-anchor="start" x="64" y="-118.5" font-family="Helvetica,sans-Serif" font-size="10.00"> </text>
<polygon fill="#666666" stroke="#666666" points="0,-158 0,-158 131,-158 131,-158 0,-158"/>
<polygon fill="#666666" stroke="#666666" points="0,-130 0,-130 12,-130 12,-130 0,-130"/>
<polygon fill="#666666" stroke="#666666" points="12,-130 12,-130 131,-130 131,-130 12,-130"/>
<polygon fill="none" stroke="#666666" points="0,-112 0,-176 131,-176 131,-112 0,-112"/>
</a>
</g>
</g>
<!-- Node2&#45;&gt;Node1 -->
<g id="edge2_Node000001_Node000002" class="edge">
<title>Node2&#45;&gt;Node1</title>
<g id="a_edge2_Node000001_Node000002"><a xlink:title=" ">
<path fill="none" stroke="#63b8ff" d="M65.5,-112.07C65.5,-101.08 65.5,-88.49 65.5,-76.64"/>
<polygon fill="none" stroke="#63b8ff" points="65.5,-76.6 61.5,-70.6 65.5,-64.6 69.5,-70.6 65.5,-76.6"/>
</a>
</g>
<text text-anchor="middle" x="86.12" y="-84.5" font-family="Helvetica,sans-Serif" font-size="10.00" fill="grey"> +mMesh</text>
</g>
</g>
</svg>
